<svg xmlns="http://www.w3.org/2000/svg" xmlns:xlink="http://www.w3.org/1999/xlink" id="body_2" preserveAspectRatio="xMinYMin meet" viewBox="0 0 816 1056"><defs><clipPath id="1"><path id="" clip-rule="evenodd" transform="matrix(1 0 0 1 0 0)" d="M0 792L0 0L0 0L612 0L612 0L612 792L612 792L0 792z" /></clipPath><clipPath id="2"><path id="" clip-rule="evenodd" transform="matrix(1 0 0 1 0 0)" d="M107.717 119.055L107.717 132.255L107.717 132.255L504.283 132.255L504.283 132.255L504.283 119.055L504.283 119.055L107.717 119.055" /></clipPath><clipPath id="3"><path id="" clip-rule="evenodd" transform="matrix(1 0 0 1 0 0)" d="M107.717 132.255L107.717 144.63L107.717 144.63L504.283 144.63L504.283 144.63L504.283 132.255L504.283 132.255L107.717 132.255" /></clipPath><clipPath id="4"><path id="" clip-rule="evenodd" transform="matrix(1 0 0 1 0 0)" d="M107.717 253.83L107.717 266.205L107.717 266.205L504.283 266.205L504.283 266.205L504.283 253.83L504.283 253.83L107.717 253.83" /></clipPath><clipPath id="5"><path id="" clip-rule="evenodd" transform="matrix(1 0 0 1 0 0)" d="M107.717 585.145L107.717 597.52L107.717 597.52L504.283 597.52L504.283 597.52L504.283 585.145L504.283 585.145L107.717 585.145" /></clipPath></defs><g transform="matrix(1.333333 0 0 1.333333 0 0)"><g clip-path="url(#1)"><g clip-path="url(#2)"><path id="1" transform="matrix(1 0 0 -1 0 792)" d="M107.717 672.945L504.284 672.945L504.284 659.745L107.717 659.745z" stroke="none" fill="#000000" fill-rule="nonzero" /></g><g clip-path="url(#3)"><path id="2" transform="matrix(1 0 0 -1 0 792)" d="M107.717 659.745L504.284 659.745L504.284 647.37L107.717 647.37z" stroke="none" fill="#E5E5E5" fill-rule="nonzero" /></g><g clip-path="url(#4)"><path id="3" transform="matrix(1 0 0 -1 0 792)" d="M107.717 538.17L504.284 538.17L504.284 525.795L107.717 525.795z" stroke="none" fill="#E5E5E5" fill-rule="nonzero" /></g><g clip-path="url(#5)"><path id="4" transform="matrix(1 0 0 -1 0 792)" d="M107.717 206.855L504.284 206.855L504.284 194.48L107.717 194.48z" stroke="none" fill="#E5E5E5" fill-rule="nonzero" /></g></g></g></svg>