<svg xmlns="http://www.w3.org/2000/svg" xmlns:xlink="http://www.w3.org/1999/xlink" id="body_21" preserveAspectRatio="xMinYMin meet" viewBox="0 0 816 1056"><defs><clipPath id="1"><path id="" clip-rule="evenodd" transform="matrix(1 0 0 1 0 0)" d="M0 792L0 0L0 0L612 0L612 0L612 792L612 792L0 792z" /></clipPath><clipPath id="2"><path id="" clip-rule="evenodd" transform="matrix(1 0 0 1 0 0)" d="M119.475 415.067L492.789 415.067L492.789 415.067L492.789 245.975L492.789 245.975L119.475 245.975z" /></clipPath><clipPath id="3"><path id="" clip-rule="evenodd" transform="matrix(1 0 0 1 0 0)" d="M119.475 415.072L492.783 415.072L492.783 415.072L492.783 245.975L492.783 245.975L119.475 245.975z" /></clipPath><clipPath id="4"><path id="" clip-rule="evenodd" transform="matrix(1 0 0 1 0 0)" d="M245.561 353.538L222.286 353.538C 221.892 353.217 221.51 352.88 221.147 352.53C 220.744 352.141 220.362 351.737 219.999 351.314L219.999 351.314L219.999 329.299C 220.362 328.878 220.744 328.473 221.145 328.086C 221.679 327.574 222.245 327.092 222.841 326.646L222.841 326.646L245.005 326.646C 245.602 327.092 246.169 327.574 246.702 328.086C 246.947 328.322 247.185 328.565 247.416 328.813L247.416 328.813L247.416 351.8C 247.185 352.049 246.947 352.292 246.701 352.53C 246.336 352.88 245.956 353.217 245.561 353.538z" /></clipPath><clipPath id="5"><path id="" clip-rule="evenodd" transform="matrix(1 0 0 1 0 0)" d="M247.416 328.813C 247.185 328.565 246.947 328.322 246.702 328.086C 246.169 327.574 245.602 327.092 245.005 326.646L245.005 326.646L247.416 326.646L247.416 326.646L247.416 328.813zM219.999 329.299L219.999 326.646L219.999 326.646L222.841 326.646C 222.245 327.092 221.679 327.574 221.145 328.086C 220.744 328.473 220.362 328.878 219.999 329.299M222.286 353.538L219.999 353.538L219.999 353.538L219.999 351.314C 220.362 351.737 220.744 352.141 221.147 352.53C 221.51 352.88 221.892 353.217 222.286 353.538M247.416 353.538L245.561 353.538C 245.956 353.217 246.336 352.88 246.701 352.53C 246.947 352.292 247.185 352.049 247.416 351.8L247.416 351.8L247.416 353.538" /></clipPath><clipPath id="6"><path id="" clip-rule="evenodd" transform="matrix(1 0 0 1 0 0)" d="M316.013 386.354L295.311 386.354C 294.447 385.764 293.637 385.102 292.894 384.377C 292.489 383.983 292.103 383.569 291.74 383.139L291.74 383.139L291.74 360.841C 292.103 360.41 292.489 359.998 292.894 359.603C 292.941 359.557 292.99 359.51 293.038 359.464L293.038 359.464L318.241 359.464L318.241 359.464L318.241 384.56C 317.55 385.214 316.805 385.814 316.013 386.354z" /></clipPath><clipPath id="7"><path id="" clip-rule="evenodd" transform="matrix(1 0 0 1 0 0)" d="M291.74 360.841L291.74 359.464L291.74 359.464L293.038 359.464C 292.99 359.51 292.941 359.557 292.894 359.603C 292.489 359.998 292.103 360.41 291.74 360.841zM295.311 386.354L291.74 386.354L291.74 386.354L291.74 383.139C 292.103 383.569 292.489 383.983 292.894 384.377C 293.637 385.102 294.447 385.764 295.311 386.354M318.241 386.354L316.013 386.354C 316.805 385.814 317.55 385.214 318.241 384.56L318.241 384.56L318.241 386.354" /></clipPath><clipPath id="8"><path id="" clip-rule="evenodd" transform="matrix(1 0 0 1 0 0)" d="M365.762 325.447L365.762 325.282L365.762 325.282L365.937 325.282C 365.878 325.337 365.82 325.392 365.762 325.447zM396.377 325.464C 396.376 325.464 396.376 325.463 396.375 325.462C 396.312 325.401 396.248 325.341 396.185 325.282L396.185 325.282L396.377 325.282L396.377 325.282L396.377 325.464M367.005 356.273L365.762 356.273L365.762 356.273L365.762 355.168C 366.161 355.551 366.576 355.921 367.005 356.273M388.054 356.273L374.074 356.273C 371.891 355.392 369.93 354.112 368.285 352.53C 367.329 351.608 366.483 350.587 365.762 349.484L365.762 349.484L365.762 331.127C 366.483 330.025 367.328 329.006 368.284 328.087C 369.417 326.997 370.7 326.052 372.102 325.282L372.102 325.282L390.022 325.282C 391.422 326.052 392.704 326.997 393.837 328.086C 394.799 329.015 395.653 330.044 396.377 331.156L396.377 331.156L396.377 349.455C 395.653 350.57 394.799 351.6 393.836 352.53C 392.192 354.112 390.233 355.392 388.054 356.273M396.377 356.273L395.116 356.273C 395.55 355.916 395.971 355.541 396.375 355.151C 396.376 355.151 396.376 355.15 396.377 355.15L396.377 355.15L396.377 356.273" /></clipPath><clipPath id="9"><path id="" clip-rule="evenodd" transform="matrix(1 0 0 1 0 0)" d="M365.762 331.127L365.762 325.447C 365.82 325.392 365.878 325.337 365.937 325.282L365.937 325.282L372.102 325.282C 370.7 326.052 369.417 326.997 368.284 328.087C 367.328 329.006 366.483 330.025 365.762 331.127zM396.377 331.156C 395.653 330.044 394.799 329.015 393.837 328.086C 392.704 326.997 391.422 326.052 390.022 325.282L390.022 325.282L396.185 325.282C 396.248 325.341 396.312 325.401 396.375 325.462C 396.376 325.463 396.376 325.464 396.377 325.464L396.377 325.464L396.377 331.156M374.074 356.273L367.005 356.273C 366.576 355.921 366.161 355.551 365.762 355.168L365.762 355.168L365.762 349.484C 366.483 350.587 367.329 351.608 368.285 352.53C 369.93 354.112 371.891 355.392 374.074 356.273M395.116 356.273L388.054 356.273C 390.233 355.392 392.192 354.112 393.836 352.53C 394.799 351.6 395.653 350.57 396.377 349.455L396.377 349.455L396.377 355.15C 396.376 355.15 396.376 355.151 396.375 355.151C 395.971 355.541 395.55 355.916 395.116 356.273" /></clipPath><clipPath id="10"><path id="" clip-rule="evenodd" transform="matrix(1 0 0 1 0 0)" d="M418.292 287.451L395.004 287.451C 394.61 287.131 394.231 286.796 393.867 286.446C 393.789 286.37 393.712 286.294 393.635 286.218L393.635 286.218L393.635 262.24C 393.712 262.164 393.789 262.087 393.867 262.012C 394.228 261.665 394.603 261.332 394.992 261.015L394.992 261.015L418.305 261.015C 418.693 261.332 419.069 261.665 419.429 262.012C 419.672 262.246 419.908 262.487 420.138 262.735L420.138 262.735L420.138 285.723C 419.908 285.97 419.672 286.211 419.43 286.446C 419.065 286.796 418.686 287.131 418.292 287.451z" /></clipPath><clipPath id="11"><path id="" clip-rule="evenodd" transform="matrix(1 0 0 1 0 0)" d="M393.635 262.24L393.635 261.015L393.635 261.015L394.992 261.015C 394.603 261.332 394.228 261.665 393.867 262.012C 393.789 262.087 393.712 262.164 393.635 262.24zM420.138 262.735C 419.908 262.487 419.672 262.246 419.429 262.012C 419.069 261.665 418.693 261.332 418.305 261.015L418.305 261.015L420.138 261.015L420.138 261.015L420.138 262.735M395.004 287.451L393.635 287.451L393.635 287.451L393.635 286.218C 393.712 286.294 393.789 286.37 393.867 286.446C 394.231 286.796 394.61 287.131 395.004 287.451M420.138 287.451L418.292 287.451C 418.686 287.131 419.065 286.796 419.43 286.446C 419.672 286.211 419.908 285.97 420.138 285.723L420.138 285.723L420.138 287.451" /></clipPath><clipPath id="12"><path id="" clip-rule="evenodd" transform="matrix(1 0 0 1 0 0)" d="M215.558 288.362L194.73 288.362C 193.886 287.789 193.094 287.147 192.366 286.445C 191.788 285.889 191.25 285.296 190.757 284.672L190.757 284.672L190.757 263.788C 191.25 263.163 191.789 262.569 192.367 262.012C 193.289 261.123 194.312 260.329 195.417 259.648L195.417 259.648L214.873 259.648C 215.977 260.329 216.999 261.123 217.921 262.012C 218.504 262.573 219.045 263.173 219.543 263.805L219.543 263.805L219.543 284.654C 219.045 285.286 218.504 285.885 217.921 286.446C 217.193 287.147 216.402 287.789 215.558 288.362z" /></clipPath><clipPath id="13"><path id="" clip-rule="evenodd" transform="matrix(1 0 0 1 0 0)" d="M190.757 263.788L190.757 259.648L190.757 259.648L195.417 259.648C 194.312 260.329 193.289 261.123 192.367 262.012C 191.789 262.569 191.25 263.163 190.757 263.788zM219.543 263.805C 219.045 263.173 218.504 262.573 217.921 262.012C 216.999 261.123 215.977 260.329 214.873 259.648L214.873 259.648L219.543 259.648L219.543 259.648L219.543 263.805M194.73 288.362L190.757 288.362L190.757 288.362L190.757 284.672C 191.25 285.296 191.788 285.889 192.366 286.445C 193.094 287.147 193.886 287.789 194.73 288.362M219.543 288.362L215.558 288.362C 216.402 287.789 217.193 287.147 217.921 286.446C 218.504 285.885 219.045 285.286 219.543 284.654L219.543 284.654L219.543 288.362" /></clipPath></defs><g transform="matrix(1.333333 0 0 1.333333 0 0)"><g clip-path="url(#1)"><path id="1371" transform="matrix(1 0 0 -1 0 792)" d="M225.034 517.768L278.0389 517.768" stroke="#929497" stroke-width="0.9133332" fill="none" /><path id="1372" transform="matrix(1 0 0 -1 0 792)" d="M334.243 517.768L386.7913 517.768" stroke="#929497" stroke-width="0.9133332" fill="none" /><path id="1373" transform="matrix(1 0 0 -1 0 792)" d="M329.207 500.903L366.658 464.9161L366.658 464.9161L329.207 500.903" stroke="none" fill="#FFFFFF" fill-rule="evenodd" /><path id="1374" transform="matrix(1 0 0 -1 0 792)" d="M329.524 501.232L366.9925 465.2264L366.3587 464.5704L328.8902 500.576L329.524 501.232" stroke="none" fill="#929497" fill-rule="nonzero" /><path id="1375" transform="matrix(1 0 0 -1 0 792)" d="M306.827 489.967L306.827 439.3752" stroke="#929497" stroke-width="0.9133332" fill="none" /><path id="1376" transform="matrix(1 0 0 -1 0 792)" d="M284.867 500.903L247.8744 464.4601L247.8744 464.4601L284.867 500.903" stroke="none" fill="#FFFFFF" fill-rule="evenodd" /><path id="1377" transform="matrix(1 0 0 -1 0 792)" d="M285.661 500.577L248.1925 464.1153L247.5551 464.7679L285.0225 501.2295L285.661 500.577" stroke="none" fill="#929497" fill-rule="nonzero" /><path id="1378" transform="matrix(1 0 0 -1 0 792)" d="M279.411 517.786C 279.411 503.1829 291.6883 491.3502 306.797 491.3502C 321.9489 491.3502 334.2251 503.1829 334.2251 517.786C 334.2251 532.3716 321.9489 544.2031 306.797 544.2031C 291.6883 544.2031 279.411 532.3716 279.411 517.786" stroke="#5398D2" stroke-width="3.655675" fill="none" /><path id="1379" transform="matrix(1 0 0 -1 0 792)" d="M187.101 517.773C 187.1022 513.0029 189.1019 508.6982 192.3658 505.5548C 195.6308 502.4149 200.1413 500.4655 205.1406 500.4655C 210.1505 500.4666 214.6598 502.4149 217.9213 505.5536C 221.1829 508.6982 223.1791 513.0017 223.1803 517.773C 223.1791 522.5338 221.1829 526.8408 217.9213 529.9877C 214.6574 533.1323 210.1481 535.0853 205.1406 535.0864C 200.1425 535.0853 195.632 533.1323 192.3669 529.9877C 189.1019 526.8396 187.1022 522.5326 187.101 517.773L187.101 517.773L183.4454 517.773C 183.4442 523.5687 185.8977 528.83 189.8269 532.6107C 193.7551 536.3962 199.1777 538.7327 205.1406 538.7316C 211.1106 538.7327 216.5356 536.3962 220.4613 532.6107C 224.3883 528.8288 226.8371 523.5676 226.8359 517.773C 226.8371 511.9691 224.3883 506.709 220.4602 502.9306C 216.5332 499.1487 211.1094 496.8192 205.1406 496.8192C 199.18 496.8192 193.7562 499.1487 189.8281 502.9306C 185.8977 506.7079 183.4442 511.9691 183.4454 517.773L183.4454 517.773L187.101 517.773" stroke="none" fill="#EB7923" fill-rule="nonzero" /><path id="1380" transform="matrix(1 0 0 -1 0 792)" d="M215.888 451.699C 215.8892 446.9242 217.8854 442.616 221.1469 439.4703C 224.4085 436.328 228.9178 434.3786 233.9276 434.3774C 238.9269 434.3786 243.4363 436.328 246.7013 439.4703C 249.9652 442.6172 251.9649 446.9254 251.9673 451.699C 251.9649 456.4679 249.9652 460.7703 246.7025 463.9137C 243.4374 467.0513 238.9269 468.9995 233.9276 468.9995C 228.9178 468.9984 224.4085 467.0513 221.1458 463.9137C 217.8854 460.7715 215.8892 456.4691 215.888 451.699L215.888 451.699L212.2324 451.699C 212.2312 457.5017 214.6788 462.7607 218.6081 466.5379C 222.535 470.3187 227.9589 472.6458 233.9276 472.6458C 239.887 472.6458 245.3109 470.3175 249.2401 466.5379C 253.1694 462.7618 255.6241 457.5029 255.6229 451.699C 255.6241 445.8916 253.1706 440.628 249.2401 436.8472C 245.312 433.063 239.8882 430.7311 233.9276 430.7323C 227.9577 430.7311 222.5339 433.063 218.6069 436.8484C 214.6788 440.628 212.2312 445.8928 212.2324 451.699L212.2324 451.699L215.888 451.699" stroke="none" fill="#B1B3B5" fill-rule="nonzero" /><path id="1381" transform="matrix(1 0 0 -1 0 792)" d="M287.626 420.021C 287.6272 415.1737 289.6304 410.8071 292.8931 407.6227C 296.157 404.443 300.6628 402.4749 305.6656 402.4737C 310.6591 402.4737 315.1649 404.443 318.4323 407.6227C 321.6974 410.8071 323.7041 415.1749 323.7053 420.021C 323.7041 424.8461 321.6985 429.2104 318.4323 432.3959C 315.1649 435.5779 310.6579 437.5508 305.6656 437.5508C 300.664 437.5508 296.1582 435.5768 292.8931 432.3959C 289.6292 429.2115 287.6272 424.8472 287.626 420.021L287.626 420.021L283.9704 420.021C 283.9692 425.8681 286.4121 431.1809 290.3379 435.0037C 294.2614 438.8313 299.6898 441.197 305.6656 441.197C 311.6332 441.197 317.0605 438.8301 320.9863 435.0037C 324.9145 431.182 327.3621 425.8693 327.3609 420.021C 327.3621 414.1551 324.9145 408.8377 320.9863 405.0149C 317.0594 401.1873 311.6321 398.8274 305.6656 398.8274C 299.691 398.8262 294.2625 401.1873 290.3379 405.0149C 286.411 408.8377 283.9692 414.1563 283.9704 420.021L283.9704 420.021L287.626 420.021" stroke="none" fill="#FDBE11" fill-rule="nonzero" /><path id="1382" transform="matrix(1 0 0 -1 0 792)" d="M363.02 451.699C 363.0223 446.9254 365.0209 442.6172 368.2848 439.4703C 371.5498 436.3292 376.0627 434.3786 381.0725 434.3774C 386.0648 434.3786 390.5717 436.328 393.8356 439.4703C 397.0984 442.6172 399.0981 446.9254 399.0992 451.699C 399.0981 456.4679 397.0984 460.7703 393.8368 463.9137C 390.5729 467.0525 386.0659 468.9995 381.0725 468.9995C 376.0627 468.9995 371.5486 467.0513 368.2836 463.9125C 365.0197 460.7703 363.0223 456.4679 363.02 451.699L363.02 451.699L359.3655 451.699C 359.3632 457.5017 361.8155 462.7618 365.7471 466.5379C 369.6764 470.3187 375.1037 472.6458 381.0725 472.6458C 387.0272 472.6458 392.4475 470.3175 396.3745 466.5379C 400.3026 462.7618 402.756 457.5029 402.7549 451.699C 402.756 445.8916 400.3026 440.628 396.3745 436.8484C 392.4487 433.0641 387.0272 430.7311 381.0725 430.7323C 375.1025 430.7311 369.6752 433.063 365.7459 436.8472C 361.8155 440.628 359.3632 445.8916 359.3655 451.699L359.3655 451.699L363.02 451.699" stroke="none" fill="#3E6CB4" fill-rule="nonzero" /><path id="1383" transform="matrix(1 0 0 -1 0 792)" d="M388.608 517.773C 388.6092 513.0017 390.6054 508.6982 393.8669 505.5536C 397.1285 502.4149 401.6378 500.4666 406.6476 500.4655C 411.6575 500.4666 416.1668 502.4149 419.4295 505.5536C 422.6899 508.6982 424.6861 513.0017 424.6873 517.773C 424.6861 522.5338 422.6899 526.8408 419.4283 529.9877C 416.1656 533.1323 411.6563 535.0853 406.6476 535.0864C 401.6401 535.0853 397.1308 533.1323 393.8669 529.9877C 390.6054 526.8408 388.6092 522.5338 388.608 517.773L388.608 517.773L384.9524 517.773C 384.9512 523.5676 387.4 528.8288 391.3269 532.6107C 395.2527 536.3962 400.6777 538.7327 406.6476 538.7316C 412.6176 538.7327 418.0425 536.3962 421.9683 532.6107C 425.8953 528.8288 428.3441 523.5676 428.3429 517.773C 428.3441 511.9691 425.8953 506.709 421.9672 502.9306C 418.0414 499.1487 412.6164 496.8192 406.6476 496.8192C 400.6789 496.8192 395.255 499.1487 391.3281 502.9306C 387.4 506.709 384.9512 511.9691 384.9524 517.773L384.9524 517.773L388.608 517.773" stroke="none" fill="#69AA43" fill-rule="nonzero" /><g clip-path="url(#2)"><g clip-path="url(#3)"></g></g><g clip-path="url(#4)"><g transform="matrix(0.4233 0 0 0.4276893 219.548 326.1982)"><g transform="matrix(1 0 0 1 0 0)"><image x="0" y="0" xlink:href="img_28.png" width="67" height="65" /></g></g></g><g clip-path="url(#5)"><g transform="matrix(0.4233 0 0 0.4276893 219.548 326.1982)"><g transform="matrix(1 0 0 1 0 0)"><image x="0" y="0" xlink:href="img_29.png" width="67" height="65" /></g></g></g><g clip-path="url(#6)"><g transform="matrix(0.4574834 0 0 0.4568836 291.258 358.9661)"><g transform="matrix(1 0 0 1 0 0)"><image x="0" y="0" xlink:href="img_30.png" width="60" height="61" /></g></g></g><g clip-path="url(#7)"><g transform="matrix(0.4574834 0 0 0.4568836 291.258 358.9661)"><g transform="matrix(1 0 0 1 0 0)"><image x="0" y="0" xlink:href="img_31.png" width="60" height="61" /></g></g></g><g clip-path="url(#8)"><g transform="matrix(0.4221351 0 0 0.4230276 365.423 324.7249)"><g transform="matrix(1 0 0 1 0 0)"><image x="0" y="0" xlink:href="img_32.png" width="74" height="76" /></g></g></g><g clip-path="url(#9)"><g transform="matrix(0.4221351 0 0 0.4230276 365.423 324.7249)"><g transform="matrix(1 0 0 1 0 0)"><image x="0" y="0" xlink:href="img_33.png" width="74" height="76" /></g></g></g><g clip-path="url(#10)"><g transform="matrix(0.4586534 0 0 0.4574817 393.139 260.5231)"><g transform="matrix(1 0 0 1 0 0)"><image x="0" y="0" xlink:href="img_34.png" width="60" height="60" /></g></g></g><g clip-path="url(#11)"><g transform="matrix(0.4586534 0 0 0.4574817 393.139 260.5231)"><g transform="matrix(1 0 0 1 0 0)"><image x="0" y="0" xlink:href="img_35.png" width="60" height="60" /></g></g></g><g clip-path="url(#12)"><g transform="matrix(0.4242043 0 0 0.4232014 190.289 259.1899)"><g transform="matrix(1 0 0 1 0 0)"><image x="0" y="0" xlink:href="img_36.png" width="70" height="70" /></g></g></g><g clip-path="url(#13)"><g transform="matrix(0.4242043 0 0 0.4232014 190.289 259.1899)"><g transform="matrix(1 0 0 1 0 0)"><image x="0" y="0" xlink:href="img_37.png" width="70" height="70" /></g></g></g></g></g></svg>