<svg xmlns="http://www.w3.org/2000/svg" xmlns:xlink="http://www.w3.org/1999/xlink" id="body_86" preserveAspectRatio="xMinYMin meet" viewBox="0 0 816 1056"><defs><clipPath id="1"><path id="" clip-rule="evenodd" transform="matrix(1 0 0 1 0 0)" d="M0 792L0 0L0 0L612 0L612 0L612 792L612 792L0 792z" /></clipPath></defs><g transform="matrix(1.333333 0 0 1.333333 0 0)"><g clip-path="url(#1)"><path id="1726" transform="matrix(1 0 0 -1 0 792)" d="M108.092 209.42L108.092 193.37" stroke="#000000" stroke-width="0.75" stroke-linecap="square" fill="none" /><path id="1727" transform="matrix(1 0 0 -1 0 792)" d="M108.092 209.42L191.791 209.42L191.791 209.42L191.791 193.37" stroke="#000000" stroke-width="0.75" stroke-linecap="square" fill="none" /><path id="1728" transform="matrix(1 0 0 -1 0 792)" d="M108.092 193.37L191.791 193.37" stroke="#000000" stroke-width="0.75" stroke-linecap="square" fill="none" /><path id="1738" transform="matrix(1 0 0 -1 0 792)" d="M108.092 209.42L108.092 194.12" stroke="#000000" stroke-width="0.75" stroke-linecap="square" fill="none" /><path id="1739" transform="matrix(1 0 0 -1 0 792)" d="M108.092 209.42L191.041 209.42" stroke="#000000" stroke-width="0.75" stroke-linecap="square" fill="none" /><path id="1740" transform="matrix(1 0 0 -1 0 792)" d="M191.791 209.42L191.791 193.37" stroke="#000000" stroke-width="0.75" stroke-linecap="square" fill="none" /><path id="1741" transform="matrix(1 0 0 -1 0 792)" d="M191.791 209.42L351.927 209.42L351.927 209.42L351.927 193.37" stroke="#000000" stroke-width="0.75" stroke-linecap="square" fill="none" /><path id="1742" transform="matrix(1 0 0 -1 0 792)" d="M191.791 193.37L351.927 193.37" stroke="#000000" stroke-width="0.75" stroke-linecap="square" fill="none" /><path id="1754" transform="matrix(1 0 0 -1 0 792)" d="M192.541 209.42L351.177 209.42" stroke="#000000" stroke-width="0.75" stroke-linecap="square" fill="none" /><path id="1755" transform="matrix(1 0 0 -1 0 792)" d="M351.927 209.42L351.927 193.37" stroke="#000000" stroke-width="0.75" stroke-linecap="square" fill="none" /><path id="1756" transform="matrix(1 0 0 -1 0 792)" d="M351.927 209.42L503.908 209.42L503.908 209.42L503.908 193.37" stroke="#000000" stroke-width="0.75" stroke-linecap="square" fill="none" /><path id="1757" transform="matrix(1 0 0 -1 0 792)" d="M351.927 193.37L503.908 193.37" stroke="#000000" stroke-width="0.75" stroke-linecap="square" fill="none" /><path id="1761" transform="matrix(1 0 0 -1 0 792)" d="M352.677 209.42L503.908 209.42L503.908 209.42L503.908 194.12" stroke="#000000" stroke-width="0.75" stroke-linecap="square" fill="none" /><path id="1762" transform="matrix(1 0 0 -1 0 792)" d="M108.092 193.37L108.092 167.02" stroke="#000000" stroke-width="0.75" stroke-linecap="square" fill="none" /><path id="1763" transform="matrix(1 0 0 -1 0 792)" d="M108.092 193.37L191.791 193.37L191.791 193.37L191.791 167.02" stroke="#000000" stroke-width="0.75" stroke-linecap="square" fill="none" /><path id="1764" transform="matrix(1 0 0 -1 0 792)" d="M108.092 167.02L191.791 167.02" stroke="#000000" stroke-width="0.75" stroke-linecap="square" fill="none" /><path id="1787" transform="matrix(1 0 0 -1 0 792)" d="M108.092 192.62L108.092 167.77" stroke="#000000" stroke-width="0.75" stroke-linecap="square" fill="none" /><path id="1788" transform="matrix(1 0 0 -1 0 792)" d="M191.791 193.37L191.791 167.02" stroke="#000000" stroke-width="0.75" stroke-linecap="square" fill="none" /><path id="1789" transform="matrix(1 0 0 -1 0 792)" d="M191.791 193.37L351.927 193.37L351.927 193.37L351.927 167.02" stroke="#000000" stroke-width="0.75" stroke-linecap="square" fill="none" /><path id="1790" transform="matrix(1 0 0 -1 0 792)" d="M191.791 167.02L351.927 167.02" stroke="#000000" stroke-width="0.75" stroke-linecap="square" fill="none" /><path id="1834" transform="matrix(1 0 0 -1 0 792)" d="M351.927 193.37L351.927 167.02" stroke="#000000" stroke-width="0.75" stroke-linecap="square" fill="none" /><path id="1835" transform="matrix(1 0 0 -1 0 792)" d="M351.927 193.37L503.908 193.37L503.908 193.37L503.908 167.02" stroke="#000000" stroke-width="0.75" stroke-linecap="square" fill="none" /><path id="1836" transform="matrix(1 0 0 -1 0 792)" d="M351.927 167.02L503.908 167.02" stroke="#000000" stroke-width="0.75" stroke-linecap="square" fill="none" /><path id="1863" transform="matrix(1 0 0 -1 0 792)" d="M503.908 192.62L503.908 167.77" stroke="#000000" stroke-width="0.75" stroke-linecap="square" fill="none" /><path id="1864" transform="matrix(1 0 0 -1 0 792)" d="M108.092 167.02L108.092 129.87" stroke="#000000" stroke-width="0.75" stroke-linecap="square" fill="none" /><path id="1865" transform="matrix(1 0 0 -1 0 792)" d="M108.092 167.02L191.791 167.02L191.791 167.02L191.791 129.87" stroke="#000000" stroke-width="0.75" stroke-linecap="square" fill="none" /><path id="1866" transform="matrix(1 0 0 -1 0 792)" d="M108.092 129.87L191.791 129.87" stroke="#000000" stroke-width="0.75" stroke-linecap="square" fill="none" /><path id="1896" transform="matrix(1 0 0 -1 0 792)" d="M108.092 166.27L108.092 130.62" stroke="#000000" stroke-width="0.75" stroke-linecap="square" fill="none" /><path id="1897" transform="matrix(1 0 0 -1 0 792)" d="M191.791 167.02L191.791 129.87" stroke="#000000" stroke-width="0.75" stroke-linecap="square" fill="none" /><path id="1898" transform="matrix(1 0 0 -1 0 792)" d="M191.791 167.02L351.927 167.02L351.927 167.02L351.927 129.87" stroke="#000000" stroke-width="0.75" stroke-linecap="square" fill="none" /><path id="1899" transform="matrix(1 0 0 -1 0 792)" d="M191.791 129.87L351.927 129.87" stroke="#000000" stroke-width="0.75" stroke-linecap="square" fill="none" /><path id="1930" transform="matrix(1 0 0 -1 0 792)" d="M351.927 167.02L351.927 129.87" stroke="#000000" stroke-width="0.75" stroke-linecap="square" fill="none" /><path id="1931" transform="matrix(1 0 0 -1 0 792)" d="M351.927 167.02L503.908 167.02L503.908 167.02L503.908 129.87" stroke="#000000" stroke-width="0.75" stroke-linecap="square" fill="none" /><path id="1932" transform="matrix(1 0 0 -1 0 792)" d="M351.927 129.87L503.908 129.87" stroke="#000000" stroke-width="0.75" stroke-linecap="square" fill="none" /><path id="2002" transform="matrix(1 0 0 -1 0 792)" d="M503.908 166.27L503.908 130.62" stroke="#000000" stroke-width="0.75" stroke-linecap="square" fill="none" /></g></g></svg>