<svg xmlns="http://www.w3.org/2000/svg" xmlns:xlink="http://www.w3.org/1999/xlink" id="body_37" preserveAspectRatio="xMinYMin meet" viewBox="0 0 816 1056"><defs><clipPath id="1"><path id="" clip-rule="evenodd" transform="matrix(1 0 0 1 0 0)" d="M0 792L0 0L0 0L612 0L612 0L612 792L612 792L0 792z" /></clipPath></defs><g transform="matrix(1.333333 0 0 1.333333 0 0)"><g clip-path="url(#1)"><path id="1352" transform="matrix(1 0 0 -1 0 792)" d="M108.092 388.22L108.092 372.17" stroke="#000000" stroke-width="0.75" stroke-linecap="square" fill="none" /><path id="1353" transform="matrix(1 0 0 -1 0 792)" d="M108.092 388.22L216.254 388.22L216.254 388.22L216.254 372.17" stroke="#000000" stroke-width="0.75" stroke-linecap="square" fill="none" /><path id="1354" transform="matrix(1 0 0 -1 0 792)" d="M108.092 372.17L216.254 372.17" stroke="#000000" stroke-width="0.75" stroke-linecap="square" fill="none" /><path id="1363" transform="matrix(1 0 0 -1 0 792)" d="M108.092 388.22L108.092 372.92" stroke="#000000" stroke-width="0.75" stroke-linecap="square" fill="none" /><path id="1364" transform="matrix(1 0 0 -1 0 792)" d="M108.092 388.22L215.504 388.22" stroke="#000000" stroke-width="0.75" stroke-linecap="square" fill="none" /><path id="1365" transform="matrix(1 0 0 -1 0 792)" d="M216.254 388.22L216.254 372.17" stroke="#000000" stroke-width="0.75" stroke-linecap="square" fill="none" /><path id="1366" transform="matrix(1 0 0 -1 0 792)" d="M216.254 388.22L324.581 388.22L324.581 388.22L324.581 372.17" stroke="#000000" stroke-width="0.75" stroke-linecap="square" fill="none" /><path id="1367" transform="matrix(1 0 0 -1 0 792)" d="M216.254 372.17L324.581 372.17" stroke="#000000" stroke-width="0.75" stroke-linecap="square" fill="none" /><path id="1382" transform="matrix(1 0 0 -1 0 792)" d="M217.004 388.22L323.831 388.22" stroke="#000000" stroke-width="0.75" stroke-linecap="square" fill="none" /><path id="1383" transform="matrix(1 0 0 -1 0 792)" d="M324.581 388.22L324.581 372.17" stroke="#000000" stroke-width="0.75" stroke-linecap="square" fill="none" /><path id="1384" transform="matrix(1 0 0 -1 0 792)" d="M324.581 388.22L456.682 388.22L456.682 388.22L456.682 372.17" stroke="#000000" stroke-width="0.75" stroke-linecap="square" fill="none" /><path id="1385" transform="matrix(1 0 0 -1 0 792)" d="M324.581 372.17L456.682 372.17" stroke="#000000" stroke-width="0.75" stroke-linecap="square" fill="none" /><path id="1392" transform="matrix(1 0 0 -1 0 792)" d="M325.331 388.22L455.932 388.22" stroke="#000000" stroke-width="0.75" stroke-linecap="square" fill="none" /><path id="1393" transform="matrix(1 0 0 -1 0 792)" d="M456.682 388.22L456.682 372.17" stroke="#000000" stroke-width="0.75" stroke-linecap="square" fill="none" /><path id="1394" transform="matrix(1 0 0 -1 0 792)" d="M456.682 388.22L503.908 388.22L503.908 388.22L503.908 372.17" stroke="#000000" stroke-width="0.75" stroke-linecap="square" fill="none" /><path id="1395" transform="matrix(1 0 0 -1 0 792)" d="M456.682 372.17L503.908 372.17" stroke="#000000" stroke-width="0.75" stroke-linecap="square" fill="none" /><path id="1406" transform="matrix(1 0 0 -1 0 792)" d="M457.432 388.22L503.908 388.22L503.908 388.22L503.908 372.92" stroke="#000000" stroke-width="0.75" stroke-linecap="square" fill="none" /><path id="1407" transform="matrix(1 0 0 -1 0 792)" d="M108.092 372.17L108.092 345.82" stroke="#000000" stroke-width="0.75" stroke-linecap="square" fill="none" /><path id="1408" transform="matrix(1 0 0 -1 0 792)" d="M108.092 372.17L216.254 372.17L216.254 372.17L216.254 345.82" stroke="#000000" stroke-width="0.75" stroke-linecap="square" fill="none" /><path id="1409" transform="matrix(1 0 0 -1 0 792)" d="M108.092 345.82L216.254 345.82" stroke="#000000" stroke-width="0.75" stroke-linecap="square" fill="none" /><path id="1429" transform="matrix(1 0 0 -1 0 792)" d="M108.092 371.42L108.092 346.57" stroke="#000000" stroke-width="0.75" stroke-linecap="square" fill="none" /><path id="1430" transform="matrix(1 0 0 -1 0 792)" d="M216.254 372.17L216.254 345.82" stroke="#000000" stroke-width="0.75" stroke-linecap="square" fill="none" /><path id="1431" transform="matrix(1 0 0 -1 0 792)" d="M216.254 372.17L324.581 372.17L324.581 372.17L324.581 345.82" stroke="#000000" stroke-width="0.75" stroke-linecap="square" fill="none" /><path id="1432" transform="matrix(1 0 0 -1 0 792)" d="M216.254 345.82L324.581 345.82" stroke="#000000" stroke-width="0.75" stroke-linecap="square" fill="none" /><path id="1462" transform="matrix(1 0 0 -1 0 792)" d="M324.581 372.17L324.581 345.82" stroke="#000000" stroke-width="0.75" stroke-linecap="square" fill="none" /><path id="1463" transform="matrix(1 0 0 -1 0 792)" d="M324.581 372.17L456.682 372.17L456.682 372.17L456.682 345.82" stroke="#000000" stroke-width="0.75" stroke-linecap="square" fill="none" /><path id="1464" transform="matrix(1 0 0 -1 0 792)" d="M324.581 345.82L456.682 345.82" stroke="#000000" stroke-width="0.75" stroke-linecap="square" fill="none" /><path id="1516" transform="matrix(1 0 0 -1 0 792)" d="M456.682 372.17L456.682 345.82" stroke="#000000" stroke-width="0.75" stroke-linecap="square" fill="none" /><path id="1517" transform="matrix(1 0 0 -1 0 792)" d="M456.682 372.17L503.908 372.17L503.908 372.17L503.908 345.82" stroke="#000000" stroke-width="0.75" stroke-linecap="square" fill="none" /><path id="1518" transform="matrix(1 0 0 -1 0 792)" d="M456.682 345.82L503.908 345.82" stroke="#000000" stroke-width="0.75" stroke-linecap="square" fill="none" /><path id="1526" transform="matrix(1 0 0 -1 0 792)" d="M503.908 371.42L503.908 346.57" stroke="#000000" stroke-width="0.75" stroke-linecap="square" fill="none" /><path id="1527" transform="matrix(1 0 0 -1 0 792)" d="M108.092 345.82L108.092 319.47" stroke="#000000" stroke-width="0.75" stroke-linecap="square" fill="none" /><path id="1528" transform="matrix(1 0 0 -1 0 792)" d="M108.092 345.82L216.254 345.82L216.254 345.82L216.254 319.47" stroke="#000000" stroke-width="0.75" stroke-linecap="square" fill="none" /><path id="1529" transform="matrix(1 0 0 -1 0 792)" d="M108.092 319.47L216.254 319.47" stroke="#000000" stroke-width="0.75" stroke-linecap="square" fill="none" /><path id="1576" transform="matrix(1 0 0 -1 0 792)" d="M108.092 345.07L108.092 320.22" stroke="#000000" stroke-width="0.75" stroke-linecap="square" fill="none" /><path id="1577" transform="matrix(1 0 0 -1 0 792)" d="M216.254 345.82L216.254 319.47" stroke="#000000" stroke-width="0.75" stroke-linecap="square" fill="none" /><path id="1578" transform="matrix(1 0 0 -1 0 792)" d="M216.254 345.82L324.581 345.82L324.581 345.82L324.581 319.47" stroke="#000000" stroke-width="0.75" stroke-linecap="square" fill="none" /><path id="1579" transform="matrix(1 0 0 -1 0 792)" d="M216.254 319.47L324.581 319.47" stroke="#000000" stroke-width="0.75" stroke-linecap="square" fill="none" /><path id="1606" transform="matrix(1 0 0 -1 0 792)" d="M324.581 345.82L324.581 319.47" stroke="#000000" stroke-width="0.75" stroke-linecap="square" fill="none" /><path id="1607" transform="matrix(1 0 0 -1 0 792)" d="M324.581 345.82L456.682 345.82L456.682 345.82L456.682 319.47" stroke="#000000" stroke-width="0.75" stroke-linecap="square" fill="none" /><path id="1608" transform="matrix(1 0 0 -1 0 792)" d="M324.581 319.47L456.682 319.47" stroke="#000000" stroke-width="0.75" stroke-linecap="square" fill="none" /><path id="1648" transform="matrix(1 0 0 -1 0 792)" d="M456.682 345.82L456.682 319.47" stroke="#000000" stroke-width="0.75" stroke-linecap="square" fill="none" /><path id="1649" transform="matrix(1 0 0 -1 0 792)" d="M456.682 345.82L503.908 345.82L503.908 345.82L503.908 319.47" stroke="#000000" stroke-width="0.75" stroke-linecap="square" fill="none" /><path id="1650" transform="matrix(1 0 0 -1 0 792)" d="M456.682 319.47L503.908 319.47" stroke="#000000" stroke-width="0.75" stroke-linecap="square" fill="none" /><path id="1655" transform="matrix(1 0 0 -1 0 792)" d="M503.908 345.07L503.908 320.22" stroke="#000000" stroke-width="0.75" stroke-linecap="square" fill="none" /><path id="1656" transform="matrix(1 0 0 -1 0 792)" d="M108.092 319.47L108.092 293.12" stroke="#000000" stroke-width="0.75" stroke-linecap="square" fill="none" /><path id="1657" transform="matrix(1 0 0 -1 0 792)" d="M108.092 319.47L216.254 319.47L216.254 319.47L216.254 293.12" stroke="#000000" stroke-width="0.75" stroke-linecap="square" fill="none" /><path id="1658" transform="matrix(1 0 0 -1 0 792)" d="M108.092 293.12L216.254 293.12" stroke="#000000" stroke-width="0.75" stroke-linecap="square" fill="none" /><path id="1693" transform="matrix(1 0 0 -1 0 792)" d="M108.092 318.72L108.092 293.87" stroke="#000000" stroke-width="0.75" stroke-linecap="square" fill="none" /><path id="1694" transform="matrix(1 0 0 -1 0 792)" d="M216.254 319.47L216.254 293.12" stroke="#000000" stroke-width="0.75" stroke-linecap="square" fill="none" /><path id="1695" transform="matrix(1 0 0 -1 0 792)" d="M216.254 319.47L324.581 319.47L324.581 319.47L324.581 293.12" stroke="#000000" stroke-width="0.75" stroke-linecap="square" fill="none" /><path id="1696" transform="matrix(1 0 0 -1 0 792)" d="M216.254 293.12L324.581 293.12" stroke="#000000" stroke-width="0.75" stroke-linecap="square" fill="none" /><path id="1732" transform="matrix(1 0 0 -1 0 792)" d="M324.581 319.47L324.581 293.12" stroke="#000000" stroke-width="0.75" stroke-linecap="square" fill="none" /><path id="1733" transform="matrix(1 0 0 -1 0 792)" d="M324.581 319.47L456.682 319.47L456.682 319.47L456.682 293.12" stroke="#000000" stroke-width="0.75" stroke-linecap="square" fill="none" /><path id="1734" transform="matrix(1 0 0 -1 0 792)" d="M324.581 293.12L456.682 293.12" stroke="#000000" stroke-width="0.75" stroke-linecap="square" fill="none" /><path id="1759" transform="matrix(1 0 0 -1 0 792)" d="M456.682 319.47L456.682 293.12" stroke="#000000" stroke-width="0.75" stroke-linecap="square" fill="none" /><path id="1760" transform="matrix(1 0 0 -1 0 792)" d="M456.682 319.47L503.908 319.47L503.908 319.47L503.908 293.12" stroke="#000000" stroke-width="0.75" stroke-linecap="square" fill="none" /><path id="1761" transform="matrix(1 0 0 -1 0 792)" d="M456.682 293.12L503.908 293.12" stroke="#000000" stroke-width="0.75" stroke-linecap="square" fill="none" /><path id="1766" transform="matrix(1 0 0 -1 0 792)" d="M503.908 318.72L503.908 293.87" stroke="#000000" stroke-width="0.75" stroke-linecap="square" fill="none" /><path id="1767" transform="matrix(1 0 0 -1 0 792)" d="M108.092 293.12L108.092 255.97" stroke="#000000" stroke-width="0.75" stroke-linecap="square" fill="none" /><path id="1768" transform="matrix(1 0 0 -1 0 792)" d="M108.092 293.12L216.254 293.12L216.254 293.12L216.254 255.97" stroke="#000000" stroke-width="0.75" stroke-linecap="square" fill="none" /><path id="1769" transform="matrix(1 0 0 -1 0 792)" d="M108.092 255.97L216.254 255.97" stroke="#000000" stroke-width="0.75" stroke-linecap="square" fill="none" /><path id="1784" transform="matrix(1 0 0 -1 0 792)" d="M108.092 292.37L108.092 256.72" stroke="#000000" stroke-width="0.75" stroke-linecap="square" fill="none" /><path id="1785" transform="matrix(1 0 0 -1 0 792)" d="M216.254 293.12L216.254 255.97" stroke="#000000" stroke-width="0.75" stroke-linecap="square" fill="none" /><path id="1786" transform="matrix(1 0 0 -1 0 792)" d="M216.254 293.12L324.581 293.12L324.581 293.12L324.581 255.97" stroke="#000000" stroke-width="0.75" stroke-linecap="square" fill="none" /><path id="1787" transform="matrix(1 0 0 -1 0 792)" d="M216.254 255.97L324.581 255.97" stroke="#000000" stroke-width="0.75" stroke-linecap="square" fill="none" /><path id="1855" transform="matrix(1 0 0 -1 0 792)" d="M324.581 293.12L324.581 255.97" stroke="#000000" stroke-width="0.75" stroke-linecap="square" fill="none" /><path id="1856" transform="matrix(1 0 0 -1 0 792)" d="M324.581 293.12L456.682 293.12L456.682 293.12L456.682 255.97" stroke="#000000" stroke-width="0.75" stroke-linecap="square" fill="none" /><path id="1857" transform="matrix(1 0 0 -1 0 792)" d="M324.581 255.97L456.682 255.97" stroke="#000000" stroke-width="0.75" stroke-linecap="square" fill="none" /><path id="1896" transform="matrix(1 0 0 -1 0 792)" d="M456.682 293.12L456.682 255.97" stroke="#000000" stroke-width="0.75" stroke-linecap="square" fill="none" /><path id="1897" transform="matrix(1 0 0 -1 0 792)" d="M456.682 293.12L503.908 293.12L503.908 293.12L503.908 255.97" stroke="#000000" stroke-width="0.75" stroke-linecap="square" fill="none" /><path id="1898" transform="matrix(1 0 0 -1 0 792)" d="M456.682 255.97L503.908 255.97" stroke="#000000" stroke-width="0.75" stroke-linecap="square" fill="none" /><path id="1903" transform="matrix(1 0 0 -1 0 792)" d="M503.908 292.37L503.908 256.72" stroke="#000000" stroke-width="0.75" stroke-linecap="square" fill="none" /><path id="1904" transform="matrix(1 0 0 -1 0 792)" d="M108.092 255.97L108.092 218.82" stroke="#000000" stroke-width="0.75" stroke-linecap="square" fill="none" /><path id="1905" transform="matrix(1 0 0 -1 0 792)" d="M108.092 255.97L216.254 255.97L216.254 255.97L216.254 218.82" stroke="#000000" stroke-width="0.75" stroke-linecap="square" fill="none" /><path id="1906" transform="matrix(1 0 0 -1 0 792)" d="M108.092 218.82L216.254 218.82" stroke="#000000" stroke-width="0.75" stroke-linecap="square" fill="none" /><path id="1932" transform="matrix(1 0 0 -1 0 792)" d="M108.092 255.22L108.092 218.82L108.092 218.82L215.504 218.82" stroke="#000000" stroke-width="0.75" stroke-linecap="square" fill="none" /><path id="1933" transform="matrix(1 0 0 -1 0 792)" d="M216.254 255.97L216.254 218.82" stroke="#000000" stroke-width="0.75" stroke-linecap="square" fill="none" /><path id="1934" transform="matrix(1 0 0 -1 0 792)" d="M216.254 255.97L324.581 255.97L324.581 255.97L324.581 218.82" stroke="#000000" stroke-width="0.75" stroke-linecap="square" fill="none" /><path id="1935" transform="matrix(1 0 0 -1 0 792)" d="M216.254 218.82L324.581 218.82" stroke="#000000" stroke-width="0.75" stroke-linecap="square" fill="none" /><path id="2000" transform="matrix(1 0 0 -1 0 792)" d="M217.004 218.82L323.831 218.82" stroke="#000000" stroke-width="0.75" stroke-linecap="square" fill="none" /><path id="2001" transform="matrix(1 0 0 -1 0 792)" d="M324.581 255.97L324.581 218.82" stroke="#000000" stroke-width="0.75" stroke-linecap="square" fill="none" /><path id="2002" transform="matrix(1 0 0 -1 0 792)" d="M324.581 255.97L456.682 255.97L456.682 255.97L456.682 218.82" stroke="#000000" stroke-width="0.75" stroke-linecap="square" fill="none" /><path id="2003" transform="matrix(1 0 0 -1 0 792)" d="M324.581 218.82L456.682 218.82" stroke="#000000" stroke-width="0.75" stroke-linecap="square" fill="none" /><path id="2071" transform="matrix(1 0 0 -1 0 792)" d="M325.331 218.82L455.932 218.82" stroke="#000000" stroke-width="0.75" stroke-linecap="square" fill="none" /><path id="2072" transform="matrix(1 0 0 -1 0 792)" d="M456.682 255.97L456.682 218.82" stroke="#000000" stroke-width="0.75" stroke-linecap="square" fill="none" /><path id="2073" transform="matrix(1 0 0 -1 0 792)" d="M456.682 255.97L503.908 255.97L503.908 255.97L503.908 218.82" stroke="#000000" stroke-width="0.75" stroke-linecap="square" fill="none" /><path id="2074" transform="matrix(1 0 0 -1 0 792)" d="M456.682 218.82L503.908 218.82" stroke="#000000" stroke-width="0.75" stroke-linecap="square" fill="none" /><path id="2079" transform="matrix(1 0 0 -1 0 792)" d="M503.908 255.22L503.908 218.82" stroke="#000000" stroke-width="0.75" stroke-linecap="square" fill="none" /><path id="2080" transform="matrix(1 0 0 -1 0 792)" d="M457.432 218.82L503.908 218.82" stroke="#000000" stroke-width="0.75" stroke-linecap="square" fill="none" /></g></g></svg>