<svg xmlns="http://www.w3.org/2000/svg" xmlns:xlink="http://www.w3.org/1999/xlink" id="body_59" preserveAspectRatio="xMinYMin meet" viewBox="0 0 816 1056"><defs><clipPath id="1"><path id="" clip-rule="evenodd" transform="matrix(1 0 0 1 0 0)" d="M0 792L0 0L0 0L612 0L612 0L612 792L612 792L0 792z" /></clipPath></defs><g transform="matrix(1.333333 0 0 1.333333 0 0)"><g clip-path="url(#1)"><path id="63" transform="matrix(1 0 0 -1 0 792)" d="M414.059 673.505L504.283 673.505L504.283 654.305L414.059 654.305z" stroke="none" fill="#E5E5E5" fill-rule="nonzero" /><path id="72" transform="matrix(1 0 0 -1 0 792)" d="M107.717 655.345L504.284 655.345L504.284 654.778L107.717 654.778z" stroke="none" fill="#E5E5E5" fill-rule="nonzero" /><path id="73" transform="matrix(1 0 0 -1 0 792)" d="M107.717 655.061L504.283 655.061" stroke="#000000" stroke-width="0.567" stroke-linecap="square" fill="none" /><path id="1847" transform="matrix(1 0 0 -1 0 792)" d="M107.717 169.803L504.283 169.803" stroke="#000000" stroke-width="0.75" stroke-linecap="square" fill="none" /></g></g></svg>