<svg xmlns="http://www.w3.org/2000/svg" xmlns:xlink="http://www.w3.org/1999/xlink" id="body_66" preserveAspectRatio="xMinYMin meet" viewBox="0 0 816 1056"><defs><clipPath id="1"><path id="" clip-rule="evenodd" transform="matrix(1 0 0 1 0 0)" d="M0 792L0 0L0 0L612 0L612 0L612 792L612 792L0 792z" /></clipPath></defs><g transform="matrix(1.333333 0 0 1.333333 0 0)"><g clip-path="url(#1)"><path id="222" transform="matrix(1 0 0 -1 0 792)" d="M108.092 612.62L108.092 596.57" stroke="#000000" stroke-width="0.75" stroke-linecap="square" fill="none" /><path id="223" transform="matrix(1 0 0 -1 0 792)" d="M108.092 612.62L156.339 612.62L156.339 612.62L156.339 596.57" stroke="#000000" stroke-width="0.75" stroke-linecap="square" fill="none" /><path id="224" transform="matrix(1 0 0 -1 0 792)" d="M108.092 596.57L156.339 596.57" stroke="#000000" stroke-width="0.75" stroke-linecap="square" fill="none" /><path id="232" transform="matrix(1 0 0 -1 0 792)" d="M108.092 612.62L108.092 597.32" stroke="#000000" stroke-width="0.75" stroke-linecap="square" fill="none" /><path id="233" transform="matrix(1 0 0 -1 0 792)" d="M108.092 612.62L155.589 612.62" stroke="#000000" stroke-width="0.75" stroke-linecap="square" fill="none" /><path id="234" transform="matrix(1 0 0 -1 0 792)" d="M156.339 612.62L156.339 596.57" stroke="#000000" stroke-width="0.75" stroke-linecap="square" fill="none" /><path id="235" transform="matrix(1 0 0 -1 0 792)" d="M156.339 612.62L503.908 612.62L503.908 612.62L503.908 596.57" stroke="#000000" stroke-width="0.75" stroke-linecap="square" fill="none" /><path id="236" transform="matrix(1 0 0 -1 0 792)" d="M156.339 596.57L503.908 596.57" stroke="#000000" stroke-width="0.75" stroke-linecap="square" fill="none" /><path id="241" transform="matrix(1 0 0 -1 0 792)" d="M157.089 612.62L503.908 612.62L503.908 612.62L503.908 597.32" stroke="#000000" stroke-width="0.75" stroke-linecap="square" fill="none" /><path id="242" transform="matrix(1 0 0 -1 0 792)" d="M108.092 596.57L108.092 581.02" stroke="#000000" stroke-width="0.75" stroke-linecap="square" fill="none" /><path id="243" transform="matrix(1 0 0 -1 0 792)" d="M108.092 596.57L156.339 596.57L156.339 596.57L156.339 581.02" stroke="#000000" stroke-width="0.75" stroke-linecap="square" fill="none" /><path id="244" transform="matrix(1 0 0 -1 0 792)" d="M108.092 581.02L156.339 581.02" stroke="#000000" stroke-width="0.75" stroke-linecap="square" fill="none" /><path id="255" transform="matrix(1 0 0 -1 0 792)" d="M108.092 595.82L108.092 581.77" stroke="#000000" stroke-width="0.75" stroke-linecap="square" fill="none" /><path id="256" transform="matrix(1 0 0 -1 0 792)" d="M156.339 596.57L156.339 581.02" stroke="#000000" stroke-width="0.75" stroke-linecap="square" fill="none" /><path id="257" transform="matrix(1 0 0 -1 0 792)" d="M156.339 596.57L503.908 596.57L503.908 596.57L503.908 581.02" stroke="#000000" stroke-width="0.75" stroke-linecap="square" fill="none" /><path id="258" transform="matrix(1 0 0 -1 0 792)" d="M156.339 581.02L503.908 581.02" stroke="#000000" stroke-width="0.75" stroke-linecap="square" fill="none" /><path id="300" transform="matrix(1 0 0 -1 0 792)" d="M503.908 595.82L503.908 581.77" stroke="#000000" stroke-width="0.75" stroke-linecap="square" fill="none" /><path id="301" transform="matrix(1 0 0 -1 0 792)" d="M108.092 581.02L108.092 565.47" stroke="#000000" stroke-width="0.75" stroke-linecap="square" fill="none" /><path id="302" transform="matrix(1 0 0 -1 0 792)" d="M108.092 581.02L156.339 581.02L156.339 581.02L156.339 565.47" stroke="#000000" stroke-width="0.75" stroke-linecap="square" fill="none" /><path id="303" transform="matrix(1 0 0 -1 0 792)" d="M108.092 565.47L156.339 565.47" stroke="#000000" stroke-width="0.75" stroke-linecap="square" fill="none" /><path id="316" transform="matrix(1 0 0 -1 0 792)" d="M108.092 580.27L108.092 566.22" stroke="#000000" stroke-width="0.75" stroke-linecap="square" fill="none" /><path id="317" transform="matrix(1 0 0 -1 0 792)" d="M156.339 581.02L156.339 565.47" stroke="#000000" stroke-width="0.75" stroke-linecap="square" fill="none" /><path id="318" transform="matrix(1 0 0 -1 0 792)" d="M156.339 581.02L503.908 581.02L503.908 581.02L503.908 565.47" stroke="#000000" stroke-width="0.75" stroke-linecap="square" fill="none" /><path id="319" transform="matrix(1 0 0 -1 0 792)" d="M156.339 565.47L503.908 565.47" stroke="#000000" stroke-width="0.75" stroke-linecap="square" fill="none" /><path id="383" transform="matrix(1 0 0 -1 0 792)" d="M503.908 580.27L503.908 566.22" stroke="#000000" stroke-width="0.75" stroke-linecap="square" fill="none" /><path id="384" transform="matrix(1 0 0 -1 0 792)" d="M108.092 565.47L108.092 549.92" stroke="#000000" stroke-width="0.75" stroke-linecap="square" fill="none" /><path id="385" transform="matrix(1 0 0 -1 0 792)" d="M108.092 565.47L156.339 565.47L156.339 565.47L156.339 549.92" stroke="#000000" stroke-width="0.75" stroke-linecap="square" fill="none" /><path id="386" transform="matrix(1 0 0 -1 0 792)" d="M108.092 549.92L156.339 549.92" stroke="#000000" stroke-width="0.75" stroke-linecap="square" fill="none" /><path id="394" transform="matrix(1 0 0 -1 0 792)" d="M108.092 564.72L108.092 550.67" stroke="#000000" stroke-width="0.75" stroke-linecap="square" fill="none" /><path id="395" transform="matrix(1 0 0 -1 0 792)" d="M156.339 565.47L156.339 549.92" stroke="#000000" stroke-width="0.75" stroke-linecap="square" fill="none" /><path id="396" transform="matrix(1 0 0 -1 0 792)" d="M156.339 565.47L503.908 565.47L503.908 565.47L503.908 549.92" stroke="#000000" stroke-width="0.75" stroke-linecap="square" fill="none" /><path id="397" transform="matrix(1 0 0 -1 0 792)" d="M156.339 549.92L503.908 549.92" stroke="#000000" stroke-width="0.75" stroke-linecap="square" fill="none" /><path id="441" transform="matrix(1 0 0 -1 0 792)" d="M503.908 564.72L503.908 550.67" stroke="#000000" stroke-width="0.75" stroke-linecap="square" fill="none" /><path id="442" transform="matrix(1 0 0 -1 0 792)" d="M108.092 549.92L108.092 534.37" stroke="#000000" stroke-width="0.75" stroke-linecap="square" fill="none" /><path id="443" transform="matrix(1 0 0 -1 0 792)" d="M108.092 549.92L156.339 549.92L156.339 549.92L156.339 534.37" stroke="#000000" stroke-width="0.75" stroke-linecap="square" fill="none" /><path id="444" transform="matrix(1 0 0 -1 0 792)" d="M108.092 534.37L156.339 534.37" stroke="#000000" stroke-width="0.75" stroke-linecap="square" fill="none" /><path id="450" transform="matrix(1 0 0 -1 0 792)" d="M108.092 549.17L108.092 535.12" stroke="#000000" stroke-width="0.75" stroke-linecap="square" fill="none" /><path id="451" transform="matrix(1 0 0 -1 0 792)" d="M156.339 549.92L156.339 534.37" stroke="#000000" stroke-width="0.75" stroke-linecap="square" fill="none" /><path id="452" transform="matrix(1 0 0 -1 0 792)" d="M156.339 549.92L503.908 549.92L503.908 549.92L503.908 534.37" stroke="#000000" stroke-width="0.75" stroke-linecap="square" fill="none" /><path id="453" transform="matrix(1 0 0 -1 0 792)" d="M156.339 534.37L503.908 534.37" stroke="#000000" stroke-width="0.75" stroke-linecap="square" fill="none" /><path id="467" transform="matrix(1 0 0 -1 0 792)" d="M503.908 549.17L503.908 535.12" stroke="#000000" stroke-width="0.75" stroke-linecap="square" fill="none" /><path id="468" transform="matrix(1 0 0 -1 0 792)" d="M108.092 534.37L108.092 518.82" stroke="#000000" stroke-width="0.75" stroke-linecap="square" fill="none" /><path id="469" transform="matrix(1 0 0 -1 0 792)" d="M108.092 534.37L156.339 534.37L156.339 534.37L156.339 518.82" stroke="#000000" stroke-width="0.75" stroke-linecap="square" fill="none" /><path id="470" transform="matrix(1 0 0 -1 0 792)" d="M108.092 518.82L156.339 518.82" stroke="#000000" stroke-width="0.75" stroke-linecap="square" fill="none" /><path id="481" transform="matrix(1 0 0 -1 0 792)" d="M108.092 533.62L108.092 519.57" stroke="#000000" stroke-width="0.75" stroke-linecap="square" fill="none" /><path id="482" transform="matrix(1 0 0 -1 0 792)" d="M156.339 534.37L156.339 518.82" stroke="#000000" stroke-width="0.75" stroke-linecap="square" fill="none" /><path id="483" transform="matrix(1 0 0 -1 0 792)" d="M156.339 534.37L503.908 534.37L503.908 534.37L503.908 518.82" stroke="#000000" stroke-width="0.75" stroke-linecap="square" fill="none" /><path id="484" transform="matrix(1 0 0 -1 0 792)" d="M156.339 518.82L503.908 518.82" stroke="#000000" stroke-width="0.75" stroke-linecap="square" fill="none" /><path id="566" transform="matrix(1 0 0 -1 0 792)" d="M503.908 533.62L503.908 519.57" stroke="#000000" stroke-width="0.75" stroke-linecap="square" fill="none" /><path id="567" transform="matrix(1 0 0 -1 0 792)" d="M108.092 518.82L108.092 503.27" stroke="#000000" stroke-width="0.75" stroke-linecap="square" fill="none" /><path id="568" transform="matrix(1 0 0 -1 0 792)" d="M108.092 518.82L156.339 518.82L156.339 518.82L156.339 503.27" stroke="#000000" stroke-width="0.75" stroke-linecap="square" fill="none" /><path id="569" transform="matrix(1 0 0 -1 0 792)" d="M108.092 503.27L156.339 503.27" stroke="#000000" stroke-width="0.75" stroke-linecap="square" fill="none" /><path id="574" transform="matrix(1 0 0 -1 0 792)" d="M108.092 518.07L108.092 504.02" stroke="#000000" stroke-width="0.75" stroke-linecap="square" fill="none" /><path id="575" transform="matrix(1 0 0 -1 0 792)" d="M156.339 518.82L156.339 503.27" stroke="#000000" stroke-width="0.75" stroke-linecap="square" fill="none" /><path id="576" transform="matrix(1 0 0 -1 0 792)" d="M156.339 518.82L503.908 518.82L503.908 518.82L503.908 503.27" stroke="#000000" stroke-width="0.75" stroke-linecap="square" fill="none" /><path id="577" transform="matrix(1 0 0 -1 0 792)" d="M156.339 503.27L503.908 503.27" stroke="#000000" stroke-width="0.75" stroke-linecap="square" fill="none" /><path id="604" transform="matrix(1 0 0 -1 0 792)" d="M503.908 518.07L503.908 504.02" stroke="#000000" stroke-width="0.75" stroke-linecap="square" fill="none" /><path id="605" transform="matrix(1 0 0 -1 0 792)" d="M108.092 503.27L108.092 476.92" stroke="#000000" stroke-width="0.75" stroke-linecap="square" fill="none" /><path id="606" transform="matrix(1 0 0 -1 0 792)" d="M108.092 503.27L156.339 503.27L156.339 503.27L156.339 476.92" stroke="#000000" stroke-width="0.75" stroke-linecap="square" fill="none" /><path id="607" transform="matrix(1 0 0 -1 0 792)" d="M108.092 476.92L156.339 476.92" stroke="#000000" stroke-width="0.75" stroke-linecap="square" fill="none" /><path id="614" transform="matrix(1 0 0 -1 0 792)" d="M108.092 502.52L108.092 477.67" stroke="#000000" stroke-width="0.75" stroke-linecap="square" fill="none" /><path id="615" transform="matrix(1 0 0 -1 0 792)" d="M156.339 503.27L156.339 476.92" stroke="#000000" stroke-width="0.75" stroke-linecap="square" fill="none" /><path id="616" transform="matrix(1 0 0 -1 0 792)" d="M156.339 503.27L503.908 503.27L503.908 503.27L503.908 476.92" stroke="#000000" stroke-width="0.75" stroke-linecap="square" fill="none" /><path id="617" transform="matrix(1 0 0 -1 0 792)" d="M156.339 476.92L503.908 476.92" stroke="#000000" stroke-width="0.75" stroke-linecap="square" fill="none" /><path id="732" transform="matrix(1 0 0 -1 0 792)" d="M503.908 502.52L503.908 477.67" stroke="#000000" stroke-width="0.75" stroke-linecap="square" fill="none" /><path id="733" transform="matrix(1 0 0 -1 0 792)" d="M108.092 476.92L108.092 461.37" stroke="#000000" stroke-width="0.75" stroke-linecap="square" fill="none" /><path id="734" transform="matrix(1 0 0 -1 0 792)" d="M108.092 476.92L156.339 476.92L156.339 476.92L156.339 461.37" stroke="#000000" stroke-width="0.75" stroke-linecap="square" fill="none" /><path id="735" transform="matrix(1 0 0 -1 0 792)" d="M108.092 461.37L156.339 461.37" stroke="#000000" stroke-width="0.75" stroke-linecap="square" fill="none" /><path id="742" transform="matrix(1 0 0 -1 0 792)" d="M108.092 476.17L108.092 462.12" stroke="#000000" stroke-width="0.75" stroke-linecap="square" fill="none" /><path id="743" transform="matrix(1 0 0 -1 0 792)" d="M156.339 476.92L156.339 461.37" stroke="#000000" stroke-width="0.75" stroke-linecap="square" fill="none" /><path id="744" transform="matrix(1 0 0 -1 0 792)" d="M156.339 476.92L503.908 476.92L503.908 476.92L503.908 461.37" stroke="#000000" stroke-width="0.75" stroke-linecap="square" fill="none" /><path id="745" transform="matrix(1 0 0 -1 0 792)" d="M156.339 461.37L503.908 461.37" stroke="#000000" stroke-width="0.75" stroke-linecap="square" fill="none" /><path id="763" transform="matrix(1 0 0 -1 0 792)" d="M503.908 476.17L503.908 462.12" stroke="#000000" stroke-width="0.75" stroke-linecap="square" fill="none" /><path id="764" transform="matrix(1 0 0 -1 0 792)" d="M108.092 461.37L108.092 445.82" stroke="#000000" stroke-width="0.75" stroke-linecap="square" fill="none" /><path id="765" transform="matrix(1 0 0 -1 0 792)" d="M108.092 461.37L156.339 461.37L156.339 461.37L156.339 445.82" stroke="#000000" stroke-width="0.75" stroke-linecap="square" fill="none" /><path id="766" transform="matrix(1 0 0 -1 0 792)" d="M108.092 445.82L156.339 445.82" stroke="#000000" stroke-width="0.75" stroke-linecap="square" fill="none" /><path id="772" transform="matrix(1 0 0 -1 0 792)" d="M108.092 460.62L108.092 446.57" stroke="#000000" stroke-width="0.75" stroke-linecap="square" fill="none" /><path id="773" transform="matrix(1 0 0 -1 0 792)" d="M156.339 461.37L156.339 445.82" stroke="#000000" stroke-width="0.75" stroke-linecap="square" fill="none" /><path id="774" transform="matrix(1 0 0 -1 0 792)" d="M156.339 461.37L503.908 461.37L503.908 461.37L503.908 445.82" stroke="#000000" stroke-width="0.75" stroke-linecap="square" fill="none" /><path id="775" transform="matrix(1 0 0 -1 0 792)" d="M156.339 445.82L503.908 445.82" stroke="#000000" stroke-width="0.75" stroke-linecap="square" fill="none" /><path id="806" transform="matrix(1 0 0 -1 0 792)" d="M503.908 460.62L503.908 446.57" stroke="#000000" stroke-width="0.75" stroke-linecap="square" fill="none" /><path id="807" transform="matrix(1 0 0 -1 0 792)" d="M108.092 445.82L108.092 430.27" stroke="#000000" stroke-width="0.75" stroke-linecap="square" fill="none" /><path id="808" transform="matrix(1 0 0 -1 0 792)" d="M108.092 445.82L156.339 445.82L156.339 445.82L156.339 430.27" stroke="#000000" stroke-width="0.75" stroke-linecap="square" fill="none" /><path id="809" transform="matrix(1 0 0 -1 0 792)" d="M108.092 430.27L156.339 430.27" stroke="#000000" stroke-width="0.75" stroke-linecap="square" fill="none" /><path id="820" transform="matrix(1 0 0 -1 0 792)" d="M108.092 445.07L108.092 431.02" stroke="#000000" stroke-width="0.75" stroke-linecap="square" fill="none" /><path id="821" transform="matrix(1 0 0 -1 0 792)" d="M156.339 445.82L156.339 430.27" stroke="#000000" stroke-width="0.75" stroke-linecap="square" fill="none" /><path id="822" transform="matrix(1 0 0 -1 0 792)" d="M156.339 445.82L503.908 445.82L503.908 445.82L503.908 430.27" stroke="#000000" stroke-width="0.75" stroke-linecap="square" fill="none" /><path id="823" transform="matrix(1 0 0 -1 0 792)" d="M156.339 430.27L503.908 430.27" stroke="#000000" stroke-width="0.75" stroke-linecap="square" fill="none" /><path id="865" transform="matrix(1 0 0 -1 0 792)" d="M503.908 445.07L503.908 431.02" stroke="#000000" stroke-width="0.75" stroke-linecap="square" fill="none" /><path id="866" transform="matrix(1 0 0 -1 0 792)" d="M108.092 430.27L108.092 414.72" stroke="#000000" stroke-width="0.75" stroke-linecap="square" fill="none" /><path id="867" transform="matrix(1 0 0 -1 0 792)" d="M108.092 430.27L156.339 430.27L156.339 430.27L156.339 414.72" stroke="#000000" stroke-width="0.75" stroke-linecap="square" fill="none" /><path id="868" transform="matrix(1 0 0 -1 0 792)" d="M108.092 414.72L156.339 414.72" stroke="#000000" stroke-width="0.75" stroke-linecap="square" fill="none" /><path id="876" transform="matrix(1 0 0 -1 0 792)" d="M108.092 429.52L108.092 414.72L108.092 414.72L155.589 414.72" stroke="#000000" stroke-width="0.75" stroke-linecap="square" fill="none" /><path id="877" transform="matrix(1 0 0 -1 0 792)" d="M156.339 430.27L156.339 414.72" stroke="#000000" stroke-width="0.75" stroke-linecap="square" fill="none" /><path id="878" transform="matrix(1 0 0 -1 0 792)" d="M156.339 430.27L503.908 430.27L503.908 430.27L503.908 414.72" stroke="#000000" stroke-width="0.75" stroke-linecap="square" fill="none" /><path id="879" transform="matrix(1 0 0 -1 0 792)" d="M156.339 414.72L503.908 414.72" stroke="#000000" stroke-width="0.75" stroke-linecap="square" fill="none" /><path id="898" transform="matrix(1 0 0 -1 0 792)" d="M503.908 429.52L503.908 414.72" stroke="#000000" stroke-width="0.75" stroke-linecap="square" fill="none" /><path id="899" transform="matrix(1 0 0 -1 0 792)" d="M157.089 414.72L503.908 414.72" stroke="#000000" stroke-width="0.75" stroke-linecap="square" fill="none" /></g></g></svg>