<svg xmlns="http://www.w3.org/2000/svg" xmlns:xlink="http://www.w3.org/1999/xlink" id="body_96" preserveAspectRatio="xMinYMin meet" viewBox="0 0 816 1056"><defs><clipPath id="1"><path id="" clip-rule="evenodd" transform="matrix(1 0 0 1 0 0)" d="M0 792L0 0L0 0L612 0L612 0L612 792L612 792L0 792z" /></clipPath><clipPath id="2"><path id="" clip-rule="evenodd" transform="matrix(1 0 0 1 0 0)" d="M111.1037 644.0852L459.0974 644.0852L459.0974 644.0852L459.0974 408.7458L459.0974 408.7458L111.1037 408.7458z" /></clipPath></defs><g transform="matrix(1.333333 0 0 1.333333 0 0)"><g clip-path="url(#1)"><g clip-path="url(#2)"><g transform="matrix(0.4384176 0 0 0.4384166 236.4326 408.7469)"><g transform="matrix(1 0 0 1 0 0)"><image x="0" y="0" xlink:href="img_159.png" width="222" height="533" /></g></g></g></g></g></svg>