<svg xmlns="http://www.w3.org/2000/svg" xmlns:xlink="http://www.w3.org/1999/xlink" id="body_98" preserveAspectRatio="xMinYMin meet" viewBox="0 0 816 1056"><defs><clipPath id="1"><path id="" clip-rule="evenodd" transform="matrix(1 0 0 1 0 0)" d="M0 792L0 0L0 0L612 0L612 0L612 792L612 792L0 792z" /></clipPath></defs><g transform="matrix(1.333333 0 0 1.333333 0 0)"><g clip-path="url(#1)"><path id="542" transform="matrix(1 0 0 -1 0 792)" d="M108.092 519.94L108.092 503.89" stroke="#000000" stroke-width="0.75" stroke-linecap="square" fill="none" /><path id="543" transform="matrix(1 0 0 -1 0 792)" d="M108.092 519.94L194.031 519.94L194.031 519.94L194.031 503.89" stroke="#000000" stroke-width="0.75" stroke-linecap="square" fill="none" /><path id="544" transform="matrix(1 0 0 -1 0 792)" d="M108.092 503.89L194.031 503.89" stroke="#000000" stroke-width="0.75" stroke-linecap="square" fill="none" /><path id="555" transform="matrix(1 0 0 -1 0 792)" d="M108.092 519.94L108.092 504.64" stroke="#000000" stroke-width="0.75" stroke-linecap="square" fill="none" /><path id="556" transform="matrix(1 0 0 -1 0 792)" d="M108.092 519.94L193.281 519.94" stroke="#000000" stroke-width="0.75" stroke-linecap="square" fill="none" /><path id="557" transform="matrix(1 0 0 -1 0 792)" d="M194.031 519.94L194.031 503.89" stroke="#000000" stroke-width="0.75" stroke-linecap="square" fill="none" /><path id="558" transform="matrix(1 0 0 -1 0 792)" d="M194.031 519.94L276.395 519.94L276.395 519.94L276.395 503.89" stroke="#000000" stroke-width="0.75" stroke-linecap="square" fill="none" /><path id="559" transform="matrix(1 0 0 -1 0 792)" d="M194.031 503.89L276.395 503.89" stroke="#000000" stroke-width="0.75" stroke-linecap="square" fill="none" /><path id="568" transform="matrix(1 0 0 -1 0 792)" d="M194.781 519.94L275.645 519.94" stroke="#000000" stroke-width="0.75" stroke-linecap="square" fill="none" /><path id="569" transform="matrix(1 0 0 -1 0 792)" d="M276.395 519.94L276.395 503.89" stroke="#000000" stroke-width="0.75" stroke-linecap="square" fill="none" /><path id="570" transform="matrix(1 0 0 -1 0 792)" d="M276.395 519.94L356.177 519.94L356.177 519.94L356.177 503.89" stroke="#000000" stroke-width="0.75" stroke-linecap="square" fill="none" /><path id="571" transform="matrix(1 0 0 -1 0 792)" d="M276.395 503.89L356.177 503.89" stroke="#000000" stroke-width="0.75" stroke-linecap="square" fill="none" /><path id="581" transform="matrix(1 0 0 -1 0 792)" d="M277.145 519.94L355.427 519.94" stroke="#000000" stroke-width="0.75" stroke-linecap="square" fill="none" /><path id="582" transform="matrix(1 0 0 -1 0 792)" d="M356.177 519.94L356.177 503.89" stroke="#000000" stroke-width="0.75" stroke-linecap="square" fill="none" /><path id="583" transform="matrix(1 0 0 -1 0 792)" d="M356.177 519.94L423.954 519.94L423.954 519.94L423.954 503.89" stroke="#000000" stroke-width="0.75" stroke-linecap="square" fill="none" /><path id="584" transform="matrix(1 0 0 -1 0 792)" d="M356.177 503.89L423.954 503.89" stroke="#000000" stroke-width="0.75" stroke-linecap="square" fill="none" /><path id="591" transform="matrix(1 0 0 -1 0 792)" d="M356.927 519.94L423.204 519.94" stroke="#000000" stroke-width="0.75" stroke-linecap="square" fill="none" /><path id="592" transform="matrix(1 0 0 -1 0 792)" d="M423.954 519.94L423.954 503.89" stroke="#000000" stroke-width="0.75" stroke-linecap="square" fill="none" /><path id="593" transform="matrix(1 0 0 -1 0 792)" d="M423.954 519.94L503.908 519.94L503.908 519.94L503.908 503.89" stroke="#000000" stroke-width="0.75" stroke-linecap="square" fill="none" /><path id="594" transform="matrix(1 0 0 -1 0 792)" d="M423.954 503.89L503.908 503.89" stroke="#000000" stroke-width="0.75" stroke-linecap="square" fill="none" /><path id="603" transform="matrix(1 0 0 -1 0 792)" d="M424.704 519.94L503.908 519.94L503.908 519.94L503.908 504.64" stroke="#000000" stroke-width="0.75" stroke-linecap="square" fill="none" /><path id="604" transform="matrix(1 0 0 -1 0 792)" d="M108.092 503.89L108.092 488.34" stroke="#000000" stroke-width="0.75" stroke-linecap="square" fill="none" /><path id="605" transform="matrix(1 0 0 -1 0 792)" d="M108.092 503.89L194.031 503.89L194.031 503.89L194.031 488.34" stroke="#000000" stroke-width="0.75" stroke-linecap="square" fill="none" /><path id="606" transform="matrix(1 0 0 -1 0 792)" d="M108.092 488.34L194.031 488.34" stroke="#000000" stroke-width="0.75" stroke-linecap="square" fill="none" /><path id="612" transform="matrix(1 0 0 -1 0 792)" d="M108.092 503.14L108.092 489.09" stroke="#000000" stroke-width="0.75" stroke-linecap="square" fill="none" /><path id="613" transform="matrix(1 0 0 -1 0 792)" d="M194.031 503.89L194.031 488.34" stroke="#000000" stroke-width="0.75" stroke-linecap="square" fill="none" /><path id="614" transform="matrix(1 0 0 -1 0 792)" d="M194.031 503.89L276.395 503.89L276.395 503.89L276.395 488.34" stroke="#000000" stroke-width="0.75" stroke-linecap="square" fill="none" /><path id="615" transform="matrix(1 0 0 -1 0 792)" d="M194.031 488.34L276.395 488.34" stroke="#000000" stroke-width="0.75" stroke-linecap="square" fill="none" /><path id="622" transform="matrix(1 0 0 -1 0 792)" d="M276.395 503.89L276.395 488.34" stroke="#000000" stroke-width="0.75" stroke-linecap="square" fill="none" /><path id="623" transform="matrix(1 0 0 -1 0 792)" d="M276.395 503.89L356.177 503.89L356.177 503.89L356.177 488.34" stroke="#000000" stroke-width="0.75" stroke-linecap="square" fill="none" /><path id="624" transform="matrix(1 0 0 -1 0 792)" d="M276.395 488.34L356.177 488.34" stroke="#000000" stroke-width="0.75" stroke-linecap="square" fill="none" /><path id="631" transform="matrix(1 0 0 -1 0 792)" d="M356.177 503.89L356.177 488.34" stroke="#000000" stroke-width="0.75" stroke-linecap="square" fill="none" /><path id="632" transform="matrix(1 0 0 -1 0 792)" d="M356.177 503.89L423.954 503.89L423.954 503.89L423.954 488.34" stroke="#000000" stroke-width="0.75" stroke-linecap="square" fill="none" /><path id="633" transform="matrix(1 0 0 -1 0 792)" d="M356.177 488.34L423.954 488.34" stroke="#000000" stroke-width="0.75" stroke-linecap="square" fill="none" /><path id="638" transform="matrix(1 0 0 -1 0 792)" d="M423.954 503.89L423.954 488.34" stroke="#000000" stroke-width="0.75" stroke-linecap="square" fill="none" /><path id="639" transform="matrix(1 0 0 -1 0 792)" d="M423.954 503.89L503.908 503.89L503.908 503.89L503.908 488.34" stroke="#000000" stroke-width="0.75" stroke-linecap="square" fill="none" /><path id="640" transform="matrix(1 0 0 -1 0 792)" d="M423.954 488.34L503.908 488.34" stroke="#000000" stroke-width="0.75" stroke-linecap="square" fill="none" /><path id="647" transform="matrix(1 0 0 -1 0 792)" d="M503.908 503.14L503.908 489.09" stroke="#000000" stroke-width="0.75" stroke-linecap="square" fill="none" /><path id="648" transform="matrix(1 0 0 -1 0 792)" d="M108.092 488.34L108.092 472.79" stroke="#000000" stroke-width="0.75" stroke-linecap="square" fill="none" /><path id="649" transform="matrix(1 0 0 -1 0 792)" d="M108.092 488.34L194.031 488.34L194.031 488.34L194.031 472.79" stroke="#000000" stroke-width="0.75" stroke-linecap="square" fill="none" /><path id="650" transform="matrix(1 0 0 -1 0 792)" d="M108.092 472.79L194.031 472.79" stroke="#000000" stroke-width="0.75" stroke-linecap="square" fill="none" /><path id="658" transform="matrix(1 0 0 -1 0 792)" d="M108.092 487.59L108.092 473.54" stroke="#000000" stroke-width="0.75" stroke-linecap="square" fill="none" /><path id="659" transform="matrix(1 0 0 -1 0 792)" d="M194.031 488.34L194.031 472.79" stroke="#000000" stroke-width="0.75" stroke-linecap="square" fill="none" /><path id="660" transform="matrix(1 0 0 -1 0 792)" d="M194.031 488.34L276.395 488.34L276.395 488.34L276.395 472.79" stroke="#000000" stroke-width="0.75" stroke-linecap="square" fill="none" /><path id="661" transform="matrix(1 0 0 -1 0 792)" d="M194.031 472.79L276.395 472.79" stroke="#000000" stroke-width="0.75" stroke-linecap="square" fill="none" /><path id="668" transform="matrix(1 0 0 -1 0 792)" d="M276.395 488.34L276.395 472.79" stroke="#000000" stroke-width="0.75" stroke-linecap="square" fill="none" /><path id="669" transform="matrix(1 0 0 -1 0 792)" d="M276.395 488.34L356.177 488.34L356.177 488.34L356.177 472.79" stroke="#000000" stroke-width="0.75" stroke-linecap="square" fill="none" /><path id="670" transform="matrix(1 0 0 -1 0 792)" d="M276.395 472.79L356.177 472.79" stroke="#000000" stroke-width="0.75" stroke-linecap="square" fill="none" /><path id="677" transform="matrix(1 0 0 -1 0 792)" d="M356.177 488.34L356.177 472.79" stroke="#000000" stroke-width="0.75" stroke-linecap="square" fill="none" /><path id="678" transform="matrix(1 0 0 -1 0 792)" d="M356.177 488.34L423.954 488.34L423.954 488.34L423.954 472.79" stroke="#000000" stroke-width="0.75" stroke-linecap="square" fill="none" /><path id="679" transform="matrix(1 0 0 -1 0 792)" d="M356.177 472.79L423.954 472.79" stroke="#000000" stroke-width="0.75" stroke-linecap="square" fill="none" /><path id="684" transform="matrix(1 0 0 -1 0 792)" d="M423.954 488.34L423.954 472.79" stroke="#000000" stroke-width="0.75" stroke-linecap="square" fill="none" /><path id="685" transform="matrix(1 0 0 -1 0 792)" d="M423.954 488.34L503.908 488.34L503.908 488.34L503.908 472.79" stroke="#000000" stroke-width="0.75" stroke-linecap="square" fill="none" /><path id="686" transform="matrix(1 0 0 -1 0 792)" d="M423.954 472.79L503.908 472.79" stroke="#000000" stroke-width="0.75" stroke-linecap="square" fill="none" /><path id="693" transform="matrix(1 0 0 -1 0 792)" d="M503.908 487.59L503.908 473.54" stroke="#000000" stroke-width="0.75" stroke-linecap="square" fill="none" /><path id="694" transform="matrix(1 0 0 -1 0 792)" d="M108.092 472.79L108.092 457.24" stroke="#000000" stroke-width="0.75" stroke-linecap="square" fill="none" /><path id="695" transform="matrix(1 0 0 -1 0 792)" d="M108.092 472.79L194.031 472.79L194.031 472.79L194.031 457.24" stroke="#000000" stroke-width="0.75" stroke-linecap="square" fill="none" /><path id="696" transform="matrix(1 0 0 -1 0 792)" d="M108.092 457.24L194.031 457.24" stroke="#000000" stroke-width="0.75" stroke-linecap="square" fill="none" /><path id="703" transform="matrix(1 0 0 -1 0 792)" d="M108.092 472.04L108.092 457.99" stroke="#000000" stroke-width="0.75" stroke-linecap="square" fill="none" /><path id="704" transform="matrix(1 0 0 -1 0 792)" d="M194.031 472.79L194.031 457.24" stroke="#000000" stroke-width="0.75" stroke-linecap="square" fill="none" /><path id="705" transform="matrix(1 0 0 -1 0 792)" d="M194.031 472.79L276.395 472.79L276.395 472.79L276.395 457.24" stroke="#000000" stroke-width="0.75" stroke-linecap="square" fill="none" /><path id="706" transform="matrix(1 0 0 -1 0 792)" d="M194.031 457.24L276.395 457.24" stroke="#000000" stroke-width="0.75" stroke-linecap="square" fill="none" /><path id="713" transform="matrix(1 0 0 -1 0 792)" d="M276.395 472.79L276.395 457.24" stroke="#000000" stroke-width="0.75" stroke-linecap="square" fill="none" /><path id="714" transform="matrix(1 0 0 -1 0 792)" d="M276.395 472.79L356.177 472.79L356.177 472.79L356.177 457.24" stroke="#000000" stroke-width="0.75" stroke-linecap="square" fill="none" /><path id="715" transform="matrix(1 0 0 -1 0 792)" d="M276.395 457.24L356.177 457.24" stroke="#000000" stroke-width="0.75" stroke-linecap="square" fill="none" /><path id="720" transform="matrix(1 0 0 -1 0 792)" d="M356.177 472.79L356.177 457.24" stroke="#000000" stroke-width="0.75" stroke-linecap="square" fill="none" /><path id="721" transform="matrix(1 0 0 -1 0 792)" d="M356.177 472.79L423.954 472.79L423.954 472.79L423.954 457.24" stroke="#000000" stroke-width="0.75" stroke-linecap="square" fill="none" /><path id="722" transform="matrix(1 0 0 -1 0 792)" d="M356.177 457.24L423.954 457.24" stroke="#000000" stroke-width="0.75" stroke-linecap="square" fill="none" /><path id="729" transform="matrix(1 0 0 -1 0 792)" d="M423.954 472.79L423.954 457.24" stroke="#000000" stroke-width="0.75" stroke-linecap="square" fill="none" /><path id="730" transform="matrix(1 0 0 -1 0 792)" d="M423.954 472.79L503.908 472.79L503.908 472.79L503.908 457.24" stroke="#000000" stroke-width="0.75" stroke-linecap="square" fill="none" /><path id="731" transform="matrix(1 0 0 -1 0 792)" d="M423.954 457.24L503.908 457.24" stroke="#000000" stroke-width="0.75" stroke-linecap="square" fill="none" /><path id="738" transform="matrix(1 0 0 -1 0 792)" d="M503.908 472.04L503.908 457.99" stroke="#000000" stroke-width="0.75" stroke-linecap="square" fill="none" /><path id="739" transform="matrix(1 0 0 -1 0 792)" d="M108.092 457.24L108.092 441.69" stroke="#000000" stroke-width="0.75" stroke-linecap="square" fill="none" /><path id="740" transform="matrix(1 0 0 -1 0 792)" d="M108.092 457.24L194.031 457.24L194.031 457.24L194.031 441.69" stroke="#000000" stroke-width="0.75" stroke-linecap="square" fill="none" /><path id="741" transform="matrix(1 0 0 -1 0 792)" d="M108.092 441.69L194.031 441.69" stroke="#000000" stroke-width="0.75" stroke-linecap="square" fill="none" /><path id="750" transform="matrix(1 0 0 -1 0 792)" d="M108.092 456.49L108.092 442.44" stroke="#000000" stroke-width="0.75" stroke-linecap="square" fill="none" /><path id="751" transform="matrix(1 0 0 -1 0 792)" d="M194.031 457.24L194.031 441.69" stroke="#000000" stroke-width="0.75" stroke-linecap="square" fill="none" /><path id="752" transform="matrix(1 0 0 -1 0 792)" d="M194.031 457.24L276.395 457.24L276.395 457.24L276.395 441.69" stroke="#000000" stroke-width="0.75" stroke-linecap="square" fill="none" /><path id="753" transform="matrix(1 0 0 -1 0 792)" d="M194.031 441.69L276.395 441.69" stroke="#000000" stroke-width="0.75" stroke-linecap="square" fill="none" /><path id="758" transform="matrix(1 0 0 -1 0 792)" d="M276.395 457.24L276.395 441.69" stroke="#000000" stroke-width="0.75" stroke-linecap="square" fill="none" /><path id="759" transform="matrix(1 0 0 -1 0 792)" d="M276.395 457.24L356.177 457.24L356.177 457.24L356.177 441.69" stroke="#000000" stroke-width="0.75" stroke-linecap="square" fill="none" /><path id="760" transform="matrix(1 0 0 -1 0 792)" d="M276.395 441.69L356.177 441.69" stroke="#000000" stroke-width="0.75" stroke-linecap="square" fill="none" /><path id="765" transform="matrix(1 0 0 -1 0 792)" d="M356.177 457.24L356.177 441.69" stroke="#000000" stroke-width="0.75" stroke-linecap="square" fill="none" /><path id="766" transform="matrix(1 0 0 -1 0 792)" d="M356.177 457.24L423.954 457.24L423.954 457.24L423.954 441.69" stroke="#000000" stroke-width="0.75" stroke-linecap="square" fill="none" /><path id="767" transform="matrix(1 0 0 -1 0 792)" d="M356.177 441.69L423.954 441.69" stroke="#000000" stroke-width="0.75" stroke-linecap="square" fill="none" /><path id="772" transform="matrix(1 0 0 -1 0 792)" d="M423.954 457.24L423.954 441.69" stroke="#000000" stroke-width="0.75" stroke-linecap="square" fill="none" /><path id="773" transform="matrix(1 0 0 -1 0 792)" d="M423.954 457.24L503.908 457.24L503.908 457.24L503.908 441.69" stroke="#000000" stroke-width="0.75" stroke-linecap="square" fill="none" /><path id="774" transform="matrix(1 0 0 -1 0 792)" d="M423.954 441.69L503.908 441.69" stroke="#000000" stroke-width="0.75" stroke-linecap="square" fill="none" /><path id="779" transform="matrix(1 0 0 -1 0 792)" d="M503.908 456.49L503.908 442.44" stroke="#000000" stroke-width="0.75" stroke-linecap="square" fill="none" /><path id="780" transform="matrix(1 0 0 -1 0 792)" d="M108.092 441.69L108.092 426.14" stroke="#000000" stroke-width="0.75" stroke-linecap="square" fill="none" /><path id="781" transform="matrix(1 0 0 -1 0 792)" d="M108.092 441.69L194.031 441.69L194.031 441.69L194.031 426.14" stroke="#000000" stroke-width="0.75" stroke-linecap="square" fill="none" /><path id="782" transform="matrix(1 0 0 -1 0 792)" d="M108.092 426.14L194.031 426.14" stroke="#000000" stroke-width="0.75" stroke-linecap="square" fill="none" /><path id="788" transform="matrix(1 0 0 -1 0 792)" d="M108.092 440.94L108.092 426.14L108.092 426.14L193.281 426.14" stroke="#000000" stroke-width="0.75" stroke-linecap="square" fill="none" /><path id="789" transform="matrix(1 0 0 -1 0 792)" d="M194.031 441.69L194.031 426.14" stroke="#000000" stroke-width="0.75" stroke-linecap="square" fill="none" /><path id="790" transform="matrix(1 0 0 -1 0 792)" d="M194.031 441.69L276.395 441.69L276.395 441.69L276.395 426.14" stroke="#000000" stroke-width="0.75" stroke-linecap="square" fill="none" /><path id="791" transform="matrix(1 0 0 -1 0 792)" d="M194.031 426.14L276.395 426.14" stroke="#000000" stroke-width="0.75" stroke-linecap="square" fill="none" /><path id="798" transform="matrix(1 0 0 -1 0 792)" d="M194.781 426.14L275.645 426.14" stroke="#000000" stroke-width="0.75" stroke-linecap="square" fill="none" /><path id="799" transform="matrix(1 0 0 -1 0 792)" d="M276.395 441.69L276.395 426.14" stroke="#000000" stroke-width="0.75" stroke-linecap="square" fill="none" /><path id="800" transform="matrix(1 0 0 -1 0 792)" d="M276.395 441.69L356.177 441.69L356.177 441.69L356.177 426.14" stroke="#000000" stroke-width="0.75" stroke-linecap="square" fill="none" /><path id="801" transform="matrix(1 0 0 -1 0 792)" d="M276.395 426.14L356.177 426.14" stroke="#000000" stroke-width="0.75" stroke-linecap="square" fill="none" /><path id="808" transform="matrix(1 0 0 -1 0 792)" d="M277.145 426.14L355.427 426.14" stroke="#000000" stroke-width="0.75" stroke-linecap="square" fill="none" /><path id="809" transform="matrix(1 0 0 -1 0 792)" d="M356.177 441.69L356.177 426.14" stroke="#000000" stroke-width="0.75" stroke-linecap="square" fill="none" /><path id="810" transform="matrix(1 0 0 -1 0 792)" d="M356.177 441.69L423.954 441.69L423.954 441.69L423.954 426.14" stroke="#000000" stroke-width="0.75" stroke-linecap="square" fill="none" /><path id="811" transform="matrix(1 0 0 -1 0 792)" d="M356.177 426.14L423.954 426.14" stroke="#000000" stroke-width="0.75" stroke-linecap="square" fill="none" /><path id="818" transform="matrix(1 0 0 -1 0 792)" d="M356.927 426.14L423.204 426.14" stroke="#000000" stroke-width="0.75" stroke-linecap="square" fill="none" /><path id="819" transform="matrix(1 0 0 -1 0 792)" d="M423.954 441.69L423.954 426.14" stroke="#000000" stroke-width="0.75" stroke-linecap="square" fill="none" /><path id="820" transform="matrix(1 0 0 -1 0 792)" d="M423.954 441.69L503.908 441.69L503.908 441.69L503.908 426.14" stroke="#000000" stroke-width="0.75" stroke-linecap="square" fill="none" /><path id="821" transform="matrix(1 0 0 -1 0 792)" d="M423.954 426.14L503.908 426.14" stroke="#000000" stroke-width="0.75" stroke-linecap="square" fill="none" /><path id="828" transform="matrix(1 0 0 -1 0 792)" d="M503.908 440.94L503.908 426.14" stroke="#000000" stroke-width="0.75" stroke-linecap="square" fill="none" /><path id="829" transform="matrix(1 0 0 -1 0 792)" d="M424.704 426.14L503.908 426.14" stroke="#000000" stroke-width="0.75" stroke-linecap="square" fill="none" /><g transform="matrix(0.4796436 0 0 0.479566 169.4046 439.9883)"><g transform="matrix(1 0 0 1 0 0)"><image x="0" y="0" xlink:href="img_163.png" width="572" height="410" /></g></g><path id="1108" transform="matrix(1 0 0 -1 0 792)" d="M175.5558 281.768C 175.5934 281.768 175.6168 281.7633 175.6356 281.7633C 175.6544 281.757 175.6747 281.7492 175.6873 281.7492C 175.706 281.7367 175.7139 281.7336 175.7201 281.7211C 175.7264 281.7085 175.7295 281.7007 175.7295 281.6882L175.7295 281.6882L175.7295 280.3735C 175.7295 280.336 175.717 280.3062 175.6919 280.2749C 175.6732 280.2374 175.6325 280.228 175.5699 280.228L175.5699 280.228L172.8232 280.228C 172.8107 280.228 172.8028 280.2311 172.7903 280.2374C 172.7841 280.2374 172.7731 280.2515 172.7668 280.2702C 172.7668 280.2828 172.759 280.3 172.7527 280.3313C 172.7527 280.3563 172.7481 280.3876 172.7481 280.4252C 172.7481 280.4627 172.7527 280.494 172.7527 280.5191C 172.759 280.5441 172.7668 280.5613 172.7668 280.5801C 172.7731 280.5927 172.7841 280.6067 172.7903 280.613C 172.8028 280.613 172.8107 280.6224 172.8232 280.6224L172.8232 280.6224L175.3868 280.6224L175.3868 280.6224L175.3868 281.6882C 175.3868 281.7007 175.3961 281.7085 175.3961 281.7211C 175.4087 281.7336 175.4165 281.7367 175.429 281.7492C 175.4415 281.7492 175.4619 281.757 175.4807 281.7633C 175.4994 281.7633 175.5307 281.768 175.5558 281.768z" stroke="none" fill="#000000" fill-rule="evenodd" /><path id="1109" transform="matrix(1 0 0 -1 0 792)" d="M174.6167 284.1583C 174.7858 284.1583 174.9438 284.1302 175.0816 284.0926C 175.2256 284.0425 175.3476 283.9768 175.4478 283.8954C 175.548 283.8015 175.6309 283.6935 175.6873 283.562C 175.7436 283.4306 175.7718 283.2756 175.7718 283.1066C 175.7718 282.9376 175.7467 282.7858 175.6966 282.6606C 175.6466 282.5291 175.5761 282.4274 175.476 282.346C 175.3821 282.2583 175.2678 282.1957 175.1238 282.1582C 174.9924 282.1143 174.8343 282.0971 174.659 282.0971C 174.49 282.0971 174.3382 282.119 174.1942 282.1629C 174.0565 282.2004 173.9344 282.2662 173.828 282.3601C 173.7278 282.4477 173.6448 282.5573 173.5885 282.6888C 173.5322 282.8202 173.504 282.9673 173.504 283.1489C 173.504 283.3179 173.529 283.4587 173.5791 283.5902C 173.6355 283.7154 173.7059 283.8171 173.7998 283.9048C 173.8999 283.9862 174.0142 284.0535 174.1519 284.0973C 174.2896 284.1349 174.4477 284.1583 174.6167 284.1583zM174.6402 283.7639C 174.5275 283.7639 174.4258 283.7498 174.3256 283.7311C 174.2255 283.7123 174.1378 283.6763 174.0627 283.6325C 173.9876 283.5761 173.9281 283.5167 173.8843 283.4353C 173.8467 283.3539 173.8186 283.2537 173.8186 283.1348C 173.8186 283.0221 173.842 282.9188 173.8796 282.8437C 173.9172 282.7623 173.9735 282.6966 174.0486 282.6465C 174.1237 282.5901 174.2067 282.5479 174.3069 282.5291C 174.407 282.5041 174.5181 282.4915 174.6308 282.4915C 174.7435 282.4915 174.8562 282.4994 174.9501 282.5244C 175.0503 282.5432 175.1395 282.5714 175.2083 282.6277C 175.2835 282.6715 175.3492 282.7388 175.3868 282.8202C 175.4306 282.8953 175.4525 283.0002 175.4525 283.1254C 175.4525 283.2318 175.4353 283.3304 175.3914 283.4118C 175.3539 283.4869 175.3022 283.5573 175.2271 283.6137C 175.152 283.6638 175.069 283.7013 174.9689 283.7264C 174.875 283.7451 174.7592 283.7639 174.6402 283.7639z" stroke="none" fill="#000000" fill-rule="evenodd" /><path id="1110" transform="matrix(1 0 0 -1 0 792)" d="M175.1097 286.0979C 175.2162 286.0979 175.3101 286.0791 175.3914 286.0416C 175.4791 285.9978 175.5417 285.9414 175.598 285.8726C 175.6544 285.7974 175.7045 285.7145 175.7295 285.6143C 175.7545 285.5142 175.7718 285.403 175.7718 285.2903C 175.7718 285.2152 175.7655 285.1417 175.753 285.0791C 175.7405 285.0102 175.7295 284.9507 175.7107 284.9006C 175.6982 284.8443 175.6779 284.8021 175.6591 284.7645C 175.6403 284.7269 175.6262 284.7035 175.6074 284.6847C 175.5949 284.6659 175.573 284.6534 175.5417 284.6471C 175.5167 284.6408 175.4791 284.6377 175.429 284.6377C 175.404 284.6377 175.3774 284.6361 175.3586 284.6424C 175.3398 284.6424 175.3257 284.6455 175.3069 284.6518C 175.3007 284.6518 175.2897 284.6628 175.2835 284.6753C 175.2835 284.6753 175.2741 284.6847 175.2741 284.7035C 175.2741 284.716 175.2882 284.7363 175.3069 284.7739C 175.3257 284.8052 175.3539 284.8459 175.3727 284.896C 175.3977 284.946 175.4196 285.0008 175.4384 285.0697C 175.4634 285.1323 175.4713 285.2074 175.4713 285.295C 175.4713 285.3576 175.4713 285.4124 175.4525 285.4688C 175.44 285.5189 175.4165 285.5674 175.3914 285.6049C 175.3664 285.6425 175.332 285.6707 175.2882 285.6895C 175.2506 285.7082 175.1943 285.7223 175.1379 285.7223C 175.0816 285.7223 175.0299 285.7051 174.9924 285.6801C 174.9548 285.6425 174.9219 285.6081 174.8844 285.558C 174.8593 285.5079 174.8296 285.45 174.8046 285.3936C 174.7858 285.3311 174.7607 285.2684 174.7294 285.2058C 174.7106 285.137 174.6778 285.0744 174.6402 285.018C 174.6089 284.9554 174.5729 284.8975 174.5228 284.8537C 174.479 284.7974 174.4227 284.7629 174.3538 284.7316C 174.2912 284.7003 174.2083 284.6894 174.1144 284.6894C 174.0392 284.6894 173.9594 284.6988 173.8843 284.7363C 173.8092 284.7676 173.7434 284.8146 173.6871 284.8772C 173.6308 284.9335 173.5932 285.018 173.5556 285.1119C 173.5243 285.2058 173.504 285.3154 173.504 285.4406C 173.504 285.4969 173.5118 285.5486 173.5181 285.6049C 173.5306 285.6613 173.5431 285.7114 173.5556 285.7552C 173.5744 285.799 173.5838 285.8365 173.6026 285.8679C 173.6214 285.8992 173.6323 285.9242 173.6448 285.943C 173.6636 285.9555 173.6714 285.9649 173.6777 285.9712C 173.6902 285.9712 173.6996 285.979 173.7059 285.9852C 173.7247 285.9852 173.7356 285.9899 173.7481 285.9899C 173.7669 285.9899 173.7904 285.9946 173.8092 285.9946C 173.8405 285.9946 173.8608 285.9899 173.8796 285.9899C 173.8984 285.9899 173.914 285.9805 173.9265 285.9805C 173.9391 285.9743 173.95 285.9618 173.95 285.9618C 173.9563 285.9492 173.9594 285.9398 173.9594 285.9336C 173.9594 285.9148 173.9547 285.896 173.9359 285.8773C 173.9172 285.8459 173.8984 285.8115 173.8796 285.774C 173.8608 285.7301 173.842 285.6848 173.8233 285.6284C 173.8107 285.5721 173.7998 285.5048 173.7998 285.4359C 173.7998 285.367 173.8107 285.3107 173.8233 285.2669C 173.842 285.2168 173.8593 285.1761 173.8843 285.1448C 173.9093 285.1135 173.9406 285.0931 173.9782 285.0744C 174.0158 285.0556 174.058 285.0509 174.0956 285.0509C 174.1582 285.0509 174.2083 285.0603 174.2458 285.0978C 174.2896 285.1229 174.3225 285.1651 174.3538 285.2152C 174.3851 285.2653 174.4149 285.3154 174.4336 285.3842C 174.4587 285.4406 174.49 285.5079 174.5088 285.5768C 174.5401 285.6331 174.5667 285.702 174.598 285.7646C 174.6355 285.8272 174.6715 285.8835 174.7153 285.9336C 174.7654 285.9837 174.8171 286.0197 174.8797 286.051C 174.9485 286.0823 175.0221 286.0979 175.1097 286.0979z" stroke="none" fill="#000000" fill-rule="evenodd" /><path id="1111" transform="matrix(1 0 0 -1 0 792)" d="M175.1097 288.0187C 175.2162 288.0187 175.3101 287.9999 175.3914 287.9624C 175.4791 287.9186 175.5417 287.8622 175.598 287.7934C 175.6544 287.7182 175.7045 287.6353 175.7295 287.5351C 175.7545 287.435 175.7718 287.3239 175.7718 287.2112C 175.7718 287.136 175.7655 287.0625 175.753 286.9999C 175.7405 286.931 175.7295 286.8715 175.7107 286.8214C 175.6982 286.7651 175.6779 286.7228 175.6591 286.6853C 175.6403 286.6477 175.6262 286.6243 175.6074 286.6055C 175.5949 286.5867 175.573 286.5742 175.5417 286.5679C 175.5167 286.5616 175.4791 286.5585 175.429 286.5585C 175.404 286.5585 175.3774 286.5569 175.3586 286.5632C 175.3398 286.5632 175.3257 286.5663 175.3069 286.5726C 175.3007 286.5726 175.2897 286.5836 175.2835 286.5961C 175.2835 286.5961 175.2741 286.6055 175.2741 286.6243C 175.2741 286.6368 175.2882 286.6571 175.3069 286.6947C 175.3257 286.726 175.3539 286.7667 175.3727 286.8168C 175.3977 286.8669 175.4196 286.9216 175.4384 286.9905C 175.4634 287.0531 175.4713 287.1282 175.4713 287.2159C 175.4713 287.2784 175.4713 287.3332 175.4525 287.3896C 175.44 287.4397 175.4165 287.4882 175.3914 287.5257C 175.3664 287.5633 175.332 287.5915 175.2882 287.6103C 175.2506 287.629 175.1943 287.6431 175.1379 287.6431C 175.0816 287.6431 175.0299 287.6259 174.9924 287.6009C 174.9548 287.5633 174.9219 287.5289 174.8844 287.4788C 174.8593 287.4287 174.8296 287.3708 174.8046 287.3145C 174.7858 287.2519 174.7607 287.1892 174.7294 287.1266C 174.7106 287.0578 174.6778 286.9952 174.6402 286.9388C 174.6089 286.8762 174.5729 286.8183 174.5228 286.7745C 174.479 286.7182 174.4227 286.6837 174.3538 286.6524C 174.2912 286.6211 174.2083 286.6102 174.1144 286.6102C 174.0392 286.6102 173.9594 286.6196 173.8843 286.6571C 173.8092 286.6884 173.7434 286.7354 173.6871 286.798C 173.6308 286.8543 173.5932 286.9388 173.5556 287.0327C 173.5243 287.1266 173.504 287.2362 173.504 287.3614C 173.504 287.4178 173.5118 287.4694 173.5181 287.5257C 173.5306 287.5821 173.5431 287.6322 173.5556 287.676C 173.5744 287.7198 173.5838 287.7574 173.6026 287.7887C 173.6214 287.82 173.6323 287.845 173.6448 287.8638C 173.6636 287.8763 173.6714 287.8857 173.6777 287.892C 173.6902 287.892 173.6996 287.8998 173.7059 287.906C 173.7247 287.906 173.7356 287.9107 173.7481 287.9107C 173.7669 287.9107 173.7904 287.9154 173.8092 287.9154C 173.8405 287.9154 173.8608 287.9107 173.8796 287.9107C 173.8984 287.9107 173.914 287.9013 173.9265 287.9013C 173.9391 287.8951 173.95 287.8826 173.95 287.8826C 173.9563 287.8701 173.9594 287.8607 173.9594 287.8544C 173.9594 287.8356 173.9547 287.8168 173.9359 287.7981C 173.9172 287.7668 173.8984 287.7323 173.8796 287.6948C 173.8608 287.6509 173.842 287.6056 173.8233 287.5492C 173.8107 287.4929 173.7998 287.4256 173.7998 287.3567C 173.7998 287.2878 173.8107 287.2315 173.8233 287.1877C 173.842 287.1376 173.8593 287.0969 173.8843 287.0656C 173.9093 287.0343 173.9406 287.0139 173.9782 286.9952C 174.0158 286.9764 174.058 286.9717 174.0956 286.9717C 174.1582 286.9717 174.2083 286.9811 174.2458 287.0186C 174.2896 287.0437 174.3225 287.0859 174.3538 287.136C 174.3851 287.1861 174.4149 287.2362 174.4336 287.3051C 174.4587 287.3614 174.49 287.4287 174.5088 287.4976C 174.5401 287.5539 174.5667 287.6228 174.598 287.6854C 174.6355 287.748 174.6715 287.8043 174.7153 287.8544C 174.7654 287.9045 174.8171 287.9405 174.8797 287.9718C 174.9485 288.0031 175.0221 288.0187 175.1097 288.0187z" stroke="none" fill="#000000" fill-rule="evenodd" /><path id="1139" transform="matrix(1 0 0 -1 0 792)" d="M438.8647 273.0609C 438.9023 273.0735 438.9305 273.0797 438.9493 273.0797C 438.968 273.0797 438.9837 273.0719 438.9962 273.0656C 439.0088 273.0468 439.0088 273.0296 439.015 273.0046C 439.015 272.9733 439.0197 272.9357 439.0197 272.8919C 439.0197 272.8356 439.015 272.7996 439.015 272.7745C 439.015 272.7432 439.0056 272.726 439.0056 272.7135C 439.0056 272.6947 438.9947 272.6806 438.9821 272.6806C 438.9759 272.6681 438.968 272.6618 438.9493 272.6618L438.9493 272.6618L438.2262 272.4036L438.2262 272.4036L438.2262 271.1735L438.2262 271.1735L438.9399 270.9293C 438.9586 270.9231 438.9665 270.9168 438.9727 270.9105C 438.9915 270.9043 438.9947 270.8902 439.0009 270.8777C 439.0072 270.8589 439.0088 270.8417 439.015 270.8166C 439.015 270.7853 439.0197 270.7509 439.0197 270.7133C 439.0197 270.6632 439.015 270.6257 439.015 270.6006C 439.0088 270.5693 439.0041 270.5506 438.9915 270.5443C 438.9853 270.5255 438.9696 270.5255 438.9446 270.5255C 438.9258 270.5255 438.9023 270.5318 438.8647 270.5443L438.8647 270.5443L436.1087 271.5397C 436.0899 271.546 436.0789 271.5491 436.0664 271.5679C 436.0602 271.5741 436.0508 271.5913 436.0382 271.6101C 436.0382 271.6289 436.0289 271.6492 436.0289 271.6805C 436.0289 271.7119 436.0242 271.7478 436.0242 271.7979C 436.0242 271.8417 436.0289 271.884 436.0289 271.9153C 436.0289 271.9466 436.0382 271.9763 436.0382 271.9951C 436.0508 272.0139 436.0602 272.0296 436.0664 272.0421C 436.0789 272.0483 436.0899 272.0593 436.1087 272.0656zM436.4326 271.7838L436.4326 271.7838L436.4326 271.7838L437.9116 271.2721L437.9116 271.2721L437.9116 272.305z" stroke="none" fill="#000000" fill-rule="evenodd" /><path id="1140" transform="matrix(1 0 0 -1 0 792)" d="M438.63 275.1855C 438.6613 275.1855 438.6816 275.1855 438.7004 275.1855C 438.7192 275.1793 438.7349 275.1761 438.7474 275.1761C 438.7662 275.1699 438.774 275.162 438.7802 275.162C 438.7928 275.1558 438.8084 275.1432 438.8272 275.1245C 438.846 275.1057 438.8726 275.0697 438.8976 275.0259C 438.9289 274.9758 438.954 274.9273 438.9727 274.8709C 438.9978 274.8146 439.0103 274.752 439.0291 274.6831C 439.0416 274.6143 439.0479 274.5454 439.0479 274.4765C 439.0479 274.3263 439.0228 274.1948 438.9727 274.0822C 438.9289 273.9632 438.8554 273.8708 438.7615 273.7957C 438.6676 273.7144 438.5518 273.6549 438.414 273.6173C 438.2826 273.5735 438.1213 273.5563 437.9398 273.5563C 437.7395 273.5563 437.5689 273.5751 437.4186 273.6314C 437.2747 273.6752 437.1557 273.7457 437.0618 273.8333C 436.9679 273.9209 436.9006 274.0195 436.8505 274.1385C 436.813 274.2512 436.7848 274.3811 436.7848 274.5188C 436.7848 274.5814 436.791 274.6487 436.8036 274.7113C 436.8224 274.7676 436.8317 274.824 436.8505 274.8803C 436.8693 274.9367 436.8959 274.9774 436.921 275.0212C 436.9522 275.0587 436.9679 275.0916 436.9867 275.1104C 437.0055 275.1292 437.0211 275.1354 437.0336 275.1479C 437.0461 275.1479 437.0587 275.1605 437.0712 275.1667C 437.09 275.1667 437.0994 275.1699 437.1181 275.1761C 437.1369 275.1761 437.1635 275.1761 437.1886 275.1761C 437.2512 275.1761 437.2919 275.1699 437.3106 275.1573C 437.3357 275.1385 437.3482 275.1245 437.3482 275.1057C 437.3482 275.0807 437.3357 275.0509 437.3106 275.0259C 437.2919 274.9946 437.2637 274.957 437.2261 274.9132C 437.1948 274.8631 437.1667 274.8068 437.1416 274.7442C 437.1228 274.6815 437.1041 274.6017 437.1041 274.5141C 437.1041 274.3263 437.1776 274.1901 437.3153 274.0962C 437.4531 273.9961 437.6581 273.9507 437.921 273.9507C 438.0525 273.9507 438.1746 273.9632 438.2685 273.9883C 438.3749 274.007 438.4532 274.0446 438.522 274.1009C 438.5909 274.1447 438.641 274.2042 438.6722 274.2793C 438.7098 274.3482 438.7192 274.4296 438.7192 274.5235C 438.7192 274.6111 438.7083 274.6847 438.6769 274.7535C 438.6519 274.8162 438.6253 274.8709 438.5877 274.9273C 438.5564 274.9711 438.5236 275.0071 438.4985 275.0446C 438.4735 275.076 438.4563 275.1057 438.4563 275.1245C 438.4563 275.1307 438.4657 275.1401 438.4657 275.1526C 438.4719 275.1526 438.4798 275.1652 438.4985 275.1714C 438.5173 275.1714 438.5314 275.1808 438.5502 275.1808C 438.5752 275.1808 438.6049 275.1855 438.63 275.1855z" stroke="none" fill="#000000" fill-rule="evenodd" /><path id="1141" transform="matrix(1 0 0 -1 0 792)" d="M438.63 277.3571C 438.6613 277.3571 438.6816 277.3571 438.7004 277.3571C 438.7192 277.3508 438.7349 277.3477 438.7474 277.3477C 438.7662 277.3414 438.774 277.3336 438.7802 277.3336C 438.7928 277.3273 438.8084 277.3148 438.8272 277.296C 438.846 277.2772 438.8726 277.2412 438.8976 277.1974C 438.9289 277.1473 438.954 277.0988 438.9727 277.0425C 438.9978 276.9861 439.0103 276.9235 439.0291 276.8546C 439.0416 276.7858 439.0479 276.7169 439.0479 276.6481C 439.0479 276.4978 439.0228 276.3664 438.9727 276.2537C 438.9289 276.1347 438.8554 276.0424 438.7615 275.9673C 438.6676 275.8859 438.5518 275.8264 438.414 275.7888C 438.2826 275.745 438.1213 275.7278 437.9398 275.7278C 437.7395 275.7278 437.5689 275.7466 437.4186 275.8029C 437.2747 275.8467 437.1557 275.9172 437.0618 276.0048C 436.9679 276.0925 436.9006 276.1911 436.8505 276.31C 436.813 276.4227 436.7848 276.5526 436.7848 276.6903C 436.7848 276.7529 436.791 276.8202 436.8036 276.8828C 436.8224 276.9392 436.8317 276.9955 436.8505 277.0518C 436.8693 277.1082 436.8959 277.1489 436.921 277.1927C 436.9522 277.2303 436.9679 277.2632 436.9867 277.2819C 437.0055 277.3007 437.0211 277.3069 437.0336 277.3195C 437.0461 277.3195 437.0587 277.332 437.0712 277.3383C 437.09 277.3383 437.0994 277.3414 437.1181 277.3477C 437.1369 277.3477 437.1635 277.3477 437.1886 277.3477C 437.2512 277.3477 437.2919 277.3414 437.3106 277.3289C 437.3357 277.3101 437.3482 277.296 437.3482 277.2772C 437.3482 277.2522 437.3357 277.2224 437.3106 277.1974C 437.2919 277.1661 437.2637 277.1285 437.2261 277.0847C 437.1948 277.0346 437.1667 276.9783 437.1416 276.9157C 437.1228 276.8531 437.1041 276.7733 437.1041 276.6856C 437.1041 276.4978 437.1776 276.3617 437.3153 276.2678C 437.4531 276.1676 437.6581 276.1222 437.921 276.1222C 438.0525 276.1222 438.1746 276.1347 438.2685 276.1598C 438.3749 276.1786 438.4532 276.2161 438.522 276.2725C 438.5909 276.3163 438.641 276.3757 438.6722 276.4509C 438.7098 276.5197 438.7192 276.6011 438.7192 276.695C 438.7192 276.7827 438.7083 276.8562 438.6769 276.9251C 438.6519 276.9877 438.6253 277.0425 438.5877 277.0988C 438.5564 277.1426 438.5236 277.1786 438.4985 277.2162C 438.4735 277.2475 438.4563 277.2772 438.4563 277.296C 438.4563 277.3023 438.4657 277.3116 438.4657 277.3242C 438.4719 277.3242 438.4798 277.3367 438.4985 277.343C 438.5173 277.343 438.5314 277.3524 438.5502 277.3524C 438.5752 277.3524 438.6049 277.3571 438.63 277.3571z" stroke="none" fill="#000000" fill-rule="evenodd" /><path id="1142" transform="matrix(1 0 0 -1 0 792)" d="M438.9493 279.8103C 438.9618 279.8103 438.9774 279.8009 438.9774 279.8009C 438.99 279.7946 439.0009 279.7852 439.0009 279.7727C 439.0072 279.7539 439.0088 279.7399 439.015 279.7211C 439.015 279.696 439.0197 279.6679 439.0197 279.6366C 439.0197 279.599 439.015 279.5708 439.015 279.5521C 439.0088 279.527 439.0072 279.5129 439.0009 279.5004C 439.0009 279.4816 438.99 279.4722 438.9774 279.4722C 438.9774 279.466 438.9618 279.4675 438.9493 279.4675L438.9493 279.4675L438.6769 279.4675C 438.8084 279.3486 438.9023 279.2328 438.9586 279.1201C 439.0213 279.0012 439.0479 278.8806 439.0479 278.7679C 439.0479 278.6302 439.0213 278.5144 438.9774 278.4205C 438.9399 278.3266 438.8694 278.2515 438.7943 278.1951C 438.7192 278.1325 438.6237 278.0872 438.5173 278.0684C 438.4171 278.0433 438.2873 278.0308 438.137 278.0308L438.137 278.0308L436.8834 278.0308C 436.8771 278.0308 436.8615 278.0339 436.8552 278.0402C 436.849 278.0402 436.838 278.0496 436.8317 278.0684C 436.8255 278.0872 436.8177 278.1044 436.8177 278.1294C 436.8177 278.1482 436.813 278.1858 436.813 278.2233C 436.813 278.2546 436.8177 278.2875 436.8177 278.3125C 436.8177 278.3313 436.8255 278.3501 436.8317 278.3689C 436.838 278.3876 436.849 278.3955 436.8552 278.4017C 436.8615 278.4017 436.8771 278.4111 436.8834 278.4111L436.8834 278.4111L438.0854 278.4111C 438.2106 278.4111 438.3076 278.4205 438.3765 278.4393C 438.4516 278.4518 438.5142 278.4815 438.5643 278.5191C 438.6143 278.5504 438.6566 278.5989 438.6816 278.6553C 438.713 278.7116 438.7239 278.7726 438.7239 278.8478C 438.7239 278.9417 438.6957 279.0356 438.6206 279.1295C 438.558 279.2234 438.4563 279.3235 438.3248 279.43L438.3248 279.43L436.8834 279.43C 436.8771 279.43 436.8615 279.4331 436.8552 279.4394C 436.849 279.4394 436.838 279.4488 436.8317 279.4675C 436.8255 279.4863 436.8177 279.5035 436.8177 279.5286C 436.8177 279.5474 436.813 279.5786 436.813 279.6225C 436.813 279.6538 436.8177 279.6866 436.8177 279.7117C 436.8177 279.7305 436.8255 279.7492 436.8317 279.768C 436.838 279.7805 436.849 279.7884 436.8552 279.8009C 436.8615 279.8009 436.8771 279.8103 436.8834 279.8103z" stroke="none" fill="#000000" fill-rule="evenodd" /><path id="1143" transform="matrix(1 0 0 -1 0 792)" d="M437.0195 281.902C 437.0571 281.902 437.0853 281.902 437.1041 281.902C 437.1291 281.8958 437.1432 281.8926 437.1557 281.8926C 437.1745 281.8864 437.1823 281.8738 437.1886 281.8738C 437.1948 281.8613 437.198 281.8519 437.198 281.8456C 437.198 281.8269 437.1948 281.8175 437.1886 281.7987C 437.1823 281.7799 437.1776 281.7611 437.1651 281.7424C 437.1651 281.7173 437.1526 281.6923 437.1463 281.6672C 437.1463 281.6359 437.1369 281.6093 437.1369 281.578C 437.1369 281.5405 437.1479 281.5029 437.1604 281.4653C 437.1792 281.4278 437.2042 281.3855 437.2355 281.348C 437.2731 281.3104 437.32 281.265 437.3764 281.2212C 437.4327 281.1774 437.511 281.1257 437.5923 281.0757L437.5923 281.0757L438.9493 281.0757C 438.9618 281.0757 438.9774 281.0663 438.9774 281.0663C 438.99 281.06 439.0009 281.0506 439.0009 281.0381C 439.0072 281.0193 439.0088 281.0021 439.015 280.9771C 439.015 280.952 439.0197 280.9207 439.0197 280.8831C 439.0197 280.8456 439.015 280.8127 439.015 280.7939C 439.0088 280.7626 439.0072 280.7454 439.0009 280.7329C 439.0009 280.7141 438.99 280.7047 438.9774 280.7047C 438.9774 280.6985 438.9618 280.6953 438.9493 280.6953L438.9493 280.6953L436.8834 280.6953C 436.8771 280.6953 436.8615 280.6938 436.8552 280.7C 436.849 280.7 436.838 280.7094 436.8317 280.7282C 436.8255 280.7407 436.8177 280.7595 436.8177 280.7845C 436.8177 280.8033 436.813 280.8315 436.813 280.869C 436.813 280.9004 436.8177 280.9285 436.8177 280.9536C 436.8177 280.9724 436.8255 280.9864 436.8317 281.0052C 436.838 281.0115 436.849 281.0224 436.8552 281.0287C 436.8615 281.0349 436.8771 281.0381 436.8834 281.0381L436.8834 281.0381L437.1839 281.0381C 437.1088 281.0944 437.0383 281.1414 436.982 281.1977C 436.9319 281.2478 436.8912 281.2947 436.8599 281.3386C 436.8349 281.3761 436.8114 281.4262 436.7989 281.47C 436.7863 281.5076 436.7801 281.5577 436.7801 281.6015C 436.7801 281.6203 436.7848 281.6406 436.7848 281.6719C 436.7848 281.6907 436.7942 281.7158 436.7942 281.7471C 436.8067 281.7721 436.8114 281.7971 436.8177 281.8222C 436.8239 281.841 436.8349 281.8566 436.8411 281.8691C 436.8474 281.8754 436.8599 281.8817 436.8599 281.8879C 436.8724 281.8879 436.8818 281.8911 436.8881 281.8973C 436.9006 281.8973 436.9163 281.902 436.935 281.902C 436.9538 281.902 436.982 281.902 437.0195 281.902z" stroke="none" fill="#000000" fill-rule="evenodd" /><path id="1144" transform="matrix(1 0 0 -1 0 792)" d="M438.9493 283.989C 438.968 283.989 438.9853 283.9828 438.9915 283.9702C 439.0041 283.9577 439.0088 283.9374 439.015 283.9186C 439.015 283.8998 439.0197 283.8622 439.0197 283.8247C 439.0197 283.7871 439.015 283.7496 439.015 283.7308C 439.0088 283.7057 439.0041 283.6854 438.9915 283.6791C 438.9853 283.6666 438.968 283.665 438.9493 283.665L438.9493 283.665L438.7427 283.665C 438.8428 283.5711 438.918 283.4725 438.968 283.3599C 439.0181 283.2472 439.0479 283.1329 439.0479 283.0077C 439.0479 282.895 439.0307 282.798 439.0056 282.7166C 438.9806 282.6227 438.9399 282.5476 438.8835 282.4912C 438.8272 282.4286 438.7615 282.377 438.6863 282.3457C 438.6112 282.3081 438.5189 282.294 438.4187 282.294C 438.306 282.294 438.2059 282.3144 438.1182 282.3645C 438.0306 282.4083 437.9586 282.4772 437.9023 282.5711C 437.8459 282.6587 437.8068 282.7636 437.7755 282.895C 437.7504 283.0202 437.7332 283.1642 437.7332 283.327L437.7332 283.327L437.7332 283.6134L437.7332 283.6134L437.5736 283.6134C 437.4984 283.6134 437.4249 283.6024 437.3623 283.5899C 437.3059 283.5711 437.2512 283.543 437.2074 283.5054C 437.1698 283.4678 437.1369 283.4162 437.1181 283.3599C 437.0994 283.3035 437.0853 283.2253 437.0853 283.1439C 437.0853 283.05 437.0994 282.9655 437.1181 282.8904C 437.1432 282.8152 437.1682 282.7542 437.1933 282.6978C 437.2246 282.6415 437.2496 282.5945 437.2684 282.557C 437.2934 282.5194 437.3013 282.4912 437.3013 282.4725C 437.3013 282.4537 437.2981 282.4459 437.2919 282.4396C 437.2919 282.4271 437.2825 282.4224 437.2637 282.4161C 437.2574 282.4099 437.2355 282.402 437.2167 282.402C 437.198 282.3958 437.1808 282.3973 437.1557 282.3973C 437.1181 282.3973 437.0853 282.4005 437.0665 282.4067C 437.0477 282.4067 437.0258 282.4255 437.0008 282.4443C 436.982 282.4631 436.9616 282.4959 436.9303 282.5523C 436.9116 282.5961 436.8787 282.6571 436.8599 282.726C 436.8411 282.7886 436.8224 282.8606 436.8036 282.942C 436.791 283.0171 436.7801 283.0954 436.7801 283.1768C 436.7801 283.3207 436.8004 283.4459 436.8317 283.5524C 436.8693 283.6525 436.9147 283.737 436.9773 283.8059C 437.0461 283.8685 437.1275 283.9155 437.2214 283.9467C 437.3153 283.9718 437.428 283.989 437.5595 283.989zM438.0055 283.6134L438.0055 283.2894C 438.0055 283.183 438.0149 283.0969 438.0337 283.0218C 438.0525 282.9404 438.0775 282.8794 438.1088 282.8293C 438.1464 282.7729 438.1855 282.7401 438.2356 282.7213C 438.2857 282.6963 438.3436 282.6837 438.3999 282.6837C 438.5126 282.6837 438.5956 282.7119 438.6582 282.787C 438.7208 282.8496 438.7521 282.9435 438.7521 283.0688C 438.7521 283.1689 438.7333 283.2581 438.6769 283.3458C 438.6269 283.4272 438.5549 283.5195 438.4422 283.6134z" stroke="none" fill="#000000" fill-rule="evenodd" /><path id="1145" transform="matrix(1 0 0 -1 0 792)" d="M438.63 286.3531C 438.6613 286.3531 438.6816 286.3531 438.7004 286.3531C 438.7192 286.3468 438.7349 286.3437 438.7474 286.3437C 438.7662 286.3374 438.774 286.3296 438.7802 286.3296C 438.7928 286.3233 438.8084 286.3108 438.8272 286.292C 438.846 286.2732 438.8726 286.2372 438.8976 286.1934C 438.9289 286.1433 438.954 286.0948 438.9727 286.0385C 438.9978 285.9821 439.0103 285.9195 439.0291 285.8506C 439.0416 285.7818 439.0479 285.7129 439.0479 285.6441C 439.0479 285.4938 439.0228 285.3624 438.9727 285.2497C 438.9289 285.1307 438.8554 285.0384 438.7615 284.9633C 438.6676 284.8819 438.5518 284.8224 438.414 284.7849C 438.2826 284.741 438.1213 284.7238 437.9398 284.7238C 437.7395 284.7238 437.5689 284.7426 437.4186 284.799C 437.2747 284.8428 437.1557 284.9132 437.0618 285.0008C 436.9679 285.0885 436.9006 285.1871 436.8505 285.306C 436.813 285.4187 436.7848 285.5486 436.7848 285.6863C 436.7848 285.7489 436.791 285.8162 436.8036 285.8788C 436.8224 285.9352 436.8317 285.9915 436.8505 286.0479C 436.8693 286.1042 436.8959 286.1449 436.921 286.1887C 436.9522 286.2263 436.9679 286.2592 436.9867 286.2779C 437.0055 286.2967 437.0211 286.303 437.0336 286.3155C 437.0461 286.3155 437.0587 286.328 437.0712 286.3343C 437.09 286.3343 437.0994 286.3374 437.1181 286.3437C 437.1369 286.3437 437.1635 286.3437 437.1886 286.3437C 437.2512 286.3437 437.2919 286.3374 437.3106 286.3249C 437.3357 286.3061 437.3482 286.292 437.3482 286.2732C 437.3482 286.2482 437.3357 286.2184 437.3106 286.1934C 437.2919 286.1621 437.2637 286.1245 437.2261 286.0807C 437.1948 286.0306 437.1667 285.9743 437.1416 285.9117C 437.1228 285.8491 437.1041 285.7693 437.1041 285.6816C 437.1041 285.4938 437.1776 285.3577 437.3153 285.2638C 437.4531 285.1636 437.6581 285.1182 437.921 285.1182C 438.0525 285.1182 438.1746 285.1307 438.2685 285.1558C 438.3749 285.1746 438.4532 285.2121 438.522 285.2685C 438.5909 285.3123 438.641 285.3718 438.6722 285.4469C 438.7098 285.5157 438.7192 285.5971 438.7192 285.691C 438.7192 285.7787 438.7083 285.8522 438.6769 285.9211C 438.6519 285.9837 438.6253 286.0385 438.5877 286.0948C 438.5564 286.1386 438.5236 286.1746 438.4985 286.2122C 438.4735 286.2435 438.4563 286.2732 438.4563 286.292C 438.4563 286.2983 438.4657 286.3076 438.4657 286.3202C 438.4719 286.3202 438.4798 286.3327 438.4985 286.339C 438.5173 286.339 438.5314 286.3484 438.5502 286.3484C 438.5752 286.3484 438.6049 286.3531 438.63 286.3531z" stroke="none" fill="#000000" fill-rule="evenodd" /><path id="1146" transform="matrix(1 0 0 -1 0 792)" d="M439.0056 287.9799L439.7662 287.7029C 439.785 287.6904 439.8038 287.67 439.8226 287.6325C 439.8351 287.5949 439.8414 287.5386 439.8414 287.4635C 439.8414 287.4259 439.8367 287.3883 439.8367 287.3696C 439.8304 287.3383 439.8242 287.3195 439.8179 287.3132C 439.8054 287.2944 439.7928 287.2897 439.7803 287.2897C 439.7615 287.2897 439.7428 287.2866 439.724 287.2991L439.724 287.2991L439.0056 287.5855C 439.0056 287.5668 438.9962 287.5542 438.9774 287.548C 438.9649 287.5292 438.9493 287.5198 438.9305 287.5198L438.9305 287.5198L436.9585 286.7874C 436.9272 286.7686 436.9022 286.7686 436.8834 286.7686C 436.8646 286.7686 436.8536 286.7686 436.8411 286.7874C 436.8349 286.7936 436.8239 286.8124 436.8177 286.8437C 436.8177 286.8687 436.813 286.9063 436.813 286.9564C 436.813 286.994 436.8177 287.0331 436.8177 287.0644C 436.8177 287.0832 436.8271 287.1066 436.8271 287.1254C 436.8396 287.1379 436.849 287.1458 436.8552 287.1583C 436.8677 287.1583 436.8834 287.1692 436.9022 287.1818L436.9022 287.1818L438.5596 287.7686L438.5596 287.7686L438.5596 287.7733L438.5596 287.7733L436.8928 288.3462C 436.8677 288.3462 436.849 288.3603 436.8364 288.379C 436.8302 288.3853 436.8239 288.4103 436.8177 288.4354C 436.8177 288.4604 436.813 288.498 436.813 288.5481C 436.813 288.5856 436.8177 288.6263 436.8177 288.6513C 436.8239 288.6764 436.8349 288.6999 436.8411 288.7124C 436.8536 288.7249 436.8646 288.7359 436.8834 288.7359C 436.9022 288.7359 436.9288 288.728 436.9538 288.7218z" stroke="none" fill="#000000" fill-rule="evenodd" /><path id="1148" transform="matrix(1 0 0 -1 0 792)" d="M435.8457 291.3839C 436.1525 291.2337 436.4702 291.1288 436.7895 291.06C 437.115 290.9849 437.4406 290.952 437.7661 290.952C 438.0979 290.952 438.4234 290.9849 438.7427 291.06C 439.0682 291.1351 439.3781 291.2353 439.6911 291.3793C 439.7099 291.3793 439.7193 291.3886 439.7381 291.3886C 439.7506 291.3886 439.7584 291.3871 439.7709 291.3746C 439.7772 291.362 439.7834 291.3464 439.7897 291.3276C 439.7897 291.3026 439.7944 291.276 439.7944 291.2384C 439.7944 291.2071 439.7944 291.1821 439.7944 291.1633C 439.7881 291.1445 439.785 291.1241 439.785 291.1116C 439.7787 291.0929 439.7662 291.085 439.7662 291.0788C 439.76 291.0663 439.7475 291.0553 439.7475 291.0553C 439.5909 290.9739 439.4297 290.8957 439.2733 290.8393C 439.1105 290.7767 438.954 290.7172 438.7849 290.6797C 438.6222 290.6359 438.4563 290.6046 438.2873 290.5858C 438.1182 290.5607 437.9461 290.5529 437.7708 290.5529C 437.6017 290.5529 437.4327 290.5654 437.2637 290.5905C 437.0947 290.6093 436.9303 290.6452 436.7613 290.6891C 436.5985 290.7266 436.4358 290.7861 436.273 290.8487C 436.1165 290.905 435.9569 290.9786 435.7941 291.06C 435.7941 291.06 435.7863 291.0616 435.78 291.0741C 435.78 291.0741 435.7722 291.0835 435.7659 291.1022C 435.7659 291.1085 435.7565 291.1304 435.7565 291.1492C 435.7565 291.168 435.7518 291.1961 435.7518 291.2337C 435.7518 291.2713 435.7565 291.2994 435.7565 291.3182C 435.7628 291.337 435.7753 291.3511 435.7753 291.3699C 435.7878 291.3761 435.7957 291.3886 435.8082 291.3886C 435.8207 291.3886 435.8332 291.3839 435.8457 291.3839z" stroke="none" fill="#000000" fill-rule="evenodd" /><path id="1149" transform="matrix(1 0 0 -1 0 792)" d="M436.7707 293.2972C 436.8896 293.2972 437.0008 293.2785 437.0947 293.2597C 437.1886 293.2284 437.27 293.194 437.3388 293.1376C 437.4077 293.0813 437.4609 293.0171 437.4984 292.9357C 437.536 292.8543 437.5548 292.7557 437.5548 292.6493C 437.5548 292.5366 437.5407 292.438 437.5031 292.3629C 437.4656 292.2815 437.4233 292.2158 437.3482 292.1657C 437.2856 292.1156 437.2027 292.0765 437.1088 292.0577C 437.0149 292.0327 436.9053 292.0201 436.7801 292.0201C 436.6737 292.0201 436.5704 292.0327 436.4702 292.0577C 436.3763 292.0765 436.3012 292.1187 436.226 292.1751C 436.1635 292.2252 436.104 292.2909 436.0664 292.3723C 436.0289 292.4537 436.0054 292.5507 436.0054 292.6634C 436.0054 292.7823 436.0289 292.8872 436.0664 292.9686C 436.1102 293.0437 436.1682 293.1094 436.2307 293.1658C 436.3059 293.2096 436.3873 293.244 436.4749 293.2691C 436.5688 293.2879 436.6705 293.2972 436.7707 293.2972zM436.7848 292.978C 436.7034 292.978 436.6283 292.9655 436.5594 292.9592C 436.4905 292.9404 436.4405 292.9216 436.3904 292.9029C 436.3528 292.8716 436.3168 292.8418 436.2918 292.8043C 436.273 292.7604 436.2589 292.7104 436.2589 292.654C 436.2589 292.5977 436.273 292.5507 436.2918 292.5132C 436.3106 292.4756 436.3481 292.438 436.3857 292.4193C 436.4295 292.3879 436.489 292.3692 436.5453 292.3629C 436.6142 292.3441 436.683 292.3441 436.7707 292.3441C 436.8771 292.3441 436.9601 292.3441 437.0289 292.3629C 437.1041 292.3817 437.1557 292.3973 437.1933 292.4286C 437.2308 292.4474 437.259 292.4897 437.2778 292.5272C 437.2966 292.5648 437.3013 292.6118 437.3013 292.6681C 437.3013 292.7244 437.2934 292.7745 437.2684 292.8183C 437.2496 292.8559 437.2152 292.8872 437.1651 292.9122C 437.1213 292.931 437.0696 292.9467 437.0008 292.9592C 436.9444 292.9717 436.8662 292.978 436.7848 292.978zM438.2544 295.0439C 438.3733 295.0439 438.4844 295.0251 438.5783 295.0063C 438.6722 294.975 438.7536 294.9406 438.8225 294.8842C 438.8914 294.8279 438.9446 294.7637 438.9821 294.6823C 439.0197 294.601 439.0385 294.5023 439.0385 294.3959C 439.0385 294.2832 439.0181 294.1846 438.9868 294.1095C 438.9493 294.0281 438.907 293.9624 438.8319 293.9123C 438.7693 293.8622 438.6863 293.8231 438.5924 293.8043C 438.4985 293.7793 438.389 293.7668 438.2638 293.7668C 438.1573 293.7668 438.054 293.7793 437.9539 293.8043C 437.86 293.8231 437.7849 293.8654 437.7097 293.9217C 437.6471 293.9718 437.5877 294.0375 437.5501 294.1189C 437.5125 294.2003 437.4891 294.2973 437.4891 294.41C 437.4891 294.529 437.5125 294.6338 437.5501 294.7152C 437.5939 294.7903 437.6518 294.856 437.7144 294.9124C 437.7896 294.9562 437.8709 294.9907 437.9586 295.0157C 438.0525 295.0345 438.1542 295.0439 438.2544 295.0439zM438.2685 294.7246C 438.1871 294.7246 438.112 294.7121 438.0431 294.7058C 437.9742 294.687 437.9242 294.6682 437.8741 294.6495C 437.8365 294.6182 437.8005 294.5884 437.7755 294.5509C 437.7567 294.507 437.7426 294.457 437.7426 294.4006C 437.7426 294.3443 437.7567 294.2973 437.7755 294.2598C 437.7943 294.2222 437.8318 294.1846 437.8694 294.1659C 437.9132 294.1346 437.9727 294.1158 438.029 294.1095C 438.0979 294.0907 438.1667 294.0907 438.2544 294.0907C 438.3608 294.0907 438.4438 294.0907 438.5126 294.1095C 438.5877 294.1283 438.6394 294.144 438.6769 294.1753C 438.7145 294.194 438.7427 294.2363 438.7615 294.2739C 438.7802 294.3114 438.7849 294.3584 438.7849 294.4147C 438.7849 294.471 438.7771 294.5211 438.7521 294.5649C 438.7333 294.6025 438.6989 294.6338 438.6488 294.6588C 438.6049 294.6776 438.5533 294.6933 438.4844 294.7058C 438.4281 294.7183 438.3499 294.7246 438.2685 294.7246zM439.0244 292.654C 439.0369 292.6415 439.0447 292.6321 439.0573 292.6258C 439.0573 292.6133 439.0698 292.6008 439.076 292.5883C 439.076 292.5695 439.0854 292.5507 439.0854 292.5319C 439.0854 292.5069 439.0901 292.4834 439.0901 292.4521C 439.0901 292.4146 439.0807 292.3911 439.0807 292.3723C 439.0745 292.3535 439.0635 292.33 439.0573 292.33C 439.0447 292.3175 439.0322 292.3144 439.0197 292.3206C 439.0009 292.3206 438.9915 292.3269 438.9727 292.3394L438.9727 292.3394L436.0148 294.4053C 436.0023 294.4053 435.9944 294.4147 435.9819 294.4335C 435.9756 294.4398 435.9694 294.4523 435.9631 294.471C 435.9631 294.4898 435.9537 294.5023 435.9537 294.5274C 435.9537 294.5462 435.949 294.5696 435.949 294.6072C 435.949 294.6385 435.9584 294.662 435.9584 294.687C 435.9647 294.7058 435.9756 294.7168 435.9819 294.7293C 435.9944 294.7355 436.007 294.7387 436.0195 294.7387C 436.0382 294.7387 436.0539 294.7262 436.0664 294.7199z" stroke="none" fill="#000000" fill-rule="evenodd" /><path id="1150" transform="matrix(1 0 0 -1 0 792)" d="M437.7708 296.5158C 437.9461 296.5158 438.1182 296.5017 438.2873 296.4829C 438.4563 296.4642 438.6222 296.4266 438.7849 296.389C 438.954 296.3452 439.1105 296.2857 439.2733 296.2294C 439.4297 296.1668 439.5909 296.0948 439.7475 296.0134C 439.7475 296.0072 439.76 296.0009 439.7662 295.9946C 439.7662 295.9821 439.7787 295.9696 439.785 295.9571C 439.785 295.9383 439.7881 295.9242 439.7944 295.9054C 439.7944 295.8867 439.7944 295.86 439.7944 295.835C 439.7944 295.7975 439.7897 295.7599 439.7897 295.7411C 439.7834 295.7161 439.7772 295.7004 439.7709 295.6942C 439.7584 295.6816 439.7506 295.6801 439.7381 295.6801C 439.7193 295.6801 439.7099 295.6816 439.6911 295.6942C 439.3781 295.8319 439.0682 295.9383 438.7427 296.0134C 438.4234 296.0823 438.0979 296.1214 437.7661 296.1214C 437.4406 296.1214 437.115 296.0823 436.7895 296.0134C 436.4702 295.9383 436.1525 295.8272 435.8457 295.6895C 435.8332 295.6769 435.8207 295.6801 435.8082 295.6801C 435.7957 295.6801 435.7878 295.6848 435.7753 295.7036C 435.7753 295.7098 435.7628 295.7317 435.7565 295.7505C 435.7565 295.7693 435.7518 295.7975 435.7518 295.835C 435.7518 295.8663 435.7565 295.8945 435.7565 295.9195C 435.7565 295.9383 435.7659 295.9524 435.7659 295.9712C 435.7722 295.9774 435.78 295.9868 435.78 295.9993C 435.7863 295.9993 435.7941 296.0072 435.7941 296.0134C 436.1134 296.1637 436.4358 296.2857 436.7613 296.3796C 437.0931 296.4673 437.4327 296.5158 437.7708 296.5158z" stroke="none" fill="#000000" fill-rule="evenodd" /></g></g></svg>