<svg xmlns="http://www.w3.org/2000/svg" xmlns:xlink="http://www.w3.org/1999/xlink" id="body_88" preserveAspectRatio="xMinYMin meet" viewBox="0 0 816 1056"><defs><clipPath id="1"><path id="" clip-rule="evenodd" transform="matrix(1 0 0 1 0 0)" d="M0 792L0 0L0 0L612 0L612 0L612 792L612 792L0 792z" /></clipPath></defs><g transform="matrix(1.333333 0 0 1.333333 0 0)"><g clip-path="url(#1)"><path id="1575" transform="matrix(1 0 0 -1 0 792)" d="M108.092 295.42L108.092 268.57" stroke="#000000" stroke-width="0.75" stroke-linecap="square" fill="none" /><path id="1576" transform="matrix(1 0 0 -1 0 792)" d="M108.092 295.42L132.332 295.42L132.332 295.42L132.332 268.57" stroke="#000000" stroke-width="0.75" stroke-linecap="square" fill="none" /><path id="1577" transform="matrix(1 0 0 -1 0 792)" d="M108.092 268.57L132.332 268.57" stroke="#000000" stroke-width="0.75" stroke-linecap="square" fill="none" /><path id="1582" transform="matrix(1 0 0 -1 0 792)" d="M108.092 295.42L108.092 269.32" stroke="#000000" stroke-width="0.75" stroke-linecap="square" fill="none" /><path id="1583" transform="matrix(1 0 0 -1 0 792)" d="M108.092 295.42L131.582 295.42" stroke="#000000" stroke-width="0.75" stroke-linecap="square" fill="none" /><path id="1584" transform="matrix(1 0 0 -1 0 792)" d="M132.332 295.42L132.332 268.57" stroke="#000000" stroke-width="0.75" stroke-linecap="square" fill="none" /><path id="1585" transform="matrix(1 0 0 -1 0 792)" d="M132.332 295.42L170.081 295.42L170.081 295.42L170.081 268.57" stroke="#000000" stroke-width="0.75" stroke-linecap="square" fill="none" /><path id="1586" transform="matrix(1 0 0 -1 0 792)" d="M132.332 268.57L170.081 268.57" stroke="#000000" stroke-width="0.75" stroke-linecap="square" fill="none" /><path id="1594" transform="matrix(1 0 0 -1 0 792)" d="M133.082 295.42L169.331 295.42" stroke="#000000" stroke-width="0.75" stroke-linecap="square" fill="none" /><path id="1595" transform="matrix(1 0 0 -1 0 792)" d="M170.081 295.42L170.081 268.57" stroke="#000000" stroke-width="0.75" stroke-linecap="square" fill="none" /><path id="1596" transform="matrix(1 0 0 -1 0 792)" d="M170.081 295.42L224.898 295.42L224.898 295.42L224.898 268.57" stroke="#000000" stroke-width="0.75" stroke-linecap="square" fill="none" /><path id="1597" transform="matrix(1 0 0 -1 0 792)" d="M170.081 268.57L224.898 268.57" stroke="#000000" stroke-width="0.75" stroke-linecap="square" fill="none" /><path id="1616" transform="matrix(1 0 0 -1 0 792)" d="M170.831 295.42L224.148 295.42" stroke="#000000" stroke-width="0.75" stroke-linecap="square" fill="none" /><path id="1617" transform="matrix(1 0 0 -1 0 792)" d="M224.898 295.42L224.898 268.57" stroke="#000000" stroke-width="0.75" stroke-linecap="square" fill="none" /><path id="1618" transform="matrix(1 0 0 -1 0 792)" d="M224.898 295.42L303.477 295.42L303.477 295.42L303.477 268.57" stroke="#000000" stroke-width="0.75" stroke-linecap="square" fill="none" /><path id="1619" transform="matrix(1 0 0 -1 0 792)" d="M224.898 268.57L303.477 268.57" stroke="#000000" stroke-width="0.75" stroke-linecap="square" fill="none" /><path id="1636" transform="matrix(1 0 0 -1 0 792)" d="M225.648 295.42L302.727 295.42" stroke="#000000" stroke-width="0.75" stroke-linecap="square" fill="none" /><path id="1637" transform="matrix(1 0 0 -1 0 792)" d="M303.477 295.42L303.477 268.57" stroke="#000000" stroke-width="0.75" stroke-linecap="square" fill="none" /><path id="1638" transform="matrix(1 0 0 -1 0 792)" d="M303.477 295.42L382.915 295.42L382.915 295.42L382.915 268.57" stroke="#000000" stroke-width="0.75" stroke-linecap="square" fill="none" /><path id="1639" transform="matrix(1 0 0 -1 0 792)" d="M303.477 268.57L382.915 268.57" stroke="#000000" stroke-width="0.75" stroke-linecap="square" fill="none" /><path id="1654" transform="matrix(1 0 0 -1 0 792)" d="M304.227 295.42L382.165 295.42" stroke="#000000" stroke-width="0.75" stroke-linecap="square" fill="none" /><path id="1655" transform="matrix(1 0 0 -1 0 792)" d="M382.915 295.42L382.915 268.57" stroke="#000000" stroke-width="0.75" stroke-linecap="square" fill="none" /><path id="1656" transform="matrix(1 0 0 -1 0 792)" d="M382.915 295.42L445.968 295.42L445.968 295.42L445.968 268.57" stroke="#000000" stroke-width="0.75" stroke-linecap="square" fill="none" /><path id="1657" transform="matrix(1 0 0 -1 0 792)" d="M382.915 268.57L445.968 268.57" stroke="#000000" stroke-width="0.75" stroke-linecap="square" fill="none" /><path id="1674" transform="matrix(1 0 0 -1 0 792)" d="M383.665 295.42L445.218 295.42" stroke="#000000" stroke-width="0.75" stroke-linecap="square" fill="none" /><path id="1675" transform="matrix(1 0 0 -1 0 792)" d="M445.968 295.42L445.968 268.57" stroke="#000000" stroke-width="0.75" stroke-linecap="square" fill="none" /><path id="1676" transform="matrix(1 0 0 -1 0 792)" d="M445.968 295.42L503.908 295.42L503.908 295.42L503.908 268.57" stroke="#000000" stroke-width="0.75" stroke-linecap="square" fill="none" /><path id="1677" transform="matrix(1 0 0 -1 0 792)" d="M445.968 268.57L503.908 268.57" stroke="#000000" stroke-width="0.75" stroke-linecap="square" fill="none" /><path id="1687" transform="matrix(1 0 0 -1 0 792)" d="M446.718 295.42L503.908 295.42L503.908 295.42L503.908 269.32" stroke="#000000" stroke-width="0.75" stroke-linecap="square" fill="none" /><path id="1688" transform="matrix(1 0 0 -1 0 792)" d="M108.092 268.57L108.092 209.82" stroke="#000000" stroke-width="0.75" stroke-linecap="square" fill="none" /><path id="1689" transform="matrix(1 0 0 -1 0 792)" d="M108.092 268.57L132.332 268.57L132.332 268.57L132.332 209.82" stroke="#000000" stroke-width="0.75" stroke-linecap="square" fill="none" /><path id="1690" transform="matrix(1 0 0 -1 0 792)" d="M108.092 209.82L132.332 209.82" stroke="#000000" stroke-width="0.75" stroke-linecap="square" fill="none" /><path id="1695" transform="matrix(1 0 0 -1 0 792)" d="M108.092 267.82L108.092 210.57" stroke="#000000" stroke-width="0.75" stroke-linecap="square" fill="none" /><path id="1696" transform="matrix(1 0 0 -1 0 792)" d="M132.332 268.57L132.332 209.82" stroke="#000000" stroke-width="0.75" stroke-linecap="square" fill="none" /><path id="1697" transform="matrix(1 0 0 -1 0 792)" d="M132.332 268.57L170.081 268.57L170.081 268.57L170.081 209.82" stroke="#000000" stroke-width="0.75" stroke-linecap="square" fill="none" /><path id="1698" transform="matrix(1 0 0 -1 0 792)" d="M132.332 209.82L170.081 209.82" stroke="#000000" stroke-width="0.75" stroke-linecap="square" fill="none" /><path id="1704" transform="matrix(1 0 0 -1 0 792)" d="M170.081 268.57L170.081 209.82" stroke="#000000" stroke-width="0.75" stroke-linecap="square" fill="none" /><path id="1705" transform="matrix(1 0 0 -1 0 792)" d="M170.081 268.57L224.898 268.57L224.898 268.57L224.898 209.82" stroke="#000000" stroke-width="0.75" stroke-linecap="square" fill="none" /><path id="1706" transform="matrix(1 0 0 -1 0 792)" d="M170.081 209.82L224.898 209.82" stroke="#000000" stroke-width="0.75" stroke-linecap="square" fill="none" /><path id="1732" transform="matrix(1 0 0 -1 0 792)" d="M224.898 268.57L224.898 209.82" stroke="#000000" stroke-width="0.75" stroke-linecap="square" fill="none" /><path id="1733" transform="matrix(1 0 0 -1 0 792)" d="M224.898 268.57L303.477 268.57L303.477 268.57L303.477 209.82" stroke="#000000" stroke-width="0.75" stroke-linecap="square" fill="none" /><path id="1734" transform="matrix(1 0 0 -1 0 792)" d="M224.898 209.82L303.477 209.82" stroke="#000000" stroke-width="0.75" stroke-linecap="square" fill="none" /><path id="1758" transform="matrix(1 0 0 -1 0 792)" d="M303.477 268.57L303.477 209.82" stroke="#000000" stroke-width="0.75" stroke-linecap="square" fill="none" /><path id="1759" transform="matrix(1 0 0 -1 0 792)" d="M303.477 268.57L382.915 268.57L382.915 268.57L382.915 209.82" stroke="#000000" stroke-width="0.75" stroke-linecap="square" fill="none" /><path id="1760" transform="matrix(1 0 0 -1 0 792)" d="M303.477 209.82L382.915 209.82" stroke="#000000" stroke-width="0.75" stroke-linecap="square" fill="none" /><path id="1789" transform="matrix(1 0 0 -1 0 792)" d="M382.915 268.57L382.915 209.82" stroke="#000000" stroke-width="0.75" stroke-linecap="square" fill="none" /><path id="1790" transform="matrix(1 0 0 -1 0 792)" d="M382.915 268.57L445.968 268.57L445.968 268.57L445.968 209.82" stroke="#000000" stroke-width="0.75" stroke-linecap="square" fill="none" /><path id="1791" transform="matrix(1 0 0 -1 0 792)" d="M382.915 209.82L445.968 209.82" stroke="#000000" stroke-width="0.75" stroke-linecap="square" fill="none" /><path id="1845" transform="matrix(1 0 0 -1 0 792)" d="M445.968 268.57L445.968 209.82" stroke="#000000" stroke-width="0.75" stroke-linecap="square" fill="none" /><path id="1846" transform="matrix(1 0 0 -1 0 792)" d="M445.968 268.57L503.908 268.57L503.908 268.57L503.908 209.82" stroke="#000000" stroke-width="0.75" stroke-linecap="square" fill="none" /><path id="1847" transform="matrix(1 0 0 -1 0 792)" d="M445.968 209.82L503.908 209.82" stroke="#000000" stroke-width="0.75" stroke-linecap="square" fill="none" /><path id="1888" transform="matrix(1 0 0 -1 0 792)" d="M503.908 267.82L503.908 210.57" stroke="#000000" stroke-width="0.75" stroke-linecap="square" fill="none" /><path id="1889" transform="matrix(1 0 0 -1 0 792)" d="M108.092 209.82L108.092 151.07" stroke="#000000" stroke-width="0.75" stroke-linecap="square" fill="none" /><path id="1890" transform="matrix(1 0 0 -1 0 792)" d="M108.092 209.82L132.332 209.82L132.332 209.82L132.332 151.07" stroke="#000000" stroke-width="0.75" stroke-linecap="square" fill="none" /><path id="1891" transform="matrix(1 0 0 -1 0 792)" d="M108.092 151.07L132.332 151.07" stroke="#000000" stroke-width="0.75" stroke-linecap="square" fill="none" /><path id="1896" transform="matrix(1 0 0 -1 0 792)" d="M108.092 209.07L108.092 151.82" stroke="#000000" stroke-width="0.75" stroke-linecap="square" fill="none" /><path id="1897" transform="matrix(1 0 0 -1 0 792)" d="M132.332 209.82L132.332 151.07" stroke="#000000" stroke-width="0.75" stroke-linecap="square" fill="none" /><path id="1898" transform="matrix(1 0 0 -1 0 792)" d="M132.332 209.82L170.081 209.82L170.081 209.82L170.081 151.07" stroke="#000000" stroke-width="0.75" stroke-linecap="square" fill="none" /><path id="1899" transform="matrix(1 0 0 -1 0 792)" d="M132.332 151.07L170.081 151.07" stroke="#000000" stroke-width="0.75" stroke-linecap="square" fill="none" /><path id="1902" transform="matrix(1 0 0 -1 0 792)" d="M170.081 209.82L170.081 151.07" stroke="#000000" stroke-width="0.75" stroke-linecap="square" fill="none" /><path id="1903" transform="matrix(1 0 0 -1 0 792)" d="M170.081 209.82L224.898 209.82L224.898 209.82L224.898 151.07" stroke="#000000" stroke-width="0.75" stroke-linecap="square" fill="none" /><path id="1904" transform="matrix(1 0 0 -1 0 792)" d="M170.081 151.07L224.898 151.07" stroke="#000000" stroke-width="0.75" stroke-linecap="square" fill="none" /><path id="1908" transform="matrix(1 0 0 -1 0 792)" d="M224.898 209.82L224.898 151.07" stroke="#000000" stroke-width="0.75" stroke-linecap="square" fill="none" /><path id="1909" transform="matrix(1 0 0 -1 0 792)" d="M224.898 209.82L303.477 209.82L303.477 209.82L303.477 151.07" stroke="#000000" stroke-width="0.75" stroke-linecap="square" fill="none" /><path id="1910" transform="matrix(1 0 0 -1 0 792)" d="M224.898 151.07L303.477 151.07" stroke="#000000" stroke-width="0.75" stroke-linecap="square" fill="none" /><path id="1971" transform="matrix(1 0 0 -1 0 792)" d="M303.477 209.82L303.477 151.07" stroke="#000000" stroke-width="0.75" stroke-linecap="square" fill="none" /><path id="1972" transform="matrix(1 0 0 -1 0 792)" d="M303.477 209.82L382.915 209.82L382.915 209.82L382.915 151.07" stroke="#000000" stroke-width="0.75" stroke-linecap="square" fill="none" /><path id="1973" transform="matrix(1 0 0 -1 0 792)" d="M303.477 151.07L382.915 151.07" stroke="#000000" stroke-width="0.75" stroke-linecap="square" fill="none" /><path id="1990" transform="matrix(1 0 0 -1 0 792)" d="M382.915 209.82L382.915 151.07" stroke="#000000" stroke-width="0.75" stroke-linecap="square" fill="none" /><path id="1991" transform="matrix(1 0 0 -1 0 792)" d="M382.915 209.82L445.968 209.82L445.968 209.82L445.968 151.07" stroke="#000000" stroke-width="0.75" stroke-linecap="square" fill="none" /><path id="1992" transform="matrix(1 0 0 -1 0 792)" d="M382.915 151.07L445.968 151.07" stroke="#000000" stroke-width="0.75" stroke-linecap="square" fill="none" /><path id="2026" transform="matrix(1 0 0 -1 0 792)" d="M445.968 209.82L445.968 151.07" stroke="#000000" stroke-width="0.75" stroke-linecap="square" fill="none" /><path id="2027" transform="matrix(1 0 0 -1 0 792)" d="M445.968 209.82L503.908 209.82L503.908 209.82L503.908 151.07" stroke="#000000" stroke-width="0.75" stroke-linecap="square" fill="none" /><path id="2028" transform="matrix(1 0 0 -1 0 792)" d="M445.968 151.07L503.908 151.07" stroke="#000000" stroke-width="0.75" stroke-linecap="square" fill="none" /><path id="2043" transform="matrix(1 0 0 -1 0 792)" d="M503.908 209.07L503.908 151.82" stroke="#000000" stroke-width="0.75" stroke-linecap="square" fill="none" /></g></g></svg>