<svg xmlns="http://www.w3.org/2000/svg" xmlns:xlink="http://www.w3.org/1999/xlink" id="body_23" preserveAspectRatio="xMinYMin meet" viewBox="0 0 816 1056"><defs><clipPath id="1"><path id="" clip-rule="evenodd" transform="matrix(1 0 0 1 0 0)" d="M0 792L0 0L0 0L612 0L612 0L612 792L612 792L0 792z" /></clipPath></defs><g transform="matrix(1.333333 0 0 1.333333 0 0)"><g clip-path="url(#1)"><path id="66" transform="matrix(1 0 0 -1 0 792)" d="M108.092 672.57L108.092 645.72" stroke="#000000" stroke-width="0.75" stroke-linecap="square" fill="none" /><path id="67" transform="matrix(1 0 0 -1 0 792)" d="M108.092 672.57L169.638 672.57L169.638 672.57L169.638 645.72" stroke="#000000" stroke-width="0.75" stroke-linecap="square" fill="none" /><path id="68" transform="matrix(1 0 0 -1 0 792)" d="M108.092 645.72L169.638 645.72" stroke="#000000" stroke-width="0.75" stroke-linecap="square" fill="none" /><path id="75" transform="matrix(1 0 0 -1 0 792)" d="M108.092 672.57L108.092 646.47" stroke="#000000" stroke-width="0.75" stroke-linecap="square" fill="none" /><path id="76" transform="matrix(1 0 0 -1 0 792)" d="M108.092 672.57L168.888 672.57" stroke="#000000" stroke-width="0.75" stroke-linecap="square" fill="none" /><path id="77" transform="matrix(1 0 0 -1 0 792)" d="M169.638 672.57L169.638 645.72" stroke="#000000" stroke-width="0.75" stroke-linecap="square" fill="none" /><path id="78" transform="matrix(1 0 0 -1 0 792)" d="M169.638 672.57L255.589 672.57L255.589 672.57L255.589 645.72" stroke="#000000" stroke-width="0.75" stroke-linecap="square" fill="none" /><path id="79" transform="matrix(1 0 0 -1 0 792)" d="M169.638 645.72L255.589 645.72" stroke="#000000" stroke-width="0.75" stroke-linecap="square" fill="none" /><path id="99" transform="matrix(1 0 0 -1 0 792)" d="M170.388 672.57L254.839 672.57" stroke="#000000" stroke-width="0.75" stroke-linecap="square" fill="none" /><path id="100" transform="matrix(1 0 0 -1 0 792)" d="M255.589 672.57L255.589 645.72" stroke="#000000" stroke-width="0.75" stroke-linecap="square" fill="none" /><path id="101" transform="matrix(1 0 0 -1 0 792)" d="M255.589 672.57L503.908 672.57L503.908 672.57L503.908 645.72" stroke="#000000" stroke-width="0.75" stroke-linecap="square" fill="none" /><path id="102" transform="matrix(1 0 0 -1 0 792)" d="M255.589 645.72L503.908 645.72" stroke="#000000" stroke-width="0.75" stroke-linecap="square" fill="none" /><path id="114" transform="matrix(1 0 0 -1 0 792)" d="M256.339 672.57L503.908 672.57L503.908 672.57L503.908 646.47" stroke="#000000" stroke-width="0.75" stroke-linecap="square" fill="none" /><path id="115" transform="matrix(1 0 0 -1 0 792)" d="M108.092 645.72L108.092 577.47" stroke="#000000" stroke-width="0.75" stroke-linecap="square" fill="none" /><path id="116" transform="matrix(1 0 0 -1 0 792)" d="M108.092 645.72L169.638 645.72L169.638 645.72L169.638 577.47" stroke="#000000" stroke-width="0.75" stroke-linecap="square" fill="none" /><path id="117" transform="matrix(1 0 0 -1 0 792)" d="M108.092 577.47L169.638 577.47" stroke="#000000" stroke-width="0.75" stroke-linecap="square" fill="none" /><path id="131" transform="matrix(1 0 0 -1 0 792)" d="M108.092 644.97L108.092 578.22" stroke="#000000" stroke-width="0.75" stroke-linecap="square" fill="none" /><path id="132" transform="matrix(1 0 0 -1 0 792)" d="M169.638 645.72L169.638 630.17" stroke="#000000" stroke-width="0.75" stroke-linecap="square" fill="none" /><path id="133" transform="matrix(1 0 0 -1 0 792)" d="M169.638 645.72L255.589 645.72L255.589 645.72L255.589 630.17" stroke="#000000" stroke-width="0.75" stroke-linecap="square" fill="none" /><path id="134" transform="matrix(1 0 0 -1 0 792)" d="M169.638 630.17L255.589 630.17" stroke="#000000" stroke-width="0.75" stroke-linecap="square" fill="none" /><path id="145" transform="matrix(1 0 0 -1 0 792)" d="M255.589 645.72L255.589 630.17" stroke="#000000" stroke-width="0.75" stroke-linecap="square" fill="none" /><path id="146" transform="matrix(1 0 0 -1 0 792)" d="M255.589 645.72L503.908 645.72L503.908 645.72L503.908 630.17" stroke="#000000" stroke-width="0.75" stroke-linecap="square" fill="none" /><path id="147" transform="matrix(1 0 0 -1 0 792)" d="M255.589 630.17L503.908 630.17" stroke="#000000" stroke-width="0.75" stroke-linecap="square" fill="none" /><path id="185" transform="matrix(1 0 0 -1 0 792)" d="M503.908 644.97L503.908 630.92" stroke="#000000" stroke-width="0.75" stroke-linecap="square" fill="none" /><path id="186" transform="matrix(1 0 0 -1 0 792)" d="M169.638 630.17L169.638 614.62" stroke="#000000" stroke-width="0.75" stroke-linecap="square" fill="none" /><path id="187" transform="matrix(1 0 0 -1 0 792)" d="M169.638 630.17L255.589 630.17L255.589 630.17L255.589 614.62" stroke="#000000" stroke-width="0.75" stroke-linecap="square" fill="none" /><path id="188" transform="matrix(1 0 0 -1 0 792)" d="M169.638 614.62L255.589 614.62" stroke="#000000" stroke-width="0.75" stroke-linecap="square" fill="none" /><path id="194" transform="matrix(1 0 0 -1 0 792)" d="M255.589 630.17L255.589 614.62" stroke="#000000" stroke-width="0.75" stroke-linecap="square" fill="none" /><path id="195" transform="matrix(1 0 0 -1 0 792)" d="M255.589 630.17L503.908 630.17L503.908 630.17L503.908 614.62" stroke="#000000" stroke-width="0.75" stroke-linecap="square" fill="none" /><path id="196" transform="matrix(1 0 0 -1 0 792)" d="M255.589 614.62L503.908 614.62" stroke="#000000" stroke-width="0.75" stroke-linecap="square" fill="none" /><path id="244" transform="matrix(1 0 0 -1 0 792)" d="M503.908 629.42L503.908 615.37" stroke="#000000" stroke-width="0.75" stroke-linecap="square" fill="none" /><path id="245" transform="matrix(1 0 0 -1 0 792)" d="M169.638 614.62L169.638 577.47" stroke="#000000" stroke-width="0.75" stroke-linecap="square" fill="none" /><path id="246" transform="matrix(1 0 0 -1 0 792)" d="M169.638 614.62L255.589 614.62L255.589 614.62L255.589 577.47" stroke="#000000" stroke-width="0.75" stroke-linecap="square" fill="none" /><path id="247" transform="matrix(1 0 0 -1 0 792)" d="M169.638 577.47L255.589 577.47" stroke="#000000" stroke-width="0.75" stroke-linecap="square" fill="none" /><path id="254" transform="matrix(1 0 0 -1 0 792)" d="M255.589 614.62L255.589 577.47" stroke="#000000" stroke-width="0.75" stroke-linecap="square" fill="none" /><path id="255" transform="matrix(1 0 0 -1 0 792)" d="M255.589 614.62L503.908 614.62L503.908 614.62L503.908 577.47" stroke="#000000" stroke-width="0.75" stroke-linecap="square" fill="none" /><path id="256" transform="matrix(1 0 0 -1 0 792)" d="M255.589 577.47L503.908 577.47" stroke="#000000" stroke-width="0.75" stroke-linecap="square" fill="none" /><path id="398" transform="matrix(1 0 0 -1 0 792)" d="M503.908 613.87L503.908 578.22" stroke="#000000" stroke-width="0.75" stroke-linecap="square" fill="none" /><path id="399" transform="matrix(1 0 0 -1 0 792)" d="M108.092 577.47L108.092 561.92" stroke="#000000" stroke-width="0.75" stroke-linecap="square" fill="none" /><path id="400" transform="matrix(1 0 0 -1 0 792)" d="M108.092 577.47L503.908 577.47L503.908 577.47L503.908 561.92" stroke="#000000" stroke-width="0.75" stroke-linecap="square" fill="none" /><path id="401" transform="matrix(1 0 0 -1 0 792)" d="M108.092 561.92L503.908 561.92" stroke="#000000" stroke-width="0.75" stroke-linecap="square" fill="none" /><path id="437" transform="matrix(1 0 0 -1 0 792)" d="M108.092 576.72L108.092 562.67" stroke="#000000" stroke-width="0.75" stroke-linecap="square" fill="none" /><path id="438" transform="matrix(1 0 0 -1 0 792)" d="M503.908 576.72L503.908 562.67" stroke="#000000" stroke-width="0.75" stroke-linecap="square" fill="none" /><path id="439" transform="matrix(1 0 0 -1 0 792)" d="M108.092 561.92L108.092 450.47" stroke="#000000" stroke-width="0.75" stroke-linecap="square" fill="none" /><path id="440" transform="matrix(1 0 0 -1 0 792)" d="M108.092 561.92L169.638 561.92L169.638 561.92L169.638 450.47" stroke="#000000" stroke-width="0.75" stroke-linecap="square" fill="none" /><path id="441" transform="matrix(1 0 0 -1 0 792)" d="M108.092 450.47L169.638 450.47" stroke="#000000" stroke-width="0.75" stroke-linecap="square" fill="none" /><path id="456" transform="matrix(1 0 0 -1 0 792)" d="M108.092 561.17L108.092 451.22" stroke="#000000" stroke-width="0.75" stroke-linecap="square" fill="none" /><path id="457" transform="matrix(1 0 0 -1 0 792)" d="M169.638 561.92L169.638 513.97" stroke="#000000" stroke-width="0.75" stroke-linecap="square" fill="none" /><path id="458" transform="matrix(1 0 0 -1 0 792)" d="M169.638 561.92L255.589 561.92L255.589 561.92L255.589 513.97" stroke="#000000" stroke-width="0.75" stroke-linecap="square" fill="none" /><path id="459" transform="matrix(1 0 0 -1 0 792)" d="M169.638 513.97L255.589 513.97" stroke="#000000" stroke-width="0.75" stroke-linecap="square" fill="none" /><path id="467" transform="matrix(1 0 0 -1 0 792)" d="M255.589 561.92L255.589 513.97" stroke="#000000" stroke-width="0.75" stroke-linecap="square" fill="none" /><path id="468" transform="matrix(1 0 0 -1 0 792)" d="M255.589 561.92L503.908 561.92L503.908 561.92L503.908 513.97" stroke="#000000" stroke-width="0.75" stroke-linecap="square" fill="none" /><path id="469" transform="matrix(1 0 0 -1 0 792)" d="M255.589 513.97L503.908 513.97" stroke="#000000" stroke-width="0.75" stroke-linecap="square" fill="none" /><path id="632" transform="matrix(1 0 0 -1 0 792)" d="M503.908 561.17L503.908 514.72" stroke="#000000" stroke-width="0.75" stroke-linecap="square" fill="none" /><path id="633" transform="matrix(1 0 0 -1 0 792)" d="M169.638 513.97L169.638 487.62" stroke="#000000" stroke-width="0.75" stroke-linecap="square" fill="none" /><path id="634" transform="matrix(1 0 0 -1 0 792)" d="M169.638 513.97L255.589 513.97L255.589 513.97L255.589 487.62" stroke="#000000" stroke-width="0.75" stroke-linecap="square" fill="none" /><path id="635" transform="matrix(1 0 0 -1 0 792)" d="M169.638 487.62L255.589 487.62" stroke="#000000" stroke-width="0.75" stroke-linecap="square" fill="none" /><path id="642" transform="matrix(1 0 0 -1 0 792)" d="M255.589 513.97L255.589 487.62" stroke="#000000" stroke-width="0.75" stroke-linecap="square" fill="none" /><path id="643" transform="matrix(1 0 0 -1 0 792)" d="M255.589 513.97L503.908 513.97L503.908 513.97L503.908 487.62" stroke="#000000" stroke-width="0.75" stroke-linecap="square" fill="none" /><path id="644" transform="matrix(1 0 0 -1 0 792)" d="M255.589 487.62L503.908 487.62" stroke="#000000" stroke-width="0.75" stroke-linecap="square" fill="none" /><path id="757" transform="matrix(1 0 0 -1 0 792)" d="M503.908 513.22L503.908 488.37" stroke="#000000" stroke-width="0.75" stroke-linecap="square" fill="none" /><path id="758" transform="matrix(1 0 0 -1 0 792)" d="M169.638 487.62L169.638 450.47" stroke="#000000" stroke-width="0.75" stroke-linecap="square" fill="none" /><path id="759" transform="matrix(1 0 0 -1 0 792)" d="M169.638 487.62L255.589 487.62L255.589 487.62L255.589 450.47" stroke="#000000" stroke-width="0.75" stroke-linecap="square" fill="none" /><path id="760" transform="matrix(1 0 0 -1 0 792)" d="M169.638 450.47L255.589 450.47" stroke="#000000" stroke-width="0.75" stroke-linecap="square" fill="none" /><path id="772" transform="matrix(1 0 0 -1 0 792)" d="M255.589 487.62L255.589 450.47" stroke="#000000" stroke-width="0.75" stroke-linecap="square" fill="none" /><path id="773" transform="matrix(1 0 0 -1 0 792)" d="M255.589 487.62L503.908 487.62L503.908 487.62L503.908 450.47" stroke="#000000" stroke-width="0.75" stroke-linecap="square" fill="none" /><path id="774" transform="matrix(1 0 0 -1 0 792)" d="M255.589 450.47L503.908 450.47" stroke="#000000" stroke-width="0.75" stroke-linecap="square" fill="none" /><path id="912" transform="matrix(1 0 0 -1 0 792)" d="M503.908 486.87L503.908 451.22" stroke="#000000" stroke-width="0.75" stroke-linecap="square" fill="none" /><path id="913" transform="matrix(1 0 0 -1 0 792)" d="M108.092 450.47L108.092 312.67" stroke="#000000" stroke-width="0.75" stroke-linecap="square" fill="none" /><path id="914" transform="matrix(1 0 0 -1 0 792)" d="M108.092 450.47L169.638 450.47L169.638 450.47L169.638 312.67" stroke="#000000" stroke-width="0.75" stroke-linecap="square" fill="none" /><path id="915" transform="matrix(1 0 0 -1 0 792)" d="M108.092 312.67L169.638 312.67" stroke="#000000" stroke-width="0.75" stroke-linecap="square" fill="none" /><path id="926" transform="matrix(1 0 0 -1 0 792)" d="M108.092 449.72L108.092 313.42" stroke="#000000" stroke-width="0.75" stroke-linecap="square" fill="none" /><path id="927" transform="matrix(1 0 0 -1 0 792)" d="M169.638 450.47L169.638 402.52" stroke="#000000" stroke-width="0.75" stroke-linecap="square" fill="none" /><path id="928" transform="matrix(1 0 0 -1 0 792)" d="M169.638 450.47L255.589 450.47L255.589 450.47L255.589 402.52" stroke="#000000" stroke-width="0.75" stroke-linecap="square" fill="none" /><path id="929" transform="matrix(1 0 0 -1 0 792)" d="M169.638 402.52L255.589 402.52" stroke="#000000" stroke-width="0.75" stroke-linecap="square" fill="none" /><path id="944" transform="matrix(1 0 0 -1 0 792)" d="M255.589 450.47L255.589 402.52" stroke="#000000" stroke-width="0.75" stroke-linecap="square" fill="none" /><path id="945" transform="matrix(1 0 0 -1 0 792)" d="M255.589 450.47L503.908 450.47L503.908 450.47L503.908 402.52" stroke="#000000" stroke-width="0.75" stroke-linecap="square" fill="none" /><path id="946" transform="matrix(1 0 0 -1 0 792)" d="M255.589 402.52L503.908 402.52" stroke="#000000" stroke-width="0.75" stroke-linecap="square" fill="none" /><path id="1090" transform="matrix(1 0 0 -1 0 792)" d="M503.908 449.72L503.908 403.27" stroke="#000000" stroke-width="0.75" stroke-linecap="square" fill="none" /><path id="1091" transform="matrix(1 0 0 -1 0 792)" d="M169.638 402.52L169.638 376.17" stroke="#000000" stroke-width="0.75" stroke-linecap="square" fill="none" /><path id="1092" transform="matrix(1 0 0 -1 0 792)" d="M169.638 402.52L255.589 402.52L255.589 402.52L255.589 376.17" stroke="#000000" stroke-width="0.75" stroke-linecap="square" fill="none" /><path id="1093" transform="matrix(1 0 0 -1 0 792)" d="M169.638 376.17L255.589 376.17" stroke="#000000" stroke-width="0.75" stroke-linecap="square" fill="none" /><path id="1106" transform="matrix(1 0 0 -1 0 792)" d="M255.589 402.52L255.589 376.17" stroke="#000000" stroke-width="0.75" stroke-linecap="square" fill="none" /><path id="1107" transform="matrix(1 0 0 -1 0 792)" d="M255.589 402.52L503.908 402.52L503.908 402.52L503.908 376.17" stroke="#000000" stroke-width="0.75" stroke-linecap="square" fill="none" /><path id="1108" transform="matrix(1 0 0 -1 0 792)" d="M255.589 376.17L503.908 376.17" stroke="#000000" stroke-width="0.75" stroke-linecap="square" fill="none" /><path id="1168" transform="matrix(1 0 0 -1 0 792)" d="M503.908 401.77L503.908 376.92" stroke="#000000" stroke-width="0.75" stroke-linecap="square" fill="none" /><path id="1169" transform="matrix(1 0 0 -1 0 792)" d="M169.638 376.17L169.638 349.82" stroke="#000000" stroke-width="0.75" stroke-linecap="square" fill="none" /><path id="1170" transform="matrix(1 0 0 -1 0 792)" d="M169.638 376.17L255.589 376.17L255.589 376.17L255.589 349.82" stroke="#000000" stroke-width="0.75" stroke-linecap="square" fill="none" /><path id="1171" transform="matrix(1 0 0 -1 0 792)" d="M169.638 349.82L255.589 349.82" stroke="#000000" stroke-width="0.75" stroke-linecap="square" fill="none" /><path id="1184" transform="matrix(1 0 0 -1 0 792)" d="M255.589 376.17L255.589 349.82" stroke="#000000" stroke-width="0.75" stroke-linecap="square" fill="none" /><path id="1185" transform="matrix(1 0 0 -1 0 792)" d="M255.589 376.17L503.908 376.17L503.908 376.17L503.908 349.82" stroke="#000000" stroke-width="0.75" stroke-linecap="square" fill="none" /><path id="1186" transform="matrix(1 0 0 -1 0 792)" d="M255.589 349.82L503.908 349.82" stroke="#000000" stroke-width="0.75" stroke-linecap="square" fill="none" /><path id="1255" transform="matrix(1 0 0 -1 0 792)" d="M503.908 375.42L503.908 350.57" stroke="#000000" stroke-width="0.75" stroke-linecap="square" fill="none" /><path id="1256" transform="matrix(1 0 0 -1 0 792)" d="M169.638 349.82L169.638 312.67" stroke="#000000" stroke-width="0.75" stroke-linecap="square" fill="none" /><path id="1257" transform="matrix(1 0 0 -1 0 792)" d="M169.638 349.82L255.589 349.82L255.589 349.82L255.589 312.67" stroke="#000000" stroke-width="0.75" stroke-linecap="square" fill="none" /><path id="1258" transform="matrix(1 0 0 -1 0 792)" d="M169.638 312.67L255.589 312.67" stroke="#000000" stroke-width="0.75" stroke-linecap="square" fill="none" /><path id="1268" transform="matrix(1 0 0 -1 0 792)" d="M255.589 349.82L255.589 312.67" stroke="#000000" stroke-width="0.75" stroke-linecap="square" fill="none" /><path id="1269" transform="matrix(1 0 0 -1 0 792)" d="M255.589 349.82L503.908 349.82L503.908 349.82L503.908 312.67" stroke="#000000" stroke-width="0.75" stroke-linecap="square" fill="none" /><path id="1270" transform="matrix(1 0 0 -1 0 792)" d="M255.589 312.67L503.908 312.67" stroke="#000000" stroke-width="0.75" stroke-linecap="square" fill="none" /><path id="1421" transform="matrix(1 0 0 -1 0 792)" d="M503.908 349.07L503.908 313.42" stroke="#000000" stroke-width="0.75" stroke-linecap="square" fill="none" /><path id="1422" transform="matrix(1 0 0 -1 0 792)" d="M108.092 312.67L108.092 207.27" stroke="#000000" stroke-width="0.75" stroke-linecap="square" fill="none" /><path id="1423" transform="matrix(1 0 0 -1 0 792)" d="M108.092 312.67L169.638 312.67L169.638 312.67L169.638 207.27" stroke="#000000" stroke-width="0.75" stroke-linecap="square" fill="none" /><path id="1424" transform="matrix(1 0 0 -1 0 792)" d="M108.092 207.27L169.638 207.27" stroke="#000000" stroke-width="0.75" stroke-linecap="square" fill="none" /><path id="1434" transform="matrix(1 0 0 -1 0 792)" d="M108.092 311.92L108.092 207.27L108.092 207.27L168.888 207.27" stroke="#000000" stroke-width="0.75" stroke-linecap="square" fill="none" /><path id="1435" transform="matrix(1 0 0 -1 0 792)" d="M169.638 312.67L169.638 275.52" stroke="#000000" stroke-width="0.75" stroke-linecap="square" fill="none" /><path id="1436" transform="matrix(1 0 0 -1 0 792)" d="M169.638 312.67L255.589 312.67L255.589 312.67L255.589 275.52" stroke="#000000" stroke-width="0.75" stroke-linecap="square" fill="none" /><path id="1437" transform="matrix(1 0 0 -1 0 792)" d="M169.638 275.52L255.589 275.52" stroke="#000000" stroke-width="0.75" stroke-linecap="square" fill="none" /><path id="1447" transform="matrix(1 0 0 -1 0 792)" d="M255.589 312.67L255.589 275.52" stroke="#000000" stroke-width="0.75" stroke-linecap="square" fill="none" /><path id="1448" transform="matrix(1 0 0 -1 0 792)" d="M255.589 312.67L503.908 312.67L503.908 312.67L503.908 275.52" stroke="#000000" stroke-width="0.75" stroke-linecap="square" fill="none" /><path id="1449" transform="matrix(1 0 0 -1 0 792)" d="M255.589 275.52L503.908 275.52" stroke="#000000" stroke-width="0.75" stroke-linecap="square" fill="none" /><path id="1574" transform="matrix(1 0 0 -1 0 792)" d="M503.908 311.92L503.908 276.27" stroke="#000000" stroke-width="0.75" stroke-linecap="square" fill="none" /><path id="1575" transform="matrix(1 0 0 -1 0 792)" d="M169.638 275.52L169.638 249.17" stroke="#000000" stroke-width="0.75" stroke-linecap="square" fill="none" /><path id="1576" transform="matrix(1 0 0 -1 0 792)" d="M169.638 275.52L255.589 275.52L255.589 275.52L255.589 249.17" stroke="#000000" stroke-width="0.75" stroke-linecap="square" fill="none" /><path id="1577" transform="matrix(1 0 0 -1 0 792)" d="M169.638 249.17L255.589 249.17" stroke="#000000" stroke-width="0.75" stroke-linecap="square" fill="none" /><path id="1586" transform="matrix(1 0 0 -1 0 792)" d="M255.589 275.52L255.589 249.17" stroke="#000000" stroke-width="0.75" stroke-linecap="square" fill="none" /><path id="1587" transform="matrix(1 0 0 -1 0 792)" d="M255.589 275.52L503.908 275.52L503.908 275.52L503.908 249.17" stroke="#000000" stroke-width="0.75" stroke-linecap="square" fill="none" /><path id="1588" transform="matrix(1 0 0 -1 0 792)" d="M255.589 249.17L503.908 249.17" stroke="#000000" stroke-width="0.75" stroke-linecap="square" fill="none" /><path id="1679" transform="matrix(1 0 0 -1 0 792)" d="M503.908 274.77L503.908 249.92" stroke="#000000" stroke-width="0.75" stroke-linecap="square" fill="none" /><path id="1680" transform="matrix(1 0 0 -1 0 792)" d="M169.638 249.17L169.638 233.62" stroke="#000000" stroke-width="0.75" stroke-linecap="square" fill="none" /><path id="1681" transform="matrix(1 0 0 -1 0 792)" d="M169.638 249.17L255.589 249.17L255.589 249.17L255.589 233.62" stroke="#000000" stroke-width="0.75" stroke-linecap="square" fill="none" /><path id="1682" transform="matrix(1 0 0 -1 0 792)" d="M169.638 233.62L255.589 233.62" stroke="#000000" stroke-width="0.75" stroke-linecap="square" fill="none" /><path id="1689" transform="matrix(1 0 0 -1 0 792)" d="M255.589 249.17L255.589 233.62" stroke="#000000" stroke-width="0.75" stroke-linecap="square" fill="none" /><path id="1690" transform="matrix(1 0 0 -1 0 792)" d="M255.589 249.17L503.908 249.17L503.908 249.17L503.908 233.62" stroke="#000000" stroke-width="0.75" stroke-linecap="square" fill="none" /><path id="1691" transform="matrix(1 0 0 -1 0 792)" d="M255.589 233.62L503.908 233.62" stroke="#000000" stroke-width="0.75" stroke-linecap="square" fill="none" /><path id="1742" transform="matrix(1 0 0 -1 0 792)" d="M503.908 248.42L503.908 234.37" stroke="#000000" stroke-width="0.75" stroke-linecap="square" fill="none" /><path id="1743" transform="matrix(1 0 0 -1 0 792)" d="M169.638 233.62L169.638 207.27" stroke="#000000" stroke-width="0.75" stroke-linecap="square" fill="none" /><path id="1744" transform="matrix(1 0 0 -1 0 792)" d="M169.638 233.62L255.589 233.62L255.589 233.62L255.589 207.27" stroke="#000000" stroke-width="0.75" stroke-linecap="square" fill="none" /><path id="1745" transform="matrix(1 0 0 -1 0 792)" d="M169.638 207.27L255.589 207.27" stroke="#000000" stroke-width="0.75" stroke-linecap="square" fill="none" /><path id="1769" transform="matrix(1 0 0 -1 0 792)" d="M170.388 207.27L254.839 207.27" stroke="#000000" stroke-width="0.75" stroke-linecap="square" fill="none" /><path id="1770" transform="matrix(1 0 0 -1 0 792)" d="M255.589 233.62L255.589 207.27" stroke="#000000" stroke-width="0.75" stroke-linecap="square" fill="none" /><path id="1771" transform="matrix(1 0 0 -1 0 792)" d="M255.589 233.62L503.908 233.62L503.908 233.62L503.908 207.27" stroke="#000000" stroke-width="0.75" stroke-linecap="square" fill="none" /><path id="1772" transform="matrix(1 0 0 -1 0 792)" d="M255.589 207.27L503.908 207.27" stroke="#000000" stroke-width="0.75" stroke-linecap="square" fill="none" /><path id="1839" transform="matrix(1 0 0 -1 0 792)" d="M503.908 232.87L503.908 207.27" stroke="#000000" stroke-width="0.75" stroke-linecap="square" fill="none" /><path id="1840" transform="matrix(1 0 0 -1 0 792)" d="M256.339 207.27L503.908 207.27" stroke="#000000" stroke-width="0.75" stroke-linecap="square" fill="none" /></g></g></svg>