<svg xmlns="http://www.w3.org/2000/svg" xmlns:xlink="http://www.w3.org/1999/xlink" id="body_47" preserveAspectRatio="xMinYMin meet" viewBox="0 0 816 1056"><defs><clipPath id="1"><path id="" clip-rule="evenodd" transform="matrix(1 0 0 1 0 0)" d="M0 792L0 0L0 0L612 0L612 0L612 792L612 792L0 792z" /></clipPath></defs><g transform="matrix(1.333333 0 0 1.333333 0 0)"><g clip-path="url(#1)"><path id="1271" transform="matrix(1 0 0 -1 0 792)" d="M108.092 342.92L108.092 326.87" stroke="#000000" stroke-width="0.75" stroke-linecap="square" fill="none" /><path id="1272" transform="matrix(1 0 0 -1 0 792)" d="M108.092 342.92L235.802 342.92L235.802 342.92L235.802 326.87" stroke="#000000" stroke-width="0.75" stroke-linecap="square" fill="none" /><path id="1273" transform="matrix(1 0 0 -1 0 792)" d="M108.092 326.87L235.802 326.87" stroke="#000000" stroke-width="0.75" stroke-linecap="square" fill="none" /><path id="1290" transform="matrix(1 0 0 -1 0 792)" d="M108.092 342.92L108.092 327.62" stroke="#000000" stroke-width="0.75" stroke-linecap="square" fill="none" /><path id="1291" transform="matrix(1 0 0 -1 0 792)" d="M108.092 342.92L235.052 342.92" stroke="#000000" stroke-width="0.75" stroke-linecap="square" fill="none" /><path id="1292" transform="matrix(1 0 0 -1 0 792)" d="M235.802 342.92L235.802 326.87" stroke="#000000" stroke-width="0.75" stroke-linecap="square" fill="none" /><path id="1293" transform="matrix(1 0 0 -1 0 792)" d="M235.802 342.92L376.834 342.92L376.834 342.92L376.834 326.87" stroke="#000000" stroke-width="0.75" stroke-linecap="square" fill="none" /><path id="1294" transform="matrix(1 0 0 -1 0 792)" d="M235.802 326.87L376.834 326.87" stroke="#000000" stroke-width="0.75" stroke-linecap="square" fill="none" /><path id="1307" transform="matrix(1 0 0 -1 0 792)" d="M236.552 342.92L376.084 342.92" stroke="#000000" stroke-width="0.75" stroke-linecap="square" fill="none" /><path id="1308" transform="matrix(1 0 0 -1 0 792)" d="M376.834 342.92L376.834 326.87" stroke="#000000" stroke-width="0.75" stroke-linecap="square" fill="none" /><path id="1309" transform="matrix(1 0 0 -1 0 792)" d="M376.834 342.92L503.908 342.92L503.908 342.92L503.908 326.87" stroke="#000000" stroke-width="0.75" stroke-linecap="square" fill="none" /><path id="1310" transform="matrix(1 0 0 -1 0 792)" d="M376.834 326.87L503.908 326.87" stroke="#000000" stroke-width="0.75" stroke-linecap="square" fill="none" /><path id="1322" transform="matrix(1 0 0 -1 0 792)" d="M377.584 342.92L503.908 342.92L503.908 342.92L503.908 327.62" stroke="#000000" stroke-width="0.75" stroke-linecap="square" fill="none" /><path id="1323" transform="matrix(1 0 0 -1 0 792)" d="M108.092 326.87L108.092 300.52" stroke="#000000" stroke-width="0.75" stroke-linecap="square" fill="none" /><path id="1324" transform="matrix(1 0 0 -1 0 792)" d="M108.092 326.87L235.802 326.87L235.802 326.87L235.802 300.52" stroke="#000000" stroke-width="0.75" stroke-linecap="square" fill="none" /><path id="1325" transform="matrix(1 0 0 -1 0 792)" d="M108.092 300.52L235.802 300.52" stroke="#000000" stroke-width="0.75" stroke-linecap="square" fill="none" /><path id="1344" transform="matrix(1 0 0 -1 0 792)" d="M108.092 326.12L108.092 301.27" stroke="#000000" stroke-width="0.75" stroke-linecap="square" fill="none" /><path id="1345" transform="matrix(1 0 0 -1 0 792)" d="M235.802 326.87L235.802 300.52" stroke="#000000" stroke-width="0.75" stroke-linecap="square" fill="none" /><path id="1346" transform="matrix(1 0 0 -1 0 792)" d="M235.802 326.87L376.834 326.87L376.834 326.87L376.834 300.52" stroke="#000000" stroke-width="0.75" stroke-linecap="square" fill="none" /><path id="1347" transform="matrix(1 0 0 -1 0 792)" d="M235.802 300.52L376.834 300.52" stroke="#000000" stroke-width="0.75" stroke-linecap="square" fill="none" /><path id="1373" transform="matrix(1 0 0 -1 0 792)" d="M376.834 326.87L376.834 300.52" stroke="#000000" stroke-width="0.75" stroke-linecap="square" fill="none" /><path id="1374" transform="matrix(1 0 0 -1 0 792)" d="M376.834 326.87L503.908 326.87L503.908 326.87L503.908 300.52" stroke="#000000" stroke-width="0.75" stroke-linecap="square" fill="none" /><path id="1375" transform="matrix(1 0 0 -1 0 792)" d="M376.834 300.52L503.908 300.52" stroke="#000000" stroke-width="0.75" stroke-linecap="square" fill="none" /><path id="1409" transform="matrix(1 0 0 -1 0 792)" d="M503.908 326.12L503.908 301.27" stroke="#000000" stroke-width="0.75" stroke-linecap="square" fill="none" /><path id="1410" transform="matrix(1 0 0 -1 0 792)" d="M108.092 300.52L108.092 274.17" stroke="#000000" stroke-width="0.75" stroke-linecap="square" fill="none" /><path id="1411" transform="matrix(1 0 0 -1 0 792)" d="M108.092 300.52L235.802 300.52L235.802 300.52L235.802 274.17" stroke="#000000" stroke-width="0.75" stroke-linecap="square" fill="none" /><path id="1412" transform="matrix(1 0 0 -1 0 792)" d="M108.092 274.17L235.802 274.17" stroke="#000000" stroke-width="0.75" stroke-linecap="square" fill="none" /><path id="1431" transform="matrix(1 0 0 -1 0 792)" d="M108.092 299.77L108.092 274.92" stroke="#000000" stroke-width="0.75" stroke-linecap="square" fill="none" /><path id="1432" transform="matrix(1 0 0 -1 0 792)" d="M235.802 300.52L235.802 274.17" stroke="#000000" stroke-width="0.75" stroke-linecap="square" fill="none" /><path id="1433" transform="matrix(1 0 0 -1 0 792)" d="M235.802 300.52L376.834 300.52L376.834 300.52L376.834 274.17" stroke="#000000" stroke-width="0.75" stroke-linecap="square" fill="none" /><path id="1434" transform="matrix(1 0 0 -1 0 792)" d="M235.802 274.17L376.834 274.17" stroke="#000000" stroke-width="0.75" stroke-linecap="square" fill="none" /><path id="1471" transform="matrix(1 0 0 -1 0 792)" d="M376.834 300.52L376.834 274.17" stroke="#000000" stroke-width="0.75" stroke-linecap="square" fill="none" /><path id="1472" transform="matrix(1 0 0 -1 0 792)" d="M376.834 300.52L503.908 300.52L503.908 300.52L503.908 274.17" stroke="#000000" stroke-width="0.75" stroke-linecap="square" fill="none" /><path id="1473" transform="matrix(1 0 0 -1 0 792)" d="M376.834 274.17L503.908 274.17" stroke="#000000" stroke-width="0.75" stroke-linecap="square" fill="none" /><path id="1490" transform="matrix(1 0 0 -1 0 792)" d="M503.908 299.77L503.908 274.92" stroke="#000000" stroke-width="0.75" stroke-linecap="square" fill="none" /><path id="1491" transform="matrix(1 0 0 -1 0 792)" d="M108.092 274.17L108.092 247.82" stroke="#000000" stroke-width="0.75" stroke-linecap="square" fill="none" /><path id="1492" transform="matrix(1 0 0 -1 0 792)" d="M108.092 274.17L235.802 274.17L235.802 274.17L235.802 247.82" stroke="#000000" stroke-width="0.75" stroke-linecap="square" fill="none" /><path id="1493" transform="matrix(1 0 0 -1 0 792)" d="M108.092 247.82L235.802 247.82" stroke="#000000" stroke-width="0.75" stroke-linecap="square" fill="none" /><path id="1511" transform="matrix(1 0 0 -1 0 792)" d="M108.092 273.42L108.092 248.57" stroke="#000000" stroke-width="0.75" stroke-linecap="square" fill="none" /><path id="1512" transform="matrix(1 0 0 -1 0 792)" d="M235.802 274.17L235.802 247.82" stroke="#000000" stroke-width="0.75" stroke-linecap="square" fill="none" /><path id="1513" transform="matrix(1 0 0 -1 0 792)" d="M235.802 274.17L376.834 274.17L376.834 274.17L376.834 247.82" stroke="#000000" stroke-width="0.75" stroke-linecap="square" fill="none" /><path id="1514" transform="matrix(1 0 0 -1 0 792)" d="M235.802 247.82L376.834 247.82" stroke="#000000" stroke-width="0.75" stroke-linecap="square" fill="none" /><path id="1557" transform="matrix(1 0 0 -1 0 792)" d="M376.834 274.17L376.834 247.82" stroke="#000000" stroke-width="0.75" stroke-linecap="square" fill="none" /><path id="1558" transform="matrix(1 0 0 -1 0 792)" d="M376.834 274.17L503.908 274.17L503.908 274.17L503.908 247.82" stroke="#000000" stroke-width="0.75" stroke-linecap="square" fill="none" /><path id="1559" transform="matrix(1 0 0 -1 0 792)" d="M376.834 247.82L503.908 247.82" stroke="#000000" stroke-width="0.75" stroke-linecap="square" fill="none" /><path id="1595" transform="matrix(1 0 0 -1 0 792)" d="M503.908 273.42L503.908 248.57" stroke="#000000" stroke-width="0.75" stroke-linecap="square" fill="none" /><path id="1596" transform="matrix(1 0 0 -1 0 792)" d="M108.092 247.82L108.092 221.47" stroke="#000000" stroke-width="0.75" stroke-linecap="square" fill="none" /><path id="1597" transform="matrix(1 0 0 -1 0 792)" d="M108.092 247.82L235.802 247.82L235.802 247.82L235.802 221.47" stroke="#000000" stroke-width="0.75" stroke-linecap="square" fill="none" /><path id="1598" transform="matrix(1 0 0 -1 0 792)" d="M108.092 221.47L235.802 221.47" stroke="#000000" stroke-width="0.75" stroke-linecap="square" fill="none" /><path id="1622" transform="matrix(1 0 0 -1 0 792)" d="M108.092 247.07L108.092 222.22" stroke="#000000" stroke-width="0.75" stroke-linecap="square" fill="none" /><path id="1623" transform="matrix(1 0 0 -1 0 792)" d="M235.802 247.82L235.802 221.47" stroke="#000000" stroke-width="0.75" stroke-linecap="square" fill="none" /><path id="1624" transform="matrix(1 0 0 -1 0 792)" d="M235.802 247.82L376.834 247.82L376.834 247.82L376.834 221.47" stroke="#000000" stroke-width="0.75" stroke-linecap="square" fill="none" /><path id="1625" transform="matrix(1 0 0 -1 0 792)" d="M235.802 221.47L376.834 221.47" stroke="#000000" stroke-width="0.75" stroke-linecap="square" fill="none" /><path id="1648" transform="matrix(1 0 0 -1 0 792)" d="M376.834 247.82L376.834 221.47" stroke="#000000" stroke-width="0.75" stroke-linecap="square" fill="none" /><path id="1649" transform="matrix(1 0 0 -1 0 792)" d="M376.834 247.82L503.908 247.82L503.908 247.82L503.908 221.47" stroke="#000000" stroke-width="0.75" stroke-linecap="square" fill="none" /><path id="1650" transform="matrix(1 0 0 -1 0 792)" d="M376.834 221.47L503.908 221.47" stroke="#000000" stroke-width="0.75" stroke-linecap="square" fill="none" /><path id="1695" transform="matrix(1 0 0 -1 0 792)" d="M503.908 247.07L503.908 222.22" stroke="#000000" stroke-width="0.75" stroke-linecap="square" fill="none" /><path id="1696" transform="matrix(1 0 0 -1 0 792)" d="M108.092 221.47L108.092 195.12" stroke="#000000" stroke-width="0.75" stroke-linecap="square" fill="none" /><path id="1697" transform="matrix(1 0 0 -1 0 792)" d="M108.092 221.47L235.802 221.47L235.802 221.47L235.802 195.12" stroke="#000000" stroke-width="0.75" stroke-linecap="square" fill="none" /><path id="1698" transform="matrix(1 0 0 -1 0 792)" d="M108.092 195.12L235.802 195.12" stroke="#000000" stroke-width="0.75" stroke-linecap="square" fill="none" /><path id="1719" transform="matrix(1 0 0 -1 0 792)" d="M108.092 220.72L108.092 195.87" stroke="#000000" stroke-width="0.75" stroke-linecap="square" fill="none" /><path id="1720" transform="matrix(1 0 0 -1 0 792)" d="M235.802 221.47L235.802 195.12" stroke="#000000" stroke-width="0.75" stroke-linecap="square" fill="none" /><path id="1721" transform="matrix(1 0 0 -1 0 792)" d="M235.802 221.47L376.834 221.47L376.834 221.47L376.834 195.12" stroke="#000000" stroke-width="0.75" stroke-linecap="square" fill="none" /><path id="1722" transform="matrix(1 0 0 -1 0 792)" d="M235.802 195.12L376.834 195.12" stroke="#000000" stroke-width="0.75" stroke-linecap="square" fill="none" /><path id="1753" transform="matrix(1 0 0 -1 0 792)" d="M376.834 221.47L376.834 195.12" stroke="#000000" stroke-width="0.75" stroke-linecap="square" fill="none" /><path id="1754" transform="matrix(1 0 0 -1 0 792)" d="M376.834 221.47L503.908 221.47L503.908 221.47L503.908 195.12" stroke="#000000" stroke-width="0.75" stroke-linecap="square" fill="none" /><path id="1755" transform="matrix(1 0 0 -1 0 792)" d="M376.834 195.12L503.908 195.12" stroke="#000000" stroke-width="0.75" stroke-linecap="square" fill="none" /><path id="1807" transform="matrix(1 0 0 -1 0 792)" d="M503.908 220.72L503.908 195.87" stroke="#000000" stroke-width="0.75" stroke-linecap="square" fill="none" /><path id="1808" transform="matrix(1 0 0 -1 0 792)" d="M108.092 195.12L108.092 168.77" stroke="#000000" stroke-width="0.75" stroke-linecap="square" fill="none" /><path id="1809" transform="matrix(1 0 0 -1 0 792)" d="M108.092 195.12L235.802 195.12L235.802 195.12L235.802 168.77" stroke="#000000" stroke-width="0.75" stroke-linecap="square" fill="none" /><path id="1810" transform="matrix(1 0 0 -1 0 792)" d="M108.092 168.77L235.802 168.77" stroke="#000000" stroke-width="0.75" stroke-linecap="square" fill="none" /><path id="1830" transform="matrix(1 0 0 -1 0 792)" d="M108.092 194.37L108.092 169.52" stroke="#000000" stroke-width="0.75" stroke-linecap="square" fill="none" /><path id="1831" transform="matrix(1 0 0 -1 0 792)" d="M235.802 195.12L235.802 168.77" stroke="#000000" stroke-width="0.75" stroke-linecap="square" fill="none" /><path id="1832" transform="matrix(1 0 0 -1 0 792)" d="M235.802 195.12L376.834 195.12L376.834 195.12L376.834 168.77" stroke="#000000" stroke-width="0.75" stroke-linecap="square" fill="none" /><path id="1833" transform="matrix(1 0 0 -1 0 792)" d="M235.802 168.77L376.834 168.77" stroke="#000000" stroke-width="0.75" stroke-linecap="square" fill="none" /><path id="1877" transform="matrix(1 0 0 -1 0 792)" d="M376.834 195.12L376.834 168.77" stroke="#000000" stroke-width="0.75" stroke-linecap="square" fill="none" /><path id="1878" transform="matrix(1 0 0 -1 0 792)" d="M376.834 195.12L503.908 195.12L503.908 195.12L503.908 168.77" stroke="#000000" stroke-width="0.75" stroke-linecap="square" fill="none" /><path id="1879" transform="matrix(1 0 0 -1 0 792)" d="M376.834 168.77L503.908 168.77" stroke="#000000" stroke-width="0.75" stroke-linecap="square" fill="none" /><path id="1923" transform="matrix(1 0 0 -1 0 792)" d="M503.908 194.37L503.908 169.52" stroke="#000000" stroke-width="0.75" stroke-linecap="square" fill="none" /><path id="1924" transform="matrix(1 0 0 -1 0 792)" d="M108.092 168.77L108.092 142.42" stroke="#000000" stroke-width="0.75" stroke-linecap="square" fill="none" /><path id="1925" transform="matrix(1 0 0 -1 0 792)" d="M108.092 168.77L235.802 168.77L235.802 168.77L235.802 142.42" stroke="#000000" stroke-width="0.75" stroke-linecap="square" fill="none" /><path id="1926" transform="matrix(1 0 0 -1 0 792)" d="M108.092 142.42L235.802 142.42" stroke="#000000" stroke-width="0.75" stroke-linecap="square" fill="none" /><path id="1959" transform="matrix(1 0 0 -1 0 792)" d="M108.092 168.02L108.092 142.42L108.092 142.42L235.052 142.42" stroke="#000000" stroke-width="0.75" stroke-linecap="square" fill="none" /><path id="1960" transform="matrix(1 0 0 -1 0 792)" d="M235.802 168.77L235.802 142.42" stroke="#000000" stroke-width="0.75" stroke-linecap="square" fill="none" /><path id="1961" transform="matrix(1 0 0 -1 0 792)" d="M235.802 168.77L376.834 168.77L376.834 168.77L376.834 142.42" stroke="#000000" stroke-width="0.75" stroke-linecap="square" fill="none" /><path id="1962" transform="matrix(1 0 0 -1 0 792)" d="M235.802 142.42L376.834 142.42" stroke="#000000" stroke-width="0.75" stroke-linecap="square" fill="none" /><path id="1995" transform="matrix(1 0 0 -1 0 792)" d="M236.552 142.42L376.084 142.42" stroke="#000000" stroke-width="0.75" stroke-linecap="square" fill="none" /><path id="1996" transform="matrix(1 0 0 -1 0 792)" d="M376.834 168.77L376.834 142.42" stroke="#000000" stroke-width="0.75" stroke-linecap="square" fill="none" /><path id="1997" transform="matrix(1 0 0 -1 0 792)" d="M376.834 168.77L503.908 168.77L503.908 168.77L503.908 142.42" stroke="#000000" stroke-width="0.75" stroke-linecap="square" fill="none" /><path id="1998" transform="matrix(1 0 0 -1 0 792)" d="M376.834 142.42L503.908 142.42" stroke="#000000" stroke-width="0.75" stroke-linecap="square" fill="none" /><path id="2026" transform="matrix(1 0 0 -1 0 792)" d="M503.908 168.02L503.908 142.42" stroke="#000000" stroke-width="0.75" stroke-linecap="square" fill="none" /><path id="2027" transform="matrix(1 0 0 -1 0 792)" d="M377.584 142.42L503.908 142.42" stroke="#000000" stroke-width="0.75" stroke-linecap="square" fill="none" /></g></g></svg>