<svg xmlns="http://www.w3.org/2000/svg" xmlns:xlink="http://www.w3.org/1999/xlink" id="body_8" preserveAspectRatio="xMinYMin meet" viewBox="0 0 816 1056"><defs><clipPath id="1"><path id="" clip-rule="evenodd" transform="matrix(1 0 0 1 0 0)" d="M0 792L0 0L0 0L612 0L612 0L612 792L612 792L0 792z" /></clipPath></defs><g transform="matrix(1.333333 0 0 1.333333 0 0)"><g clip-path="url(#1)"><path id="514" transform="matrix(1 0 0 -1 0 792)" d="M107.717 624.61L162.968 624.61L162.968 613.81L107.717 613.81z" stroke="none" fill="#E5E5E5" fill-rule="nonzero" /><path id="1813" transform="matrix(1 0 0 -1 0 792)" d="M107.717 500.81L162.968 500.81L162.968 490.01L107.717 490.01z" stroke="none" fill="#E5E5E5" fill-rule="nonzero" /><path id="4145" transform="matrix(1 0 0 -1 0 792)" d="M107.717 269.01L167.468 269.01L167.468 258.21L107.717 258.21z" stroke="none" fill="#E5E5E5" fill-rule="nonzero" /></g></g></svg>