<svg xmlns="http://www.w3.org/2000/svg" xmlns:xlink="http://www.w3.org/1999/xlink" id="body_73" preserveAspectRatio="xMinYMin meet" viewBox="0 0 816 1056"><defs><clipPath id="1"><path id="" clip-rule="evenodd" transform="matrix(1 0 0 1 0 0)" d="M0 792L0 0L0 0L612 0L612 0L612 792L612 792L0 792z" /></clipPath></defs><g transform="matrix(1.333333 0 0 1.333333 0 0)"><g clip-path="url(#1)"><path id="91" transform="matrix(1 0 0 -1 0 792)" d="M108.092 649.02L108.092 633.47" stroke="#000000" stroke-width="0.75" stroke-linecap="square" fill="none" /><path id="92" transform="matrix(1 0 0 -1 0 792)" d="M108.092 649.02L154.818 649.02L154.818 649.02L154.818 633.47" stroke="#000000" stroke-width="0.75" stroke-linecap="square" fill="none" /><path id="93" transform="matrix(1 0 0 -1 0 792)" d="M108.092 633.47L154.818 633.47" stroke="#000000" stroke-width="0.75" stroke-linecap="square" fill="none" /><path id="104" transform="matrix(1 0 0 -1 0 792)" d="M108.092 649.02L108.092 634.22" stroke="#000000" stroke-width="0.75" stroke-linecap="square" fill="none" /><path id="105" transform="matrix(1 0 0 -1 0 792)" d="M108.092 649.02L154.068 649.02" stroke="#000000" stroke-width="0.75" stroke-linecap="square" fill="none" /><path id="106" transform="matrix(1 0 0 -1 0 792)" d="M154.818 649.02L154.818 633.47" stroke="#000000" stroke-width="0.75" stroke-linecap="square" fill="none" /><path id="107" transform="matrix(1 0 0 -1 0 792)" d="M154.818 649.02L178.558 649.02L178.558 649.02L178.558 633.47" stroke="#000000" stroke-width="0.75" stroke-linecap="square" fill="none" /><path id="108" transform="matrix(1 0 0 -1 0 792)" d="M154.818 633.47L178.558 633.47" stroke="#000000" stroke-width="0.75" stroke-linecap="square" fill="none" /><path id="113" transform="matrix(1 0 0 -1 0 792)" d="M155.568 649.02L177.808 649.02" stroke="#000000" stroke-width="0.75" stroke-linecap="square" fill="none" /><path id="114" transform="matrix(1 0 0 -1 0 792)" d="M178.558 649.02L178.558 633.47" stroke="#000000" stroke-width="0.75" stroke-linecap="square" fill="none" /><path id="115" transform="matrix(1 0 0 -1 0 792)" d="M178.558 649.02L234.041 649.02L234.041 649.02L234.041 633.47" stroke="#000000" stroke-width="0.75" stroke-linecap="square" fill="none" /><path id="116" transform="matrix(1 0 0 -1 0 792)" d="M178.558 633.47L234.041 633.47" stroke="#000000" stroke-width="0.75" stroke-linecap="square" fill="none" /><path id="126" transform="matrix(1 0 0 -1 0 792)" d="M179.308 649.02L233.291 649.02" stroke="#000000" stroke-width="0.75" stroke-linecap="square" fill="none" /><path id="127" transform="matrix(1 0 0 -1 0 792)" d="M234.041 649.02L234.041 633.47" stroke="#000000" stroke-width="0.75" stroke-linecap="square" fill="none" /><path id="128" transform="matrix(1 0 0 -1 0 792)" d="M234.041 649.02L424.422 649.02L424.422 649.02L424.422 633.47" stroke="#000000" stroke-width="0.75" stroke-linecap="square" fill="none" /><path id="129" transform="matrix(1 0 0 -1 0 792)" d="M234.041 633.47L424.422 633.47" stroke="#000000" stroke-width="0.75" stroke-linecap="square" fill="none" /><path id="138" transform="matrix(1 0 0 -1 0 792)" d="M234.791 649.02L423.672 649.02" stroke="#000000" stroke-width="0.75" stroke-linecap="square" fill="none" /><path id="139" transform="matrix(1 0 0 -1 0 792)" d="M424.422 649.02L424.422 633.47" stroke="#000000" stroke-width="0.75" stroke-linecap="square" fill="none" /><path id="140" transform="matrix(1 0 0 -1 0 792)" d="M424.422 649.02L503.908 649.02L503.908 649.02L503.908 633.47" stroke="#000000" stroke-width="0.75" stroke-linecap="square" fill="none" /><path id="141" transform="matrix(1 0 0 -1 0 792)" d="M424.422 633.47L503.908 633.47" stroke="#000000" stroke-width="0.75" stroke-linecap="square" fill="none" /><path id="153" transform="matrix(1 0 0 -1 0 792)" d="M425.172 649.02L503.908 649.02L503.908 649.02L503.908 634.22" stroke="#000000" stroke-width="0.75" stroke-linecap="square" fill="none" /><path id="154" transform="matrix(1 0 0 -1 0 792)" d="M108.092 633.47L108.092 617.92" stroke="#000000" stroke-width="0.75" stroke-linecap="square" fill="none" /><path id="155" transform="matrix(1 0 0 -1 0 792)" d="M108.092 633.47L154.818 633.47L154.818 633.47L154.818 617.92" stroke="#000000" stroke-width="0.75" stroke-linecap="square" fill="none" /><path id="156" transform="matrix(1 0 0 -1 0 792)" d="M108.092 617.92L154.818 617.92" stroke="#000000" stroke-width="0.75" stroke-linecap="square" fill="none" /><path id="164" transform="matrix(1 0 0 -1 0 792)" d="M108.092 632.72L108.092 618.67" stroke="#000000" stroke-width="0.75" stroke-linecap="square" fill="none" /><path id="165" transform="matrix(1 0 0 -1 0 792)" d="M154.818 633.47L154.818 617.92" stroke="#000000" stroke-width="0.75" stroke-linecap="square" fill="none" /><path id="166" transform="matrix(1 0 0 -1 0 792)" d="M154.818 633.47L178.558 633.47L178.558 633.47L178.558 617.92" stroke="#000000" stroke-width="0.75" stroke-linecap="square" fill="none" /><path id="167" transform="matrix(1 0 0 -1 0 792)" d="M154.818 617.92L178.558 617.92" stroke="#000000" stroke-width="0.75" stroke-linecap="square" fill="none" /><path id="172" transform="matrix(1 0 0 -1 0 792)" d="M178.558 633.47L178.558 617.92" stroke="#000000" stroke-width="0.75" stroke-linecap="square" fill="none" /><path id="173" transform="matrix(1 0 0 -1 0 792)" d="M178.558 633.47L234.041 633.47L234.041 633.47L234.041 617.92" stroke="#000000" stroke-width="0.75" stroke-linecap="square" fill="none" /><path id="174" transform="matrix(1 0 0 -1 0 792)" d="M178.558 617.92L234.041 617.92" stroke="#000000" stroke-width="0.75" stroke-linecap="square" fill="none" /><path id="184" transform="matrix(1 0 0 -1 0 792)" d="M234.041 633.47L234.041 617.92" stroke="#000000" stroke-width="0.75" stroke-linecap="square" fill="none" /><path id="185" transform="matrix(1 0 0 -1 0 792)" d="M234.041 633.47L424.422 633.47L424.422 633.47L424.422 617.92" stroke="#000000" stroke-width="0.75" stroke-linecap="square" fill="none" /><path id="186" transform="matrix(1 0 0 -1 0 792)" d="M234.041 617.92L424.422 617.92" stroke="#000000" stroke-width="0.75" stroke-linecap="square" fill="none" /><path id="227" transform="matrix(1 0 0 -1 0 792)" d="M424.422 633.47L424.422 617.92" stroke="#000000" stroke-width="0.75" stroke-linecap="square" fill="none" /><path id="228" transform="matrix(1 0 0 -1 0 792)" d="M424.422 633.47L503.908 633.47L503.908 633.47L503.908 617.92" stroke="#000000" stroke-width="0.75" stroke-linecap="square" fill="none" /><path id="229" transform="matrix(1 0 0 -1 0 792)" d="M424.422 617.92L503.908 617.92" stroke="#000000" stroke-width="0.75" stroke-linecap="square" fill="none" /><path id="248" transform="matrix(1 0 0 -1 0 792)" d="M503.908 632.72L503.908 618.67" stroke="#000000" stroke-width="0.75" stroke-linecap="square" fill="none" /><path id="249" transform="matrix(1 0 0 -1 0 792)" d="M108.092 617.92L108.092 602.37" stroke="#000000" stroke-width="0.75" stroke-linecap="square" fill="none" /><path id="250" transform="matrix(1 0 0 -1 0 792)" d="M108.092 617.92L154.818 617.92L154.818 617.92L154.818 602.37" stroke="#000000" stroke-width="0.75" stroke-linecap="square" fill="none" /><path id="251" transform="matrix(1 0 0 -1 0 792)" d="M108.092 602.37L154.818 602.37" stroke="#000000" stroke-width="0.75" stroke-linecap="square" fill="none" /><path id="256" transform="matrix(1 0 0 -1 0 792)" d="M108.092 617.17L108.092 603.12" stroke="#000000" stroke-width="0.75" stroke-linecap="square" fill="none" /><path id="257" transform="matrix(1 0 0 -1 0 792)" d="M154.818 617.92L154.818 602.37" stroke="#000000" stroke-width="0.75" stroke-linecap="square" fill="none" /><path id="258" transform="matrix(1 0 0 -1 0 792)" d="M154.818 617.92L178.558 617.92L178.558 617.92L178.558 602.37" stroke="#000000" stroke-width="0.75" stroke-linecap="square" fill="none" /><path id="259" transform="matrix(1 0 0 -1 0 792)" d="M154.818 602.37L178.558 602.37" stroke="#000000" stroke-width="0.75" stroke-linecap="square" fill="none" /><path id="264" transform="matrix(1 0 0 -1 0 792)" d="M178.558 617.92L178.558 602.37" stroke="#000000" stroke-width="0.75" stroke-linecap="square" fill="none" /><path id="265" transform="matrix(1 0 0 -1 0 792)" d="M178.558 617.92L234.041 617.92L234.041 617.92L234.041 602.37" stroke="#000000" stroke-width="0.75" stroke-linecap="square" fill="none" /><path id="266" transform="matrix(1 0 0 -1 0 792)" d="M178.558 602.37L234.041 602.37" stroke="#000000" stroke-width="0.75" stroke-linecap="square" fill="none" /><path id="279" transform="matrix(1 0 0 -1 0 792)" d="M234.041 617.92L234.041 602.37" stroke="#000000" stroke-width="0.75" stroke-linecap="square" fill="none" /><path id="280" transform="matrix(1 0 0 -1 0 792)" d="M234.041 617.92L424.422 617.92L424.422 617.92L424.422 602.37" stroke="#000000" stroke-width="0.75" stroke-linecap="square" fill="none" /><path id="281" transform="matrix(1 0 0 -1 0 792)" d="M234.041 602.37L424.422 602.37" stroke="#000000" stroke-width="0.75" stroke-linecap="square" fill="none" /><path id="307" transform="matrix(1 0 0 -1 0 792)" d="M424.422 617.92L424.422 602.37" stroke="#000000" stroke-width="0.75" stroke-linecap="square" fill="none" /><path id="308" transform="matrix(1 0 0 -1 0 792)" d="M424.422 617.92L503.908 617.92L503.908 617.92L503.908 602.37" stroke="#000000" stroke-width="0.75" stroke-linecap="square" fill="none" /><path id="309" transform="matrix(1 0 0 -1 0 792)" d="M424.422 602.37L503.908 602.37" stroke="#000000" stroke-width="0.75" stroke-linecap="square" fill="none" /><path id="328" transform="matrix(1 0 0 -1 0 792)" d="M503.908 617.17L503.908 603.12" stroke="#000000" stroke-width="0.75" stroke-linecap="square" fill="none" /><path id="329" transform="matrix(1 0 0 -1 0 792)" d="M108.092 602.37L108.092 586.82" stroke="#000000" stroke-width="0.75" stroke-linecap="square" fill="none" /><path id="330" transform="matrix(1 0 0 -1 0 792)" d="M108.092 602.37L154.818 602.37L154.818 602.37L154.818 586.82" stroke="#000000" stroke-width="0.75" stroke-linecap="square" fill="none" /><path id="331" transform="matrix(1 0 0 -1 0 792)" d="M108.092 586.82L154.818 586.82" stroke="#000000" stroke-width="0.75" stroke-linecap="square" fill="none" /><path id="339" transform="matrix(1 0 0 -1 0 792)" d="M108.092 601.62L108.092 586.82L108.092 586.82L154.068 586.82" stroke="#000000" stroke-width="0.75" stroke-linecap="square" fill="none" /><path id="340" transform="matrix(1 0 0 -1 0 792)" d="M154.818 602.37L154.818 586.82" stroke="#000000" stroke-width="0.75" stroke-linecap="square" fill="none" /><path id="341" transform="matrix(1 0 0 -1 0 792)" d="M154.818 602.37L178.558 602.37L178.558 602.37L178.558 586.82" stroke="#000000" stroke-width="0.75" stroke-linecap="square" fill="none" /><path id="342" transform="matrix(1 0 0 -1 0 792)" d="M154.818 586.82L178.558 586.82" stroke="#000000" stroke-width="0.75" stroke-linecap="square" fill="none" /><path id="347" transform="matrix(1 0 0 -1 0 792)" d="M155.568 586.82L177.808 586.82" stroke="#000000" stroke-width="0.75" stroke-linecap="square" fill="none" /><path id="348" transform="matrix(1 0 0 -1 0 792)" d="M178.558 602.37L178.558 586.82" stroke="#000000" stroke-width="0.75" stroke-linecap="square" fill="none" /><path id="349" transform="matrix(1 0 0 -1 0 792)" d="M178.558 602.37L234.041 602.37L234.041 602.37L234.041 586.82" stroke="#000000" stroke-width="0.75" stroke-linecap="square" fill="none" /><path id="350" transform="matrix(1 0 0 -1 0 792)" d="M178.558 586.82L234.041 586.82" stroke="#000000" stroke-width="0.75" stroke-linecap="square" fill="none" /><path id="354" transform="matrix(1 0 0 -1 0 792)" d="M179.308 586.82L233.291 586.82" stroke="#000000" stroke-width="0.75" stroke-linecap="square" fill="none" /><path id="355" transform="matrix(1 0 0 -1 0 792)" d="M234.041 602.37L234.041 586.82" stroke="#000000" stroke-width="0.75" stroke-linecap="square" fill="none" /><path id="356" transform="matrix(1 0 0 -1 0 792)" d="M234.041 602.37L424.422 602.37L424.422 602.37L424.422 586.82" stroke="#000000" stroke-width="0.75" stroke-linecap="square" fill="none" /><path id="357" transform="matrix(1 0 0 -1 0 792)" d="M234.041 586.82L424.422 586.82" stroke="#000000" stroke-width="0.75" stroke-linecap="square" fill="none" /><path id="363" transform="matrix(1 0 0 -1 0 792)" d="M234.791 586.82L423.672 586.82" stroke="#000000" stroke-width="0.75" stroke-linecap="square" fill="none" /><path id="364" transform="matrix(1 0 0 -1 0 792)" d="M424.422 602.37L424.422 586.82" stroke="#000000" stroke-width="0.75" stroke-linecap="square" fill="none" /><path id="365" transform="matrix(1 0 0 -1 0 792)" d="M424.422 602.37L503.908 602.37L503.908 602.37L503.908 586.82" stroke="#000000" stroke-width="0.75" stroke-linecap="square" fill="none" /><path id="366" transform="matrix(1 0 0 -1 0 792)" d="M424.422 586.82L503.908 586.82" stroke="#000000" stroke-width="0.75" stroke-linecap="square" fill="none" /><path id="385" transform="matrix(1 0 0 -1 0 792)" d="M503.908 601.62L503.908 586.82" stroke="#000000" stroke-width="0.75" stroke-linecap="square" fill="none" /><path id="386" transform="matrix(1 0 0 -1 0 792)" d="M425.172 586.82L503.908 586.82" stroke="#000000" stroke-width="0.75" stroke-linecap="square" fill="none" /></g></g></svg>