<svg xmlns="http://www.w3.org/2000/svg" xmlns:xlink="http://www.w3.org/1999/xlink" id="body_58" preserveAspectRatio="xMinYMin meet" viewBox="0 0 816 1056"><defs><clipPath id="1"><path id="" clip-rule="evenodd" transform="matrix(1 0 0 1 0 0)" d="M0 792L0 0L0 0L612 0L612 0L612 792L612 792L0 792z" /></clipPath></defs><g transform="matrix(1.333333 0 0 1.333333 0 0)"><g clip-path="url(#1)"><path id="87" transform="matrix(1 0 0 -1 0 792)" d="M108.092 672.57L108.092 656.52" stroke="#000000" stroke-width="0.75" stroke-linecap="square" fill="none" /><path id="88" transform="matrix(1 0 0 -1 0 792)" d="M108.092 672.57L133.311 672.57L133.311 672.57L133.311 656.52" stroke="#000000" stroke-width="0.75" stroke-linecap="square" fill="none" /><path id="89" transform="matrix(1 0 0 -1 0 792)" d="M108.092 656.52L133.311 656.52" stroke="#000000" stroke-width="0.75" stroke-linecap="square" fill="none" /><path id="95" transform="matrix(1 0 0 -1 0 792)" d="M108.092 672.57L108.092 657.27" stroke="#000000" stroke-width="0.75" stroke-linecap="square" fill="none" /><path id="96" transform="matrix(1 0 0 -1 0 792)" d="M108.092 672.57L132.561 672.57" stroke="#000000" stroke-width="0.75" stroke-linecap="square" fill="none" /><path id="97" transform="matrix(1 0 0 -1 0 792)" d="M133.311 672.57L133.311 656.52" stroke="#000000" stroke-width="0.75" stroke-linecap="square" fill="none" /><path id="98" transform="matrix(1 0 0 -1 0 792)" d="M133.311 672.57L188.97 672.57L188.97 672.57L188.97 656.52" stroke="#000000" stroke-width="0.75" stroke-linecap="square" fill="none" /><path id="99" transform="matrix(1 0 0 -1 0 792)" d="M133.311 656.52L188.97 656.52" stroke="#000000" stroke-width="0.75" stroke-linecap="square" fill="none" /><path id="106" transform="matrix(1 0 0 -1 0 792)" d="M134.061 672.57L188.22 672.57" stroke="#000000" stroke-width="0.75" stroke-linecap="square" fill="none" /><path id="107" transform="matrix(1 0 0 -1 0 792)" d="M188.97 672.57L188.97 656.52" stroke="#000000" stroke-width="0.75" stroke-linecap="square" fill="none" /><path id="108" transform="matrix(1 0 0 -1 0 792)" d="M188.97 672.57L259.971 672.57L259.971 672.57L259.971 656.52" stroke="#000000" stroke-width="0.75" stroke-linecap="square" fill="none" /><path id="109" transform="matrix(1 0 0 -1 0 792)" d="M188.97 656.52L259.971 656.52" stroke="#000000" stroke-width="0.75" stroke-linecap="square" fill="none" /><path id="121" transform="matrix(1 0 0 -1 0 792)" d="M189.72 672.57L259.221 672.57" stroke="#000000" stroke-width="0.75" stroke-linecap="square" fill="none" /><path id="122" transform="matrix(1 0 0 -1 0 792)" d="M259.971 672.57L259.971 656.52" stroke="#000000" stroke-width="0.75" stroke-linecap="square" fill="none" /><path id="123" transform="matrix(1 0 0 -1 0 792)" d="M259.971 672.57L372.252 672.57L372.252 672.57L372.252 656.52" stroke="#000000" stroke-width="0.75" stroke-linecap="square" fill="none" /><path id="124" transform="matrix(1 0 0 -1 0 792)" d="M259.971 656.52L372.252 656.52" stroke="#000000" stroke-width="0.75" stroke-linecap="square" fill="none" /><path id="131" transform="matrix(1 0 0 -1 0 792)" d="M260.721 672.57L371.502 672.57" stroke="#000000" stroke-width="0.75" stroke-linecap="square" fill="none" /><path id="132" transform="matrix(1 0 0 -1 0 792)" d="M372.252 672.57L372.252 656.52" stroke="#000000" stroke-width="0.75" stroke-linecap="square" fill="none" /><path id="133" transform="matrix(1 0 0 -1 0 792)" d="M372.252 672.57L440.074 672.57L440.074 672.57L440.074 656.52" stroke="#000000" stroke-width="0.75" stroke-linecap="square" fill="none" /><path id="134" transform="matrix(1 0 0 -1 0 792)" d="M372.252 656.52L440.074 656.52" stroke="#000000" stroke-width="0.75" stroke-linecap="square" fill="none" /><path id="144" transform="matrix(1 0 0 -1 0 792)" d="M373.002 672.57L439.324 672.57" stroke="#000000" stroke-width="0.75" stroke-linecap="square" fill="none" /><path id="145" transform="matrix(1 0 0 -1 0 792)" d="M440.074 672.57L440.074 656.52" stroke="#000000" stroke-width="0.75" stroke-linecap="square" fill="none" /><path id="146" transform="matrix(1 0 0 -1 0 792)" d="M440.074 672.57L503.908 672.57L503.908 672.57L503.908 656.52" stroke="#000000" stroke-width="0.75" stroke-linecap="square" fill="none" /><path id="147" transform="matrix(1 0 0 -1 0 792)" d="M440.074 656.52L503.908 656.52" stroke="#000000" stroke-width="0.75" stroke-linecap="square" fill="none" /><path id="160" transform="matrix(1 0 0 -1 0 792)" d="M440.824 672.57L503.908 672.57L503.908 672.57L503.908 657.27" stroke="#000000" stroke-width="0.75" stroke-linecap="square" fill="none" /><path id="161" transform="matrix(1 0 0 -1 0 792)" d="M108.092 656.52L108.092 565.37" stroke="#000000" stroke-width="0.75" stroke-linecap="square" fill="none" /><path id="162" transform="matrix(1 0 0 -1 0 792)" d="M108.092 656.52L133.311 656.52L133.311 656.52L133.311 565.37" stroke="#000000" stroke-width="0.75" stroke-linecap="square" fill="none" /><path id="163" transform="matrix(1 0 0 -1 0 792)" d="M108.092 565.37L133.311 565.37" stroke="#000000" stroke-width="0.75" stroke-linecap="square" fill="none" /><path id="168" transform="matrix(1 0 0 -1 0 792)" d="M108.092 655.77L108.092 565.37L108.092 565.37L132.561 565.37" stroke="#000000" stroke-width="0.75" stroke-linecap="square" fill="none" /><path id="169" transform="matrix(1 0 0 -1 0 792)" d="M133.311 656.52L133.311 565.37" stroke="#000000" stroke-width="0.75" stroke-linecap="square" fill="none" /><path id="170" transform="matrix(1 0 0 -1 0 792)" d="M133.311 656.52L188.97 656.52L188.97 656.52L188.97 565.37" stroke="#000000" stroke-width="0.75" stroke-linecap="square" fill="none" /><path id="171" transform="matrix(1 0 0 -1 0 792)" d="M133.311 565.37L188.97 565.37" stroke="#000000" stroke-width="0.75" stroke-linecap="square" fill="none" /><path id="180" transform="matrix(1 0 0 -1 0 792)" d="M134.061 565.37L188.22 565.37" stroke="#000000" stroke-width="0.75" stroke-linecap="square" fill="none" /><path id="181" transform="matrix(1 0 0 -1 0 792)" d="M188.97 656.52L188.97 565.37" stroke="#000000" stroke-width="0.75" stroke-linecap="square" fill="none" /><path id="182" transform="matrix(1 0 0 -1 0 792)" d="M188.97 656.52L259.971 656.52L259.971 656.52L259.971 565.37" stroke="#000000" stroke-width="0.75" stroke-linecap="square" fill="none" /><path id="183" transform="matrix(1 0 0 -1 0 792)" d="M188.97 565.37L259.971 565.37" stroke="#000000" stroke-width="0.75" stroke-linecap="square" fill="none" /><path id="195" transform="matrix(1 0 0 -1 0 792)" d="M189.72 565.37L259.221 565.37" stroke="#000000" stroke-width="0.75" stroke-linecap="square" fill="none" /><path id="196" transform="matrix(1 0 0 -1 0 792)" d="M259.971 656.52L259.971 565.37" stroke="#000000" stroke-width="0.75" stroke-linecap="square" fill="none" /><path id="197" transform="matrix(1 0 0 -1 0 792)" d="M259.971 656.52L372.252 656.52L372.252 656.52L372.252 565.37" stroke="#000000" stroke-width="0.75" stroke-linecap="square" fill="none" /><path id="198" transform="matrix(1 0 0 -1 0 792)" d="M259.971 565.37L372.252 565.37" stroke="#000000" stroke-width="0.75" stroke-linecap="square" fill="none" /><path id="227" transform="matrix(1 0 0 -1 0 792)" d="M260.721 565.37L371.502 565.37" stroke="#000000" stroke-width="0.75" stroke-linecap="square" fill="none" /><path id="228" transform="matrix(1 0 0 -1 0 792)" d="M372.252 656.52L372.252 565.37" stroke="#000000" stroke-width="0.75" stroke-linecap="square" fill="none" /><path id="229" transform="matrix(1 0 0 -1 0 792)" d="M372.252 656.52L440.074 656.52L440.074 656.52L440.074 565.37" stroke="#000000" stroke-width="0.75" stroke-linecap="square" fill="none" /><path id="230" transform="matrix(1 0 0 -1 0 792)" d="M372.252 565.37L440.074 565.37" stroke="#000000" stroke-width="0.75" stroke-linecap="square" fill="none" /><path id="323" transform="matrix(1 0 0 -1 0 792)" d="M373.002 565.37L439.324 565.37" stroke="#000000" stroke-width="0.75" stroke-linecap="square" fill="none" /><path id="324" transform="matrix(1 0 0 -1 0 792)" d="M440.074 656.52L440.074 565.37" stroke="#000000" stroke-width="0.75" stroke-linecap="square" fill="none" /><path id="325" transform="matrix(1 0 0 -1 0 792)" d="M440.074 656.52L503.908 656.52L503.908 656.52L503.908 565.37" stroke="#000000" stroke-width="0.75" stroke-linecap="square" fill="none" /><path id="326" transform="matrix(1 0 0 -1 0 792)" d="M440.074 565.37L503.908 565.37" stroke="#000000" stroke-width="0.75" stroke-linecap="square" fill="none" /><path id="329" transform="matrix(1 0 0 -1 0 792)" d="M503.908 655.77L503.908 565.37" stroke="#000000" stroke-width="0.75" stroke-linecap="square" fill="none" /><path id="330" transform="matrix(1 0 0 -1 0 792)" d="M440.824 565.37L503.908 565.37" stroke="#000000" stroke-width="0.75" stroke-linecap="square" fill="none" /></g></g></svg>