<svg xmlns="http://www.w3.org/2000/svg" xmlns:xlink="http://www.w3.org/1999/xlink" id="body_103" preserveAspectRatio="xMinYMin meet" viewBox="0 0 816 1056"><defs><clipPath id="1"><path id="" clip-rule="evenodd" transform="matrix(1 0 0 1 0 0)" d="M0 792L0 0L0 0L612 0L612 0L612 792L612 792L0 792z" /></clipPath></defs><g transform="matrix(1.333333 0 0 1.333333 0 0)"><g clip-path="url(#1)"><path id="957" transform="matrix(1 0 0 -1 0 792)" d="M108.092 434.22L108.092 418.17" stroke="#000000" stroke-width="0.75" stroke-linecap="square" fill="none" /><path id="958" transform="matrix(1 0 0 -1 0 792)" d="M108.092 434.22L155.318 434.22L155.318 434.22L155.318 418.17" stroke="#000000" stroke-width="0.75" stroke-linecap="square" fill="none" /><path id="959" transform="matrix(1 0 0 -1 0 792)" d="M108.092 418.17L155.318 418.17" stroke="#000000" stroke-width="0.75" stroke-linecap="square" fill="none" /><path id="970" transform="matrix(1 0 0 -1 0 792)" d="M108.092 434.22L108.092 418.92" stroke="#000000" stroke-width="0.75" stroke-linecap="square" fill="none" /><path id="971" transform="matrix(1 0 0 -1 0 792)" d="M108.092 434.22L154.568 434.22" stroke="#000000" stroke-width="0.75" stroke-linecap="square" fill="none" /><path id="972" transform="matrix(1 0 0 -1 0 792)" d="M155.318 434.22L155.318 418.17" stroke="#000000" stroke-width="0.75" stroke-linecap="square" fill="none" /><path id="973" transform="matrix(1 0 0 -1 0 792)" d="M155.318 434.22L462.172 434.22L462.172 434.22L462.172 418.17" stroke="#000000" stroke-width="0.75" stroke-linecap="square" fill="none" /><path id="974" transform="matrix(1 0 0 -1 0 792)" d="M155.318 418.17L462.172 418.17" stroke="#000000" stroke-width="0.75" stroke-linecap="square" fill="none" /><path id="998" transform="matrix(1 0 0 -1 0 792)" d="M156.068 434.22L461.422 434.22" stroke="#000000" stroke-width="0.75" stroke-linecap="square" fill="none" /><path id="999" transform="matrix(1 0 0 -1 0 792)" d="M462.172 434.22L462.172 418.17" stroke="#000000" stroke-width="0.75" stroke-linecap="square" fill="none" /><path id="1000" transform="matrix(1 0 0 -1 0 792)" d="M462.172 434.22L503.908 434.22L503.908 434.22L503.908 418.17" stroke="#000000" stroke-width="0.75" stroke-linecap="square" fill="none" /><path id="1001" transform="matrix(1 0 0 -1 0 792)" d="M462.172 418.17L503.908 418.17" stroke="#000000" stroke-width="0.75" stroke-linecap="square" fill="none" /><path id="1010" transform="matrix(1 0 0 -1 0 792)" d="M462.922 434.22L503.908 434.22L503.908 434.22L503.908 418.92" stroke="#000000" stroke-width="0.75" stroke-linecap="square" fill="none" /><path id="1011" transform="matrix(1 0 0 -1 0 792)" d="M108.092 418.17L108.092 391.82" stroke="#000000" stroke-width="0.75" stroke-linecap="square" fill="none" /><path id="1012" transform="matrix(1 0 0 -1 0 792)" d="M108.092 418.17L155.318 418.17L155.318 418.17L155.318 391.82" stroke="#000000" stroke-width="0.75" stroke-linecap="square" fill="none" /><path id="1013" transform="matrix(1 0 0 -1 0 792)" d="M108.092 391.82L155.318 391.82" stroke="#000000" stroke-width="0.75" stroke-linecap="square" fill="none" /><path id="1018" transform="matrix(1 0 0 -1 0 792)" d="M108.092 417.42L108.092 392.57" stroke="#000000" stroke-width="0.75" stroke-linecap="square" fill="none" /><path id="1019" transform="matrix(1 0 0 -1 0 792)" d="M155.318 418.17L155.318 391.82" stroke="#000000" stroke-width="0.75" stroke-linecap="square" fill="none" /><path id="1020" transform="matrix(1 0 0 -1 0 792)" d="M155.318 418.17L462.172 418.17L462.172 418.17L462.172 391.82" stroke="#000000" stroke-width="0.75" stroke-linecap="square" fill="none" /><path id="1021" transform="matrix(1 0 0 -1 0 792)" d="M155.318 391.82L462.172 391.82" stroke="#000000" stroke-width="0.75" stroke-linecap="square" fill="none" /><path id="1095" transform="matrix(1 0 0 -1 0 792)" d="M462.172 418.17L462.172 391.82" stroke="#000000" stroke-width="0.75" stroke-linecap="square" fill="none" /><path id="1096" transform="matrix(1 0 0 -1 0 792)" d="M462.172 418.17L503.908 418.17L503.908 418.17L503.908 391.82" stroke="#000000" stroke-width="0.75" stroke-linecap="square" fill="none" /><path id="1097" transform="matrix(1 0 0 -1 0 792)" d="M462.172 391.82L503.908 391.82" stroke="#000000" stroke-width="0.75" stroke-linecap="square" fill="none" /><path id="1103" transform="matrix(1 0 0 -1 0 792)" d="M503.908 417.42L503.908 392.57" stroke="#000000" stroke-width="0.75" stroke-linecap="square" fill="none" /><path id="1104" transform="matrix(1 0 0 -1 0 792)" d="M108.092 391.82L108.092 376.27" stroke="#000000" stroke-width="0.75" stroke-linecap="square" fill="none" /><path id="1105" transform="matrix(1 0 0 -1 0 792)" d="M108.092 391.82L155.318 391.82L155.318 391.82L155.318 376.27" stroke="#000000" stroke-width="0.75" stroke-linecap="square" fill="none" /><path id="1106" transform="matrix(1 0 0 -1 0 792)" d="M108.092 376.27L155.318 376.27" stroke="#000000" stroke-width="0.75" stroke-linecap="square" fill="none" /><path id="1111" transform="matrix(1 0 0 -1 0 792)" d="M108.092 391.07L108.092 377.02" stroke="#000000" stroke-width="0.75" stroke-linecap="square" fill="none" /><path id="1112" transform="matrix(1 0 0 -1 0 792)" d="M155.318 391.82L155.318 376.27" stroke="#000000" stroke-width="0.75" stroke-linecap="square" fill="none" /><path id="1113" transform="matrix(1 0 0 -1 0 792)" d="M155.318 391.82L462.172 391.82L462.172 391.82L462.172 376.27" stroke="#000000" stroke-width="0.75" stroke-linecap="square" fill="none" /><path id="1114" transform="matrix(1 0 0 -1 0 792)" d="M155.318 376.27L462.172 376.27" stroke="#000000" stroke-width="0.75" stroke-linecap="square" fill="none" /><path id="1185" transform="matrix(1 0 0 -1 0 792)" d="M462.172 391.82L462.172 376.27" stroke="#000000" stroke-width="0.75" stroke-linecap="square" fill="none" /><path id="1186" transform="matrix(1 0 0 -1 0 792)" d="M462.172 391.82L503.908 391.82L503.908 391.82L503.908 376.27" stroke="#000000" stroke-width="0.75" stroke-linecap="square" fill="none" /><path id="1187" transform="matrix(1 0 0 -1 0 792)" d="M462.172 376.27L503.908 376.27" stroke="#000000" stroke-width="0.75" stroke-linecap="square" fill="none" /><path id="1191" transform="matrix(1 0 0 -1 0 792)" d="M503.908 391.07L503.908 377.02" stroke="#000000" stroke-width="0.75" stroke-linecap="square" fill="none" /><path id="1192" transform="matrix(1 0 0 -1 0 792)" d="M108.092 376.27L108.092 360.72" stroke="#000000" stroke-width="0.75" stroke-linecap="square" fill="none" /><path id="1193" transform="matrix(1 0 0 -1 0 792)" d="M108.092 376.27L155.318 376.27L155.318 376.27L155.318 360.72" stroke="#000000" stroke-width="0.75" stroke-linecap="square" fill="none" /><path id="1194" transform="matrix(1 0 0 -1 0 792)" d="M108.092 360.72L155.318 360.72" stroke="#000000" stroke-width="0.75" stroke-linecap="square" fill="none" /><path id="1199" transform="matrix(1 0 0 -1 0 792)" d="M108.092 375.52L108.092 361.47" stroke="#000000" stroke-width="0.75" stroke-linecap="square" fill="none" /><path id="1200" transform="matrix(1 0 0 -1 0 792)" d="M155.318 376.27L155.318 360.72" stroke="#000000" stroke-width="0.75" stroke-linecap="square" fill="none" /><path id="1201" transform="matrix(1 0 0 -1 0 792)" d="M155.318 376.27L462.172 376.27L462.172 376.27L462.172 360.72" stroke="#000000" stroke-width="0.75" stroke-linecap="square" fill="none" /><path id="1202" transform="matrix(1 0 0 -1 0 792)" d="M155.318 360.72L462.172 360.72" stroke="#000000" stroke-width="0.75" stroke-linecap="square" fill="none" /><path id="1214" transform="matrix(1 0 0 -1 0 792)" d="M462.172 376.27L462.172 360.72" stroke="#000000" stroke-width="0.75" stroke-linecap="square" fill="none" /><path id="1215" transform="matrix(1 0 0 -1 0 792)" d="M462.172 376.27L503.908 376.27L503.908 376.27L503.908 360.72" stroke="#000000" stroke-width="0.75" stroke-linecap="square" fill="none" /><path id="1216" transform="matrix(1 0 0 -1 0 792)" d="M462.172 360.72L503.908 360.72" stroke="#000000" stroke-width="0.75" stroke-linecap="square" fill="none" /><path id="1223" transform="matrix(1 0 0 -1 0 792)" d="M503.908 375.52L503.908 361.47" stroke="#000000" stroke-width="0.75" stroke-linecap="square" fill="none" /><path id="1224" transform="matrix(1 0 0 -1 0 792)" d="M108.092 360.72L108.092 345.17" stroke="#000000" stroke-width="0.75" stroke-linecap="square" fill="none" /><path id="1225" transform="matrix(1 0 0 -1 0 792)" d="M108.092 360.72L155.318 360.72L155.318 360.72L155.318 345.17" stroke="#000000" stroke-width="0.75" stroke-linecap="square" fill="none" /><path id="1226" transform="matrix(1 0 0 -1 0 792)" d="M108.092 345.17L155.318 345.17" stroke="#000000" stroke-width="0.75" stroke-linecap="square" fill="none" /><path id="1231" transform="matrix(1 0 0 -1 0 792)" d="M108.092 359.97L108.092 345.92" stroke="#000000" stroke-width="0.75" stroke-linecap="square" fill="none" /><path id="1232" transform="matrix(1 0 0 -1 0 792)" d="M155.318 360.72L155.318 345.17" stroke="#000000" stroke-width="0.75" stroke-linecap="square" fill="none" /><path id="1233" transform="matrix(1 0 0 -1 0 792)" d="M155.318 360.72L462.172 360.72L462.172 360.72L462.172 345.17" stroke="#000000" stroke-width="0.75" stroke-linecap="square" fill="none" /><path id="1234" transform="matrix(1 0 0 -1 0 792)" d="M155.318 345.17L462.172 345.17" stroke="#000000" stroke-width="0.75" stroke-linecap="square" fill="none" /><path id="1261" transform="matrix(1 0 0 -1 0 792)" d="M462.172 360.72L462.172 345.17" stroke="#000000" stroke-width="0.75" stroke-linecap="square" fill="none" /><path id="1262" transform="matrix(1 0 0 -1 0 792)" d="M462.172 360.72L503.908 360.72L503.908 360.72L503.908 345.17" stroke="#000000" stroke-width="0.75" stroke-linecap="square" fill="none" /><path id="1263" transform="matrix(1 0 0 -1 0 792)" d="M462.172 345.17L503.908 345.17" stroke="#000000" stroke-width="0.75" stroke-linecap="square" fill="none" /><path id="1270" transform="matrix(1 0 0 -1 0 792)" d="M503.908 359.97L503.908 345.92" stroke="#000000" stroke-width="0.75" stroke-linecap="square" fill="none" /><path id="1271" transform="matrix(1 0 0 -1 0 792)" d="M108.092 345.17L108.092 329.62" stroke="#000000" stroke-width="0.75" stroke-linecap="square" fill="none" /><path id="1272" transform="matrix(1 0 0 -1 0 792)" d="M108.092 345.17L155.318 345.17L155.318 345.17L155.318 329.62" stroke="#000000" stroke-width="0.75" stroke-linecap="square" fill="none" /><path id="1273" transform="matrix(1 0 0 -1 0 792)" d="M108.092 329.62L155.318 329.62" stroke="#000000" stroke-width="0.75" stroke-linecap="square" fill="none" /><path id="1278" transform="matrix(1 0 0 -1 0 792)" d="M108.092 344.42L108.092 330.37" stroke="#000000" stroke-width="0.75" stroke-linecap="square" fill="none" /><path id="1279" transform="matrix(1 0 0 -1 0 792)" d="M155.318 345.17L155.318 329.62" stroke="#000000" stroke-width="0.75" stroke-linecap="square" fill="none" /><path id="1280" transform="matrix(1 0 0 -1 0 792)" d="M155.318 345.17L462.172 345.17L462.172 345.17L462.172 329.62" stroke="#000000" stroke-width="0.75" stroke-linecap="square" fill="none" /><path id="1281" transform="matrix(1 0 0 -1 0 792)" d="M155.318 329.62L462.172 329.62" stroke="#000000" stroke-width="0.75" stroke-linecap="square" fill="none" /><path id="1293" transform="matrix(1 0 0 -1 0 792)" d="M462.172 345.17L462.172 329.62" stroke="#000000" stroke-width="0.75" stroke-linecap="square" fill="none" /><path id="1294" transform="matrix(1 0 0 -1 0 792)" d="M462.172 345.17L503.908 345.17L503.908 345.17L503.908 329.62" stroke="#000000" stroke-width="0.75" stroke-linecap="square" fill="none" /><path id="1295" transform="matrix(1 0 0 -1 0 792)" d="M462.172 329.62L503.908 329.62" stroke="#000000" stroke-width="0.75" stroke-linecap="square" fill="none" /><path id="1301" transform="matrix(1 0 0 -1 0 792)" d="M503.908 344.42L503.908 330.37" stroke="#000000" stroke-width="0.75" stroke-linecap="square" fill="none" /><path id="1302" transform="matrix(1 0 0 -1 0 792)" d="M108.092 329.62L108.092 314.07" stroke="#000000" stroke-width="0.75" stroke-linecap="square" fill="none" /><path id="1303" transform="matrix(1 0 0 -1 0 792)" d="M108.092 329.62L155.318 329.62L155.318 329.62L155.318 314.07" stroke="#000000" stroke-width="0.75" stroke-linecap="square" fill="none" /><path id="1304" transform="matrix(1 0 0 -1 0 792)" d="M108.092 314.07L155.318 314.07" stroke="#000000" stroke-width="0.75" stroke-linecap="square" fill="none" /><path id="1309" transform="matrix(1 0 0 -1 0 792)" d="M108.092 328.87L108.092 314.82" stroke="#000000" stroke-width="0.75" stroke-linecap="square" fill="none" /><path id="1310" transform="matrix(1 0 0 -1 0 792)" d="M155.318 329.62L155.318 314.07" stroke="#000000" stroke-width="0.75" stroke-linecap="square" fill="none" /><path id="1311" transform="matrix(1 0 0 -1 0 792)" d="M155.318 329.62L462.172 329.62L462.172 329.62L462.172 314.07" stroke="#000000" stroke-width="0.75" stroke-linecap="square" fill="none" /><path id="1312" transform="matrix(1 0 0 -1 0 792)" d="M155.318 314.07L462.172 314.07" stroke="#000000" stroke-width="0.75" stroke-linecap="square" fill="none" /><path id="1325" transform="matrix(1 0 0 -1 0 792)" d="M462.172 329.62L462.172 314.07" stroke="#000000" stroke-width="0.75" stroke-linecap="square" fill="none" /><path id="1326" transform="matrix(1 0 0 -1 0 792)" d="M462.172 329.62L503.908 329.62L503.908 329.62L503.908 314.07" stroke="#000000" stroke-width="0.75" stroke-linecap="square" fill="none" /><path id="1327" transform="matrix(1 0 0 -1 0 792)" d="M462.172 314.07L503.908 314.07" stroke="#000000" stroke-width="0.75" stroke-linecap="square" fill="none" /><path id="1334" transform="matrix(1 0 0 -1 0 792)" d="M503.908 328.87L503.908 314.82" stroke="#000000" stroke-width="0.75" stroke-linecap="square" fill="none" /><path id="1335" transform="matrix(1 0 0 -1 0 792)" d="M108.092 314.07L108.092 298.52" stroke="#000000" stroke-width="0.75" stroke-linecap="square" fill="none" /><path id="1336" transform="matrix(1 0 0 -1 0 792)" d="M108.092 314.07L155.318 314.07L155.318 314.07L155.318 298.52" stroke="#000000" stroke-width="0.75" stroke-linecap="square" fill="none" /><path id="1337" transform="matrix(1 0 0 -1 0 792)" d="M108.092 298.52L155.318 298.52" stroke="#000000" stroke-width="0.75" stroke-linecap="square" fill="none" /><path id="1342" transform="matrix(1 0 0 -1 0 792)" d="M108.092 313.32L108.092 299.27" stroke="#000000" stroke-width="0.75" stroke-linecap="square" fill="none" /><path id="1343" transform="matrix(1 0 0 -1 0 792)" d="M155.318 314.07L155.318 298.52" stroke="#000000" stroke-width="0.75" stroke-linecap="square" fill="none" /><path id="1344" transform="matrix(1 0 0 -1 0 792)" d="M155.318 314.07L462.172 314.07L462.172 314.07L462.172 298.52" stroke="#000000" stroke-width="0.75" stroke-linecap="square" fill="none" /><path id="1345" transform="matrix(1 0 0 -1 0 792)" d="M155.318 298.52L462.172 298.52" stroke="#000000" stroke-width="0.75" stroke-linecap="square" fill="none" /><path id="1377" transform="matrix(1 0 0 -1 0 792)" d="M462.172 314.07L462.172 298.52" stroke="#000000" stroke-width="0.75" stroke-linecap="square" fill="none" /><path id="1378" transform="matrix(1 0 0 -1 0 792)" d="M462.172 314.07L503.908 314.07L503.908 314.07L503.908 298.52" stroke="#000000" stroke-width="0.75" stroke-linecap="square" fill="none" /><path id="1379" transform="matrix(1 0 0 -1 0 792)" d="M462.172 298.52L503.908 298.52" stroke="#000000" stroke-width="0.75" stroke-linecap="square" fill="none" /><path id="1385" transform="matrix(1 0 0 -1 0 792)" d="M503.908 313.32L503.908 299.27" stroke="#000000" stroke-width="0.75" stroke-linecap="square" fill="none" /><path id="1386" transform="matrix(1 0 0 -1 0 792)" d="M108.092 298.52L108.092 282.97" stroke="#000000" stroke-width="0.75" stroke-linecap="square" fill="none" /><path id="1387" transform="matrix(1 0 0 -1 0 792)" d="M108.092 298.52L155.318 298.52L155.318 298.52L155.318 282.97" stroke="#000000" stroke-width="0.75" stroke-linecap="square" fill="none" /><path id="1388" transform="matrix(1 0 0 -1 0 792)" d="M108.092 282.97L155.318 282.97" stroke="#000000" stroke-width="0.75" stroke-linecap="square" fill="none" /><path id="1393" transform="matrix(1 0 0 -1 0 792)" d="M108.092 297.77L108.092 283.72" stroke="#000000" stroke-width="0.75" stroke-linecap="square" fill="none" /><path id="1394" transform="matrix(1 0 0 -1 0 792)" d="M155.318 298.52L155.318 282.97" stroke="#000000" stroke-width="0.75" stroke-linecap="square" fill="none" /><path id="1395" transform="matrix(1 0 0 -1 0 792)" d="M155.318 298.52L462.172 298.52L462.172 298.52L462.172 282.97" stroke="#000000" stroke-width="0.75" stroke-linecap="square" fill="none" /><path id="1396" transform="matrix(1 0 0 -1 0 792)" d="M155.318 282.97L462.172 282.97" stroke="#000000" stroke-width="0.75" stroke-linecap="square" fill="none" /><path id="1423" transform="matrix(1 0 0 -1 0 792)" d="M462.172 298.52L462.172 282.97" stroke="#000000" stroke-width="0.75" stroke-linecap="square" fill="none" /><path id="1424" transform="matrix(1 0 0 -1 0 792)" d="M462.172 298.52L503.908 298.52L503.908 298.52L503.908 282.97" stroke="#000000" stroke-width="0.75" stroke-linecap="square" fill="none" /><path id="1425" transform="matrix(1 0 0 -1 0 792)" d="M462.172 282.97L503.908 282.97" stroke="#000000" stroke-width="0.75" stroke-linecap="square" fill="none" /><path id="1431" transform="matrix(1 0 0 -1 0 792)" d="M503.908 297.77L503.908 283.72" stroke="#000000" stroke-width="0.75" stroke-linecap="square" fill="none" /><path id="1432" transform="matrix(1 0 0 -1 0 792)" d="M108.092 282.97L108.092 267.42" stroke="#000000" stroke-width="0.75" stroke-linecap="square" fill="none" /><path id="1433" transform="matrix(1 0 0 -1 0 792)" d="M108.092 282.97L155.318 282.97L155.318 282.97L155.318 267.42" stroke="#000000" stroke-width="0.75" stroke-linecap="square" fill="none" /><path id="1434" transform="matrix(1 0 0 -1 0 792)" d="M108.092 267.42L155.318 267.42" stroke="#000000" stroke-width="0.75" stroke-linecap="square" fill="none" /><path id="1439" transform="matrix(1 0 0 -1 0 792)" d="M108.092 282.22L108.092 268.17" stroke="#000000" stroke-width="0.75" stroke-linecap="square" fill="none" /><path id="1440" transform="matrix(1 0 0 -1 0 792)" d="M155.318 282.97L155.318 267.42" stroke="#000000" stroke-width="0.75" stroke-linecap="square" fill="none" /><path id="1441" transform="matrix(1 0 0 -1 0 792)" d="M155.318 282.97L462.172 282.97L462.172 282.97L462.172 267.42" stroke="#000000" stroke-width="0.75" stroke-linecap="square" fill="none" /><path id="1442" transform="matrix(1 0 0 -1 0 792)" d="M155.318 267.42L462.172 267.42" stroke="#000000" stroke-width="0.75" stroke-linecap="square" fill="none" /><path id="1470" transform="matrix(1 0 0 -1 0 792)" d="M462.172 282.97L462.172 267.42" stroke="#000000" stroke-width="0.75" stroke-linecap="square" fill="none" /><path id="1471" transform="matrix(1 0 0 -1 0 792)" d="M462.172 282.97L503.908 282.97L503.908 282.97L503.908 267.42" stroke="#000000" stroke-width="0.75" stroke-linecap="square" fill="none" /><path id="1472" transform="matrix(1 0 0 -1 0 792)" d="M462.172 267.42L503.908 267.42" stroke="#000000" stroke-width="0.75" stroke-linecap="square" fill="none" /><path id="1478" transform="matrix(1 0 0 -1 0 792)" d="M503.908 282.22L503.908 268.17" stroke="#000000" stroke-width="0.75" stroke-linecap="square" fill="none" /><path id="1479" transform="matrix(1 0 0 -1 0 792)" d="M108.092 267.42L108.092 251.87" stroke="#000000" stroke-width="0.75" stroke-linecap="square" fill="none" /><path id="1480" transform="matrix(1 0 0 -1 0 792)" d="M108.092 267.42L155.318 267.42L155.318 267.42L155.318 251.87" stroke="#000000" stroke-width="0.75" stroke-linecap="square" fill="none" /><path id="1481" transform="matrix(1 0 0 -1 0 792)" d="M108.092 251.87L155.318 251.87" stroke="#000000" stroke-width="0.75" stroke-linecap="square" fill="none" /><path id="1486" transform="matrix(1 0 0 -1 0 792)" d="M108.092 266.67L108.092 252.62" stroke="#000000" stroke-width="0.75" stroke-linecap="square" fill="none" /><path id="1487" transform="matrix(1 0 0 -1 0 792)" d="M155.318 267.42L155.318 251.87" stroke="#000000" stroke-width="0.75" stroke-linecap="square" fill="none" /><path id="1488" transform="matrix(1 0 0 -1 0 792)" d="M155.318 267.42L462.172 267.42L462.172 267.42L462.172 251.87" stroke="#000000" stroke-width="0.75" stroke-linecap="square" fill="none" /><path id="1489" transform="matrix(1 0 0 -1 0 792)" d="M155.318 251.87L462.172 251.87" stroke="#000000" stroke-width="0.75" stroke-linecap="square" fill="none" /><path id="1507" transform="matrix(1 0 0 -1 0 792)" d="M462.172 267.42L462.172 251.87" stroke="#000000" stroke-width="0.75" stroke-linecap="square" fill="none" /><path id="1508" transform="matrix(1 0 0 -1 0 792)" d="M462.172 267.42L503.908 267.42L503.908 267.42L503.908 251.87" stroke="#000000" stroke-width="0.75" stroke-linecap="square" fill="none" /><path id="1509" transform="matrix(1 0 0 -1 0 792)" d="M462.172 251.87L503.908 251.87" stroke="#000000" stroke-width="0.75" stroke-linecap="square" fill="none" /><path id="1515" transform="matrix(1 0 0 -1 0 792)" d="M503.908 266.67L503.908 252.62" stroke="#000000" stroke-width="0.75" stroke-linecap="square" fill="none" /><path id="1516" transform="matrix(1 0 0 -1 0 792)" d="M108.092 251.87L108.092 236.32" stroke="#000000" stroke-width="0.75" stroke-linecap="square" fill="none" /><path id="1517" transform="matrix(1 0 0 -1 0 792)" d="M108.092 251.87L155.318 251.87L155.318 251.87L155.318 236.32" stroke="#000000" stroke-width="0.75" stroke-linecap="square" fill="none" /><path id="1518" transform="matrix(1 0 0 -1 0 792)" d="M108.092 236.32L155.318 236.32" stroke="#000000" stroke-width="0.75" stroke-linecap="square" fill="none" /><path id="1523" transform="matrix(1 0 0 -1 0 792)" d="M108.092 251.12L108.092 237.07" stroke="#000000" stroke-width="0.75" stroke-linecap="square" fill="none" /><path id="1524" transform="matrix(1 0 0 -1 0 792)" d="M155.318 251.87L155.318 236.32" stroke="#000000" stroke-width="0.75" stroke-linecap="square" fill="none" /><path id="1525" transform="matrix(1 0 0 -1 0 792)" d="M155.318 251.87L462.172 251.87L462.172 251.87L462.172 236.32" stroke="#000000" stroke-width="0.75" stroke-linecap="square" fill="none" /><path id="1526" transform="matrix(1 0 0 -1 0 792)" d="M155.318 236.32L462.172 236.32" stroke="#000000" stroke-width="0.75" stroke-linecap="square" fill="none" /><path id="1551" transform="matrix(1 0 0 -1 0 792)" d="M462.172 251.87L462.172 236.32" stroke="#000000" stroke-width="0.75" stroke-linecap="square" fill="none" /><path id="1552" transform="matrix(1 0 0 -1 0 792)" d="M462.172 251.87L503.908 251.87L503.908 251.87L503.908 236.32" stroke="#000000" stroke-width="0.75" stroke-linecap="square" fill="none" /><path id="1553" transform="matrix(1 0 0 -1 0 792)" d="M462.172 236.32L503.908 236.32" stroke="#000000" stroke-width="0.75" stroke-linecap="square" fill="none" /><path id="1559" transform="matrix(1 0 0 -1 0 792)" d="M503.908 251.12L503.908 237.07" stroke="#000000" stroke-width="0.75" stroke-linecap="square" fill="none" /><path id="1560" transform="matrix(1 0 0 -1 0 792)" d="M108.092 236.32L108.092 220.77" stroke="#000000" stroke-width="0.75" stroke-linecap="square" fill="none" /><path id="1561" transform="matrix(1 0 0 -1 0 792)" d="M108.092 236.32L155.318 236.32L155.318 236.32L155.318 220.77" stroke="#000000" stroke-width="0.75" stroke-linecap="square" fill="none" /><path id="1562" transform="matrix(1 0 0 -1 0 792)" d="M108.092 220.77L155.318 220.77" stroke="#000000" stroke-width="0.75" stroke-linecap="square" fill="none" /><path id="1567" transform="matrix(1 0 0 -1 0 792)" d="M108.092 235.57L108.092 221.52" stroke="#000000" stroke-width="0.75" stroke-linecap="square" fill="none" /><path id="1568" transform="matrix(1 0 0 -1 0 792)" d="M155.318 236.32L155.318 220.77" stroke="#000000" stroke-width="0.75" stroke-linecap="square" fill="none" /><path id="1569" transform="matrix(1 0 0 -1 0 792)" d="M155.318 236.32L462.172 236.32L462.172 236.32L462.172 220.77" stroke="#000000" stroke-width="0.75" stroke-linecap="square" fill="none" /><path id="1570" transform="matrix(1 0 0 -1 0 792)" d="M155.318 220.77L462.172 220.77" stroke="#000000" stroke-width="0.75" stroke-linecap="square" fill="none" /><path id="1587" transform="matrix(1 0 0 -1 0 792)" d="M462.172 236.32L462.172 220.77" stroke="#000000" stroke-width="0.75" stroke-linecap="square" fill="none" /><path id="1588" transform="matrix(1 0 0 -1 0 792)" d="M462.172 236.32L503.908 236.32L503.908 236.32L503.908 220.77" stroke="#000000" stroke-width="0.75" stroke-linecap="square" fill="none" /><path id="1589" transform="matrix(1 0 0 -1 0 792)" d="M462.172 220.77L503.908 220.77" stroke="#000000" stroke-width="0.75" stroke-linecap="square" fill="none" /><path id="1593" transform="matrix(1 0 0 -1 0 792)" d="M503.908 235.57L503.908 221.52" stroke="#000000" stroke-width="0.75" stroke-linecap="square" fill="none" /><path id="1594" transform="matrix(1 0 0 -1 0 792)" d="M108.092 220.77L108.092 205.22" stroke="#000000" stroke-width="0.75" stroke-linecap="square" fill="none" /><path id="1595" transform="matrix(1 0 0 -1 0 792)" d="M108.092 220.77L155.318 220.77L155.318 220.77L155.318 205.22" stroke="#000000" stroke-width="0.75" stroke-linecap="square" fill="none" /><path id="1596" transform="matrix(1 0 0 -1 0 792)" d="M108.092 205.22L155.318 205.22" stroke="#000000" stroke-width="0.75" stroke-linecap="square" fill="none" /><path id="1601" transform="matrix(1 0 0 -1 0 792)" d="M108.092 220.02L108.092 205.97" stroke="#000000" stroke-width="0.75" stroke-linecap="square" fill="none" /><path id="1602" transform="matrix(1 0 0 -1 0 792)" d="M155.318 220.77L155.318 205.22" stroke="#000000" stroke-width="0.75" stroke-linecap="square" fill="none" /><path id="1603" transform="matrix(1 0 0 -1 0 792)" d="M155.318 220.77L462.172 220.77L462.172 220.77L462.172 205.22" stroke="#000000" stroke-width="0.75" stroke-linecap="square" fill="none" /><path id="1604" transform="matrix(1 0 0 -1 0 792)" d="M155.318 205.22L462.172 205.22" stroke="#000000" stroke-width="0.75" stroke-linecap="square" fill="none" /><path id="1652" transform="matrix(1 0 0 -1 0 792)" d="M462.172 220.77L462.172 205.22" stroke="#000000" stroke-width="0.75" stroke-linecap="square" fill="none" /><path id="1653" transform="matrix(1 0 0 -1 0 792)" d="M462.172 220.77L503.908 220.77L503.908 220.77L503.908 205.22" stroke="#000000" stroke-width="0.75" stroke-linecap="square" fill="none" /><path id="1654" transform="matrix(1 0 0 -1 0 792)" d="M462.172 205.22L503.908 205.22" stroke="#000000" stroke-width="0.75" stroke-linecap="square" fill="none" /><path id="1661" transform="matrix(1 0 0 -1 0 792)" d="M503.908 220.02L503.908 205.97" stroke="#000000" stroke-width="0.75" stroke-linecap="square" fill="none" /><path id="1662" transform="matrix(1 0 0 -1 0 792)" d="M108.092 205.22L108.092 189.67" stroke="#000000" stroke-width="0.75" stroke-linecap="square" fill="none" /><path id="1663" transform="matrix(1 0 0 -1 0 792)" d="M108.092 205.22L155.318 205.22L155.318 205.22L155.318 189.67" stroke="#000000" stroke-width="0.75" stroke-linecap="square" fill="none" /><path id="1664" transform="matrix(1 0 0 -1 0 792)" d="M108.092 189.67L155.318 189.67" stroke="#000000" stroke-width="0.75" stroke-linecap="square" fill="none" /><path id="1669" transform="matrix(1 0 0 -1 0 792)" d="M108.092 204.47L108.092 190.42" stroke="#000000" stroke-width="0.75" stroke-linecap="square" fill="none" /><path id="1670" transform="matrix(1 0 0 -1 0 792)" d="M155.318 205.22L155.318 189.67" stroke="#000000" stroke-width="0.75" stroke-linecap="square" fill="none" /><path id="1671" transform="matrix(1 0 0 -1 0 792)" d="M155.318 205.22L462.172 205.22L462.172 205.22L462.172 189.67" stroke="#000000" stroke-width="0.75" stroke-linecap="square" fill="none" /><path id="1672" transform="matrix(1 0 0 -1 0 792)" d="M155.318 189.67L462.172 189.67" stroke="#000000" stroke-width="0.75" stroke-linecap="square" fill="none" /><path id="1692" transform="matrix(1 0 0 -1 0 792)" d="M462.172 205.22L462.172 189.67" stroke="#000000" stroke-width="0.75" stroke-linecap="square" fill="none" /><path id="1693" transform="matrix(1 0 0 -1 0 792)" d="M462.172 205.22L503.908 205.22L503.908 205.22L503.908 189.67" stroke="#000000" stroke-width="0.75" stroke-linecap="square" fill="none" /><path id="1694" transform="matrix(1 0 0 -1 0 792)" d="M462.172 189.67L503.908 189.67" stroke="#000000" stroke-width="0.75" stroke-linecap="square" fill="none" /><path id="1700" transform="matrix(1 0 0 -1 0 792)" d="M503.908 204.47L503.908 190.42" stroke="#000000" stroke-width="0.75" stroke-linecap="square" fill="none" /><path id="1701" transform="matrix(1 0 0 -1 0 792)" d="M108.092 189.67L108.092 174.12" stroke="#000000" stroke-width="0.75" stroke-linecap="square" fill="none" /><path id="1702" transform="matrix(1 0 0 -1 0 792)" d="M108.092 189.67L155.318 189.67L155.318 189.67L155.318 174.12" stroke="#000000" stroke-width="0.75" stroke-linecap="square" fill="none" /><path id="1703" transform="matrix(1 0 0 -1 0 792)" d="M108.092 174.12L155.318 174.12" stroke="#000000" stroke-width="0.75" stroke-linecap="square" fill="none" /><path id="1708" transform="matrix(1 0 0 -1 0 792)" d="M108.092 188.92L108.092 174.87" stroke="#000000" stroke-width="0.75" stroke-linecap="square" fill="none" /><path id="1709" transform="matrix(1 0 0 -1 0 792)" d="M155.318 189.67L155.318 174.12" stroke="#000000" stroke-width="0.75" stroke-linecap="square" fill="none" /><path id="1710" transform="matrix(1 0 0 -1 0 792)" d="M155.318 189.67L462.172 189.67L462.172 189.67L462.172 174.12" stroke="#000000" stroke-width="0.75" stroke-linecap="square" fill="none" /><path id="1711" transform="matrix(1 0 0 -1 0 792)" d="M155.318 174.12L462.172 174.12" stroke="#000000" stroke-width="0.75" stroke-linecap="square" fill="none" /><path id="1743" transform="matrix(1 0 0 -1 0 792)" d="M462.172 189.67L462.172 174.12" stroke="#000000" stroke-width="0.75" stroke-linecap="square" fill="none" /><path id="1744" transform="matrix(1 0 0 -1 0 792)" d="M462.172 189.67L503.908 189.67L503.908 189.67L503.908 174.12" stroke="#000000" stroke-width="0.75" stroke-linecap="square" fill="none" /><path id="1745" transform="matrix(1 0 0 -1 0 792)" d="M462.172 174.12L503.908 174.12" stroke="#000000" stroke-width="0.75" stroke-linecap="square" fill="none" /><path id="1752" transform="matrix(1 0 0 -1 0 792)" d="M503.908 188.92L503.908 174.87" stroke="#000000" stroke-width="0.75" stroke-linecap="square" fill="none" /><path id="1753" transform="matrix(1 0 0 -1 0 792)" d="M108.092 174.12L108.092 158.57" stroke="#000000" stroke-width="0.75" stroke-linecap="square" fill="none" /><path id="1754" transform="matrix(1 0 0 -1 0 792)" d="M108.092 174.12L155.318 174.12L155.318 174.12L155.318 158.57" stroke="#000000" stroke-width="0.75" stroke-linecap="square" fill="none" /><path id="1755" transform="matrix(1 0 0 -1 0 792)" d="M108.092 158.57L155.318 158.57" stroke="#000000" stroke-width="0.75" stroke-linecap="square" fill="none" /><path id="1760" transform="matrix(1 0 0 -1 0 792)" d="M108.092 173.37L108.092 159.32" stroke="#000000" stroke-width="0.75" stroke-linecap="square" fill="none" /><path id="1761" transform="matrix(1 0 0 -1 0 792)" d="M155.318 174.12L155.318 158.57" stroke="#000000" stroke-width="0.75" stroke-linecap="square" fill="none" /><path id="1762" transform="matrix(1 0 0 -1 0 792)" d="M155.318 174.12L462.172 174.12L462.172 174.12L462.172 158.57" stroke="#000000" stroke-width="0.75" stroke-linecap="square" fill="none" /><path id="1763" transform="matrix(1 0 0 -1 0 792)" d="M155.318 158.57L462.172 158.57" stroke="#000000" stroke-width="0.75" stroke-linecap="square" fill="none" /><path id="1822" transform="matrix(1 0 0 -1 0 792)" d="M462.172 174.12L462.172 158.57" stroke="#000000" stroke-width="0.75" stroke-linecap="square" fill="none" /><path id="1823" transform="matrix(1 0 0 -1 0 792)" d="M462.172 174.12L503.908 174.12L503.908 174.12L503.908 158.57" stroke="#000000" stroke-width="0.75" stroke-linecap="square" fill="none" /><path id="1824" transform="matrix(1 0 0 -1 0 792)" d="M462.172 158.57L503.908 158.57" stroke="#000000" stroke-width="0.75" stroke-linecap="square" fill="none" /><path id="1831" transform="matrix(1 0 0 -1 0 792)" d="M503.908 173.37L503.908 159.32" stroke="#000000" stroke-width="0.75" stroke-linecap="square" fill="none" /><path id="1832" transform="matrix(1 0 0 -1 0 792)" d="M108.092 158.57L108.092 143.02" stroke="#000000" stroke-width="0.75" stroke-linecap="square" fill="none" /><path id="1833" transform="matrix(1 0 0 -1 0 792)" d="M108.092 158.57L155.318 158.57L155.318 158.57L155.318 143.02" stroke="#000000" stroke-width="0.75" stroke-linecap="square" fill="none" /><path id="1834" transform="matrix(1 0 0 -1 0 792)" d="M108.092 143.02L155.318 143.02" stroke="#000000" stroke-width="0.75" stroke-linecap="square" fill="none" /><path id="1839" transform="matrix(1 0 0 -1 0 792)" d="M108.092 157.82L108.092 143.77" stroke="#000000" stroke-width="0.75" stroke-linecap="square" fill="none" /><path id="1840" transform="matrix(1 0 0 -1 0 792)" d="M155.318 158.57L155.318 143.02" stroke="#000000" stroke-width="0.75" stroke-linecap="square" fill="none" /><path id="1841" transform="matrix(1 0 0 -1 0 792)" d="M155.318 158.57L462.172 158.57L462.172 158.57L462.172 143.02" stroke="#000000" stroke-width="0.75" stroke-linecap="square" fill="none" /><path id="1842" transform="matrix(1 0 0 -1 0 792)" d="M155.318 143.02L462.172 143.02" stroke="#000000" stroke-width="0.75" stroke-linecap="square" fill="none" /><path id="1856" transform="matrix(1 0 0 -1 0 792)" d="M462.172 158.57L462.172 143.02" stroke="#000000" stroke-width="0.75" stroke-linecap="square" fill="none" /><path id="1857" transform="matrix(1 0 0 -1 0 792)" d="M462.172 158.57L503.908 158.57L503.908 158.57L503.908 143.02" stroke="#000000" stroke-width="0.75" stroke-linecap="square" fill="none" /><path id="1858" transform="matrix(1 0 0 -1 0 792)" d="M462.172 143.02L503.908 143.02" stroke="#000000" stroke-width="0.75" stroke-linecap="square" fill="none" /><path id="1865" transform="matrix(1 0 0 -1 0 792)" d="M503.908 157.82L503.908 143.77" stroke="#000000" stroke-width="0.75" stroke-linecap="square" fill="none" /><path id="1866" transform="matrix(1 0 0 -1 0 792)" d="M108.092 143.02L108.092 127.47" stroke="#000000" stroke-width="0.75" stroke-linecap="square" fill="none" /><path id="1867" transform="matrix(1 0 0 -1 0 792)" d="M108.092 143.02L155.318 143.02L155.318 143.02L155.318 127.47" stroke="#000000" stroke-width="0.75" stroke-linecap="square" fill="none" /><path id="1868" transform="matrix(1 0 0 -1 0 792)" d="M108.092 127.47L155.318 127.47" stroke="#000000" stroke-width="0.75" stroke-linecap="square" fill="none" /><path id="1873" transform="matrix(1 0 0 -1 0 792)" d="M108.092 142.27L108.092 128.22" stroke="#000000" stroke-width="0.75" stroke-linecap="square" fill="none" /><path id="1874" transform="matrix(1 0 0 -1 0 792)" d="M155.318 143.02L155.318 127.47" stroke="#000000" stroke-width="0.75" stroke-linecap="square" fill="none" /><path id="1875" transform="matrix(1 0 0 -1 0 792)" d="M155.318 143.02L462.172 143.02L462.172 143.02L462.172 127.47" stroke="#000000" stroke-width="0.75" stroke-linecap="square" fill="none" /><path id="1876" transform="matrix(1 0 0 -1 0 792)" d="M155.318 127.47L462.172 127.47" stroke="#000000" stroke-width="0.75" stroke-linecap="square" fill="none" /><path id="1930" transform="matrix(1 0 0 -1 0 792)" d="M462.172 143.02L462.172 127.47" stroke="#000000" stroke-width="0.75" stroke-linecap="square" fill="none" /><path id="1931" transform="matrix(1 0 0 -1 0 792)" d="M462.172 143.02L503.908 143.02L503.908 143.02L503.908 127.47" stroke="#000000" stroke-width="0.75" stroke-linecap="square" fill="none" /><path id="1932" transform="matrix(1 0 0 -1 0 792)" d="M462.172 127.47L503.908 127.47" stroke="#000000" stroke-width="0.75" stroke-linecap="square" fill="none" /><path id="1938" transform="matrix(1 0 0 -1 0 792)" d="M503.908 142.27L503.908 128.22" stroke="#000000" stroke-width="0.75" stroke-linecap="square" fill="none" /></g></g></svg>