<svg xmlns="http://www.w3.org/2000/svg" xmlns:xlink="http://www.w3.org/1999/xlink" id="body_114" preserveAspectRatio="xMinYMin meet" viewBox="0 0 816 1056"><defs><clipPath id="1"><path id="" clip-rule="evenodd" transform="matrix(1 0 0 1 0 0)" d="M0 792L0 0L0 0L612 0L612 0L612 792L612 792L0 792z" /></clipPath><clipPath id="2"><path id="" clip-rule="evenodd" transform="matrix(1 0 0 1 0 0)" d="M343.623 291.205L411.123 291.205L411.123 291.205L411.123 243.505L411.123 243.505L343.623 243.505z" /></clipPath></defs><g transform="matrix(1.333333 0 0 1.333333 0 0)"><g clip-path="url(#1)"><path id="60" transform="matrix(1 0 0 -1 0 792)" d="M108.092 672.57L108.092 656.52" stroke="#000000" stroke-width="0.75" stroke-linecap="square" fill="none" /><path id="61" transform="matrix(1 0 0 -1 0 792)" d="M108.092 672.57L404.658 672.57L404.658 672.57L404.658 656.52" stroke="#000000" stroke-width="0.75" stroke-linecap="square" fill="none" /><path id="62" transform="matrix(1 0 0 -1 0 792)" d="M108.092 656.52L404.658 656.52" stroke="#000000" stroke-width="0.75" stroke-linecap="square" fill="none" /><path id="73" transform="matrix(1 0 0 -1 0 792)" d="M108.092 672.57L108.092 657.27" stroke="#000000" stroke-width="0.75" stroke-linecap="square" fill="none" /><path id="74" transform="matrix(1 0 0 -1 0 792)" d="M108.092 672.57L403.908 672.57" stroke="#000000" stroke-width="0.75" stroke-linecap="square" fill="none" /><path id="75" transform="matrix(1 0 0 -1 0 792)" d="M404.658 672.57L404.658 656.52" stroke="#000000" stroke-width="0.75" stroke-linecap="square" fill="none" /><path id="76" transform="matrix(1 0 0 -1 0 792)" d="M404.658 672.57L503.908 672.57L503.908 672.57L503.908 656.52" stroke="#000000" stroke-width="0.75" stroke-linecap="square" fill="none" /><path id="77" transform="matrix(1 0 0 -1 0 792)" d="M404.658 656.52L503.908 656.52" stroke="#000000" stroke-width="0.75" stroke-linecap="square" fill="none" /><path id="97" transform="matrix(1 0 0 -1 0 792)" d="M405.408 672.57L503.908 672.57L503.908 672.57L503.908 657.27" stroke="#000000" stroke-width="0.75" stroke-linecap="square" fill="none" /><path id="98" transform="matrix(1 0 0 -1 0 792)" d="M108.092 656.52L108.092 603.77" stroke="#000000" stroke-width="0.75" stroke-linecap="square" fill="none" /><path id="99" transform="matrix(1 0 0 -1 0 792)" d="M108.092 656.52L351.908 656.52L351.908 656.52L351.908 603.77" stroke="#000000" stroke-width="0.75" stroke-linecap="square" fill="none" /><path id="100" transform="matrix(1 0 0 -1 0 792)" d="M108.092 603.77L351.908 603.77" stroke="#000000" stroke-width="0.75" stroke-linecap="square" fill="none" /><path id="116" transform="matrix(1 0 0 -1 0 792)" d="M108.092 655.77L108.092 604.52" stroke="#000000" stroke-width="0.75" stroke-linecap="square" fill="none" /><path id="117" transform="matrix(1 0 0 -1 0 792)" d="M351.908 656.52L351.908 603.77" stroke="#000000" stroke-width="0.75" stroke-linecap="square" fill="none" /><path id="118" transform="matrix(1 0 0 -1 0 792)" d="M351.908 656.52L404.658 656.52L404.658 656.52L404.658 603.77" stroke="#000000" stroke-width="0.75" stroke-linecap="square" fill="none" /><path id="119" transform="matrix(1 0 0 -1 0 792)" d="M351.908 603.77L404.658 603.77" stroke="#000000" stroke-width="0.75" stroke-linecap="square" fill="none" /><path id="120" transform="matrix(1 0 0 -1 0 792)" d="M404.658 656.52L404.658 603.77" stroke="#000000" stroke-width="0.75" stroke-linecap="square" fill="none" /><path id="121" transform="matrix(1 0 0 -1 0 792)" d="M404.658 656.52L503.908 656.52L503.908 656.52L503.908 603.77" stroke="#000000" stroke-width="0.75" stroke-linecap="square" fill="none" /><path id="122" transform="matrix(1 0 0 -1 0 792)" d="M404.658 603.77L503.908 603.77" stroke="#000000" stroke-width="0.75" stroke-linecap="square" fill="none" /><path id="144" transform="matrix(1 0 0 -1 0 792)" d="M503.908 655.77L503.908 604.52" stroke="#000000" stroke-width="0.75" stroke-linecap="square" fill="none" /><path id="145" transform="matrix(1 0 0 -1 0 792)" d="M108.092 603.77L108.092 551.02" stroke="#000000" stroke-width="0.75" stroke-linecap="square" fill="none" /><path id="146" transform="matrix(1 0 0 -1 0 792)" d="M108.092 603.77L351.908 603.77L351.908 603.77L351.908 551.02" stroke="#000000" stroke-width="0.75" stroke-linecap="square" fill="none" /><path id="147" transform="matrix(1 0 0 -1 0 792)" d="M108.092 551.02L351.908 551.02" stroke="#000000" stroke-width="0.75" stroke-linecap="square" fill="none" /><path id="160" transform="matrix(1 0 0 -1 0 792)" d="M108.092 603.02L108.092 551.77" stroke="#000000" stroke-width="0.75" stroke-linecap="square" fill="none" /><path id="161" transform="matrix(1 0 0 -1 0 792)" d="M351.908 603.77L351.908 551.02" stroke="#000000" stroke-width="0.75" stroke-linecap="square" fill="none" /><path id="162" transform="matrix(1 0 0 -1 0 792)" d="M351.908 603.77L404.658 603.77L404.658 603.77L404.658 551.02" stroke="#000000" stroke-width="0.75" stroke-linecap="square" fill="none" /><path id="163" transform="matrix(1 0 0 -1 0 792)" d="M351.908 551.02L404.658 551.02" stroke="#000000" stroke-width="0.75" stroke-linecap="square" fill="none" /><path id="164" transform="matrix(1 0 0 -1 0 792)" d="M404.658 603.77L404.658 551.02" stroke="#000000" stroke-width="0.75" stroke-linecap="square" fill="none" /><path id="165" transform="matrix(1 0 0 -1 0 792)" d="M404.658 603.77L503.908 603.77L503.908 603.77L503.908 551.02" stroke="#000000" stroke-width="0.75" stroke-linecap="square" fill="none" /><path id="166" transform="matrix(1 0 0 -1 0 792)" d="M404.658 551.02L503.908 551.02" stroke="#000000" stroke-width="0.75" stroke-linecap="square" fill="none" /><path id="188" transform="matrix(1 0 0 -1 0 792)" d="M503.908 603.02L503.908 551.77" stroke="#000000" stroke-width="0.75" stroke-linecap="square" fill="none" /><path id="189" transform="matrix(1 0 0 -1 0 792)" d="M108.092 551.02L108.092 498.27" stroke="#000000" stroke-width="0.75" stroke-linecap="square" fill="none" /><path id="190" transform="matrix(1 0 0 -1 0 792)" d="M108.092 551.02L351.908 551.02L351.908 551.02L351.908 498.27" stroke="#000000" stroke-width="0.75" stroke-linecap="square" fill="none" /><path id="191" transform="matrix(1 0 0 -1 0 792)" d="M108.092 498.27L351.908 498.27" stroke="#000000" stroke-width="0.75" stroke-linecap="square" fill="none" /><path id="211" transform="matrix(1 0 0 -1 0 792)" d="M108.092 550.27L108.092 499.02" stroke="#000000" stroke-width="0.75" stroke-linecap="square" fill="none" /><path id="212" transform="matrix(1 0 0 -1 0 792)" d="M351.908 551.02L351.908 498.27" stroke="#000000" stroke-width="0.75" stroke-linecap="square" fill="none" /><path id="213" transform="matrix(1 0 0 -1 0 792)" d="M351.908 551.02L404.658 551.02L404.658 551.02L404.658 498.27" stroke="#000000" stroke-width="0.75" stroke-linecap="square" fill="none" /><path id="214" transform="matrix(1 0 0 -1 0 792)" d="M351.908 498.27L404.658 498.27" stroke="#000000" stroke-width="0.75" stroke-linecap="square" fill="none" /><path id="215" transform="matrix(1 0 0 -1 0 792)" d="M404.658 551.02L404.658 498.27" stroke="#000000" stroke-width="0.75" stroke-linecap="square" fill="none" /><path id="216" transform="matrix(1 0 0 -1 0 792)" d="M404.658 551.02L503.908 551.02L503.908 551.02L503.908 498.27" stroke="#000000" stroke-width="0.75" stroke-linecap="square" fill="none" /><path id="217" transform="matrix(1 0 0 -1 0 792)" d="M404.658 498.27L503.908 498.27" stroke="#000000" stroke-width="0.75" stroke-linecap="square" fill="none" /><path id="239" transform="matrix(1 0 0 -1 0 792)" d="M503.908 550.27L503.908 499.02" stroke="#000000" stroke-width="0.75" stroke-linecap="square" fill="none" /><path id="240" transform="matrix(1 0 0 -1 0 792)" d="M108.092 498.27L108.092 445.52" stroke="#000000" stroke-width="0.75" stroke-linecap="square" fill="none" /><path id="241" transform="matrix(1 0 0 -1 0 792)" d="M108.092 498.27L351.908 498.27L351.908 498.27L351.908 445.52" stroke="#000000" stroke-width="0.75" stroke-linecap="square" fill="none" /><path id="242" transform="matrix(1 0 0 -1 0 792)" d="M108.092 445.52L351.908 445.52" stroke="#000000" stroke-width="0.75" stroke-linecap="square" fill="none" /><path id="283" transform="matrix(1 0 0 -1 0 792)" d="M108.092 497.52L108.092 446.27" stroke="#000000" stroke-width="0.75" stroke-linecap="square" fill="none" /><path id="284" transform="matrix(1 0 0 -1 0 792)" d="M351.908 498.27L351.908 445.52" stroke="#000000" stroke-width="0.75" stroke-linecap="square" fill="none" /><path id="285" transform="matrix(1 0 0 -1 0 792)" d="M351.908 498.27L404.658 498.27L404.658 498.27L404.658 445.52" stroke="#000000" stroke-width="0.75" stroke-linecap="square" fill="none" /><path id="286" transform="matrix(1 0 0 -1 0 792)" d="M351.908 445.52L404.658 445.52" stroke="#000000" stroke-width="0.75" stroke-linecap="square" fill="none" /><path id="287" transform="matrix(1 0 0 -1 0 792)" d="M404.658 498.27L404.658 445.52" stroke="#000000" stroke-width="0.75" stroke-linecap="square" fill="none" /><path id="288" transform="matrix(1 0 0 -1 0 792)" d="M404.658 498.27L503.908 498.27L503.908 498.27L503.908 445.52" stroke="#000000" stroke-width="0.75" stroke-linecap="square" fill="none" /><path id="289" transform="matrix(1 0 0 -1 0 792)" d="M404.658 445.52L503.908 445.52" stroke="#000000" stroke-width="0.75" stroke-linecap="square" fill="none" /><path id="311" transform="matrix(1 0 0 -1 0 792)" d="M503.908 497.52L503.908 446.27" stroke="#000000" stroke-width="0.75" stroke-linecap="square" fill="none" /><path id="312" transform="matrix(1 0 0 -1 0 792)" d="M108.092 445.52L108.092 392.77" stroke="#000000" stroke-width="0.75" stroke-linecap="square" fill="none" /><path id="313" transform="matrix(1 0 0 -1 0 792)" d="M108.092 445.52L351.908 445.52L351.908 445.52L351.908 392.77" stroke="#000000" stroke-width="0.75" stroke-linecap="square" fill="none" /><path id="314" transform="matrix(1 0 0 -1 0 792)" d="M108.092 392.77L351.908 392.77" stroke="#000000" stroke-width="0.75" stroke-linecap="square" fill="none" /><path id="347" transform="matrix(1 0 0 -1 0 792)" d="M108.092 444.77L108.092 393.52" stroke="#000000" stroke-width="0.75" stroke-linecap="square" fill="none" /><path id="348" transform="matrix(1 0 0 -1 0 792)" d="M351.908 445.52L351.908 392.77" stroke="#000000" stroke-width="0.75" stroke-linecap="square" fill="none" /><path id="349" transform="matrix(1 0 0 -1 0 792)" d="M351.908 445.52L404.658 445.52L404.658 445.52L404.658 392.77" stroke="#000000" stroke-width="0.75" stroke-linecap="square" fill="none" /><path id="350" transform="matrix(1 0 0 -1 0 792)" d="M351.908 392.77L404.658 392.77" stroke="#000000" stroke-width="0.75" stroke-linecap="square" fill="none" /><path id="351" transform="matrix(1 0 0 -1 0 792)" d="M404.658 445.52L404.658 392.77" stroke="#000000" stroke-width="0.75" stroke-linecap="square" fill="none" /><path id="352" transform="matrix(1 0 0 -1 0 792)" d="M404.658 445.52L503.908 445.52L503.908 445.52L503.908 392.77" stroke="#000000" stroke-width="0.75" stroke-linecap="square" fill="none" /><path id="353" transform="matrix(1 0 0 -1 0 792)" d="M404.658 392.77L503.908 392.77" stroke="#000000" stroke-width="0.75" stroke-linecap="square" fill="none" /><path id="375" transform="matrix(1 0 0 -1 0 792)" d="M503.908 444.77L503.908 393.52" stroke="#000000" stroke-width="0.75" stroke-linecap="square" fill="none" /><path id="376" transform="matrix(1 0 0 -1 0 792)" d="M108.092 392.77L108.092 340.02" stroke="#000000" stroke-width="0.75" stroke-linecap="square" fill="none" /><path id="377" transform="matrix(1 0 0 -1 0 792)" d="M108.092 392.77L351.908 392.77L351.908 392.77L351.908 340.02" stroke="#000000" stroke-width="0.75" stroke-linecap="square" fill="none" /><path id="378" transform="matrix(1 0 0 -1 0 792)" d="M108.092 340.02L351.908 340.02" stroke="#000000" stroke-width="0.75" stroke-linecap="square" fill="none" /><path id="384" transform="matrix(1 0 0 -1 0 792)" d="M108.092 392.02L108.092 340.77" stroke="#000000" stroke-width="0.75" stroke-linecap="square" fill="none" /><path id="385" transform="matrix(1 0 0 -1 0 792)" d="M351.908 392.77L351.908 340.02" stroke="#000000" stroke-width="0.75" stroke-linecap="square" fill="none" /><path id="386" transform="matrix(1 0 0 -1 0 792)" d="M351.908 392.77L404.658 392.77L404.658 392.77L404.658 340.02" stroke="#000000" stroke-width="0.75" stroke-linecap="square" fill="none" /><path id="387" transform="matrix(1 0 0 -1 0 792)" d="M351.908 340.02L404.658 340.02" stroke="#000000" stroke-width="0.75" stroke-linecap="square" fill="none" /><path id="388" transform="matrix(1 0 0 -1 0 792)" d="M404.658 392.77L404.658 340.02" stroke="#000000" stroke-width="0.75" stroke-linecap="square" fill="none" /><path id="389" transform="matrix(1 0 0 -1 0 792)" d="M404.658 392.77L503.908 392.77L503.908 392.77L503.908 340.02" stroke="#000000" stroke-width="0.75" stroke-linecap="square" fill="none" /><path id="390" transform="matrix(1 0 0 -1 0 792)" d="M404.658 340.02L503.908 340.02" stroke="#000000" stroke-width="0.75" stroke-linecap="square" fill="none" /><path id="412" transform="matrix(1 0 0 -1 0 792)" d="M503.908 392.02L503.908 340.77" stroke="#000000" stroke-width="0.75" stroke-linecap="square" fill="none" /><path id="413" transform="matrix(1 0 0 -1 0 792)" d="M108.092 340.02L108.092 287.27" stroke="#000000" stroke-width="0.75" stroke-linecap="square" fill="none" /><path id="414" transform="matrix(1 0 0 -1 0 792)" d="M108.092 340.02L351.908 340.02L351.908 340.02L351.908 287.27" stroke="#000000" stroke-width="0.75" stroke-linecap="square" fill="none" /><path id="415" transform="matrix(1 0 0 -1 0 792)" d="M108.092 287.27L351.908 287.27" stroke="#000000" stroke-width="0.75" stroke-linecap="square" fill="none" /><path id="435" transform="matrix(1 0 0 -1 0 792)" d="M108.092 339.27L108.092 287.27L108.092 287.27L351.158 287.27" stroke="#000000" stroke-width="0.75" stroke-linecap="square" fill="none" /><path id="436" transform="matrix(1 0 0 -1 0 792)" d="M351.908 340.02L351.908 287.27" stroke="#000000" stroke-width="0.75" stroke-linecap="square" fill="none" /><path id="437" transform="matrix(1 0 0 -1 0 792)" d="M351.908 340.02L404.658 340.02L404.658 340.02L404.658 287.27" stroke="#000000" stroke-width="0.75" stroke-linecap="square" fill="none" /><path id="438" transform="matrix(1 0 0 -1 0 792)" d="M351.908 287.27L404.658 287.27" stroke="#000000" stroke-width="0.75" stroke-linecap="square" fill="none" /><path id="439" transform="matrix(1 0 0 -1 0 792)" d="M352.658 287.27L403.908 287.27" stroke="#000000" stroke-width="0.75" stroke-linecap="square" fill="none" /><path id="440" transform="matrix(1 0 0 -1 0 792)" d="M404.658 340.02L404.658 287.27" stroke="#000000" stroke-width="0.75" stroke-linecap="square" fill="none" /><path id="441" transform="matrix(1 0 0 -1 0 792)" d="M404.658 340.02L503.908 340.02L503.908 340.02L503.908 287.27" stroke="#000000" stroke-width="0.75" stroke-linecap="square" fill="none" /><path id="442" transform="matrix(1 0 0 -1 0 792)" d="M404.658 287.27L503.908 287.27" stroke="#000000" stroke-width="0.75" stroke-linecap="square" fill="none" /><path id="464" transform="matrix(1 0 0 -1 0 792)" d="M503.908 339.27L503.908 287.27" stroke="#000000" stroke-width="0.75" stroke-linecap="square" fill="none" /><path id="465" transform="matrix(1 0 0 -1 0 792)" d="M405.408 287.27L503.908 287.27" stroke="#000000" stroke-width="0.75" stroke-linecap="square" fill="none" /><g transform="matrix(0.7453125 0 0 0.7453125 354.433 138.005)"><g transform="matrix(1 0 0 1 0 0)"><image x="0" y="0" xlink:href="img_196.png" width="64" height="64" /></g></g><g transform="matrix(0.7453125 0 0 0.7453125 354.433 190.755)"><g transform="matrix(1 0 0 1 0 0)"><image x="0" y="0" xlink:href="img_197.png" width="64" height="64" /></g></g><g clip-path="url(#2)"><g transform="matrix(0.7453125 0 0 0.7453125 354.433 243.505)"><g transform="matrix(1 0 0 1 0 0)"><image x="0" y="0" xlink:href="img_198.png" width="64" height="64" /></g></g></g><g transform="matrix(0.7453125 0 0 0.7453125 354.433 296.255)"><g transform="matrix(1 0 0 1 0 0)"><image x="0" y="0" xlink:href="img_199.png" width="64" height="64" /></g></g><g transform="matrix(0.7453125 0 0 0.7453125 354.433 349.005)"><g transform="matrix(1 0 0 1 0 0)"><image x="0" y="0" xlink:href="img_200.png" width="64" height="64" /></g></g><g transform="matrix(0.7453125 0 0 0.7453125 354.433 401.755)"><g transform="matrix(1 0 0 1 0 0)"><image x="0" y="0" xlink:href="img_201.png" width="64" height="64" /></g></g><g transform="matrix(0.7453125 0 0 0.7453125 354.433 454.505)"><g transform="matrix(1 0 0 1 0 0)"><image x="0" y="0" xlink:href="img_202.png" width="64" height="64" /></g></g></g></g></svg>