<svg xmlns="http://www.w3.org/2000/svg" xmlns:xlink="http://www.w3.org/1999/xlink" id="body_55" preserveAspectRatio="xMinYMin meet" viewBox="0 0 816 1056"><defs><clipPath id="1"><path id="" clip-rule="evenodd" transform="matrix(1 0 0 1 0 0)" d="M0 792L0 0L0 0L612 0L612 0L612 792L612 792L0 792z" /></clipPath></defs><g transform="matrix(1.333333 0 0 1.333333 0 0)"><g clip-path="url(#1)"><path id="59" transform="matrix(1 0 0 -1 0 792)" d="M108.092 672.57L108.092 656.52" stroke="#000000" stroke-width="0.75" stroke-linecap="square" fill="none" /><path id="60" transform="matrix(1 0 0 -1 0 792)" d="M108.092 672.57L133.311 672.57L133.311 672.57L133.311 656.52" stroke="#000000" stroke-width="0.75" stroke-linecap="square" fill="none" /><path id="61" transform="matrix(1 0 0 -1 0 792)" d="M108.092 656.52L133.311 656.52" stroke="#000000" stroke-width="0.75" stroke-linecap="square" fill="none" /><path id="67" transform="matrix(1 0 0 -1 0 792)" d="M108.092 672.57L108.092 657.27" stroke="#000000" stroke-width="0.75" stroke-linecap="square" fill="none" /><path id="68" transform="matrix(1 0 0 -1 0 792)" d="M108.092 672.57L132.561 672.57" stroke="#000000" stroke-width="0.75" stroke-linecap="square" fill="none" /><path id="69" transform="matrix(1 0 0 -1 0 792)" d="M133.311 672.57L133.311 656.52" stroke="#000000" stroke-width="0.75" stroke-linecap="square" fill="none" /><path id="70" transform="matrix(1 0 0 -1 0 792)" d="M133.311 672.57L188.97 672.57L188.97 672.57L188.97 656.52" stroke="#000000" stroke-width="0.75" stroke-linecap="square" fill="none" /><path id="71" transform="matrix(1 0 0 -1 0 792)" d="M133.311 656.52L188.97 656.52" stroke="#000000" stroke-width="0.75" stroke-linecap="square" fill="none" /><path id="78" transform="matrix(1 0 0 -1 0 792)" d="M134.061 672.57L188.22 672.57" stroke="#000000" stroke-width="0.75" stroke-linecap="square" fill="none" /><path id="79" transform="matrix(1 0 0 -1 0 792)" d="M188.97 672.57L188.97 656.52" stroke="#000000" stroke-width="0.75" stroke-linecap="square" fill="none" /><path id="80" transform="matrix(1 0 0 -1 0 792)" d="M188.97 672.57L259.971 672.57L259.971 672.57L259.971 656.52" stroke="#000000" stroke-width="0.75" stroke-linecap="square" fill="none" /><path id="81" transform="matrix(1 0 0 -1 0 792)" d="M188.97 656.52L259.971 656.52" stroke="#000000" stroke-width="0.75" stroke-linecap="square" fill="none" /><path id="93" transform="matrix(1 0 0 -1 0 792)" d="M189.72 672.57L259.221 672.57" stroke="#000000" stroke-width="0.75" stroke-linecap="square" fill="none" /><path id="94" transform="matrix(1 0 0 -1 0 792)" d="M259.971 672.57L259.971 656.52" stroke="#000000" stroke-width="0.75" stroke-linecap="square" fill="none" /><path id="95" transform="matrix(1 0 0 -1 0 792)" d="M259.971 672.57L372.252 672.57L372.252 672.57L372.252 656.52" stroke="#000000" stroke-width="0.75" stroke-linecap="square" fill="none" /><path id="96" transform="matrix(1 0 0 -1 0 792)" d="M259.971 656.52L372.252 656.52" stroke="#000000" stroke-width="0.75" stroke-linecap="square" fill="none" /><path id="103" transform="matrix(1 0 0 -1 0 792)" d="M260.721 672.57L371.502 672.57" stroke="#000000" stroke-width="0.75" stroke-linecap="square" fill="none" /><path id="104" transform="matrix(1 0 0 -1 0 792)" d="M372.252 672.57L372.252 656.52" stroke="#000000" stroke-width="0.75" stroke-linecap="square" fill="none" /><path id="105" transform="matrix(1 0 0 -1 0 792)" d="M372.252 672.57L440.074 672.57L440.074 672.57L440.074 656.52" stroke="#000000" stroke-width="0.75" stroke-linecap="square" fill="none" /><path id="106" transform="matrix(1 0 0 -1 0 792)" d="M372.252 656.52L440.074 656.52" stroke="#000000" stroke-width="0.75" stroke-linecap="square" fill="none" /><path id="116" transform="matrix(1 0 0 -1 0 792)" d="M373.002 672.57L439.324 672.57" stroke="#000000" stroke-width="0.75" stroke-linecap="square" fill="none" /><path id="117" transform="matrix(1 0 0 -1 0 792)" d="M440.074 672.57L440.074 656.52" stroke="#000000" stroke-width="0.75" stroke-linecap="square" fill="none" /><path id="118" transform="matrix(1 0 0 -1 0 792)" d="M440.074 672.57L503.908 672.57L503.908 672.57L503.908 656.52" stroke="#000000" stroke-width="0.75" stroke-linecap="square" fill="none" /><path id="119" transform="matrix(1 0 0 -1 0 792)" d="M440.074 656.52L503.908 656.52" stroke="#000000" stroke-width="0.75" stroke-linecap="square" fill="none" /><path id="132" transform="matrix(1 0 0 -1 0 792)" d="M440.824 672.57L503.908 672.57L503.908 672.57L503.908 657.27" stroke="#000000" stroke-width="0.75" stroke-linecap="square" fill="none" /><path id="133" transform="matrix(1 0 0 -1 0 792)" d="M108.092 656.52L108.092 576.17" stroke="#000000" stroke-width="0.75" stroke-linecap="square" fill="none" /><path id="134" transform="matrix(1 0 0 -1 0 792)" d="M108.092 656.52L133.311 656.52L133.311 656.52L133.311 576.17" stroke="#000000" stroke-width="0.75" stroke-linecap="square" fill="none" /><path id="135" transform="matrix(1 0 0 -1 0 792)" d="M108.092 576.17L133.311 576.17" stroke="#000000" stroke-width="0.75" stroke-linecap="square" fill="none" /><path id="140" transform="matrix(1 0 0 -1 0 792)" d="M108.092 655.77L108.092 576.92" stroke="#000000" stroke-width="0.75" stroke-linecap="square" fill="none" /><path id="141" transform="matrix(1 0 0 -1 0 792)" d="M133.311 656.52L133.311 576.17" stroke="#000000" stroke-width="0.75" stroke-linecap="square" fill="none" /><path id="142" transform="matrix(1 0 0 -1 0 792)" d="M133.311 656.52L188.97 656.52L188.97 656.52L188.97 576.17" stroke="#000000" stroke-width="0.75" stroke-linecap="square" fill="none" /><path id="143" transform="matrix(1 0 0 -1 0 792)" d="M133.311 576.17L188.97 576.17" stroke="#000000" stroke-width="0.75" stroke-linecap="square" fill="none" /><path id="169" transform="matrix(1 0 0 -1 0 792)" d="M188.97 656.52L188.97 576.17" stroke="#000000" stroke-width="0.75" stroke-linecap="square" fill="none" /><path id="170" transform="matrix(1 0 0 -1 0 792)" d="M188.97 656.52L259.971 656.52L259.971 656.52L259.971 576.17" stroke="#000000" stroke-width="0.75" stroke-linecap="square" fill="none" /><path id="171" transform="matrix(1 0 0 -1 0 792)" d="M188.97 576.17L259.971 576.17" stroke="#000000" stroke-width="0.75" stroke-linecap="square" fill="none" /><path id="215" transform="matrix(1 0 0 -1 0 792)" d="M259.971 656.52L259.971 576.17" stroke="#000000" stroke-width="0.75" stroke-linecap="square" fill="none" /><path id="216" transform="matrix(1 0 0 -1 0 792)" d="M259.971 656.52L372.252 656.52L372.252 656.52L372.252 576.17" stroke="#000000" stroke-width="0.75" stroke-linecap="square" fill="none" /><path id="217" transform="matrix(1 0 0 -1 0 792)" d="M259.971 576.17L372.252 576.17" stroke="#000000" stroke-width="0.75" stroke-linecap="square" fill="none" /><path id="284" transform="matrix(1 0 0 -1 0 792)" d="M372.252 656.52L372.252 576.17" stroke="#000000" stroke-width="0.75" stroke-linecap="square" fill="none" /><path id="285" transform="matrix(1 0 0 -1 0 792)" d="M372.252 656.52L440.074 656.52L440.074 656.52L440.074 576.17" stroke="#000000" stroke-width="0.75" stroke-linecap="square" fill="none" /><path id="286" transform="matrix(1 0 0 -1 0 792)" d="M372.252 576.17L440.074 576.17" stroke="#000000" stroke-width="0.75" stroke-linecap="square" fill="none" /><path id="359" transform="matrix(1 0 0 -1 0 792)" d="M440.074 656.52L440.074 576.17" stroke="#000000" stroke-width="0.75" stroke-linecap="square" fill="none" /><path id="360" transform="matrix(1 0 0 -1 0 792)" d="M440.074 656.52L503.908 656.52L503.908 656.52L503.908 576.17" stroke="#000000" stroke-width="0.75" stroke-linecap="square" fill="none" /><path id="361" transform="matrix(1 0 0 -1 0 792)" d="M440.074 576.17L503.908 576.17" stroke="#000000" stroke-width="0.75" stroke-linecap="square" fill="none" /><path id="365" transform="matrix(1 0 0 -1 0 792)" d="M503.908 655.77L503.908 576.92" stroke="#000000" stroke-width="0.75" stroke-linecap="square" fill="none" /><path id="366" transform="matrix(1 0 0 -1 0 792)" d="M108.092 576.17L108.092 441.82" stroke="#000000" stroke-width="0.75" stroke-linecap="square" fill="none" /><path id="367" transform="matrix(1 0 0 -1 0 792)" d="M108.092 576.17L133.311 576.17L133.311 576.17L133.311 441.82" stroke="#000000" stroke-width="0.75" stroke-linecap="square" fill="none" /><path id="368" transform="matrix(1 0 0 -1 0 792)" d="M108.092 441.82L133.311 441.82" stroke="#000000" stroke-width="0.75" stroke-linecap="square" fill="none" /><path id="373" transform="matrix(1 0 0 -1 0 792)" d="M108.092 575.42L108.092 442.57" stroke="#000000" stroke-width="0.75" stroke-linecap="square" fill="none" /><path id="374" transform="matrix(1 0 0 -1 0 792)" d="M133.311 576.17L133.311 441.82" stroke="#000000" stroke-width="0.75" stroke-linecap="square" fill="none" /><path id="375" transform="matrix(1 0 0 -1 0 792)" d="M133.311 576.17L188.97 576.17L188.97 576.17L188.97 441.82" stroke="#000000" stroke-width="0.75" stroke-linecap="square" fill="none" /><path id="376" transform="matrix(1 0 0 -1 0 792)" d="M133.311 441.82L188.97 441.82" stroke="#000000" stroke-width="0.75" stroke-linecap="square" fill="none" /><path id="398" transform="matrix(1 0 0 -1 0 792)" d="M188.97 576.17L188.97 441.82" stroke="#000000" stroke-width="0.75" stroke-linecap="square" fill="none" /><path id="399" transform="matrix(1 0 0 -1 0 792)" d="M188.97 576.17L259.971 576.17L259.971 576.17L259.971 441.82" stroke="#000000" stroke-width="0.75" stroke-linecap="square" fill="none" /><path id="400" transform="matrix(1 0 0 -1 0 792)" d="M188.97 441.82L259.971 441.82" stroke="#000000" stroke-width="0.75" stroke-linecap="square" fill="none" /><path id="465" transform="matrix(1 0 0 -1 0 792)" d="M259.971 576.17L259.971 441.82" stroke="#000000" stroke-width="0.75" stroke-linecap="square" fill="none" /><path id="466" transform="matrix(1 0 0 -1 0 792)" d="M259.971 576.17L372.252 576.17L372.252 576.17L372.252 441.82" stroke="#000000" stroke-width="0.75" stroke-linecap="square" fill="none" /><path id="467" transform="matrix(1 0 0 -1 0 792)" d="M259.971 441.82L372.252 441.82" stroke="#000000" stroke-width="0.75" stroke-linecap="square" fill="none" /><path id="711" transform="matrix(1 0 0 -1 0 792)" d="M372.252 576.17L372.252 441.82" stroke="#000000" stroke-width="0.75" stroke-linecap="square" fill="none" /><path id="712" transform="matrix(1 0 0 -1 0 792)" d="M372.252 576.17L440.074 576.17L440.074 576.17L440.074 441.82" stroke="#000000" stroke-width="0.75" stroke-linecap="square" fill="none" /><path id="713" transform="matrix(1 0 0 -1 0 792)" d="M372.252 441.82L440.074 441.82" stroke="#000000" stroke-width="0.75" stroke-linecap="square" fill="none" /><path id="808" transform="matrix(1 0 0 -1 0 792)" d="M440.074 576.17L440.074 441.82" stroke="#000000" stroke-width="0.75" stroke-linecap="square" fill="none" /><path id="809" transform="matrix(1 0 0 -1 0 792)" d="M440.074 576.17L503.908 576.17L503.908 576.17L503.908 441.82" stroke="#000000" stroke-width="0.75" stroke-linecap="square" fill="none" /><path id="810" transform="matrix(1 0 0 -1 0 792)" d="M440.074 441.82L503.908 441.82" stroke="#000000" stroke-width="0.75" stroke-linecap="square" fill="none" /><path id="885" transform="matrix(1 0 0 -1 0 792)" d="M503.908 575.42L503.908 442.57" stroke="#000000" stroke-width="0.75" stroke-linecap="square" fill="none" /><path id="886" transform="matrix(1 0 0 -1 0 792)" d="M108.092 441.82L108.092 383.07" stroke="#000000" stroke-width="0.75" stroke-linecap="square" fill="none" /><path id="887" transform="matrix(1 0 0 -1 0 792)" d="M108.092 441.82L133.311 441.82L133.311 441.82L133.311 383.07" stroke="#000000" stroke-width="0.75" stroke-linecap="square" fill="none" /><path id="888" transform="matrix(1 0 0 -1 0 792)" d="M108.092 383.07L133.311 383.07" stroke="#000000" stroke-width="0.75" stroke-linecap="square" fill="none" /><path id="893" transform="matrix(1 0 0 -1 0 792)" d="M108.092 441.07L108.092 383.82" stroke="#000000" stroke-width="0.75" stroke-linecap="square" fill="none" /><path id="894" transform="matrix(1 0 0 -1 0 792)" d="M133.311 441.82L133.311 383.07" stroke="#000000" stroke-width="0.75" stroke-linecap="square" fill="none" /><path id="895" transform="matrix(1 0 0 -1 0 792)" d="M133.311 441.82L188.97 441.82L188.97 441.82L188.97 383.07" stroke="#000000" stroke-width="0.75" stroke-linecap="square" fill="none" /><path id="896" transform="matrix(1 0 0 -1 0 792)" d="M133.311 383.07L188.97 383.07" stroke="#000000" stroke-width="0.75" stroke-linecap="square" fill="none" /><path id="918" transform="matrix(1 0 0 -1 0 792)" d="M188.97 441.82L188.97 383.07" stroke="#000000" stroke-width="0.75" stroke-linecap="square" fill="none" /><path id="919" transform="matrix(1 0 0 -1 0 792)" d="M188.97 441.82L259.971 441.82L259.971 441.82L259.971 383.07" stroke="#000000" stroke-width="0.75" stroke-linecap="square" fill="none" /><path id="920" transform="matrix(1 0 0 -1 0 792)" d="M188.97 383.07L259.971 383.07" stroke="#000000" stroke-width="0.75" stroke-linecap="square" fill="none" /><path id="985" transform="matrix(1 0 0 -1 0 792)" d="M259.971 441.82L259.971 383.07" stroke="#000000" stroke-width="0.75" stroke-linecap="square" fill="none" /><path id="986" transform="matrix(1 0 0 -1 0 792)" d="M259.971 441.82L372.252 441.82L372.252 441.82L372.252 383.07" stroke="#000000" stroke-width="0.75" stroke-linecap="square" fill="none" /><path id="987" transform="matrix(1 0 0 -1 0 792)" d="M259.971 383.07L372.252 383.07" stroke="#000000" stroke-width="0.75" stroke-linecap="square" fill="none" /><path id="1046" transform="matrix(1 0 0 -1 0 792)" d="M372.252 441.82L372.252 383.07" stroke="#000000" stroke-width="0.75" stroke-linecap="square" fill="none" /><path id="1047" transform="matrix(1 0 0 -1 0 792)" d="M372.252 441.82L440.074 441.82L440.074 441.82L440.074 383.07" stroke="#000000" stroke-width="0.75" stroke-linecap="square" fill="none" /><path id="1048" transform="matrix(1 0 0 -1 0 792)" d="M372.252 383.07L440.074 383.07" stroke="#000000" stroke-width="0.75" stroke-linecap="square" fill="none" /><path id="1098" transform="matrix(1 0 0 -1 0 792)" d="M440.074 441.82L440.074 383.07" stroke="#000000" stroke-width="0.75" stroke-linecap="square" fill="none" /><path id="1099" transform="matrix(1 0 0 -1 0 792)" d="M440.074 441.82L503.908 441.82L503.908 441.82L503.908 383.07" stroke="#000000" stroke-width="0.75" stroke-linecap="square" fill="none" /><path id="1100" transform="matrix(1 0 0 -1 0 792)" d="M440.074 383.07L503.908 383.07" stroke="#000000" stroke-width="0.75" stroke-linecap="square" fill="none" /><path id="1155" transform="matrix(1 0 0 -1 0 792)" d="M503.908 441.07L503.908 383.82" stroke="#000000" stroke-width="0.75" stroke-linecap="square" fill="none" /><path id="1156" transform="matrix(1 0 0 -1 0 792)" d="M108.092 383.07L108.092 313.52" stroke="#000000" stroke-width="0.75" stroke-linecap="square" fill="none" /><path id="1157" transform="matrix(1 0 0 -1 0 792)" d="M108.092 383.07L133.311 383.07L133.311 383.07L133.311 313.52" stroke="#000000" stroke-width="0.75" stroke-linecap="square" fill="none" /><path id="1158" transform="matrix(1 0 0 -1 0 792)" d="M108.092 313.52L133.311 313.52" stroke="#000000" stroke-width="0.75" stroke-linecap="square" fill="none" /><path id="1163" transform="matrix(1 0 0 -1 0 792)" d="M108.092 382.32L108.092 314.27" stroke="#000000" stroke-width="0.75" stroke-linecap="square" fill="none" /><path id="1164" transform="matrix(1 0 0 -1 0 792)" d="M133.311 383.07L133.311 313.52" stroke="#000000" stroke-width="0.75" stroke-linecap="square" fill="none" /><path id="1165" transform="matrix(1 0 0 -1 0 792)" d="M133.311 383.07L188.97 383.07L188.97 383.07L188.97 313.52" stroke="#000000" stroke-width="0.75" stroke-linecap="square" fill="none" /><path id="1166" transform="matrix(1 0 0 -1 0 792)" d="M133.311 313.52L188.97 313.52" stroke="#000000" stroke-width="0.75" stroke-linecap="square" fill="none" /><path id="1188" transform="matrix(1 0 0 -1 0 792)" d="M188.97 383.07L188.97 313.52" stroke="#000000" stroke-width="0.75" stroke-linecap="square" fill="none" /><path id="1189" transform="matrix(1 0 0 -1 0 792)" d="M188.97 383.07L259.971 383.07L259.971 383.07L259.971 313.52" stroke="#000000" stroke-width="0.75" stroke-linecap="square" fill="none" /><path id="1190" transform="matrix(1 0 0 -1 0 792)" d="M188.97 313.52L259.971 313.52" stroke="#000000" stroke-width="0.75" stroke-linecap="square" fill="none" /><path id="1250" transform="matrix(1 0 0 -1 0 792)" d="M259.971 383.07L259.971 313.52" stroke="#000000" stroke-width="0.75" stroke-linecap="square" fill="none" /><path id="1251" transform="matrix(1 0 0 -1 0 792)" d="M259.971 383.07L372.252 383.07L372.252 383.07L372.252 313.52" stroke="#000000" stroke-width="0.75" stroke-linecap="square" fill="none" /><path id="1252" transform="matrix(1 0 0 -1 0 792)" d="M259.971 313.52L372.252 313.52" stroke="#000000" stroke-width="0.75" stroke-linecap="square" fill="none" /><path id="1290" transform="matrix(1 0 0 -1 0 792)" d="M372.252 383.07L372.252 313.52" stroke="#000000" stroke-width="0.75" stroke-linecap="square" fill="none" /><path id="1291" transform="matrix(1 0 0 -1 0 792)" d="M372.252 383.07L440.074 383.07L440.074 383.07L440.074 313.52" stroke="#000000" stroke-width="0.75" stroke-linecap="square" fill="none" /><path id="1292" transform="matrix(1 0 0 -1 0 792)" d="M372.252 313.52L440.074 313.52" stroke="#000000" stroke-width="0.75" stroke-linecap="square" fill="none" /><path id="1354" transform="matrix(1 0 0 -1 0 792)" d="M440.074 383.07L440.074 313.52" stroke="#000000" stroke-width="0.75" stroke-linecap="square" fill="none" /><path id="1355" transform="matrix(1 0 0 -1 0 792)" d="M440.074 383.07L503.908 383.07L503.908 383.07L503.908 313.52" stroke="#000000" stroke-width="0.75" stroke-linecap="square" fill="none" /><path id="1356" transform="matrix(1 0 0 -1 0 792)" d="M440.074 313.52L503.908 313.52" stroke="#000000" stroke-width="0.75" stroke-linecap="square" fill="none" /><path id="1395" transform="matrix(1 0 0 -1 0 792)" d="M503.908 382.32L503.908 314.27" stroke="#000000" stroke-width="0.75" stroke-linecap="square" fill="none" /><path id="1396" transform="matrix(1 0 0 -1 0 792)" d="M108.092 313.52L108.092 222.37" stroke="#000000" stroke-width="0.75" stroke-linecap="square" fill="none" /><path id="1397" transform="matrix(1 0 0 -1 0 792)" d="M108.092 313.52L133.311 313.52L133.311 313.52L133.311 222.37" stroke="#000000" stroke-width="0.75" stroke-linecap="square" fill="none" /><path id="1398" transform="matrix(1 0 0 -1 0 792)" d="M108.092 222.37L133.311 222.37" stroke="#000000" stroke-width="0.75" stroke-linecap="square" fill="none" /><path id="1403" transform="matrix(1 0 0 -1 0 792)" d="M108.092 312.77L108.092 223.12" stroke="#000000" stroke-width="0.75" stroke-linecap="square" fill="none" /><path id="1404" transform="matrix(1 0 0 -1 0 792)" d="M133.311 313.52L133.311 222.37" stroke="#000000" stroke-width="0.75" stroke-linecap="square" fill="none" /><path id="1405" transform="matrix(1 0 0 -1 0 792)" d="M133.311 313.52L188.97 313.52L188.97 313.52L188.97 222.37" stroke="#000000" stroke-width="0.75" stroke-linecap="square" fill="none" /><path id="1406" transform="matrix(1 0 0 -1 0 792)" d="M133.311 222.37L188.97 222.37" stroke="#000000" stroke-width="0.75" stroke-linecap="square" fill="none" /><path id="1428" transform="matrix(1 0 0 -1 0 792)" d="M188.97 313.52L188.97 222.37" stroke="#000000" stroke-width="0.75" stroke-linecap="square" fill="none" /><path id="1429" transform="matrix(1 0 0 -1 0 792)" d="M188.97 313.52L259.971 313.52L259.971 313.52L259.971 222.37" stroke="#000000" stroke-width="0.75" stroke-linecap="square" fill="none" /><path id="1430" transform="matrix(1 0 0 -1 0 792)" d="M188.97 222.37L259.971 222.37" stroke="#000000" stroke-width="0.75" stroke-linecap="square" fill="none" /><path id="1527" transform="matrix(1 0 0 -1 0 792)" d="M259.971 313.52L259.971 222.37" stroke="#000000" stroke-width="0.75" stroke-linecap="square" fill="none" /><path id="1528" transform="matrix(1 0 0 -1 0 792)" d="M259.971 313.52L372.252 313.52L372.252 313.52L372.252 222.37" stroke="#000000" stroke-width="0.75" stroke-linecap="square" fill="none" /><path id="1529" transform="matrix(1 0 0 -1 0 792)" d="M259.971 222.37L372.252 222.37" stroke="#000000" stroke-width="0.75" stroke-linecap="square" fill="none" /><path id="1634" transform="matrix(1 0 0 -1 0 792)" d="M372.252 313.52L372.252 222.37" stroke="#000000" stroke-width="0.75" stroke-linecap="square" fill="none" /><path id="1635" transform="matrix(1 0 0 -1 0 792)" d="M372.252 313.52L440.074 313.52L440.074 313.52L440.074 222.37" stroke="#000000" stroke-width="0.75" stroke-linecap="square" fill="none" /><path id="1636" transform="matrix(1 0 0 -1 0 792)" d="M372.252 222.37L440.074 222.37" stroke="#000000" stroke-width="0.75" stroke-linecap="square" fill="none" /><path id="1694" transform="matrix(1 0 0 -1 0 792)" d="M440.074 313.52L440.074 222.37" stroke="#000000" stroke-width="0.75" stroke-linecap="square" fill="none" /><path id="1695" transform="matrix(1 0 0 -1 0 792)" d="M440.074 313.52L503.908 313.52L503.908 313.52L503.908 222.37" stroke="#000000" stroke-width="0.75" stroke-linecap="square" fill="none" /><path id="1696" transform="matrix(1 0 0 -1 0 792)" d="M440.074 222.37L503.908 222.37" stroke="#000000" stroke-width="0.75" stroke-linecap="square" fill="none" /><path id="1766" transform="matrix(1 0 0 -1 0 792)" d="M503.908 312.77L503.908 223.12" stroke="#000000" stroke-width="0.75" stroke-linecap="square" fill="none" /><path id="1767" transform="matrix(1 0 0 -1 0 792)" d="M108.092 222.37L108.092 142.02" stroke="#000000" stroke-width="0.75" stroke-linecap="square" fill="none" /><path id="1768" transform="matrix(1 0 0 -1 0 792)" d="M108.092 222.37L133.311 222.37L133.311 222.37L133.311 142.02" stroke="#000000" stroke-width="0.75" stroke-linecap="square" fill="none" /><path id="1769" transform="matrix(1 0 0 -1 0 792)" d="M108.092 142.02L133.311 142.02" stroke="#000000" stroke-width="0.75" stroke-linecap="square" fill="none" /><path id="1774" transform="matrix(1 0 0 -1 0 792)" d="M108.092 221.62L108.092 142.77" stroke="#000000" stroke-width="0.75" stroke-linecap="square" fill="none" /><path id="1775" transform="matrix(1 0 0 -1 0 792)" d="M133.311 222.37L133.311 142.02" stroke="#000000" stroke-width="0.75" stroke-linecap="square" fill="none" /><path id="1776" transform="matrix(1 0 0 -1 0 792)" d="M133.311 222.37L188.97 222.37L188.97 222.37L188.97 142.02" stroke="#000000" stroke-width="0.75" stroke-linecap="square" fill="none" /><path id="1777" transform="matrix(1 0 0 -1 0 792)" d="M133.311 142.02L188.97 142.02" stroke="#000000" stroke-width="0.75" stroke-linecap="square" fill="none" /><path id="1799" transform="matrix(1 0 0 -1 0 792)" d="M188.97 222.37L188.97 142.02" stroke="#000000" stroke-width="0.75" stroke-linecap="square" fill="none" /><path id="1800" transform="matrix(1 0 0 -1 0 792)" d="M188.97 222.37L259.971 222.37L259.971 222.37L259.971 142.02" stroke="#000000" stroke-width="0.75" stroke-linecap="square" fill="none" /><path id="1801" transform="matrix(1 0 0 -1 0 792)" d="M188.97 142.02L259.971 142.02" stroke="#000000" stroke-width="0.75" stroke-linecap="square" fill="none" /><path id="1884" transform="matrix(1 0 0 -1 0 792)" d="M259.971 222.37L259.971 142.02" stroke="#000000" stroke-width="0.75" stroke-linecap="square" fill="none" /><path id="1885" transform="matrix(1 0 0 -1 0 792)" d="M259.971 222.37L372.252 222.37L372.252 222.37L372.252 142.02" stroke="#000000" stroke-width="0.75" stroke-linecap="square" fill="none" /><path id="1886" transform="matrix(1 0 0 -1 0 792)" d="M259.971 142.02L372.252 142.02" stroke="#000000" stroke-width="0.75" stroke-linecap="square" fill="none" /><path id="2004" transform="matrix(1 0 0 -1 0 792)" d="M372.252 222.37L372.252 142.02" stroke="#000000" stroke-width="0.75" stroke-linecap="square" fill="none" /><path id="2005" transform="matrix(1 0 0 -1 0 792)" d="M372.252 222.37L440.074 222.37L440.074 222.37L440.074 142.02" stroke="#000000" stroke-width="0.75" stroke-linecap="square" fill="none" /><path id="2006" transform="matrix(1 0 0 -1 0 792)" d="M372.252 142.02L440.074 142.02" stroke="#000000" stroke-width="0.75" stroke-linecap="square" fill="none" /><path id="2054" transform="matrix(1 0 0 -1 0 792)" d="M440.074 222.37L440.074 142.02" stroke="#000000" stroke-width="0.75" stroke-linecap="square" fill="none" /><path id="2055" transform="matrix(1 0 0 -1 0 792)" d="M440.074 222.37L503.908 222.37L503.908 222.37L503.908 142.02" stroke="#000000" stroke-width="0.75" stroke-linecap="square" fill="none" /><path id="2056" transform="matrix(1 0 0 -1 0 792)" d="M440.074 142.02L503.908 142.02" stroke="#000000" stroke-width="0.75" stroke-linecap="square" fill="none" /><path id="2113" transform="matrix(1 0 0 -1 0 792)" d="M503.908 221.62L503.908 142.77" stroke="#000000" stroke-width="0.75" stroke-linecap="square" fill="none" /></g></g></svg>