<svg xmlns="http://www.w3.org/2000/svg" xmlns:xlink="http://www.w3.org/1999/xlink" id="body_93" preserveAspectRatio="xMinYMin meet" viewBox="0 0 816 1056"><defs><clipPath id="1"><path id="" clip-rule="evenodd" transform="matrix(1 0 0 1 0 0)" d="M0 792L0 0L0 0L612 0L612 0L612 792L612 792L0 792z" /></clipPath><clipPath id="2"><path id="" clip-rule="evenodd" transform="matrix(1 0 0 1 0 0)" d="M6.225 319.465L601.545 319.465L601.545 319.465L601.545 180.925L601.545 180.925L6.225 180.925z" /></clipPath><clipPath id="3"><path id="" clip-rule="evenodd" transform="matrix(1 0 0 1 0 0)" d="M16.914 569.897L601.661 569.897L601.661 569.897L601.661 436.764L601.661 436.764L16.914 436.764z" /></clipPath></defs><g transform="matrix(1.333333 0 0 1.333333 0 0)"><g clip-path="url(#1)"><g clip-path="url(#2)"><g transform="matrix(0.75 0 0 0.75 153.375 180.905)"><g transform="matrix(1 0 0 1 0 0)"><image x="0" y="0" xlink:href="img_150.png" width="407" height="181" /></g></g></g><g clip-path="url(#3)"><g transform="matrix(0.7366809 0 0 0.7366779 128.054 436.755)"><g transform="matrix(1 0 0 1 0 0)"><image x="0" y="0" xlink:href="img_151.png" width="492" height="177" /></g></g></g></g></g></svg>