<svg xmlns="http://www.w3.org/2000/svg" xmlns:xlink="http://www.w3.org/1999/xlink" id="body_110" preserveAspectRatio="xMinYMin meet" viewBox="0 0 816 1056"><defs><clipPath id="1"><path id="" clip-rule="evenodd" transform="matrix(1 0 0 1 0 0)" d="M0 792L0 0L0 0L612 0L612 0L612 792L612 792L0 792z" /></clipPath></defs><g transform="matrix(1.333333 0 0 1.333333 0 0)"><g clip-path="url(#1)"><g transform="matrix(0.4789886 0 0 0.4776696 111.2662 218.0527)"><g transform="matrix(1 0 0 1 0 0)"><image x="0" y="0" xlink:href="img_183.png" width="810" height="274" /></g></g><g transform="matrix(0.4794623 0 0 0.478616 153.4106 448.8433)"><g transform="matrix(1 0 0 1 0 0)"><image x="0" y="0" xlink:href="img_184.png" width="645" height="392" /></g></g></g></g></svg>