<svg xmlns="http://www.w3.org/2000/svg" xmlns:xlink="http://www.w3.org/1999/xlink" id="body_112" preserveAspectRatio="xMinYMin meet" viewBox="0 0 816 1056"><defs><clipPath id="1"><path id="" clip-rule="evenodd" transform="matrix(1 0 0 1 0 0)" d="M0 792L0 0L0 0L612 0L612 0L612 792L612 792L0 792z" /></clipPath></defs><g transform="matrix(1.333333 0 0 1.333333 0 0)"><g clip-path="url(#1)"><g transform="matrix(0.4795882 0 0 0.4801936 145.9856 121.3693)"><g transform="matrix(1 0 0 1 0 0)"><image x="0" y="0" xlink:href="img_188.png" width="455" height="376" /></g></g><g transform="matrix(0.4793663 0 0 0.4786406 120.2849 389.6589)"><g transform="matrix(1 0 0 1 0 0)"><image x="0" y="0" xlink:href="img_189.png" width="779" height="349" /></g></g><path id="1305" transform="matrix(1 0 0 -1 0 792)" d="M154.2106 365.8418L190.1362 365.8418" stroke="#000000" stroke-width="0.5186462" fill="none" /><path id="1306" transform="matrix(1 0 0 -1 0 792)" d="M216.2853 355.5208L253.4338 355.5208" stroke="#000000" stroke-width="0.5186462" fill="none" /><path id="1307" transform="matrix(1 0 0 -1 0 792)" d="M278.6525 365.764L314.6984 365.764" stroke="#000000" stroke-width="0.5186462" fill="none" /><path id="1308" transform="matrix(1 0 0 -1 0 792)" d="M330.9714 356.0394L368.1843 356.0394" stroke="#000000" stroke-width="0.5186462" fill="none" /><path id="1309" transform="matrix(1 0 0 -1 0 792)" d="M370.0649 387.8065L416.8727 387.8065" stroke="#000000" stroke-width="0.5186462" fill="none" /><path id="1310" transform="matrix(1 0 0 -1 0 792)" d="M436.7763 387.9362L484.5571 387.9362" stroke="#000000" stroke-width="0.5186462" fill="none" /></g></g></svg>