<svg xmlns="http://www.w3.org/2000/svg" xmlns:xlink="http://www.w3.org/1999/xlink" id="body_72" preserveAspectRatio="xMinYMin meet" viewBox="0 0 816 1056"><defs><clipPath id="1"><path id="" clip-rule="evenodd" transform="matrix(1 0 0 1 0 0)" d="M0 792L0 0L0 0L612 0L612 0L612 792L612 792L0 792z" /></clipPath></defs><g transform="matrix(1.333333 0 0 1.333333 0 0)"><g clip-path="url(#1)"><path id="1613" transform="matrix(1 0 0 -1 0 792)" d="M108.092 280.12L108.092 253.27" stroke="#000000" stroke-width="0.75" stroke-linecap="square" fill="none" /><path id="1614" transform="matrix(1 0 0 -1 0 792)" d="M108.092 280.12L155.318 280.12L155.318 280.12L155.318 253.27" stroke="#000000" stroke-width="0.75" stroke-linecap="square" fill="none" /><path id="1615" transform="matrix(1 0 0 -1 0 792)" d="M108.092 253.27L155.318 253.27" stroke="#000000" stroke-width="0.75" stroke-linecap="square" fill="none" /><path id="1626" transform="matrix(1 0 0 -1 0 792)" d="M108.092 280.12L108.092 254.02" stroke="#000000" stroke-width="0.75" stroke-linecap="square" fill="none" /><path id="1627" transform="matrix(1 0 0 -1 0 792)" d="M108.092 280.12L154.568 280.12" stroke="#000000" stroke-width="0.75" stroke-linecap="square" fill="none" /><path id="1628" transform="matrix(1 0 0 -1 0 792)" d="M155.318 280.12L155.318 253.27" stroke="#000000" stroke-width="0.75" stroke-linecap="square" fill="none" /><path id="1629" transform="matrix(1 0 0 -1 0 792)" d="M155.318 280.12L243.029 280.12L243.029 280.12L243.029 253.27" stroke="#000000" stroke-width="0.75" stroke-linecap="square" fill="none" /><path id="1630" transform="matrix(1 0 0 -1 0 792)" d="M155.318 253.27L243.029 253.27" stroke="#000000" stroke-width="0.75" stroke-linecap="square" fill="none" /><path id="1654" transform="matrix(1 0 0 -1 0 792)" d="M156.068 280.12L242.279 280.12" stroke="#000000" stroke-width="0.75" stroke-linecap="square" fill="none" /><path id="1655" transform="matrix(1 0 0 -1 0 792)" d="M243.029 280.12L243.029 253.27" stroke="#000000" stroke-width="0.75" stroke-linecap="square" fill="none" /><path id="1656" transform="matrix(1 0 0 -1 0 792)" d="M243.029 280.12L349.2 280.12L349.2 280.12L349.2 253.27" stroke="#000000" stroke-width="0.75" stroke-linecap="square" fill="none" /><path id="1657" transform="matrix(1 0 0 -1 0 792)" d="M243.029 253.27L349.2 253.27" stroke="#000000" stroke-width="0.75" stroke-linecap="square" fill="none" /><path id="1668" transform="matrix(1 0 0 -1 0 792)" d="M243.779 280.12L348.45 280.12" stroke="#000000" stroke-width="0.75" stroke-linecap="square" fill="none" /><path id="1669" transform="matrix(1 0 0 -1 0 792)" d="M349.2 280.12L349.2 253.27" stroke="#000000" stroke-width="0.75" stroke-linecap="square" fill="none" /><path id="1670" transform="matrix(1 0 0 -1 0 792)" d="M349.2 280.12L503.908 280.12L503.908 280.12L503.908 253.27" stroke="#000000" stroke-width="0.75" stroke-linecap="square" fill="none" /><path id="1671" transform="matrix(1 0 0 -1 0 792)" d="M349.2 253.27L503.908 253.27" stroke="#000000" stroke-width="0.75" stroke-linecap="square" fill="none" /><path id="1683" transform="matrix(1 0 0 -1 0 792)" d="M349.95 280.12L503.908 280.12L503.908 280.12L503.908 254.02" stroke="#000000" stroke-width="0.75" stroke-linecap="square" fill="none" /><path id="1684" transform="matrix(1 0 0 -1 0 792)" d="M108.092 253.27L108.092 226.92" stroke="#000000" stroke-width="0.75" stroke-linecap="square" fill="none" /><path id="1685" transform="matrix(1 0 0 -1 0 792)" d="M108.092 253.27L155.318 253.27L155.318 253.27L155.318 226.92" stroke="#000000" stroke-width="0.75" stroke-linecap="square" fill="none" /><path id="1686" transform="matrix(1 0 0 -1 0 792)" d="M108.092 226.92L155.318 226.92" stroke="#000000" stroke-width="0.75" stroke-linecap="square" fill="none" /><path id="1694" transform="matrix(1 0 0 -1 0 792)" d="M108.092 252.52L108.092 227.67" stroke="#000000" stroke-width="0.75" stroke-linecap="square" fill="none" /><path id="1695" transform="matrix(1 0 0 -1 0 792)" d="M155.318 253.27L155.318 226.92" stroke="#000000" stroke-width="0.75" stroke-linecap="square" fill="none" /><path id="1696" transform="matrix(1 0 0 -1 0 792)" d="M155.318 253.27L243.029 253.27L243.029 253.27L243.029 226.92" stroke="#000000" stroke-width="0.75" stroke-linecap="square" fill="none" /><path id="1697" transform="matrix(1 0 0 -1 0 792)" d="M155.318 226.92L243.029 226.92" stroke="#000000" stroke-width="0.75" stroke-linecap="square" fill="none" /><path id="1708" transform="matrix(1 0 0 -1 0 792)" d="M243.029 253.27L243.029 226.92" stroke="#000000" stroke-width="0.75" stroke-linecap="square" fill="none" /><path id="1709" transform="matrix(1 0 0 -1 0 792)" d="M243.029 253.27L349.2 253.27L349.2 253.27L349.2 226.92" stroke="#000000" stroke-width="0.75" stroke-linecap="square" fill="none" /><path id="1710" transform="matrix(1 0 0 -1 0 792)" d="M243.029 226.92L349.2 226.92" stroke="#000000" stroke-width="0.75" stroke-linecap="square" fill="none" /><path id="1743" transform="matrix(1 0 0 -1 0 792)" d="M349.2 253.27L349.2 226.92" stroke="#000000" stroke-width="0.75" stroke-linecap="square" fill="none" /><path id="1744" transform="matrix(1 0 0 -1 0 792)" d="M349.2 253.27L503.908 253.27L503.908 253.27L503.908 226.92" stroke="#000000" stroke-width="0.75" stroke-linecap="square" fill="none" /><path id="1745" transform="matrix(1 0 0 -1 0 792)" d="M349.2 226.92L503.908 226.92" stroke="#000000" stroke-width="0.75" stroke-linecap="square" fill="none" /><path id="1768" transform="matrix(1 0 0 -1 0 792)" d="M503.908 252.52L503.908 227.67" stroke="#000000" stroke-width="0.75" stroke-linecap="square" fill="none" /><path id="1769" transform="matrix(1 0 0 -1 0 792)" d="M108.092 226.92L108.092 189.77" stroke="#000000" stroke-width="0.75" stroke-linecap="square" fill="none" /><path id="1770" transform="matrix(1 0 0 -1 0 792)" d="M108.092 226.92L155.318 226.92L155.318 226.92L155.318 189.77" stroke="#000000" stroke-width="0.75" stroke-linecap="square" fill="none" /><path id="1771" transform="matrix(1 0 0 -1 0 792)" d="M108.092 189.77L155.318 189.77" stroke="#000000" stroke-width="0.75" stroke-linecap="square" fill="none" /><path id="1779" transform="matrix(1 0 0 -1 0 792)" d="M108.092 226.17L108.092 190.52" stroke="#000000" stroke-width="0.75" stroke-linecap="square" fill="none" /><path id="1780" transform="matrix(1 0 0 -1 0 792)" d="M155.318 226.92L155.318 189.77" stroke="#000000" stroke-width="0.75" stroke-linecap="square" fill="none" /><path id="1781" transform="matrix(1 0 0 -1 0 792)" d="M155.318 226.92L243.029 226.92L243.029 226.92L243.029 189.77" stroke="#000000" stroke-width="0.75" stroke-linecap="square" fill="none" /><path id="1782" transform="matrix(1 0 0 -1 0 792)" d="M155.318 189.77L243.029 189.77" stroke="#000000" stroke-width="0.75" stroke-linecap="square" fill="none" /><path id="1795" transform="matrix(1 0 0 -1 0 792)" d="M243.029 226.92L243.029 189.77" stroke="#000000" stroke-width="0.75" stroke-linecap="square" fill="none" /><path id="1796" transform="matrix(1 0 0 -1 0 792)" d="M243.029 226.92L349.2 226.92L349.2 226.92L349.2 189.77" stroke="#000000" stroke-width="0.75" stroke-linecap="square" fill="none" /><path id="1797" transform="matrix(1 0 0 -1 0 792)" d="M243.029 189.77L349.2 189.77" stroke="#000000" stroke-width="0.75" stroke-linecap="square" fill="none" /><path id="1855" transform="matrix(1 0 0 -1 0 792)" d="M349.2 226.92L349.2 189.77" stroke="#000000" stroke-width="0.75" stroke-linecap="square" fill="none" /><path id="1856" transform="matrix(1 0 0 -1 0 792)" d="M349.2 226.92L503.908 226.92L503.908 226.92L503.908 189.77" stroke="#000000" stroke-width="0.75" stroke-linecap="square" fill="none" /><path id="1857" transform="matrix(1 0 0 -1 0 792)" d="M349.2 189.77L503.908 189.77" stroke="#000000" stroke-width="0.75" stroke-linecap="square" fill="none" /><path id="1962" transform="matrix(1 0 0 -1 0 792)" d="M503.908 226.17L503.908 190.52" stroke="#000000" stroke-width="0.75" stroke-linecap="square" fill="none" /><path id="1963" transform="matrix(1 0 0 -1 0 792)" d="M108.092 189.77L108.092 163.42" stroke="#000000" stroke-width="0.75" stroke-linecap="square" fill="none" /><path id="1964" transform="matrix(1 0 0 -1 0 792)" d="M108.092 189.77L155.318 189.77L155.318 189.77L155.318 163.42" stroke="#000000" stroke-width="0.75" stroke-linecap="square" fill="none" /><path id="1965" transform="matrix(1 0 0 -1 0 792)" d="M108.092 163.42L155.318 163.42" stroke="#000000" stroke-width="0.75" stroke-linecap="square" fill="none" /><path id="1970" transform="matrix(1 0 0 -1 0 792)" d="M108.092 189.02L108.092 163.42L108.092 163.42L154.568 163.42" stroke="#000000" stroke-width="0.75" stroke-linecap="square" fill="none" /><path id="1971" transform="matrix(1 0 0 -1 0 792)" d="M155.318 189.77L155.318 163.42" stroke="#000000" stroke-width="0.75" stroke-linecap="square" fill="none" /><path id="1972" transform="matrix(1 0 0 -1 0 792)" d="M155.318 189.77L243.029 189.77L243.029 189.77L243.029 163.42" stroke="#000000" stroke-width="0.75" stroke-linecap="square" fill="none" /><path id="1973" transform="matrix(1 0 0 -1 0 792)" d="M155.318 163.42L243.029 163.42" stroke="#000000" stroke-width="0.75" stroke-linecap="square" fill="none" /><path id="1977" transform="matrix(1 0 0 -1 0 792)" d="M156.068 163.42L242.279 163.42" stroke="#000000" stroke-width="0.75" stroke-linecap="square" fill="none" /><path id="1978" transform="matrix(1 0 0 -1 0 792)" d="M243.029 189.77L243.029 163.42" stroke="#000000" stroke-width="0.75" stroke-linecap="square" fill="none" /><path id="1979" transform="matrix(1 0 0 -1 0 792)" d="M243.029 189.77L349.2 189.77L349.2 189.77L349.2 163.42" stroke="#000000" stroke-width="0.75" stroke-linecap="square" fill="none" /><path id="1980" transform="matrix(1 0 0 -1 0 792)" d="M243.029 163.42L349.2 163.42" stroke="#000000" stroke-width="0.75" stroke-linecap="square" fill="none" /><path id="2000" transform="matrix(1 0 0 -1 0 792)" d="M243.779 163.42L348.45 163.42" stroke="#000000" stroke-width="0.75" stroke-linecap="square" fill="none" /><path id="2001" transform="matrix(1 0 0 -1 0 792)" d="M349.2 189.77L349.2 163.42" stroke="#000000" stroke-width="0.75" stroke-linecap="square" fill="none" /><path id="2002" transform="matrix(1 0 0 -1 0 792)" d="M349.2 189.77L503.908 189.77L503.908 189.77L503.908 163.42" stroke="#000000" stroke-width="0.75" stroke-linecap="square" fill="none" /><path id="2003" transform="matrix(1 0 0 -1 0 792)" d="M349.2 163.42L503.908 163.42" stroke="#000000" stroke-width="0.75" stroke-linecap="square" fill="none" /><path id="2058" transform="matrix(1 0 0 -1 0 792)" d="M503.908 189.02L503.908 163.42" stroke="#000000" stroke-width="0.75" stroke-linecap="square" fill="none" /><path id="2059" transform="matrix(1 0 0 -1 0 792)" d="M349.95 163.42L503.908 163.42" stroke="#000000" stroke-width="0.75" stroke-linecap="square" fill="none" /></g></g></svg>