<svg xmlns="http://www.w3.org/2000/svg" xmlns:xlink="http://www.w3.org/1999/xlink" id="body_91" preserveAspectRatio="xMinYMin meet" viewBox="0 0 816 1056"><defs><clipPath id="1"><path id="" clip-rule="evenodd" transform="matrix(1 0 0 1 0 0)" d="M0 792L0 0L0 0L612 0L612 0L612 792L612 792L0 792z" /></clipPath></defs><g transform="matrix(1.333333 0 0 1.333333 0 0)"><g clip-path="url(#1)"><g transform="matrix(0.4798 0 0 0.4794167 179.195 118.957)"><g transform="matrix(1 0 0 1 0 0)"><image x="0" y="0" xlink:href="img_144.png" width="525" height="468" /></g></g><g transform="matrix(0.4795671 0 0 0.4799416 136.051 364.363)"><g transform="matrix(1 0 0 1 0 0)"><image x="0" y="0" xlink:href="img_145.png" width="649" height="548" /></g></g></g></g></svg>