<svg xmlns="http://www.w3.org/2000/svg" xmlns:xlink="http://www.w3.org/1999/xlink" id="body_113" preserveAspectRatio="xMinYMin meet" viewBox="0 0 816 1056"><defs><clipPath id="1"><path id="" clip-rule="evenodd" transform="matrix(1 0 0 1 0 0)" d="M0 792L0 0L0 0L612 0L612 0L612 792L612 792L0 792z" /></clipPath><clipPath id="2"><path id="" clip-rule="evenodd" transform="matrix(1 0 0 1 0 0)" d="M119.6001 415.5995L466.3715 415.5995L466.3715 415.5995L466.3715 114.1124L466.3715 114.1124L119.6001 114.1124z" /></clipPath><clipPath id="3"><path id="" clip-rule="evenodd" transform="matrix(1 0 0 1 0 0)" d="M343.623 541.8151L411.123 541.8151L411.123 541.8151L411.123 494.115L411.123 494.115L343.623 494.115z" /></clipPath><clipPath id="4"><path id="" clip-rule="evenodd" transform="matrix(1 0 0 1 0 0)" d="M343.623 594.565L411.123 594.565L411.123 594.565L411.123 546.865L411.123 546.865L343.623 546.865z" /></clipPath><clipPath id="5"><path id="" clip-rule="evenodd" transform="matrix(1 0 0 1 0 0)" d="M343.623 646.08L411.123 646.08L411.123 646.08L411.123 599.34L411.123 599.34L343.623 599.34z" /></clipPath></defs><g transform="matrix(1.333333 0 0 1.333333 0 0)"><g clip-path="url(#1)"><path id="259" transform="matrix(1 0 0 -1 0 792)" d="M108.092 316.47L108.092 300.42" stroke="#000000" stroke-width="0.75" stroke-linecap="square" fill="none" /><path id="260" transform="matrix(1 0 0 -1 0 792)" d="M108.092 316.47L404.658 316.47L404.658 316.47L404.658 300.42" stroke="#000000" stroke-width="0.75" stroke-linecap="square" fill="none" /><path id="261" transform="matrix(1 0 0 -1 0 792)" d="M108.092 300.42L404.658 300.42" stroke="#000000" stroke-width="0.75" stroke-linecap="square" fill="none" /><path id="272" transform="matrix(1 0 0 -1 0 792)" d="M108.092 316.47L108.092 301.17" stroke="#000000" stroke-width="0.75" stroke-linecap="square" fill="none" /><path id="273" transform="matrix(1 0 0 -1 0 792)" d="M108.092 316.47L403.908 316.47" stroke="#000000" stroke-width="0.75" stroke-linecap="square" fill="none" /><path id="274" transform="matrix(1 0 0 -1 0 792)" d="M404.658 316.47L404.658 300.42" stroke="#000000" stroke-width="0.75" stroke-linecap="square" fill="none" /><path id="275" transform="matrix(1 0 0 -1 0 792)" d="M404.658 316.47L503.908 316.47L503.908 316.47L503.908 300.42" stroke="#000000" stroke-width="0.75" stroke-linecap="square" fill="none" /><path id="276" transform="matrix(1 0 0 -1 0 792)" d="M404.658 300.42L503.908 300.42" stroke="#000000" stroke-width="0.75" stroke-linecap="square" fill="none" /><path id="296" transform="matrix(1 0 0 -1 0 792)" d="M405.408 316.47L503.908 316.47L503.908 316.47L503.908 301.17" stroke="#000000" stroke-width="0.75" stroke-linecap="square" fill="none" /><path id="297" transform="matrix(1 0 0 -1 0 792)" d="M108.092 300.42L108.092 247.67" stroke="#000000" stroke-width="0.75" stroke-linecap="square" fill="none" /><path id="298" transform="matrix(1 0 0 -1 0 792)" d="M108.092 300.42L351.908 300.42L351.908 300.42L351.908 247.67" stroke="#000000" stroke-width="0.75" stroke-linecap="square" fill="none" /><path id="299" transform="matrix(1 0 0 -1 0 792)" d="M108.092 247.67L351.908 247.67" stroke="#000000" stroke-width="0.75" stroke-linecap="square" fill="none" /><path id="332" transform="matrix(1 0 0 -1 0 792)" d="M108.092 299.67L108.092 248.42" stroke="#000000" stroke-width="0.75" stroke-linecap="square" fill="none" /><path id="333" transform="matrix(1 0 0 -1 0 792)" d="M351.908 300.42L351.908 247.67" stroke="#000000" stroke-width="0.75" stroke-linecap="square" fill="none" /><path id="334" transform="matrix(1 0 0 -1 0 792)" d="M351.908 300.42L404.658 300.42L404.658 300.42L404.658 247.67" stroke="#000000" stroke-width="0.75" stroke-linecap="square" fill="none" /><path id="335" transform="matrix(1 0 0 -1 0 792)" d="M351.908 247.67L404.658 247.67" stroke="#000000" stroke-width="0.75" stroke-linecap="square" fill="none" /><path id="336" transform="matrix(1 0 0 -1 0 792)" d="M404.658 300.42L404.658 247.67" stroke="#000000" stroke-width="0.75" stroke-linecap="square" fill="none" /><path id="337" transform="matrix(1 0 0 -1 0 792)" d="M404.658 300.42L503.908 300.42L503.908 300.42L503.908 247.67" stroke="#000000" stroke-width="0.75" stroke-linecap="square" fill="none" /><path id="338" transform="matrix(1 0 0 -1 0 792)" d="M404.658 247.67L503.908 247.67" stroke="#000000" stroke-width="0.75" stroke-linecap="square" fill="none" /><path id="360" transform="matrix(1 0 0 -1 0 792)" d="M503.908 299.67L503.908 248.42" stroke="#000000" stroke-width="0.75" stroke-linecap="square" fill="none" /><path id="361" transform="matrix(1 0 0 -1 0 792)" d="M108.092 247.67L108.092 194.92" stroke="#000000" stroke-width="0.75" stroke-linecap="square" fill="none" /><path id="362" transform="matrix(1 0 0 -1 0 792)" d="M108.092 247.67L351.908 247.67L351.908 247.67L351.908 194.92" stroke="#000000" stroke-width="0.75" stroke-linecap="square" fill="none" /><path id="363" transform="matrix(1 0 0 -1 0 792)" d="M108.092 194.92L351.908 194.92" stroke="#000000" stroke-width="0.75" stroke-linecap="square" fill="none" /><path id="374" transform="matrix(1 0 0 -1 0 792)" d="M108.092 246.92L108.092 195.67" stroke="#000000" stroke-width="0.75" stroke-linecap="square" fill="none" /><path id="375" transform="matrix(1 0 0 -1 0 792)" d="M351.908 247.67L351.908 194.92" stroke="#000000" stroke-width="0.75" stroke-linecap="square" fill="none" /><path id="376" transform="matrix(1 0 0 -1 0 792)" d="M351.908 247.67L404.658 247.67L404.658 247.67L404.658 194.92" stroke="#000000" stroke-width="0.75" stroke-linecap="square" fill="none" /><path id="377" transform="matrix(1 0 0 -1 0 792)" d="M351.908 194.92L404.658 194.92" stroke="#000000" stroke-width="0.75" stroke-linecap="square" fill="none" /><path id="378" transform="matrix(1 0 0 -1 0 792)" d="M404.658 247.67L404.658 194.92" stroke="#000000" stroke-width="0.75" stroke-linecap="square" fill="none" /><path id="379" transform="matrix(1 0 0 -1 0 792)" d="M404.658 247.67L503.908 247.67L503.908 247.67L503.908 194.92" stroke="#000000" stroke-width="0.75" stroke-linecap="square" fill="none" /><path id="380" transform="matrix(1 0 0 -1 0 792)" d="M404.658 194.92L503.908 194.92" stroke="#000000" stroke-width="0.75" stroke-linecap="square" fill="none" /><path id="402" transform="matrix(1 0 0 -1 0 792)" d="M503.908 246.92L503.908 195.67" stroke="#000000" stroke-width="0.75" stroke-linecap="square" fill="none" /><path id="403" transform="matrix(1 0 0 -1 0 792)" d="M108.092 194.92L108.092 143.67" stroke="#000000" stroke-width="0.75" stroke-linecap="square" fill="none" /><path id="404" transform="matrix(1 0 0 -1 0 792)" d="M108.092 194.92L351.908 194.92L351.908 194.92L351.908 143.67" stroke="#000000" stroke-width="0.75" stroke-linecap="square" fill="none" /><path id="405" transform="matrix(1 0 0 -1 0 792)" d="M108.092 143.67L351.908 143.67" stroke="#000000" stroke-width="0.75" stroke-linecap="square" fill="none" /><path id="442" transform="matrix(1 0 0 -1 0 792)" d="M108.092 194.17L108.092 144.42" stroke="#000000" stroke-width="0.75" stroke-linecap="square" fill="none" /><path id="443" transform="matrix(1 0 0 -1 0 792)" d="M351.908 194.92L351.908 143.67" stroke="#000000" stroke-width="0.75" stroke-linecap="square" fill="none" /><path id="444" transform="matrix(1 0 0 -1 0 792)" d="M351.908 194.92L404.658 194.92L404.658 194.92L404.658 143.67" stroke="#000000" stroke-width="0.75" stroke-linecap="square" fill="none" /><path id="445" transform="matrix(1 0 0 -1 0 792)" d="M351.908 143.67L404.658 143.67" stroke="#000000" stroke-width="0.75" stroke-linecap="square" fill="none" /><path id="446" transform="matrix(1 0 0 -1 0 792)" d="M404.658 194.92L404.658 143.67" stroke="#000000" stroke-width="0.75" stroke-linecap="square" fill="none" /><path id="447" transform="matrix(1 0 0 -1 0 792)" d="M404.658 194.92L503.908 194.92L503.908 194.92L503.908 143.67" stroke="#000000" stroke-width="0.75" stroke-linecap="square" fill="none" /><path id="448" transform="matrix(1 0 0 -1 0 792)" d="M404.658 143.67L503.908 143.67" stroke="#000000" stroke-width="0.75" stroke-linecap="square" fill="none" /><path id="470" transform="matrix(1 0 0 -1 0 792)" d="M503.908 194.17L503.908 144.42" stroke="#000000" stroke-width="0.75" stroke-linecap="square" fill="none" /><g clip-path="url(#2)"><g transform="matrix(0.3579867 0 0 0.3320902 182.4378 114.6129)"><g transform="matrix(1 0 0 1 0 0)"><image x="0" y="0" xlink:href="img_191.png" width="618" height="906" /></g></g></g><g clip-path="url(#3)"><g transform="matrix(0.7453125 0 0 0.7453125 354.433 494.105)"><g transform="matrix(1 0 0 1 0 0)"><image x="0" y="0" xlink:href="img_192.png" width="64" height="64" /></g></g></g><g clip-path="url(#4)"><g transform="matrix(0.7453125 0 0 0.7453125 354.433 546.855)"><g transform="matrix(1 0 0 1 0 0)"><image x="0" y="0" xlink:href="img_193.png" width="64" height="64" /></g></g></g><g clip-path="url(#5)"><g transform="matrix(0.7453125 0 0 0.7540323 354.433 599.33)"><g transform="matrix(1 0 0 1 0 0)"><image x="0" y="0" xlink:href="img_194.png" width="64" height="62" /></g></g></g></g></g></svg>