<svg xmlns="http://www.w3.org/2000/svg" xmlns:xlink="http://www.w3.org/1999/xlink" id="body_56" preserveAspectRatio="xMinYMin meet" viewBox="0 0 816 1056"><defs><clipPath id="1"><path id="" clip-rule="evenodd" transform="matrix(1 0 0 1 0 0)" d="M0 792L0 0L0 0L612 0L612 0L612 792L612 792L0 792z" /></clipPath></defs><g transform="matrix(1.333333 0 0 1.333333 0 0)"><g clip-path="url(#1)"><path id="87" transform="matrix(1 0 0 -1 0 792)" d="M108.092 672.57L108.092 656.52" stroke="#000000" stroke-width="0.75" stroke-linecap="square" fill="none" /><path id="88" transform="matrix(1 0 0 -1 0 792)" d="M108.092 672.57L133.311 672.57L133.311 672.57L133.311 656.52" stroke="#000000" stroke-width="0.75" stroke-linecap="square" fill="none" /><path id="89" transform="matrix(1 0 0 -1 0 792)" d="M108.092 656.52L133.311 656.52" stroke="#000000" stroke-width="0.75" stroke-linecap="square" fill="none" /><path id="95" transform="matrix(1 0 0 -1 0 792)" d="M108.092 672.57L108.092 657.27" stroke="#000000" stroke-width="0.75" stroke-linecap="square" fill="none" /><path id="96" transform="matrix(1 0 0 -1 0 792)" d="M108.092 672.57L132.561 672.57" stroke="#000000" stroke-width="0.75" stroke-linecap="square" fill="none" /><path id="97" transform="matrix(1 0 0 -1 0 792)" d="M133.311 672.57L133.311 656.52" stroke="#000000" stroke-width="0.75" stroke-linecap="square" fill="none" /><path id="98" transform="matrix(1 0 0 -1 0 792)" d="M133.311 672.57L188.97 672.57L188.97 672.57L188.97 656.52" stroke="#000000" stroke-width="0.75" stroke-linecap="square" fill="none" /><path id="99" transform="matrix(1 0 0 -1 0 792)" d="M133.311 656.52L188.97 656.52" stroke="#000000" stroke-width="0.75" stroke-linecap="square" fill="none" /><path id="106" transform="matrix(1 0 0 -1 0 792)" d="M134.061 672.57L188.22 672.57" stroke="#000000" stroke-width="0.75" stroke-linecap="square" fill="none" /><path id="107" transform="matrix(1 0 0 -1 0 792)" d="M188.97 672.57L188.97 656.52" stroke="#000000" stroke-width="0.75" stroke-linecap="square" fill="none" /><path id="108" transform="matrix(1 0 0 -1 0 792)" d="M188.97 672.57L259.971 672.57L259.971 672.57L259.971 656.52" stroke="#000000" stroke-width="0.75" stroke-linecap="square" fill="none" /><path id="109" transform="matrix(1 0 0 -1 0 792)" d="M188.97 656.52L259.971 656.52" stroke="#000000" stroke-width="0.75" stroke-linecap="square" fill="none" /><path id="121" transform="matrix(1 0 0 -1 0 792)" d="M189.72 672.57L259.221 672.57" stroke="#000000" stroke-width="0.75" stroke-linecap="square" fill="none" /><path id="122" transform="matrix(1 0 0 -1 0 792)" d="M259.971 672.57L259.971 656.52" stroke="#000000" stroke-width="0.75" stroke-linecap="square" fill="none" /><path id="123" transform="matrix(1 0 0 -1 0 792)" d="M259.971 672.57L372.252 672.57L372.252 672.57L372.252 656.52" stroke="#000000" stroke-width="0.75" stroke-linecap="square" fill="none" /><path id="124" transform="matrix(1 0 0 -1 0 792)" d="M259.971 656.52L372.252 656.52" stroke="#000000" stroke-width="0.75" stroke-linecap="square" fill="none" /><path id="131" transform="matrix(1 0 0 -1 0 792)" d="M260.721 672.57L371.502 672.57" stroke="#000000" stroke-width="0.75" stroke-linecap="square" fill="none" /><path id="132" transform="matrix(1 0 0 -1 0 792)" d="M372.252 672.57L372.252 656.52" stroke="#000000" stroke-width="0.75" stroke-linecap="square" fill="none" /><path id="133" transform="matrix(1 0 0 -1 0 792)" d="M372.252 672.57L440.074 672.57L440.074 672.57L440.074 656.52" stroke="#000000" stroke-width="0.75" stroke-linecap="square" fill="none" /><path id="134" transform="matrix(1 0 0 -1 0 792)" d="M372.252 656.52L440.074 656.52" stroke="#000000" stroke-width="0.75" stroke-linecap="square" fill="none" /><path id="144" transform="matrix(1 0 0 -1 0 792)" d="M373.002 672.57L439.324 672.57" stroke="#000000" stroke-width="0.75" stroke-linecap="square" fill="none" /><path id="145" transform="matrix(1 0 0 -1 0 792)" d="M440.074 672.57L440.074 656.52" stroke="#000000" stroke-width="0.75" stroke-linecap="square" fill="none" /><path id="146" transform="matrix(1 0 0 -1 0 792)" d="M440.074 672.57L503.908 672.57L503.908 672.57L503.908 656.52" stroke="#000000" stroke-width="0.75" stroke-linecap="square" fill="none" /><path id="147" transform="matrix(1 0 0 -1 0 792)" d="M440.074 656.52L503.908 656.52" stroke="#000000" stroke-width="0.75" stroke-linecap="square" fill="none" /><path id="160" transform="matrix(1 0 0 -1 0 792)" d="M440.824 672.57L503.908 672.57L503.908 672.57L503.908 657.27" stroke="#000000" stroke-width="0.75" stroke-linecap="square" fill="none" /><path id="161" transform="matrix(1 0 0 -1 0 792)" d="M108.092 656.52L108.092 543.77" stroke="#000000" stroke-width="0.75" stroke-linecap="square" fill="none" /><path id="162" transform="matrix(1 0 0 -1 0 792)" d="M108.092 656.52L133.311 656.52L133.311 656.52L133.311 543.77" stroke="#000000" stroke-width="0.75" stroke-linecap="square" fill="none" /><path id="163" transform="matrix(1 0 0 -1 0 792)" d="M108.092 543.77L133.311 543.77" stroke="#000000" stroke-width="0.75" stroke-linecap="square" fill="none" /><path id="168" transform="matrix(1 0 0 -1 0 792)" d="M108.092 655.77L108.092 544.52" stroke="#000000" stroke-width="0.75" stroke-linecap="square" fill="none" /><path id="169" transform="matrix(1 0 0 -1 0 792)" d="M133.311 656.52L133.311 543.77" stroke="#000000" stroke-width="0.75" stroke-linecap="square" fill="none" /><path id="170" transform="matrix(1 0 0 -1 0 792)" d="M133.311 656.52L188.97 656.52L188.97 656.52L188.97 543.77" stroke="#000000" stroke-width="0.75" stroke-linecap="square" fill="none" /><path id="171" transform="matrix(1 0 0 -1 0 792)" d="M133.311 543.77L188.97 543.77" stroke="#000000" stroke-width="0.75" stroke-linecap="square" fill="none" /><path id="210" transform="matrix(1 0 0 -1 0 792)" d="M188.97 656.52L188.97 543.77" stroke="#000000" stroke-width="0.75" stroke-linecap="square" fill="none" /><path id="211" transform="matrix(1 0 0 -1 0 792)" d="M188.97 656.52L259.971 656.52L259.971 656.52L259.971 543.77" stroke="#000000" stroke-width="0.75" stroke-linecap="square" fill="none" /><path id="212" transform="matrix(1 0 0 -1 0 792)" d="M188.97 543.77L259.971 543.77" stroke="#000000" stroke-width="0.75" stroke-linecap="square" fill="none" /><path id="323" transform="matrix(1 0 0 -1 0 792)" d="M259.971 656.52L259.971 543.77" stroke="#000000" stroke-width="0.75" stroke-linecap="square" fill="none" /><path id="324" transform="matrix(1 0 0 -1 0 792)" d="M259.971 656.52L372.252 656.52L372.252 656.52L372.252 543.77" stroke="#000000" stroke-width="0.75" stroke-linecap="square" fill="none" /><path id="325" transform="matrix(1 0 0 -1 0 792)" d="M259.971 543.77L372.252 543.77" stroke="#000000" stroke-width="0.75" stroke-linecap="square" fill="none" /><path id="382" transform="matrix(1 0 0 -1 0 792)" d="M372.252 656.52L372.252 543.77" stroke="#000000" stroke-width="0.75" stroke-linecap="square" fill="none" /><path id="383" transform="matrix(1 0 0 -1 0 792)" d="M372.252 656.52L440.074 656.52L440.074 656.52L440.074 543.77" stroke="#000000" stroke-width="0.75" stroke-linecap="square" fill="none" /><path id="384" transform="matrix(1 0 0 -1 0 792)" d="M372.252 543.77L440.074 543.77" stroke="#000000" stroke-width="0.75" stroke-linecap="square" fill="none" /><path id="388" transform="matrix(1 0 0 -1 0 792)" d="M440.074 656.52L440.074 543.77" stroke="#000000" stroke-width="0.75" stroke-linecap="square" fill="none" /><path id="389" transform="matrix(1 0 0 -1 0 792)" d="M440.074 656.52L503.908 656.52L503.908 656.52L503.908 543.77" stroke="#000000" stroke-width="0.75" stroke-linecap="square" fill="none" /><path id="390" transform="matrix(1 0 0 -1 0 792)" d="M440.074 543.77L503.908 543.77" stroke="#000000" stroke-width="0.75" stroke-linecap="square" fill="none" /><path id="437" transform="matrix(1 0 0 -1 0 792)" d="M503.908 655.77L503.908 544.52" stroke="#000000" stroke-width="0.75" stroke-linecap="square" fill="none" /><path id="438" transform="matrix(1 0 0 -1 0 792)" d="M108.092 543.77L108.092 441.82" stroke="#000000" stroke-width="0.75" stroke-linecap="square" fill="none" /><path id="439" transform="matrix(1 0 0 -1 0 792)" d="M108.092 543.77L133.311 543.77L133.311 543.77L133.311 441.82" stroke="#000000" stroke-width="0.75" stroke-linecap="square" fill="none" /><path id="440" transform="matrix(1 0 0 -1 0 792)" d="M108.092 441.82L133.311 441.82" stroke="#000000" stroke-width="0.75" stroke-linecap="square" fill="none" /><path id="445" transform="matrix(1 0 0 -1 0 792)" d="M108.092 543.02L108.092 442.57" stroke="#000000" stroke-width="0.75" stroke-linecap="square" fill="none" /><path id="446" transform="matrix(1 0 0 -1 0 792)" d="M133.311 543.77L133.311 441.82" stroke="#000000" stroke-width="0.75" stroke-linecap="square" fill="none" /><path id="447" transform="matrix(1 0 0 -1 0 792)" d="M133.311 543.77L188.97 543.77L188.97 543.77L188.97 441.82" stroke="#000000" stroke-width="0.75" stroke-linecap="square" fill="none" /><path id="448" transform="matrix(1 0 0 -1 0 792)" d="M133.311 441.82L188.97 441.82" stroke="#000000" stroke-width="0.75" stroke-linecap="square" fill="none" /><path id="483" transform="matrix(1 0 0 -1 0 792)" d="M188.97 543.77L188.97 441.82" stroke="#000000" stroke-width="0.75" stroke-linecap="square" fill="none" /><path id="484" transform="matrix(1 0 0 -1 0 792)" d="M188.97 543.77L259.971 543.77L259.971 543.77L259.971 441.82" stroke="#000000" stroke-width="0.75" stroke-linecap="square" fill="none" /><path id="485" transform="matrix(1 0 0 -1 0 792)" d="M188.97 441.82L259.971 441.82" stroke="#000000" stroke-width="0.75" stroke-linecap="square" fill="none" /><path id="588" transform="matrix(1 0 0 -1 0 792)" d="M259.971 543.77L259.971 441.82" stroke="#000000" stroke-width="0.75" stroke-linecap="square" fill="none" /><path id="589" transform="matrix(1 0 0 -1 0 792)" d="M259.971 543.77L372.252 543.77L372.252 543.77L372.252 441.82" stroke="#000000" stroke-width="0.75" stroke-linecap="square" fill="none" /><path id="590" transform="matrix(1 0 0 -1 0 792)" d="M259.971 441.82L372.252 441.82" stroke="#000000" stroke-width="0.75" stroke-linecap="square" fill="none" /><path id="669" transform="matrix(1 0 0 -1 0 792)" d="M372.252 543.77L372.252 441.82" stroke="#000000" stroke-width="0.75" stroke-linecap="square" fill="none" /><path id="670" transform="matrix(1 0 0 -1 0 792)" d="M372.252 543.77L440.074 543.77L440.074 543.77L440.074 441.82" stroke="#000000" stroke-width="0.75" stroke-linecap="square" fill="none" /><path id="671" transform="matrix(1 0 0 -1 0 792)" d="M372.252 441.82L440.074 441.82" stroke="#000000" stroke-width="0.75" stroke-linecap="square" fill="none" /><path id="721" transform="matrix(1 0 0 -1 0 792)" d="M440.074 543.77L440.074 441.82" stroke="#000000" stroke-width="0.75" stroke-linecap="square" fill="none" /><path id="722" transform="matrix(1 0 0 -1 0 792)" d="M440.074 543.77L503.908 543.77L503.908 543.77L503.908 441.82" stroke="#000000" stroke-width="0.75" stroke-linecap="square" fill="none" /><path id="723" transform="matrix(1 0 0 -1 0 792)" d="M440.074 441.82L503.908 441.82" stroke="#000000" stroke-width="0.75" stroke-linecap="square" fill="none" /><path id="780" transform="matrix(1 0 0 -1 0 792)" d="M503.908 543.02L503.908 442.57" stroke="#000000" stroke-width="0.75" stroke-linecap="square" fill="none" /><path id="781" transform="matrix(1 0 0 -1 0 792)" d="M108.092 441.82L108.092 329.07" stroke="#000000" stroke-width="0.75" stroke-linecap="square" fill="none" /><path id="782" transform="matrix(1 0 0 -1 0 792)" d="M108.092 441.82L133.311 441.82L133.311 441.82L133.311 329.07" stroke="#000000" stroke-width="0.75" stroke-linecap="square" fill="none" /><path id="783" transform="matrix(1 0 0 -1 0 792)" d="M108.092 329.07L133.311 329.07" stroke="#000000" stroke-width="0.75" stroke-linecap="square" fill="none" /><path id="788" transform="matrix(1 0 0 -1 0 792)" d="M108.092 441.07L108.092 329.82" stroke="#000000" stroke-width="0.75" stroke-linecap="square" fill="none" /><path id="789" transform="matrix(1 0 0 -1 0 792)" d="M133.311 441.82L133.311 329.07" stroke="#000000" stroke-width="0.75" stroke-linecap="square" fill="none" /><path id="790" transform="matrix(1 0 0 -1 0 792)" d="M133.311 441.82L188.97 441.82L188.97 441.82L188.97 329.07" stroke="#000000" stroke-width="0.75" stroke-linecap="square" fill="none" /><path id="791" transform="matrix(1 0 0 -1 0 792)" d="M133.311 329.07L188.97 329.07" stroke="#000000" stroke-width="0.75" stroke-linecap="square" fill="none" /><path id="829" transform="matrix(1 0 0 -1 0 792)" d="M188.97 441.82L188.97 329.07" stroke="#000000" stroke-width="0.75" stroke-linecap="square" fill="none" /><path id="830" transform="matrix(1 0 0 -1 0 792)" d="M188.97 441.82L259.971 441.82L259.971 441.82L259.971 329.07" stroke="#000000" stroke-width="0.75" stroke-linecap="square" fill="none" /><path id="831" transform="matrix(1 0 0 -1 0 792)" d="M188.97 329.07L259.971 329.07" stroke="#000000" stroke-width="0.75" stroke-linecap="square" fill="none" /><path id="943" transform="matrix(1 0 0 -1 0 792)" d="M259.971 441.82L259.971 329.07" stroke="#000000" stroke-width="0.75" stroke-linecap="square" fill="none" /><path id="944" transform="matrix(1 0 0 -1 0 792)" d="M259.971 441.82L372.252 441.82L372.252 441.82L372.252 329.07" stroke="#000000" stroke-width="0.75" stroke-linecap="square" fill="none" /><path id="945" transform="matrix(1 0 0 -1 0 792)" d="M259.971 329.07L372.252 329.07" stroke="#000000" stroke-width="0.75" stroke-linecap="square" fill="none" /><path id="1015" transform="matrix(1 0 0 -1 0 792)" d="M372.252 441.82L372.252 329.07" stroke="#000000" stroke-width="0.75" stroke-linecap="square" fill="none" /><path id="1016" transform="matrix(1 0 0 -1 0 792)" d="M372.252 441.82L440.074 441.82L440.074 441.82L440.074 329.07" stroke="#000000" stroke-width="0.75" stroke-linecap="square" fill="none" /><path id="1017" transform="matrix(1 0 0 -1 0 792)" d="M372.252 329.07L440.074 329.07" stroke="#000000" stroke-width="0.75" stroke-linecap="square" fill="none" /><path id="1021" transform="matrix(1 0 0 -1 0 792)" d="M440.074 441.82L440.074 329.07" stroke="#000000" stroke-width="0.75" stroke-linecap="square" fill="none" /><path id="1022" transform="matrix(1 0 0 -1 0 792)" d="M440.074 441.82L503.908 441.82L503.908 441.82L503.908 329.07" stroke="#000000" stroke-width="0.75" stroke-linecap="square" fill="none" /><path id="1023" transform="matrix(1 0 0 -1 0 792)" d="M440.074 329.07L503.908 329.07" stroke="#000000" stroke-width="0.75" stroke-linecap="square" fill="none" /><path id="1079" transform="matrix(1 0 0 -1 0 792)" d="M503.908 441.07L503.908 329.82" stroke="#000000" stroke-width="0.75" stroke-linecap="square" fill="none" /><path id="1080" transform="matrix(1 0 0 -1 0 792)" d="M108.092 329.07L108.092 216.32" stroke="#000000" stroke-width="0.75" stroke-linecap="square" fill="none" /><path id="1081" transform="matrix(1 0 0 -1 0 792)" d="M108.092 329.07L133.311 329.07L133.311 329.07L133.311 216.32" stroke="#000000" stroke-width="0.75" stroke-linecap="square" fill="none" /><path id="1082" transform="matrix(1 0 0 -1 0 792)" d="M108.092 216.32L133.311 216.32" stroke="#000000" stroke-width="0.75" stroke-linecap="square" fill="none" /><path id="1087" transform="matrix(1 0 0 -1 0 792)" d="M108.092 328.32L108.092 217.07" stroke="#000000" stroke-width="0.75" stroke-linecap="square" fill="none" /><path id="1088" transform="matrix(1 0 0 -1 0 792)" d="M133.311 329.07L133.311 216.32" stroke="#000000" stroke-width="0.75" stroke-linecap="square" fill="none" /><path id="1089" transform="matrix(1 0 0 -1 0 792)" d="M133.311 329.07L188.97 329.07L188.97 329.07L188.97 216.32" stroke="#000000" stroke-width="0.75" stroke-linecap="square" fill="none" /><path id="1090" transform="matrix(1 0 0 -1 0 792)" d="M133.311 216.32L188.97 216.32" stroke="#000000" stroke-width="0.75" stroke-linecap="square" fill="none" /><path id="1121" transform="matrix(1 0 0 -1 0 792)" d="M188.97 329.07L188.97 216.32" stroke="#000000" stroke-width="0.75" stroke-linecap="square" fill="none" /><path id="1122" transform="matrix(1 0 0 -1 0 792)" d="M188.97 329.07L259.971 329.07L259.971 329.07L259.971 216.32" stroke="#000000" stroke-width="0.75" stroke-linecap="square" fill="none" /><path id="1123" transform="matrix(1 0 0 -1 0 792)" d="M188.97 216.32L259.971 216.32" stroke="#000000" stroke-width="0.75" stroke-linecap="square" fill="none" /><path id="1225" transform="matrix(1 0 0 -1 0 792)" d="M259.971 329.07L259.971 216.32" stroke="#000000" stroke-width="0.75" stroke-linecap="square" fill="none" /><path id="1226" transform="matrix(1 0 0 -1 0 792)" d="M259.971 329.07L372.252 329.07L372.252 329.07L372.252 216.32" stroke="#000000" stroke-width="0.75" stroke-linecap="square" fill="none" /><path id="1227" transform="matrix(1 0 0 -1 0 792)" d="M259.971 216.32L372.252 216.32" stroke="#000000" stroke-width="0.75" stroke-linecap="square" fill="none" /><path id="1306" transform="matrix(1 0 0 -1 0 792)" d="M372.252 329.07L372.252 216.32" stroke="#000000" stroke-width="0.75" stroke-linecap="square" fill="none" /><path id="1307" transform="matrix(1 0 0 -1 0 792)" d="M372.252 329.07L440.074 329.07L440.074 329.07L440.074 216.32" stroke="#000000" stroke-width="0.75" stroke-linecap="square" fill="none" /><path id="1308" transform="matrix(1 0 0 -1 0 792)" d="M372.252 216.32L440.074 216.32" stroke="#000000" stroke-width="0.75" stroke-linecap="square" fill="none" /><path id="1312" transform="matrix(1 0 0 -1 0 792)" d="M440.074 329.07L440.074 216.32" stroke="#000000" stroke-width="0.75" stroke-linecap="square" fill="none" /><path id="1313" transform="matrix(1 0 0 -1 0 792)" d="M440.074 329.07L503.908 329.07L503.908 329.07L503.908 216.32" stroke="#000000" stroke-width="0.75" stroke-linecap="square" fill="none" /><path id="1314" transform="matrix(1 0 0 -1 0 792)" d="M440.074 216.32L503.908 216.32" stroke="#000000" stroke-width="0.75" stroke-linecap="square" fill="none" /><path id="1318" transform="matrix(1 0 0 -1 0 792)" d="M503.908 328.32L503.908 217.07" stroke="#000000" stroke-width="0.75" stroke-linecap="square" fill="none" /></g></g></svg>