<svg xmlns="http://www.w3.org/2000/svg" xmlns:xlink="http://www.w3.org/1999/xlink" id="body_75" preserveAspectRatio="xMinYMin meet" viewBox="0 0 816 1056"><defs><clipPath id="1"><path id="" clip-rule="evenodd" transform="matrix(1 0 0 1 0 0)" d="M0 792L0 0L0 0L612 0L612 0L612 792L612 792L0 792z" /></clipPath></defs><g transform="matrix(1.333333 0 0 1.333333 0 0)"><g clip-path="url(#1)"><path id="61" transform="matrix(1 0 0 -1 0 792)" d="M108.092 672.57L108.092 656.52" stroke="#000000" stroke-width="0.75" stroke-linecap="square" fill="none" /><path id="62" transform="matrix(1 0 0 -1 0 792)" d="M108.092 672.57L155.318 672.57L155.318 672.57L155.318 656.52" stroke="#000000" stroke-width="0.75" stroke-linecap="square" fill="none" /><path id="63" transform="matrix(1 0 0 -1 0 792)" d="M108.092 656.52L155.318 656.52" stroke="#000000" stroke-width="0.75" stroke-linecap="square" fill="none" /><path id="74" transform="matrix(1 0 0 -1 0 792)" d="M108.092 672.57L108.092 657.27" stroke="#000000" stroke-width="0.75" stroke-linecap="square" fill="none" /><path id="75" transform="matrix(1 0 0 -1 0 792)" d="M108.092 672.57L154.568 672.57" stroke="#000000" stroke-width="0.75" stroke-linecap="square" fill="none" /><path id="76" transform="matrix(1 0 0 -1 0 792)" d="M155.318 672.57L155.318 656.52" stroke="#000000" stroke-width="0.75" stroke-linecap="square" fill="none" /><path id="77" transform="matrix(1 0 0 -1 0 792)" d="M155.318 672.57L235.682 672.57L235.682 672.57L235.682 656.52" stroke="#000000" stroke-width="0.75" stroke-linecap="square" fill="none" /><path id="78" transform="matrix(1 0 0 -1 0 792)" d="M155.318 656.52L235.682 656.52" stroke="#000000" stroke-width="0.75" stroke-linecap="square" fill="none" /><path id="89" transform="matrix(1 0 0 -1 0 792)" d="M156.068 672.57L234.932 672.57" stroke="#000000" stroke-width="0.75" stroke-linecap="square" fill="none" /><path id="90" transform="matrix(1 0 0 -1 0 792)" d="M235.682 672.57L235.682 656.52" stroke="#000000" stroke-width="0.75" stroke-linecap="square" fill="none" /><path id="91" transform="matrix(1 0 0 -1 0 792)" d="M235.682 672.57L371.403 672.57L371.403 672.57L371.403 656.52" stroke="#000000" stroke-width="0.75" stroke-linecap="square" fill="none" /><path id="92" transform="matrix(1 0 0 -1 0 792)" d="M235.682 656.52L371.403 656.52" stroke="#000000" stroke-width="0.75" stroke-linecap="square" fill="none" /><path id="97" transform="matrix(1 0 0 -1 0 792)" d="M236.432 672.57L370.653 672.57" stroke="#000000" stroke-width="0.75" stroke-linecap="square" fill="none" /><path id="98" transform="matrix(1 0 0 -1 0 792)" d="M371.403 672.57L371.403 656.52" stroke="#000000" stroke-width="0.75" stroke-linecap="square" fill="none" /><path id="99" transform="matrix(1 0 0 -1 0 792)" d="M371.403 672.57L503.908 672.57L503.908 672.57L503.908 656.52" stroke="#000000" stroke-width="0.75" stroke-linecap="square" fill="none" /><path id="100" transform="matrix(1 0 0 -1 0 792)" d="M371.403 656.52L503.908 656.52" stroke="#000000" stroke-width="0.75" stroke-linecap="square" fill="none" /><path id="105" transform="matrix(1 0 0 -1 0 792)" d="M372.153 672.57L503.908 672.57L503.908 672.57L503.908 657.27" stroke="#000000" stroke-width="0.75" stroke-linecap="square" fill="none" /><path id="106" transform="matrix(1 0 0 -1 0 792)" d="M108.092 656.52L108.092 619.37" stroke="#000000" stroke-width="0.75" stroke-linecap="square" fill="none" /><path id="107" transform="matrix(1 0 0 -1 0 792)" d="M108.092 656.52L155.318 656.52L155.318 656.52L155.318 619.37" stroke="#000000" stroke-width="0.75" stroke-linecap="square" fill="none" /><path id="108" transform="matrix(1 0 0 -1 0 792)" d="M108.092 619.37L155.318 619.37" stroke="#000000" stroke-width="0.75" stroke-linecap="square" fill="none" /><path id="113" transform="matrix(1 0 0 -1 0 792)" d="M108.092 655.77L108.092 620.12" stroke="#000000" stroke-width="0.75" stroke-linecap="square" fill="none" /><path id="114" transform="matrix(1 0 0 -1 0 792)" d="M155.318 656.52L155.318 619.37" stroke="#000000" stroke-width="0.75" stroke-linecap="square" fill="none" /><path id="115" transform="matrix(1 0 0 -1 0 792)" d="M155.318 656.52L235.682 656.52L235.682 656.52L235.682 619.37" stroke="#000000" stroke-width="0.75" stroke-linecap="square" fill="none" /><path id="116" transform="matrix(1 0 0 -1 0 792)" d="M155.318 619.37L235.682 619.37" stroke="#000000" stroke-width="0.75" stroke-linecap="square" fill="none" /><path id="155" transform="matrix(1 0 0 -1 0 792)" d="M235.682 656.52L235.682 619.37" stroke="#000000" stroke-width="0.75" stroke-linecap="square" fill="none" /><path id="156" transform="matrix(1 0 0 -1 0 792)" d="M235.682 656.52L371.403 656.52L371.403 656.52L371.403 619.37" stroke="#000000" stroke-width="0.75" stroke-linecap="square" fill="none" /><path id="157" transform="matrix(1 0 0 -1 0 792)" d="M235.682 619.37L371.403 619.37" stroke="#000000" stroke-width="0.75" stroke-linecap="square" fill="none" /><path id="192" transform="matrix(1 0 0 -1 0 792)" d="M371.403 656.52L371.403 619.37" stroke="#000000" stroke-width="0.75" stroke-linecap="square" fill="none" /><path id="193" transform="matrix(1 0 0 -1 0 792)" d="M371.403 656.52L503.908 656.52L503.908 656.52L503.908 619.37" stroke="#000000" stroke-width="0.75" stroke-linecap="square" fill="none" /><path id="194" transform="matrix(1 0 0 -1 0 792)" d="M371.403 619.37L503.908 619.37" stroke="#000000" stroke-width="0.75" stroke-linecap="square" fill="none" /><path id="237" transform="matrix(1 0 0 -1 0 792)" d="M503.908 655.77L503.908 620.12" stroke="#000000" stroke-width="0.75" stroke-linecap="square" fill="none" /><path id="238" transform="matrix(1 0 0 -1 0 792)" d="M108.092 619.37L108.092 571.42" stroke="#000000" stroke-width="0.75" stroke-linecap="square" fill="none" /><path id="239" transform="matrix(1 0 0 -1 0 792)" d="M108.092 619.37L155.318 619.37L155.318 619.37L155.318 571.42" stroke="#000000" stroke-width="0.75" stroke-linecap="square" fill="none" /><path id="240" transform="matrix(1 0 0 -1 0 792)" d="M108.092 571.42L155.318 571.42" stroke="#000000" stroke-width="0.75" stroke-linecap="square" fill="none" /><path id="245" transform="matrix(1 0 0 -1 0 792)" d="M108.092 618.62L108.092 571.42L108.092 571.42L154.568 571.42" stroke="#000000" stroke-width="0.75" stroke-linecap="square" fill="none" /><path id="246" transform="matrix(1 0 0 -1 0 792)" d="M155.318 619.37L155.318 571.42" stroke="#000000" stroke-width="0.75" stroke-linecap="square" fill="none" /><path id="247" transform="matrix(1 0 0 -1 0 792)" d="M155.318 619.37L235.682 619.37L235.682 619.37L235.682 571.42" stroke="#000000" stroke-width="0.75" stroke-linecap="square" fill="none" /><path id="248" transform="matrix(1 0 0 -1 0 792)" d="M155.318 571.42L235.682 571.42" stroke="#000000" stroke-width="0.75" stroke-linecap="square" fill="none" /><path id="252" transform="matrix(1 0 0 -1 0 792)" d="M156.068 571.42L234.932 571.42" stroke="#000000" stroke-width="0.75" stroke-linecap="square" fill="none" /><path id="253" transform="matrix(1 0 0 -1 0 792)" d="M235.682 619.37L235.682 571.42" stroke="#000000" stroke-width="0.75" stroke-linecap="square" fill="none" /><path id="254" transform="matrix(1 0 0 -1 0 792)" d="M235.682 619.37L371.403 619.37L371.403 619.37L371.403 571.42" stroke="#000000" stroke-width="0.75" stroke-linecap="square" fill="none" /><path id="255" transform="matrix(1 0 0 -1 0 792)" d="M235.682 571.42L371.403 571.42" stroke="#000000" stroke-width="0.75" stroke-linecap="square" fill="none" /><path id="344" transform="matrix(1 0 0 -1 0 792)" d="M236.432 571.42L370.653 571.42" stroke="#000000" stroke-width="0.75" stroke-linecap="square" fill="none" /><path id="345" transform="matrix(1 0 0 -1 0 792)" d="M371.403 619.37L371.403 571.42" stroke="#000000" stroke-width="0.75" stroke-linecap="square" fill="none" /><path id="346" transform="matrix(1 0 0 -1 0 792)" d="M371.403 619.37L503.908 619.37L503.908 619.37L503.908 571.42" stroke="#000000" stroke-width="0.75" stroke-linecap="square" fill="none" /><path id="347" transform="matrix(1 0 0 -1 0 792)" d="M371.403 571.42L503.908 571.42" stroke="#000000" stroke-width="0.75" stroke-linecap="square" fill="none" /><path id="418" transform="matrix(1 0 0 -1 0 792)" d="M503.908 618.62L503.908 571.42" stroke="#000000" stroke-width="0.75" stroke-linecap="square" fill="none" /><path id="419" transform="matrix(1 0 0 -1 0 792)" d="M372.153 571.42L503.908 571.42" stroke="#000000" stroke-width="0.75" stroke-linecap="square" fill="none" /></g></g></svg>