<svg xmlns="http://www.w3.org/2000/svg" xmlns:xlink="http://www.w3.org/1999/xlink" id="body_87" preserveAspectRatio="xMinYMin meet" viewBox="0 0 816 1056"><defs><clipPath id="1"><path id="" clip-rule="evenodd" transform="matrix(1 0 0 1 0 0)" d="M0 792L0 0L0 0L612 0L612 0L612 792L612 792L0 792z" /></clipPath></defs><g transform="matrix(1.333333 0 0 1.333333 0 0)"><g clip-path="url(#1)"><path id="84" transform="matrix(1 0 0 -1 0 792)" d="M108.092 672.57L108.092 656.52" stroke="#000000" stroke-width="0.75" stroke-linecap="square" fill="none" /><path id="85" transform="matrix(1 0 0 -1 0 792)" d="M108.092 672.57L191.791 672.57L191.791 672.57L191.791 656.52" stroke="#000000" stroke-width="0.75" stroke-linecap="square" fill="none" /><path id="86" transform="matrix(1 0 0 -1 0 792)" d="M108.092 656.52L191.791 656.52" stroke="#000000" stroke-width="0.75" stroke-linecap="square" fill="none" /><path id="96" transform="matrix(1 0 0 -1 0 792)" d="M108.092 672.57L108.092 657.27" stroke="#000000" stroke-width="0.75" stroke-linecap="square" fill="none" /><path id="97" transform="matrix(1 0 0 -1 0 792)" d="M108.092 672.57L191.041 672.57" stroke="#000000" stroke-width="0.75" stroke-linecap="square" fill="none" /><path id="98" transform="matrix(1 0 0 -1 0 792)" d="M191.791 672.57L191.791 656.52" stroke="#000000" stroke-width="0.75" stroke-linecap="square" fill="none" /><path id="99" transform="matrix(1 0 0 -1 0 792)" d="M191.791 672.57L351.927 672.57L351.927 672.57L351.927 656.52" stroke="#000000" stroke-width="0.75" stroke-linecap="square" fill="none" /><path id="100" transform="matrix(1 0 0 -1 0 792)" d="M191.791 656.52L351.927 656.52" stroke="#000000" stroke-width="0.75" stroke-linecap="square" fill="none" /><path id="112" transform="matrix(1 0 0 -1 0 792)" d="M192.541 672.57L351.177 672.57" stroke="#000000" stroke-width="0.75" stroke-linecap="square" fill="none" /><path id="113" transform="matrix(1 0 0 -1 0 792)" d="M351.927 672.57L351.927 656.52" stroke="#000000" stroke-width="0.75" stroke-linecap="square" fill="none" /><path id="114" transform="matrix(1 0 0 -1 0 792)" d="M351.927 672.57L503.908 672.57L503.908 672.57L503.908 656.52" stroke="#000000" stroke-width="0.75" stroke-linecap="square" fill="none" /><path id="115" transform="matrix(1 0 0 -1 0 792)" d="M351.927 656.52L503.908 656.52" stroke="#000000" stroke-width="0.75" stroke-linecap="square" fill="none" /><path id="119" transform="matrix(1 0 0 -1 0 792)" d="M352.677 672.57L503.908 672.57L503.908 672.57L503.908 657.27" stroke="#000000" stroke-width="0.75" stroke-linecap="square" fill="none" /><path id="120" transform="matrix(1 0 0 -1 0 792)" d="M108.092 656.52L108.092 630.17" stroke="#000000" stroke-width="0.75" stroke-linecap="square" fill="none" /><path id="121" transform="matrix(1 0 0 -1 0 792)" d="M108.092 656.52L191.791 656.52L191.791 656.52L191.791 630.17" stroke="#000000" stroke-width="0.75" stroke-linecap="square" fill="none" /><path id="122" transform="matrix(1 0 0 -1 0 792)" d="M108.092 630.17L191.791 630.17" stroke="#000000" stroke-width="0.75" stroke-linecap="square" fill="none" /><path id="135" transform="matrix(1 0 0 -1 0 792)" d="M108.092 655.77L108.092 630.92" stroke="#000000" stroke-width="0.75" stroke-linecap="square" fill="none" /><path id="136" transform="matrix(1 0 0 -1 0 792)" d="M191.791 656.52L191.791 630.17" stroke="#000000" stroke-width="0.75" stroke-linecap="square" fill="none" /><path id="137" transform="matrix(1 0 0 -1 0 792)" d="M191.791 656.52L351.927 656.52L351.927 656.52L351.927 630.17" stroke="#000000" stroke-width="0.75" stroke-linecap="square" fill="none" /><path id="138" transform="matrix(1 0 0 -1 0 792)" d="M191.791 630.17L351.927 630.17" stroke="#000000" stroke-width="0.75" stroke-linecap="square" fill="none" /><path id="201" transform="matrix(1 0 0 -1 0 792)" d="M351.927 656.52L351.927 630.17" stroke="#000000" stroke-width="0.75" stroke-linecap="square" fill="none" /><path id="202" transform="matrix(1 0 0 -1 0 792)" d="M351.927 656.52L503.908 656.52L503.908 656.52L503.908 630.17" stroke="#000000" stroke-width="0.75" stroke-linecap="square" fill="none" /><path id="203" transform="matrix(1 0 0 -1 0 792)" d="M351.927 630.17L503.908 630.17" stroke="#000000" stroke-width="0.75" stroke-linecap="square" fill="none" /><path id="258" transform="matrix(1 0 0 -1 0 792)" d="M503.908 655.77L503.908 630.92" stroke="#000000" stroke-width="0.75" stroke-linecap="square" fill="none" /><path id="259" transform="matrix(1 0 0 -1 0 792)" d="M108.092 630.17L108.092 603.82" stroke="#000000" stroke-width="0.75" stroke-linecap="square" fill="none" /><path id="260" transform="matrix(1 0 0 -1 0 792)" d="M108.092 630.17L191.791 630.17L191.791 630.17L191.791 603.82" stroke="#000000" stroke-width="0.75" stroke-linecap="square" fill="none" /><path id="261" transform="matrix(1 0 0 -1 0 792)" d="M108.092 603.82L191.791 603.82" stroke="#000000" stroke-width="0.75" stroke-linecap="square" fill="none" /><path id="270" transform="matrix(1 0 0 -1 0 792)" d="M108.092 629.42L108.092 604.57" stroke="#000000" stroke-width="0.75" stroke-linecap="square" fill="none" /><path id="271" transform="matrix(1 0 0 -1 0 792)" d="M191.791 630.17L191.791 603.82" stroke="#000000" stroke-width="0.75" stroke-linecap="square" fill="none" /><path id="272" transform="matrix(1 0 0 -1 0 792)" d="M191.791 630.17L351.927 630.17L351.927 630.17L351.927 603.82" stroke="#000000" stroke-width="0.75" stroke-linecap="square" fill="none" /><path id="273" transform="matrix(1 0 0 -1 0 792)" d="M191.791 603.82L351.927 603.82" stroke="#000000" stroke-width="0.75" stroke-linecap="square" fill="none" /><path id="329" transform="matrix(1 0 0 -1 0 792)" d="M351.927 630.17L351.927 603.82" stroke="#000000" stroke-width="0.75" stroke-linecap="square" fill="none" /><path id="330" transform="matrix(1 0 0 -1 0 792)" d="M351.927 630.17L503.908 630.17L503.908 630.17L503.908 603.82" stroke="#000000" stroke-width="0.75" stroke-linecap="square" fill="none" /><path id="331" transform="matrix(1 0 0 -1 0 792)" d="M351.927 603.82L503.908 603.82" stroke="#000000" stroke-width="0.75" stroke-linecap="square" fill="none" /><path id="386" transform="matrix(1 0 0 -1 0 792)" d="M503.908 629.42L503.908 604.57" stroke="#000000" stroke-width="0.75" stroke-linecap="square" fill="none" /><path id="387" transform="matrix(1 0 0 -1 0 792)" d="M108.092 603.82L108.092 566.67" stroke="#000000" stroke-width="0.75" stroke-linecap="square" fill="none" /><path id="388" transform="matrix(1 0 0 -1 0 792)" d="M108.092 603.82L191.791 603.82L191.791 603.82L191.791 566.67" stroke="#000000" stroke-width="0.75" stroke-linecap="square" fill="none" /><path id="389" transform="matrix(1 0 0 -1 0 792)" d="M108.092 566.67L191.791 566.67" stroke="#000000" stroke-width="0.75" stroke-linecap="square" fill="none" /><path id="410" transform="matrix(1 0 0 -1 0 792)" d="M108.092 603.07L108.092 566.67L108.092 566.67L191.041 566.67" stroke="#000000" stroke-width="0.75" stroke-linecap="square" fill="none" /><path id="411" transform="matrix(1 0 0 -1 0 792)" d="M191.791 603.82L191.791 566.67" stroke="#000000" stroke-width="0.75" stroke-linecap="square" fill="none" /><path id="412" transform="matrix(1 0 0 -1 0 792)" d="M191.791 603.82L351.927 603.82L351.927 603.82L351.927 566.67" stroke="#000000" stroke-width="0.75" stroke-linecap="square" fill="none" /><path id="413" transform="matrix(1 0 0 -1 0 792)" d="M191.791 566.67L351.927 566.67" stroke="#000000" stroke-width="0.75" stroke-linecap="square" fill="none" /><path id="498" transform="matrix(1 0 0 -1 0 792)" d="M192.541 566.67L351.177 566.67" stroke="#000000" stroke-width="0.75" stroke-linecap="square" fill="none" /><path id="499" transform="matrix(1 0 0 -1 0 792)" d="M351.927 603.82L351.927 566.67" stroke="#000000" stroke-width="0.75" stroke-linecap="square" fill="none" /><path id="500" transform="matrix(1 0 0 -1 0 792)" d="M351.927 603.82L503.908 603.82L503.908 603.82L503.908 566.67" stroke="#000000" stroke-width="0.75" stroke-linecap="square" fill="none" /><path id="501" transform="matrix(1 0 0 -1 0 792)" d="M351.927 566.67L503.908 566.67" stroke="#000000" stroke-width="0.75" stroke-linecap="square" fill="none" /><path id="571" transform="matrix(1 0 0 -1 0 792)" d="M503.908 603.07L503.908 566.67" stroke="#000000" stroke-width="0.75" stroke-linecap="square" fill="none" /><path id="572" transform="matrix(1 0 0 -1 0 792)" d="M352.677 566.67L503.908 566.67" stroke="#000000" stroke-width="0.75" stroke-linecap="square" fill="none" /><path id="898" transform="matrix(1 0 0 -1 0 792)" d="M108.092 440.52L108.092 424.47" stroke="#000000" stroke-width="0.75" stroke-linecap="square" fill="none" /><path id="899" transform="matrix(1 0 0 -1 0 792)" d="M108.092 440.52L184.081 440.52L184.081 440.52L184.081 424.47" stroke="#000000" stroke-width="0.75" stroke-linecap="square" fill="none" /><path id="900" transform="matrix(1 0 0 -1 0 792)" d="M108.092 424.47L184.081 424.47" stroke="#000000" stroke-width="0.75" stroke-linecap="square" fill="none" /><path id="906" transform="matrix(1 0 0 -1 0 792)" d="M108.092 440.52L108.092 425.22" stroke="#000000" stroke-width="0.75" stroke-linecap="square" fill="none" /><path id="907" transform="matrix(1 0 0 -1 0 792)" d="M108.092 440.52L183.331 440.52" stroke="#000000" stroke-width="0.75" stroke-linecap="square" fill="none" /><path id="908" transform="matrix(1 0 0 -1 0 792)" d="M184.081 440.52L184.081 424.47" stroke="#000000" stroke-width="0.75" stroke-linecap="square" fill="none" /><path id="909" transform="matrix(1 0 0 -1 0 792)" d="M184.081 440.52L320.919 440.52L320.919 440.52L320.919 424.47" stroke="#000000" stroke-width="0.75" stroke-linecap="square" fill="none" /><path id="910" transform="matrix(1 0 0 -1 0 792)" d="M184.081 424.47L320.919 424.47" stroke="#000000" stroke-width="0.75" stroke-linecap="square" fill="none" /><path id="924" transform="matrix(1 0 0 -1 0 792)" d="M184.831 440.52L320.169 440.52" stroke="#000000" stroke-width="0.75" stroke-linecap="square" fill="none" /><path id="925" transform="matrix(1 0 0 -1 0 792)" d="M320.919 440.52L320.919 424.47" stroke="#000000" stroke-width="0.75" stroke-linecap="square" fill="none" /><path id="926" transform="matrix(1 0 0 -1 0 792)" d="M320.919 440.52L503.908 440.52L503.908 440.52L503.908 424.47" stroke="#000000" stroke-width="0.75" stroke-linecap="square" fill="none" /><path id="927" transform="matrix(1 0 0 -1 0 792)" d="M320.919 424.47L503.908 424.47" stroke="#000000" stroke-width="0.75" stroke-linecap="square" fill="none" /><path id="949" transform="matrix(1 0 0 -1 0 792)" d="M321.669 440.52L503.908 440.52L503.908 440.52L503.908 425.22" stroke="#000000" stroke-width="0.75" stroke-linecap="square" fill="none" /><path id="950" transform="matrix(1 0 0 -1 0 792)" d="M108.092 424.47L108.092 387.32" stroke="#000000" stroke-width="0.75" stroke-linecap="square" fill="none" /><path id="951" transform="matrix(1 0 0 -1 0 792)" d="M108.092 424.47L184.081 424.47L184.081 424.47L184.081 387.32" stroke="#000000" stroke-width="0.75" stroke-linecap="square" fill="none" /><path id="952" transform="matrix(1 0 0 -1 0 792)" d="M108.092 387.32L184.081 387.32" stroke="#000000" stroke-width="0.75" stroke-linecap="square" fill="none" /><path id="970" transform="matrix(1 0 0 -1 0 792)" d="M108.092 423.72L108.092 388.07" stroke="#000000" stroke-width="0.75" stroke-linecap="square" fill="none" /><path id="971" transform="matrix(1 0 0 -1 0 792)" d="M184.081 424.47L184.081 387.32" stroke="#000000" stroke-width="0.75" stroke-linecap="square" fill="none" /><path id="972" transform="matrix(1 0 0 -1 0 792)" d="M184.081 424.47L320.919 424.47L320.919 424.47L320.919 387.32" stroke="#000000" stroke-width="0.75" stroke-linecap="square" fill="none" /><path id="973" transform="matrix(1 0 0 -1 0 792)" d="M184.081 387.32L320.919 387.32" stroke="#000000" stroke-width="0.75" stroke-linecap="square" fill="none" /><path id="1007" transform="matrix(1 0 0 -1 0 792)" d="M320.919 424.47L320.919 387.32" stroke="#000000" stroke-width="0.75" stroke-linecap="square" fill="none" /><path id="1008" transform="matrix(1 0 0 -1 0 792)" d="M320.919 424.47L503.908 424.47L503.908 424.47L503.908 387.32" stroke="#000000" stroke-width="0.75" stroke-linecap="square" fill="none" /><path id="1009" transform="matrix(1 0 0 -1 0 792)" d="M320.919 387.32L503.908 387.32" stroke="#000000" stroke-width="0.75" stroke-linecap="square" fill="none" /><path id="1106" transform="matrix(1 0 0 -1 0 792)" d="M503.908 423.72L503.908 388.07" stroke="#000000" stroke-width="0.75" stroke-linecap="square" fill="none" /><path id="1107" transform="matrix(1 0 0 -1 0 792)" d="M108.092 387.32L108.092 360.97" stroke="#000000" stroke-width="0.75" stroke-linecap="square" fill="none" /><path id="1108" transform="matrix(1 0 0 -1 0 792)" d="M108.092 387.32L184.081 387.32L184.081 387.32L184.081 360.97" stroke="#000000" stroke-width="0.75" stroke-linecap="square" fill="none" /><path id="1109" transform="matrix(1 0 0 -1 0 792)" d="M108.092 360.97L184.081 360.97" stroke="#000000" stroke-width="0.75" stroke-linecap="square" fill="none" /><path id="1125" transform="matrix(1 0 0 -1 0 792)" d="M108.092 386.57L108.092 361.72" stroke="#000000" stroke-width="0.75" stroke-linecap="square" fill="none" /><path id="1126" transform="matrix(1 0 0 -1 0 792)" d="M184.081 387.32L184.081 360.97" stroke="#000000" stroke-width="0.75" stroke-linecap="square" fill="none" /><path id="1127" transform="matrix(1 0 0 -1 0 792)" d="M184.081 387.32L320.919 387.32L320.919 387.32L320.919 360.97" stroke="#000000" stroke-width="0.75" stroke-linecap="square" fill="none" /><path id="1128" transform="matrix(1 0 0 -1 0 792)" d="M184.081 360.97L320.919 360.97" stroke="#000000" stroke-width="0.75" stroke-linecap="square" fill="none" /><path id="1170" transform="matrix(1 0 0 -1 0 792)" d="M320.919 387.32L320.919 360.97" stroke="#000000" stroke-width="0.75" stroke-linecap="square" fill="none" /><path id="1171" transform="matrix(1 0 0 -1 0 792)" d="M320.919 387.32L503.908 387.32L503.908 387.32L503.908 360.97" stroke="#000000" stroke-width="0.75" stroke-linecap="square" fill="none" /><path id="1172" transform="matrix(1 0 0 -1 0 792)" d="M320.919 360.97L503.908 360.97" stroke="#000000" stroke-width="0.75" stroke-linecap="square" fill="none" /><path id="1226" transform="matrix(1 0 0 -1 0 792)" d="M503.908 386.57L503.908 361.72" stroke="#000000" stroke-width="0.75" stroke-linecap="square" fill="none" /><path id="1227" transform="matrix(1 0 0 -1 0 792)" d="M108.092 360.97L108.092 334.62" stroke="#000000" stroke-width="0.75" stroke-linecap="square" fill="none" /><path id="1228" transform="matrix(1 0 0 -1 0 792)" d="M108.092 360.97L184.081 360.97L184.081 360.97L184.081 334.62" stroke="#000000" stroke-width="0.75" stroke-linecap="square" fill="none" /><path id="1229" transform="matrix(1 0 0 -1 0 792)" d="M108.092 334.62L184.081 334.62" stroke="#000000" stroke-width="0.75" stroke-linecap="square" fill="none" /><path id="1245" transform="matrix(1 0 0 -1 0 792)" d="M108.092 360.22L108.092 335.37" stroke="#000000" stroke-width="0.75" stroke-linecap="square" fill="none" /><path id="1246" transform="matrix(1 0 0 -1 0 792)" d="M184.081 360.97L184.081 334.62" stroke="#000000" stroke-width="0.75" stroke-linecap="square" fill="none" /><path id="1247" transform="matrix(1 0 0 -1 0 792)" d="M184.081 360.97L320.919 360.97L320.919 360.97L320.919 334.62" stroke="#000000" stroke-width="0.75" stroke-linecap="square" fill="none" /><path id="1248" transform="matrix(1 0 0 -1 0 792)" d="M184.081 334.62L320.919 334.62" stroke="#000000" stroke-width="0.75" stroke-linecap="square" fill="none" /><path id="1271" transform="matrix(1 0 0 -1 0 792)" d="M320.919 360.97L320.919 334.62" stroke="#000000" stroke-width="0.75" stroke-linecap="square" fill="none" /><path id="1272" transform="matrix(1 0 0 -1 0 792)" d="M320.919 360.97L503.908 360.97L503.908 360.97L503.908 334.62" stroke="#000000" stroke-width="0.75" stroke-linecap="square" fill="none" /><path id="1273" transform="matrix(1 0 0 -1 0 792)" d="M320.919 334.62L503.908 334.62" stroke="#000000" stroke-width="0.75" stroke-linecap="square" fill="none" /><path id="1341" transform="matrix(1 0 0 -1 0 792)" d="M503.908 360.22L503.908 335.37" stroke="#000000" stroke-width="0.75" stroke-linecap="square" fill="none" /><path id="1342" transform="matrix(1 0 0 -1 0 792)" d="M108.092 334.62L108.092 308.27" stroke="#000000" stroke-width="0.75" stroke-linecap="square" fill="none" /><path id="1343" transform="matrix(1 0 0 -1 0 792)" d="M108.092 334.62L184.081 334.62L184.081 334.62L184.081 308.27" stroke="#000000" stroke-width="0.75" stroke-linecap="square" fill="none" /><path id="1344" transform="matrix(1 0 0 -1 0 792)" d="M108.092 308.27L184.081 308.27" stroke="#000000" stroke-width="0.75" stroke-linecap="square" fill="none" /><path id="1360" transform="matrix(1 0 0 -1 0 792)" d="M108.092 333.87L108.092 309.02" stroke="#000000" stroke-width="0.75" stroke-linecap="square" fill="none" /><path id="1361" transform="matrix(1 0 0 -1 0 792)" d="M184.081 334.62L184.081 308.27" stroke="#000000" stroke-width="0.75" stroke-linecap="square" fill="none" /><path id="1362" transform="matrix(1 0 0 -1 0 792)" d="M184.081 334.62L320.919 334.62L320.919 334.62L320.919 308.27" stroke="#000000" stroke-width="0.75" stroke-linecap="square" fill="none" /><path id="1363" transform="matrix(1 0 0 -1 0 792)" d="M184.081 308.27L320.919 308.27" stroke="#000000" stroke-width="0.75" stroke-linecap="square" fill="none" /><path id="1392" transform="matrix(1 0 0 -1 0 792)" d="M320.919 334.62L320.919 308.27" stroke="#000000" stroke-width="0.75" stroke-linecap="square" fill="none" /><path id="1393" transform="matrix(1 0 0 -1 0 792)" d="M320.919 334.62L503.908 334.62L503.908 334.62L503.908 308.27" stroke="#000000" stroke-width="0.75" stroke-linecap="square" fill="none" /><path id="1394" transform="matrix(1 0 0 -1 0 792)" d="M320.919 308.27L503.908 308.27" stroke="#000000" stroke-width="0.75" stroke-linecap="square" fill="none" /><path id="1446" transform="matrix(1 0 0 -1 0 792)" d="M503.908 333.87L503.908 309.02" stroke="#000000" stroke-width="0.75" stroke-linecap="square" fill="none" /><path id="1447" transform="matrix(1 0 0 -1 0 792)" d="M108.092 308.27L108.092 281.92" stroke="#000000" stroke-width="0.75" stroke-linecap="square" fill="none" /><path id="1448" transform="matrix(1 0 0 -1 0 792)" d="M108.092 308.27L184.081 308.27L184.081 308.27L184.081 281.92" stroke="#000000" stroke-width="0.75" stroke-linecap="square" fill="none" /><path id="1449" transform="matrix(1 0 0 -1 0 792)" d="M108.092 281.92L184.081 281.92" stroke="#000000" stroke-width="0.75" stroke-linecap="square" fill="none" /><path id="1464" transform="matrix(1 0 0 -1 0 792)" d="M108.092 307.52L108.092 282.67" stroke="#000000" stroke-width="0.75" stroke-linecap="square" fill="none" /><path id="1465" transform="matrix(1 0 0 -1 0 792)" d="M184.081 308.27L184.081 281.92" stroke="#000000" stroke-width="0.75" stroke-linecap="square" fill="none" /><path id="1466" transform="matrix(1 0 0 -1 0 792)" d="M184.081 308.27L320.919 308.27L320.919 308.27L320.919 281.92" stroke="#000000" stroke-width="0.75" stroke-linecap="square" fill="none" /><path id="1467" transform="matrix(1 0 0 -1 0 792)" d="M184.081 281.92L320.919 281.92" stroke="#000000" stroke-width="0.75" stroke-linecap="square" fill="none" /><path id="1495" transform="matrix(1 0 0 -1 0 792)" d="M320.919 308.27L320.919 281.92" stroke="#000000" stroke-width="0.75" stroke-linecap="square" fill="none" /><path id="1496" transform="matrix(1 0 0 -1 0 792)" d="M320.919 308.27L503.908 308.27L503.908 308.27L503.908 281.92" stroke="#000000" stroke-width="0.75" stroke-linecap="square" fill="none" /><path id="1497" transform="matrix(1 0 0 -1 0 792)" d="M320.919 281.92L503.908 281.92" stroke="#000000" stroke-width="0.75" stroke-linecap="square" fill="none" /><path id="1546" transform="matrix(1 0 0 -1 0 792)" d="M503.908 307.52L503.908 282.67" stroke="#000000" stroke-width="0.75" stroke-linecap="square" fill="none" /><path id="1547" transform="matrix(1 0 0 -1 0 792)" d="M108.092 281.92L108.092 255.57" stroke="#000000" stroke-width="0.75" stroke-linecap="square" fill="none" /><path id="1548" transform="matrix(1 0 0 -1 0 792)" d="M108.092 281.92L184.081 281.92L184.081 281.92L184.081 255.57" stroke="#000000" stroke-width="0.75" stroke-linecap="square" fill="none" /><path id="1549" transform="matrix(1 0 0 -1 0 792)" d="M108.092 255.57L184.081 255.57" stroke="#000000" stroke-width="0.75" stroke-linecap="square" fill="none" /><path id="1565" transform="matrix(1 0 0 -1 0 792)" d="M108.092 281.17L108.092 256.32" stroke="#000000" stroke-width="0.75" stroke-linecap="square" fill="none" /><path id="1566" transform="matrix(1 0 0 -1 0 792)" d="M184.081 281.92L184.081 255.57" stroke="#000000" stroke-width="0.75" stroke-linecap="square" fill="none" /><path id="1567" transform="matrix(1 0 0 -1 0 792)" d="M184.081 281.92L320.919 281.92L320.919 281.92L320.919 255.57" stroke="#000000" stroke-width="0.75" stroke-linecap="square" fill="none" /><path id="1568" transform="matrix(1 0 0 -1 0 792)" d="M184.081 255.57L320.919 255.57" stroke="#000000" stroke-width="0.75" stroke-linecap="square" fill="none" /><path id="1604" transform="matrix(1 0 0 -1 0 792)" d="M320.919 281.92L320.919 255.57" stroke="#000000" stroke-width="0.75" stroke-linecap="square" fill="none" /><path id="1605" transform="matrix(1 0 0 -1 0 792)" d="M320.919 281.92L503.908 281.92L503.908 281.92L503.908 255.57" stroke="#000000" stroke-width="0.75" stroke-linecap="square" fill="none" /><path id="1606" transform="matrix(1 0 0 -1 0 792)" d="M320.919 255.57L503.908 255.57" stroke="#000000" stroke-width="0.75" stroke-linecap="square" fill="none" /><path id="1646" transform="matrix(1 0 0 -1 0 792)" d="M503.908 281.17L503.908 256.32" stroke="#000000" stroke-width="0.75" stroke-linecap="square" fill="none" /><path id="1647" transform="matrix(1 0 0 -1 0 792)" d="M108.092 255.57L108.092 218.42" stroke="#000000" stroke-width="0.75" stroke-linecap="square" fill="none" /><path id="1648" transform="matrix(1 0 0 -1 0 792)" d="M108.092 255.57L184.081 255.57L184.081 255.57L184.081 218.42" stroke="#000000" stroke-width="0.75" stroke-linecap="square" fill="none" /><path id="1649" transform="matrix(1 0 0 -1 0 792)" d="M108.092 218.42L184.081 218.42" stroke="#000000" stroke-width="0.75" stroke-linecap="square" fill="none" /><path id="1668" transform="matrix(1 0 0 -1 0 792)" d="M108.092 254.82L108.092 219.17" stroke="#000000" stroke-width="0.75" stroke-linecap="square" fill="none" /><path id="1669" transform="matrix(1 0 0 -1 0 792)" d="M184.081 255.57L184.081 218.42" stroke="#000000" stroke-width="0.75" stroke-linecap="square" fill="none" /><path id="1670" transform="matrix(1 0 0 -1 0 792)" d="M184.081 255.57L320.919 255.57L320.919 255.57L320.919 218.42" stroke="#000000" stroke-width="0.75" stroke-linecap="square" fill="none" /><path id="1671" transform="matrix(1 0 0 -1 0 792)" d="M184.081 218.42L320.919 218.42" stroke="#000000" stroke-width="0.75" stroke-linecap="square" fill="none" /><path id="1701" transform="matrix(1 0 0 -1 0 792)" d="M320.919 255.57L320.919 218.42" stroke="#000000" stroke-width="0.75" stroke-linecap="square" fill="none" /><path id="1702" transform="matrix(1 0 0 -1 0 792)" d="M320.919 255.57L503.908 255.57L503.908 255.57L503.908 218.42" stroke="#000000" stroke-width="0.75" stroke-linecap="square" fill="none" /><path id="1703" transform="matrix(1 0 0 -1 0 792)" d="M320.919 218.42L503.908 218.42" stroke="#000000" stroke-width="0.75" stroke-linecap="square" fill="none" /><path id="1795" transform="matrix(1 0 0 -1 0 792)" d="M503.908 254.82L503.908 219.17" stroke="#000000" stroke-width="0.75" stroke-linecap="square" fill="none" /><path id="1796" transform="matrix(1 0 0 -1 0 792)" d="M108.092 218.42L108.092 192.07" stroke="#000000" stroke-width="0.75" stroke-linecap="square" fill="none" /><path id="1797" transform="matrix(1 0 0 -1 0 792)" d="M108.092 218.42L184.081 218.42L184.081 218.42L184.081 192.07" stroke="#000000" stroke-width="0.75" stroke-linecap="square" fill="none" /><path id="1798" transform="matrix(1 0 0 -1 0 792)" d="M108.092 192.07L184.081 192.07" stroke="#000000" stroke-width="0.75" stroke-linecap="square" fill="none" /><path id="1816" transform="matrix(1 0 0 -1 0 792)" d="M108.092 217.67L108.092 192.82" stroke="#000000" stroke-width="0.75" stroke-linecap="square" fill="none" /><path id="1817" transform="matrix(1 0 0 -1 0 792)" d="M184.081 218.42L184.081 192.07" stroke="#000000" stroke-width="0.75" stroke-linecap="square" fill="none" /><path id="1818" transform="matrix(1 0 0 -1 0 792)" d="M184.081 218.42L320.919 218.42L320.919 218.42L320.919 192.07" stroke="#000000" stroke-width="0.75" stroke-linecap="square" fill="none" /><path id="1819" transform="matrix(1 0 0 -1 0 792)" d="M184.081 192.07L320.919 192.07" stroke="#000000" stroke-width="0.75" stroke-linecap="square" fill="none" /><path id="1866" transform="matrix(1 0 0 -1 0 792)" d="M320.919 218.42L320.919 192.07" stroke="#000000" stroke-width="0.75" stroke-linecap="square" fill="none" /><path id="1867" transform="matrix(1 0 0 -1 0 792)" d="M320.919 218.42L503.908 218.42L503.908 218.42L503.908 192.07" stroke="#000000" stroke-width="0.75" stroke-linecap="square" fill="none" /><path id="1868" transform="matrix(1 0 0 -1 0 792)" d="M320.919 192.07L503.908 192.07" stroke="#000000" stroke-width="0.75" stroke-linecap="square" fill="none" /><path id="1899" transform="matrix(1 0 0 -1 0 792)" d="M503.908 217.67L503.908 192.82" stroke="#000000" stroke-width="0.75" stroke-linecap="square" fill="none" /><path id="1900" transform="matrix(1 0 0 -1 0 792)" d="M108.092 192.07L108.092 165.72" stroke="#000000" stroke-width="0.75" stroke-linecap="square" fill="none" /><path id="1901" transform="matrix(1 0 0 -1 0 792)" d="M108.092 192.07L184.081 192.07L184.081 192.07L184.081 165.72" stroke="#000000" stroke-width="0.75" stroke-linecap="square" fill="none" /><path id="1902" transform="matrix(1 0 0 -1 0 792)" d="M108.092 165.72L184.081 165.72" stroke="#000000" stroke-width="0.75" stroke-linecap="square" fill="none" /><path id="1918" transform="matrix(1 0 0 -1 0 792)" d="M108.092 191.32L108.092 166.47" stroke="#000000" stroke-width="0.75" stroke-linecap="square" fill="none" /><path id="1919" transform="matrix(1 0 0 -1 0 792)" d="M184.081 192.07L184.081 165.72" stroke="#000000" stroke-width="0.75" stroke-linecap="square" fill="none" /><path id="1920" transform="matrix(1 0 0 -1 0 792)" d="M184.081 192.07L320.919 192.07L320.919 192.07L320.919 165.72" stroke="#000000" stroke-width="0.75" stroke-linecap="square" fill="none" /><path id="1921" transform="matrix(1 0 0 -1 0 792)" d="M184.081 165.72L320.919 165.72" stroke="#000000" stroke-width="0.75" stroke-linecap="square" fill="none" /><path id="1964" transform="matrix(1 0 0 -1 0 792)" d="M320.919 192.07L320.919 165.72" stroke="#000000" stroke-width="0.75" stroke-linecap="square" fill="none" /><path id="1965" transform="matrix(1 0 0 -1 0 792)" d="M320.919 192.07L503.908 192.07L503.908 192.07L503.908 165.72" stroke="#000000" stroke-width="0.75" stroke-linecap="square" fill="none" /><path id="1966" transform="matrix(1 0 0 -1 0 792)" d="M320.919 165.72L503.908 165.72" stroke="#000000" stroke-width="0.75" stroke-linecap="square" fill="none" /><path id="2029" transform="matrix(1 0 0 -1 0 792)" d="M503.908 191.32L503.908 166.47" stroke="#000000" stroke-width="0.75" stroke-linecap="square" fill="none" /><path id="2030" transform="matrix(1 0 0 -1 0 792)" d="M108.092 165.72L108.092 139.37" stroke="#000000" stroke-width="0.75" stroke-linecap="square" fill="none" /><path id="2031" transform="matrix(1 0 0 -1 0 792)" d="M108.092 165.72L184.081 165.72L184.081 165.72L184.081 139.37" stroke="#000000" stroke-width="0.75" stroke-linecap="square" fill="none" /><path id="2032" transform="matrix(1 0 0 -1 0 792)" d="M108.092 139.37L184.081 139.37" stroke="#000000" stroke-width="0.75" stroke-linecap="square" fill="none" /><path id="2047" transform="matrix(1 0 0 -1 0 792)" d="M108.092 164.97L108.092 140.12" stroke="#000000" stroke-width="0.75" stroke-linecap="square" fill="none" /><path id="2048" transform="matrix(1 0 0 -1 0 792)" d="M184.081 165.72L184.081 139.37" stroke="#000000" stroke-width="0.75" stroke-linecap="square" fill="none" /><path id="2049" transform="matrix(1 0 0 -1 0 792)" d="M184.081 165.72L320.919 165.72L320.919 165.72L320.919 139.37" stroke="#000000" stroke-width="0.75" stroke-linecap="square" fill="none" /><path id="2050" transform="matrix(1 0 0 -1 0 792)" d="M184.081 139.37L320.919 139.37" stroke="#000000" stroke-width="0.75" stroke-linecap="square" fill="none" /><path id="2085" transform="matrix(1 0 0 -1 0 792)" d="M320.919 165.72L320.919 139.37" stroke="#000000" stroke-width="0.75" stroke-linecap="square" fill="none" /><path id="2086" transform="matrix(1 0 0 -1 0 792)" d="M320.919 165.72L503.908 165.72L503.908 165.72L503.908 139.37" stroke="#000000" stroke-width="0.75" stroke-linecap="square" fill="none" /><path id="2087" transform="matrix(1 0 0 -1 0 792)" d="M320.919 139.37L503.908 139.37" stroke="#000000" stroke-width="0.75" stroke-linecap="square" fill="none" /><path id="2134" transform="matrix(1 0 0 -1 0 792)" d="M503.908 164.97L503.908 140.12" stroke="#000000" stroke-width="0.75" stroke-linecap="square" fill="none" /><path id="2135" transform="matrix(1 0 0 -1 0 792)" d="M108.092 139.37L108.092 123.82" stroke="#000000" stroke-width="0.75" stroke-linecap="square" fill="none" /><path id="2136" transform="matrix(1 0 0 -1 0 792)" d="M108.092 139.37L184.081 139.37L184.081 139.37L184.081 123.82" stroke="#000000" stroke-width="0.75" stroke-linecap="square" fill="none" /><path id="2137" transform="matrix(1 0 0 -1 0 792)" d="M108.092 123.82L184.081 123.82" stroke="#000000" stroke-width="0.75" stroke-linecap="square" fill="none" /><path id="2154" transform="matrix(1 0 0 -1 0 792)" d="M108.092 138.62L108.092 123.82L108.092 123.82L183.331 123.82" stroke="#000000" stroke-width="0.75" stroke-linecap="square" fill="none" /><path id="2155" transform="matrix(1 0 0 -1 0 792)" d="M184.081 139.37L184.081 123.82" stroke="#000000" stroke-width="0.75" stroke-linecap="square" fill="none" /><path id="2156" transform="matrix(1 0 0 -1 0 792)" d="M184.081 139.37L320.919 139.37L320.919 139.37L320.919 123.82" stroke="#000000" stroke-width="0.75" stroke-linecap="square" fill="none" /><path id="2157" transform="matrix(1 0 0 -1 0 792)" d="M184.081 123.82L320.919 123.82" stroke="#000000" stroke-width="0.75" stroke-linecap="square" fill="none" /><path id="2188" transform="matrix(1 0 0 -1 0 792)" d="M184.831 123.82L320.169 123.82" stroke="#000000" stroke-width="0.75" stroke-linecap="square" fill="none" /><path id="2189" transform="matrix(1 0 0 -1 0 792)" d="M320.919 139.37L320.919 123.82" stroke="#000000" stroke-width="0.75" stroke-linecap="square" fill="none" /><path id="2190" transform="matrix(1 0 0 -1 0 792)" d="M320.919 139.37L503.908 139.37L503.908 139.37L503.908 123.82" stroke="#000000" stroke-width="0.75" stroke-linecap="square" fill="none" /><path id="2191" transform="matrix(1 0 0 -1 0 792)" d="M320.919 123.82L503.908 123.82" stroke="#000000" stroke-width="0.75" stroke-linecap="square" fill="none" /><path id="2226" transform="matrix(1 0 0 -1 0 792)" d="M503.908 138.62L503.908 123.82" stroke="#000000" stroke-width="0.75" stroke-linecap="square" fill="none" /><path id="2227" transform="matrix(1 0 0 -1 0 792)" d="M321.669 123.82L503.908 123.82" stroke="#000000" stroke-width="0.75" stroke-linecap="square" fill="none" /></g></g></svg>