<svg xmlns="http://www.w3.org/2000/svg" xmlns:xlink="http://www.w3.org/1999/xlink" id="body_115" preserveAspectRatio="xMinYMin meet" viewBox="0 0 816 1056"><defs><clipPath id="1"><path id="" clip-rule="evenodd" transform="matrix(1 0 0 1 0 0)" d="M0 792L0 0L0 0L612 0L612 0L612 792L612 792L0 792z" /></clipPath></defs><g transform="matrix(1.333333 0 0 1.333333 0 0)"><g clip-path="url(#1)"><path id="157" transform="matrix(1 0 0 -1 0 792)" d="M108.092 649.02L108.092 632.97" stroke="#000000" stroke-width="0.75" stroke-linecap="square" fill="none" /><path id="158" transform="matrix(1 0 0 -1 0 792)" d="M108.092 649.02L248.232 649.02L248.232 649.02L248.232 632.97" stroke="#000000" stroke-width="0.75" stroke-linecap="square" fill="none" /><path id="159" transform="matrix(1 0 0 -1 0 792)" d="M108.092 632.97L248.232 632.97" stroke="#000000" stroke-width="0.75" stroke-linecap="square" fill="none" /><path id="169" transform="matrix(1 0 0 -1 0 792)" d="M108.092 649.02L108.092 633.72" stroke="#000000" stroke-width="0.75" stroke-linecap="square" fill="none" /><path id="170" transform="matrix(1 0 0 -1 0 792)" d="M108.092 649.02L247.482 649.02" stroke="#000000" stroke-width="0.75" stroke-linecap="square" fill="none" /><path id="171" transform="matrix(1 0 0 -1 0 792)" d="M248.232 649.02L248.232 632.97" stroke="#000000" stroke-width="0.75" stroke-linecap="square" fill="none" /><path id="172" transform="matrix(1 0 0 -1 0 792)" d="M248.232 649.02L336.76 649.02L336.76 649.02L336.76 632.97" stroke="#000000" stroke-width="0.75" stroke-linecap="square" fill="none" /><path id="173" transform="matrix(1 0 0 -1 0 792)" d="M248.232 632.97L336.76 632.97" stroke="#000000" stroke-width="0.75" stroke-linecap="square" fill="none" /><path id="186" transform="matrix(1 0 0 -1 0 792)" d="M248.982 649.02L336.01 649.02" stroke="#000000" stroke-width="0.75" stroke-linecap="square" fill="none" /><path id="187" transform="matrix(1 0 0 -1 0 792)" d="M336.76 649.02L336.76 632.97" stroke="#000000" stroke-width="0.75" stroke-linecap="square" fill="none" /><path id="188" transform="matrix(1 0 0 -1 0 792)" d="M336.76 649.02L503.908 649.02L503.908 649.02L503.908 632.97" stroke="#000000" stroke-width="0.75" stroke-linecap="square" fill="none" /><path id="189" transform="matrix(1 0 0 -1 0 792)" d="M336.76 632.97L503.908 632.97" stroke="#000000" stroke-width="0.75" stroke-linecap="square" fill="none" /><path id="203" transform="matrix(1 0 0 -1 0 792)" d="M337.51 649.02L503.908 649.02L503.908 649.02L503.908 633.72" stroke="#000000" stroke-width="0.75" stroke-linecap="square" fill="none" /><path id="204" transform="matrix(1 0 0 -1 0 792)" d="M108.092 632.97L108.092 617.42" stroke="#000000" stroke-width="0.75" stroke-linecap="square" fill="none" /><path id="205" transform="matrix(1 0 0 -1 0 792)" d="M108.092 632.97L248.232 632.97L248.232 632.97L248.232 617.42" stroke="#000000" stroke-width="0.75" stroke-linecap="square" fill="none" /><path id="206" transform="matrix(1 0 0 -1 0 792)" d="M108.092 617.42L248.232 617.42" stroke="#000000" stroke-width="0.75" stroke-linecap="square" fill="none" /><path id="221" transform="matrix(1 0 0 -1 0 792)" d="M108.092 632.22L108.092 618.17" stroke="#000000" stroke-width="0.75" stroke-linecap="square" fill="none" /><path id="222" transform="matrix(1 0 0 -1 0 792)" d="M248.232 632.97L248.232 617.42" stroke="#000000" stroke-width="0.75" stroke-linecap="square" fill="none" /><path id="223" transform="matrix(1 0 0 -1 0 792)" d="M248.232 632.97L336.76 632.97L336.76 632.97L336.76 617.42" stroke="#000000" stroke-width="0.75" stroke-linecap="square" fill="none" /><path id="224" transform="matrix(1 0 0 -1 0 792)" d="M248.232 617.42L336.76 617.42" stroke="#000000" stroke-width="0.75" stroke-linecap="square" fill="none" /><path id="227" transform="matrix(1 0 0 -1 0 792)" d="M336.76 632.97L336.76 617.42" stroke="#000000" stroke-width="0.75" stroke-linecap="square" fill="none" /><path id="228" transform="matrix(1 0 0 -1 0 792)" d="M336.76 632.97L503.908 632.97L503.908 632.97L503.908 617.42" stroke="#000000" stroke-width="0.75" stroke-linecap="square" fill="none" /><path id="229" transform="matrix(1 0 0 -1 0 792)" d="M336.76 617.42L503.908 617.42" stroke="#000000" stroke-width="0.75" stroke-linecap="square" fill="none" /><path id="232" transform="matrix(1 0 0 -1 0 792)" d="M503.908 632.22L503.908 618.17" stroke="#000000" stroke-width="0.75" stroke-linecap="square" fill="none" /><path id="233" transform="matrix(1 0 0 -1 0 792)" d="M108.092 617.42L108.092 601.87" stroke="#000000" stroke-width="0.75" stroke-linecap="square" fill="none" /><path id="234" transform="matrix(1 0 0 -1 0 792)" d="M108.092 617.42L248.232 617.42L248.232 617.42L248.232 601.87" stroke="#000000" stroke-width="0.75" stroke-linecap="square" fill="none" /><path id="235" transform="matrix(1 0 0 -1 0 792)" d="M108.092 601.87L248.232 601.87" stroke="#000000" stroke-width="0.75" stroke-linecap="square" fill="none" /><path id="253" transform="matrix(1 0 0 -1 0 792)" d="M108.092 616.67L108.092 602.62" stroke="#000000" stroke-width="0.75" stroke-linecap="square" fill="none" /><path id="254" transform="matrix(1 0 0 -1 0 792)" d="M248.232 617.42L248.232 601.87" stroke="#000000" stroke-width="0.75" stroke-linecap="square" fill="none" /><path id="255" transform="matrix(1 0 0 -1 0 792)" d="M248.232 617.42L336.76 617.42L336.76 617.42L336.76 601.87" stroke="#000000" stroke-width="0.75" stroke-linecap="square" fill="none" /><path id="256" transform="matrix(1 0 0 -1 0 792)" d="M248.232 601.87L336.76 601.87" stroke="#000000" stroke-width="0.75" stroke-linecap="square" fill="none" /><path id="261" transform="matrix(1 0 0 -1 0 792)" d="M336.76 617.42L336.76 601.87" stroke="#000000" stroke-width="0.75" stroke-linecap="square" fill="none" /><path id="262" transform="matrix(1 0 0 -1 0 792)" d="M336.76 617.42L503.908 617.42L503.908 617.42L503.908 601.87" stroke="#000000" stroke-width="0.75" stroke-linecap="square" fill="none" /><path id="263" transform="matrix(1 0 0 -1 0 792)" d="M336.76 601.87L503.908 601.87" stroke="#000000" stroke-width="0.75" stroke-linecap="square" fill="none" /><path id="268" transform="matrix(1 0 0 -1 0 792)" d="M503.908 616.67L503.908 602.62" stroke="#000000" stroke-width="0.75" stroke-linecap="square" fill="none" /><path id="269" transform="matrix(1 0 0 -1 0 792)" d="M108.092 601.87L108.092 586.32" stroke="#000000" stroke-width="0.75" stroke-linecap="square" fill="none" /><path id="270" transform="matrix(1 0 0 -1 0 792)" d="M108.092 601.87L248.232 601.87L248.232 601.87L248.232 586.32" stroke="#000000" stroke-width="0.75" stroke-linecap="square" fill="none" /><path id="271" transform="matrix(1 0 0 -1 0 792)" d="M108.092 586.32L248.232 586.32" stroke="#000000" stroke-width="0.75" stroke-linecap="square" fill="none" /><path id="290" transform="matrix(1 0 0 -1 0 792)" d="M108.092 601.12L108.092 587.07" stroke="#000000" stroke-width="0.75" stroke-linecap="square" fill="none" /><path id="291" transform="matrix(1 0 0 -1 0 792)" d="M248.232 601.87L248.232 586.32" stroke="#000000" stroke-width="0.75" stroke-linecap="square" fill="none" /><path id="292" transform="matrix(1 0 0 -1 0 792)" d="M248.232 601.87L336.76 601.87L336.76 601.87L336.76 586.32" stroke="#000000" stroke-width="0.75" stroke-linecap="square" fill="none" /><path id="293" transform="matrix(1 0 0 -1 0 792)" d="M248.232 586.32L336.76 586.32" stroke="#000000" stroke-width="0.75" stroke-linecap="square" fill="none" /><path id="298" transform="matrix(1 0 0 -1 0 792)" d="M336.76 601.87L336.76 586.32" stroke="#000000" stroke-width="0.75" stroke-linecap="square" fill="none" /><path id="299" transform="matrix(1 0 0 -1 0 792)" d="M336.76 601.87L503.908 601.87L503.908 601.87L503.908 586.32" stroke="#000000" stroke-width="0.75" stroke-linecap="square" fill="none" /><path id="300" transform="matrix(1 0 0 -1 0 792)" d="M336.76 586.32L503.908 586.32" stroke="#000000" stroke-width="0.75" stroke-linecap="square" fill="none" /><path id="305" transform="matrix(1 0 0 -1 0 792)" d="M503.908 601.12L503.908 587.07" stroke="#000000" stroke-width="0.75" stroke-linecap="square" fill="none" /><path id="306" transform="matrix(1 0 0 -1 0 792)" d="M108.092 586.32L108.092 570.77" stroke="#000000" stroke-width="0.75" stroke-linecap="square" fill="none" /><path id="307" transform="matrix(1 0 0 -1 0 792)" d="M108.092 586.32L248.232 586.32L248.232 586.32L248.232 570.77" stroke="#000000" stroke-width="0.75" stroke-linecap="square" fill="none" /><path id="308" transform="matrix(1 0 0 -1 0 792)" d="M108.092 570.77L248.232 570.77" stroke="#000000" stroke-width="0.75" stroke-linecap="square" fill="none" /><path id="316" transform="matrix(1 0 0 -1 0 792)" d="M108.092 585.57L108.092 571.52" stroke="#000000" stroke-width="0.75" stroke-linecap="square" fill="none" /><path id="317" transform="matrix(1 0 0 -1 0 792)" d="M248.232 586.32L248.232 570.77" stroke="#000000" stroke-width="0.75" stroke-linecap="square" fill="none" /><path id="318" transform="matrix(1 0 0 -1 0 792)" d="M248.232 586.32L336.76 586.32L336.76 586.32L336.76 570.77" stroke="#000000" stroke-width="0.75" stroke-linecap="square" fill="none" /><path id="319" transform="matrix(1 0 0 -1 0 792)" d="M248.232 570.77L336.76 570.77" stroke="#000000" stroke-width="0.75" stroke-linecap="square" fill="none" /><path id="325" transform="matrix(1 0 0 -1 0 792)" d="M336.76 586.32L336.76 570.77" stroke="#000000" stroke-width="0.75" stroke-linecap="square" fill="none" /><path id="326" transform="matrix(1 0 0 -1 0 792)" d="M336.76 586.32L503.908 586.32L503.908 586.32L503.908 570.77" stroke="#000000" stroke-width="0.75" stroke-linecap="square" fill="none" /><path id="327" transform="matrix(1 0 0 -1 0 792)" d="M336.76 570.77L503.908 570.77" stroke="#000000" stroke-width="0.75" stroke-linecap="square" fill="none" /><path id="333" transform="matrix(1 0 0 -1 0 792)" d="M503.908 585.57L503.908 571.52" stroke="#000000" stroke-width="0.75" stroke-linecap="square" fill="none" /><path id="334" transform="matrix(1 0 0 -1 0 792)" d="M108.092 570.77L108.092 555.22" stroke="#000000" stroke-width="0.75" stroke-linecap="square" fill="none" /><path id="335" transform="matrix(1 0 0 -1 0 792)" d="M108.092 570.77L248.232 570.77L248.232 570.77L248.232 555.22" stroke="#000000" stroke-width="0.75" stroke-linecap="square" fill="none" /><path id="336" transform="matrix(1 0 0 -1 0 792)" d="M108.092 555.22L248.232 555.22" stroke="#000000" stroke-width="0.75" stroke-linecap="square" fill="none" /><path id="348" transform="matrix(1 0 0 -1 0 792)" d="M108.092 570.02L108.092 555.97" stroke="#000000" stroke-width="0.75" stroke-linecap="square" fill="none" /><path id="349" transform="matrix(1 0 0 -1 0 792)" d="M248.232 570.77L248.232 555.22" stroke="#000000" stroke-width="0.75" stroke-linecap="square" fill="none" /><path id="350" transform="matrix(1 0 0 -1 0 792)" d="M248.232 570.77L336.76 570.77L336.76 570.77L336.76 555.22" stroke="#000000" stroke-width="0.75" stroke-linecap="square" fill="none" /><path id="351" transform="matrix(1 0 0 -1 0 792)" d="M248.232 555.22L336.76 555.22" stroke="#000000" stroke-width="0.75" stroke-linecap="square" fill="none" /><path id="355" transform="matrix(1 0 0 -1 0 792)" d="M336.76 570.77L336.76 555.22" stroke="#000000" stroke-width="0.75" stroke-linecap="square" fill="none" /><path id="356" transform="matrix(1 0 0 -1 0 792)" d="M336.76 570.77L503.908 570.77L503.908 570.77L503.908 555.22" stroke="#000000" stroke-width="0.75" stroke-linecap="square" fill="none" /><path id="357" transform="matrix(1 0 0 -1 0 792)" d="M336.76 555.22L503.908 555.22" stroke="#000000" stroke-width="0.75" stroke-linecap="square" fill="none" /><path id="362" transform="matrix(1 0 0 -1 0 792)" d="M503.908 570.02L503.908 555.97" stroke="#000000" stroke-width="0.75" stroke-linecap="square" fill="none" /><path id="363" transform="matrix(1 0 0 -1 0 792)" d="M108.092 555.22L108.092 539.67" stroke="#000000" stroke-width="0.75" stroke-linecap="square" fill="none" /><path id="364" transform="matrix(1 0 0 -1 0 792)" d="M108.092 555.22L248.232 555.22L248.232 555.22L248.232 539.67" stroke="#000000" stroke-width="0.75" stroke-linecap="square" fill="none" /><path id="365" transform="matrix(1 0 0 -1 0 792)" d="M108.092 539.67L248.232 539.67" stroke="#000000" stroke-width="0.75" stroke-linecap="square" fill="none" /><path id="376" transform="matrix(1 0 0 -1 0 792)" d="M108.092 554.47L108.092 540.42" stroke="#000000" stroke-width="0.75" stroke-linecap="square" fill="none" /><path id="377" transform="matrix(1 0 0 -1 0 792)" d="M248.232 555.22L248.232 539.67" stroke="#000000" stroke-width="0.75" stroke-linecap="square" fill="none" /><path id="378" transform="matrix(1 0 0 -1 0 792)" d="M248.232 555.22L336.76 555.22L336.76 555.22L336.76 539.67" stroke="#000000" stroke-width="0.75" stroke-linecap="square" fill="none" /><path id="379" transform="matrix(1 0 0 -1 0 792)" d="M248.232 539.67L336.76 539.67" stroke="#000000" stroke-width="0.75" stroke-linecap="square" fill="none" /><path id="383" transform="matrix(1 0 0 -1 0 792)" d="M336.76 555.22L336.76 539.67" stroke="#000000" stroke-width="0.75" stroke-linecap="square" fill="none" /><path id="384" transform="matrix(1 0 0 -1 0 792)" d="M336.76 555.22L503.908 555.22L503.908 555.22L503.908 539.67" stroke="#000000" stroke-width="0.75" stroke-linecap="square" fill="none" /><path id="385" transform="matrix(1 0 0 -1 0 792)" d="M336.76 539.67L503.908 539.67" stroke="#000000" stroke-width="0.75" stroke-linecap="square" fill="none" /><path id="400" transform="matrix(1 0 0 -1 0 792)" d="M503.908 554.47L503.908 540.42" stroke="#000000" stroke-width="0.75" stroke-linecap="square" fill="none" /><path id="401" transform="matrix(1 0 0 -1 0 792)" d="M108.092 539.67L108.092 524.12" stroke="#000000" stroke-width="0.75" stroke-linecap="square" fill="none" /><path id="402" transform="matrix(1 0 0 -1 0 792)" d="M108.092 539.67L248.232 539.67L248.232 539.67L248.232 524.12" stroke="#000000" stroke-width="0.75" stroke-linecap="square" fill="none" /><path id="403" transform="matrix(1 0 0 -1 0 792)" d="M108.092 524.12L248.232 524.12" stroke="#000000" stroke-width="0.75" stroke-linecap="square" fill="none" /><path id="419" transform="matrix(1 0 0 -1 0 792)" d="M108.092 538.92L108.092 524.87" stroke="#000000" stroke-width="0.75" stroke-linecap="square" fill="none" /><path id="420" transform="matrix(1 0 0 -1 0 792)" d="M248.232 539.67L248.232 524.12" stroke="#000000" stroke-width="0.75" stroke-linecap="square" fill="none" /><path id="421" transform="matrix(1 0 0 -1 0 792)" d="M248.232 539.67L336.76 539.67L336.76 539.67L336.76 524.12" stroke="#000000" stroke-width="0.75" stroke-linecap="square" fill="none" /><path id="422" transform="matrix(1 0 0 -1 0 792)" d="M248.232 524.12L336.76 524.12" stroke="#000000" stroke-width="0.75" stroke-linecap="square" fill="none" /><path id="427" transform="matrix(1 0 0 -1 0 792)" d="M336.76 539.67L336.76 524.12" stroke="#000000" stroke-width="0.75" stroke-linecap="square" fill="none" /><path id="428" transform="matrix(1 0 0 -1 0 792)" d="M336.76 539.67L503.908 539.67L503.908 539.67L503.908 524.12" stroke="#000000" stroke-width="0.75" stroke-linecap="square" fill="none" /><path id="429" transform="matrix(1 0 0 -1 0 792)" d="M336.76 524.12L503.908 524.12" stroke="#000000" stroke-width="0.75" stroke-linecap="square" fill="none" /><path id="453" transform="matrix(1 0 0 -1 0 792)" d="M503.908 538.92L503.908 524.87" stroke="#000000" stroke-width="0.75" stroke-linecap="square" fill="none" /><path id="454" transform="matrix(1 0 0 -1 0 792)" d="M108.092 524.12L108.092 508.57" stroke="#000000" stroke-width="0.75" stroke-linecap="square" fill="none" /><path id="455" transform="matrix(1 0 0 -1 0 792)" d="M108.092 524.12L248.232 524.12L248.232 524.12L248.232 508.57" stroke="#000000" stroke-width="0.75" stroke-linecap="square" fill="none" /><path id="456" transform="matrix(1 0 0 -1 0 792)" d="M108.092 508.57L248.232 508.57" stroke="#000000" stroke-width="0.75" stroke-linecap="square" fill="none" /><path id="466" transform="matrix(1 0 0 -1 0 792)" d="M108.092 523.37L108.092 508.57L108.092 508.57L247.482 508.57" stroke="#000000" stroke-width="0.75" stroke-linecap="square" fill="none" /><path id="467" transform="matrix(1 0 0 -1 0 792)" d="M248.232 524.12L248.232 508.57" stroke="#000000" stroke-width="0.75" stroke-linecap="square" fill="none" /><path id="468" transform="matrix(1 0 0 -1 0 792)" d="M248.232 524.12L336.76 524.12L336.76 524.12L336.76 508.57" stroke="#000000" stroke-width="0.75" stroke-linecap="square" fill="none" /><path id="469" transform="matrix(1 0 0 -1 0 792)" d="M248.232 508.57L336.76 508.57" stroke="#000000" stroke-width="0.75" stroke-linecap="square" fill="none" /><path id="477" transform="matrix(1 0 0 -1 0 792)" d="M248.982 508.57L336.01 508.57" stroke="#000000" stroke-width="0.75" stroke-linecap="square" fill="none" /><path id="478" transform="matrix(1 0 0 -1 0 792)" d="M336.76 524.12L336.76 508.57" stroke="#000000" stroke-width="0.75" stroke-linecap="square" fill="none" /><path id="479" transform="matrix(1 0 0 -1 0 792)" d="M336.76 524.12L503.908 524.12L503.908 524.12L503.908 508.57" stroke="#000000" stroke-width="0.75" stroke-linecap="square" fill="none" /><path id="480" transform="matrix(1 0 0 -1 0 792)" d="M336.76 508.57L503.908 508.57" stroke="#000000" stroke-width="0.75" stroke-linecap="square" fill="none" /><path id="507" transform="matrix(1 0 0 -1 0 792)" d="M503.908 523.37L503.908 508.57" stroke="#000000" stroke-width="0.75" stroke-linecap="square" fill="none" /><path id="508" transform="matrix(1 0 0 -1 0 792)" d="M337.51 508.57L503.908 508.57" stroke="#000000" stroke-width="0.75" stroke-linecap="square" fill="none" /></g></g></svg>