<svg xmlns="http://www.w3.org/2000/svg" xmlns:xlink="http://www.w3.org/1999/xlink" id="body_118" preserveAspectRatio="xMinYMin meet" viewBox="0 0 816 1056"><defs><clipPath id="1"><path id="" clip-rule="evenodd" transform="matrix(1 0 0 1 0 0)" d="M0 792L0 0L0 0L612 0L612 0L612 792L612 792L0 792z" /></clipPath></defs><g transform="matrix(1.333333 0 0 1.333333 0 0)"><g clip-path="url(#1)"><path id="505" transform="matrix(1 0 0 -1 0 792)" d="M108.092 210.62L108.092 194.57" stroke="#000000" stroke-width="0.75" stroke-linecap="square" fill="none" /><path id="506" transform="matrix(1 0 0 -1 0 792)" d="M108.092 210.62L185.067 210.62L185.067 210.62L185.067 194.57" stroke="#000000" stroke-width="0.75" stroke-linecap="square" fill="none" /><path id="507" transform="matrix(1 0 0 -1 0 792)" d="M108.092 194.57L185.067 194.57" stroke="#000000" stroke-width="0.75" stroke-linecap="square" fill="none" /><path id="509" transform="matrix(1 0 0 -1 0 792)" d="M108.092 210.62L108.092 195.32" stroke="#000000" stroke-width="0.75" stroke-linecap="square" fill="none" /><path id="510" transform="matrix(1 0 0 -1 0 792)" d="M108.092 210.62L184.317 210.62" stroke="#000000" stroke-width="0.75" stroke-linecap="square" fill="none" /><path id="511" transform="matrix(1 0 0 -1 0 792)" d="M185.067 210.62L185.067 194.57" stroke="#000000" stroke-width="0.75" stroke-linecap="square" fill="none" /><path id="512" transform="matrix(1 0 0 -1 0 792)" d="M185.067 210.62L226.803 210.62L226.803 210.62L226.803 194.57" stroke="#000000" stroke-width="0.75" stroke-linecap="square" fill="none" /><path id="513" transform="matrix(1 0 0 -1 0 792)" d="M185.067 194.57L226.803 194.57" stroke="#000000" stroke-width="0.75" stroke-linecap="square" fill="none" /><path id="522" transform="matrix(1 0 0 -1 0 792)" d="M185.817 210.62L226.053 210.62" stroke="#000000" stroke-width="0.75" stroke-linecap="square" fill="none" /><path id="523" transform="matrix(1 0 0 -1 0 792)" d="M226.803 210.62L226.803 194.57" stroke="#000000" stroke-width="0.75" stroke-linecap="square" fill="none" /><path id="524" transform="matrix(1 0 0 -1 0 792)" d="M226.803 210.62L379.394 210.62L379.394 210.62L379.394 194.57" stroke="#000000" stroke-width="0.75" stroke-linecap="square" fill="none" /><path id="525" transform="matrix(1 0 0 -1 0 792)" d="M226.803 194.57L379.394 194.57" stroke="#000000" stroke-width="0.75" stroke-linecap="square" fill="none" /><path id="544" transform="matrix(1 0 0 -1 0 792)" d="M227.553 210.62L378.644 210.62" stroke="#000000" stroke-width="0.75" stroke-linecap="square" fill="none" /><path id="545" transform="matrix(1 0 0 -1 0 792)" d="M379.394 210.62L379.394 194.57" stroke="#000000" stroke-width="0.75" stroke-linecap="square" fill="none" /><path id="546" transform="matrix(1 0 0 -1 0 792)" d="M379.394 210.62L408.894 210.62L408.894 210.62L408.894 194.57" stroke="#000000" stroke-width="0.75" stroke-linecap="square" fill="none" /><path id="547" transform="matrix(1 0 0 -1 0 792)" d="M379.394 194.57L408.894 194.57" stroke="#000000" stroke-width="0.75" stroke-linecap="square" fill="none" /><path id="552" transform="matrix(1 0 0 -1 0 792)" d="M380.144 210.62L408.144 210.62" stroke="#000000" stroke-width="0.75" stroke-linecap="square" fill="none" /><path id="553" transform="matrix(1 0 0 -1 0 792)" d="M408.894 210.62L408.894 194.57" stroke="#000000" stroke-width="0.75" stroke-linecap="square" fill="none" /><path id="554" transform="matrix(1 0 0 -1 0 792)" d="M408.894 210.62L474.408 210.62L474.408 210.62L474.408 194.57" stroke="#000000" stroke-width="0.75" stroke-linecap="square" fill="none" /><path id="555" transform="matrix(1 0 0 -1 0 792)" d="M408.894 194.57L474.408 194.57" stroke="#000000" stroke-width="0.75" stroke-linecap="square" fill="none" /><path id="570" transform="matrix(1 0 0 -1 0 792)" d="M409.644 210.62L473.658 210.62" stroke="#000000" stroke-width="0.75" stroke-linecap="square" fill="none" /><path id="571" transform="matrix(1 0 0 -1 0 792)" d="M474.408 210.62L474.408 194.57" stroke="#000000" stroke-width="0.75" stroke-linecap="square" fill="none" /><path id="572" transform="matrix(1 0 0 -1 0 792)" d="M474.408 210.62L503.908 210.62L503.908 210.62L503.908 194.57" stroke="#000000" stroke-width="0.75" stroke-linecap="square" fill="none" /><path id="573" transform="matrix(1 0 0 -1 0 792)" d="M474.408 194.57L503.908 194.57" stroke="#000000" stroke-width="0.75" stroke-linecap="square" fill="none" /><path id="579" transform="matrix(1 0 0 -1 0 792)" d="M475.158 210.62L503.908 210.62L503.908 210.62L503.908 195.32" stroke="#000000" stroke-width="0.75" stroke-linecap="square" fill="none" /><path id="580" transform="matrix(1 0 0 -1 0 792)" d="M108.092 194.57L108.092 179.02" stroke="#000000" stroke-width="0.75" stroke-linecap="square" fill="none" /><path id="581" transform="matrix(1 0 0 -1 0 792)" d="M108.092 194.57L185.067 194.57L185.067 194.57L185.067 179.02" stroke="#000000" stroke-width="0.75" stroke-linecap="square" fill="none" /><path id="582" transform="matrix(1 0 0 -1 0 792)" d="M108.092 179.02L185.067 179.02" stroke="#000000" stroke-width="0.75" stroke-linecap="square" fill="none" /><path id="591" transform="matrix(1 0 0 -1 0 792)" d="M108.092 193.82L108.092 179.77" stroke="#000000" stroke-width="0.75" stroke-linecap="square" fill="none" /><path id="592" transform="matrix(1 0 0 -1 0 792)" d="M185.067 194.57L185.067 179.02" stroke="#000000" stroke-width="0.75" stroke-linecap="square" fill="none" /><path id="593" transform="matrix(1 0 0 -1 0 792)" d="M185.067 194.57L226.803 194.57L226.803 194.57L226.803 179.02" stroke="#000000" stroke-width="0.75" stroke-linecap="square" fill="none" /><path id="594" transform="matrix(1 0 0 -1 0 792)" d="M185.067 179.02L226.803 179.02" stroke="#000000" stroke-width="0.75" stroke-linecap="square" fill="none" /><path id="600" transform="matrix(1 0 0 -1 0 792)" d="M226.803 194.57L226.803 179.02" stroke="#000000" stroke-width="0.75" stroke-linecap="square" fill="none" /><path id="601" transform="matrix(1 0 0 -1 0 792)" d="M226.803 194.57L379.394 194.57L379.394 194.57L379.394 179.02" stroke="#000000" stroke-width="0.75" stroke-linecap="square" fill="none" /><path id="602" transform="matrix(1 0 0 -1 0 792)" d="M226.803 179.02L379.394 179.02" stroke="#000000" stroke-width="0.75" stroke-linecap="square" fill="none" /><path id="604" transform="matrix(1 0 0 -1 0 792)" d="M379.394 194.57L379.394 179.02" stroke="#000000" stroke-width="0.75" stroke-linecap="square" fill="none" /><path id="605" transform="matrix(1 0 0 -1 0 792)" d="M379.394 194.57L408.894 194.57L408.894 194.57L408.894 179.02" stroke="#000000" stroke-width="0.75" stroke-linecap="square" fill="none" /><path id="606" transform="matrix(1 0 0 -1 0 792)" d="M379.394 179.02L408.894 179.02" stroke="#000000" stroke-width="0.75" stroke-linecap="square" fill="none" /><path id="613" transform="matrix(1 0 0 -1 0 792)" d="M408.894 194.57L408.894 179.02" stroke="#000000" stroke-width="0.75" stroke-linecap="square" fill="none" /><path id="614" transform="matrix(1 0 0 -1 0 792)" d="M408.894 194.57L474.408 194.57L474.408 194.57L474.408 179.02" stroke="#000000" stroke-width="0.75" stroke-linecap="square" fill="none" /><path id="615" transform="matrix(1 0 0 -1 0 792)" d="M408.894 179.02L474.408 179.02" stroke="#000000" stroke-width="0.75" stroke-linecap="square" fill="none" /><path id="622" transform="matrix(1 0 0 -1 0 792)" d="M474.408 194.57L474.408 179.02" stroke="#000000" stroke-width="0.75" stroke-linecap="square" fill="none" /><path id="623" transform="matrix(1 0 0 -1 0 792)" d="M474.408 194.57L503.908 194.57L503.908 194.57L503.908 179.02" stroke="#000000" stroke-width="0.75" stroke-linecap="square" fill="none" /><path id="624" transform="matrix(1 0 0 -1 0 792)" d="M474.408 179.02L503.908 179.02" stroke="#000000" stroke-width="0.75" stroke-linecap="square" fill="none" /><path id="630" transform="matrix(1 0 0 -1 0 792)" d="M503.908 193.82L503.908 179.77" stroke="#000000" stroke-width="0.75" stroke-linecap="square" fill="none" /><path id="631" transform="matrix(1 0 0 -1 0 792)" d="M108.092 179.02L108.092 163.47" stroke="#000000" stroke-width="0.75" stroke-linecap="square" fill="none" /><path id="632" transform="matrix(1 0 0 -1 0 792)" d="M108.092 179.02L185.067 179.02L185.067 179.02L185.067 163.47" stroke="#000000" stroke-width="0.75" stroke-linecap="square" fill="none" /><path id="633" transform="matrix(1 0 0 -1 0 792)" d="M108.092 163.47L185.067 163.47" stroke="#000000" stroke-width="0.75" stroke-linecap="square" fill="none" /><path id="650" transform="matrix(1 0 0 -1 0 792)" d="M108.092 178.27L108.092 164.22" stroke="#000000" stroke-width="0.75" stroke-linecap="square" fill="none" /><path id="651" transform="matrix(1 0 0 -1 0 792)" d="M185.067 179.02L185.067 163.47" stroke="#000000" stroke-width="0.75" stroke-linecap="square" fill="none" /><path id="652" transform="matrix(1 0 0 -1 0 792)" d="M185.067 179.02L226.803 179.02L226.803 179.02L226.803 163.47" stroke="#000000" stroke-width="0.75" stroke-linecap="square" fill="none" /><path id="653" transform="matrix(1 0 0 -1 0 792)" d="M185.067 163.47L226.803 163.47" stroke="#000000" stroke-width="0.75" stroke-linecap="square" fill="none" /><path id="660" transform="matrix(1 0 0 -1 0 792)" d="M226.803 179.02L226.803 163.47" stroke="#000000" stroke-width="0.75" stroke-linecap="square" fill="none" /><path id="661" transform="matrix(1 0 0 -1 0 792)" d="M226.803 179.02L379.394 179.02L379.394 179.02L379.394 163.47" stroke="#000000" stroke-width="0.75" stroke-linecap="square" fill="none" /><path id="662" transform="matrix(1 0 0 -1 0 792)" d="M226.803 163.47L379.394 163.47" stroke="#000000" stroke-width="0.75" stroke-linecap="square" fill="none" /><path id="664" transform="matrix(1 0 0 -1 0 792)" d="M379.394 179.02L379.394 163.47" stroke="#000000" stroke-width="0.75" stroke-linecap="square" fill="none" /><path id="665" transform="matrix(1 0 0 -1 0 792)" d="M379.394 179.02L408.894 179.02L408.894 179.02L408.894 163.47" stroke="#000000" stroke-width="0.75" stroke-linecap="square" fill="none" /><path id="666" transform="matrix(1 0 0 -1 0 792)" d="M379.394 163.47L408.894 163.47" stroke="#000000" stroke-width="0.75" stroke-linecap="square" fill="none" /><path id="673" transform="matrix(1 0 0 -1 0 792)" d="M408.894 179.02L408.894 163.47" stroke="#000000" stroke-width="0.75" stroke-linecap="square" fill="none" /><path id="674" transform="matrix(1 0 0 -1 0 792)" d="M408.894 179.02L474.408 179.02L474.408 179.02L474.408 163.47" stroke="#000000" stroke-width="0.75" stroke-linecap="square" fill="none" /><path id="675" transform="matrix(1 0 0 -1 0 792)" d="M408.894 163.47L474.408 163.47" stroke="#000000" stroke-width="0.75" stroke-linecap="square" fill="none" /><path id="682" transform="matrix(1 0 0 -1 0 792)" d="M474.408 179.02L474.408 163.47" stroke="#000000" stroke-width="0.75" stroke-linecap="square" fill="none" /><path id="683" transform="matrix(1 0 0 -1 0 792)" d="M474.408 179.02L503.908 179.02L503.908 179.02L503.908 163.47" stroke="#000000" stroke-width="0.75" stroke-linecap="square" fill="none" /><path id="684" transform="matrix(1 0 0 -1 0 792)" d="M474.408 163.47L503.908 163.47" stroke="#000000" stroke-width="0.75" stroke-linecap="square" fill="none" /><path id="691" transform="matrix(1 0 0 -1 0 792)" d="M503.908 178.27L503.908 164.22" stroke="#000000" stroke-width="0.75" stroke-linecap="square" fill="none" /><path id="692" transform="matrix(1 0 0 -1 0 792)" d="M108.092 163.47L108.092 147.92" stroke="#000000" stroke-width="0.75" stroke-linecap="square" fill="none" /><path id="693" transform="matrix(1 0 0 -1 0 792)" d="M108.092 163.47L185.067 163.47L185.067 163.47L185.067 147.92" stroke="#000000" stroke-width="0.75" stroke-linecap="square" fill="none" /><path id="694" transform="matrix(1 0 0 -1 0 792)" d="M108.092 147.92L185.067 147.92" stroke="#000000" stroke-width="0.75" stroke-linecap="square" fill="none" /><path id="712" transform="matrix(1 0 0 -1 0 792)" d="M108.092 162.72L108.092 148.67" stroke="#000000" stroke-width="0.75" stroke-linecap="square" fill="none" /><path id="713" transform="matrix(1 0 0 -1 0 792)" d="M185.067 163.47L185.067 147.92" stroke="#000000" stroke-width="0.75" stroke-linecap="square" fill="none" /><path id="714" transform="matrix(1 0 0 -1 0 792)" d="M185.067 163.47L226.803 163.47L226.803 163.47L226.803 147.92" stroke="#000000" stroke-width="0.75" stroke-linecap="square" fill="none" /><path id="715" transform="matrix(1 0 0 -1 0 792)" d="M185.067 147.92L226.803 147.92" stroke="#000000" stroke-width="0.75" stroke-linecap="square" fill="none" /><path id="720" transform="matrix(1 0 0 -1 0 792)" d="M226.803 163.47L226.803 147.92" stroke="#000000" stroke-width="0.75" stroke-linecap="square" fill="none" /><path id="721" transform="matrix(1 0 0 -1 0 792)" d="M226.803 163.47L379.394 163.47L379.394 163.47L379.394 147.92" stroke="#000000" stroke-width="0.75" stroke-linecap="square" fill="none" /><path id="722" transform="matrix(1 0 0 -1 0 792)" d="M226.803 147.92L379.394 147.92" stroke="#000000" stroke-width="0.75" stroke-linecap="square" fill="none" /><path id="727" transform="matrix(1 0 0 -1 0 792)" d="M379.394 163.47L379.394 147.92" stroke="#000000" stroke-width="0.75" stroke-linecap="square" fill="none" /><path id="728" transform="matrix(1 0 0 -1 0 792)" d="M379.394 163.47L408.894 163.47L408.894 163.47L408.894 147.92" stroke="#000000" stroke-width="0.75" stroke-linecap="square" fill="none" /><path id="729" transform="matrix(1 0 0 -1 0 792)" d="M379.394 147.92L408.894 147.92" stroke="#000000" stroke-width="0.75" stroke-linecap="square" fill="none" /><path id="736" transform="matrix(1 0 0 -1 0 792)" d="M408.894 163.47L408.894 147.92" stroke="#000000" stroke-width="0.75" stroke-linecap="square" fill="none" /><path id="737" transform="matrix(1 0 0 -1 0 792)" d="M408.894 163.47L474.408 163.47L474.408 163.47L474.408 147.92" stroke="#000000" stroke-width="0.75" stroke-linecap="square" fill="none" /><path id="738" transform="matrix(1 0 0 -1 0 792)" d="M408.894 147.92L474.408 147.92" stroke="#000000" stroke-width="0.75" stroke-linecap="square" fill="none" /><path id="745" transform="matrix(1 0 0 -1 0 792)" d="M474.408 163.47L474.408 147.92" stroke="#000000" stroke-width="0.75" stroke-linecap="square" fill="none" /><path id="746" transform="matrix(1 0 0 -1 0 792)" d="M474.408 163.47L503.908 163.47L503.908 163.47L503.908 147.92" stroke="#000000" stroke-width="0.75" stroke-linecap="square" fill="none" /><path id="747" transform="matrix(1 0 0 -1 0 792)" d="M474.408 147.92L503.908 147.92" stroke="#000000" stroke-width="0.75" stroke-linecap="square" fill="none" /><path id="754" transform="matrix(1 0 0 -1 0 792)" d="M503.908 162.72L503.908 148.67" stroke="#000000" stroke-width="0.75" stroke-linecap="square" fill="none" /><path id="755" transform="matrix(1 0 0 -1 0 792)" d="M108.092 147.92L108.092 132.37" stroke="#000000" stroke-width="0.75" stroke-linecap="square" fill="none" /><path id="756" transform="matrix(1 0 0 -1 0 792)" d="M108.092 147.92L185.067 147.92L185.067 147.92L185.067 132.37" stroke="#000000" stroke-width="0.75" stroke-linecap="square" fill="none" /><path id="757" transform="matrix(1 0 0 -1 0 792)" d="M108.092 132.37L185.067 132.37" stroke="#000000" stroke-width="0.75" stroke-linecap="square" fill="none" /><path id="769" transform="matrix(1 0 0 -1 0 792)" d="M108.092 147.17L108.092 132.37L108.092 132.37L184.317 132.37" stroke="#000000" stroke-width="0.75" stroke-linecap="square" fill="none" /><path id="770" transform="matrix(1 0 0 -1 0 792)" d="M185.067 147.92L185.067 132.37" stroke="#000000" stroke-width="0.75" stroke-linecap="square" fill="none" /><path id="771" transform="matrix(1 0 0 -1 0 792)" d="M185.067 147.92L226.803 147.92L226.803 147.92L226.803 132.37" stroke="#000000" stroke-width="0.75" stroke-linecap="square" fill="none" /><path id="772" transform="matrix(1 0 0 -1 0 792)" d="M185.067 132.37L226.803 132.37" stroke="#000000" stroke-width="0.75" stroke-linecap="square" fill="none" /><path id="774" transform="matrix(1 0 0 -1 0 792)" d="M185.817 132.37L226.053 132.37" stroke="#000000" stroke-width="0.75" stroke-linecap="square" fill="none" /><path id="775" transform="matrix(1 0 0 -1 0 792)" d="M226.803 147.92L226.803 132.37" stroke="#000000" stroke-width="0.75" stroke-linecap="square" fill="none" /><path id="776" transform="matrix(1 0 0 -1 0 792)" d="M226.803 147.92L379.394 147.92L379.394 147.92L379.394 132.37" stroke="#000000" stroke-width="0.75" stroke-linecap="square" fill="none" /><path id="777" transform="matrix(1 0 0 -1 0 792)" d="M226.803 132.37L379.394 132.37" stroke="#000000" stroke-width="0.75" stroke-linecap="square" fill="none" /><path id="779" transform="matrix(1 0 0 -1 0 792)" d="M227.553 132.37L378.644 132.37" stroke="#000000" stroke-width="0.75" stroke-linecap="square" fill="none" /><path id="780" transform="matrix(1 0 0 -1 0 792)" d="M379.394 147.92L379.394 132.37" stroke="#000000" stroke-width="0.75" stroke-linecap="square" fill="none" /><path id="781" transform="matrix(1 0 0 -1 0 792)" d="M379.394 147.92L408.894 147.92L408.894 147.92L408.894 132.37" stroke="#000000" stroke-width="0.75" stroke-linecap="square" fill="none" /><path id="782" transform="matrix(1 0 0 -1 0 792)" d="M379.394 132.37L408.894 132.37" stroke="#000000" stroke-width="0.75" stroke-linecap="square" fill="none" /><path id="790" transform="matrix(1 0 0 -1 0 792)" d="M380.144 132.37L408.144 132.37" stroke="#000000" stroke-width="0.75" stroke-linecap="square" fill="none" /><path id="791" transform="matrix(1 0 0 -1 0 792)" d="M408.894 147.92L408.894 132.37" stroke="#000000" stroke-width="0.75" stroke-linecap="square" fill="none" /><path id="792" transform="matrix(1 0 0 -1 0 792)" d="M408.894 147.92L474.408 147.92L474.408 147.92L474.408 132.37" stroke="#000000" stroke-width="0.75" stroke-linecap="square" fill="none" /><path id="793" transform="matrix(1 0 0 -1 0 792)" d="M408.894 132.37L474.408 132.37" stroke="#000000" stroke-width="0.75" stroke-linecap="square" fill="none" /><path id="801" transform="matrix(1 0 0 -1 0 792)" d="M409.644 132.37L473.658 132.37" stroke="#000000" stroke-width="0.75" stroke-linecap="square" fill="none" /><path id="802" transform="matrix(1 0 0 -1 0 792)" d="M474.408 147.92L474.408 132.37" stroke="#000000" stroke-width="0.75" stroke-linecap="square" fill="none" /><path id="803" transform="matrix(1 0 0 -1 0 792)" d="M474.408 147.92L503.908 147.92L503.908 147.92L503.908 132.37" stroke="#000000" stroke-width="0.75" stroke-linecap="square" fill="none" /><path id="804" transform="matrix(1 0 0 -1 0 792)" d="M474.408 132.37L503.908 132.37" stroke="#000000" stroke-width="0.75" stroke-linecap="square" fill="none" /><path id="806" transform="matrix(1 0 0 -1 0 792)" d="M503.908 147.17L503.908 132.37" stroke="#000000" stroke-width="0.75" stroke-linecap="square" fill="none" /><path id="807" transform="matrix(1 0 0 -1 0 792)" d="M475.158 132.37L503.908 132.37" stroke="#000000" stroke-width="0.75" stroke-linecap="square" fill="none" /><g transform="matrix(0.4794959 0 0 0.4785801 134.375 123.608)"><g transform="matrix(1 0 0 1 0 0)"><image x="0" y="0" xlink:href="img_211.png" width="720" height="262" /></g></g><path id="943" transform="matrix(1 0 0 -1 0 792)" d="M438.084 663.035L443.7518 663.035" stroke="#7DA1B7" stroke-width="0.700333" fill="none" /><path id="944" transform="matrix(1 0 0 -1 0 792)" d="M438.084 658.483L443.7518 658.483" stroke="#E29052" stroke-width="0.700333" fill="none" /><path id="945" transform="matrix(1 0 0 -1 0 792)" d="M436.7012 666.2292L477.3317 666.2292L477.3317 666.2292L477.3317 654.9364L477.3317 654.9364L436.7012 654.9364z" stroke="#221E1F" stroke-width="0.4902331" fill="none" /><path id="980" transform="matrix(1 0 0 -1 0 792)" d="M240.46 554.045L246.1285 554.045" stroke="#7DA1B7" stroke-width="0.700333" fill="none" /><path id="981" transform="matrix(1 0 0 -1 0 792)" d="M240.46 549.493L246.1285 549.493" stroke="#E29052" stroke-width="0.700333" fill="none" /><path id="982" transform="matrix(1 0 0 -1 0 792)" d="M238.9502 557.2399L290.162 557.2399L290.162 557.2399L290.162 545.9471L290.162 545.9471L238.9502 545.9471z" stroke="#221E1F" stroke-width="0.4902331" fill="none" /><g transform="matrix(0.4796095 0 0 0.4789931 146.457 378.141)"><g transform="matrix(1 0 0 1 0 0)"><image x="0" y="0" xlink:href="img_212.png" width="699" height="289" /></g></g><path id="1126" transform="matrix(1 0 0 -1 0 792)" d="M249.594 286.379L255.1254 286.379" stroke="#7DA1B7" stroke-width="0.683396" fill="none" /><path id="1127" transform="matrix(1 0 0 -1 0 792)" d="M249.594 281.937L255.1254 281.937" stroke="#E29052" stroke-width="0.683396" fill="none" /><path id="1128" transform="matrix(1 0 0 -1 0 792)" d="M248.1209 289.498L298.0942 289.498L298.0942 289.498L298.0942 278.4782L298.0942 278.4782L248.1209 278.4782z" stroke="#221E1F" stroke-width="0.4783772" fill="none" /><path id="1155" transform="matrix(1 0 0 -1 0 792)" d="M440.646 408.494L446.1774 408.494" stroke="#7DA1B7" stroke-width="0.683396" fill="none" /><path id="1156" transform="matrix(1 0 0 -1 0 792)" d="M440.646 404.052L446.1774 404.052" stroke="#E29052" stroke-width="0.683396" fill="none" /><path id="1157" transform="matrix(1 0 0 -1 0 792)" d="M439.2968 411.6122L478.9447 411.6122L478.9447 411.6122L478.9447 400.5924L478.9447 400.5924L439.2968 400.5924z" stroke="#221E1F" stroke-width="0.4783772" fill="none" /></g></g></svg>