<svg xmlns="http://www.w3.org/2000/svg" xmlns:xlink="http://www.w3.org/1999/xlink" id="body_108" preserveAspectRatio="xMinYMin meet" viewBox="0 0 816 1056"><defs><clipPath id="1"><path id="" clip-rule="evenodd" transform="matrix(1 0 0 1 0 0)" d="M0 792L0 0L0 0L612 0L612 0L612 792L612 792L0 792z" /></clipPath></defs><g transform="matrix(1.333333 0 0 1.333333 0 0)"><g clip-path="url(#1)"><g transform="matrix(0.479817 0 0 0.4798173 117.9122 122.8422)"><g transform="matrix(1 0 0 1 0 0)"><image x="0" y="0" xlink:href="img_179.png" width="784" height="588" /></g></g><path id="1421" transform="matrix(1 0 0 -1 0 792)" d="M131.3188 522.978C 131.3188 523.7186 131.9191 524.3189 132.6604 524.3189C 133.401 524.3189 134.0013 523.7186 134.0013 522.978C 134.0013 522.2374 133.401 521.6364 132.6604 521.6364C 131.9191 521.6364 131.3188 522.2374 131.3188 522.978z" stroke="#221E1F" stroke-width="0.522487" fill="#221E1F" fill-rule="nonzero" /><path id="1422" transform="matrix(1 0 0 -1 0 792)" d="M131.3188 512.4628C 131.3188 513.2034 131.9191 513.8037 132.6604 513.8037C 133.401 513.8037 134.0013 513.2034 134.0013 512.4628C 134.0013 511.7223 133.401 511.1219 132.6604 511.1219C 131.9191 511.1219 131.3188 511.7223 131.3188 512.4628z" stroke="#221E1F" stroke-width="0.522487" fill="#221E1F" fill-rule="nonzero" /><path id="1423" transform="matrix(1 0 0 -1 0 792)" d="M131.3188 501.9485C 131.3188 502.689 131.9191 503.2901 132.6604 503.2901C 133.401 503.2901 134.0013 502.689 134.0013 501.9485C 134.0013 501.2079 133.401 500.6076 132.6604 500.6076C 131.9191 500.6076 131.3188 501.2079 131.3188 501.9485z" stroke="#221E1F" stroke-width="0.522487" fill="#221E1F" fill-rule="nonzero" /><path id="1424" transform="matrix(1 0 0 -1 0 792)" d="M131.3188 491.4341C 131.3188 492.1746 131.9191 492.7757 132.6604 492.7757C 133.401 492.7757 134.0013 492.1746 134.0013 491.4341C 134.0013 490.6935 133.401 490.0932 132.6604 490.0932C 131.9191 490.0932 131.3188 490.6935 131.3188 491.4341z" stroke="#221E1F" stroke-width="0.522487" fill="#221E1F" fill-rule="nonzero" /><path id="1425" transform="matrix(1 0 0 -1 0 792)" d="M131.3188 480.9189C 131.3188 481.6594 131.9191 482.2605 132.6604 482.2605C 133.401 482.2605 134.0013 481.6594 134.0013 480.9189C 134.0013 480.1783 133.401 479.5772 132.6604 479.5772C 131.9191 479.5772 131.3188 480.1783 131.3188 480.9189z" stroke="#221E1F" stroke-width="0.522487" fill="#221E1F" fill-rule="nonzero" /><path id="1426" transform="matrix(1 0 0 -1 0 792)" d="M131.3188 470.4045C 131.3188 471.1451 131.9191 471.7454 132.6604 471.7454C 133.401 471.7454 134.0013 471.1451 134.0013 470.4045C 134.0013 469.6639 133.401 469.0636 132.6604 469.0636C 131.9191 469.0636 131.3188 469.6639 131.3188 470.4045z" stroke="#221E1F" stroke-width="0.522487" fill="#221E1F" fill-rule="nonzero" /><path id="1427" transform="matrix(1 0 0 -1 0 792)" d="M131.3188 459.8901C 131.3188 460.6306 131.9191 461.231 132.6604 461.231C 133.401 461.231 134.0013 460.6306 134.0013 459.8901C 134.0013 459.1495 133.401 458.5484 132.6604 458.5484C 131.9191 458.5484 131.3188 459.1495 131.3188 459.8901z" stroke="#221E1F" stroke-width="0.522487" fill="#221E1F" fill-rule="nonzero" /><path id="1428" transform="matrix(1 0 0 -1 0 792)" d="M131.3188 449.3757C 131.3188 450.1162 131.9191 450.7166 132.6604 450.7166C 133.401 450.7166 134.0013 450.1162 134.0013 449.3757C 134.0013 448.6351 133.401 448.034 132.6604 448.034C 131.9191 448.034 131.3188 448.6351 131.3188 449.3757z" stroke="#221E1F" stroke-width="0.522487" fill="#221E1F" fill-rule="nonzero" /><path id="1429" transform="matrix(1 0 0 -1 0 792)" d="M131.3188 438.8605C 131.3188 439.6011 131.9191 440.2022 132.6604 440.2022C 133.401 440.2022 134.0013 439.6011 134.0013 438.8605C 134.0013 438.1199 133.401 437.5188 132.6604 437.5188C 131.9191 437.5188 131.3188 438.1199 131.3188 438.8605z" stroke="#221E1F" stroke-width="0.522487" fill="#221E1F" fill-rule="nonzero" /><path id="1430" transform="matrix(1 0 0 -1 0 792)" d="M131.3188 428.3461C 131.3188 429.0867 131.9191 429.6878 132.6604 429.6878C 133.401 429.6878 134.0013 429.0867 134.0013 428.3461C 134.0013 427.6055 133.401 427.0052 132.6604 427.0052C 131.9191 427.0052 131.3188 427.6055 131.3188 428.3461z" stroke="#221E1F" stroke-width="0.522487" fill="#221E1F" fill-rule="nonzero" /><path id="1431" transform="matrix(1 0 0 -1 0 792)" d="M360.5958 494.2746C 360.5958 495.0151 361.1961 495.6162 361.9366 495.6162C 362.678 495.6162 363.2783 495.0151 363.2783 494.2746C 363.2783 493.534 362.678 492.9337 361.9366 492.9337C 361.1961 492.9337 360.5958 493.534 360.5958 494.2746z" stroke="#221E1F" stroke-width="0.522487" fill="#221E1F" fill-rule="nonzero" /><path id="1432" transform="matrix(1 0 0 -1 0 792)" d="M360.5958 482.3885C 360.5958 483.129 361.1961 483.7301 361.9366 483.7301C 362.678 483.7301 363.2783 483.129 363.2783 482.3885C 363.2783 481.6479 362.678 481.0468 361.9366 481.0468C 361.1961 481.0468 360.5958 481.6479 360.5958 482.3885z" stroke="#221E1F" stroke-width="0.522487" fill="#221E1F" fill-rule="nonzero" /><path id="1433" transform="matrix(1 0 0 -1 0 792)" d="M360.5958 470.5023C 360.5958 471.2429 361.1961 471.844 361.9366 471.844C 362.678 471.844 363.2783 471.2429 363.2783 470.5023C 363.2783 469.7618 362.678 469.1607 361.9366 469.1607C 361.1961 469.1607 360.5958 469.7618 360.5958 470.5023z" stroke="#221E1F" stroke-width="0.522487" fill="#221E1F" fill-rule="nonzero" /><path id="1434" transform="matrix(1 0 0 -1 0 792)" d="M360.5958 458.6162C 360.5958 459.3568 361.1961 459.9579 361.9366 459.9579C 362.678 459.9579 363.2783 459.3568 363.2783 458.6162C 363.2783 457.8757 362.678 457.2754 361.9366 457.2754C 361.1961 457.2754 360.5958 457.8757 360.5958 458.6162z" stroke="#221E1F" stroke-width="0.522487" fill="#221E1F" fill-rule="nonzero" /><path id="1435" transform="matrix(1 0 0 -1 0 792)" d="M360.5958 446.7301C 360.5958 447.4707 361.1961 448.0718 361.9366 448.0718C 362.678 448.0718 363.2783 447.4707 363.2783 446.7301C 363.2783 445.9896 362.678 445.3893 361.9366 445.3893C 361.1961 445.3893 360.5958 445.9896 360.5958 446.7301z" stroke="#221E1F" stroke-width="0.522487" fill="#221E1F" fill-rule="nonzero" /><path id="1436" transform="matrix(1 0 0 -1 0 792)" d="M360.5958 434.844C 360.5958 435.5846 361.1961 436.1849 361.9366 436.1849C 362.678 436.1849 363.2783 435.5846 363.2783 434.844C 363.2783 434.1035 362.678 433.5031 361.9366 433.5031C 361.1961 433.5031 360.5958 434.1035 360.5958 434.844z" stroke="#221E1F" stroke-width="0.522487" fill="#221E1F" fill-rule="nonzero" /><path id="1437" transform="matrix(1 0 0 -1 0 792)" d="M360.5958 422.9579C 360.5958 423.6985 361.1961 424.2988 361.9366 424.2988C 362.678 424.2988 363.2783 423.6985 363.2783 422.9579C 363.2783 422.2173 362.678 421.6162 361.9366 421.6162C 361.1961 421.6162 360.5958 422.2173 360.5958 422.9579z" stroke="#221E1F" stroke-width="0.522487" fill="#221E1F" fill-rule="nonzero" /></g></g></svg>