<svg xmlns="http://www.w3.org/2000/svg" xmlns:xlink="http://www.w3.org/1999/xlink" id="body_76" preserveAspectRatio="xMinYMin meet" viewBox="0 0 816 1056"><defs><clipPath id="1"><path id="" clip-rule="evenodd" transform="matrix(1 0 0 1 0 0)" d="M0 792L0 0L0 0L612 0L612 0L612 792L612 792L0 792z" /></clipPath></defs><g transform="matrix(1.333333 0 0 1.333333 0 0)"><g clip-path="url(#1)"><path id="226" transform="matrix(1 0 0 -1 0 792)" d="M108.092 612.62L108.092 597.07" stroke="#000000" stroke-width="0.75" stroke-linecap="square" fill="none" /><path id="227" transform="matrix(1 0 0 -1 0 792)" d="M108.092 612.62L161.085 612.62L161.085 612.62L161.085 597.07" stroke="#000000" stroke-width="0.75" stroke-linecap="square" fill="none" /><path id="228" transform="matrix(1 0 0 -1 0 792)" d="M108.092 597.07L161.085 597.07" stroke="#000000" stroke-width="0.75" stroke-linecap="square" fill="none" /><path id="239" transform="matrix(1 0 0 -1 0 792)" d="M108.092 612.62L108.092 597.82" stroke="#000000" stroke-width="0.75" stroke-linecap="square" fill="none" /><path id="240" transform="matrix(1 0 0 -1 0 792)" d="M108.092 612.62L160.335 612.62" stroke="#000000" stroke-width="0.75" stroke-linecap="square" fill="none" /><path id="241" transform="matrix(1 0 0 -1 0 792)" d="M161.085 612.62L161.085 597.07" stroke="#000000" stroke-width="0.75" stroke-linecap="square" fill="none" /><path id="242" transform="matrix(1 0 0 -1 0 792)" d="M161.085 612.62L251.112 612.62L251.112 612.62L251.112 597.07" stroke="#000000" stroke-width="0.75" stroke-linecap="square" fill="none" /><path id="243" transform="matrix(1 0 0 -1 0 792)" d="M161.085 597.07L251.112 597.07" stroke="#000000" stroke-width="0.75" stroke-linecap="square" fill="none" /><path id="254" transform="matrix(1 0 0 -1 0 792)" d="M161.835 612.62L250.362 612.62" stroke="#000000" stroke-width="0.75" stroke-linecap="square" fill="none" /><path id="255" transform="matrix(1 0 0 -1 0 792)" d="M251.112 612.62L251.112 597.07" stroke="#000000" stroke-width="0.75" stroke-linecap="square" fill="none" /><path id="256" transform="matrix(1 0 0 -1 0 792)" d="M251.112 612.62L340.733 612.62L340.733 612.62L340.733 597.07" stroke="#000000" stroke-width="0.75" stroke-linecap="square" fill="none" /><path id="257" transform="matrix(1 0 0 -1 0 792)" d="M251.112 597.07L340.733 597.07" stroke="#000000" stroke-width="0.75" stroke-linecap="square" fill="none" /><path id="270" transform="matrix(1 0 0 -1 0 792)" d="M251.862 612.62L339.983 612.62" stroke="#000000" stroke-width="0.75" stroke-linecap="square" fill="none" /><path id="271" transform="matrix(1 0 0 -1 0 792)" d="M340.733 612.62L340.733 597.07" stroke="#000000" stroke-width="0.75" stroke-linecap="square" fill="none" /><path id="272" transform="matrix(1 0 0 -1 0 792)" d="M340.733 612.62L404.626 612.62L404.626 612.62L404.626 597.07" stroke="#000000" stroke-width="0.75" stroke-linecap="square" fill="none" /><path id="273" transform="matrix(1 0 0 -1 0 792)" d="M340.733 597.07L404.626 597.07" stroke="#000000" stroke-width="0.75" stroke-linecap="square" fill="none" /><path id="285" transform="matrix(1 0 0 -1 0 792)" d="M341.483 612.62L403.876 612.62" stroke="#000000" stroke-width="0.75" stroke-linecap="square" fill="none" /><path id="286" transform="matrix(1 0 0 -1 0 792)" d="M404.626 612.62L404.626 597.07" stroke="#000000" stroke-width="0.75" stroke-linecap="square" fill="none" /><path id="287" transform="matrix(1 0 0 -1 0 792)" d="M404.626 612.62L503.908 612.62L503.908 612.62L503.908 597.07" stroke="#000000" stroke-width="0.75" stroke-linecap="square" fill="none" /><path id="288" transform="matrix(1 0 0 -1 0 792)" d="M404.626 597.07L503.908 597.07" stroke="#000000" stroke-width="0.75" stroke-linecap="square" fill="none" /><path id="300" transform="matrix(1 0 0 -1 0 792)" d="M405.376 612.62L503.908 612.62L503.908 612.62L503.908 597.82" stroke="#000000" stroke-width="0.75" stroke-linecap="square" fill="none" /><path id="301" transform="matrix(1 0 0 -1 0 792)" d="M108.092 597.07L108.092 581.52" stroke="#000000" stroke-width="0.75" stroke-linecap="square" fill="none" /><path id="302" transform="matrix(1 0 0 -1 0 792)" d="M108.092 597.07L161.085 597.07L161.085 597.07L161.085 581.52" stroke="#000000" stroke-width="0.75" stroke-linecap="square" fill="none" /><path id="303" transform="matrix(1 0 0 -1 0 792)" d="M108.092 581.52L161.085 581.52" stroke="#000000" stroke-width="0.75" stroke-linecap="square" fill="none" /><path id="308" transform="matrix(1 0 0 -1 0 792)" d="M108.092 596.32L108.092 582.27" stroke="#000000" stroke-width="0.75" stroke-linecap="square" fill="none" /><path id="309" transform="matrix(1 0 0 -1 0 792)" d="M161.085 597.07L161.085 581.52" stroke="#000000" stroke-width="0.75" stroke-linecap="square" fill="none" /><path id="310" transform="matrix(1 0 0 -1 0 792)" d="M161.085 597.07L251.112 597.07L251.112 597.07L251.112 581.52" stroke="#000000" stroke-width="0.75" stroke-linecap="square" fill="none" /><path id="311" transform="matrix(1 0 0 -1 0 792)" d="M161.085 581.52L251.112 581.52" stroke="#000000" stroke-width="0.75" stroke-linecap="square" fill="none" /><path id="319" transform="matrix(1 0 0 -1 0 792)" d="M251.112 597.07L251.112 581.52" stroke="#000000" stroke-width="0.75" stroke-linecap="square" fill="none" /><path id="320" transform="matrix(1 0 0 -1 0 792)" d="M251.112 597.07L340.733 597.07L340.733 597.07L340.733 581.52" stroke="#000000" stroke-width="0.75" stroke-linecap="square" fill="none" /><path id="321" transform="matrix(1 0 0 -1 0 792)" d="M251.112 581.52L340.733 581.52" stroke="#000000" stroke-width="0.75" stroke-linecap="square" fill="none" /><path id="336" transform="matrix(1 0 0 -1 0 792)" d="M340.733 597.07L340.733 581.52" stroke="#000000" stroke-width="0.75" stroke-linecap="square" fill="none" /><path id="337" transform="matrix(1 0 0 -1 0 792)" d="M340.733 597.07L404.626 597.07L404.626 597.07L404.626 581.52" stroke="#000000" stroke-width="0.75" stroke-linecap="square" fill="none" /><path id="338" transform="matrix(1 0 0 -1 0 792)" d="M340.733 581.52L404.626 581.52" stroke="#000000" stroke-width="0.75" stroke-linecap="square" fill="none" /><path id="345" transform="matrix(1 0 0 -1 0 792)" d="M404.626 597.07L404.626 581.52" stroke="#000000" stroke-width="0.75" stroke-linecap="square" fill="none" /><path id="346" transform="matrix(1 0 0 -1 0 792)" d="M404.626 597.07L503.908 597.07L503.908 597.07L503.908 581.52" stroke="#000000" stroke-width="0.75" stroke-linecap="square" fill="none" /><path id="347" transform="matrix(1 0 0 -1 0 792)" d="M404.626 581.52L503.908 581.52" stroke="#000000" stroke-width="0.75" stroke-linecap="square" fill="none" /><path id="366" transform="matrix(1 0 0 -1 0 792)" d="M503.908 596.32L503.908 582.27" stroke="#000000" stroke-width="0.75" stroke-linecap="square" fill="none" /><path id="367" transform="matrix(1 0 0 -1 0 792)" d="M108.092 581.52L108.092 565.97" stroke="#000000" stroke-width="0.75" stroke-linecap="square" fill="none" /><path id="368" transform="matrix(1 0 0 -1 0 792)" d="M108.092 581.52L161.085 581.52L161.085 581.52L161.085 565.97" stroke="#000000" stroke-width="0.75" stroke-linecap="square" fill="none" /><path id="369" transform="matrix(1 0 0 -1 0 792)" d="M108.092 565.97L161.085 565.97" stroke="#000000" stroke-width="0.75" stroke-linecap="square" fill="none" /><path id="374" transform="matrix(1 0 0 -1 0 792)" d="M108.092 580.77L108.092 566.72" stroke="#000000" stroke-width="0.75" stroke-linecap="square" fill="none" /><path id="375" transform="matrix(1 0 0 -1 0 792)" d="M161.085 581.52L161.085 565.97" stroke="#000000" stroke-width="0.75" stroke-linecap="square" fill="none" /><path id="376" transform="matrix(1 0 0 -1 0 792)" d="M161.085 581.52L251.112 581.52L251.112 581.52L251.112 565.97" stroke="#000000" stroke-width="0.75" stroke-linecap="square" fill="none" /><path id="377" transform="matrix(1 0 0 -1 0 792)" d="M161.085 565.97L251.112 565.97" stroke="#000000" stroke-width="0.75" stroke-linecap="square" fill="none" /><path id="381" transform="matrix(1 0 0 -1 0 792)" d="M251.112 581.52L251.112 565.97" stroke="#000000" stroke-width="0.75" stroke-linecap="square" fill="none" /><path id="382" transform="matrix(1 0 0 -1 0 792)" d="M251.112 581.52L340.733 581.52L340.733 581.52L340.733 565.97" stroke="#000000" stroke-width="0.75" stroke-linecap="square" fill="none" /><path id="383" transform="matrix(1 0 0 -1 0 792)" d="M251.112 565.97L340.733 565.97" stroke="#000000" stroke-width="0.75" stroke-linecap="square" fill="none" /><path id="396" transform="matrix(1 0 0 -1 0 792)" d="M340.733 581.52L340.733 565.97" stroke="#000000" stroke-width="0.75" stroke-linecap="square" fill="none" /><path id="397" transform="matrix(1 0 0 -1 0 792)" d="M340.733 581.52L404.626 581.52L404.626 581.52L404.626 565.97" stroke="#000000" stroke-width="0.75" stroke-linecap="square" fill="none" /><path id="398" transform="matrix(1 0 0 -1 0 792)" d="M340.733 565.97L404.626 565.97" stroke="#000000" stroke-width="0.75" stroke-linecap="square" fill="none" /><path id="405" transform="matrix(1 0 0 -1 0 792)" d="M404.626 581.52L404.626 565.97" stroke="#000000" stroke-width="0.75" stroke-linecap="square" fill="none" /><path id="406" transform="matrix(1 0 0 -1 0 792)" d="M404.626 581.52L503.908 581.52L503.908 581.52L503.908 565.97" stroke="#000000" stroke-width="0.75" stroke-linecap="square" fill="none" /><path id="407" transform="matrix(1 0 0 -1 0 792)" d="M404.626 565.97L503.908 565.97" stroke="#000000" stroke-width="0.75" stroke-linecap="square" fill="none" /><path id="426" transform="matrix(1 0 0 -1 0 792)" d="M503.908 580.77L503.908 566.72" stroke="#000000" stroke-width="0.75" stroke-linecap="square" fill="none" /><path id="427" transform="matrix(1 0 0 -1 0 792)" d="M108.092 565.97L108.092 550.42" stroke="#000000" stroke-width="0.75" stroke-linecap="square" fill="none" /><path id="428" transform="matrix(1 0 0 -1 0 792)" d="M108.092 565.97L161.085 565.97L161.085 565.97L161.085 550.42" stroke="#000000" stroke-width="0.75" stroke-linecap="square" fill="none" /><path id="429" transform="matrix(1 0 0 -1 0 792)" d="M108.092 550.42L161.085 550.42" stroke="#000000" stroke-width="0.75" stroke-linecap="square" fill="none" /><path id="434" transform="matrix(1 0 0 -1 0 792)" d="M108.092 565.22L108.092 551.17" stroke="#000000" stroke-width="0.75" stroke-linecap="square" fill="none" /><path id="435" transform="matrix(1 0 0 -1 0 792)" d="M161.085 565.97L161.085 550.42" stroke="#000000" stroke-width="0.75" stroke-linecap="square" fill="none" /><path id="436" transform="matrix(1 0 0 -1 0 792)" d="M161.085 565.97L251.112 565.97L251.112 565.97L251.112 550.42" stroke="#000000" stroke-width="0.75" stroke-linecap="square" fill="none" /><path id="437" transform="matrix(1 0 0 -1 0 792)" d="M161.085 550.42L251.112 550.42" stroke="#000000" stroke-width="0.75" stroke-linecap="square" fill="none" /><path id="456" transform="matrix(1 0 0 -1 0 792)" d="M251.112 565.97L251.112 550.42" stroke="#000000" stroke-width="0.75" stroke-linecap="square" fill="none" /><path id="457" transform="matrix(1 0 0 -1 0 792)" d="M251.112 565.97L340.733 565.97L340.733 565.97L340.733 550.42" stroke="#000000" stroke-width="0.75" stroke-linecap="square" fill="none" /><path id="458" transform="matrix(1 0 0 -1 0 792)" d="M251.112 550.42L340.733 550.42" stroke="#000000" stroke-width="0.75" stroke-linecap="square" fill="none" /><path id="469" transform="matrix(1 0 0 -1 0 792)" d="M340.733 565.97L340.733 550.42" stroke="#000000" stroke-width="0.75" stroke-linecap="square" fill="none" /><path id="470" transform="matrix(1 0 0 -1 0 792)" d="M340.733 565.97L404.626 565.97L404.626 565.97L404.626 550.42" stroke="#000000" stroke-width="0.75" stroke-linecap="square" fill="none" /><path id="471" transform="matrix(1 0 0 -1 0 792)" d="M340.733 550.42L404.626 550.42" stroke="#000000" stroke-width="0.75" stroke-linecap="square" fill="none" /><path id="478" transform="matrix(1 0 0 -1 0 792)" d="M404.626 565.97L404.626 550.42" stroke="#000000" stroke-width="0.75" stroke-linecap="square" fill="none" /><path id="479" transform="matrix(1 0 0 -1 0 792)" d="M404.626 565.97L503.908 565.97L503.908 565.97L503.908 550.42" stroke="#000000" stroke-width="0.75" stroke-linecap="square" fill="none" /><path id="480" transform="matrix(1 0 0 -1 0 792)" d="M404.626 550.42L503.908 550.42" stroke="#000000" stroke-width="0.75" stroke-linecap="square" fill="none" /><path id="499" transform="matrix(1 0 0 -1 0 792)" d="M503.908 565.22L503.908 551.17" stroke="#000000" stroke-width="0.75" stroke-linecap="square" fill="none" /><path id="500" transform="matrix(1 0 0 -1 0 792)" d="M108.092 550.42L108.092 534.87" stroke="#000000" stroke-width="0.75" stroke-linecap="square" fill="none" /><path id="501" transform="matrix(1 0 0 -1 0 792)" d="M108.092 550.42L161.085 550.42L161.085 550.42L161.085 534.87" stroke="#000000" stroke-width="0.75" stroke-linecap="square" fill="none" /><path id="502" transform="matrix(1 0 0 -1 0 792)" d="M108.092 534.87L161.085 534.87" stroke="#000000" stroke-width="0.75" stroke-linecap="square" fill="none" /><path id="507" transform="matrix(1 0 0 -1 0 792)" d="M108.092 549.67L108.092 535.62" stroke="#000000" stroke-width="0.75" stroke-linecap="square" fill="none" /><path id="508" transform="matrix(1 0 0 -1 0 792)" d="M161.085 550.42L161.085 534.87" stroke="#000000" stroke-width="0.75" stroke-linecap="square" fill="none" /><path id="509" transform="matrix(1 0 0 -1 0 792)" d="M161.085 550.42L251.112 550.42L251.112 550.42L251.112 534.87" stroke="#000000" stroke-width="0.75" stroke-linecap="square" fill="none" /><path id="510" transform="matrix(1 0 0 -1 0 792)" d="M161.085 534.87L251.112 534.87" stroke="#000000" stroke-width="0.75" stroke-linecap="square" fill="none" /><path id="527" transform="matrix(1 0 0 -1 0 792)" d="M251.112 550.42L251.112 534.87" stroke="#000000" stroke-width="0.75" stroke-linecap="square" fill="none" /><path id="528" transform="matrix(1 0 0 -1 0 792)" d="M251.112 550.42L340.733 550.42L340.733 550.42L340.733 534.87" stroke="#000000" stroke-width="0.75" stroke-linecap="square" fill="none" /><path id="529" transform="matrix(1 0 0 -1 0 792)" d="M251.112 534.87L340.733 534.87" stroke="#000000" stroke-width="0.75" stroke-linecap="square" fill="none" /><path id="535" transform="matrix(1 0 0 -1 0 792)" d="M340.733 550.42L340.733 534.87" stroke="#000000" stroke-width="0.75" stroke-linecap="square" fill="none" /><path id="536" transform="matrix(1 0 0 -1 0 792)" d="M340.733 550.42L404.626 550.42L404.626 550.42L404.626 534.87" stroke="#000000" stroke-width="0.75" stroke-linecap="square" fill="none" /><path id="537" transform="matrix(1 0 0 -1 0 792)" d="M340.733 534.87L404.626 534.87" stroke="#000000" stroke-width="0.75" stroke-linecap="square" fill="none" /><path id="543" transform="matrix(1 0 0 -1 0 792)" d="M404.626 550.42L404.626 534.87" stroke="#000000" stroke-width="0.75" stroke-linecap="square" fill="none" /><path id="544" transform="matrix(1 0 0 -1 0 792)" d="M404.626 550.42L503.908 550.42L503.908 550.42L503.908 534.87" stroke="#000000" stroke-width="0.75" stroke-linecap="square" fill="none" /><path id="545" transform="matrix(1 0 0 -1 0 792)" d="M404.626 534.87L503.908 534.87" stroke="#000000" stroke-width="0.75" stroke-linecap="square" fill="none" /><path id="564" transform="matrix(1 0 0 -1 0 792)" d="M503.908 549.67L503.908 535.62" stroke="#000000" stroke-width="0.75" stroke-linecap="square" fill="none" /><path id="565" transform="matrix(1 0 0 -1 0 792)" d="M108.092 534.87L108.092 519.32" stroke="#000000" stroke-width="0.75" stroke-linecap="square" fill="none" /><path id="566" transform="matrix(1 0 0 -1 0 792)" d="M108.092 534.87L161.085 534.87L161.085 534.87L161.085 519.32" stroke="#000000" stroke-width="0.75" stroke-linecap="square" fill="none" /><path id="567" transform="matrix(1 0 0 -1 0 792)" d="M108.092 519.32L161.085 519.32" stroke="#000000" stroke-width="0.75" stroke-linecap="square" fill="none" /><path id="572" transform="matrix(1 0 0 -1 0 792)" d="M108.092 534.12L108.092 519.32L108.092 519.32L160.335 519.32" stroke="#000000" stroke-width="0.75" stroke-linecap="square" fill="none" /><path id="573" transform="matrix(1 0 0 -1 0 792)" d="M161.085 534.87L161.085 519.32" stroke="#000000" stroke-width="0.75" stroke-linecap="square" fill="none" /><path id="574" transform="matrix(1 0 0 -1 0 792)" d="M161.085 534.87L251.112 534.87L251.112 534.87L251.112 519.32" stroke="#000000" stroke-width="0.75" stroke-linecap="square" fill="none" /><path id="575" transform="matrix(1 0 0 -1 0 792)" d="M161.085 519.32L251.112 519.32" stroke="#000000" stroke-width="0.75" stroke-linecap="square" fill="none" /><path id="586" transform="matrix(1 0 0 -1 0 792)" d="M161.835 519.32L250.362 519.32" stroke="#000000" stroke-width="0.75" stroke-linecap="square" fill="none" /><path id="587" transform="matrix(1 0 0 -1 0 792)" d="M251.112 534.87L251.112 519.32" stroke="#000000" stroke-width="0.75" stroke-linecap="square" fill="none" /><path id="588" transform="matrix(1 0 0 -1 0 792)" d="M251.112 534.87L340.733 534.87L340.733 534.87L340.733 519.32" stroke="#000000" stroke-width="0.75" stroke-linecap="square" fill="none" /><path id="589" transform="matrix(1 0 0 -1 0 792)" d="M251.112 519.32L340.733 519.32" stroke="#000000" stroke-width="0.75" stroke-linecap="square" fill="none" /><path id="592" transform="matrix(1 0 0 -1 0 792)" d="M251.862 519.32L339.983 519.32" stroke="#000000" stroke-width="0.75" stroke-linecap="square" fill="none" /><path id="593" transform="matrix(1 0 0 -1 0 792)" d="M340.733 534.87L340.733 519.32" stroke="#000000" stroke-width="0.75" stroke-linecap="square" fill="none" /><path id="594" transform="matrix(1 0 0 -1 0 792)" d="M340.733 534.87L404.626 534.87L404.626 534.87L404.626 519.32" stroke="#000000" stroke-width="0.75" stroke-linecap="square" fill="none" /><path id="595" transform="matrix(1 0 0 -1 0 792)" d="M340.733 519.32L404.626 519.32" stroke="#000000" stroke-width="0.75" stroke-linecap="square" fill="none" /><path id="602" transform="matrix(1 0 0 -1 0 792)" d="M341.483 519.32L403.876 519.32" stroke="#000000" stroke-width="0.75" stroke-linecap="square" fill="none" /><path id="603" transform="matrix(1 0 0 -1 0 792)" d="M404.626 534.87L404.626 519.32" stroke="#000000" stroke-width="0.75" stroke-linecap="square" fill="none" /><path id="604" transform="matrix(1 0 0 -1 0 792)" d="M404.626 534.87L503.908 534.87L503.908 534.87L503.908 519.32" stroke="#000000" stroke-width="0.75" stroke-linecap="square" fill="none" /><path id="605" transform="matrix(1 0 0 -1 0 792)" d="M404.626 519.32L503.908 519.32" stroke="#000000" stroke-width="0.75" stroke-linecap="square" fill="none" /><path id="624" transform="matrix(1 0 0 -1 0 792)" d="M503.908 534.12L503.908 519.32" stroke="#000000" stroke-width="0.75" stroke-linecap="square" fill="none" /><path id="625" transform="matrix(1 0 0 -1 0 792)" d="M405.376 519.32L503.908 519.32" stroke="#000000" stroke-width="0.75" stroke-linecap="square" fill="none" /></g></g></svg>