<svg xmlns="http://www.w3.org/2000/svg" xmlns:xlink="http://www.w3.org/1999/xlink" id="body_84" preserveAspectRatio="xMinYMin meet" viewBox="0 0 816 1056"><defs><clipPath id="1"><path id="" clip-rule="evenodd" transform="matrix(1 0 0 1 0 0)" d="M0 792L0 0L0 0L612 0L612 0L612 792L612 792L0 792z" /></clipPath></defs><g transform="matrix(1.333333 0 0 1.333333 0 0)"><g clip-path="url(#1)"><path id="1314" transform="matrix(1 0 0 -1 0 792)" d="M108.092 278.03L108.092 261.98" stroke="#000000" stroke-width="0.75" stroke-linecap="square" fill="none" /><path id="1315" transform="matrix(1 0 0 -1 0 792)" d="M108.092 278.03L170.082 278.03L170.082 278.03L170.082 261.98" stroke="#000000" stroke-width="0.75" stroke-linecap="square" fill="none" /><path id="1316" transform="matrix(1 0 0 -1 0 792)" d="M108.092 261.98L170.082 261.98" stroke="#000000" stroke-width="0.75" stroke-linecap="square" fill="none" /><path id="1326" transform="matrix(1 0 0 -1 0 792)" d="M108.092 278.03L108.092 262.73" stroke="#000000" stroke-width="0.75" stroke-linecap="square" fill="none" /><path id="1327" transform="matrix(1 0 0 -1 0 792)" d="M108.092 278.03L169.332 278.03" stroke="#000000" stroke-width="0.75" stroke-linecap="square" fill="none" /><path id="1328" transform="matrix(1 0 0 -1 0 792)" d="M170.082 278.03L170.082 261.98" stroke="#000000" stroke-width="0.75" stroke-linecap="square" fill="none" /><path id="1329" transform="matrix(1 0 0 -1 0 792)" d="M170.082 278.03L308.624 278.03L308.624 278.03L308.624 261.98" stroke="#000000" stroke-width="0.75" stroke-linecap="square" fill="none" /><path id="1330" transform="matrix(1 0 0 -1 0 792)" d="M170.082 261.98L308.624 261.98" stroke="#000000" stroke-width="0.75" stroke-linecap="square" fill="none" /><path id="1339" transform="matrix(1 0 0 -1 0 792)" d="M170.832 278.03L307.874 278.03" stroke="#000000" stroke-width="0.75" stroke-linecap="square" fill="none" /><path id="1340" transform="matrix(1 0 0 -1 0 792)" d="M308.624 278.03L308.624 261.98" stroke="#000000" stroke-width="0.75" stroke-linecap="square" fill="none" /><path id="1341" transform="matrix(1 0 0 -1 0 792)" d="M308.624 278.03L503.908 278.03L503.908 278.03L503.908 261.98" stroke="#000000" stroke-width="0.75" stroke-linecap="square" fill="none" /><path id="1342" transform="matrix(1 0 0 -1 0 792)" d="M308.624 261.98L503.908 261.98" stroke="#000000" stroke-width="0.75" stroke-linecap="square" fill="none" /><path id="1351" transform="matrix(1 0 0 -1 0 792)" d="M309.374 278.03L503.908 278.03L503.908 278.03L503.908 262.73" stroke="#000000" stroke-width="0.75" stroke-linecap="square" fill="none" /><path id="1352" transform="matrix(1 0 0 -1 0 792)" d="M108.092 261.98L108.092 246.43" stroke="#000000" stroke-width="0.75" stroke-linecap="square" fill="none" /><path id="1353" transform="matrix(1 0 0 -1 0 792)" d="M108.092 261.98L170.082 261.98L170.082 261.98L170.082 246.43" stroke="#000000" stroke-width="0.75" stroke-linecap="square" fill="none" /><path id="1354" transform="matrix(1 0 0 -1 0 792)" d="M108.092 246.43L170.082 246.43" stroke="#000000" stroke-width="0.75" stroke-linecap="square" fill="none" /><path id="1366" transform="matrix(1 0 0 -1 0 792)" d="M108.092 261.23L108.092 247.18" stroke="#000000" stroke-width="0.75" stroke-linecap="square" fill="none" /><path id="1367" transform="matrix(1 0 0 -1 0 792)" d="M170.082 261.98L170.082 246.43" stroke="#000000" stroke-width="0.75" stroke-linecap="square" fill="none" /><path id="1368" transform="matrix(1 0 0 -1 0 792)" d="M170.082 261.98L308.624 261.98L308.624 261.98L308.624 246.43" stroke="#000000" stroke-width="0.75" stroke-linecap="square" fill="none" /><path id="1369" transform="matrix(1 0 0 -1 0 792)" d="M170.082 246.43L308.624 246.43" stroke="#000000" stroke-width="0.75" stroke-linecap="square" fill="none" /><path id="1378" transform="matrix(1 0 0 -1 0 792)" d="M308.624 261.98L308.624 246.43" stroke="#000000" stroke-width="0.75" stroke-linecap="square" fill="none" /><path id="1379" transform="matrix(1 0 0 -1 0 792)" d="M308.624 261.98L503.908 261.98L503.908 261.98L503.908 246.43" stroke="#000000" stroke-width="0.75" stroke-linecap="square" fill="none" /><path id="1380" transform="matrix(1 0 0 -1 0 792)" d="M308.624 246.43L503.908 246.43" stroke="#000000" stroke-width="0.75" stroke-linecap="square" fill="none" /><path id="1402" transform="matrix(1 0 0 -1 0 792)" d="M503.908 261.23L503.908 247.18" stroke="#000000" stroke-width="0.75" stroke-linecap="square" fill="none" /><path id="1403" transform="matrix(1 0 0 -1 0 792)" d="M108.092 246.43L108.092 220.08" stroke="#000000" stroke-width="0.75" stroke-linecap="square" fill="none" /><path id="1404" transform="matrix(1 0 0 -1 0 792)" d="M108.092 246.43L170.082 246.43L170.082 246.43L170.082 220.08" stroke="#000000" stroke-width="0.75" stroke-linecap="square" fill="none" /><path id="1405" transform="matrix(1 0 0 -1 0 792)" d="M108.092 220.08L170.082 220.08" stroke="#000000" stroke-width="0.75" stroke-linecap="square" fill="none" /><path id="1421" transform="matrix(1 0 0 -1 0 792)" d="M108.092 245.68L108.092 220.83" stroke="#000000" stroke-width="0.75" stroke-linecap="square" fill="none" /><path id="1422" transform="matrix(1 0 0 -1 0 792)" d="M170.082 246.43L170.082 220.08" stroke="#000000" stroke-width="0.75" stroke-linecap="square" fill="none" /><path id="1423" transform="matrix(1 0 0 -1 0 792)" d="M170.082 246.43L308.624 246.43L308.624 246.43L308.624 220.08" stroke="#000000" stroke-width="0.75" stroke-linecap="square" fill="none" /><path id="1424" transform="matrix(1 0 0 -1 0 792)" d="M170.082 220.08L308.624 220.08" stroke="#000000" stroke-width="0.75" stroke-linecap="square" fill="none" /><path id="1438" transform="matrix(1 0 0 -1 0 792)" d="M308.624 246.43L308.624 220.08" stroke="#000000" stroke-width="0.75" stroke-linecap="square" fill="none" /><path id="1439" transform="matrix(1 0 0 -1 0 792)" d="M308.624 246.43L503.908 246.43L503.908 246.43L503.908 220.08" stroke="#000000" stroke-width="0.75" stroke-linecap="square" fill="none" /><path id="1440" transform="matrix(1 0 0 -1 0 792)" d="M308.624 220.08L503.908 220.08" stroke="#000000" stroke-width="0.75" stroke-linecap="square" fill="none" /><path id="1488" transform="matrix(1 0 0 -1 0 792)" d="M503.908 245.68L503.908 220.83" stroke="#000000" stroke-width="0.75" stroke-linecap="square" fill="none" /><path id="1489" transform="matrix(1 0 0 -1 0 792)" d="M108.092 220.08L108.092 204.53" stroke="#000000" stroke-width="0.75" stroke-linecap="square" fill="none" /><path id="1490" transform="matrix(1 0 0 -1 0 792)" d="M108.092 220.08L170.082 220.08L170.082 220.08L170.082 204.53" stroke="#000000" stroke-width="0.75" stroke-linecap="square" fill="none" /><path id="1491" transform="matrix(1 0 0 -1 0 792)" d="M108.092 204.53L170.082 204.53" stroke="#000000" stroke-width="0.75" stroke-linecap="square" fill="none" /><path id="1505" transform="matrix(1 0 0 -1 0 792)" d="M108.092 219.33L108.092 205.28" stroke="#000000" stroke-width="0.75" stroke-linecap="square" fill="none" /><path id="1506" transform="matrix(1 0 0 -1 0 792)" d="M170.082 220.08L170.082 204.53" stroke="#000000" stroke-width="0.75" stroke-linecap="square" fill="none" /><path id="1507" transform="matrix(1 0 0 -1 0 792)" d="M170.082 220.08L308.624 220.08L308.624 220.08L308.624 204.53" stroke="#000000" stroke-width="0.75" stroke-linecap="square" fill="none" /><path id="1508" transform="matrix(1 0 0 -1 0 792)" d="M170.082 204.53L308.624 204.53" stroke="#000000" stroke-width="0.75" stroke-linecap="square" fill="none" /><path id="1531" transform="matrix(1 0 0 -1 0 792)" d="M308.624 220.08L308.624 204.53" stroke="#000000" stroke-width="0.75" stroke-linecap="square" fill="none" /><path id="1532" transform="matrix(1 0 0 -1 0 792)" d="M308.624 220.08L503.908 220.08L503.908 220.08L503.908 204.53" stroke="#000000" stroke-width="0.75" stroke-linecap="square" fill="none" /><path id="1533" transform="matrix(1 0 0 -1 0 792)" d="M308.624 204.53L503.908 204.53" stroke="#000000" stroke-width="0.75" stroke-linecap="square" fill="none" /><path id="1560" transform="matrix(1 0 0 -1 0 792)" d="M503.908 219.33L503.908 205.28" stroke="#000000" stroke-width="0.75" stroke-linecap="square" fill="none" /><path id="1561" transform="matrix(1 0 0 -1 0 792)" d="M108.092 204.53L108.092 178.18" stroke="#000000" stroke-width="0.75" stroke-linecap="square" fill="none" /><path id="1562" transform="matrix(1 0 0 -1 0 792)" d="M108.092 204.53L170.082 204.53L170.082 204.53L170.082 178.18" stroke="#000000" stroke-width="0.75" stroke-linecap="square" fill="none" /><path id="1563" transform="matrix(1 0 0 -1 0 792)" d="M108.092 178.18L170.082 178.18" stroke="#000000" stroke-width="0.75" stroke-linecap="square" fill="none" /><path id="1574" transform="matrix(1 0 0 -1 0 792)" d="M108.092 203.78L108.092 178.18L108.092 178.18L169.332 178.18" stroke="#000000" stroke-width="0.75" stroke-linecap="square" fill="none" /><path id="1575" transform="matrix(1 0 0 -1 0 792)" d="M170.082 204.53L170.082 178.18" stroke="#000000" stroke-width="0.75" stroke-linecap="square" fill="none" /><path id="1576" transform="matrix(1 0 0 -1 0 792)" d="M170.082 204.53L308.624 204.53L308.624 204.53L308.624 178.18" stroke="#000000" stroke-width="0.75" stroke-linecap="square" fill="none" /><path id="1577" transform="matrix(1 0 0 -1 0 792)" d="M170.082 178.18L308.624 178.18" stroke="#000000" stroke-width="0.75" stroke-linecap="square" fill="none" /><path id="1631" transform="matrix(1 0 0 -1 0 792)" d="M170.832 178.18L307.874 178.18" stroke="#000000" stroke-width="0.75" stroke-linecap="square" fill="none" /><path id="1632" transform="matrix(1 0 0 -1 0 792)" d="M308.624 204.53L308.624 178.18" stroke="#000000" stroke-width="0.75" stroke-linecap="square" fill="none" /><path id="1633" transform="matrix(1 0 0 -1 0 792)" d="M308.624 204.53L503.908 204.53L503.908 204.53L503.908 178.18" stroke="#000000" stroke-width="0.75" stroke-linecap="square" fill="none" /><path id="1634" transform="matrix(1 0 0 -1 0 792)" d="M308.624 178.18L503.908 178.18" stroke="#000000" stroke-width="0.75" stroke-linecap="square" fill="none" /><path id="1689" transform="matrix(1 0 0 -1 0 792)" d="M503.908 203.78L503.908 178.18" stroke="#000000" stroke-width="0.75" stroke-linecap="square" fill="none" /><path id="1690" transform="matrix(1 0 0 -1 0 792)" d="M309.374 178.18L503.908 178.18" stroke="#000000" stroke-width="0.75" stroke-linecap="square" fill="none" /></g></g></svg>