<svg xmlns="http://www.w3.org/2000/svg" xmlns:xlink="http://www.w3.org/1999/xlink" id="body_57" preserveAspectRatio="xMinYMin meet" viewBox="0 0 816 1056"><defs><clipPath id="1"><path id="" clip-rule="evenodd" transform="matrix(1 0 0 1 0 0)" d="M0 792L0 0L0 0L612 0L612 0L612 792L612 792L0 792z" /></clipPath></defs><g transform="matrix(1.333333 0 0 1.333333 0 0)"><g clip-path="url(#1)"><path id="59" transform="matrix(1 0 0 -1 0 792)" d="M108.092 672.57L108.092 656.52" stroke="#000000" stroke-width="0.75" stroke-linecap="square" fill="none" /><path id="60" transform="matrix(1 0 0 -1 0 792)" d="M108.092 672.57L133.311 672.57L133.311 672.57L133.311 656.52" stroke="#000000" stroke-width="0.75" stroke-linecap="square" fill="none" /><path id="61" transform="matrix(1 0 0 -1 0 792)" d="M108.092 656.52L133.311 656.52" stroke="#000000" stroke-width="0.75" stroke-linecap="square" fill="none" /><path id="67" transform="matrix(1 0 0 -1 0 792)" d="M108.092 672.57L108.092 657.27" stroke="#000000" stroke-width="0.75" stroke-linecap="square" fill="none" /><path id="68" transform="matrix(1 0 0 -1 0 792)" d="M108.092 672.57L132.561 672.57" stroke="#000000" stroke-width="0.75" stroke-linecap="square" fill="none" /><path id="69" transform="matrix(1 0 0 -1 0 792)" d="M133.311 672.57L133.311 656.52" stroke="#000000" stroke-width="0.75" stroke-linecap="square" fill="none" /><path id="70" transform="matrix(1 0 0 -1 0 792)" d="M133.311 672.57L188.97 672.57L188.97 672.57L188.97 656.52" stroke="#000000" stroke-width="0.75" stroke-linecap="square" fill="none" /><path id="71" transform="matrix(1 0 0 -1 0 792)" d="M133.311 656.52L188.97 656.52" stroke="#000000" stroke-width="0.75" stroke-linecap="square" fill="none" /><path id="78" transform="matrix(1 0 0 -1 0 792)" d="M134.061 672.57L188.22 672.57" stroke="#000000" stroke-width="0.75" stroke-linecap="square" fill="none" /><path id="79" transform="matrix(1 0 0 -1 0 792)" d="M188.97 672.57L188.97 656.52" stroke="#000000" stroke-width="0.75" stroke-linecap="square" fill="none" /><path id="80" transform="matrix(1 0 0 -1 0 792)" d="M188.97 672.57L259.971 672.57L259.971 672.57L259.971 656.52" stroke="#000000" stroke-width="0.75" stroke-linecap="square" fill="none" /><path id="81" transform="matrix(1 0 0 -1 0 792)" d="M188.97 656.52L259.971 656.52" stroke="#000000" stroke-width="0.75" stroke-linecap="square" fill="none" /><path id="93" transform="matrix(1 0 0 -1 0 792)" d="M189.72 672.57L259.221 672.57" stroke="#000000" stroke-width="0.75" stroke-linecap="square" fill="none" /><path id="94" transform="matrix(1 0 0 -1 0 792)" d="M259.971 672.57L259.971 656.52" stroke="#000000" stroke-width="0.75" stroke-linecap="square" fill="none" /><path id="95" transform="matrix(1 0 0 -1 0 792)" d="M259.971 672.57L372.252 672.57L372.252 672.57L372.252 656.52" stroke="#000000" stroke-width="0.75" stroke-linecap="square" fill="none" /><path id="96" transform="matrix(1 0 0 -1 0 792)" d="M259.971 656.52L372.252 656.52" stroke="#000000" stroke-width="0.75" stroke-linecap="square" fill="none" /><path id="103" transform="matrix(1 0 0 -1 0 792)" d="M260.721 672.57L371.502 672.57" stroke="#000000" stroke-width="0.75" stroke-linecap="square" fill="none" /><path id="104" transform="matrix(1 0 0 -1 0 792)" d="M372.252 672.57L372.252 656.52" stroke="#000000" stroke-width="0.75" stroke-linecap="square" fill="none" /><path id="105" transform="matrix(1 0 0 -1 0 792)" d="M372.252 672.57L440.074 672.57L440.074 672.57L440.074 656.52" stroke="#000000" stroke-width="0.75" stroke-linecap="square" fill="none" /><path id="106" transform="matrix(1 0 0 -1 0 792)" d="M372.252 656.52L440.074 656.52" stroke="#000000" stroke-width="0.75" stroke-linecap="square" fill="none" /><path id="116" transform="matrix(1 0 0 -1 0 792)" d="M373.002 672.57L439.324 672.57" stroke="#000000" stroke-width="0.75" stroke-linecap="square" fill="none" /><path id="117" transform="matrix(1 0 0 -1 0 792)" d="M440.074 672.57L440.074 656.52" stroke="#000000" stroke-width="0.75" stroke-linecap="square" fill="none" /><path id="118" transform="matrix(1 0 0 -1 0 792)" d="M440.074 672.57L503.908 672.57L503.908 672.57L503.908 656.52" stroke="#000000" stroke-width="0.75" stroke-linecap="square" fill="none" /><path id="119" transform="matrix(1 0 0 -1 0 792)" d="M440.074 656.52L503.908 656.52" stroke="#000000" stroke-width="0.75" stroke-linecap="square" fill="none" /><path id="132" transform="matrix(1 0 0 -1 0 792)" d="M440.824 672.57L503.908 672.57L503.908 672.57L503.908 657.27" stroke="#000000" stroke-width="0.75" stroke-linecap="square" fill="none" /><path id="133" transform="matrix(1 0 0 -1 0 792)" d="M108.092 656.52L108.092 511.37" stroke="#000000" stroke-width="0.75" stroke-linecap="square" fill="none" /><path id="134" transform="matrix(1 0 0 -1 0 792)" d="M108.092 656.52L133.311 656.52L133.311 656.52L133.311 511.37" stroke="#000000" stroke-width="0.75" stroke-linecap="square" fill="none" /><path id="135" transform="matrix(1 0 0 -1 0 792)" d="M108.092 511.37L133.311 511.37" stroke="#000000" stroke-width="0.75" stroke-linecap="square" fill="none" /><path id="140" transform="matrix(1 0 0 -1 0 792)" d="M108.092 655.77L108.092 512.12" stroke="#000000" stroke-width="0.75" stroke-linecap="square" fill="none" /><path id="141" transform="matrix(1 0 0 -1 0 792)" d="M133.311 656.52L133.311 511.37" stroke="#000000" stroke-width="0.75" stroke-linecap="square" fill="none" /><path id="142" transform="matrix(1 0 0 -1 0 792)" d="M133.311 656.52L188.97 656.52L188.97 656.52L188.97 511.37" stroke="#000000" stroke-width="0.75" stroke-linecap="square" fill="none" /><path id="143" transform="matrix(1 0 0 -1 0 792)" d="M133.311 511.37L188.97 511.37" stroke="#000000" stroke-width="0.75" stroke-linecap="square" fill="none" /><path id="172" transform="matrix(1 0 0 -1 0 792)" d="M188.97 656.52L188.97 511.37" stroke="#000000" stroke-width="0.75" stroke-linecap="square" fill="none" /><path id="173" transform="matrix(1 0 0 -1 0 792)" d="M188.97 656.52L259.971 656.52L259.971 656.52L259.971 511.37" stroke="#000000" stroke-width="0.75" stroke-linecap="square" fill="none" /><path id="174" transform="matrix(1 0 0 -1 0 792)" d="M188.97 511.37L259.971 511.37" stroke="#000000" stroke-width="0.75" stroke-linecap="square" fill="none" /><path id="340" transform="matrix(1 0 0 -1 0 792)" d="M259.971 656.52L259.971 511.37" stroke="#000000" stroke-width="0.75" stroke-linecap="square" fill="none" /><path id="341" transform="matrix(1 0 0 -1 0 792)" d="M259.971 656.52L372.252 656.52L372.252 656.52L372.252 511.37" stroke="#000000" stroke-width="0.75" stroke-linecap="square" fill="none" /><path id="342" transform="matrix(1 0 0 -1 0 792)" d="M259.971 511.37L372.252 511.37" stroke="#000000" stroke-width="0.75" stroke-linecap="square" fill="none" /><path id="378" transform="matrix(1 0 0 -1 0 792)" d="M372.252 656.52L372.252 511.37" stroke="#000000" stroke-width="0.75" stroke-linecap="square" fill="none" /><path id="379" transform="matrix(1 0 0 -1 0 792)" d="M372.252 656.52L440.074 656.52L440.074 656.52L440.074 511.37" stroke="#000000" stroke-width="0.75" stroke-linecap="square" fill="none" /><path id="380" transform="matrix(1 0 0 -1 0 792)" d="M372.252 511.37L440.074 511.37" stroke="#000000" stroke-width="0.75" stroke-linecap="square" fill="none" /><path id="431" transform="matrix(1 0 0 -1 0 792)" d="M440.074 656.52L440.074 511.37" stroke="#000000" stroke-width="0.75" stroke-linecap="square" fill="none" /><path id="432" transform="matrix(1 0 0 -1 0 792)" d="M440.074 656.52L503.908 656.52L503.908 656.52L503.908 511.37" stroke="#000000" stroke-width="0.75" stroke-linecap="square" fill="none" /><path id="433" transform="matrix(1 0 0 -1 0 792)" d="M440.074 511.37L503.908 511.37" stroke="#000000" stroke-width="0.75" stroke-linecap="square" fill="none" /><path id="437" transform="matrix(1 0 0 -1 0 792)" d="M503.908 655.77L503.908 512.12" stroke="#000000" stroke-width="0.75" stroke-linecap="square" fill="none" /><path id="438" transform="matrix(1 0 0 -1 0 792)" d="M108.092 511.37L108.092 441.82" stroke="#000000" stroke-width="0.75" stroke-linecap="square" fill="none" /><path id="439" transform="matrix(1 0 0 -1 0 792)" d="M108.092 511.37L133.311 511.37L133.311 511.37L133.311 441.82" stroke="#000000" stroke-width="0.75" stroke-linecap="square" fill="none" /><path id="440" transform="matrix(1 0 0 -1 0 792)" d="M108.092 441.82L133.311 441.82" stroke="#000000" stroke-width="0.75" stroke-linecap="square" fill="none" /><path id="445" transform="matrix(1 0 0 -1 0 792)" d="M108.092 510.62L108.092 442.57" stroke="#000000" stroke-width="0.75" stroke-linecap="square" fill="none" /><path id="446" transform="matrix(1 0 0 -1 0 792)" d="M133.311 511.37L133.311 441.82" stroke="#000000" stroke-width="0.75" stroke-linecap="square" fill="none" /><path id="447" transform="matrix(1 0 0 -1 0 792)" d="M133.311 511.37L188.97 511.37L188.97 511.37L188.97 441.82" stroke="#000000" stroke-width="0.75" stroke-linecap="square" fill="none" /><path id="448" transform="matrix(1 0 0 -1 0 792)" d="M133.311 441.82L188.97 441.82" stroke="#000000" stroke-width="0.75" stroke-linecap="square" fill="none" /><path id="473" transform="matrix(1 0 0 -1 0 792)" d="M188.97 511.37L188.97 441.82" stroke="#000000" stroke-width="0.75" stroke-linecap="square" fill="none" /><path id="474" transform="matrix(1 0 0 -1 0 792)" d="M188.97 511.37L259.971 511.37L259.971 511.37L259.971 441.82" stroke="#000000" stroke-width="0.75" stroke-linecap="square" fill="none" /><path id="475" transform="matrix(1 0 0 -1 0 792)" d="M188.97 441.82L259.971 441.82" stroke="#000000" stroke-width="0.75" stroke-linecap="square" fill="none" /><path id="557" transform="matrix(1 0 0 -1 0 792)" d="M259.971 511.37L259.971 441.82" stroke="#000000" stroke-width="0.75" stroke-linecap="square" fill="none" /><path id="558" transform="matrix(1 0 0 -1 0 792)" d="M259.971 511.37L372.252 511.37L372.252 511.37L372.252 441.82" stroke="#000000" stroke-width="0.75" stroke-linecap="square" fill="none" /><path id="559" transform="matrix(1 0 0 -1 0 792)" d="M259.971 441.82L372.252 441.82" stroke="#000000" stroke-width="0.75" stroke-linecap="square" fill="none" /><path id="609" transform="matrix(1 0 0 -1 0 792)" d="M372.252 511.37L372.252 441.82" stroke="#000000" stroke-width="0.75" stroke-linecap="square" fill="none" /><path id="610" transform="matrix(1 0 0 -1 0 792)" d="M372.252 511.37L440.074 511.37L440.074 511.37L440.074 441.82" stroke="#000000" stroke-width="0.75" stroke-linecap="square" fill="none" /><path id="611" transform="matrix(1 0 0 -1 0 792)" d="M372.252 441.82L440.074 441.82" stroke="#000000" stroke-width="0.75" stroke-linecap="square" fill="none" /><path id="651" transform="matrix(1 0 0 -1 0 792)" d="M440.074 511.37L440.074 441.82" stroke="#000000" stroke-width="0.75" stroke-linecap="square" fill="none" /><path id="652" transform="matrix(1 0 0 -1 0 792)" d="M440.074 511.37L503.908 511.37L503.908 511.37L503.908 441.82" stroke="#000000" stroke-width="0.75" stroke-linecap="square" fill="none" /><path id="653" transform="matrix(1 0 0 -1 0 792)" d="M440.074 441.82L503.908 441.82" stroke="#000000" stroke-width="0.75" stroke-linecap="square" fill="none" /><path id="699" transform="matrix(1 0 0 -1 0 792)" d="M503.908 510.62L503.908 442.57" stroke="#000000" stroke-width="0.75" stroke-linecap="square" fill="none" /><path id="700" transform="matrix(1 0 0 -1 0 792)" d="M108.092 441.82L108.092 350.67" stroke="#000000" stroke-width="0.75" stroke-linecap="square" fill="none" /><path id="701" transform="matrix(1 0 0 -1 0 792)" d="M108.092 441.82L133.311 441.82L133.311 441.82L133.311 350.67" stroke="#000000" stroke-width="0.75" stroke-linecap="square" fill="none" /><path id="702" transform="matrix(1 0 0 -1 0 792)" d="M108.092 350.67L133.311 350.67" stroke="#000000" stroke-width="0.75" stroke-linecap="square" fill="none" /><path id="707" transform="matrix(1 0 0 -1 0 792)" d="M108.092 441.07L108.092 351.42" stroke="#000000" stroke-width="0.75" stroke-linecap="square" fill="none" /><path id="708" transform="matrix(1 0 0 -1 0 792)" d="M133.311 441.82L133.311 350.67" stroke="#000000" stroke-width="0.75" stroke-linecap="square" fill="none" /><path id="709" transform="matrix(1 0 0 -1 0 792)" d="M133.311 441.82L188.97 441.82L188.97 441.82L188.97 350.67" stroke="#000000" stroke-width="0.75" stroke-linecap="square" fill="none" /><path id="710" transform="matrix(1 0 0 -1 0 792)" d="M133.311 350.67L188.97 350.67" stroke="#000000" stroke-width="0.75" stroke-linecap="square" fill="none" /><path id="741" transform="matrix(1 0 0 -1 0 792)" d="M188.97 441.82L188.97 350.67" stroke="#000000" stroke-width="0.75" stroke-linecap="square" fill="none" /><path id="742" transform="matrix(1 0 0 -1 0 792)" d="M188.97 441.82L259.971 441.82L259.971 441.82L259.971 350.67" stroke="#000000" stroke-width="0.75" stroke-linecap="square" fill="none" /><path id="743" transform="matrix(1 0 0 -1 0 792)" d="M188.97 350.67L259.971 350.67" stroke="#000000" stroke-width="0.75" stroke-linecap="square" fill="none" /><path id="836" transform="matrix(1 0 0 -1 0 792)" d="M259.971 441.82L259.971 350.67" stroke="#000000" stroke-width="0.75" stroke-linecap="square" fill="none" /><path id="837" transform="matrix(1 0 0 -1 0 792)" d="M259.971 441.82L372.252 441.82L372.252 441.82L372.252 350.67" stroke="#000000" stroke-width="0.75" stroke-linecap="square" fill="none" /><path id="838" transform="matrix(1 0 0 -1 0 792)" d="M259.971 350.67L372.252 350.67" stroke="#000000" stroke-width="0.75" stroke-linecap="square" fill="none" /><path id="868" transform="matrix(1 0 0 -1 0 792)" d="M372.252 441.82L372.252 350.67" stroke="#000000" stroke-width="0.75" stroke-linecap="square" fill="none" /><path id="869" transform="matrix(1 0 0 -1 0 792)" d="M372.252 441.82L440.074 441.82L440.074 441.82L440.074 350.67" stroke="#000000" stroke-width="0.75" stroke-linecap="square" fill="none" /><path id="870" transform="matrix(1 0 0 -1 0 792)" d="M372.252 350.67L440.074 350.67" stroke="#000000" stroke-width="0.75" stroke-linecap="square" fill="none" /><path id="957" transform="matrix(1 0 0 -1 0 792)" d="M440.074 441.82L440.074 350.67" stroke="#000000" stroke-width="0.75" stroke-linecap="square" fill="none" /><path id="958" transform="matrix(1 0 0 -1 0 792)" d="M440.074 441.82L503.908 441.82L503.908 441.82L503.908 350.67" stroke="#000000" stroke-width="0.75" stroke-linecap="square" fill="none" /><path id="959" transform="matrix(1 0 0 -1 0 792)" d="M440.074 350.67L503.908 350.67" stroke="#000000" stroke-width="0.75" stroke-linecap="square" fill="none" /><path id="1022" transform="matrix(1 0 0 -1 0 792)" d="M503.908 441.07L503.908 351.42" stroke="#000000" stroke-width="0.75" stroke-linecap="square" fill="none" /><path id="1023" transform="matrix(1 0 0 -1 0 792)" d="M108.092 350.67L108.092 291.92" stroke="#000000" stroke-width="0.75" stroke-linecap="square" fill="none" /><path id="1024" transform="matrix(1 0 0 -1 0 792)" d="M108.092 350.67L133.311 350.67L133.311 350.67L133.311 291.92" stroke="#000000" stroke-width="0.75" stroke-linecap="square" fill="none" /><path id="1025" transform="matrix(1 0 0 -1 0 792)" d="M108.092 291.92L133.311 291.92" stroke="#000000" stroke-width="0.75" stroke-linecap="square" fill="none" /><path id="1030" transform="matrix(1 0 0 -1 0 792)" d="M108.092 349.92L108.092 292.67" stroke="#000000" stroke-width="0.75" stroke-linecap="square" fill="none" /><path id="1031" transform="matrix(1 0 0 -1 0 792)" d="M133.311 350.67L133.311 291.92" stroke="#000000" stroke-width="0.75" stroke-linecap="square" fill="none" /><path id="1032" transform="matrix(1 0 0 -1 0 792)" d="M133.311 350.67L188.97 350.67L188.97 350.67L188.97 291.92" stroke="#000000" stroke-width="0.75" stroke-linecap="square" fill="none" /><path id="1033" transform="matrix(1 0 0 -1 0 792)" d="M133.311 291.92L188.97 291.92" stroke="#000000" stroke-width="0.75" stroke-linecap="square" fill="none" /><path id="1044" transform="matrix(1 0 0 -1 0 792)" d="M188.97 350.67L188.97 291.92" stroke="#000000" stroke-width="0.75" stroke-linecap="square" fill="none" /><path id="1045" transform="matrix(1 0 0 -1 0 792)" d="M188.97 350.67L259.971 350.67L259.971 350.67L259.971 291.92" stroke="#000000" stroke-width="0.75" stroke-linecap="square" fill="none" /><path id="1046" transform="matrix(1 0 0 -1 0 792)" d="M188.97 291.92L259.971 291.92" stroke="#000000" stroke-width="0.75" stroke-linecap="square" fill="none" /><path id="1097" transform="matrix(1 0 0 -1 0 792)" d="M259.971 350.67L259.971 291.92" stroke="#000000" stroke-width="0.75" stroke-linecap="square" fill="none" /><path id="1098" transform="matrix(1 0 0 -1 0 792)" d="M259.971 350.67L372.252 350.67L372.252 350.67L372.252 291.92" stroke="#000000" stroke-width="0.75" stroke-linecap="square" fill="none" /><path id="1099" transform="matrix(1 0 0 -1 0 792)" d="M259.971 291.92L372.252 291.92" stroke="#000000" stroke-width="0.75" stroke-linecap="square" fill="none" /><path id="1130" transform="matrix(1 0 0 -1 0 792)" d="M372.252 350.67L372.252 291.92" stroke="#000000" stroke-width="0.75" stroke-linecap="square" fill="none" /><path id="1131" transform="matrix(1 0 0 -1 0 792)" d="M372.252 350.67L440.074 350.67L440.074 350.67L440.074 291.92" stroke="#000000" stroke-width="0.75" stroke-linecap="square" fill="none" /><path id="1132" transform="matrix(1 0 0 -1 0 792)" d="M372.252 291.92L440.074 291.92" stroke="#000000" stroke-width="0.75" stroke-linecap="square" fill="none" /><path id="1176" transform="matrix(1 0 0 -1 0 792)" d="M440.074 350.67L440.074 291.92" stroke="#000000" stroke-width="0.75" stroke-linecap="square" fill="none" /><path id="1177" transform="matrix(1 0 0 -1 0 792)" d="M440.074 350.67L503.908 350.67L503.908 350.67L503.908 291.92" stroke="#000000" stroke-width="0.75" stroke-linecap="square" fill="none" /><path id="1178" transform="matrix(1 0 0 -1 0 792)" d="M440.074 291.92L503.908 291.92" stroke="#000000" stroke-width="0.75" stroke-linecap="square" fill="none" /><path id="1204" transform="matrix(1 0 0 -1 0 792)" d="M503.908 349.92L503.908 292.67" stroke="#000000" stroke-width="0.75" stroke-linecap="square" fill="none" /><path id="1205" transform="matrix(1 0 0 -1 0 792)" d="M108.092 291.92L108.092 254.77" stroke="#000000" stroke-width="0.75" stroke-linecap="square" fill="none" /><path id="1206" transform="matrix(1 0 0 -1 0 792)" d="M108.092 291.92L133.311 291.92L133.311 291.92L133.311 254.77" stroke="#000000" stroke-width="0.75" stroke-linecap="square" fill="none" /><path id="1207" transform="matrix(1 0 0 -1 0 792)" d="M108.092 254.77L133.311 254.77" stroke="#000000" stroke-width="0.75" stroke-linecap="square" fill="none" /><path id="1212" transform="matrix(1 0 0 -1 0 792)" d="M108.092 291.17L108.092 255.52" stroke="#000000" stroke-width="0.75" stroke-linecap="square" fill="none" /><path id="1213" transform="matrix(1 0 0 -1 0 792)" d="M133.311 291.92L133.311 254.77" stroke="#000000" stroke-width="0.75" stroke-linecap="square" fill="none" /><path id="1214" transform="matrix(1 0 0 -1 0 792)" d="M133.311 291.92L188.97 291.92L188.97 291.92L188.97 254.77" stroke="#000000" stroke-width="0.75" stroke-linecap="square" fill="none" /><path id="1215" transform="matrix(1 0 0 -1 0 792)" d="M133.311 254.77L188.97 254.77" stroke="#000000" stroke-width="0.75" stroke-linecap="square" fill="none" /><path id="1231" transform="matrix(1 0 0 -1 0 792)" d="M188.97 291.92L188.97 254.77" stroke="#000000" stroke-width="0.75" stroke-linecap="square" fill="none" /><path id="1232" transform="matrix(1 0 0 -1 0 792)" d="M188.97 291.92L259.971 291.92L259.971 291.92L259.971 254.77" stroke="#000000" stroke-width="0.75" stroke-linecap="square" fill="none" /><path id="1233" transform="matrix(1 0 0 -1 0 792)" d="M188.97 254.77L259.971 254.77" stroke="#000000" stroke-width="0.75" stroke-linecap="square" fill="none" /><path id="1266" transform="matrix(1 0 0 -1 0 792)" d="M259.971 291.92L259.971 254.77" stroke="#000000" stroke-width="0.75" stroke-linecap="square" fill="none" /><path id="1267" transform="matrix(1 0 0 -1 0 792)" d="M259.971 291.92L372.252 291.92L372.252 291.92L372.252 254.77" stroke="#000000" stroke-width="0.75" stroke-linecap="square" fill="none" /><path id="1268" transform="matrix(1 0 0 -1 0 792)" d="M259.971 254.77L372.252 254.77" stroke="#000000" stroke-width="0.75" stroke-linecap="square" fill="none" /><path id="1295" transform="matrix(1 0 0 -1 0 792)" d="M372.252 291.92L372.252 254.77" stroke="#000000" stroke-width="0.75" stroke-linecap="square" fill="none" /><path id="1296" transform="matrix(1 0 0 -1 0 792)" d="M372.252 291.92L440.074 291.92L440.074 291.92L440.074 254.77" stroke="#000000" stroke-width="0.75" stroke-linecap="square" fill="none" /><path id="1297" transform="matrix(1 0 0 -1 0 792)" d="M372.252 254.77L440.074 254.77" stroke="#000000" stroke-width="0.75" stroke-linecap="square" fill="none" /><path id="1322" transform="matrix(1 0 0 -1 0 792)" d="M440.074 291.92L440.074 254.77" stroke="#000000" stroke-width="0.75" stroke-linecap="square" fill="none" /><path id="1323" transform="matrix(1 0 0 -1 0 792)" d="M440.074 291.92L503.908 291.92L503.908 291.92L503.908 254.77" stroke="#000000" stroke-width="0.75" stroke-linecap="square" fill="none" /><path id="1324" transform="matrix(1 0 0 -1 0 792)" d="M440.074 254.77L503.908 254.77" stroke="#000000" stroke-width="0.75" stroke-linecap="square" fill="none" /><path id="1350" transform="matrix(1 0 0 -1 0 792)" d="M503.908 291.17L503.908 255.52" stroke="#000000" stroke-width="0.75" stroke-linecap="square" fill="none" /><path id="1351" transform="matrix(1 0 0 -1 0 792)" d="M108.092 254.77L108.092 185.22" stroke="#000000" stroke-width="0.75" stroke-linecap="square" fill="none" /><path id="1352" transform="matrix(1 0 0 -1 0 792)" d="M108.092 254.77L133.311 254.77L133.311 254.77L133.311 185.22" stroke="#000000" stroke-width="0.75" stroke-linecap="square" fill="none" /><path id="1353" transform="matrix(1 0 0 -1 0 792)" d="M108.092 185.22L133.311 185.22" stroke="#000000" stroke-width="0.75" stroke-linecap="square" fill="none" /><path id="1361" transform="matrix(1 0 0 -1 0 792)" d="M108.092 254.02L108.092 185.97" stroke="#000000" stroke-width="0.75" stroke-linecap="square" fill="none" /><path id="1362" transform="matrix(1 0 0 -1 0 792)" d="M133.311 254.77L133.311 185.22" stroke="#000000" stroke-width="0.75" stroke-linecap="square" fill="none" /><path id="1363" transform="matrix(1 0 0 -1 0 792)" d="M133.311 254.77L188.97 254.77L188.97 254.77L188.97 185.22" stroke="#000000" stroke-width="0.75" stroke-linecap="square" fill="none" /><path id="1364" transform="matrix(1 0 0 -1 0 792)" d="M133.311 185.22L188.97 185.22" stroke="#000000" stroke-width="0.75" stroke-linecap="square" fill="none" /><path id="1373" transform="matrix(1 0 0 -1 0 792)" d="M188.97 254.77L188.97 185.22" stroke="#000000" stroke-width="0.75" stroke-linecap="square" fill="none" /><path id="1374" transform="matrix(1 0 0 -1 0 792)" d="M188.97 254.77L259.971 254.77L259.971 254.77L259.971 185.22" stroke="#000000" stroke-width="0.75" stroke-linecap="square" fill="none" /><path id="1375" transform="matrix(1 0 0 -1 0 792)" d="M188.97 185.22L259.971 185.22" stroke="#000000" stroke-width="0.75" stroke-linecap="square" fill="none" /><path id="1436" transform="matrix(1 0 0 -1 0 792)" d="M259.971 254.77L259.971 185.22" stroke="#000000" stroke-width="0.75" stroke-linecap="square" fill="none" /><path id="1437" transform="matrix(1 0 0 -1 0 792)" d="M259.971 254.77L372.252 254.77L372.252 254.77L372.252 185.22" stroke="#000000" stroke-width="0.75" stroke-linecap="square" fill="none" /><path id="1438" transform="matrix(1 0 0 -1 0 792)" d="M259.971 185.22L372.252 185.22" stroke="#000000" stroke-width="0.75" stroke-linecap="square" fill="none" /><path id="1491" transform="matrix(1 0 0 -1 0 792)" d="M372.252 254.77L372.252 185.22" stroke="#000000" stroke-width="0.75" stroke-linecap="square" fill="none" /><path id="1492" transform="matrix(1 0 0 -1 0 792)" d="M372.252 254.77L440.074 254.77L440.074 254.77L440.074 185.22" stroke="#000000" stroke-width="0.75" stroke-linecap="square" fill="none" /><path id="1493" transform="matrix(1 0 0 -1 0 792)" d="M372.252 185.22L440.074 185.22" stroke="#000000" stroke-width="0.75" stroke-linecap="square" fill="none" /><path id="1537" transform="matrix(1 0 0 -1 0 792)" d="M440.074 254.77L440.074 185.22" stroke="#000000" stroke-width="0.75" stroke-linecap="square" fill="none" /><path id="1538" transform="matrix(1 0 0 -1 0 792)" d="M440.074 254.77L503.908 254.77L503.908 254.77L503.908 185.22" stroke="#000000" stroke-width="0.75" stroke-linecap="square" fill="none" /><path id="1539" transform="matrix(1 0 0 -1 0 792)" d="M440.074 185.22L503.908 185.22" stroke="#000000" stroke-width="0.75" stroke-linecap="square" fill="none" /><path id="1579" transform="matrix(1 0 0 -1 0 792)" d="M503.908 254.02L503.908 185.97" stroke="#000000" stroke-width="0.75" stroke-linecap="square" fill="none" /></g></g></svg>