<svg xmlns="http://www.w3.org/2000/svg" xmlns:xlink="http://www.w3.org/1999/xlink" id="body_95" preserveAspectRatio="xMinYMin meet" viewBox="0 0 816 1056"><defs><clipPath id="1"><path id="" clip-rule="evenodd" transform="matrix(1 0 0 1 0 0)" d="M0 792L0 0L0 0L612 0L612 0L612 792L612 792L0 792z" /></clipPath><clipPath id="2"><path id="" clip-rule="evenodd" transform="matrix(1 0 0 1 0 0)" d="M-110.502 333.759L698.416 333.759L698.416 333.759L698.416 151.626L698.416 151.626L-110.502 151.626z" /></clipPath><clipPath id="3"><path id="" clip-rule="evenodd" transform="matrix(1 0 0 1 0 0)" d="M41.751 500.293L569.387 500.293L569.387 500.293L569.387 442.648L569.387 442.648L41.751 442.648z" /></clipPath></defs><g transform="matrix(1.333333 0 0 1.333333 0 0)"><g clip-path="url(#1)"><g clip-path="url(#2)"><g transform="matrix(1.019101 0 0 1.019103 172.673 151.622)"><g transform="matrix(1 0 0 1 0 0)"><image x="0" y="0" xlink:href="img_156.png" width="237" height="175" /></g></g></g><g clip-path="url(#3)"><g transform="matrix(0.6647317 0 0 0.6647301 155.332 442.6294)"><g transform="matrix(1 0 0 1 0 0)"><image x="0" y="0" xlink:href="img_157.png" width="451" height="83" /></g></g></g></g></g></svg>