<svg xmlns="http://www.w3.org/2000/svg" xmlns:xlink="http://www.w3.org/1999/xlink" id="body_120" preserveAspectRatio="xMinYMin meet" viewBox="0 0 816 1056"><defs><clipPath id="1"><path id="" clip-rule="evenodd" transform="matrix(1 0 0 1 0 0)" d="M0 792L0 0L0 0L612 0L612 0L612 792L612 792L0 792z" /></clipPath></defs><g transform="matrix(1.333333 0 0 1.333333 0 0)"><g clip-path="url(#1)"><path id="1893" transform="matrix(1 0 0 -1 0 792)" d="M108.092 226.22L108.092 210.17" stroke="#000000" stroke-width="0.75" stroke-linecap="square" fill="none" /><path id="1894" transform="matrix(1 0 0 -1 0 792)" d="M108.092 226.22L151.409 226.22L151.409 226.22L151.409 210.17" stroke="#000000" stroke-width="0.75" stroke-linecap="square" fill="none" /><path id="1895" transform="matrix(1 0 0 -1 0 792)" d="M108.092 210.17L151.409 210.17" stroke="#000000" stroke-width="0.75" stroke-linecap="square" fill="none" /><path id="1901" transform="matrix(1 0 0 -1 0 792)" d="M108.092 226.22L108.092 210.92" stroke="#000000" stroke-width="0.75" stroke-linecap="square" fill="none" /><path id="1902" transform="matrix(1 0 0 -1 0 792)" d="M108.092 226.22L150.659 226.22" stroke="#000000" stroke-width="0.75" stroke-linecap="square" fill="none" /><path id="1903" transform="matrix(1 0 0 -1 0 792)" d="M151.409 226.22L151.409 210.17" stroke="#000000" stroke-width="0.75" stroke-linecap="square" fill="none" /><path id="1904" transform="matrix(1 0 0 -1 0 792)" d="M151.409 226.22L425.12 226.22L425.12 226.22L425.12 210.17" stroke="#000000" stroke-width="0.75" stroke-linecap="square" fill="none" /><path id="1905" transform="matrix(1 0 0 -1 0 792)" d="M151.409 210.17L425.12 210.17" stroke="#000000" stroke-width="0.75" stroke-linecap="square" fill="none" /><path id="1922" transform="matrix(1 0 0 -1 0 792)" d="M152.159 226.22L424.37 226.22" stroke="#000000" stroke-width="0.75" stroke-linecap="square" fill="none" /><path id="1923" transform="matrix(1 0 0 -1 0 792)" d="M425.12 226.22L425.12 210.17" stroke="#000000" stroke-width="0.75" stroke-linecap="square" fill="none" /><path id="1924" transform="matrix(1 0 0 -1 0 792)" d="M425.12 226.22L503.908 226.22L503.908 226.22L503.908 210.17" stroke="#000000" stroke-width="0.75" stroke-linecap="square" fill="none" /><path id="1925" transform="matrix(1 0 0 -1 0 792)" d="M425.12 210.17L503.908 210.17" stroke="#000000" stroke-width="0.75" stroke-linecap="square" fill="none" /><path id="1935" transform="matrix(1 0 0 -1 0 792)" d="M425.87 226.22L503.908 226.22L503.908 226.22L503.908 210.92" stroke="#000000" stroke-width="0.75" stroke-linecap="square" fill="none" /><path id="1936" transform="matrix(1 0 0 -1 0 792)" d="M108.092 210.17L108.092 194.62" stroke="#000000" stroke-width="0.75" stroke-linecap="square" fill="none" /><path id="1937" transform="matrix(1 0 0 -1 0 792)" d="M108.092 210.17L151.409 210.17L151.409 210.17L151.409 194.62" stroke="#000000" stroke-width="0.75" stroke-linecap="square" fill="none" /><path id="1938" transform="matrix(1 0 0 -1 0 792)" d="M108.092 194.62L151.409 194.62" stroke="#000000" stroke-width="0.75" stroke-linecap="square" fill="none" /><path id="1940" transform="matrix(1 0 0 -1 0 792)" d="M108.092 209.42L108.092 195.37" stroke="#000000" stroke-width="0.75" stroke-linecap="square" fill="none" /><path id="1941" transform="matrix(1 0 0 -1 0 792)" d="M151.409 210.17L151.409 194.62" stroke="#000000" stroke-width="0.75" stroke-linecap="square" fill="none" /><path id="1942" transform="matrix(1 0 0 -1 0 792)" d="M151.409 210.17L425.12 210.17L425.12 210.17L425.12 194.62" stroke="#000000" stroke-width="0.75" stroke-linecap="square" fill="none" /><path id="1943" transform="matrix(1 0 0 -1 0 792)" d="M151.409 194.62L425.12 194.62" stroke="#000000" stroke-width="0.75" stroke-linecap="square" fill="none" /><path id="1954" transform="matrix(1 0 0 -1 0 792)" d="M425.12 210.17L425.12 194.62" stroke="#000000" stroke-width="0.75" stroke-linecap="square" fill="none" /><path id="1955" transform="matrix(1 0 0 -1 0 792)" d="M425.12 210.17L503.908 210.17L503.908 210.17L503.908 194.62" stroke="#000000" stroke-width="0.75" stroke-linecap="square" fill="none" /><path id="1956" transform="matrix(1 0 0 -1 0 792)" d="M425.12 194.62L503.908 194.62" stroke="#000000" stroke-width="0.75" stroke-linecap="square" fill="none" /><path id="1961" transform="matrix(1 0 0 -1 0 792)" d="M503.908 209.42L503.908 195.37" stroke="#000000" stroke-width="0.75" stroke-linecap="square" fill="none" /><path id="1962" transform="matrix(1 0 0 -1 0 792)" d="M108.092 194.62L108.092 179.07" stroke="#000000" stroke-width="0.75" stroke-linecap="square" fill="none" /><path id="1963" transform="matrix(1 0 0 -1 0 792)" d="M108.092 194.62L151.409 194.62L151.409 194.62L151.409 179.07" stroke="#000000" stroke-width="0.75" stroke-linecap="square" fill="none" /><path id="1964" transform="matrix(1 0 0 -1 0 792)" d="M108.092 179.07L151.409 179.07" stroke="#000000" stroke-width="0.75" stroke-linecap="square" fill="none" /><path id="1966" transform="matrix(1 0 0 -1 0 792)" d="M108.092 193.87L108.092 179.82" stroke="#000000" stroke-width="0.75" stroke-linecap="square" fill="none" /><path id="1967" transform="matrix(1 0 0 -1 0 792)" d="M151.409 194.62L151.409 179.07" stroke="#000000" stroke-width="0.75" stroke-linecap="square" fill="none" /><path id="1968" transform="matrix(1 0 0 -1 0 792)" d="M151.409 194.62L425.12 194.62L425.12 194.62L425.12 179.07" stroke="#000000" stroke-width="0.75" stroke-linecap="square" fill="none" /><path id="1969" transform="matrix(1 0 0 -1 0 792)" d="M151.409 179.07L425.12 179.07" stroke="#000000" stroke-width="0.75" stroke-linecap="square" fill="none" /><path id="1993" transform="matrix(1 0 0 -1 0 792)" d="M425.12 194.62L425.12 179.07" stroke="#000000" stroke-width="0.75" stroke-linecap="square" fill="none" /><path id="1994" transform="matrix(1 0 0 -1 0 792)" d="M425.12 194.62L503.908 194.62L503.908 194.62L503.908 179.07" stroke="#000000" stroke-width="0.75" stroke-linecap="square" fill="none" /><path id="1995" transform="matrix(1 0 0 -1 0 792)" d="M425.12 179.07L503.908 179.07" stroke="#000000" stroke-width="0.75" stroke-linecap="square" fill="none" /><path id="2000" transform="matrix(1 0 0 -1 0 792)" d="M503.908 193.87L503.908 179.82" stroke="#000000" stroke-width="0.75" stroke-linecap="square" fill="none" /><path id="2001" transform="matrix(1 0 0 -1 0 792)" d="M108.092 179.07L108.092 163.52" stroke="#000000" stroke-width="0.75" stroke-linecap="square" fill="none" /><path id="2002" transform="matrix(1 0 0 -1 0 792)" d="M108.092 179.07L151.409 179.07L151.409 179.07L151.409 163.52" stroke="#000000" stroke-width="0.75" stroke-linecap="square" fill="none" /><path id="2003" transform="matrix(1 0 0 -1 0 792)" d="M108.092 163.52L151.409 163.52" stroke="#000000" stroke-width="0.75" stroke-linecap="square" fill="none" /><path id="2005" transform="matrix(1 0 0 -1 0 792)" d="M108.092 178.32L108.092 164.27" stroke="#000000" stroke-width="0.75" stroke-linecap="square" fill="none" /><path id="2006" transform="matrix(1 0 0 -1 0 792)" d="M151.409 179.07L151.409 163.52" stroke="#000000" stroke-width="0.75" stroke-linecap="square" fill="none" /><path id="2007" transform="matrix(1 0 0 -1 0 792)" d="M151.409 179.07L425.12 179.07L425.12 179.07L425.12 163.52" stroke="#000000" stroke-width="0.75" stroke-linecap="square" fill="none" /><path id="2008" transform="matrix(1 0 0 -1 0 792)" d="M151.409 163.52L425.12 163.52" stroke="#000000" stroke-width="0.75" stroke-linecap="square" fill="none" /><path id="2030" transform="matrix(1 0 0 -1 0 792)" d="M425.12 179.07L425.12 163.52" stroke="#000000" stroke-width="0.75" stroke-linecap="square" fill="none" /><path id="2031" transform="matrix(1 0 0 -1 0 792)" d="M425.12 179.07L503.908 179.07L503.908 179.07L503.908 163.52" stroke="#000000" stroke-width="0.75" stroke-linecap="square" fill="none" /><path id="2032" transform="matrix(1 0 0 -1 0 792)" d="M425.12 163.52L503.908 163.52" stroke="#000000" stroke-width="0.75" stroke-linecap="square" fill="none" /><path id="2037" transform="matrix(1 0 0 -1 0 792)" d="M503.908 178.32L503.908 164.27" stroke="#000000" stroke-width="0.75" stroke-linecap="square" fill="none" /><path id="2038" transform="matrix(1 0 0 -1 0 792)" d="M108.092 163.52L108.092 147.97" stroke="#000000" stroke-width="0.75" stroke-linecap="square" fill="none" /><path id="2039" transform="matrix(1 0 0 -1 0 792)" d="M108.092 163.52L151.409 163.52L151.409 163.52L151.409 147.97" stroke="#000000" stroke-width="0.75" stroke-linecap="square" fill="none" /><path id="2040" transform="matrix(1 0 0 -1 0 792)" d="M108.092 147.97L151.409 147.97" stroke="#000000" stroke-width="0.75" stroke-linecap="square" fill="none" /><path id="2042" transform="matrix(1 0 0 -1 0 792)" d="M108.092 162.77L108.092 148.72" stroke="#000000" stroke-width="0.75" stroke-linecap="square" fill="none" /><path id="2043" transform="matrix(1 0 0 -1 0 792)" d="M151.409 163.52L151.409 147.97" stroke="#000000" stroke-width="0.75" stroke-linecap="square" fill="none" /><path id="2044" transform="matrix(1 0 0 -1 0 792)" d="M151.409 163.52L425.12 163.52L425.12 163.52L425.12 147.97" stroke="#000000" stroke-width="0.75" stroke-linecap="square" fill="none" /><path id="2045" transform="matrix(1 0 0 -1 0 792)" d="M151.409 147.97L425.12 147.97" stroke="#000000" stroke-width="0.75" stroke-linecap="square" fill="none" /><path id="2065" transform="matrix(1 0 0 -1 0 792)" d="M425.12 163.52L425.12 147.97" stroke="#000000" stroke-width="0.75" stroke-linecap="square" fill="none" /><path id="2066" transform="matrix(1 0 0 -1 0 792)" d="M425.12 163.52L503.908 163.52L503.908 163.52L503.908 147.97" stroke="#000000" stroke-width="0.75" stroke-linecap="square" fill="none" /><path id="2067" transform="matrix(1 0 0 -1 0 792)" d="M425.12 147.97L503.908 147.97" stroke="#000000" stroke-width="0.75" stroke-linecap="square" fill="none" /><path id="2072" transform="matrix(1 0 0 -1 0 792)" d="M503.908 162.77L503.908 148.72" stroke="#000000" stroke-width="0.75" stroke-linecap="square" fill="none" /><path id="2073" transform="matrix(1 0 0 -1 0 792)" d="M108.092 147.97L108.092 132.42" stroke="#000000" stroke-width="0.75" stroke-linecap="square" fill="none" /><path id="2074" transform="matrix(1 0 0 -1 0 792)" d="M108.092 147.97L151.409 147.97L151.409 147.97L151.409 132.42" stroke="#000000" stroke-width="0.75" stroke-linecap="square" fill="none" /><path id="2075" transform="matrix(1 0 0 -1 0 792)" d="M108.092 132.42L151.409 132.42" stroke="#000000" stroke-width="0.75" stroke-linecap="square" fill="none" /><path id="2077" transform="matrix(1 0 0 -1 0 792)" d="M108.092 147.22L108.092 133.17" stroke="#000000" stroke-width="0.75" stroke-linecap="square" fill="none" /><path id="2078" transform="matrix(1 0 0 -1 0 792)" d="M151.409 147.97L151.409 132.42" stroke="#000000" stroke-width="0.75" stroke-linecap="square" fill="none" /><path id="2079" transform="matrix(1 0 0 -1 0 792)" d="M151.409 147.97L425.12 147.97L425.12 147.97L425.12 132.42" stroke="#000000" stroke-width="0.75" stroke-linecap="square" fill="none" /><path id="2080" transform="matrix(1 0 0 -1 0 792)" d="M151.409 132.42L425.12 132.42" stroke="#000000" stroke-width="0.75" stroke-linecap="square" fill="none" /><path id="2107" transform="matrix(1 0 0 -1 0 792)" d="M425.12 147.97L425.12 132.42" stroke="#000000" stroke-width="0.75" stroke-linecap="square" fill="none" /><path id="2108" transform="matrix(1 0 0 -1 0 792)" d="M425.12 147.97L503.908 147.97L503.908 147.97L503.908 132.42" stroke="#000000" stroke-width="0.75" stroke-linecap="square" fill="none" /><path id="2109" transform="matrix(1 0 0 -1 0 792)" d="M425.12 132.42L503.908 132.42" stroke="#000000" stroke-width="0.75" stroke-linecap="square" fill="none" /><path id="2114" transform="matrix(1 0 0 -1 0 792)" d="M503.908 147.22L503.908 133.17" stroke="#000000" stroke-width="0.75" stroke-linecap="square" fill="none" /></g></g></svg>