<svg xmlns="http://www.w3.org/2000/svg" xmlns:xlink="http://www.w3.org/1999/xlink" id="body_100" preserveAspectRatio="xMinYMin meet" viewBox="0 0 816 1056"><defs><clipPath id="1"><path id="" clip-rule="evenodd" transform="matrix(1 0 0 1 0 0)" d="M0 792L0 0L0 0L612 0L612 0L612 792L612 792L0 792z" /></clipPath><clipPath id="2"><path id="" clip-rule="evenodd" transform="matrix(1 0 0 1 0 0)" d="M6.376648 408.0479L590.9777 408.0479L590.9777 408.0479L590.9777 123.7016L590.9777 123.7016L6.376648 123.7016z" /></clipPath></defs><g transform="matrix(1.333333 0 0 1.333333 0 0)"><g clip-path="url(#1)"><g clip-path="url(#2)"><g transform="matrix(0.7159998 0 0 0.5374821 112.1867 123.7114)"><g transform="matrix(1 0 0 1 0 0)"><image x="0" y="0" xlink:href="img_167.png" width="539" height="507" /></g></g></g></g></g></svg>