<svg xmlns="http://www.w3.org/2000/svg" xmlns:xlink="http://www.w3.org/1999/xlink" id="body_74" preserveAspectRatio="xMinYMin meet" viewBox="0 0 816 1056"><defs><clipPath id="1"><path id="" clip-rule="evenodd" transform="matrix(1 0 0 1 0 0)" d="M0 792L0 0L0 0L612 0L612 0L612 792L612 792L0 792z" /></clipPath></defs><g transform="matrix(1.333333 0 0 1.333333 0 0)"><g clip-path="url(#1)"><path id="1409" transform="matrix(1 0 0 -1 0 792)" d="M108.092 381.12L108.092 365.07" stroke="#000000" stroke-width="0.75" stroke-linecap="square" fill="none" /><path id="1410" transform="matrix(1 0 0 -1 0 792)" d="M108.092 381.12L155.318 381.12L155.318 381.12L155.318 365.07" stroke="#000000" stroke-width="0.75" stroke-linecap="square" fill="none" /><path id="1411" transform="matrix(1 0 0 -1 0 792)" d="M108.092 365.07L155.318 365.07" stroke="#000000" stroke-width="0.75" stroke-linecap="square" fill="none" /><path id="1422" transform="matrix(1 0 0 -1 0 792)" d="M108.092 381.12L108.092 365.82" stroke="#000000" stroke-width="0.75" stroke-linecap="square" fill="none" /><path id="1423" transform="matrix(1 0 0 -1 0 792)" d="M108.092 381.12L154.568 381.12" stroke="#000000" stroke-width="0.75" stroke-linecap="square" fill="none" /><path id="1424" transform="matrix(1 0 0 -1 0 792)" d="M155.318 381.12L155.318 365.07" stroke="#000000" stroke-width="0.75" stroke-linecap="square" fill="none" /><path id="1425" transform="matrix(1 0 0 -1 0 792)" d="M155.318 381.12L235.682 381.12L235.682 381.12L235.682 365.07" stroke="#000000" stroke-width="0.75" stroke-linecap="square" fill="none" /><path id="1426" transform="matrix(1 0 0 -1 0 792)" d="M155.318 365.07L235.682 365.07" stroke="#000000" stroke-width="0.75" stroke-linecap="square" fill="none" /><path id="1437" transform="matrix(1 0 0 -1 0 792)" d="M156.068 381.12L234.932 381.12" stroke="#000000" stroke-width="0.75" stroke-linecap="square" fill="none" /><path id="1438" transform="matrix(1 0 0 -1 0 792)" d="M235.682 381.12L235.682 365.07" stroke="#000000" stroke-width="0.75" stroke-linecap="square" fill="none" /><path id="1439" transform="matrix(1 0 0 -1 0 792)" d="M235.682 381.12L371.403 381.12L371.403 381.12L371.403 365.07" stroke="#000000" stroke-width="0.75" stroke-linecap="square" fill="none" /><path id="1440" transform="matrix(1 0 0 -1 0 792)" d="M235.682 365.07L371.403 365.07" stroke="#000000" stroke-width="0.75" stroke-linecap="square" fill="none" /><path id="1445" transform="matrix(1 0 0 -1 0 792)" d="M236.432 381.12L370.653 381.12" stroke="#000000" stroke-width="0.75" stroke-linecap="square" fill="none" /><path id="1446" transform="matrix(1 0 0 -1 0 792)" d="M371.403 381.12L371.403 365.07" stroke="#000000" stroke-width="0.75" stroke-linecap="square" fill="none" /><path id="1447" transform="matrix(1 0 0 -1 0 792)" d="M371.403 381.12L503.908 381.12L503.908 381.12L503.908 365.07" stroke="#000000" stroke-width="0.75" stroke-linecap="square" fill="none" /><path id="1448" transform="matrix(1 0 0 -1 0 792)" d="M371.403 365.07L503.908 365.07" stroke="#000000" stroke-width="0.75" stroke-linecap="square" fill="none" /><path id="1453" transform="matrix(1 0 0 -1 0 792)" d="M372.153 381.12L503.908 381.12L503.908 381.12L503.908 365.82" stroke="#000000" stroke-width="0.75" stroke-linecap="square" fill="none" /><path id="1454" transform="matrix(1 0 0 -1 0 792)" d="M108.092 365.07L108.092 327.92" stroke="#000000" stroke-width="0.75" stroke-linecap="square" fill="none" /><path id="1455" transform="matrix(1 0 0 -1 0 792)" d="M108.092 365.07L155.318 365.07L155.318 365.07L155.318 327.92" stroke="#000000" stroke-width="0.75" stroke-linecap="square" fill="none" /><path id="1456" transform="matrix(1 0 0 -1 0 792)" d="M108.092 327.92L155.318 327.92" stroke="#000000" stroke-width="0.75" stroke-linecap="square" fill="none" /><path id="1461" transform="matrix(1 0 0 -1 0 792)" d="M108.092 364.32L108.092 328.67" stroke="#000000" stroke-width="0.75" stroke-linecap="square" fill="none" /><path id="1462" transform="matrix(1 0 0 -1 0 792)" d="M155.318 365.07L155.318 327.92" stroke="#000000" stroke-width="0.75" stroke-linecap="square" fill="none" /><path id="1463" transform="matrix(1 0 0 -1 0 792)" d="M155.318 365.07L235.682 365.07L235.682 365.07L235.682 327.92" stroke="#000000" stroke-width="0.75" stroke-linecap="square" fill="none" /><path id="1464" transform="matrix(1 0 0 -1 0 792)" d="M155.318 327.92L235.682 327.92" stroke="#000000" stroke-width="0.75" stroke-linecap="square" fill="none" /><path id="1469" transform="matrix(1 0 0 -1 0 792)" d="M235.682 365.07L235.682 327.92" stroke="#000000" stroke-width="0.75" stroke-linecap="square" fill="none" /><path id="1470" transform="matrix(1 0 0 -1 0 792)" d="M235.682 365.07L371.403 365.07L371.403 365.07L371.403 327.92" stroke="#000000" stroke-width="0.75" stroke-linecap="square" fill="none" /><path id="1471" transform="matrix(1 0 0 -1 0 792)" d="M235.682 327.92L371.403 327.92" stroke="#000000" stroke-width="0.75" stroke-linecap="square" fill="none" /><path id="1528" transform="matrix(1 0 0 -1 0 792)" d="M371.403 365.07L371.403 327.92" stroke="#000000" stroke-width="0.75" stroke-linecap="square" fill="none" /><path id="1529" transform="matrix(1 0 0 -1 0 792)" d="M371.403 365.07L503.908 365.07L503.908 365.07L503.908 327.92" stroke="#000000" stroke-width="0.75" stroke-linecap="square" fill="none" /><path id="1530" transform="matrix(1 0 0 -1 0 792)" d="M371.403 327.92L503.908 327.92" stroke="#000000" stroke-width="0.75" stroke-linecap="square" fill="none" /><path id="1571" transform="matrix(1 0 0 -1 0 792)" d="M503.908 364.32L503.908 328.67" stroke="#000000" stroke-width="0.75" stroke-linecap="square" fill="none" /><path id="1572" transform="matrix(1 0 0 -1 0 792)" d="M108.092 327.92L108.092 258.37" stroke="#000000" stroke-width="0.75" stroke-linecap="square" fill="none" /><path id="1573" transform="matrix(1 0 0 -1 0 792)" d="M108.092 327.92L155.318 327.92L155.318 327.92L155.318 258.37" stroke="#000000" stroke-width="0.75" stroke-linecap="square" fill="none" /><path id="1574" transform="matrix(1 0 0 -1 0 792)" d="M108.092 258.37L155.318 258.37" stroke="#000000" stroke-width="0.75" stroke-linecap="square" fill="none" /><path id="1579" transform="matrix(1 0 0 -1 0 792)" d="M108.092 327.17L108.092 259.12" stroke="#000000" stroke-width="0.75" stroke-linecap="square" fill="none" /><path id="1580" transform="matrix(1 0 0 -1 0 792)" d="M155.318 327.92L155.318 258.37" stroke="#000000" stroke-width="0.75" stroke-linecap="square" fill="none" /><path id="1581" transform="matrix(1 0 0 -1 0 792)" d="M155.318 327.92L235.682 327.92L235.682 327.92L235.682 258.37" stroke="#000000" stroke-width="0.75" stroke-linecap="square" fill="none" /><path id="1582" transform="matrix(1 0 0 -1 0 792)" d="M155.318 258.37L235.682 258.37" stroke="#000000" stroke-width="0.75" stroke-linecap="square" fill="none" /><path id="1586" transform="matrix(1 0 0 -1 0 792)" d="M235.682 327.92L235.682 258.37" stroke="#000000" stroke-width="0.75" stroke-linecap="square" fill="none" /><path id="1587" transform="matrix(1 0 0 -1 0 792)" d="M235.682 327.92L371.403 327.92L371.403 327.92L371.403 258.37" stroke="#000000" stroke-width="0.75" stroke-linecap="square" fill="none" /><path id="1588" transform="matrix(1 0 0 -1 0 792)" d="M235.682 258.37L371.403 258.37" stroke="#000000" stroke-width="0.75" stroke-linecap="square" fill="none" /><path id="1696" transform="matrix(1 0 0 -1 0 792)" d="M371.403 327.92L371.403 258.37" stroke="#000000" stroke-width="0.75" stroke-linecap="square" fill="none" /><path id="1697" transform="matrix(1 0 0 -1 0 792)" d="M371.403 327.92L503.908 327.92L503.908 327.92L503.908 258.37" stroke="#000000" stroke-width="0.75" stroke-linecap="square" fill="none" /><path id="1698" transform="matrix(1 0 0 -1 0 792)" d="M371.403 258.37L503.908 258.37" stroke="#000000" stroke-width="0.75" stroke-linecap="square" fill="none" /><path id="1781" transform="matrix(1 0 0 -1 0 792)" d="M503.908 327.17L503.908 259.12" stroke="#000000" stroke-width="0.75" stroke-linecap="square" fill="none" /><path id="1782" transform="matrix(1 0 0 -1 0 792)" d="M108.092 258.37L108.092 221.22" stroke="#000000" stroke-width="0.75" stroke-linecap="square" fill="none" /><path id="1783" transform="matrix(1 0 0 -1 0 792)" d="M108.092 258.37L155.318 258.37L155.318 258.37L155.318 221.22" stroke="#000000" stroke-width="0.75" stroke-linecap="square" fill="none" /><path id="1784" transform="matrix(1 0 0 -1 0 792)" d="M108.092 221.22L155.318 221.22" stroke="#000000" stroke-width="0.75" stroke-linecap="square" fill="none" /><path id="1789" transform="matrix(1 0 0 -1 0 792)" d="M108.092 257.62L108.092 221.97" stroke="#000000" stroke-width="0.75" stroke-linecap="square" fill="none" /><path id="1790" transform="matrix(1 0 0 -1 0 792)" d="M155.318 258.37L155.318 221.22" stroke="#000000" stroke-width="0.75" stroke-linecap="square" fill="none" /><path id="1791" transform="matrix(1 0 0 -1 0 792)" d="M155.318 258.37L235.682 258.37L235.682 258.37L235.682 221.22" stroke="#000000" stroke-width="0.75" stroke-linecap="square" fill="none" /><path id="1792" transform="matrix(1 0 0 -1 0 792)" d="M155.318 221.22L235.682 221.22" stroke="#000000" stroke-width="0.75" stroke-linecap="square" fill="none" /><path id="1796" transform="matrix(1 0 0 -1 0 792)" d="M235.682 258.37L235.682 221.22" stroke="#000000" stroke-width="0.75" stroke-linecap="square" fill="none" /><path id="1797" transform="matrix(1 0 0 -1 0 792)" d="M235.682 258.37L371.403 258.37L371.403 258.37L371.403 221.22" stroke="#000000" stroke-width="0.75" stroke-linecap="square" fill="none" /><path id="1798" transform="matrix(1 0 0 -1 0 792)" d="M235.682 221.22L371.403 221.22" stroke="#000000" stroke-width="0.75" stroke-linecap="square" fill="none" /><path id="1881" transform="matrix(1 0 0 -1 0 792)" d="M371.403 258.37L371.403 221.22" stroke="#000000" stroke-width="0.75" stroke-linecap="square" fill="none" /><path id="1882" transform="matrix(1 0 0 -1 0 792)" d="M371.403 258.37L503.908 258.37L503.908 258.37L503.908 221.22" stroke="#000000" stroke-width="0.75" stroke-linecap="square" fill="none" /><path id="1883" transform="matrix(1 0 0 -1 0 792)" d="M371.403 221.22L503.908 221.22" stroke="#000000" stroke-width="0.75" stroke-linecap="square" fill="none" /><path id="1927" transform="matrix(1 0 0 -1 0 792)" d="M503.908 257.62L503.908 221.97" stroke="#000000" stroke-width="0.75" stroke-linecap="square" fill="none" /><path id="1928" transform="matrix(1 0 0 -1 0 792)" d="M108.092 221.22L108.092 194.87" stroke="#000000" stroke-width="0.75" stroke-linecap="square" fill="none" /><path id="1929" transform="matrix(1 0 0 -1 0 792)" d="M108.092 221.22L155.318 221.22L155.318 221.22L155.318 194.87" stroke="#000000" stroke-width="0.75" stroke-linecap="square" fill="none" /><path id="1930" transform="matrix(1 0 0 -1 0 792)" d="M108.092 194.87L155.318 194.87" stroke="#000000" stroke-width="0.75" stroke-linecap="square" fill="none" /><path id="1935" transform="matrix(1 0 0 -1 0 792)" d="M108.092 220.47L108.092 195.62" stroke="#000000" stroke-width="0.75" stroke-linecap="square" fill="none" /><path id="1936" transform="matrix(1 0 0 -1 0 792)" d="M155.318 221.22L155.318 194.87" stroke="#000000" stroke-width="0.75" stroke-linecap="square" fill="none" /><path id="1937" transform="matrix(1 0 0 -1 0 792)" d="M155.318 221.22L235.682 221.22L235.682 221.22L235.682 194.87" stroke="#000000" stroke-width="0.75" stroke-linecap="square" fill="none" /><path id="1938" transform="matrix(1 0 0 -1 0 792)" d="M155.318 194.87L235.682 194.87" stroke="#000000" stroke-width="0.75" stroke-linecap="square" fill="none" /><path id="1941" transform="matrix(1 0 0 -1 0 792)" d="M235.682 221.22L235.682 194.87" stroke="#000000" stroke-width="0.75" stroke-linecap="square" fill="none" /><path id="1942" transform="matrix(1 0 0 -1 0 792)" d="M235.682 221.22L371.403 221.22L371.403 221.22L371.403 194.87" stroke="#000000" stroke-width="0.75" stroke-linecap="square" fill="none" /><path id="1943" transform="matrix(1 0 0 -1 0 792)" d="M235.682 194.87L371.403 194.87" stroke="#000000" stroke-width="0.75" stroke-linecap="square" fill="none" /><path id="1995" transform="matrix(1 0 0 -1 0 792)" d="M371.403 221.22L371.403 194.87" stroke="#000000" stroke-width="0.75" stroke-linecap="square" fill="none" /><path id="1996" transform="matrix(1 0 0 -1 0 792)" d="M371.403 221.22L503.908 221.22L503.908 221.22L503.908 194.87" stroke="#000000" stroke-width="0.75" stroke-linecap="square" fill="none" /><path id="1997" transform="matrix(1 0 0 -1 0 792)" d="M371.403 194.87L503.908 194.87" stroke="#000000" stroke-width="0.75" stroke-linecap="square" fill="none" /><path id="2010" transform="matrix(1 0 0 -1 0 792)" d="M503.908 220.47L503.908 195.62" stroke="#000000" stroke-width="0.75" stroke-linecap="square" fill="none" /><path id="2011" transform="matrix(1 0 0 -1 0 792)" d="M108.092 194.87L108.092 168.52" stroke="#000000" stroke-width="0.75" stroke-linecap="square" fill="none" /><path id="2012" transform="matrix(1 0 0 -1 0 792)" d="M108.092 194.87L155.318 194.87L155.318 194.87L155.318 168.52" stroke="#000000" stroke-width="0.75" stroke-linecap="square" fill="none" /><path id="2013" transform="matrix(1 0 0 -1 0 792)" d="M108.092 168.52L155.318 168.52" stroke="#000000" stroke-width="0.75" stroke-linecap="square" fill="none" /><path id="2018" transform="matrix(1 0 0 -1 0 792)" d="M108.092 194.12L108.092 169.27" stroke="#000000" stroke-width="0.75" stroke-linecap="square" fill="none" /><path id="2019" transform="matrix(1 0 0 -1 0 792)" d="M155.318 194.87L155.318 168.52" stroke="#000000" stroke-width="0.75" stroke-linecap="square" fill="none" /><path id="2020" transform="matrix(1 0 0 -1 0 792)" d="M155.318 194.87L235.682 194.87L235.682 194.87L235.682 168.52" stroke="#000000" stroke-width="0.75" stroke-linecap="square" fill="none" /><path id="2021" transform="matrix(1 0 0 -1 0 792)" d="M155.318 168.52L235.682 168.52" stroke="#000000" stroke-width="0.75" stroke-linecap="square" fill="none" /><path id="2040" transform="matrix(1 0 0 -1 0 792)" d="M235.682 194.87L235.682 168.52" stroke="#000000" stroke-width="0.75" stroke-linecap="square" fill="none" /><path id="2041" transform="matrix(1 0 0 -1 0 792)" d="M235.682 194.87L371.403 194.87L371.403 194.87L371.403 168.52" stroke="#000000" stroke-width="0.75" stroke-linecap="square" fill="none" /><path id="2042" transform="matrix(1 0 0 -1 0 792)" d="M235.682 168.52L371.403 168.52" stroke="#000000" stroke-width="0.75" stroke-linecap="square" fill="none" /><path id="2085" transform="matrix(1 0 0 -1 0 792)" d="M371.403 194.87L371.403 168.52" stroke="#000000" stroke-width="0.75" stroke-linecap="square" fill="none" /><path id="2086" transform="matrix(1 0 0 -1 0 792)" d="M371.403 194.87L503.908 194.87L503.908 194.87L503.908 168.52" stroke="#000000" stroke-width="0.75" stroke-linecap="square" fill="none" /><path id="2087" transform="matrix(1 0 0 -1 0 792)" d="M371.403 168.52L503.908 168.52" stroke="#000000" stroke-width="0.75" stroke-linecap="square" fill="none" /><path id="2122" transform="matrix(1 0 0 -1 0 792)" d="M503.908 194.12L503.908 169.27" stroke="#000000" stroke-width="0.75" stroke-linecap="square" fill="none" /></g></g></svg>