<svg xmlns="http://www.w3.org/2000/svg" xmlns:xlink="http://www.w3.org/1999/xlink" id="body_14" preserveAspectRatio="xMinYMin meet" viewBox="0 0 816 1056"><defs><clipPath id="1"><path id="" clip-rule="evenodd" transform="matrix(1 0 0 1 0 0)" d="M0 792L0 0L0 0L612 0L612 0L612 792L612 792L0 792z" /></clipPath></defs><g transform="matrix(1.333333 0 0 1.333333 0 0)"><g clip-path="url(#1)"><path id="601" transform="matrix(1 0 0 -1 0 792)" d="M108.092 467.89L108.092 451.84" stroke="#000000" stroke-width="0.75" stroke-linecap="square" fill="none" /><path id="602" transform="matrix(1 0 0 -1 0 792)" d="M108.092 467.89L242.368 467.89L242.368 467.89L242.368 451.84" stroke="#000000" stroke-width="0.75" stroke-linecap="square" fill="none" /><path id="603" transform="matrix(1 0 0 -1 0 792)" d="M108.092 451.84L242.368 451.84" stroke="#000000" stroke-width="0.75" stroke-linecap="square" fill="none" /><path id="610" transform="matrix(1 0 0 -1 0 792)" d="M108.092 467.89L108.092 452.59" stroke="#000000" stroke-width="0.75" stroke-linecap="square" fill="none" /><path id="611" transform="matrix(1 0 0 -1 0 792)" d="M108.092 467.89L241.618 467.89" stroke="#000000" stroke-width="0.75" stroke-linecap="square" fill="none" /><path id="612" transform="matrix(1 0 0 -1 0 792)" d="M242.368 467.89L242.368 451.84" stroke="#000000" stroke-width="0.75" stroke-linecap="square" fill="none" /><path id="613" transform="matrix(1 0 0 -1 0 792)" d="M242.368 467.89L290.55 467.89L290.55 467.89L290.55 451.84" stroke="#000000" stroke-width="0.75" stroke-linecap="square" fill="none" /><path id="614" transform="matrix(1 0 0 -1 0 792)" d="M242.368 451.84L290.55 451.84" stroke="#000000" stroke-width="0.75" stroke-linecap="square" fill="none" /><path id="619" transform="matrix(1 0 0 -1 0 792)" d="M243.118 467.89L289.8 467.89" stroke="#000000" stroke-width="0.75" stroke-linecap="square" fill="none" /><path id="620" transform="matrix(1 0 0 -1 0 792)" d="M290.55 467.89L290.55 451.84" stroke="#000000" stroke-width="0.75" stroke-linecap="square" fill="none" /><path id="621" transform="matrix(1 0 0 -1 0 792)" d="M290.55 467.89L503.908 467.89L503.908 467.89L503.908 451.84" stroke="#000000" stroke-width="0.75" stroke-linecap="square" fill="none" /><path id="622" transform="matrix(1 0 0 -1 0 792)" d="M290.55 451.84L503.908 451.84" stroke="#000000" stroke-width="0.75" stroke-linecap="square" fill="none" /><path id="634" transform="matrix(1 0 0 -1 0 792)" d="M291.3 467.89L503.908 467.89L503.908 467.89L503.908 452.59" stroke="#000000" stroke-width="0.75" stroke-linecap="square" fill="none" /><path id="635" transform="matrix(1 0 0 -1 0 792)" d="M108.092 451.84L108.092 436.29" stroke="#000000" stroke-width="0.75" stroke-linecap="square" fill="none" /><path id="636" transform="matrix(1 0 0 -1 0 792)" d="M108.092 451.84L242.368 451.84L242.368 451.84L242.368 436.29" stroke="#000000" stroke-width="0.75" stroke-linecap="square" fill="none" /><path id="637" transform="matrix(1 0 0 -1 0 792)" d="M108.092 436.29L242.368 436.29" stroke="#000000" stroke-width="0.75" stroke-linecap="square" fill="none" /><path id="651" transform="matrix(1 0 0 -1 0 792)" d="M108.092 451.09L108.092 437.04" stroke="#000000" stroke-width="0.75" stroke-linecap="square" fill="none" /><path id="652" transform="matrix(1 0 0 -1 0 792)" d="M242.368 451.84L242.368 436.29" stroke="#000000" stroke-width="0.75" stroke-linecap="square" fill="none" /><path id="653" transform="matrix(1 0 0 -1 0 792)" d="M242.368 451.84L290.55 451.84L290.55 451.84L290.55 436.29" stroke="#000000" stroke-width="0.75" stroke-linecap="square" fill="none" /><path id="654" transform="matrix(1 0 0 -1 0 792)" d="M242.368 436.29L290.55 436.29" stroke="#000000" stroke-width="0.75" stroke-linecap="square" fill="none" /><path id="659" transform="matrix(1 0 0 -1 0 792)" d="M290.55 451.84L290.55 436.29" stroke="#000000" stroke-width="0.75" stroke-linecap="square" fill="none" /><path id="660" transform="matrix(1 0 0 -1 0 792)" d="M290.55 451.84L503.908 451.84L503.908 451.84L503.908 436.29" stroke="#000000" stroke-width="0.75" stroke-linecap="square" fill="none" /><path id="661" transform="matrix(1 0 0 -1 0 792)" d="M290.55 436.29L503.908 436.29" stroke="#000000" stroke-width="0.75" stroke-linecap="square" fill="none" /><path id="687" transform="matrix(1 0 0 -1 0 792)" d="M503.908 451.09L503.908 437.04" stroke="#000000" stroke-width="0.75" stroke-linecap="square" fill="none" /><path id="688" transform="matrix(1 0 0 -1 0 792)" d="M108.092 436.29L108.092 420.74" stroke="#000000" stroke-width="0.75" stroke-linecap="square" fill="none" /><path id="689" transform="matrix(1 0 0 -1 0 792)" d="M108.092 436.29L242.368 436.29L242.368 436.29L242.368 420.74" stroke="#000000" stroke-width="0.75" stroke-linecap="square" fill="none" /><path id="690" transform="matrix(1 0 0 -1 0 792)" d="M108.092 420.74L242.368 420.74" stroke="#000000" stroke-width="0.75" stroke-linecap="square" fill="none" /><path id="703" transform="matrix(1 0 0 -1 0 792)" d="M108.092 435.54L108.092 421.49" stroke="#000000" stroke-width="0.75" stroke-linecap="square" fill="none" /><path id="704" transform="matrix(1 0 0 -1 0 792)" d="M242.368 436.29L242.368 420.74" stroke="#000000" stroke-width="0.75" stroke-linecap="square" fill="none" /><path id="705" transform="matrix(1 0 0 -1 0 792)" d="M242.368 436.29L290.55 436.29L290.55 436.29L290.55 420.74" stroke="#000000" stroke-width="0.75" stroke-linecap="square" fill="none" /><path id="706" transform="matrix(1 0 0 -1 0 792)" d="M242.368 420.74L290.55 420.74" stroke="#000000" stroke-width="0.75" stroke-linecap="square" fill="none" /><path id="711" transform="matrix(1 0 0 -1 0 792)" d="M290.55 436.29L290.55 420.74" stroke="#000000" stroke-width="0.75" stroke-linecap="square" fill="none" /><path id="712" transform="matrix(1 0 0 -1 0 792)" d="M290.55 436.29L503.908 436.29L503.908 436.29L503.908 420.74" stroke="#000000" stroke-width="0.75" stroke-linecap="square" fill="none" /><path id="713" transform="matrix(1 0 0 -1 0 792)" d="M290.55 420.74L503.908 420.74" stroke="#000000" stroke-width="0.75" stroke-linecap="square" fill="none" /><path id="727" transform="matrix(1 0 0 -1 0 792)" d="M503.908 435.54L503.908 421.49" stroke="#000000" stroke-width="0.75" stroke-linecap="square" fill="none" /><path id="728" transform="matrix(1 0 0 -1 0 792)" d="M108.092 420.74L108.092 405.19" stroke="#000000" stroke-width="0.75" stroke-linecap="square" fill="none" /><path id="729" transform="matrix(1 0 0 -1 0 792)" d="M108.092 420.74L242.368 420.74L242.368 420.74L242.368 405.19" stroke="#000000" stroke-width="0.75" stroke-linecap="square" fill="none" /><path id="730" transform="matrix(1 0 0 -1 0 792)" d="M108.092 405.19L242.368 405.19" stroke="#000000" stroke-width="0.75" stroke-linecap="square" fill="none" /><path id="747" transform="matrix(1 0 0 -1 0 792)" d="M108.092 419.99L108.092 405.94" stroke="#000000" stroke-width="0.75" stroke-linecap="square" fill="none" /><path id="748" transform="matrix(1 0 0 -1 0 792)" d="M242.368 420.74L242.368 405.19" stroke="#000000" stroke-width="0.75" stroke-linecap="square" fill="none" /><path id="749" transform="matrix(1 0 0 -1 0 792)" d="M242.368 420.74L290.55 420.74L290.55 420.74L290.55 405.19" stroke="#000000" stroke-width="0.75" stroke-linecap="square" fill="none" /><path id="750" transform="matrix(1 0 0 -1 0 792)" d="M242.368 405.19L290.55 405.19" stroke="#000000" stroke-width="0.75" stroke-linecap="square" fill="none" /><path id="755" transform="matrix(1 0 0 -1 0 792)" d="M290.55 420.74L290.55 405.19" stroke="#000000" stroke-width="0.75" stroke-linecap="square" fill="none" /><path id="756" transform="matrix(1 0 0 -1 0 792)" d="M290.55 420.74L503.908 420.74L503.908 420.74L503.908 405.19" stroke="#000000" stroke-width="0.75" stroke-linecap="square" fill="none" /><path id="757" transform="matrix(1 0 0 -1 0 792)" d="M290.55 405.19L503.908 405.19" stroke="#000000" stroke-width="0.75" stroke-linecap="square" fill="none" /><path id="785" transform="matrix(1 0 0 -1 0 792)" d="M503.908 419.99L503.908 405.94" stroke="#000000" stroke-width="0.75" stroke-linecap="square" fill="none" /><path id="786" transform="matrix(1 0 0 -1 0 792)" d="M108.092 405.19L108.092 389.64" stroke="#000000" stroke-width="0.75" stroke-linecap="square" fill="none" /><path id="787" transform="matrix(1 0 0 -1 0 792)" d="M108.092 405.19L242.368 405.19L242.368 405.19L242.368 389.64" stroke="#000000" stroke-width="0.75" stroke-linecap="square" fill="none" /><path id="788" transform="matrix(1 0 0 -1 0 792)" d="M108.092 389.64L242.368 389.64" stroke="#000000" stroke-width="0.75" stroke-linecap="square" fill="none" /><path id="804" transform="matrix(1 0 0 -1 0 792)" d="M108.092 404.44L108.092 390.39" stroke="#000000" stroke-width="0.75" stroke-linecap="square" fill="none" /><path id="805" transform="matrix(1 0 0 -1 0 792)" d="M242.368 405.19L242.368 389.64" stroke="#000000" stroke-width="0.75" stroke-linecap="square" fill="none" /><path id="806" transform="matrix(1 0 0 -1 0 792)" d="M242.368 405.19L290.55 405.19L290.55 405.19L290.55 389.64" stroke="#000000" stroke-width="0.75" stroke-linecap="square" fill="none" /><path id="807" transform="matrix(1 0 0 -1 0 792)" d="M242.368 389.64L290.55 389.64" stroke="#000000" stroke-width="0.75" stroke-linecap="square" fill="none" /><path id="812" transform="matrix(1 0 0 -1 0 792)" d="M290.55 405.19L290.55 389.64" stroke="#000000" stroke-width="0.75" stroke-linecap="square" fill="none" /><path id="813" transform="matrix(1 0 0 -1 0 792)" d="M290.55 405.19L503.908 405.19L503.908 405.19L503.908 389.64" stroke="#000000" stroke-width="0.75" stroke-linecap="square" fill="none" /><path id="814" transform="matrix(1 0 0 -1 0 792)" d="M290.55 389.64L503.908 389.64" stroke="#000000" stroke-width="0.75" stroke-linecap="square" fill="none" /><path id="838" transform="matrix(1 0 0 -1 0 792)" d="M503.908 404.44L503.908 390.39" stroke="#000000" stroke-width="0.75" stroke-linecap="square" fill="none" /><path id="839" transform="matrix(1 0 0 -1 0 792)" d="M108.092 389.64L108.092 374.09" stroke="#000000" stroke-width="0.75" stroke-linecap="square" fill="none" /><path id="840" transform="matrix(1 0 0 -1 0 792)" d="M108.092 389.64L242.368 389.64L242.368 389.64L242.368 374.09" stroke="#000000" stroke-width="0.75" stroke-linecap="square" fill="none" /><path id="841" transform="matrix(1 0 0 -1 0 792)" d="M108.092 374.09L242.368 374.09" stroke="#000000" stroke-width="0.75" stroke-linecap="square" fill="none" /><path id="858" transform="matrix(1 0 0 -1 0 792)" d="M108.092 388.89L108.092 374.09L108.092 374.09L241.618 374.09" stroke="#000000" stroke-width="0.75" stroke-linecap="square" fill="none" /><path id="859" transform="matrix(1 0 0 -1 0 792)" d="M242.368 389.64L242.368 374.09" stroke="#000000" stroke-width="0.75" stroke-linecap="square" fill="none" /><path id="860" transform="matrix(1 0 0 -1 0 792)" d="M242.368 389.64L290.55 389.64L290.55 389.64L290.55 374.09" stroke="#000000" stroke-width="0.75" stroke-linecap="square" fill="none" /><path id="861" transform="matrix(1 0 0 -1 0 792)" d="M242.368 374.09L290.55 374.09" stroke="#000000" stroke-width="0.75" stroke-linecap="square" fill="none" /><path id="866" transform="matrix(1 0 0 -1 0 792)" d="M243.118 374.09L289.8 374.09" stroke="#000000" stroke-width="0.75" stroke-linecap="square" fill="none" /><path id="867" transform="matrix(1 0 0 -1 0 792)" d="M290.55 389.64L290.55 374.09" stroke="#000000" stroke-width="0.75" stroke-linecap="square" fill="none" /><path id="868" transform="matrix(1 0 0 -1 0 792)" d="M290.55 389.64L503.908 389.64L503.908 389.64L503.908 374.09" stroke="#000000" stroke-width="0.75" stroke-linecap="square" fill="none" /><path id="869" transform="matrix(1 0 0 -1 0 792)" d="M290.55 374.09L503.908 374.09" stroke="#000000" stroke-width="0.75" stroke-linecap="square" fill="none" /><path id="880" transform="matrix(1 0 0 -1 0 792)" d="M503.908 388.89L503.908 374.09" stroke="#000000" stroke-width="0.75" stroke-linecap="square" fill="none" /><path id="881" transform="matrix(1 0 0 -1 0 792)" d="M291.3 374.09L503.908 374.09" stroke="#000000" stroke-width="0.75" stroke-linecap="square" fill="none" /></g></g></svg>