<svg xmlns="http://www.w3.org/2000/svg" xmlns:xlink="http://www.w3.org/1999/xlink" id="body_54" preserveAspectRatio="xMinYMin meet" viewBox="0 0 816 1056"><defs><clipPath id="1"><path id="" clip-rule="evenodd" transform="matrix(1 0 0 1 0 0)" d="M0 792L0 0L0 0L612 0L612 0L612 792L612 792L0 792z" /></clipPath></defs><g transform="matrix(1.333333 0 0 1.333333 0 0)"><g clip-path="url(#1)"><path id="1662" transform="matrix(1 0 0 -1 0 792)" d="M108.092 289.02L108.092 272.97" stroke="#000000" stroke-width="0.75" stroke-linecap="square" fill="none" /><path id="1663" transform="matrix(1 0 0 -1 0 792)" d="M108.092 289.02L133.311 289.02L133.311 289.02L133.311 272.97" stroke="#000000" stroke-width="0.75" stroke-linecap="square" fill="none" /><path id="1664" transform="matrix(1 0 0 -1 0 792)" d="M108.092 272.97L133.311 272.97" stroke="#000000" stroke-width="0.75" stroke-linecap="square" fill="none" /><path id="1670" transform="matrix(1 0 0 -1 0 792)" d="M108.092 289.02L108.092 273.72" stroke="#000000" stroke-width="0.75" stroke-linecap="square" fill="none" /><path id="1671" transform="matrix(1 0 0 -1 0 792)" d="M108.092 289.02L132.561 289.02" stroke="#000000" stroke-width="0.75" stroke-linecap="square" fill="none" /><path id="1672" transform="matrix(1 0 0 -1 0 792)" d="M133.311 289.02L133.311 272.97" stroke="#000000" stroke-width="0.75" stroke-linecap="square" fill="none" /><path id="1673" transform="matrix(1 0 0 -1 0 792)" d="M133.311 289.02L188.97 289.02L188.97 289.02L188.97 272.97" stroke="#000000" stroke-width="0.75" stroke-linecap="square" fill="none" /><path id="1674" transform="matrix(1 0 0 -1 0 792)" d="M133.311 272.97L188.97 272.97" stroke="#000000" stroke-width="0.75" stroke-linecap="square" fill="none" /><path id="1681" transform="matrix(1 0 0 -1 0 792)" d="M134.061 289.02L188.22 289.02" stroke="#000000" stroke-width="0.75" stroke-linecap="square" fill="none" /><path id="1682" transform="matrix(1 0 0 -1 0 792)" d="M188.97 289.02L188.97 272.97" stroke="#000000" stroke-width="0.75" stroke-linecap="square" fill="none" /><path id="1683" transform="matrix(1 0 0 -1 0 792)" d="M188.97 289.02L259.971 289.02L259.971 289.02L259.971 272.97" stroke="#000000" stroke-width="0.75" stroke-linecap="square" fill="none" /><path id="1684" transform="matrix(1 0 0 -1 0 792)" d="M188.97 272.97L259.971 272.97" stroke="#000000" stroke-width="0.75" stroke-linecap="square" fill="none" /><path id="1696" transform="matrix(1 0 0 -1 0 792)" d="M189.72 289.02L259.221 289.02" stroke="#000000" stroke-width="0.75" stroke-linecap="square" fill="none" /><path id="1697" transform="matrix(1 0 0 -1 0 792)" d="M259.971 289.02L259.971 272.97" stroke="#000000" stroke-width="0.75" stroke-linecap="square" fill="none" /><path id="1698" transform="matrix(1 0 0 -1 0 792)" d="M259.971 289.02L372.252 289.02L372.252 289.02L372.252 272.97" stroke="#000000" stroke-width="0.75" stroke-linecap="square" fill="none" /><path id="1699" transform="matrix(1 0 0 -1 0 792)" d="M259.971 272.97L372.252 272.97" stroke="#000000" stroke-width="0.75" stroke-linecap="square" fill="none" /><path id="1706" transform="matrix(1 0 0 -1 0 792)" d="M260.721 289.02L371.502 289.02" stroke="#000000" stroke-width="0.75" stroke-linecap="square" fill="none" /><path id="1707" transform="matrix(1 0 0 -1 0 792)" d="M372.252 289.02L372.252 272.97" stroke="#000000" stroke-width="0.75" stroke-linecap="square" fill="none" /><path id="1708" transform="matrix(1 0 0 -1 0 792)" d="M372.252 289.02L440.074 289.02L440.074 289.02L440.074 272.97" stroke="#000000" stroke-width="0.75" stroke-linecap="square" fill="none" /><path id="1709" transform="matrix(1 0 0 -1 0 792)" d="M372.252 272.97L440.074 272.97" stroke="#000000" stroke-width="0.75" stroke-linecap="square" fill="none" /><path id="1719" transform="matrix(1 0 0 -1 0 792)" d="M373.002 289.02L439.324 289.02" stroke="#000000" stroke-width="0.75" stroke-linecap="square" fill="none" /><path id="1720" transform="matrix(1 0 0 -1 0 792)" d="M440.074 289.02L440.074 272.97" stroke="#000000" stroke-width="0.75" stroke-linecap="square" fill="none" /><path id="1721" transform="matrix(1 0 0 -1 0 792)" d="M440.074 289.02L503.908 289.02L503.908 289.02L503.908 272.97" stroke="#000000" stroke-width="0.75" stroke-linecap="square" fill="none" /><path id="1722" transform="matrix(1 0 0 -1 0 792)" d="M440.074 272.97L503.908 272.97" stroke="#000000" stroke-width="0.75" stroke-linecap="square" fill="none" /><path id="1735" transform="matrix(1 0 0 -1 0 792)" d="M440.824 289.02L503.908 289.02L503.908 289.02L503.908 273.72" stroke="#000000" stroke-width="0.75" stroke-linecap="square" fill="none" /><path id="1736" transform="matrix(1 0 0 -1 0 792)" d="M108.092 272.97L108.092 138.62" stroke="#000000" stroke-width="0.75" stroke-linecap="square" fill="none" /><path id="1737" transform="matrix(1 0 0 -1 0 792)" d="M108.092 272.97L133.311 272.97L133.311 272.97L133.311 138.62" stroke="#000000" stroke-width="0.75" stroke-linecap="square" fill="none" /><path id="1738" transform="matrix(1 0 0 -1 0 792)" d="M108.092 138.62L133.311 138.62" stroke="#000000" stroke-width="0.75" stroke-linecap="square" fill="none" /><path id="1743" transform="matrix(1 0 0 -1 0 792)" d="M108.092 272.22L108.092 139.37" stroke="#000000" stroke-width="0.75" stroke-linecap="square" fill="none" /><path id="1744" transform="matrix(1 0 0 -1 0 792)" d="M133.311 272.97L133.311 138.62" stroke="#000000" stroke-width="0.75" stroke-linecap="square" fill="none" /><path id="1745" transform="matrix(1 0 0 -1 0 792)" d="M133.311 272.97L188.97 272.97L188.97 272.97L188.97 138.62" stroke="#000000" stroke-width="0.75" stroke-linecap="square" fill="none" /><path id="1746" transform="matrix(1 0 0 -1 0 792)" d="M133.311 138.62L188.97 138.62" stroke="#000000" stroke-width="0.75" stroke-linecap="square" fill="none" /><path id="1761" transform="matrix(1 0 0 -1 0 792)" d="M188.97 272.97L188.97 138.62" stroke="#000000" stroke-width="0.75" stroke-linecap="square" fill="none" /><path id="1762" transform="matrix(1 0 0 -1 0 792)" d="M188.97 272.97L259.971 272.97L259.971 272.97L259.971 138.62" stroke="#000000" stroke-width="0.75" stroke-linecap="square" fill="none" /><path id="1763" transform="matrix(1 0 0 -1 0 792)" d="M188.97 138.62L259.971 138.62" stroke="#000000" stroke-width="0.75" stroke-linecap="square" fill="none" /><path id="1823" transform="matrix(1 0 0 -1 0 792)" d="M259.971 272.97L259.971 138.62" stroke="#000000" stroke-width="0.75" stroke-linecap="square" fill="none" /><path id="1824" transform="matrix(1 0 0 -1 0 792)" d="M259.971 272.97L372.252 272.97L372.252 272.97L372.252 138.62" stroke="#000000" stroke-width="0.75" stroke-linecap="square" fill="none" /><path id="1825" transform="matrix(1 0 0 -1 0 792)" d="M259.971 138.62L372.252 138.62" stroke="#000000" stroke-width="0.75" stroke-linecap="square" fill="none" /><path id="1961" transform="matrix(1 0 0 -1 0 792)" d="M372.252 272.97L372.252 138.62" stroke="#000000" stroke-width="0.75" stroke-linecap="square" fill="none" /><path id="1962" transform="matrix(1 0 0 -1 0 792)" d="M372.252 272.97L440.074 272.97L440.074 272.97L440.074 138.62" stroke="#000000" stroke-width="0.75" stroke-linecap="square" fill="none" /><path id="1963" transform="matrix(1 0 0 -1 0 792)" d="M372.252 138.62L440.074 138.62" stroke="#000000" stroke-width="0.75" stroke-linecap="square" fill="none" /><path id="2049" transform="matrix(1 0 0 -1 0 792)" d="M440.074 272.97L440.074 138.62" stroke="#000000" stroke-width="0.75" stroke-linecap="square" fill="none" /><path id="2050" transform="matrix(1 0 0 -1 0 792)" d="M440.074 272.97L503.908 272.97L503.908 272.97L503.908 138.62" stroke="#000000" stroke-width="0.75" stroke-linecap="square" fill="none" /><path id="2051" transform="matrix(1 0 0 -1 0 792)" d="M440.074 138.62L503.908 138.62" stroke="#000000" stroke-width="0.75" stroke-linecap="square" fill="none" /><path id="2195" transform="matrix(1 0 0 -1 0 792)" d="M503.908 272.22L503.908 139.37" stroke="#000000" stroke-width="0.75" stroke-linecap="square" fill="none" /></g></g></svg>