<svg xmlns="http://www.w3.org/2000/svg" xmlns:xlink="http://www.w3.org/1999/xlink" id="body_121" preserveAspectRatio="xMinYMin meet" viewBox="0 0 816 1056"><defs><clipPath id="1"><path id="" clip-rule="evenodd" transform="matrix(1 0 0 1 0 0)" d="M0 792L0 0L0 0L612 0L612 0L612 792L612 792L0 792z" /></clipPath></defs><g transform="matrix(1.333333 0 0 1.333333 0 0)"><g clip-path="url(#1)"><path id="85" transform="matrix(1 0 0 -1 0 792)" d="M108.092 672.57L108.092 656.52" stroke="#000000" stroke-width="0.75" stroke-linecap="square" fill="none" /><path id="86" transform="matrix(1 0 0 -1 0 792)" d="M108.092 672.57L151.409 672.57L151.409 672.57L151.409 656.52" stroke="#000000" stroke-width="0.75" stroke-linecap="square" fill="none" /><path id="87" transform="matrix(1 0 0 -1 0 792)" d="M108.092 656.52L151.409 656.52" stroke="#000000" stroke-width="0.75" stroke-linecap="square" fill="none" /><path id="93" transform="matrix(1 0 0 -1 0 792)" d="M108.092 672.57L108.092 657.27" stroke="#000000" stroke-width="0.75" stroke-linecap="square" fill="none" /><path id="94" transform="matrix(1 0 0 -1 0 792)" d="M108.092 672.57L150.659 672.57" stroke="#000000" stroke-width="0.75" stroke-linecap="square" fill="none" /><path id="95" transform="matrix(1 0 0 -1 0 792)" d="M151.409 672.57L151.409 656.52" stroke="#000000" stroke-width="0.75" stroke-linecap="square" fill="none" /><path id="96" transform="matrix(1 0 0 -1 0 792)" d="M151.409 672.57L425.12 672.57L425.12 672.57L425.12 656.52" stroke="#000000" stroke-width="0.75" stroke-linecap="square" fill="none" /><path id="97" transform="matrix(1 0 0 -1 0 792)" d="M151.409 656.52L425.12 656.52" stroke="#000000" stroke-width="0.75" stroke-linecap="square" fill="none" /><path id="114" transform="matrix(1 0 0 -1 0 792)" d="M152.159 672.57L424.37 672.57" stroke="#000000" stroke-width="0.75" stroke-linecap="square" fill="none" /><path id="115" transform="matrix(1 0 0 -1 0 792)" d="M425.12 672.57L425.12 656.52" stroke="#000000" stroke-width="0.75" stroke-linecap="square" fill="none" /><path id="116" transform="matrix(1 0 0 -1 0 792)" d="M425.12 672.57L503.908 672.57L503.908 672.57L503.908 656.52" stroke="#000000" stroke-width="0.75" stroke-linecap="square" fill="none" /><path id="117" transform="matrix(1 0 0 -1 0 792)" d="M425.12 656.52L503.908 656.52" stroke="#000000" stroke-width="0.75" stroke-linecap="square" fill="none" /><path id="127" transform="matrix(1 0 0 -1 0 792)" d="M425.87 672.57L503.908 672.57L503.908 672.57L503.908 657.27" stroke="#000000" stroke-width="0.75" stroke-linecap="square" fill="none" /><path id="128" transform="matrix(1 0 0 -1 0 792)" d="M108.092 656.52L108.092 640.97" stroke="#000000" stroke-width="0.75" stroke-linecap="square" fill="none" /><path id="129" transform="matrix(1 0 0 -1 0 792)" d="M108.092 656.52L151.409 656.52L151.409 656.52L151.409 640.97" stroke="#000000" stroke-width="0.75" stroke-linecap="square" fill="none" /><path id="130" transform="matrix(1 0 0 -1 0 792)" d="M108.092 640.97L151.409 640.97" stroke="#000000" stroke-width="0.75" stroke-linecap="square" fill="none" /><path id="132" transform="matrix(1 0 0 -1 0 792)" d="M108.092 655.77L108.092 641.72" stroke="#000000" stroke-width="0.75" stroke-linecap="square" fill="none" /><path id="133" transform="matrix(1 0 0 -1 0 792)" d="M151.409 656.52L151.409 640.97" stroke="#000000" stroke-width="0.75" stroke-linecap="square" fill="none" /><path id="134" transform="matrix(1 0 0 -1 0 792)" d="M151.409 656.52L425.12 656.52L425.12 656.52L425.12 640.97" stroke="#000000" stroke-width="0.75" stroke-linecap="square" fill="none" /><path id="135" transform="matrix(1 0 0 -1 0 792)" d="M151.409 640.97L425.12 640.97" stroke="#000000" stroke-width="0.75" stroke-linecap="square" fill="none" /><path id="148" transform="matrix(1 0 0 -1 0 792)" d="M425.12 656.52L425.12 640.97" stroke="#000000" stroke-width="0.75" stroke-linecap="square" fill="none" /><path id="149" transform="matrix(1 0 0 -1 0 792)" d="M425.12 656.52L503.908 656.52L503.908 656.52L503.908 640.97" stroke="#000000" stroke-width="0.75" stroke-linecap="square" fill="none" /><path id="150" transform="matrix(1 0 0 -1 0 792)" d="M425.12 640.97L503.908 640.97" stroke="#000000" stroke-width="0.75" stroke-linecap="square" fill="none" /><path id="155" transform="matrix(1 0 0 -1 0 792)" d="M503.908 655.77L503.908 641.72" stroke="#000000" stroke-width="0.75" stroke-linecap="square" fill="none" /><path id="156" transform="matrix(1 0 0 -1 0 792)" d="M108.092 640.97L108.092 625.42" stroke="#000000" stroke-width="0.75" stroke-linecap="square" fill="none" /><path id="157" transform="matrix(1 0 0 -1 0 792)" d="M108.092 640.97L151.409 640.97L151.409 640.97L151.409 625.42" stroke="#000000" stroke-width="0.75" stroke-linecap="square" fill="none" /><path id="158" transform="matrix(1 0 0 -1 0 792)" d="M108.092 625.42L151.409 625.42" stroke="#000000" stroke-width="0.75" stroke-linecap="square" fill="none" /><path id="160" transform="matrix(1 0 0 -1 0 792)" d="M108.092 640.22L108.092 626.17" stroke="#000000" stroke-width="0.75" stroke-linecap="square" fill="none" /><path id="161" transform="matrix(1 0 0 -1 0 792)" d="M151.409 640.97L151.409 625.42" stroke="#000000" stroke-width="0.75" stroke-linecap="square" fill="none" /><path id="162" transform="matrix(1 0 0 -1 0 792)" d="M151.409 640.97L425.12 640.97L425.12 640.97L425.12 625.42" stroke="#000000" stroke-width="0.75" stroke-linecap="square" fill="none" /><path id="163" transform="matrix(1 0 0 -1 0 792)" d="M151.409 625.42L425.12 625.42" stroke="#000000" stroke-width="0.75" stroke-linecap="square" fill="none" /><path id="180" transform="matrix(1 0 0 -1 0 792)" d="M425.12 640.97L425.12 625.42" stroke="#000000" stroke-width="0.75" stroke-linecap="square" fill="none" /><path id="181" transform="matrix(1 0 0 -1 0 792)" d="M425.12 640.97L503.908 640.97L503.908 640.97L503.908 625.42" stroke="#000000" stroke-width="0.75" stroke-linecap="square" fill="none" /><path id="182" transform="matrix(1 0 0 -1 0 792)" d="M425.12 625.42L503.908 625.42" stroke="#000000" stroke-width="0.75" stroke-linecap="square" fill="none" /><path id="187" transform="matrix(1 0 0 -1 0 792)" d="M503.908 640.22L503.908 626.17" stroke="#000000" stroke-width="0.75" stroke-linecap="square" fill="none" /><path id="188" transform="matrix(1 0 0 -1 0 792)" d="M108.092 625.42L108.092 609.87" stroke="#000000" stroke-width="0.75" stroke-linecap="square" fill="none" /><path id="189" transform="matrix(1 0 0 -1 0 792)" d="M108.092 625.42L151.409 625.42L151.409 625.42L151.409 609.87" stroke="#000000" stroke-width="0.75" stroke-linecap="square" fill="none" /><path id="190" transform="matrix(1 0 0 -1 0 792)" d="M108.092 609.87L151.409 609.87" stroke="#000000" stroke-width="0.75" stroke-linecap="square" fill="none" /><path id="192" transform="matrix(1 0 0 -1 0 792)" d="M108.092 624.67L108.092 609.87L108.092 609.87L150.659 609.87" stroke="#000000" stroke-width="0.75" stroke-linecap="square" fill="none" /><path id="193" transform="matrix(1 0 0 -1 0 792)" d="M151.409 625.42L151.409 609.87" stroke="#000000" stroke-width="0.75" stroke-linecap="square" fill="none" /><path id="194" transform="matrix(1 0 0 -1 0 792)" d="M151.409 625.42L425.12 625.42L425.12 625.42L425.12 609.87" stroke="#000000" stroke-width="0.75" stroke-linecap="square" fill="none" /><path id="195" transform="matrix(1 0 0 -1 0 792)" d="M151.409 609.87L425.12 609.87" stroke="#000000" stroke-width="0.75" stroke-linecap="square" fill="none" /><path id="227" transform="matrix(1 0 0 -1 0 792)" d="M152.159 609.87L424.37 609.87" stroke="#000000" stroke-width="0.75" stroke-linecap="square" fill="none" /><path id="228" transform="matrix(1 0 0 -1 0 792)" d="M425.12 625.42L425.12 609.87" stroke="#000000" stroke-width="0.75" stroke-linecap="square" fill="none" /><path id="229" transform="matrix(1 0 0 -1 0 792)" d="M425.12 625.42L503.908 625.42L503.908 625.42L503.908 609.87" stroke="#000000" stroke-width="0.75" stroke-linecap="square" fill="none" /><path id="230" transform="matrix(1 0 0 -1 0 792)" d="M425.12 609.87L503.908 609.87" stroke="#000000" stroke-width="0.75" stroke-linecap="square" fill="none" /><path id="239" transform="matrix(1 0 0 -1 0 792)" d="M503.908 624.67L503.908 609.87" stroke="#000000" stroke-width="0.75" stroke-linecap="square" fill="none" /><path id="240" transform="matrix(1 0 0 -1 0 792)" d="M425.87 609.87L503.908 609.87" stroke="#000000" stroke-width="0.75" stroke-linecap="square" fill="none" /></g></g></svg>