<svg xmlns="http://www.w3.org/2000/svg" xmlns:xlink="http://www.w3.org/1999/xlink" id="body_28" preserveAspectRatio="xMinYMin meet" viewBox="0 0 816 1056"><defs><clipPath id="1"><path id="" clip-rule="evenodd" transform="matrix(1 0 0 1 0 0)" d="M0 792L0 0L0 0L612 0L612 0L612 792L612 792L0 792z" /></clipPath></defs><g transform="matrix(1.333333 0 0 1.333333 0 0)"><g clip-path="url(#1)"><path id="105" transform="matrix(1 0 0 -1 0 792)" d="M108.092 649.02L108.092 632.97" stroke="#000000" stroke-width="0.75" stroke-linecap="square" fill="none" /><path id="106" transform="matrix(1 0 0 -1 0 792)" d="M108.092 649.02L268.627 649.02L268.627 649.02L268.627 632.97" stroke="#000000" stroke-width="0.75" stroke-linecap="square" fill="none" /><path id="107" transform="matrix(1 0 0 -1 0 792)" d="M108.092 632.97L268.627 632.97" stroke="#000000" stroke-width="0.75" stroke-linecap="square" fill="none" /><path id="116" transform="matrix(1 0 0 -1 0 792)" d="M108.092 649.02L108.092 633.72" stroke="#000000" stroke-width="0.75" stroke-linecap="square" fill="none" /><path id="117" transform="matrix(1 0 0 -1 0 792)" d="M108.092 649.02L267.877 649.02" stroke="#000000" stroke-width="0.75" stroke-linecap="square" fill="none" /><path id="118" transform="matrix(1 0 0 -1 0 792)" d="M268.627 649.02L268.627 632.97" stroke="#000000" stroke-width="0.75" stroke-linecap="square" fill="none" /><path id="119" transform="matrix(1 0 0 -1 0 792)" d="M268.627 649.02L382.844 649.02L382.844 649.02L382.844 632.97" stroke="#000000" stroke-width="0.75" stroke-linecap="square" fill="none" /><path id="120" transform="matrix(1 0 0 -1 0 792)" d="M268.627 632.97L382.844 632.97" stroke="#000000" stroke-width="0.75" stroke-linecap="square" fill="none" /><path id="134" transform="matrix(1 0 0 -1 0 792)" d="M269.377 649.02L382.094 649.02" stroke="#000000" stroke-width="0.75" stroke-linecap="square" fill="none" /><path id="135" transform="matrix(1 0 0 -1 0 792)" d="M382.844 649.02L382.844 632.97" stroke="#000000" stroke-width="0.75" stroke-linecap="square" fill="none" /><path id="136" transform="matrix(1 0 0 -1 0 792)" d="M382.844 649.02L503.908 649.02L503.908 649.02L503.908 632.97" stroke="#000000" stroke-width="0.75" stroke-linecap="square" fill="none" /><path id="137" transform="matrix(1 0 0 -1 0 792)" d="M382.844 632.97L503.908 632.97" stroke="#000000" stroke-width="0.75" stroke-linecap="square" fill="none" /><path id="152" transform="matrix(1 0 0 -1 0 792)" d="M383.594 649.02L503.908 649.02L503.908 649.02L503.908 633.72" stroke="#000000" stroke-width="0.75" stroke-linecap="square" fill="none" /><path id="153" transform="matrix(1 0 0 -1 0 792)" d="M108.092 632.97L108.092 617.42" stroke="#000000" stroke-width="0.75" stroke-linecap="square" fill="none" /><path id="154" transform="matrix(1 0 0 -1 0 792)" d="M108.092 632.97L268.627 632.97L268.627 632.97L268.627 617.42" stroke="#000000" stroke-width="0.75" stroke-linecap="square" fill="none" /><path id="155" transform="matrix(1 0 0 -1 0 792)" d="M108.092 617.42L268.627 617.42" stroke="#000000" stroke-width="0.75" stroke-linecap="square" fill="none" /><path id="170" transform="matrix(1 0 0 -1 0 792)" d="M108.092 632.22L108.092 618.17" stroke="#000000" stroke-width="0.75" stroke-linecap="square" fill="none" /><path id="171" transform="matrix(1 0 0 -1 0 792)" d="M268.627 632.97L268.627 617.42" stroke="#000000" stroke-width="0.75" stroke-linecap="square" fill="none" /><path id="172" transform="matrix(1 0 0 -1 0 792)" d="M268.627 632.97L382.844 632.97L382.844 632.97L382.844 617.42" stroke="#000000" stroke-width="0.75" stroke-linecap="square" fill="none" /><path id="173" transform="matrix(1 0 0 -1 0 792)" d="M268.627 617.42L382.844 617.42" stroke="#000000" stroke-width="0.75" stroke-linecap="square" fill="none" /><path id="180" transform="matrix(1 0 0 -1 0 792)" d="M382.844 632.97L382.844 617.42" stroke="#000000" stroke-width="0.75" stroke-linecap="square" fill="none" /><path id="181" transform="matrix(1 0 0 -1 0 792)" d="M382.844 632.97L503.908 632.97L503.908 632.97L503.908 617.42" stroke="#000000" stroke-width="0.75" stroke-linecap="square" fill="none" /><path id="182" transform="matrix(1 0 0 -1 0 792)" d="M382.844 617.42L503.908 617.42" stroke="#000000" stroke-width="0.75" stroke-linecap="square" fill="none" /><path id="187" transform="matrix(1 0 0 -1 0 792)" d="M503.908 632.22L503.908 618.17" stroke="#000000" stroke-width="0.75" stroke-linecap="square" fill="none" /><path id="188" transform="matrix(1 0 0 -1 0 792)" d="M108.092 617.42L108.092 601.87" stroke="#000000" stroke-width="0.75" stroke-linecap="square" fill="none" /><path id="189" transform="matrix(1 0 0 -1 0 792)" d="M108.092 617.42L268.627 617.42L268.627 617.42L268.627 601.87" stroke="#000000" stroke-width="0.75" stroke-linecap="square" fill="none" /><path id="190" transform="matrix(1 0 0 -1 0 792)" d="M108.092 601.87L268.627 601.87" stroke="#000000" stroke-width="0.75" stroke-linecap="square" fill="none" /><path id="204" transform="matrix(1 0 0 -1 0 792)" d="M108.092 616.67L108.092 602.62" stroke="#000000" stroke-width="0.75" stroke-linecap="square" fill="none" /><path id="205" transform="matrix(1 0 0 -1 0 792)" d="M268.627 617.42L268.627 601.87" stroke="#000000" stroke-width="0.75" stroke-linecap="square" fill="none" /><path id="206" transform="matrix(1 0 0 -1 0 792)" d="M268.627 617.42L382.844 617.42L382.844 617.42L382.844 601.87" stroke="#000000" stroke-width="0.75" stroke-linecap="square" fill="none" /><path id="207" transform="matrix(1 0 0 -1 0 792)" d="M268.627 601.87L382.844 601.87" stroke="#000000" stroke-width="0.75" stroke-linecap="square" fill="none" /><path id="211" transform="matrix(1 0 0 -1 0 792)" d="M382.844 617.42L382.844 601.87" stroke="#000000" stroke-width="0.75" stroke-linecap="square" fill="none" /><path id="212" transform="matrix(1 0 0 -1 0 792)" d="M382.844 617.42L503.908 617.42L503.908 617.42L503.908 601.87" stroke="#000000" stroke-width="0.75" stroke-linecap="square" fill="none" /><path id="213" transform="matrix(1 0 0 -1 0 792)" d="M382.844 601.87L503.908 601.87" stroke="#000000" stroke-width="0.75" stroke-linecap="square" fill="none" /><path id="218" transform="matrix(1 0 0 -1 0 792)" d="M503.908 616.67L503.908 602.62" stroke="#000000" stroke-width="0.75" stroke-linecap="square" fill="none" /><path id="219" transform="matrix(1 0 0 -1 0 792)" d="M108.092 601.87L108.092 586.32" stroke="#000000" stroke-width="0.75" stroke-linecap="square" fill="none" /><path id="220" transform="matrix(1 0 0 -1 0 792)" d="M108.092 601.87L268.627 601.87L268.627 601.87L268.627 586.32" stroke="#000000" stroke-width="0.75" stroke-linecap="square" fill="none" /><path id="221" transform="matrix(1 0 0 -1 0 792)" d="M108.092 586.32L268.627 586.32" stroke="#000000" stroke-width="0.75" stroke-linecap="square" fill="none" /><path id="240" transform="matrix(1 0 0 -1 0 792)" d="M108.092 601.12L108.092 587.07" stroke="#000000" stroke-width="0.75" stroke-linecap="square" fill="none" /><path id="241" transform="matrix(1 0 0 -1 0 792)" d="M268.627 601.87L268.627 586.32" stroke="#000000" stroke-width="0.75" stroke-linecap="square" fill="none" /><path id="242" transform="matrix(1 0 0 -1 0 792)" d="M268.627 601.87L382.844 601.87L382.844 601.87L382.844 586.32" stroke="#000000" stroke-width="0.75" stroke-linecap="square" fill="none" /><path id="243" transform="matrix(1 0 0 -1 0 792)" d="M268.627 586.32L382.844 586.32" stroke="#000000" stroke-width="0.75" stroke-linecap="square" fill="none" /><path id="251" transform="matrix(1 0 0 -1 0 792)" d="M382.844 601.87L382.844 586.32" stroke="#000000" stroke-width="0.75" stroke-linecap="square" fill="none" /><path id="252" transform="matrix(1 0 0 -1 0 792)" d="M382.844 601.87L503.908 601.87L503.908 601.87L503.908 586.32" stroke="#000000" stroke-width="0.75" stroke-linecap="square" fill="none" /><path id="253" transform="matrix(1 0 0 -1 0 792)" d="M382.844 586.32L503.908 586.32" stroke="#000000" stroke-width="0.75" stroke-linecap="square" fill="none" /><path id="263" transform="matrix(1 0 0 -1 0 792)" d="M503.908 601.12L503.908 587.07" stroke="#000000" stroke-width="0.75" stroke-linecap="square" fill="none" /><path id="264" transform="matrix(1 0 0 -1 0 792)" d="M108.092 586.32L108.092 570.77" stroke="#000000" stroke-width="0.75" stroke-linecap="square" fill="none" /><path id="265" transform="matrix(1 0 0 -1 0 792)" d="M108.092 586.32L268.627 586.32L268.627 586.32L268.627 570.77" stroke="#000000" stroke-width="0.75" stroke-linecap="square" fill="none" /><path id="266" transform="matrix(1 0 0 -1 0 792)" d="M108.092 570.77L268.627 570.77" stroke="#000000" stroke-width="0.75" stroke-linecap="square" fill="none" /><path id="278" transform="matrix(1 0 0 -1 0 792)" d="M108.092 585.57L108.092 571.52" stroke="#000000" stroke-width="0.75" stroke-linecap="square" fill="none" /><path id="279" transform="matrix(1 0 0 -1 0 792)" d="M268.627 586.32L268.627 570.77" stroke="#000000" stroke-width="0.75" stroke-linecap="square" fill="none" /><path id="280" transform="matrix(1 0 0 -1 0 792)" d="M268.627 586.32L382.844 586.32L382.844 586.32L382.844 570.77" stroke="#000000" stroke-width="0.75" stroke-linecap="square" fill="none" /><path id="281" transform="matrix(1 0 0 -1 0 792)" d="M268.627 570.77L382.844 570.77" stroke="#000000" stroke-width="0.75" stroke-linecap="square" fill="none" /><path id="285" transform="matrix(1 0 0 -1 0 792)" d="M382.844 586.32L382.844 570.77" stroke="#000000" stroke-width="0.75" stroke-linecap="square" fill="none" /><path id="286" transform="matrix(1 0 0 -1 0 792)" d="M382.844 586.32L503.908 586.32L503.908 586.32L503.908 570.77" stroke="#000000" stroke-width="0.75" stroke-linecap="square" fill="none" /><path id="287" transform="matrix(1 0 0 -1 0 792)" d="M382.844 570.77L503.908 570.77" stroke="#000000" stroke-width="0.75" stroke-linecap="square" fill="none" /><path id="292" transform="matrix(1 0 0 -1 0 792)" d="M503.908 585.57L503.908 571.52" stroke="#000000" stroke-width="0.75" stroke-linecap="square" fill="none" /><path id="293" transform="matrix(1 0 0 -1 0 792)" d="M108.092 570.77L108.092 555.22" stroke="#000000" stroke-width="0.75" stroke-linecap="square" fill="none" /><path id="294" transform="matrix(1 0 0 -1 0 792)" d="M108.092 570.77L268.627 570.77L268.627 570.77L268.627 555.22" stroke="#000000" stroke-width="0.75" stroke-linecap="square" fill="none" /><path id="295" transform="matrix(1 0 0 -1 0 792)" d="M108.092 555.22L268.627 555.22" stroke="#000000" stroke-width="0.75" stroke-linecap="square" fill="none" /><path id="304" transform="matrix(1 0 0 -1 0 792)" d="M108.092 570.02L108.092 555.97" stroke="#000000" stroke-width="0.75" stroke-linecap="square" fill="none" /><path id="305" transform="matrix(1 0 0 -1 0 792)" d="M268.627 570.77L268.627 555.22" stroke="#000000" stroke-width="0.75" stroke-linecap="square" fill="none" /><path id="306" transform="matrix(1 0 0 -1 0 792)" d="M268.627 570.77L382.844 570.77L382.844 570.77L382.844 555.22" stroke="#000000" stroke-width="0.75" stroke-linecap="square" fill="none" /><path id="307" transform="matrix(1 0 0 -1 0 792)" d="M268.627 555.22L382.844 555.22" stroke="#000000" stroke-width="0.75" stroke-linecap="square" fill="none" /><path id="312" transform="matrix(1 0 0 -1 0 792)" d="M382.844 570.77L382.844 555.22" stroke="#000000" stroke-width="0.75" stroke-linecap="square" fill="none" /><path id="313" transform="matrix(1 0 0 -1 0 792)" d="M382.844 570.77L503.908 570.77L503.908 570.77L503.908 555.22" stroke="#000000" stroke-width="0.75" stroke-linecap="square" fill="none" /><path id="314" transform="matrix(1 0 0 -1 0 792)" d="M382.844 555.22L503.908 555.22" stroke="#000000" stroke-width="0.75" stroke-linecap="square" fill="none" /><path id="319" transform="matrix(1 0 0 -1 0 792)" d="M503.908 570.02L503.908 555.97" stroke="#000000" stroke-width="0.75" stroke-linecap="square" fill="none" /><path id="320" transform="matrix(1 0 0 -1 0 792)" d="M108.092 555.22L108.092 539.67" stroke="#000000" stroke-width="0.75" stroke-linecap="square" fill="none" /><path id="321" transform="matrix(1 0 0 -1 0 792)" d="M108.092 555.22L268.627 555.22L268.627 555.22L268.627 539.67" stroke="#000000" stroke-width="0.75" stroke-linecap="square" fill="none" /><path id="322" transform="matrix(1 0 0 -1 0 792)" d="M108.092 539.67L268.627 539.67" stroke="#000000" stroke-width="0.75" stroke-linecap="square" fill="none" /><path id="332" transform="matrix(1 0 0 -1 0 792)" d="M108.092 554.47L108.092 540.42" stroke="#000000" stroke-width="0.75" stroke-linecap="square" fill="none" /><path id="333" transform="matrix(1 0 0 -1 0 792)" d="M268.627 555.22L268.627 539.67" stroke="#000000" stroke-width="0.75" stroke-linecap="square" fill="none" /><path id="334" transform="matrix(1 0 0 -1 0 792)" d="M268.627 555.22L382.844 555.22L382.844 555.22L382.844 539.67" stroke="#000000" stroke-width="0.75" stroke-linecap="square" fill="none" /><path id="335" transform="matrix(1 0 0 -1 0 792)" d="M268.627 539.67L382.844 539.67" stroke="#000000" stroke-width="0.75" stroke-linecap="square" fill="none" /><path id="342" transform="matrix(1 0 0 -1 0 792)" d="M382.844 555.22L382.844 539.67" stroke="#000000" stroke-width="0.75" stroke-linecap="square" fill="none" /><path id="343" transform="matrix(1 0 0 -1 0 792)" d="M382.844 555.22L503.908 555.22L503.908 555.22L503.908 539.67" stroke="#000000" stroke-width="0.75" stroke-linecap="square" fill="none" /><path id="344" transform="matrix(1 0 0 -1 0 792)" d="M382.844 539.67L503.908 539.67" stroke="#000000" stroke-width="0.75" stroke-linecap="square" fill="none" /><path id="349" transform="matrix(1 0 0 -1 0 792)" d="M503.908 554.47L503.908 540.42" stroke="#000000" stroke-width="0.75" stroke-linecap="square" fill="none" /><path id="350" transform="matrix(1 0 0 -1 0 792)" d="M108.092 539.67L108.092 524.12" stroke="#000000" stroke-width="0.75" stroke-linecap="square" fill="none" /><path id="351" transform="matrix(1 0 0 -1 0 792)" d="M108.092 539.67L268.627 539.67L268.627 539.67L268.627 524.12" stroke="#000000" stroke-width="0.75" stroke-linecap="square" fill="none" /><path id="352" transform="matrix(1 0 0 -1 0 792)" d="M108.092 524.12L268.627 524.12" stroke="#000000" stroke-width="0.75" stroke-linecap="square" fill="none" /><path id="360" transform="matrix(1 0 0 -1 0 792)" d="M108.092 538.92L108.092 524.87" stroke="#000000" stroke-width="0.75" stroke-linecap="square" fill="none" /><path id="361" transform="matrix(1 0 0 -1 0 792)" d="M268.627 539.67L268.627 524.12" stroke="#000000" stroke-width="0.75" stroke-linecap="square" fill="none" /><path id="362" transform="matrix(1 0 0 -1 0 792)" d="M268.627 539.67L382.844 539.67L382.844 539.67L382.844 524.12" stroke="#000000" stroke-width="0.75" stroke-linecap="square" fill="none" /><path id="363" transform="matrix(1 0 0 -1 0 792)" d="M268.627 524.12L382.844 524.12" stroke="#000000" stroke-width="0.75" stroke-linecap="square" fill="none" /><path id="368" transform="matrix(1 0 0 -1 0 792)" d="M382.844 539.67L382.844 524.12" stroke="#000000" stroke-width="0.75" stroke-linecap="square" fill="none" /><path id="369" transform="matrix(1 0 0 -1 0 792)" d="M382.844 539.67L503.908 539.67L503.908 539.67L503.908 524.12" stroke="#000000" stroke-width="0.75" stroke-linecap="square" fill="none" /><path id="370" transform="matrix(1 0 0 -1 0 792)" d="M382.844 524.12L503.908 524.12" stroke="#000000" stroke-width="0.75" stroke-linecap="square" fill="none" /><path id="375" transform="matrix(1 0 0 -1 0 792)" d="M503.908 538.92L503.908 524.87" stroke="#000000" stroke-width="0.75" stroke-linecap="square" fill="none" /><path id="376" transform="matrix(1 0 0 -1 0 792)" d="M108.092 524.12L108.092 508.57" stroke="#000000" stroke-width="0.75" stroke-linecap="square" fill="none" /><path id="377" transform="matrix(1 0 0 -1 0 792)" d="M108.092 524.12L268.627 524.12L268.627 524.12L268.627 508.57" stroke="#000000" stroke-width="0.75" stroke-linecap="square" fill="none" /><path id="378" transform="matrix(1 0 0 -1 0 792)" d="M108.092 508.57L268.627 508.57" stroke="#000000" stroke-width="0.75" stroke-linecap="square" fill="none" /><path id="393" transform="matrix(1 0 0 -1 0 792)" d="M108.092 523.37L108.092 509.32" stroke="#000000" stroke-width="0.75" stroke-linecap="square" fill="none" /><path id="394" transform="matrix(1 0 0 -1 0 792)" d="M268.627 524.12L268.627 508.57" stroke="#000000" stroke-width="0.75" stroke-linecap="square" fill="none" /><path id="395" transform="matrix(1 0 0 -1 0 792)" d="M268.627 524.12L382.844 524.12L382.844 524.12L382.844 508.57" stroke="#000000" stroke-width="0.75" stroke-linecap="square" fill="none" /><path id="396" transform="matrix(1 0 0 -1 0 792)" d="M268.627 508.57L382.844 508.57" stroke="#000000" stroke-width="0.75" stroke-linecap="square" fill="none" /><path id="401" transform="matrix(1 0 0 -1 0 792)" d="M382.844 524.12L382.844 508.57" stroke="#000000" stroke-width="0.75" stroke-linecap="square" fill="none" /><path id="402" transform="matrix(1 0 0 -1 0 792)" d="M382.844 524.12L503.908 524.12L503.908 524.12L503.908 508.57" stroke="#000000" stroke-width="0.75" stroke-linecap="square" fill="none" /><path id="403" transform="matrix(1 0 0 -1 0 792)" d="M382.844 508.57L503.908 508.57" stroke="#000000" stroke-width="0.75" stroke-linecap="square" fill="none" /><path id="408" transform="matrix(1 0 0 -1 0 792)" d="M503.908 523.37L503.908 509.32" stroke="#000000" stroke-width="0.75" stroke-linecap="square" fill="none" /><path id="409" transform="matrix(1 0 0 -1 0 792)" d="M108.092 508.57L108.092 493.02" stroke="#000000" stroke-width="0.75" stroke-linecap="square" fill="none" /><path id="410" transform="matrix(1 0 0 -1 0 792)" d="M108.092 508.57L268.627 508.57L268.627 508.57L268.627 493.02" stroke="#000000" stroke-width="0.75" stroke-linecap="square" fill="none" /><path id="411" transform="matrix(1 0 0 -1 0 792)" d="M108.092 493.02L268.627 493.02" stroke="#000000" stroke-width="0.75" stroke-linecap="square" fill="none" /><path id="429" transform="matrix(1 0 0 -1 0 792)" d="M108.092 507.82L108.092 493.77" stroke="#000000" stroke-width="0.75" stroke-linecap="square" fill="none" /><path id="430" transform="matrix(1 0 0 -1 0 792)" d="M268.627 508.57L268.627 493.02" stroke="#000000" stroke-width="0.75" stroke-linecap="square" fill="none" /><path id="431" transform="matrix(1 0 0 -1 0 792)" d="M268.627 508.57L382.844 508.57L382.844 508.57L382.844 493.02" stroke="#000000" stroke-width="0.75" stroke-linecap="square" fill="none" /><path id="432" transform="matrix(1 0 0 -1 0 792)" d="M268.627 493.02L382.844 493.02" stroke="#000000" stroke-width="0.75" stroke-linecap="square" fill="none" /><path id="436" transform="matrix(1 0 0 -1 0 792)" d="M382.844 508.57L382.844 493.02" stroke="#000000" stroke-width="0.75" stroke-linecap="square" fill="none" /><path id="437" transform="matrix(1 0 0 -1 0 792)" d="M382.844 508.57L503.908 508.57L503.908 508.57L503.908 493.02" stroke="#000000" stroke-width="0.75" stroke-linecap="square" fill="none" /><path id="438" transform="matrix(1 0 0 -1 0 792)" d="M382.844 493.02L503.908 493.02" stroke="#000000" stroke-width="0.75" stroke-linecap="square" fill="none" /><path id="443" transform="matrix(1 0 0 -1 0 792)" d="M503.908 507.82L503.908 493.77" stroke="#000000" stroke-width="0.75" stroke-linecap="square" fill="none" /><path id="444" transform="matrix(1 0 0 -1 0 792)" d="M108.092 493.02L108.092 477.47" stroke="#000000" stroke-width="0.75" stroke-linecap="square" fill="none" /><path id="445" transform="matrix(1 0 0 -1 0 792)" d="M108.092 493.02L268.627 493.02L268.627 493.02L268.627 477.47" stroke="#000000" stroke-width="0.75" stroke-linecap="square" fill="none" /><path id="446" transform="matrix(1 0 0 -1 0 792)" d="M108.092 477.47L268.627 477.47" stroke="#000000" stroke-width="0.75" stroke-linecap="square" fill="none" /><path id="460" transform="matrix(1 0 0 -1 0 792)" d="M108.092 492.27L108.092 478.22" stroke="#000000" stroke-width="0.75" stroke-linecap="square" fill="none" /><path id="461" transform="matrix(1 0 0 -1 0 792)" d="M268.627 493.02L268.627 477.47" stroke="#000000" stroke-width="0.75" stroke-linecap="square" fill="none" /><path id="462" transform="matrix(1 0 0 -1 0 792)" d="M268.627 493.02L382.844 493.02L382.844 493.02L382.844 477.47" stroke="#000000" stroke-width="0.75" stroke-linecap="square" fill="none" /><path id="463" transform="matrix(1 0 0 -1 0 792)" d="M268.627 477.47L382.844 477.47" stroke="#000000" stroke-width="0.75" stroke-linecap="square" fill="none" /><path id="468" transform="matrix(1 0 0 -1 0 792)" d="M382.844 493.02L382.844 477.47" stroke="#000000" stroke-width="0.75" stroke-linecap="square" fill="none" /><path id="469" transform="matrix(1 0 0 -1 0 792)" d="M382.844 493.02L503.908 493.02L503.908 493.02L503.908 477.47" stroke="#000000" stroke-width="0.75" stroke-linecap="square" fill="none" /><path id="470" transform="matrix(1 0 0 -1 0 792)" d="M382.844 477.47L503.908 477.47" stroke="#000000" stroke-width="0.75" stroke-linecap="square" fill="none" /><path id="475" transform="matrix(1 0 0 -1 0 792)" d="M503.908 492.27L503.908 478.22" stroke="#000000" stroke-width="0.75" stroke-linecap="square" fill="none" /><path id="476" transform="matrix(1 0 0 -1 0 792)" d="M108.092 477.47L108.092 461.92" stroke="#000000" stroke-width="0.75" stroke-linecap="square" fill="none" /><path id="477" transform="matrix(1 0 0 -1 0 792)" d="M108.092 477.47L268.627 477.47L268.627 477.47L268.627 461.92" stroke="#000000" stroke-width="0.75" stroke-linecap="square" fill="none" /><path id="478" transform="matrix(1 0 0 -1 0 792)" d="M108.092 461.92L268.627 461.92" stroke="#000000" stroke-width="0.75" stroke-linecap="square" fill="none" /><path id="497" transform="matrix(1 0 0 -1 0 792)" d="M108.092 476.72L108.092 462.67" stroke="#000000" stroke-width="0.75" stroke-linecap="square" fill="none" /><path id="498" transform="matrix(1 0 0 -1 0 792)" d="M268.627 477.47L268.627 461.92" stroke="#000000" stroke-width="0.75" stroke-linecap="square" fill="none" /><path id="499" transform="matrix(1 0 0 -1 0 792)" d="M268.627 477.47L382.844 477.47L382.844 477.47L382.844 461.92" stroke="#000000" stroke-width="0.75" stroke-linecap="square" fill="none" /><path id="500" transform="matrix(1 0 0 -1 0 792)" d="M268.627 461.92L382.844 461.92" stroke="#000000" stroke-width="0.75" stroke-linecap="square" fill="none" /><path id="512" transform="matrix(1 0 0 -1 0 792)" d="M382.844 477.47L382.844 461.92" stroke="#000000" stroke-width="0.75" stroke-linecap="square" fill="none" /><path id="513" transform="matrix(1 0 0 -1 0 792)" d="M382.844 477.47L503.908 477.47L503.908 477.47L503.908 461.92" stroke="#000000" stroke-width="0.75" stroke-linecap="square" fill="none" /><path id="514" transform="matrix(1 0 0 -1 0 792)" d="M382.844 461.92L503.908 461.92" stroke="#000000" stroke-width="0.75" stroke-linecap="square" fill="none" /><path id="526" transform="matrix(1 0 0 -1 0 792)" d="M503.908 476.72L503.908 462.67" stroke="#000000" stroke-width="0.75" stroke-linecap="square" fill="none" /><path id="527" transform="matrix(1 0 0 -1 0 792)" d="M108.092 461.92L108.092 446.37" stroke="#000000" stroke-width="0.75" stroke-linecap="square" fill="none" /><path id="528" transform="matrix(1 0 0 -1 0 792)" d="M108.092 461.92L268.627 461.92L268.627 461.92L268.627 446.37" stroke="#000000" stroke-width="0.75" stroke-linecap="square" fill="none" /><path id="529" transform="matrix(1 0 0 -1 0 792)" d="M108.092 446.37L268.627 446.37" stroke="#000000" stroke-width="0.75" stroke-linecap="square" fill="none" /><path id="542" transform="matrix(1 0 0 -1 0 792)" d="M108.092 461.17L108.092 446.37L108.092 446.37L267.877 446.37" stroke="#000000" stroke-width="0.75" stroke-linecap="square" fill="none" /><path id="543" transform="matrix(1 0 0 -1 0 792)" d="M268.627 461.92L268.627 446.37" stroke="#000000" stroke-width="0.75" stroke-linecap="square" fill="none" /><path id="544" transform="matrix(1 0 0 -1 0 792)" d="M268.627 461.92L382.844 461.92L382.844 461.92L382.844 446.37" stroke="#000000" stroke-width="0.75" stroke-linecap="square" fill="none" /><path id="545" transform="matrix(1 0 0 -1 0 792)" d="M268.627 446.37L382.844 446.37" stroke="#000000" stroke-width="0.75" stroke-linecap="square" fill="none" /><path id="557" transform="matrix(1 0 0 -1 0 792)" d="M269.377 446.37L382.094 446.37" stroke="#000000" stroke-width="0.75" stroke-linecap="square" fill="none" /><path id="558" transform="matrix(1 0 0 -1 0 792)" d="M382.844 461.92L382.844 446.37" stroke="#000000" stroke-width="0.75" stroke-linecap="square" fill="none" /><path id="559" transform="matrix(1 0 0 -1 0 792)" d="M382.844 461.92L503.908 461.92L503.908 461.92L503.908 446.37" stroke="#000000" stroke-width="0.75" stroke-linecap="square" fill="none" /><path id="560" transform="matrix(1 0 0 -1 0 792)" d="M382.844 446.37L503.908 446.37" stroke="#000000" stroke-width="0.75" stroke-linecap="square" fill="none" /><path id="572" transform="matrix(1 0 0 -1 0 792)" d="M503.908 461.17L503.908 446.37" stroke="#000000" stroke-width="0.75" stroke-linecap="square" fill="none" /><path id="573" transform="matrix(1 0 0 -1 0 792)" d="M383.594 446.37L503.908 446.37" stroke="#000000" stroke-width="0.75" stroke-linecap="square" fill="none" /></g></g></svg>