<svg xmlns="http://www.w3.org/2000/svg" xmlns:xlink="http://www.w3.org/1999/xlink" id="body_117" preserveAspectRatio="xMinYMin meet" viewBox="0 0 816 1056"><defs><clipPath id="1"><path id="" clip-rule="evenodd" transform="matrix(1 0 0 1 0 0)" d="M0 792L0 0L0 0L612 0L612 0L612 792L612 792L0 792z" /></clipPath></defs><g transform="matrix(1.333333 0 0 1.333333 0 0)"><g clip-path="url(#1)"><g transform="matrix(0.4803531 0 0 0.4793704 144.9464 122.1017)"><g transform="matrix(1 0 0 1 0 0)"><image x="0" y="0" xlink:href="img_208.png" width="699" height="325" /></g></g><path id="751" transform="matrix(1 0 0 -1 0 792)" d="M254.8743 526.3408L263.3264 526.3408" stroke="#439AC3" stroke-width="0.9326935" fill="none" /><path id="752" transform="matrix(1 0 0 -1 0 792)" d="M254.8743 522.319L263.3264 522.319" stroke="#F4792C" stroke-width="0.9326935" fill="none" /><path id="753" transform="matrix(1 0 0 -1 0 792)" d="M253.0114 529.4055L299.9379 529.4055L299.9379 529.4055L299.9379 519.2625L299.9379 519.2625L253.0114 519.2625z" stroke="#221E1F" stroke-width="0.5596161" fill="none" /><path id="782" transform="matrix(1 0 0 -1 0 792)" d="M439.1081 660.7226L447.5602 660.7226" stroke="#439AC3" stroke-width="0.9326935" fill="none" /><path id="783" transform="matrix(1 0 0 -1 0 792)" d="M439.1081 656.7L447.5602 656.7" stroke="#F4792C" stroke-width="0.9326935" fill="none" /><path id="784" transform="matrix(1 0 0 -1 0 792)" d="M437.2473 663.788L478.9564 663.788L478.9564 663.788L478.9564 653.4528L478.9564 653.4528L437.2473 653.4528z" stroke="#221E1F" stroke-width="0.5596161" fill="none" /><g transform="matrix(0.4788451 0 0 0.4789398 120.6306 381.6854)"><g transform="matrix(1 0 0 1 0 0)"><image x="0" y="0" xlink:href="img_209.png" width="790" height="337" /></g></g><path id="962" transform="matrix(1 0 0 -1 0 792)" d="M240.8821 270.6118L250.4044 270.6118" stroke="#439AC3" stroke-width="1.050797" fill="none" /><path id="963" transform="matrix(1 0 0 -1 0 792)" d="M240.8821 266.0808L250.4044 266.0808" stroke="#F4792C" stroke-width="1.050797" fill="none" /><path id="964" transform="matrix(1 0 0 -1 0 792)" d="M238.78 274.0587L291.6487 274.0587L291.6487 274.0587L291.6487 262.6312L291.6487 262.6312L238.78 262.6312z" stroke="#221E1F" stroke-width="0.6304779" fill="none" /><path id="993" transform="matrix(1 0 0 -1 0 792)" d="M439.7605 400.519L449.2828 400.519" stroke="#439AC3" stroke-width="1.050797" fill="none" /><path id="994" transform="matrix(1 0 0 -1 0 792)" d="M439.7605 395.9879L449.2828 395.9879" stroke="#F4792C" stroke-width="1.050797" fill="none" /><path id="995" transform="matrix(1 0 0 -1 0 792)" d="M437.658 403.9655L484.6485 403.9655L484.6485 403.9655L484.6485 392.3216L484.6485 392.3216L437.658 392.3216z" stroke="#221E1F" stroke-width="0.6304779" fill="none" /></g></g></svg>