<svg xmlns="http://www.w3.org/2000/svg" xmlns:xlink="http://www.w3.org/1999/xlink" id="body_99" preserveAspectRatio="xMinYMin meet" viewBox="0 0 816 1056"><defs><clipPath id="1"><path id="" clip-rule="evenodd" transform="matrix(1 0 0 1 0 0)" d="M0 792L0 0L0 0L612 0L612 0L612 792L612 792L0 792z" /></clipPath></defs><g transform="matrix(1.333333 0 0 1.333333 0 0)"><g clip-path="url(#1)"><g transform="matrix(0.4790625 0 0 0.479244 127.166 198.744)"><g transform="matrix(1 0 0 1 0 0)"><image x="0" y="0" xlink:href="img_165.png" width="720" height="754" /></g></g><path id="926" transform="matrix(1 0 0 -1 0 792)" d="M133.0176 399.2641C 132.2785 399.2641 131.6488 399.3702 131.1287 399.6029C 130.7591 399.7671 130.4238 399.993 130.1227 400.2804C 129.8352 400.5678 129.606 400.8929 129.4554 401.2351C 129.2638 401.6868 129.168 402.2103 129.168 402.8263C 129.168 403.8939 129.517 404.7665 130.174 405.4235C 130.8584 406.0668 131.796 406.3987 132.9868 406.3987C 134.1776 406.3987 135.1083 406.0771 135.779 405.4337C 136.4497 404.7767 136.785 403.9178 136.785 402.8365C 136.785 401.7415 136.4497 400.8724 135.779 400.2291C 135.122 399.5721 134.2084 399.2641 133.0176 399.2641zM132.9765 400.7937C 133.8114 400.7937 134.4411 400.9853 134.8654 401.3686C 135.3034 401.7518 135.5121 402.2343 135.5121 402.8365C 135.5121 403.4251 135.3 403.911 134.8756 404.2943C 134.4513 404.6638 133.8183 404.8691 132.956 404.8691C 132.1074 404.8691 131.4777 404.6844 131.0671 404.3148C 130.6565 403.9452 130.4409 403.4525 130.4409 402.8365C 130.4409 402.2206 130.6565 401.7278 131.0671 401.3583C 131.4914 400.975 132.1279 400.7937 132.9765 400.7937z" stroke="none" fill="#000000" fill-rule="evenodd" /><path id="927" transform="matrix(1 0 0 -1 0 792)" d="M136.6516 411.0695L135.8509 411.0695C 136.1383 410.8642 136.3642 410.6144 136.5284 410.2996C 136.6927 409.9848 136.785 409.6461 136.785 409.3039C 136.785 408.9343 136.6995 408.6263 136.5489 408.3389C 136.3984 408.0515 136.1691 407.8462 135.8817 407.723C 135.6079 407.5861 135.2076 407.5279 134.7011 407.5279L134.7011 407.5279L131.3237 407.5279L131.3237 407.5279L131.3237 408.9343L131.3237 408.9343L133.7772 408.9343C 134.53 408.9343 134.9886 408.9617 135.1528 409.0164C 135.3307 409.0575 135.4676 409.1567 135.5634 409.2936C 135.6593 409.4305 135.7072 409.6118 135.7072 409.8171C 135.7072 410.0635 135.649 410.2722 135.5121 410.4639C 135.3889 410.6555 135.2247 410.7821 135.0194 410.8642C 134.8277 410.9327 134.3521 410.9669 133.5719 410.9669L133.5719 410.9669L131.3237 410.9669L131.3237 410.9669L131.3237 412.3733L131.3237 412.3733L136.6516 412.3733z" stroke="none" fill="#000000" fill-rule="evenodd" /><path id="928" transform="matrix(1 0 0 -1 0 792)" d="M131.3237 416.2537L132.4427 416.2537L132.4427 416.2537L132.4427 415.2887L132.4427 415.2887L134.5985 415.2887C 135.0502 415.2887 135.3 415.2921 135.3684 415.3195C 135.4505 415.3195 135.5018 415.3743 135.5429 415.4427C 135.5977 415.4974 135.6148 415.583 135.6148 415.6788C 135.6148 415.802 135.5771 415.9936 135.4813 416.2537L135.4813 416.2537L136.5695 416.3666C 136.7063 416.0381 136.785 415.6685 136.785 415.2579C 136.785 414.9979 136.7337 414.7754 136.6516 414.5701C 136.5695 414.3648 136.46 414.2108 136.3231 414.1287C 136.1999 414.0192 136.0151 413.9644 135.7688 413.9234C 135.6045 413.8823 135.2794 413.8823 134.773 413.8823L134.773 413.8823L132.4427 413.8823L132.4427 413.8823L132.4427 413.2356L132.4427 413.2356L131.3237 413.2356L131.3237 413.2356L131.3237 413.8823L131.3237 413.8823L130.2664 413.8823L130.2664 413.8823L129.4349 415.2887L129.4349 415.2887L131.3237 415.2887z" stroke="none" fill="#000000" fill-rule="evenodd" /><path id="929" transform="matrix(1 0 0 -1 0 792)" d="M131.3237 417.1981L131.3237 418.5121L131.3237 418.5121L132.1039 418.5121C 131.8439 418.6764 131.6214 418.9125 131.4572 419.1999C 131.293 419.4873 131.2108 419.8056 131.2108 420.1751C 131.2108 420.7911 131.4606 421.3078 131.9397 421.7458C 132.4324 422.1701 133.11 422.3925 133.9723 422.3925C 134.862 422.3925 135.5532 422.1735 136.0459 421.7355C 136.5387 421.2975 136.785 420.7808 136.785 420.1649C 136.785 419.8637 136.72 419.5968 136.6105 419.3642C 136.501 419.1178 136.2923 418.8646 136.0049 418.6045L136.0049 418.6045L138.6739 418.6045L138.6739 418.6045L138.6739 417.1981zM133.9004 418.584C 134.5164 418.584 134.9475 418.6969 135.2349 418.9433C 135.5224 419.176 135.6661 419.4634 135.6661 419.8056C 135.6661 420.1341 135.5361 420.3976 135.276 420.6166C 135.0159 420.8219 134.5882 420.9451 133.9723 420.9451C 133.4248 420.9451 133.0039 420.8253 132.7301 420.6063C 132.4564 420.3873 132.3195 420.1033 132.3195 419.7748C 132.3195 419.4326 132.4598 419.1417 132.7199 418.9227C 132.9936 418.6901 133.3803 418.584 133.9004 418.584z" stroke="none" fill="#000000" fill-rule="evenodd" /><path id="930" transform="matrix(1 0 0 -1 0 792)" d="M136.6516 427.0326L135.8509 427.0326C 136.1383 426.8272 136.3642 426.5775 136.5284 426.2626C 136.6927 425.9478 136.785 425.6091 136.785 425.2669C 136.785 424.8973 136.6995 424.5894 136.5489 424.3019C 136.3984 424.0145 136.1691 423.8092 135.8817 423.686C 135.6079 423.5491 135.2076 423.4909 134.7011 423.4909L134.7011 423.4909L131.3237 423.4909L131.3237 423.4909L131.3237 424.8973L131.3237 424.8973L133.7772 424.8973C 134.53 424.8973 134.9886 424.9247 135.1528 424.9794C 135.3307 425.0205 135.4676 425.1198 135.5634 425.2566C 135.6593 425.3935 135.7072 425.5749 135.7072 425.7802C 135.7072 426.0265 135.649 426.2353 135.5121 426.4269C 135.3889 426.6185 135.2247 426.7451 135.0194 426.8272C 134.8277 426.8957 134.3521 426.9299 133.5719 426.9299L133.5719 426.9299L131.3237 426.9299L131.3237 426.9299L131.3237 428.3363L131.3237 428.3363L136.6516 428.3363z" stroke="none" fill="#000000" fill-rule="evenodd" /><path id="931" transform="matrix(1 0 0 -1 0 792)" d="M131.3237 432.2167L132.4427 432.2167L132.4427 432.2167L132.4427 431.2517L132.4427 431.2517L134.5985 431.2517C 135.0502 431.2517 135.3 431.2552 135.3684 431.2825C 135.4505 431.2825 135.5018 431.3373 135.5429 431.4057C 135.5977 431.4604 135.6148 431.546 135.6148 431.6418C 135.6148 431.765 135.5771 431.9566 135.4813 432.2167L135.4813 432.2167L136.5695 432.3296C 136.7063 432.0011 136.785 431.6316 136.785 431.2209C 136.785 430.9609 136.7337 430.7384 136.6516 430.5331C 136.5695 430.3278 136.46 430.1738 136.3231 430.0917C 136.1999 429.9822 136.0151 429.9275 135.7688 429.8864C 135.6045 429.8453 135.2794 429.8453 134.773 429.8453L134.773 429.8453L132.4427 429.8453L132.4427 429.8453L132.4427 429.1986L132.4427 429.1986L131.3237 429.1986L131.3237 429.1986L131.3237 429.8453L131.3237 429.8453L130.2664 429.8453L130.2664 429.8453L129.4349 431.2517L129.4349 431.2517L131.3237 431.2517z" stroke="none" fill="#000000" fill-rule="evenodd" /><path id="933" transform="matrix(1 0 0 -1 0 792)" d="M133.9415 440.7679L134.3829 442.2051C 135.2041 441.9861 135.7927 441.6131 136.1897 441.1067C 136.5866 440.5866 136.7748 439.9261 136.7748 439.146C 136.7748 438.1605 136.4394 437.3597 135.7688 436.7438C 135.1118 436.1142 134.2015 435.7994 133.0381 435.7994C 131.8199 435.7994 130.8686 436.1142 130.1843 436.7438C 129.5136 437.3734 129.168 438.2118 129.168 439.2384C 129.168 440.1417 129.4349 440.8603 129.9687 441.4352C 130.2972 441.7637 130.7489 442.0203 131.3237 442.1846L131.3237 442.1846L131.6728 440.7166C 131.3032 440.6345 131.0021 440.4463 130.7694 440.1725C 130.5641 439.8851 130.4409 439.5497 130.4409 439.1665C 130.4409 438.619 130.6428 438.1707 131.026 437.8422C 131.423 437.5001 132.0629 437.3289 132.9252 437.3289C 133.8696 437.3289 134.5232 437.4898 134.9064 437.832C 135.3171 438.1605 135.5018 438.6019 135.5018 439.1357C 135.5018 439.5327 135.3821 439.8646 135.122 440.152C 134.8756 440.4394 134.4753 440.6447 133.9415 440.7679z" stroke="none" fill="#000000" fill-rule="evenodd" /><path id="934" transform="matrix(1 0 0 -1 0 792)" d="M136.6516 443.4678L129.3014 443.4678L129.3014 443.4678L129.3014 444.8742L129.3014 444.8742L136.6516 444.8742z" stroke="none" fill="#000000" fill-rule="evenodd" /><path id="935" transform="matrix(1 0 0 -1 0 792)" d="M132.9662 447.3687L132.7404 446.0958C 132.2203 446.2327 131.837 446.479 131.5907 446.8349C 131.3443 447.1771 131.2108 447.7075 131.2108 448.4055C 131.2108 449.0215 131.2861 449.4868 131.4367 449.8017C 131.5872 450.1028 131.7823 450.3218 132.0013 450.4586C 132.234 450.5818 132.648 450.6434 133.2639 450.6434L133.2639 450.6434L134.9064 450.6229C 135.3718 450.6229 135.7277 450.64 135.933 450.6948C 136.1657 450.7358 136.4052 450.818 136.6516 450.9411L136.6516 450.9411L136.6516 449.545C 136.5695 449.504 136.4326 449.4526 136.241 449.4116C 136.1588 449.3842 136.1178 449.3602 136.0767 449.3602C 136.3231 449.1139 136.4874 448.8641 136.6105 448.5903C 136.72 448.3029 136.785 448.0189 136.785 447.7177C 136.785 447.1703 136.6447 446.7391 136.3436 446.4243C 136.0562 446.0958 135.6661 445.9521 135.2144 445.9521C 134.9133 445.9521 134.6498 446.0171 134.4034 446.1676C 134.1707 446.3045 133.9928 446.5132 133.8696 446.7733C 133.7464 447.0197 133.6369 447.3995 133.5411 447.8923C 133.4179 448.5493 133.3016 448.9975 133.1921 449.2576L133.1921 449.2576L133.0484 449.2576C 132.7746 449.2576 132.5864 449.1755 132.4632 449.0523C 132.3537 448.9154 132.2887 448.6725 132.2887 448.3029C 132.2887 448.0428 132.3469 447.8444 132.4427 447.7075C 132.5385 447.5706 132.7199 447.4508 132.9662 447.3687zM134.1057 449.2576C 134.1742 449.066 134.2392 448.7888 134.3213 448.4055C 134.4034 447.9949 134.4855 447.7588 134.5677 447.6356C 134.7046 447.444 134.8688 447.3585 135.0604 447.3585C 135.2657 447.3585 135.4368 447.4235 135.5737 447.574C 135.7243 447.7246 135.7893 447.9059 135.7893 448.1386C 135.7893 448.385 135.7072 448.6211 135.5429 448.8675C 135.4197 449.0317 135.2623 449.1378 135.0707 449.2063C 134.9475 449.2336 134.7251 449.2576 134.3829 449.2576z" stroke="none" fill="#000000" fill-rule="evenodd" /><path id="936" transform="matrix(1 0 0 -1 0 792)" d="M135.1528 451.5263L134.9372 452.9429C 135.2247 452.9977 135.43 453.1209 135.5532 453.3125C 135.7037 453.4904 135.7688 453.7539 135.7688 454.0824C 135.7688 454.4383 135.7003 454.712 135.5634 454.9037C 135.4813 455.0269 135.3581 455.0884 135.1939 455.0884C 135.0844 455.0884 135.0091 455.0542 134.927 454.9858C 134.8585 454.9037 134.797 454.7599 134.7422 454.5136C 134.4958 453.3638 134.2597 452.6452 134.0544 452.3578C 133.767 451.9335 133.3734 451.7213 132.8533 451.7213C 132.4016 451.7213 132.0116 451.8958 131.683 452.2654C 131.3682 452.635 131.2108 453.1927 131.2108 453.9592C 131.2108 454.6847 131.3374 455.2219 131.5701 455.5915C 131.8165 455.9337 132.1621 456.1834 132.6275 456.3203L132.6275 456.3203L132.8739 454.9961C 132.6685 454.9276 132.5146 454.8318 132.3914 454.6675C 132.2819 454.5033 132.2271 454.2775 132.2271 453.99C 132.2271 453.6068 132.2853 453.3399 132.3811 453.1893C 132.4632 453.0661 132.559 453.0251 132.6685 453.0251C 132.778 453.0251 132.8568 453.073 132.9252 453.1688C 133.021 453.292 133.1613 453.73 133.3255 454.4828C 133.4898 455.2356 133.7054 455.7625 133.9517 456.0637C 134.1981 456.3511 134.5471 456.5051 134.9988 456.5051C 135.4916 456.5051 135.9056 456.2998 136.2615 455.8892C 136.6174 455.4785 136.785 454.8763 136.785 454.0824C 136.785 453.3433 136.6447 452.7684 136.3436 452.3578C 136.0562 451.9335 135.6593 451.6495 135.1528 451.5263z" stroke="none" fill="#000000" fill-rule="evenodd" /><path id="937" transform="matrix(1 0 0 -1 0 792)" d="M135.1528 457.2339L134.9372 458.6506C 135.2247 458.7054 135.43 458.8286 135.5532 459.0202C 135.7037 459.1981 135.7688 459.4616 135.7688 459.7901C 135.7688 460.146 135.7003 460.4197 135.5634 460.6113C 135.4813 460.7345 135.3581 460.7961 135.1939 460.7961C 135.0844 460.7961 135.0091 460.7619 134.927 460.6935C 134.8585 460.6113 134.797 460.4676 134.7422 460.2213C 134.4958 459.0715 134.2597 458.3529 134.0544 458.0655C 133.767 457.6412 133.3734 457.429 132.8533 457.429C 132.4016 457.429 132.0116 457.6035 131.683 457.9731C 131.3682 458.3427 131.2108 458.9004 131.2108 459.6669C 131.2108 460.3923 131.3374 460.9296 131.5701 461.2991C 131.8165 461.6413 132.1621 461.8911 132.6275 462.028L132.6275 462.028L132.8739 460.7037C 132.6685 460.6353 132.5146 460.5395 132.3914 460.3752C 132.2819 460.211 132.2271 459.9851 132.2271 459.6977C 132.2271 459.3145 132.2853 459.0475 132.3811 458.897C 132.4632 458.7738 132.559 458.7327 132.6685 458.7327C 132.778 458.7327 132.8568 458.7806 132.9252 458.8765C 133.021 458.9996 133.1613 459.4376 133.3255 460.1905C 133.4898 460.9433 133.7054 461.4702 133.9517 461.7714C 134.1981 462.0588 134.5471 462.2128 134.9988 462.2128C 135.4916 462.2128 135.9056 462.0074 136.2615 461.5968C 136.6174 461.1862 136.785 460.584 136.785 459.7901C 136.785 459.051 136.6447 458.4761 136.3436 458.0655C 136.0562 457.6412 135.6593 457.3571 135.1528 457.2339z" stroke="none" fill="#000000" fill-rule="evenodd" /></g></g></svg>