<svg xmlns="http://www.w3.org/2000/svg" xmlns:xlink="http://www.w3.org/1999/xlink" id="body_31" preserveAspectRatio="xMinYMin meet" viewBox="0 0 816 1056"><defs><clipPath id="1"><path id="" clip-rule="evenodd" transform="matrix(1 0 0 1 0 0)" d="M0 792L0 0L0 0L612 0L612 0L612 792L612 792L0 792z" /></clipPath></defs><g transform="matrix(1.333333 0 0 1.333333 0 0)"><g clip-path="url(#1)"><g transform="matrix(0.4798658 0 0 0.4796888 109.476 140.285)"><g transform="matrix(1 0 0 1 0 0)"><image x="0" y="0" xlink:href="img_52.png" width="820" height="572" /></g></g><g transform="matrix(0.4791547 0 0 0.4788305 108.928 134.311)"><g transform="matrix(1 0 0 1 0 0)"><image x="0" y="0" xlink:href="img_53.png" width="821" height="596" /></g></g></g></g></svg>