<svg xmlns="http://www.w3.org/2000/svg" xmlns:xlink="http://www.w3.org/1999/xlink" id="body_111" preserveAspectRatio="xMinYMin meet" viewBox="0 0 816 1056"><defs><clipPath id="1"><path id="" clip-rule="evenodd" transform="matrix(1 0 0 1 0 0)" d="M0 792L0 0L0 0L612 0L612 0L612 792L612 792L0 792z" /></clipPath></defs><g transform="matrix(1.333333 0 0 1.333333 0 0)"><g clip-path="url(#1)"><path id="568" transform="matrix(1 0 0 -1 0 792)" d="M108.092 523.42L108.092 507.37" stroke="#000000" stroke-width="0.75" stroke-linecap="square" fill="none" /><path id="569" transform="matrix(1 0 0 -1 0 792)" d="M108.092 523.42L182.331 523.42L182.331 523.42L182.331 507.37" stroke="#000000" stroke-width="0.75" stroke-linecap="square" fill="none" /><path id="570" transform="matrix(1 0 0 -1 0 792)" d="M108.092 507.37L182.331 507.37" stroke="#000000" stroke-width="0.75" stroke-linecap="square" fill="none" /><path id="580" transform="matrix(1 0 0 -1 0 792)" d="M108.092 523.42L108.092 508.12" stroke="#000000" stroke-width="0.75" stroke-linecap="square" fill="none" /><path id="581" transform="matrix(1 0 0 -1 0 792)" d="M108.092 523.42L181.581 523.42" stroke="#000000" stroke-width="0.75" stroke-linecap="square" fill="none" /><path id="582" transform="matrix(1 0 0 -1 0 792)" d="M182.331 523.42L182.331 507.37" stroke="#000000" stroke-width="0.75" stroke-linecap="square" fill="none" /><path id="583" transform="matrix(1 0 0 -1 0 792)" d="M182.331 523.42L212.569 523.42L212.569 523.42L212.569 507.37" stroke="#000000" stroke-width="0.75" stroke-linecap="square" fill="none" /><path id="584" transform="matrix(1 0 0 -1 0 792)" d="M182.331 507.37L212.569 507.37" stroke="#000000" stroke-width="0.75" stroke-linecap="square" fill="none" /><path id="590" transform="matrix(1 0 0 -1 0 792)" d="M183.081 523.42L211.819 523.42" stroke="#000000" stroke-width="0.75" stroke-linecap="square" fill="none" /><path id="591" transform="matrix(1 0 0 -1 0 792)" d="M212.569 523.42L212.569 507.37" stroke="#000000" stroke-width="0.75" stroke-linecap="square" fill="none" /><path id="592" transform="matrix(1 0 0 -1 0 792)" d="M212.569 523.42L503.908 523.42L503.908 523.42L503.908 507.37" stroke="#000000" stroke-width="0.75" stroke-linecap="square" fill="none" /><path id="593" transform="matrix(1 0 0 -1 0 792)" d="M212.569 507.37L503.908 507.37" stroke="#000000" stroke-width="0.75" stroke-linecap="square" fill="none" /><path id="605" transform="matrix(1 0 0 -1 0 792)" d="M213.319 523.42L503.908 523.42L503.908 523.42L503.908 508.12" stroke="#000000" stroke-width="0.75" stroke-linecap="square" fill="none" /><path id="606" transform="matrix(1 0 0 -1 0 792)" d="M108.092 507.37L108.092 491.82" stroke="#000000" stroke-width="0.75" stroke-linecap="square" fill="none" /><path id="607" transform="matrix(1 0 0 -1 0 792)" d="M108.092 507.37L182.331 507.37L182.331 507.37L182.331 491.82" stroke="#000000" stroke-width="0.75" stroke-linecap="square" fill="none" /><path id="608" transform="matrix(1 0 0 -1 0 792)" d="M108.092 491.82L182.331 491.82" stroke="#000000" stroke-width="0.75" stroke-linecap="square" fill="none" /><path id="623" transform="matrix(1 0 0 -1 0 792)" d="M108.092 506.62L108.092 492.57" stroke="#000000" stroke-width="0.75" stroke-linecap="square" fill="none" /><path id="624" transform="matrix(1 0 0 -1 0 792)" d="M182.331 507.37L182.331 491.82" stroke="#000000" stroke-width="0.75" stroke-linecap="square" fill="none" /><path id="625" transform="matrix(1 0 0 -1 0 792)" d="M182.331 507.37L212.569 507.37L212.569 507.37L212.569 491.82" stroke="#000000" stroke-width="0.75" stroke-linecap="square" fill="none" /><path id="626" transform="matrix(1 0 0 -1 0 792)" d="M182.331 491.82L212.569 491.82" stroke="#000000" stroke-width="0.75" stroke-linecap="square" fill="none" /><path id="629" transform="matrix(1 0 0 -1 0 792)" d="M212.569 507.37L212.569 491.82" stroke="#000000" stroke-width="0.75" stroke-linecap="square" fill="none" /><path id="630" transform="matrix(1 0 0 -1 0 792)" d="M212.569 507.37L503.908 507.37L503.908 507.37L503.908 491.82" stroke="#000000" stroke-width="0.75" stroke-linecap="square" fill="none" /><path id="631" transform="matrix(1 0 0 -1 0 792)" d="M212.569 491.82L503.908 491.82" stroke="#000000" stroke-width="0.75" stroke-linecap="square" fill="none" /><path id="655" transform="matrix(1 0 0 -1 0 792)" d="M503.908 506.62L503.908 492.57" stroke="#000000" stroke-width="0.75" stroke-linecap="square" fill="none" /><path id="656" transform="matrix(1 0 0 -1 0 792)" d="M108.092 491.82L108.092 476.27" stroke="#000000" stroke-width="0.75" stroke-linecap="square" fill="none" /><path id="657" transform="matrix(1 0 0 -1 0 792)" d="M108.092 491.82L182.331 491.82L182.331 491.82L182.331 476.27" stroke="#000000" stroke-width="0.75" stroke-linecap="square" fill="none" /><path id="658" transform="matrix(1 0 0 -1 0 792)" d="M108.092 476.27L182.331 476.27" stroke="#000000" stroke-width="0.75" stroke-linecap="square" fill="none" /><path id="676" transform="matrix(1 0 0 -1 0 792)" d="M108.092 491.07L108.092 477.02" stroke="#000000" stroke-width="0.75" stroke-linecap="square" fill="none" /><path id="677" transform="matrix(1 0 0 -1 0 792)" d="M182.331 491.82L182.331 476.27" stroke="#000000" stroke-width="0.75" stroke-linecap="square" fill="none" /><path id="678" transform="matrix(1 0 0 -1 0 792)" d="M182.331 491.82L212.569 491.82L212.569 491.82L212.569 476.27" stroke="#000000" stroke-width="0.75" stroke-linecap="square" fill="none" /><path id="679" transform="matrix(1 0 0 -1 0 792)" d="M182.331 476.27L212.569 476.27" stroke="#000000" stroke-width="0.75" stroke-linecap="square" fill="none" /><path id="684" transform="matrix(1 0 0 -1 0 792)" d="M212.569 491.82L212.569 476.27" stroke="#000000" stroke-width="0.75" stroke-linecap="square" fill="none" /><path id="685" transform="matrix(1 0 0 -1 0 792)" d="M212.569 491.82L503.908 491.82L503.908 491.82L503.908 476.27" stroke="#000000" stroke-width="0.75" stroke-linecap="square" fill="none" /><path id="686" transform="matrix(1 0 0 -1 0 792)" d="M212.569 476.27L503.908 476.27" stroke="#000000" stroke-width="0.75" stroke-linecap="square" fill="none" /><path id="713" transform="matrix(1 0 0 -1 0 792)" d="M503.908 491.07L503.908 477.02" stroke="#000000" stroke-width="0.75" stroke-linecap="square" fill="none" /><path id="714" transform="matrix(1 0 0 -1 0 792)" d="M108.092 476.27L108.092 460.72" stroke="#000000" stroke-width="0.75" stroke-linecap="square" fill="none" /><path id="715" transform="matrix(1 0 0 -1 0 792)" d="M108.092 476.27L182.331 476.27L182.331 476.27L182.331 460.72" stroke="#000000" stroke-width="0.75" stroke-linecap="square" fill="none" /><path id="716" transform="matrix(1 0 0 -1 0 792)" d="M108.092 460.72L182.331 460.72" stroke="#000000" stroke-width="0.75" stroke-linecap="square" fill="none" /><path id="735" transform="matrix(1 0 0 -1 0 792)" d="M108.092 475.52L108.092 461.47" stroke="#000000" stroke-width="0.75" stroke-linecap="square" fill="none" /><path id="736" transform="matrix(1 0 0 -1 0 792)" d="M182.331 476.27L182.331 460.72" stroke="#000000" stroke-width="0.75" stroke-linecap="square" fill="none" /><path id="737" transform="matrix(1 0 0 -1 0 792)" d="M182.331 476.27L212.569 476.27L212.569 476.27L212.569 460.72" stroke="#000000" stroke-width="0.75" stroke-linecap="square" fill="none" /><path id="738" transform="matrix(1 0 0 -1 0 792)" d="M182.331 460.72L212.569 460.72" stroke="#000000" stroke-width="0.75" stroke-linecap="square" fill="none" /><path id="743" transform="matrix(1 0 0 -1 0 792)" d="M212.569 476.27L212.569 460.72" stroke="#000000" stroke-width="0.75" stroke-linecap="square" fill="none" /><path id="744" transform="matrix(1 0 0 -1 0 792)" d="M212.569 476.27L503.908 476.27L503.908 476.27L503.908 460.72" stroke="#000000" stroke-width="0.75" stroke-linecap="square" fill="none" /><path id="745" transform="matrix(1 0 0 -1 0 792)" d="M212.569 460.72L503.908 460.72" stroke="#000000" stroke-width="0.75" stroke-linecap="square" fill="none" /><path id="773" transform="matrix(1 0 0 -1 0 792)" d="M503.908 475.52L503.908 461.47" stroke="#000000" stroke-width="0.75" stroke-linecap="square" fill="none" /><path id="774" transform="matrix(1 0 0 -1 0 792)" d="M108.092 460.72L108.092 445.17" stroke="#000000" stroke-width="0.75" stroke-linecap="square" fill="none" /><path id="775" transform="matrix(1 0 0 -1 0 792)" d="M108.092 460.72L182.331 460.72L182.331 460.72L182.331 445.17" stroke="#000000" stroke-width="0.75" stroke-linecap="square" fill="none" /><path id="776" transform="matrix(1 0 0 -1 0 792)" d="M108.092 445.17L182.331 445.17" stroke="#000000" stroke-width="0.75" stroke-linecap="square" fill="none" /><path id="784" transform="matrix(1 0 0 -1 0 792)" d="M108.092 459.97L108.092 445.92" stroke="#000000" stroke-width="0.75" stroke-linecap="square" fill="none" /><path id="785" transform="matrix(1 0 0 -1 0 792)" d="M182.331 460.72L182.331 445.17" stroke="#000000" stroke-width="0.75" stroke-linecap="square" fill="none" /><path id="786" transform="matrix(1 0 0 -1 0 792)" d="M182.331 460.72L212.569 460.72L212.569 460.72L212.569 445.17" stroke="#000000" stroke-width="0.75" stroke-linecap="square" fill="none" /><path id="787" transform="matrix(1 0 0 -1 0 792)" d="M182.331 445.17L212.569 445.17" stroke="#000000" stroke-width="0.75" stroke-linecap="square" fill="none" /><path id="793" transform="matrix(1 0 0 -1 0 792)" d="M212.569 460.72L212.569 445.17" stroke="#000000" stroke-width="0.75" stroke-linecap="square" fill="none" /><path id="794" transform="matrix(1 0 0 -1 0 792)" d="M212.569 460.72L503.908 460.72L503.908 460.72L503.908 445.17" stroke="#000000" stroke-width="0.75" stroke-linecap="square" fill="none" /><path id="795" transform="matrix(1 0 0 -1 0 792)" d="M212.569 445.17L503.908 445.17" stroke="#000000" stroke-width="0.75" stroke-linecap="square" fill="none" /><path id="826" transform="matrix(1 0 0 -1 0 792)" d="M503.908 459.97L503.908 445.92" stroke="#000000" stroke-width="0.75" stroke-linecap="square" fill="none" /><path id="827" transform="matrix(1 0 0 -1 0 792)" d="M108.092 445.17L108.092 429.62" stroke="#000000" stroke-width="0.75" stroke-linecap="square" fill="none" /><path id="828" transform="matrix(1 0 0 -1 0 792)" d="M108.092 445.17L182.331 445.17L182.331 445.17L182.331 429.62" stroke="#000000" stroke-width="0.75" stroke-linecap="square" fill="none" /><path id="829" transform="matrix(1 0 0 -1 0 792)" d="M108.092 429.62L182.331 429.62" stroke="#000000" stroke-width="0.75" stroke-linecap="square" fill="none" /><path id="841" transform="matrix(1 0 0 -1 0 792)" d="M108.092 444.42L108.092 430.37" stroke="#000000" stroke-width="0.75" stroke-linecap="square" fill="none" /><path id="842" transform="matrix(1 0 0 -1 0 792)" d="M182.331 445.17L182.331 429.62" stroke="#000000" stroke-width="0.75" stroke-linecap="square" fill="none" /><path id="843" transform="matrix(1 0 0 -1 0 792)" d="M182.331 445.17L212.569 445.17L212.569 445.17L212.569 429.62" stroke="#000000" stroke-width="0.75" stroke-linecap="square" fill="none" /><path id="844" transform="matrix(1 0 0 -1 0 792)" d="M182.331 429.62L212.569 429.62" stroke="#000000" stroke-width="0.75" stroke-linecap="square" fill="none" /><path id="848" transform="matrix(1 0 0 -1 0 792)" d="M212.569 445.17L212.569 429.62" stroke="#000000" stroke-width="0.75" stroke-linecap="square" fill="none" /><path id="849" transform="matrix(1 0 0 -1 0 792)" d="M212.569 445.17L503.908 445.17L503.908 445.17L503.908 429.62" stroke="#000000" stroke-width="0.75" stroke-linecap="square" fill="none" /><path id="850" transform="matrix(1 0 0 -1 0 792)" d="M212.569 429.62L503.908 429.62" stroke="#000000" stroke-width="0.75" stroke-linecap="square" fill="none" /><path id="894" transform="matrix(1 0 0 -1 0 792)" d="M503.908 444.42L503.908 430.37" stroke="#000000" stroke-width="0.75" stroke-linecap="square" fill="none" /><path id="895" transform="matrix(1 0 0 -1 0 792)" d="M108.092 429.62L108.092 414.07" stroke="#000000" stroke-width="0.75" stroke-linecap="square" fill="none" /><path id="896" transform="matrix(1 0 0 -1 0 792)" d="M108.092 429.62L182.331 429.62L182.331 429.62L182.331 414.07" stroke="#000000" stroke-width="0.75" stroke-linecap="square" fill="none" /><path id="897" transform="matrix(1 0 0 -1 0 792)" d="M108.092 414.07L182.331 414.07" stroke="#000000" stroke-width="0.75" stroke-linecap="square" fill="none" /><path id="908" transform="matrix(1 0 0 -1 0 792)" d="M108.092 428.87L108.092 414.82" stroke="#000000" stroke-width="0.75" stroke-linecap="square" fill="none" /><path id="909" transform="matrix(1 0 0 -1 0 792)" d="M182.331 429.62L182.331 414.07" stroke="#000000" stroke-width="0.75" stroke-linecap="square" fill="none" /><path id="910" transform="matrix(1 0 0 -1 0 792)" d="M182.331 429.62L212.569 429.62L212.569 429.62L212.569 414.07" stroke="#000000" stroke-width="0.75" stroke-linecap="square" fill="none" /><path id="911" transform="matrix(1 0 0 -1 0 792)" d="M182.331 414.07L212.569 414.07" stroke="#000000" stroke-width="0.75" stroke-linecap="square" fill="none" /><path id="915" transform="matrix(1 0 0 -1 0 792)" d="M212.569 429.62L212.569 414.07" stroke="#000000" stroke-width="0.75" stroke-linecap="square" fill="none" /><path id="916" transform="matrix(1 0 0 -1 0 792)" d="M212.569 429.62L503.908 429.62L503.908 429.62L503.908 414.07" stroke="#000000" stroke-width="0.75" stroke-linecap="square" fill="none" /><path id="917" transform="matrix(1 0 0 -1 0 792)" d="M212.569 414.07L503.908 414.07" stroke="#000000" stroke-width="0.75" stroke-linecap="square" fill="none" /><path id="932" transform="matrix(1 0 0 -1 0 792)" d="M503.908 428.87L503.908 414.82" stroke="#000000" stroke-width="0.75" stroke-linecap="square" fill="none" /><path id="933" transform="matrix(1 0 0 -1 0 792)" d="M108.092 414.07L108.092 398.52" stroke="#000000" stroke-width="0.75" stroke-linecap="square" fill="none" /><path id="934" transform="matrix(1 0 0 -1 0 792)" d="M108.092 414.07L182.331 414.07L182.331 414.07L182.331 398.52" stroke="#000000" stroke-width="0.75" stroke-linecap="square" fill="none" /><path id="935" transform="matrix(1 0 0 -1 0 792)" d="M108.092 398.52L182.331 398.52" stroke="#000000" stroke-width="0.75" stroke-linecap="square" fill="none" /><path id="951" transform="matrix(1 0 0 -1 0 792)" d="M108.092 413.32L108.092 399.27" stroke="#000000" stroke-width="0.75" stroke-linecap="square" fill="none" /><path id="952" transform="matrix(1 0 0 -1 0 792)" d="M182.331 414.07L182.331 398.52" stroke="#000000" stroke-width="0.75" stroke-linecap="square" fill="none" /><path id="953" transform="matrix(1 0 0 -1 0 792)" d="M182.331 414.07L212.569 414.07L212.569 414.07L212.569 398.52" stroke="#000000" stroke-width="0.75" stroke-linecap="square" fill="none" /><path id="954" transform="matrix(1 0 0 -1 0 792)" d="M182.331 398.52L212.569 398.52" stroke="#000000" stroke-width="0.75" stroke-linecap="square" fill="none" /><path id="959" transform="matrix(1 0 0 -1 0 792)" d="M212.569 414.07L212.569 398.52" stroke="#000000" stroke-width="0.75" stroke-linecap="square" fill="none" /><path id="960" transform="matrix(1 0 0 -1 0 792)" d="M212.569 414.07L503.908 414.07L503.908 414.07L503.908 398.52" stroke="#000000" stroke-width="0.75" stroke-linecap="square" fill="none" /><path id="961" transform="matrix(1 0 0 -1 0 792)" d="M212.569 398.52L503.908 398.52" stroke="#000000" stroke-width="0.75" stroke-linecap="square" fill="none" /><path id="984" transform="matrix(1 0 0 -1 0 792)" d="M503.908 413.32L503.908 399.27" stroke="#000000" stroke-width="0.75" stroke-linecap="square" fill="none" /><path id="985" transform="matrix(1 0 0 -1 0 792)" d="M108.092 398.52L108.092 382.97" stroke="#000000" stroke-width="0.75" stroke-linecap="square" fill="none" /><path id="986" transform="matrix(1 0 0 -1 0 792)" d="M108.092 398.52L182.331 398.52L182.331 398.52L182.331 382.97" stroke="#000000" stroke-width="0.75" stroke-linecap="square" fill="none" /><path id="987" transform="matrix(1 0 0 -1 0 792)" d="M108.092 382.97L182.331 382.97" stroke="#000000" stroke-width="0.75" stroke-linecap="square" fill="none" /><path id="997" transform="matrix(1 0 0 -1 0 792)" d="M108.092 397.77L108.092 382.97L108.092 382.97L181.581 382.97" stroke="#000000" stroke-width="0.75" stroke-linecap="square" fill="none" /><path id="998" transform="matrix(1 0 0 -1 0 792)" d="M182.331 398.52L182.331 382.97" stroke="#000000" stroke-width="0.75" stroke-linecap="square" fill="none" /><path id="999" transform="matrix(1 0 0 -1 0 792)" d="M182.331 398.52L212.569 398.52L212.569 398.52L212.569 382.97" stroke="#000000" stroke-width="0.75" stroke-linecap="square" fill="none" /><path id="1000" transform="matrix(1 0 0 -1 0 792)" d="M182.331 382.97L212.569 382.97" stroke="#000000" stroke-width="0.75" stroke-linecap="square" fill="none" /><path id="1008" transform="matrix(1 0 0 -1 0 792)" d="M183.081 382.97L211.819 382.97" stroke="#000000" stroke-width="0.75" stroke-linecap="square" fill="none" /><path id="1009" transform="matrix(1 0 0 -1 0 792)" d="M212.569 398.52L212.569 382.97" stroke="#000000" stroke-width="0.75" stroke-linecap="square" fill="none" /><path id="1010" transform="matrix(1 0 0 -1 0 792)" d="M212.569 398.52L503.908 398.52L503.908 398.52L503.908 382.97" stroke="#000000" stroke-width="0.75" stroke-linecap="square" fill="none" /><path id="1011" transform="matrix(1 0 0 -1 0 792)" d="M212.569 382.97L503.908 382.97" stroke="#000000" stroke-width="0.75" stroke-linecap="square" fill="none" /><path id="1056" transform="matrix(1 0 0 -1 0 792)" d="M503.908 397.77L503.908 382.97" stroke="#000000" stroke-width="0.75" stroke-linecap="square" fill="none" /><path id="1057" transform="matrix(1 0 0 -1 0 792)" d="M213.319 382.97L503.908 382.97" stroke="#000000" stroke-width="0.75" stroke-linecap="square" fill="none" /><g transform="matrix(0.4806173 0 0 0.4805866 122.644 419.99)"><g transform="matrix(1 0 0 1 0 0)"><image x="0" y="0" xlink:href="img_186.png" width="776" height="283" /></g></g></g></g></svg>