<svg xmlns="http://www.w3.org/2000/svg" xmlns:xlink="http://www.w3.org/1999/xlink" id="body_92" preserveAspectRatio="xMinYMin meet" viewBox="0 0 816 1056"><defs><clipPath id="1"><path id="" clip-rule="evenodd" transform="matrix(1 0 0 1 0 0)" d="M0 792L0 0L0 0L612 0L612 0L612 792L612 792L0 792z" /></clipPath><clipPath id="2"><path id="" clip-rule="evenodd" transform="matrix(1 0 0 1 0 0)" d="M-20.26273 638.4862L633.0577 638.4862L633.0577 638.4862L633.0577 400.7834L633.0577 400.7834L-20.26273 400.7834z" /></clipPath></defs><g transform="matrix(1.333333 0 0 1.333333 0 0)"><g clip-path="url(#1)"><g clip-path="url(#2)"><g transform="matrix(0.8230678 0 0 0.8230669 113.2387 400.7859)"><g transform="matrix(1 0 0 1 0 0)"><image x="0" y="0" xlink:href="img_147.png" width="476" height="286" /></g></g></g><g transform="matrix(0.4787266 0 0 0.4786473 177.0049 193.5704)"><g transform="matrix(1 0 0 1 0 0)"><image x="0" y="0" xlink:href="img_148.png" width="544" height="240" /></g></g></g></g></svg>