<svg xmlns="http://www.w3.org/2000/svg" xmlns:xlink="http://www.w3.org/1999/xlink" id="body_22" preserveAspectRatio="xMinYMin meet" viewBox="0 0 816 1056"><defs><clipPath id="1"><path id="" clip-rule="evenodd" transform="matrix(1 0 0 1 0 0)" d="M0 792L0 0L0 0L612 0L612 0L612 792L612 792L0 792z" /></clipPath><clipPath id="2"><path id="" clip-rule="evenodd" transform="matrix(1 0 0 1 0 0)" d="M145.3979 426.1661L460.2032 426.1661L460.2032 426.1661L460.2032 208.7955L460.2032 208.7955L145.3979 208.7955z" /></clipPath><clipPath id="3"><path id="" clip-rule="evenodd" transform="matrix(1 0 0 1 0 0)" d="M59.83548 -83.58014L545.814 -83.58014L545.814 -83.58014L545.814 545.3094L545.814 545.3094L59.83548 545.3094z" /></clipPath><clipPath id="4"><path id="" clip-rule="evenodd" transform="matrix(1 0 0 1 0 0)" d="M145.3979 426.1661L460.2032 426.1661L460.2032 426.1661L460.2032 208.7955L460.2032 208.7955L145.3979 208.7955z" /></clipPath><clipPath id="5"><path id="" clip-rule="evenodd" transform="matrix(1 0 0 1 0 0)" d="M59.83548 -83.58014L545.814 -83.58014L545.814 -83.58014L545.814 545.3094L545.814 545.3094L59.83548 545.3094z" /></clipPath><clipPath id="6"><path id="" clip-rule="evenodd" transform="matrix(1 0 0 1 0 0)" d="M145.3979 426.1661L460.2032 426.1661L460.2032 426.1661L460.2032 208.7955L460.2032 208.7955L145.3979 208.7955z" /></clipPath><clipPath id="7"><path id="" clip-rule="evenodd" transform="matrix(1 0 0 1 0 0)" d="M59.83548 -83.58014L545.814 -83.58014L545.814 -83.58014L545.814 545.3094L545.814 545.3094L59.83548 545.3094z" /></clipPath></defs><g transform="matrix(1.333333 0 0 1.333333 0 0)"><g clip-path="url(#1)"><path id="505" transform="matrix(1 0 0 -1 0 792)" d="M108.092 317.17L108.092 290.32" stroke="#000000" stroke-width="0.75" stroke-linecap="square" fill="none" /><path id="506" transform="matrix(1 0 0 -1 0 792)" d="M108.092 317.17L169.638 317.17L169.638 317.17L169.638 290.32" stroke="#000000" stroke-width="0.75" stroke-linecap="square" fill="none" /><path id="507" transform="matrix(1 0 0 -1 0 792)" d="M108.092 290.32L169.638 290.32" stroke="#000000" stroke-width="0.75" stroke-linecap="square" fill="none" /><path id="514" transform="matrix(1 0 0 -1 0 792)" d="M108.092 317.17L108.092 291.07" stroke="#000000" stroke-width="0.75" stroke-linecap="square" fill="none" /><path id="515" transform="matrix(1 0 0 -1 0 792)" d="M108.092 317.17L168.888 317.17" stroke="#000000" stroke-width="0.75" stroke-linecap="square" fill="none" /><path id="516" transform="matrix(1 0 0 -1 0 792)" d="M169.638 317.17L169.638 290.32" stroke="#000000" stroke-width="0.75" stroke-linecap="square" fill="none" /><path id="517" transform="matrix(1 0 0 -1 0 792)" d="M169.638 317.17L255.589 317.17L255.589 317.17L255.589 290.32" stroke="#000000" stroke-width="0.75" stroke-linecap="square" fill="none" /><path id="518" transform="matrix(1 0 0 -1 0 792)" d="M169.638 290.32L255.589 290.32" stroke="#000000" stroke-width="0.75" stroke-linecap="square" fill="none" /><path id="538" transform="matrix(1 0 0 -1 0 792)" d="M170.388 317.17L254.839 317.17" stroke="#000000" stroke-width="0.75" stroke-linecap="square" fill="none" /><path id="539" transform="matrix(1 0 0 -1 0 792)" d="M255.589 317.17L255.589 290.32" stroke="#000000" stroke-width="0.75" stroke-linecap="square" fill="none" /><path id="540" transform="matrix(1 0 0 -1 0 792)" d="M255.589 317.17L503.908 317.17L503.908 317.17L503.908 290.32" stroke="#000000" stroke-width="0.75" stroke-linecap="square" fill="none" /><path id="541" transform="matrix(1 0 0 -1 0 792)" d="M255.589 290.32L503.908 290.32" stroke="#000000" stroke-width="0.75" stroke-linecap="square" fill="none" /><path id="553" transform="matrix(1 0 0 -1 0 792)" d="M256.339 317.17L503.908 317.17L503.908 317.17L503.908 291.07" stroke="#000000" stroke-width="0.75" stroke-linecap="square" fill="none" /><path id="554" transform="matrix(1 0 0 -1 0 792)" d="M108.092 290.32L108.092 222.07" stroke="#000000" stroke-width="0.75" stroke-linecap="square" fill="none" /><path id="555" transform="matrix(1 0 0 -1 0 792)" d="M108.092 290.32L169.638 290.32L169.638 290.32L169.638 222.07" stroke="#000000" stroke-width="0.75" stroke-linecap="square" fill="none" /><path id="556" transform="matrix(1 0 0 -1 0 792)" d="M108.092 222.07L169.638 222.07" stroke="#000000" stroke-width="0.75" stroke-linecap="square" fill="none" /><path id="564" transform="matrix(1 0 0 -1 0 792)" d="M108.092 289.57L108.092 222.82" stroke="#000000" stroke-width="0.75" stroke-linecap="square" fill="none" /><path id="565" transform="matrix(1 0 0 -1 0 792)" d="M169.638 290.32L169.638 263.97" stroke="#000000" stroke-width="0.75" stroke-linecap="square" fill="none" /><path id="566" transform="matrix(1 0 0 -1 0 792)" d="M169.638 290.32L255.589 290.32L255.589 290.32L255.589 263.97" stroke="#000000" stroke-width="0.75" stroke-linecap="square" fill="none" /><path id="567" transform="matrix(1 0 0 -1 0 792)" d="M169.638 263.97L255.589 263.97" stroke="#000000" stroke-width="0.75" stroke-linecap="square" fill="none" /><path id="575" transform="matrix(1 0 0 -1 0 792)" d="M255.589 290.32L255.589 263.97" stroke="#000000" stroke-width="0.75" stroke-linecap="square" fill="none" /><path id="576" transform="matrix(1 0 0 -1 0 792)" d="M255.589 290.32L503.908 290.32L503.908 290.32L503.908 263.97" stroke="#000000" stroke-width="0.75" stroke-linecap="square" fill="none" /><path id="577" transform="matrix(1 0 0 -1 0 792)" d="M255.589 263.97L503.908 263.97" stroke="#000000" stroke-width="0.75" stroke-linecap="square" fill="none" /><path id="656" transform="matrix(1 0 0 -1 0 792)" d="M503.908 289.57L503.908 264.72" stroke="#000000" stroke-width="0.75" stroke-linecap="square" fill="none" /><path id="657" transform="matrix(1 0 0 -1 0 792)" d="M169.638 263.97L169.638 237.62" stroke="#000000" stroke-width="0.75" stroke-linecap="square" fill="none" /><path id="658" transform="matrix(1 0 0 -1 0 792)" d="M169.638 263.97L255.589 263.97L255.589 263.97L255.589 237.62" stroke="#000000" stroke-width="0.75" stroke-linecap="square" fill="none" /><path id="659" transform="matrix(1 0 0 -1 0 792)" d="M169.638 237.62L255.589 237.62" stroke="#000000" stroke-width="0.75" stroke-linecap="square" fill="none" /><path id="672" transform="matrix(1 0 0 -1 0 792)" d="M255.589 263.97L255.589 237.62" stroke="#000000" stroke-width="0.75" stroke-linecap="square" fill="none" /><path id="673" transform="matrix(1 0 0 -1 0 792)" d="M255.589 263.97L503.908 263.97L503.908 263.97L503.908 237.62" stroke="#000000" stroke-width="0.75" stroke-linecap="square" fill="none" /><path id="674" transform="matrix(1 0 0 -1 0 792)" d="M255.589 237.62L503.908 237.62" stroke="#000000" stroke-width="0.75" stroke-linecap="square" fill="none" /><path id="750" transform="matrix(1 0 0 -1 0 792)" d="M503.908 263.22L503.908 238.37" stroke="#000000" stroke-width="0.75" stroke-linecap="square" fill="none" /><path id="751" transform="matrix(1 0 0 -1 0 792)" d="M169.638 237.62L169.638 222.07" stroke="#000000" stroke-width="0.75" stroke-linecap="square" fill="none" /><path id="752" transform="matrix(1 0 0 -1 0 792)" d="M169.638 237.62L255.589 237.62L255.589 237.62L255.589 222.07" stroke="#000000" stroke-width="0.75" stroke-linecap="square" fill="none" /><path id="753" transform="matrix(1 0 0 -1 0 792)" d="M169.638 222.07L255.589 222.07" stroke="#000000" stroke-width="0.75" stroke-linecap="square" fill="none" /><path id="765" transform="matrix(1 0 0 -1 0 792)" d="M255.589 237.62L255.589 222.07" stroke="#000000" stroke-width="0.75" stroke-linecap="square" fill="none" /><path id="766" transform="matrix(1 0 0 -1 0 792)" d="M255.589 237.62L503.908 237.62L503.908 237.62L503.908 222.07" stroke="#000000" stroke-width="0.75" stroke-linecap="square" fill="none" /><path id="767" transform="matrix(1 0 0 -1 0 792)" d="M255.589 222.07L503.908 222.07" stroke="#000000" stroke-width="0.75" stroke-linecap="square" fill="none" /><path id="814" transform="matrix(1 0 0 -1 0 792)" d="M503.908 236.87L503.908 222.82" stroke="#000000" stroke-width="0.75" stroke-linecap="square" fill="none" /><path id="815" transform="matrix(1 0 0 -1 0 792)" d="M108.092 222.07L108.092 132.22" stroke="#000000" stroke-width="0.75" stroke-linecap="square" fill="none" /><path id="816" transform="matrix(1 0 0 -1 0 792)" d="M108.092 222.07L169.638 222.07L169.638 222.07L169.638 132.22" stroke="#000000" stroke-width="0.75" stroke-linecap="square" fill="none" /><path id="817" transform="matrix(1 0 0 -1 0 792)" d="M108.092 132.22L169.638 132.22" stroke="#000000" stroke-width="0.75" stroke-linecap="square" fill="none" /><path id="829" transform="matrix(1 0 0 -1 0 792)" d="M108.092 221.32L108.092 132.97" stroke="#000000" stroke-width="0.75" stroke-linecap="square" fill="none" /><path id="830" transform="matrix(1 0 0 -1 0 792)" d="M169.638 222.07L169.638 195.72" stroke="#000000" stroke-width="0.75" stroke-linecap="square" fill="none" /><path id="831" transform="matrix(1 0 0 -1 0 792)" d="M169.638 222.07L255.589 222.07L255.589 222.07L255.589 195.72" stroke="#000000" stroke-width="0.75" stroke-linecap="square" fill="none" /><path id="832" transform="matrix(1 0 0 -1 0 792)" d="M169.638 195.72L255.589 195.72" stroke="#000000" stroke-width="0.75" stroke-linecap="square" fill="none" /><path id="844" transform="matrix(1 0 0 -1 0 792)" d="M255.589 222.07L255.589 195.72" stroke="#000000" stroke-width="0.75" stroke-linecap="square" fill="none" /><path id="845" transform="matrix(1 0 0 -1 0 792)" d="M255.589 222.07L503.908 222.07L503.908 222.07L503.908 195.72" stroke="#000000" stroke-width="0.75" stroke-linecap="square" fill="none" /><path id="846" transform="matrix(1 0 0 -1 0 792)" d="M255.589 195.72L503.908 195.72" stroke="#000000" stroke-width="0.75" stroke-linecap="square" fill="none" /><path id="923" transform="matrix(1 0 0 -1 0 792)" d="M503.908 221.32L503.908 196.47" stroke="#000000" stroke-width="0.75" stroke-linecap="square" fill="none" /><path id="924" transform="matrix(1 0 0 -1 0 792)" d="M169.638 195.72L169.638 158.57" stroke="#000000" stroke-width="0.75" stroke-linecap="square" fill="none" /><path id="925" transform="matrix(1 0 0 -1 0 792)" d="M169.638 195.72L255.589 195.72L255.589 195.72L255.589 158.57" stroke="#000000" stroke-width="0.75" stroke-linecap="square" fill="none" /><path id="926" transform="matrix(1 0 0 -1 0 792)" d="M169.638 158.57L255.589 158.57" stroke="#000000" stroke-width="0.75" stroke-linecap="square" fill="none" /><path id="938" transform="matrix(1 0 0 -1 0 792)" d="M255.589 195.72L255.589 158.57" stroke="#000000" stroke-width="0.75" stroke-linecap="square" fill="none" /><path id="939" transform="matrix(1 0 0 -1 0 792)" d="M255.589 195.72L503.908 195.72L503.908 195.72L503.908 158.57" stroke="#000000" stroke-width="0.75" stroke-linecap="square" fill="none" /><path id="940" transform="matrix(1 0 0 -1 0 792)" d="M255.589 158.57L503.908 158.57" stroke="#000000" stroke-width="0.75" stroke-linecap="square" fill="none" /><path id="1064" transform="matrix(1 0 0 -1 0 792)" d="M503.908 194.97L503.908 159.32" stroke="#000000" stroke-width="0.75" stroke-linecap="square" fill="none" /><path id="1065" transform="matrix(1 0 0 -1 0 792)" d="M169.638 158.57L169.638 132.22" stroke="#000000" stroke-width="0.75" stroke-linecap="square" fill="none" /><path id="1066" transform="matrix(1 0 0 -1 0 792)" d="M169.638 158.57L255.589 158.57L255.589 158.57L255.589 132.22" stroke="#000000" stroke-width="0.75" stroke-linecap="square" fill="none" /><path id="1067" transform="matrix(1 0 0 -1 0 792)" d="M169.638 132.22L255.589 132.22" stroke="#000000" stroke-width="0.75" stroke-linecap="square" fill="none" /><path id="1078" transform="matrix(1 0 0 -1 0 792)" d="M255.589 158.57L255.589 132.22" stroke="#000000" stroke-width="0.75" stroke-linecap="square" fill="none" /><path id="1079" transform="matrix(1 0 0 -1 0 792)" d="M255.589 158.57L503.908 158.57L503.908 158.57L503.908 132.22" stroke="#000000" stroke-width="0.75" stroke-linecap="square" fill="none" /><path id="1080" transform="matrix(1 0 0 -1 0 792)" d="M255.589 132.22L503.908 132.22" stroke="#000000" stroke-width="0.75" stroke-linecap="square" fill="none" /><path id="1190" transform="matrix(1 0 0 -1 0 792)" d="M503.908 157.82L503.908 132.97" stroke="#000000" stroke-width="0.75" stroke-linecap="square" fill="none" /><path id="1191" transform="matrix(1 0 0 -1 0 792)" d="M378.9279 552.517L228.2507 552.517C 221.2858 552.517 215.6518 555.7751 215.6518 559.7956L215.6518 559.7956L215.6518 575.9321C 215.6518 579.928 221.2858 583.2028 228.2507 583.2028L228.2507 583.2028L378.9279 583.2028C 385.8856 583.2028 391.5204 579.928 391.5204 575.9321L391.5204 575.9321L391.5204 559.7956C 391.5204 555.7751 385.8856 552.517 378.9279 552.517" stroke="none" fill="#B03124" fill-rule="evenodd" /><path id="1224" transform="matrix(1 0 0 -1 0 792)" d="M230.4821 458.5697L158.963 458.5697C 151.478 458.5697 145.3969 462.4829 145.3969 467.2887L145.3969 467.2887L145.3969 520.4644C 145.3969 525.2702 151.478 529.1676 158.963 529.1676L158.963 529.1676L230.4821 529.1676C 237.9687 529.1676 244.0538 525.2702 244.0538 520.4644L244.0538 520.4644L244.0538 467.2887C 244.0538 462.4829 237.9687 458.5697 230.4821 458.5697" stroke="none" fill="#ED7D30" fill-rule="evenodd" /><g clip-path="url(#2)"><g clip-path="url(#3)"></g></g><g clip-path="url(#4)"><g clip-path="url(#5)"></g></g><g clip-path="url(#6)"><g clip-path="url(#7)"></g></g><path id="1306" transform="matrix(1 0 0 -1 0 792)" d="M341.6451 458.5697L270.9042 458.5697C 263.4962 458.5697 257.4827 462.4829 257.4827 467.2887L257.4827 467.2887L257.4827 520.4644C 257.4827 525.2702 263.4962 529.1676 270.9042 529.1676L270.9042 529.1676L341.6451 529.1676C 349.0459 529.1676 355.0667 525.2702 355.0667 520.4644L355.0667 520.4644L355.0667 467.2887C 355.0667 462.4829 349.0459 458.5697 341.6451 458.5697" stroke="none" fill="#9DC3E5" fill-rule="evenodd" /><path id="1379" transform="matrix(1 0 0 -1 0 792)" d="M447.5727 458.5697L381.1017 458.5697C 374.1439 458.5697 368.4948 462.4829 368.4948 467.2887L368.4948 467.2887L368.4948 520.4644C 368.4948 525.2702 374.1439 529.1676 381.1017 529.1676L381.1017 529.1676L447.5727 529.1676C 454.5233 529.1676 460.1796 525.2702 460.1796 520.4644L460.1796 520.4644L460.1796 467.2887C 460.1796 462.4829 454.5233 458.5697 447.5727 458.5697" stroke="none" fill="#B1B3B5" fill-rule="evenodd" /><path id="1428" transform="matrix(1 0 0 -1 0 792)" d="M286.7933 365.8492L215.2743 365.8492C 207.7893 365.8492 201.7082 369.7648 201.7082 374.569L201.7082 374.569L201.7082 427.7431C 201.7082 432.5481 207.7893 436.4478 215.2743 436.4478L215.2743 436.4478L286.7933 436.4478C 294.2799 436.4478 300.365 432.5481 300.365 427.7431L300.365 427.7431L300.365 374.569C 300.365 369.7648 294.2799 365.8492 286.7933 365.8492" stroke="none" fill="#FFD967" fill-rule="evenodd" /><path id="1515" transform="matrix(1 0 0 -1 0 792)" d="M398.4201 365.8492L327.2862 365.8492C 319.8424 365.8492 313.7931 369.7648 313.7931 374.569L313.7931 374.569L313.7931 427.7431C 313.7931 432.5481 319.8424 436.4478 327.2862 436.4478L327.2862 436.4478L398.4201 436.4478C 405.8638 436.4478 411.9131 432.5481 411.9131 427.7431L411.9131 427.7431L411.9131 374.569C 411.9131 369.7648 405.8638 365.8492 398.4201 365.8492" stroke="none" fill="#BD912D" fill-rule="evenodd" /><path id="1605" transform="matrix(1 0 0 -1 0 792)" d="M186.7929 534.0222L189.3737 529.3879L191.0595 534.5295M291.4482 544.5183L188.3858 544.5183L188.4644 533.4575L189.5372 533.4655L189.4626 543.9124L188.9266 543.2899L291.4482 543.2899z" stroke="none" fill="#221E1F" fill-rule="nonzero" /><path id="1606" transform="matrix(1 0 0 -1 0 792)" d="M419.9371 534.0142L418.1925 528.8971L415.661 533.564M291.2696 544.5183L418.3283 544.5183L418.3998 532.9827L417.327 532.9739L417.2627 543.8958L417.7987 543.2899L291.2696 543.2899z" stroke="none" fill="#221E1F" fill-rule="nonzero" /><path id="1607" transform="matrix(1 0 0 -1 0 792)" d="M307.3597 533.5902L305.2141 528.6772L303.0693 533.5902M304.6782 552.5021L305.751 552.5021L305.751 532.7715L304.6782 532.7715z" stroke="none" fill="#221E1F" fill-rule="nonzero" /><path id="1608" transform="matrix(1 0 0 -1 0 792)" d="M253.193 441.3813L251.0474 436.4691L248.9026 441.3813M250.5114 543.9061L251.5842 543.9061L251.5842 440.5626L250.5114 440.5626z" stroke="none" fill="#221E1F" fill-rule="nonzero" /><path id="1609" transform="matrix(1 0 0 -1 0 792)" d="M363.1337 441.3813L360.9889 436.4691L358.8433 441.3813M360.4529 543.9061L361.5249 543.9061L361.5249 440.5626L360.4529 440.5626z" stroke="none" fill="#221E1F" fill-rule="nonzero" /></g></g></svg>