<svg xmlns="http://www.w3.org/2000/svg" xmlns:xlink="http://www.w3.org/1999/xlink" id="body_116" preserveAspectRatio="xMinYMin meet" viewBox="0 0 816 1056"><defs><clipPath id="1"><path id="" clip-rule="evenodd" transform="matrix(1 0 0 1 0 0)" d="M0 792L0 0L0 0L612 0L612 0L612 792L612 792L0 792z" /></clipPath></defs><g transform="matrix(1.333333 0 0 1.333333 0 0)"><g clip-path="url(#1)"><g transform="matrix(0.4799397 0 0 0.4798301 156.945 120.334)"><g transform="matrix(1 0 0 1 0 0)"><image x="0" y="0" xlink:href="img_205.png" width="597" height="459" /></g></g><g transform="matrix(0.4794575 0 0 0.4796109 130.593 366.222)"><g transform="matrix(1 0 0 1 0 0)"><image x="0" y="0" xlink:href="img_206.png" width="706" height="383" /></g></g></g></g></svg>