<svg xmlns="http://www.w3.org/2000/svg" xmlns:xlink="http://www.w3.org/1999/xlink" id="body_65" preserveAspectRatio="xMinYMin meet" viewBox="0 0 816 1056"><defs><clipPath id="1"><path id="" clip-rule="evenodd" transform="matrix(1 0 0 1 0 0)" d="M0 792L0 0L0 0L612 0L612 0L612 792L612 792L0 792z" /></clipPath></defs><g transform="matrix(1.333333 0 0 1.333333 0 0)"><g clip-path="url(#1)"><path id="591" transform="matrix(1 0 0 -1 0 792)" d="M108.092 526.72L108.092 510.67" stroke="#000000" stroke-width="0.75" stroke-linecap="square" fill="none" /><path id="592" transform="matrix(1 0 0 -1 0 792)" d="M108.092 526.72L157.54 526.72L157.54 526.72L157.54 510.67" stroke="#000000" stroke-width="0.75" stroke-linecap="square" fill="none" /><path id="593" transform="matrix(1 0 0 -1 0 792)" d="M108.092 510.67L157.54 510.67" stroke="#000000" stroke-width="0.75" stroke-linecap="square" fill="none" /><path id="601" transform="matrix(1 0 0 -1 0 792)" d="M108.092 526.72L108.092 511.42" stroke="#000000" stroke-width="0.75" stroke-linecap="square" fill="none" /><path id="602" transform="matrix(1 0 0 -1 0 792)" d="M108.092 526.72L156.79 526.72" stroke="#000000" stroke-width="0.75" stroke-linecap="square" fill="none" /><path id="603" transform="matrix(1 0 0 -1 0 792)" d="M157.54 526.72L157.54 510.67" stroke="#000000" stroke-width="0.75" stroke-linecap="square" fill="none" /><path id="604" transform="matrix(1 0 0 -1 0 792)" d="M157.54 526.72L331.884 526.72L331.884 526.72L331.884 510.67" stroke="#000000" stroke-width="0.75" stroke-linecap="square" fill="none" /><path id="605" transform="matrix(1 0 0 -1 0 792)" d="M157.54 510.67L331.884 510.67" stroke="#000000" stroke-width="0.75" stroke-linecap="square" fill="none" /><path id="615" transform="matrix(1 0 0 -1 0 792)" d="M158.29 526.72L331.134 526.72" stroke="#000000" stroke-width="0.75" stroke-linecap="square" fill="none" /><path id="616" transform="matrix(1 0 0 -1 0 792)" d="M331.884 526.72L331.884 510.67" stroke="#000000" stroke-width="0.75" stroke-linecap="square" fill="none" /><path id="617" transform="matrix(1 0 0 -1 0 792)" d="M331.884 526.72L503.908 526.72L503.908 526.72L503.908 510.67" stroke="#000000" stroke-width="0.75" stroke-linecap="square" fill="none" /><path id="618" transform="matrix(1 0 0 -1 0 792)" d="M331.884 510.67L503.908 510.67" stroke="#000000" stroke-width="0.75" stroke-linecap="square" fill="none" /><path id="623" transform="matrix(1 0 0 -1 0 792)" d="M332.634 526.72L503.908 526.72L503.908 526.72L503.908 511.42" stroke="#000000" stroke-width="0.75" stroke-linecap="square" fill="none" /><path id="624" transform="matrix(1 0 0 -1 0 792)" d="M108.092 510.67L108.092 432.92" stroke="#000000" stroke-width="0.75" stroke-linecap="square" fill="none" /><path id="625" transform="matrix(1 0 0 -1 0 792)" d="M108.092 510.67L157.54 510.67L157.54 510.67L157.54 432.92" stroke="#000000" stroke-width="0.75" stroke-linecap="square" fill="none" /><path id="626" transform="matrix(1 0 0 -1 0 792)" d="M108.092 432.92L157.54 432.92" stroke="#000000" stroke-width="0.75" stroke-linecap="square" fill="none" /><path id="633" transform="matrix(1 0 0 -1 0 792)" d="M108.092 509.92L108.092 433.67" stroke="#000000" stroke-width="0.75" stroke-linecap="square" fill="none" /><path id="634" transform="matrix(1 0 0 -1 0 792)" d="M157.54 510.67L157.54 495.12" stroke="#000000" stroke-width="0.75" stroke-linecap="square" fill="none" /><path id="635" transform="matrix(1 0 0 -1 0 792)" d="M157.54 510.67L331.884 510.67L331.884 510.67L331.884 495.12" stroke="#000000" stroke-width="0.75" stroke-linecap="square" fill="none" /><path id="636" transform="matrix(1 0 0 -1 0 792)" d="M157.54 495.12L331.884 495.12" stroke="#000000" stroke-width="0.75" stroke-linecap="square" fill="none" /><path id="654" transform="matrix(1 0 0 -1 0 792)" d="M331.884 510.67L331.884 495.12" stroke="#000000" stroke-width="0.75" stroke-linecap="square" fill="none" /><path id="655" transform="matrix(1 0 0 -1 0 792)" d="M331.884 510.67L503.908 510.67L503.908 510.67L503.908 495.12" stroke="#000000" stroke-width="0.75" stroke-linecap="square" fill="none" /><path id="656" transform="matrix(1 0 0 -1 0 792)" d="M331.884 495.12L503.908 495.12" stroke="#000000" stroke-width="0.75" stroke-linecap="square" fill="none" /><path id="667" transform="matrix(1 0 0 -1 0 792)" d="M503.908 509.92L503.908 495.87" stroke="#000000" stroke-width="0.75" stroke-linecap="square" fill="none" /><path id="668" transform="matrix(1 0 0 -1 0 792)" d="M157.54 495.12L157.54 479.57" stroke="#000000" stroke-width="0.75" stroke-linecap="square" fill="none" /><path id="669" transform="matrix(1 0 0 -1 0 792)" d="M157.54 495.12L331.884 495.12L331.884 495.12L331.884 479.57" stroke="#000000" stroke-width="0.75" stroke-linecap="square" fill="none" /><path id="670" transform="matrix(1 0 0 -1 0 792)" d="M157.54 479.57L331.884 479.57" stroke="#000000" stroke-width="0.75" stroke-linecap="square" fill="none" /><path id="677" transform="matrix(1 0 0 -1 0 792)" d="M331.884 495.12L331.884 479.57" stroke="#000000" stroke-width="0.75" stroke-linecap="square" fill="none" /><path id="678" transform="matrix(1 0 0 -1 0 792)" d="M331.884 495.12L503.908 495.12L503.908 495.12L503.908 479.57" stroke="#000000" stroke-width="0.75" stroke-linecap="square" fill="none" /><path id="679" transform="matrix(1 0 0 -1 0 792)" d="M331.884 479.57L503.908 479.57" stroke="#000000" stroke-width="0.75" stroke-linecap="square" fill="none" /><path id="690" transform="matrix(1 0 0 -1 0 792)" d="M503.908 494.37L503.908 480.32" stroke="#000000" stroke-width="0.75" stroke-linecap="square" fill="none" /><path id="691" transform="matrix(1 0 0 -1 0 792)" d="M157.54 479.57L157.54 464.02" stroke="#000000" stroke-width="0.75" stroke-linecap="square" fill="none" /><path id="692" transform="matrix(1 0 0 -1 0 792)" d="M157.54 479.57L331.884 479.57L331.884 479.57L331.884 464.02" stroke="#000000" stroke-width="0.75" stroke-linecap="square" fill="none" /><path id="693" transform="matrix(1 0 0 -1 0 792)" d="M157.54 464.02L331.884 464.02" stroke="#000000" stroke-width="0.75" stroke-linecap="square" fill="none" /><path id="706" transform="matrix(1 0 0 -1 0 792)" d="M331.884 479.57L331.884 464.02" stroke="#000000" stroke-width="0.75" stroke-linecap="square" fill="none" /><path id="707" transform="matrix(1 0 0 -1 0 792)" d="M331.884 479.57L503.908 479.57L503.908 479.57L503.908 464.02" stroke="#000000" stroke-width="0.75" stroke-linecap="square" fill="none" /><path id="708" transform="matrix(1 0 0 -1 0 792)" d="M331.884 464.02L503.908 464.02" stroke="#000000" stroke-width="0.75" stroke-linecap="square" fill="none" /><path id="719" transform="matrix(1 0 0 -1 0 792)" d="M503.908 478.82L503.908 464.77" stroke="#000000" stroke-width="0.75" stroke-linecap="square" fill="none" /><path id="720" transform="matrix(1 0 0 -1 0 792)" d="M157.54 464.02L157.54 448.47" stroke="#000000" stroke-width="0.75" stroke-linecap="square" fill="none" /><path id="721" transform="matrix(1 0 0 -1 0 792)" d="M157.54 464.02L331.884 464.02L331.884 464.02L331.884 448.47" stroke="#000000" stroke-width="0.75" stroke-linecap="square" fill="none" /><path id="722" transform="matrix(1 0 0 -1 0 792)" d="M157.54 448.47L331.884 448.47" stroke="#000000" stroke-width="0.75" stroke-linecap="square" fill="none" /><path id="726" transform="matrix(1 0 0 -1 0 792)" d="M331.884 464.02L331.884 448.47" stroke="#000000" stroke-width="0.75" stroke-linecap="square" fill="none" /><path id="727" transform="matrix(1 0 0 -1 0 792)" d="M331.884 464.02L503.908 464.02L503.908 464.02L503.908 448.47" stroke="#000000" stroke-width="0.75" stroke-linecap="square" fill="none" /><path id="728" transform="matrix(1 0 0 -1 0 792)" d="M331.884 448.47L503.908 448.47" stroke="#000000" stroke-width="0.75" stroke-linecap="square" fill="none" /><path id="743" transform="matrix(1 0 0 -1 0 792)" d="M503.908 463.27L503.908 449.22" stroke="#000000" stroke-width="0.75" stroke-linecap="square" fill="none" /><path id="744" transform="matrix(1 0 0 -1 0 792)" d="M157.54 448.47L157.54 432.92" stroke="#000000" stroke-width="0.75" stroke-linecap="square" fill="none" /><path id="745" transform="matrix(1 0 0 -1 0 792)" d="M157.54 448.47L331.884 448.47L331.884 448.47L331.884 432.92" stroke="#000000" stroke-width="0.75" stroke-linecap="square" fill="none" /><path id="746" transform="matrix(1 0 0 -1 0 792)" d="M157.54 432.92L331.884 432.92" stroke="#000000" stroke-width="0.75" stroke-linecap="square" fill="none" /><path id="750" transform="matrix(1 0 0 -1 0 792)" d="M331.884 448.47L331.884 432.92" stroke="#000000" stroke-width="0.75" stroke-linecap="square" fill="none" /><path id="751" transform="matrix(1 0 0 -1 0 792)" d="M331.884 448.47L503.908 448.47L503.908 448.47L503.908 432.92" stroke="#000000" stroke-width="0.75" stroke-linecap="square" fill="none" /><path id="752" transform="matrix(1 0 0 -1 0 792)" d="M331.884 432.92L503.908 432.92" stroke="#000000" stroke-width="0.75" stroke-linecap="square" fill="none" /><path id="767" transform="matrix(1 0 0 -1 0 792)" d="M503.908 447.72L503.908 433.67" stroke="#000000" stroke-width="0.75" stroke-linecap="square" fill="none" /><path id="768" transform="matrix(1 0 0 -1 0 792)" d="M108.092 432.92L108.092 355.17" stroke="#000000" stroke-width="0.75" stroke-linecap="square" fill="none" /><path id="769" transform="matrix(1 0 0 -1 0 792)" d="M108.092 432.92L157.54 432.92L157.54 432.92L157.54 355.17" stroke="#000000" stroke-width="0.75" stroke-linecap="square" fill="none" /><path id="770" transform="matrix(1 0 0 -1 0 792)" d="M108.092 355.17L157.54 355.17" stroke="#000000" stroke-width="0.75" stroke-linecap="square" fill="none" /><path id="776" transform="matrix(1 0 0 -1 0 792)" d="M108.092 432.17L108.092 355.92" stroke="#000000" stroke-width="0.75" stroke-linecap="square" fill="none" /><path id="777" transform="matrix(1 0 0 -1 0 792)" d="M157.54 432.92L157.54 417.37" stroke="#000000" stroke-width="0.75" stroke-linecap="square" fill="none" /><path id="778" transform="matrix(1 0 0 -1 0 792)" d="M157.54 432.92L331.884 432.92L331.884 432.92L331.884 417.37" stroke="#000000" stroke-width="0.75" stroke-linecap="square" fill="none" /><path id="779" transform="matrix(1 0 0 -1 0 792)" d="M157.54 417.37L331.884 417.37" stroke="#000000" stroke-width="0.75" stroke-linecap="square" fill="none" /><path id="796" transform="matrix(1 0 0 -1 0 792)" d="M331.884 432.92L331.884 417.37" stroke="#000000" stroke-width="0.75" stroke-linecap="square" fill="none" /><path id="797" transform="matrix(1 0 0 -1 0 792)" d="M331.884 432.92L503.908 432.92L503.908 432.92L503.908 417.37" stroke="#000000" stroke-width="0.75" stroke-linecap="square" fill="none" /><path id="798" transform="matrix(1 0 0 -1 0 792)" d="M331.884 417.37L503.908 417.37" stroke="#000000" stroke-width="0.75" stroke-linecap="square" fill="none" /><path id="809" transform="matrix(1 0 0 -1 0 792)" d="M503.908 432.17L503.908 418.12" stroke="#000000" stroke-width="0.75" stroke-linecap="square" fill="none" /><path id="810" transform="matrix(1 0 0 -1 0 792)" d="M157.54 417.37L157.54 401.82" stroke="#000000" stroke-width="0.75" stroke-linecap="square" fill="none" /><path id="811" transform="matrix(1 0 0 -1 0 792)" d="M157.54 417.37L331.884 417.37L331.884 417.37L331.884 401.82" stroke="#000000" stroke-width="0.75" stroke-linecap="square" fill="none" /><path id="812" transform="matrix(1 0 0 -1 0 792)" d="M157.54 401.82L331.884 401.82" stroke="#000000" stroke-width="0.75" stroke-linecap="square" fill="none" /><path id="816" transform="matrix(1 0 0 -1 0 792)" d="M331.884 417.37L331.884 401.82" stroke="#000000" stroke-width="0.75" stroke-linecap="square" fill="none" /><path id="817" transform="matrix(1 0 0 -1 0 792)" d="M331.884 417.37L503.908 417.37L503.908 417.37L503.908 401.82" stroke="#000000" stroke-width="0.75" stroke-linecap="square" fill="none" /><path id="818" transform="matrix(1 0 0 -1 0 792)" d="M331.884 401.82L503.908 401.82" stroke="#000000" stroke-width="0.75" stroke-linecap="square" fill="none" /><path id="833" transform="matrix(1 0 0 -1 0 792)" d="M503.908 416.62L503.908 402.57" stroke="#000000" stroke-width="0.75" stroke-linecap="square" fill="none" /><path id="834" transform="matrix(1 0 0 -1 0 792)" d="M157.54 401.82L157.54 386.27" stroke="#000000" stroke-width="0.75" stroke-linecap="square" fill="none" /><path id="835" transform="matrix(1 0 0 -1 0 792)" d="M157.54 401.82L331.884 401.82L331.884 401.82L331.884 386.27" stroke="#000000" stroke-width="0.75" stroke-linecap="square" fill="none" /><path id="836" transform="matrix(1 0 0 -1 0 792)" d="M157.54 386.27L331.884 386.27" stroke="#000000" stroke-width="0.75" stroke-linecap="square" fill="none" /><path id="840" transform="matrix(1 0 0 -1 0 792)" d="M331.884 401.82L331.884 386.27" stroke="#000000" stroke-width="0.75" stroke-linecap="square" fill="none" /><path id="841" transform="matrix(1 0 0 -1 0 792)" d="M331.884 401.82L503.908 401.82L503.908 401.82L503.908 386.27" stroke="#000000" stroke-width="0.75" stroke-linecap="square" fill="none" /><path id="842" transform="matrix(1 0 0 -1 0 792)" d="M331.884 386.27L503.908 386.27" stroke="#000000" stroke-width="0.75" stroke-linecap="square" fill="none" /><path id="857" transform="matrix(1 0 0 -1 0 792)" d="M503.908 401.07L503.908 387.02" stroke="#000000" stroke-width="0.75" stroke-linecap="square" fill="none" /><path id="858" transform="matrix(1 0 0 -1 0 792)" d="M157.54 386.27L157.54 370.72" stroke="#000000" stroke-width="0.75" stroke-linecap="square" fill="none" /><path id="859" transform="matrix(1 0 0 -1 0 792)" d="M157.54 386.27L331.884 386.27L331.884 386.27L331.884 370.72" stroke="#000000" stroke-width="0.75" stroke-linecap="square" fill="none" /><path id="860" transform="matrix(1 0 0 -1 0 792)" d="M157.54 370.72L331.884 370.72" stroke="#000000" stroke-width="0.75" stroke-linecap="square" fill="none" /><path id="864" transform="matrix(1 0 0 -1 0 792)" d="M331.884 386.27L331.884 370.72" stroke="#000000" stroke-width="0.75" stroke-linecap="square" fill="none" /><path id="865" transform="matrix(1 0 0 -1 0 792)" d="M331.884 386.27L503.908 386.27L503.908 386.27L503.908 370.72" stroke="#000000" stroke-width="0.75" stroke-linecap="square" fill="none" /><path id="866" transform="matrix(1 0 0 -1 0 792)" d="M331.884 370.72L503.908 370.72" stroke="#000000" stroke-width="0.75" stroke-linecap="square" fill="none" /><path id="881" transform="matrix(1 0 0 -1 0 792)" d="M503.908 385.52L503.908 371.47" stroke="#000000" stroke-width="0.75" stroke-linecap="square" fill="none" /><path id="882" transform="matrix(1 0 0 -1 0 792)" d="M157.54 370.72L157.54 355.17" stroke="#000000" stroke-width="0.75" stroke-linecap="square" fill="none" /><path id="883" transform="matrix(1 0 0 -1 0 792)" d="M157.54 370.72L331.884 370.72L331.884 370.72L331.884 355.17" stroke="#000000" stroke-width="0.75" stroke-linecap="square" fill="none" /><path id="884" transform="matrix(1 0 0 -1 0 792)" d="M157.54 355.17L331.884 355.17" stroke="#000000" stroke-width="0.75" stroke-linecap="square" fill="none" /><path id="895" transform="matrix(1 0 0 -1 0 792)" d="M331.884 370.72L331.884 355.17" stroke="#000000" stroke-width="0.75" stroke-linecap="square" fill="none" /><path id="896" transform="matrix(1 0 0 -1 0 792)" d="M331.884 370.72L503.908 370.72L503.908 370.72L503.908 355.17" stroke="#000000" stroke-width="0.75" stroke-linecap="square" fill="none" /><path id="897" transform="matrix(1 0 0 -1 0 792)" d="M331.884 355.17L503.908 355.17" stroke="#000000" stroke-width="0.75" stroke-linecap="square" fill="none" /><path id="912" transform="matrix(1 0 0 -1 0 792)" d="M503.908 369.97L503.908 355.92" stroke="#000000" stroke-width="0.75" stroke-linecap="square" fill="none" /><path id="913" transform="matrix(1 0 0 -1 0 792)" d="M108.092 355.17L108.092 277.42" stroke="#000000" stroke-width="0.75" stroke-linecap="square" fill="none" /><path id="914" transform="matrix(1 0 0 -1 0 792)" d="M108.092 355.17L157.54 355.17L157.54 355.17L157.54 277.42" stroke="#000000" stroke-width="0.75" stroke-linecap="square" fill="none" /><path id="915" transform="matrix(1 0 0 -1 0 792)" d="M108.092 277.42L157.54 277.42" stroke="#000000" stroke-width="0.75" stroke-linecap="square" fill="none" /><path id="921" transform="matrix(1 0 0 -1 0 792)" d="M108.092 354.42L108.092 278.17" stroke="#000000" stroke-width="0.75" stroke-linecap="square" fill="none" /><path id="922" transform="matrix(1 0 0 -1 0 792)" d="M157.54 355.17L157.54 339.62" stroke="#000000" stroke-width="0.75" stroke-linecap="square" fill="none" /><path id="923" transform="matrix(1 0 0 -1 0 792)" d="M157.54 355.17L331.884 355.17L331.884 355.17L331.884 339.62" stroke="#000000" stroke-width="0.75" stroke-linecap="square" fill="none" /><path id="924" transform="matrix(1 0 0 -1 0 792)" d="M157.54 339.62L331.884 339.62" stroke="#000000" stroke-width="0.75" stroke-linecap="square" fill="none" /><path id="942" transform="matrix(1 0 0 -1 0 792)" d="M331.884 355.17L331.884 339.62" stroke="#000000" stroke-width="0.75" stroke-linecap="square" fill="none" /><path id="943" transform="matrix(1 0 0 -1 0 792)" d="M331.884 355.17L503.908 355.17L503.908 355.17L503.908 339.62" stroke="#000000" stroke-width="0.75" stroke-linecap="square" fill="none" /><path id="944" transform="matrix(1 0 0 -1 0 792)" d="M331.884 339.62L503.908 339.62" stroke="#000000" stroke-width="0.75" stroke-linecap="square" fill="none" /><path id="955" transform="matrix(1 0 0 -1 0 792)" d="M503.908 354.42L503.908 340.37" stroke="#000000" stroke-width="0.75" stroke-linecap="square" fill="none" /><path id="956" transform="matrix(1 0 0 -1 0 792)" d="M157.54 339.62L157.54 324.07" stroke="#000000" stroke-width="0.75" stroke-linecap="square" fill="none" /><path id="957" transform="matrix(1 0 0 -1 0 792)" d="M157.54 339.62L331.884 339.62L331.884 339.62L331.884 324.07" stroke="#000000" stroke-width="0.75" stroke-linecap="square" fill="none" /><path id="958" transform="matrix(1 0 0 -1 0 792)" d="M157.54 324.07L331.884 324.07" stroke="#000000" stroke-width="0.75" stroke-linecap="square" fill="none" /><path id="963" transform="matrix(1 0 0 -1 0 792)" d="M331.884 339.62L331.884 324.07" stroke="#000000" stroke-width="0.75" stroke-linecap="square" fill="none" /><path id="964" transform="matrix(1 0 0 -1 0 792)" d="M331.884 339.62L503.908 339.62L503.908 339.62L503.908 324.07" stroke="#000000" stroke-width="0.75" stroke-linecap="square" fill="none" /><path id="965" transform="matrix(1 0 0 -1 0 792)" d="M331.884 324.07L503.908 324.07" stroke="#000000" stroke-width="0.75" stroke-linecap="square" fill="none" /><path id="976" transform="matrix(1 0 0 -1 0 792)" d="M503.908 338.87L503.908 324.82" stroke="#000000" stroke-width="0.75" stroke-linecap="square" fill="none" /><path id="977" transform="matrix(1 0 0 -1 0 792)" d="M157.54 324.07L157.54 308.52" stroke="#000000" stroke-width="0.75" stroke-linecap="square" fill="none" /><path id="978" transform="matrix(1 0 0 -1 0 792)" d="M157.54 324.07L331.884 324.07L331.884 324.07L331.884 308.52" stroke="#000000" stroke-width="0.75" stroke-linecap="square" fill="none" /><path id="979" transform="matrix(1 0 0 -1 0 792)" d="M157.54 308.52L331.884 308.52" stroke="#000000" stroke-width="0.75" stroke-linecap="square" fill="none" /><path id="983" transform="matrix(1 0 0 -1 0 792)" d="M331.884 324.07L331.884 308.52" stroke="#000000" stroke-width="0.75" stroke-linecap="square" fill="none" /><path id="984" transform="matrix(1 0 0 -1 0 792)" d="M331.884 324.07L503.908 324.07L503.908 324.07L503.908 308.52" stroke="#000000" stroke-width="0.75" stroke-linecap="square" fill="none" /><path id="985" transform="matrix(1 0 0 -1 0 792)" d="M331.884 308.52L503.908 308.52" stroke="#000000" stroke-width="0.75" stroke-linecap="square" fill="none" /><path id="1000" transform="matrix(1 0 0 -1 0 792)" d="M503.908 323.32L503.908 309.27" stroke="#000000" stroke-width="0.75" stroke-linecap="square" fill="none" /><path id="1001" transform="matrix(1 0 0 -1 0 792)" d="M157.54 308.52L157.54 292.97" stroke="#000000" stroke-width="0.75" stroke-linecap="square" fill="none" /><path id="1002" transform="matrix(1 0 0 -1 0 792)" d="M157.54 308.52L331.884 308.52L331.884 308.52L331.884 292.97" stroke="#000000" stroke-width="0.75" stroke-linecap="square" fill="none" /><path id="1003" transform="matrix(1 0 0 -1 0 792)" d="M157.54 292.97L331.884 292.97" stroke="#000000" stroke-width="0.75" stroke-linecap="square" fill="none" /><path id="1014" transform="matrix(1 0 0 -1 0 792)" d="M331.884 308.52L331.884 292.97" stroke="#000000" stroke-width="0.75" stroke-linecap="square" fill="none" /><path id="1015" transform="matrix(1 0 0 -1 0 792)" d="M331.884 308.52L503.908 308.52L503.908 308.52L503.908 292.97" stroke="#000000" stroke-width="0.75" stroke-linecap="square" fill="none" /><path id="1016" transform="matrix(1 0 0 -1 0 792)" d="M331.884 292.97L503.908 292.97" stroke="#000000" stroke-width="0.75" stroke-linecap="square" fill="none" /><path id="1031" transform="matrix(1 0 0 -1 0 792)" d="M503.908 307.77L503.908 293.72" stroke="#000000" stroke-width="0.75" stroke-linecap="square" fill="none" /><path id="1032" transform="matrix(1 0 0 -1 0 792)" d="M157.54 292.97L157.54 277.42" stroke="#000000" stroke-width="0.75" stroke-linecap="square" fill="none" /><path id="1033" transform="matrix(1 0 0 -1 0 792)" d="M157.54 292.97L331.884 292.97L331.884 292.97L331.884 277.42" stroke="#000000" stroke-width="0.75" stroke-linecap="square" fill="none" /><path id="1034" transform="matrix(1 0 0 -1 0 792)" d="M157.54 277.42L331.884 277.42" stroke="#000000" stroke-width="0.75" stroke-linecap="square" fill="none" /><path id="1038" transform="matrix(1 0 0 -1 0 792)" d="M331.884 292.97L331.884 277.42" stroke="#000000" stroke-width="0.75" stroke-linecap="square" fill="none" /><path id="1039" transform="matrix(1 0 0 -1 0 792)" d="M331.884 292.97L503.908 292.97L503.908 292.97L503.908 277.42" stroke="#000000" stroke-width="0.75" stroke-linecap="square" fill="none" /><path id="1040" transform="matrix(1 0 0 -1 0 792)" d="M331.884 277.42L503.908 277.42" stroke="#000000" stroke-width="0.75" stroke-linecap="square" fill="none" /><path id="1055" transform="matrix(1 0 0 -1 0 792)" d="M503.908 292.22L503.908 278.17" stroke="#000000" stroke-width="0.75" stroke-linecap="square" fill="none" /><path id="1056" transform="matrix(1 0 0 -1 0 792)" d="M108.092 277.42L108.092 199.67" stroke="#000000" stroke-width="0.75" stroke-linecap="square" fill="none" /><path id="1057" transform="matrix(1 0 0 -1 0 792)" d="M108.092 277.42L157.54 277.42L157.54 277.42L157.54 199.67" stroke="#000000" stroke-width="0.75" stroke-linecap="square" fill="none" /><path id="1058" transform="matrix(1 0 0 -1 0 792)" d="M108.092 199.67L157.54 199.67" stroke="#000000" stroke-width="0.75" stroke-linecap="square" fill="none" /><path id="1064" transform="matrix(1 0 0 -1 0 792)" d="M108.092 276.67L108.092 199.67L108.092 199.67L156.79 199.67" stroke="#000000" stroke-width="0.75" stroke-linecap="square" fill="none" /><path id="1065" transform="matrix(1 0 0 -1 0 792)" d="M157.54 277.42L157.54 261.87" stroke="#000000" stroke-width="0.75" stroke-linecap="square" fill="none" /><path id="1066" transform="matrix(1 0 0 -1 0 792)" d="M157.54 277.42L331.884 277.42L331.884 277.42L331.884 261.87" stroke="#000000" stroke-width="0.75" stroke-linecap="square" fill="none" /><path id="1067" transform="matrix(1 0 0 -1 0 792)" d="M157.54 261.87L331.884 261.87" stroke="#000000" stroke-width="0.75" stroke-linecap="square" fill="none" /><path id="1071" transform="matrix(1 0 0 -1 0 792)" d="M331.884 277.42L331.884 261.87" stroke="#000000" stroke-width="0.75" stroke-linecap="square" fill="none" /><path id="1072" transform="matrix(1 0 0 -1 0 792)" d="M331.884 277.42L503.908 277.42L503.908 277.42L503.908 261.87" stroke="#000000" stroke-width="0.75" stroke-linecap="square" fill="none" /><path id="1073" transform="matrix(1 0 0 -1 0 792)" d="M331.884 261.87L503.908 261.87" stroke="#000000" stroke-width="0.75" stroke-linecap="square" fill="none" /><path id="1088" transform="matrix(1 0 0 -1 0 792)" d="M503.908 276.67L503.908 262.62" stroke="#000000" stroke-width="0.75" stroke-linecap="square" fill="none" /><path id="1089" transform="matrix(1 0 0 -1 0 792)" d="M157.54 261.87L157.54 246.32" stroke="#000000" stroke-width="0.75" stroke-linecap="square" fill="none" /><path id="1090" transform="matrix(1 0 0 -1 0 792)" d="M157.54 261.87L331.884 261.87L331.884 261.87L331.884 246.32" stroke="#000000" stroke-width="0.75" stroke-linecap="square" fill="none" /><path id="1091" transform="matrix(1 0 0 -1 0 792)" d="M157.54 246.32L331.884 246.32" stroke="#000000" stroke-width="0.75" stroke-linecap="square" fill="none" /><path id="1095" transform="matrix(1 0 0 -1 0 792)" d="M331.884 261.87L331.884 246.32" stroke="#000000" stroke-width="0.75" stroke-linecap="square" fill="none" /><path id="1096" transform="matrix(1 0 0 -1 0 792)" d="M331.884 261.87L503.908 261.87L503.908 261.87L503.908 246.32" stroke="#000000" stroke-width="0.75" stroke-linecap="square" fill="none" /><path id="1097" transform="matrix(1 0 0 -1 0 792)" d="M331.884 246.32L503.908 246.32" stroke="#000000" stroke-width="0.75" stroke-linecap="square" fill="none" /><path id="1112" transform="matrix(1 0 0 -1 0 792)" d="M503.908 261.12L503.908 247.07" stroke="#000000" stroke-width="0.75" stroke-linecap="square" fill="none" /><path id="1113" transform="matrix(1 0 0 -1 0 792)" d="M157.54 246.32L157.54 230.77" stroke="#000000" stroke-width="0.75" stroke-linecap="square" fill="none" /><path id="1114" transform="matrix(1 0 0 -1 0 792)" d="M157.54 246.32L331.884 246.32L331.884 246.32L331.884 230.77" stroke="#000000" stroke-width="0.75" stroke-linecap="square" fill="none" /><path id="1115" transform="matrix(1 0 0 -1 0 792)" d="M157.54 230.77L331.884 230.77" stroke="#000000" stroke-width="0.75" stroke-linecap="square" fill="none" /><path id="1132" transform="matrix(1 0 0 -1 0 792)" d="M331.884 246.32L331.884 230.77" stroke="#000000" stroke-width="0.75" stroke-linecap="square" fill="none" /><path id="1133" transform="matrix(1 0 0 -1 0 792)" d="M331.884 246.32L503.908 246.32L503.908 246.32L503.908 230.77" stroke="#000000" stroke-width="0.75" stroke-linecap="square" fill="none" /><path id="1134" transform="matrix(1 0 0 -1 0 792)" d="M331.884 230.77L503.908 230.77" stroke="#000000" stroke-width="0.75" stroke-linecap="square" fill="none" /><path id="1145" transform="matrix(1 0 0 -1 0 792)" d="M503.908 245.57L503.908 231.52" stroke="#000000" stroke-width="0.75" stroke-linecap="square" fill="none" /><path id="1146" transform="matrix(1 0 0 -1 0 792)" d="M157.54 230.77L157.54 215.22" stroke="#000000" stroke-width="0.75" stroke-linecap="square" fill="none" /><path id="1147" transform="matrix(1 0 0 -1 0 792)" d="M157.54 230.77L331.884 230.77L331.884 230.77L331.884 215.22" stroke="#000000" stroke-width="0.75" stroke-linecap="square" fill="none" /><path id="1148" transform="matrix(1 0 0 -1 0 792)" d="M157.54 215.22L331.884 215.22" stroke="#000000" stroke-width="0.75" stroke-linecap="square" fill="none" /><path id="1152" transform="matrix(1 0 0 -1 0 792)" d="M331.884 230.77L331.884 215.22" stroke="#000000" stroke-width="0.75" stroke-linecap="square" fill="none" /><path id="1153" transform="matrix(1 0 0 -1 0 792)" d="M331.884 230.77L503.908 230.77L503.908 230.77L503.908 215.22" stroke="#000000" stroke-width="0.75" stroke-linecap="square" fill="none" /><path id="1154" transform="matrix(1 0 0 -1 0 792)" d="M331.884 215.22L503.908 215.22" stroke="#000000" stroke-width="0.75" stroke-linecap="square" fill="none" /><path id="1169" transform="matrix(1 0 0 -1 0 792)" d="M503.908 230.02L503.908 215.97" stroke="#000000" stroke-width="0.75" stroke-linecap="square" fill="none" /><path id="1170" transform="matrix(1 0 0 -1 0 792)" d="M157.54 215.22L157.54 199.67" stroke="#000000" stroke-width="0.75" stroke-linecap="square" fill="none" /><path id="1171" transform="matrix(1 0 0 -1 0 792)" d="M157.54 215.22L331.884 215.22L331.884 215.22L331.884 199.67" stroke="#000000" stroke-width="0.75" stroke-linecap="square" fill="none" /><path id="1172" transform="matrix(1 0 0 -1 0 792)" d="M157.54 199.67L331.884 199.67" stroke="#000000" stroke-width="0.75" stroke-linecap="square" fill="none" /><path id="1183" transform="matrix(1 0 0 -1 0 792)" d="M158.29 199.67L331.134 199.67" stroke="#000000" stroke-width="0.75" stroke-linecap="square" fill="none" /><path id="1184" transform="matrix(1 0 0 -1 0 792)" d="M331.884 215.22L331.884 199.67" stroke="#000000" stroke-width="0.75" stroke-linecap="square" fill="none" /><path id="1185" transform="matrix(1 0 0 -1 0 792)" d="M331.884 215.22L503.908 215.22L503.908 215.22L503.908 199.67" stroke="#000000" stroke-width="0.75" stroke-linecap="square" fill="none" /><path id="1186" transform="matrix(1 0 0 -1 0 792)" d="M331.884 199.67L503.908 199.67" stroke="#000000" stroke-width="0.75" stroke-linecap="square" fill="none" /><path id="1201" transform="matrix(1 0 0 -1 0 792)" d="M503.908 214.47L503.908 199.67" stroke="#000000" stroke-width="0.75" stroke-linecap="square" fill="none" /><path id="1202" transform="matrix(1 0 0 -1 0 792)" d="M332.634 199.67L503.908 199.67" stroke="#000000" stroke-width="0.75" stroke-linecap="square" fill="none" /></g></g></svg>