<svg xmlns="http://www.w3.org/2000/svg" xmlns:xlink="http://www.w3.org/1999/xlink" id="body_104" preserveAspectRatio="xMinYMin meet" viewBox="0 0 816 1056"><defs><clipPath id="1"><path id="" clip-rule="evenodd" transform="matrix(1 0 0 1 0 0)" d="M0 792L0 0L0 0L612 0L612 0L612 792L612 792L0 792z" /></clipPath></defs><g transform="matrix(1.333333 0 0 1.333333 0 0)"><g clip-path="url(#1)"><path id="58" transform="matrix(1 0 0 -1 0 792)" d="M108.092 672.57L108.092 656.52" stroke="#000000" stroke-width="0.75" stroke-linecap="square" fill="none" /><path id="59" transform="matrix(1 0 0 -1 0 792)" d="M108.092 672.57L155.318 672.57L155.318 672.57L155.318 656.52" stroke="#000000" stroke-width="0.75" stroke-linecap="square" fill="none" /><path id="60" transform="matrix(1 0 0 -1 0 792)" d="M108.092 656.52L155.318 656.52" stroke="#000000" stroke-width="0.75" stroke-linecap="square" fill="none" /><path id="71" transform="matrix(1 0 0 -1 0 792)" d="M108.092 672.57L108.092 657.27" stroke="#000000" stroke-width="0.75" stroke-linecap="square" fill="none" /><path id="72" transform="matrix(1 0 0 -1 0 792)" d="M108.092 672.57L154.568 672.57" stroke="#000000" stroke-width="0.75" stroke-linecap="square" fill="none" /><path id="73" transform="matrix(1 0 0 -1 0 792)" d="M155.318 672.57L155.318 656.52" stroke="#000000" stroke-width="0.75" stroke-linecap="square" fill="none" /><path id="74" transform="matrix(1 0 0 -1 0 792)" d="M155.318 672.57L462.172 672.57L462.172 672.57L462.172 656.52" stroke="#000000" stroke-width="0.75" stroke-linecap="square" fill="none" /><path id="75" transform="matrix(1 0 0 -1 0 792)" d="M155.318 656.52L462.172 656.52" stroke="#000000" stroke-width="0.75" stroke-linecap="square" fill="none" /><path id="99" transform="matrix(1 0 0 -1 0 792)" d="M156.068 672.57L461.422 672.57" stroke="#000000" stroke-width="0.75" stroke-linecap="square" fill="none" /><path id="100" transform="matrix(1 0 0 -1 0 792)" d="M462.172 672.57L462.172 656.52" stroke="#000000" stroke-width="0.75" stroke-linecap="square" fill="none" /><path id="101" transform="matrix(1 0 0 -1 0 792)" d="M462.172 672.57L503.908 672.57L503.908 672.57L503.908 656.52" stroke="#000000" stroke-width="0.75" stroke-linecap="square" fill="none" /><path id="102" transform="matrix(1 0 0 -1 0 792)" d="M462.172 656.52L503.908 656.52" stroke="#000000" stroke-width="0.75" stroke-linecap="square" fill="none" /><path id="111" transform="matrix(1 0 0 -1 0 792)" d="M462.922 672.57L503.908 672.57L503.908 672.57L503.908 657.27" stroke="#000000" stroke-width="0.75" stroke-linecap="square" fill="none" /><path id="112" transform="matrix(1 0 0 -1 0 792)" d="M108.092 656.52L108.092 640.97" stroke="#000000" stroke-width="0.75" stroke-linecap="square" fill="none" /><path id="113" transform="matrix(1 0 0 -1 0 792)" d="M108.092 656.52L155.318 656.52L155.318 656.52L155.318 640.97" stroke="#000000" stroke-width="0.75" stroke-linecap="square" fill="none" /><path id="114" transform="matrix(1 0 0 -1 0 792)" d="M108.092 640.97L155.318 640.97" stroke="#000000" stroke-width="0.75" stroke-linecap="square" fill="none" /><path id="119" transform="matrix(1 0 0 -1 0 792)" d="M108.092 655.77L108.092 641.72" stroke="#000000" stroke-width="0.75" stroke-linecap="square" fill="none" /><path id="120" transform="matrix(1 0 0 -1 0 792)" d="M155.318 656.52L155.318 640.97" stroke="#000000" stroke-width="0.75" stroke-linecap="square" fill="none" /><path id="121" transform="matrix(1 0 0 -1 0 792)" d="M155.318 656.52L462.172 656.52L462.172 656.52L462.172 640.97" stroke="#000000" stroke-width="0.75" stroke-linecap="square" fill="none" /><path id="122" transform="matrix(1 0 0 -1 0 792)" d="M155.318 640.97L462.172 640.97" stroke="#000000" stroke-width="0.75" stroke-linecap="square" fill="none" /><path id="144" transform="matrix(1 0 0 -1 0 792)" d="M462.172 656.52L462.172 640.97" stroke="#000000" stroke-width="0.75" stroke-linecap="square" fill="none" /><path id="145" transform="matrix(1 0 0 -1 0 792)" d="M462.172 656.52L503.908 656.52L503.908 656.52L503.908 640.97" stroke="#000000" stroke-width="0.75" stroke-linecap="square" fill="none" /><path id="146" transform="matrix(1 0 0 -1 0 792)" d="M462.172 640.97L503.908 640.97" stroke="#000000" stroke-width="0.75" stroke-linecap="square" fill="none" /><path id="153" transform="matrix(1 0 0 -1 0 792)" d="M503.908 655.77L503.908 641.72" stroke="#000000" stroke-width="0.75" stroke-linecap="square" fill="none" /><path id="154" transform="matrix(1 0 0 -1 0 792)" d="M108.092 640.97L108.092 625.42" stroke="#000000" stroke-width="0.75" stroke-linecap="square" fill="none" /><path id="155" transform="matrix(1 0 0 -1 0 792)" d="M108.092 640.97L155.318 640.97L155.318 640.97L155.318 625.42" stroke="#000000" stroke-width="0.75" stroke-linecap="square" fill="none" /><path id="156" transform="matrix(1 0 0 -1 0 792)" d="M108.092 625.42L155.318 625.42" stroke="#000000" stroke-width="0.75" stroke-linecap="square" fill="none" /><path id="161" transform="matrix(1 0 0 -1 0 792)" d="M108.092 640.22L108.092 626.17" stroke="#000000" stroke-width="0.75" stroke-linecap="square" fill="none" /><path id="162" transform="matrix(1 0 0 -1 0 792)" d="M155.318 640.97L155.318 625.42" stroke="#000000" stroke-width="0.75" stroke-linecap="square" fill="none" /><path id="163" transform="matrix(1 0 0 -1 0 792)" d="M155.318 640.97L462.172 640.97L462.172 640.97L462.172 625.42" stroke="#000000" stroke-width="0.75" stroke-linecap="square" fill="none" /><path id="164" transform="matrix(1 0 0 -1 0 792)" d="M155.318 625.42L462.172 625.42" stroke="#000000" stroke-width="0.75" stroke-linecap="square" fill="none" /><path id="168" transform="matrix(1 0 0 -1 0 792)" d="M462.172 640.97L462.172 625.42" stroke="#000000" stroke-width="0.75" stroke-linecap="square" fill="none" /><path id="169" transform="matrix(1 0 0 -1 0 792)" d="M462.172 640.97L503.908 640.97L503.908 640.97L503.908 625.42" stroke="#000000" stroke-width="0.75" stroke-linecap="square" fill="none" /><path id="170" transform="matrix(1 0 0 -1 0 792)" d="M462.172 625.42L503.908 625.42" stroke="#000000" stroke-width="0.75" stroke-linecap="square" fill="none" /><path id="176" transform="matrix(1 0 0 -1 0 792)" d="M503.908 640.22L503.908 626.17" stroke="#000000" stroke-width="0.75" stroke-linecap="square" fill="none" /><path id="177" transform="matrix(1 0 0 -1 0 792)" d="M108.092 625.42L108.092 609.87" stroke="#000000" stroke-width="0.75" stroke-linecap="square" fill="none" /><path id="178" transform="matrix(1 0 0 -1 0 792)" d="M108.092 625.42L155.318 625.42L155.318 625.42L155.318 609.87" stroke="#000000" stroke-width="0.75" stroke-linecap="square" fill="none" /><path id="179" transform="matrix(1 0 0 -1 0 792)" d="M108.092 609.87L155.318 609.87" stroke="#000000" stroke-width="0.75" stroke-linecap="square" fill="none" /><path id="184" transform="matrix(1 0 0 -1 0 792)" d="M108.092 624.67L108.092 610.62" stroke="#000000" stroke-width="0.75" stroke-linecap="square" fill="none" /><path id="185" transform="matrix(1 0 0 -1 0 792)" d="M155.318 625.42L155.318 609.87" stroke="#000000" stroke-width="0.75" stroke-linecap="square" fill="none" /><path id="186" transform="matrix(1 0 0 -1 0 792)" d="M155.318 625.42L462.172 625.42L462.172 625.42L462.172 609.87" stroke="#000000" stroke-width="0.75" stroke-linecap="square" fill="none" /><path id="187" transform="matrix(1 0 0 -1 0 792)" d="M155.318 609.87L462.172 609.87" stroke="#000000" stroke-width="0.75" stroke-linecap="square" fill="none" /><path id="194" transform="matrix(1 0 0 -1 0 792)" d="M462.172 625.42L462.172 609.87" stroke="#000000" stroke-width="0.75" stroke-linecap="square" fill="none" /><path id="195" transform="matrix(1 0 0 -1 0 792)" d="M462.172 625.42L503.908 625.42L503.908 625.42L503.908 609.87" stroke="#000000" stroke-width="0.75" stroke-linecap="square" fill="none" /><path id="196" transform="matrix(1 0 0 -1 0 792)" d="M462.172 609.87L503.908 609.87" stroke="#000000" stroke-width="0.75" stroke-linecap="square" fill="none" /><path id="202" transform="matrix(1 0 0 -1 0 792)" d="M503.908 624.67L503.908 610.62" stroke="#000000" stroke-width="0.75" stroke-linecap="square" fill="none" /><path id="203" transform="matrix(1 0 0 -1 0 792)" d="M108.092 609.87L108.092 594.32" stroke="#000000" stroke-width="0.75" stroke-linecap="square" fill="none" /><path id="204" transform="matrix(1 0 0 -1 0 792)" d="M108.092 609.87L155.318 609.87L155.318 609.87L155.318 594.32" stroke="#000000" stroke-width="0.75" stroke-linecap="square" fill="none" /><path id="205" transform="matrix(1 0 0 -1 0 792)" d="M108.092 594.32L155.318 594.32" stroke="#000000" stroke-width="0.75" stroke-linecap="square" fill="none" /><path id="210" transform="matrix(1 0 0 -1 0 792)" d="M108.092 609.12L108.092 595.07" stroke="#000000" stroke-width="0.75" stroke-linecap="square" fill="none" /><path id="211" transform="matrix(1 0 0 -1 0 792)" d="M155.318 609.87L155.318 594.32" stroke="#000000" stroke-width="0.75" stroke-linecap="square" fill="none" /><path id="212" transform="matrix(1 0 0 -1 0 792)" d="M155.318 609.87L462.172 609.87L462.172 609.87L462.172 594.32" stroke="#000000" stroke-width="0.75" stroke-linecap="square" fill="none" /><path id="213" transform="matrix(1 0 0 -1 0 792)" d="M155.318 594.32L462.172 594.32" stroke="#000000" stroke-width="0.75" stroke-linecap="square" fill="none" /><path id="254" transform="matrix(1 0 0 -1 0 792)" d="M462.172 609.87L462.172 594.32" stroke="#000000" stroke-width="0.75" stroke-linecap="square" fill="none" /><path id="255" transform="matrix(1 0 0 -1 0 792)" d="M462.172 609.87L503.908 609.87L503.908 609.87L503.908 594.32" stroke="#000000" stroke-width="0.75" stroke-linecap="square" fill="none" /><path id="256" transform="matrix(1 0 0 -1 0 792)" d="M462.172 594.32L503.908 594.32" stroke="#000000" stroke-width="0.75" stroke-linecap="square" fill="none" /><path id="262" transform="matrix(1 0 0 -1 0 792)" d="M503.908 609.12L503.908 595.07" stroke="#000000" stroke-width="0.75" stroke-linecap="square" fill="none" /><path id="263" transform="matrix(1 0 0 -1 0 792)" d="M108.092 594.32L108.092 578.77" stroke="#000000" stroke-width="0.75" stroke-linecap="square" fill="none" /><path id="264" transform="matrix(1 0 0 -1 0 792)" d="M108.092 594.32L155.318 594.32L155.318 594.32L155.318 578.77" stroke="#000000" stroke-width="0.75" stroke-linecap="square" fill="none" /><path id="265" transform="matrix(1 0 0 -1 0 792)" d="M108.092 578.77L155.318 578.77" stroke="#000000" stroke-width="0.75" stroke-linecap="square" fill="none" /><path id="270" transform="matrix(1 0 0 -1 0 792)" d="M108.092 593.57L108.092 579.52" stroke="#000000" stroke-width="0.75" stroke-linecap="square" fill="none" /><path id="271" transform="matrix(1 0 0 -1 0 792)" d="M155.318 594.32L155.318 578.77" stroke="#000000" stroke-width="0.75" stroke-linecap="square" fill="none" /><path id="272" transform="matrix(1 0 0 -1 0 792)" d="M155.318 594.32L462.172 594.32L462.172 594.32L462.172 578.77" stroke="#000000" stroke-width="0.75" stroke-linecap="square" fill="none" /><path id="273" transform="matrix(1 0 0 -1 0 792)" d="M155.318 578.77L462.172 578.77" stroke="#000000" stroke-width="0.75" stroke-linecap="square" fill="none" /><path id="288" transform="matrix(1 0 0 -1 0 792)" d="M462.172 594.32L462.172 578.77" stroke="#000000" stroke-width="0.75" stroke-linecap="square" fill="none" /><path id="289" transform="matrix(1 0 0 -1 0 792)" d="M462.172 594.32L503.908 594.32L503.908 594.32L503.908 578.77" stroke="#000000" stroke-width="0.75" stroke-linecap="square" fill="none" /><path id="290" transform="matrix(1 0 0 -1 0 792)" d="M462.172 578.77L503.908 578.77" stroke="#000000" stroke-width="0.75" stroke-linecap="square" fill="none" /><path id="296" transform="matrix(1 0 0 -1 0 792)" d="M503.908 593.57L503.908 579.52" stroke="#000000" stroke-width="0.75" stroke-linecap="square" fill="none" /><path id="297" transform="matrix(1 0 0 -1 0 792)" d="M108.092 578.77L108.092 563.22" stroke="#000000" stroke-width="0.75" stroke-linecap="square" fill="none" /><path id="298" transform="matrix(1 0 0 -1 0 792)" d="M108.092 578.77L155.318 578.77L155.318 578.77L155.318 563.22" stroke="#000000" stroke-width="0.75" stroke-linecap="square" fill="none" /><path id="299" transform="matrix(1 0 0 -1 0 792)" d="M108.092 563.22L155.318 563.22" stroke="#000000" stroke-width="0.75" stroke-linecap="square" fill="none" /><path id="304" transform="matrix(1 0 0 -1 0 792)" d="M108.092 578.02L108.092 563.97" stroke="#000000" stroke-width="0.75" stroke-linecap="square" fill="none" /><path id="305" transform="matrix(1 0 0 -1 0 792)" d="M155.318 578.77L155.318 563.22" stroke="#000000" stroke-width="0.75" stroke-linecap="square" fill="none" /><path id="306" transform="matrix(1 0 0 -1 0 792)" d="M155.318 578.77L462.172 578.77L462.172 578.77L462.172 563.22" stroke="#000000" stroke-width="0.75" stroke-linecap="square" fill="none" /><path id="307" transform="matrix(1 0 0 -1 0 792)" d="M155.318 563.22L462.172 563.22" stroke="#000000" stroke-width="0.75" stroke-linecap="square" fill="none" /><path id="324" transform="matrix(1 0 0 -1 0 792)" d="M462.172 578.77L462.172 563.22" stroke="#000000" stroke-width="0.75" stroke-linecap="square" fill="none" /><path id="325" transform="matrix(1 0 0 -1 0 792)" d="M462.172 578.77L503.908 578.77L503.908 578.77L503.908 563.22" stroke="#000000" stroke-width="0.75" stroke-linecap="square" fill="none" /><path id="326" transform="matrix(1 0 0 -1 0 792)" d="M462.172 563.22L503.908 563.22" stroke="#000000" stroke-width="0.75" stroke-linecap="square" fill="none" /><path id="332" transform="matrix(1 0 0 -1 0 792)" d="M503.908 578.02L503.908 563.97" stroke="#000000" stroke-width="0.75" stroke-linecap="square" fill="none" /><path id="333" transform="matrix(1 0 0 -1 0 792)" d="M108.092 563.22L108.092 536.87" stroke="#000000" stroke-width="0.75" stroke-linecap="square" fill="none" /><path id="334" transform="matrix(1 0 0 -1 0 792)" d="M108.092 563.22L155.318 563.22L155.318 563.22L155.318 536.87" stroke="#000000" stroke-width="0.75" stroke-linecap="square" fill="none" /><path id="335" transform="matrix(1 0 0 -1 0 792)" d="M108.092 536.87L155.318 536.87" stroke="#000000" stroke-width="0.75" stroke-linecap="square" fill="none" /><path id="340" transform="matrix(1 0 0 -1 0 792)" d="M108.092 562.47L108.092 536.87L108.092 536.87L154.568 536.87" stroke="#000000" stroke-width="0.75" stroke-linecap="square" fill="none" /><path id="341" transform="matrix(1 0 0 -1 0 792)" d="M155.318 563.22L155.318 536.87" stroke="#000000" stroke-width="0.75" stroke-linecap="square" fill="none" /><path id="342" transform="matrix(1 0 0 -1 0 792)" d="M155.318 563.22L462.172 563.22L462.172 563.22L462.172 536.87" stroke="#000000" stroke-width="0.75" stroke-linecap="square" fill="none" /><path id="343" transform="matrix(1 0 0 -1 0 792)" d="M155.318 536.87L462.172 536.87" stroke="#000000" stroke-width="0.75" stroke-linecap="square" fill="none" /><path id="419" transform="matrix(1 0 0 -1 0 792)" d="M156.068 536.87L461.422 536.87" stroke="#000000" stroke-width="0.75" stroke-linecap="square" fill="none" /><path id="420" transform="matrix(1 0 0 -1 0 792)" d="M462.172 563.22L462.172 536.87" stroke="#000000" stroke-width="0.75" stroke-linecap="square" fill="none" /><path id="421" transform="matrix(1 0 0 -1 0 792)" d="M462.172 563.22L503.908 563.22L503.908 563.22L503.908 536.87" stroke="#000000" stroke-width="0.75" stroke-linecap="square" fill="none" /><path id="422" transform="matrix(1 0 0 -1 0 792)" d="M462.172 536.87L503.908 536.87" stroke="#000000" stroke-width="0.75" stroke-linecap="square" fill="none" /><path id="428" transform="matrix(1 0 0 -1 0 792)" d="M503.908 562.47L503.908 536.87" stroke="#000000" stroke-width="0.75" stroke-linecap="square" fill="none" /><path id="429" transform="matrix(1 0 0 -1 0 792)" d="M462.922 536.87L503.908 536.87" stroke="#000000" stroke-width="0.75" stroke-linecap="square" fill="none" /></g></g></svg>