<svg xmlns="http://www.w3.org/2000/svg" xmlns:xlink="http://www.w3.org/1999/xlink" id="body_79" preserveAspectRatio="xMinYMin meet" viewBox="0 0 816 1056"><defs><clipPath id="1"><path id="" clip-rule="evenodd" transform="matrix(1 0 0 1 0 0)" d="M0 792L0 0L0 0L612 0L612 0L612 792L612 792L0 792z" /></clipPath></defs><g transform="matrix(1.333333 0 0 1.333333 0 0)"><g clip-path="url(#1)"><path id="504" transform="matrix(1 0 0 -1 0 792)" d="M108.092 559.82L108.092 543.77" stroke="#000000" stroke-width="0.75" stroke-linecap="square" fill="none" /><path id="505" transform="matrix(1 0 0 -1 0 792)" d="M108.092 559.82L155.318 559.82L155.318 559.82L155.318 543.77" stroke="#000000" stroke-width="0.75" stroke-linecap="square" fill="none" /><path id="506" transform="matrix(1 0 0 -1 0 792)" d="M108.092 543.77L155.318 543.77" stroke="#000000" stroke-width="0.75" stroke-linecap="square" fill="none" /><path id="517" transform="matrix(1 0 0 -1 0 792)" d="M108.092 559.82L108.092 544.52" stroke="#000000" stroke-width="0.75" stroke-linecap="square" fill="none" /><path id="518" transform="matrix(1 0 0 -1 0 792)" d="M108.092 559.82L154.568 559.82" stroke="#000000" stroke-width="0.75" stroke-linecap="square" fill="none" /><path id="519" transform="matrix(1 0 0 -1 0 792)" d="M155.318 559.82L155.318 543.77" stroke="#000000" stroke-width="0.75" stroke-linecap="square" fill="none" /><path id="520" transform="matrix(1 0 0 -1 0 792)" d="M155.318 559.82L206.567 559.82L206.567 559.82L206.567 543.77" stroke="#000000" stroke-width="0.75" stroke-linecap="square" fill="none" /><path id="521" transform="matrix(1 0 0 -1 0 792)" d="M155.318 543.77L206.567 543.77" stroke="#000000" stroke-width="0.75" stroke-linecap="square" fill="none" /><path id="532" transform="matrix(1 0 0 -1 0 792)" d="M156.068 559.82L205.817 559.82" stroke="#000000" stroke-width="0.75" stroke-linecap="square" fill="none" /><path id="533" transform="matrix(1 0 0 -1 0 792)" d="M206.567 559.82L206.567 543.77" stroke="#000000" stroke-width="0.75" stroke-linecap="square" fill="none" /><path id="534" transform="matrix(1 0 0 -1 0 792)" d="M206.567 559.82L272.072 559.82L272.072 559.82L272.072 543.77" stroke="#000000" stroke-width="0.75" stroke-linecap="square" fill="none" /><path id="535" transform="matrix(1 0 0 -1 0 792)" d="M206.567 543.77L272.072 543.77" stroke="#000000" stroke-width="0.75" stroke-linecap="square" fill="none" /><path id="548" transform="matrix(1 0 0 -1 0 792)" d="M207.317 559.82L271.322 559.82" stroke="#000000" stroke-width="0.75" stroke-linecap="square" fill="none" /><path id="549" transform="matrix(1 0 0 -1 0 792)" d="M272.072 559.82L272.072 543.77" stroke="#000000" stroke-width="0.75" stroke-linecap="square" fill="none" /><path id="550" transform="matrix(1 0 0 -1 0 792)" d="M272.072 559.82L327.299 559.82L327.299 559.82L327.299 543.77" stroke="#000000" stroke-width="0.75" stroke-linecap="square" fill="none" /><path id="551" transform="matrix(1 0 0 -1 0 792)" d="M272.072 543.77L327.299 543.77" stroke="#000000" stroke-width="0.75" stroke-linecap="square" fill="none" /><path id="563" transform="matrix(1 0 0 -1 0 792)" d="M272.822 559.82L326.549 559.82" stroke="#000000" stroke-width="0.75" stroke-linecap="square" fill="none" /><path id="564" transform="matrix(1 0 0 -1 0 792)" d="M327.299 559.82L327.299 543.77" stroke="#000000" stroke-width="0.75" stroke-linecap="square" fill="none" /><path id="565" transform="matrix(1 0 0 -1 0 792)" d="M327.299 559.82L503.908 559.82L503.908 559.82L503.908 543.77" stroke="#000000" stroke-width="0.75" stroke-linecap="square" fill="none" /><path id="566" transform="matrix(1 0 0 -1 0 792)" d="M327.299 543.77L503.908 543.77" stroke="#000000" stroke-width="0.75" stroke-linecap="square" fill="none" /><path id="577" transform="matrix(1 0 0 -1 0 792)" d="M328.049 559.82L503.908 559.82L503.908 559.82L503.908 544.52" stroke="#000000" stroke-width="0.75" stroke-linecap="square" fill="none" /><path id="578" transform="matrix(1 0 0 -1 0 792)" d="M108.092 543.77L108.092 517.42" stroke="#000000" stroke-width="0.75" stroke-linecap="square" fill="none" /><path id="579" transform="matrix(1 0 0 -1 0 792)" d="M108.092 543.77L155.318 543.77L155.318 543.77L155.318 517.42" stroke="#000000" stroke-width="0.75" stroke-linecap="square" fill="none" /><path id="580" transform="matrix(1 0 0 -1 0 792)" d="M108.092 517.42L155.318 517.42" stroke="#000000" stroke-width="0.75" stroke-linecap="square" fill="none" /><path id="585" transform="matrix(1 0 0 -1 0 792)" d="M108.092 543.02L108.092 518.17" stroke="#000000" stroke-width="0.75" stroke-linecap="square" fill="none" /><path id="586" transform="matrix(1 0 0 -1 0 792)" d="M155.318 543.77L155.318 517.42" stroke="#000000" stroke-width="0.75" stroke-linecap="square" fill="none" /><path id="587" transform="matrix(1 0 0 -1 0 792)" d="M155.318 543.77L206.567 543.77L206.567 543.77L206.567 517.42" stroke="#000000" stroke-width="0.75" stroke-linecap="square" fill="none" /><path id="588" transform="matrix(1 0 0 -1 0 792)" d="M155.318 517.42L206.567 517.42" stroke="#000000" stroke-width="0.75" stroke-linecap="square" fill="none" /><path id="592" transform="matrix(1 0 0 -1 0 792)" d="M206.567 543.77L206.567 517.42" stroke="#000000" stroke-width="0.75" stroke-linecap="square" fill="none" /><path id="593" transform="matrix(1 0 0 -1 0 792)" d="M206.567 543.77L272.072 543.77L272.072 543.77L272.072 517.42" stroke="#000000" stroke-width="0.75" stroke-linecap="square" fill="none" /><path id="594" transform="matrix(1 0 0 -1 0 792)" d="M206.567 517.42L272.072 517.42" stroke="#000000" stroke-width="0.75" stroke-linecap="square" fill="none" /><path id="616" transform="matrix(1 0 0 -1 0 792)" d="M272.072 543.77L272.072 517.42" stroke="#000000" stroke-width="0.75" stroke-linecap="square" fill="none" /><path id="617" transform="matrix(1 0 0 -1 0 792)" d="M272.072 543.77L327.299 543.77L327.299 543.77L327.299 517.42" stroke="#000000" stroke-width="0.75" stroke-linecap="square" fill="none" /><path id="618" transform="matrix(1 0 0 -1 0 792)" d="M272.072 517.42L327.299 517.42" stroke="#000000" stroke-width="0.75" stroke-linecap="square" fill="none" /><path id="623" transform="matrix(1 0 0 -1 0 792)" d="M327.299 543.77L327.299 517.42" stroke="#000000" stroke-width="0.75" stroke-linecap="square" fill="none" /><path id="624" transform="matrix(1 0 0 -1 0 792)" d="M327.299 543.77L503.908 543.77L503.908 543.77L503.908 517.42" stroke="#000000" stroke-width="0.75" stroke-linecap="square" fill="none" /><path id="625" transform="matrix(1 0 0 -1 0 792)" d="M327.299 517.42L503.908 517.42" stroke="#000000" stroke-width="0.75" stroke-linecap="square" fill="none" /><path id="697" transform="matrix(1 0 0 -1 0 792)" d="M503.908 543.02L503.908 518.17" stroke="#000000" stroke-width="0.75" stroke-linecap="square" fill="none" /><path id="698" transform="matrix(1 0 0 -1 0 792)" d="M108.092 517.42L108.092 491.07" stroke="#000000" stroke-width="0.75" stroke-linecap="square" fill="none" /><path id="699" transform="matrix(1 0 0 -1 0 792)" d="M108.092 517.42L155.318 517.42L155.318 517.42L155.318 491.07" stroke="#000000" stroke-width="0.75" stroke-linecap="square" fill="none" /><path id="700" transform="matrix(1 0 0 -1 0 792)" d="M108.092 491.07L155.318 491.07" stroke="#000000" stroke-width="0.75" stroke-linecap="square" fill="none" /><path id="705" transform="matrix(1 0 0 -1 0 792)" d="M108.092 516.67L108.092 491.07L108.092 491.07L154.568 491.07" stroke="#000000" stroke-width="0.75" stroke-linecap="square" fill="none" /><path id="706" transform="matrix(1 0 0 -1 0 792)" d="M155.318 517.42L155.318 491.07" stroke="#000000" stroke-width="0.75" stroke-linecap="square" fill="none" /><path id="707" transform="matrix(1 0 0 -1 0 792)" d="M155.318 517.42L206.567 517.42L206.567 517.42L206.567 491.07" stroke="#000000" stroke-width="0.75" stroke-linecap="square" fill="none" /><path id="708" transform="matrix(1 0 0 -1 0 792)" d="M155.318 491.07L206.567 491.07" stroke="#000000" stroke-width="0.75" stroke-linecap="square" fill="none" /><path id="712" transform="matrix(1 0 0 -1 0 792)" d="M156.068 491.07L205.817 491.07" stroke="#000000" stroke-width="0.75" stroke-linecap="square" fill="none" /><path id="713" transform="matrix(1 0 0 -1 0 792)" d="M206.567 517.42L206.567 491.07" stroke="#000000" stroke-width="0.75" stroke-linecap="square" fill="none" /><path id="714" transform="matrix(1 0 0 -1 0 792)" d="M206.567 517.42L272.072 517.42L272.072 517.42L272.072 491.07" stroke="#000000" stroke-width="0.75" stroke-linecap="square" fill="none" /><path id="715" transform="matrix(1 0 0 -1 0 792)" d="M206.567 491.07L272.072 491.07" stroke="#000000" stroke-width="0.75" stroke-linecap="square" fill="none" /><path id="734" transform="matrix(1 0 0 -1 0 792)" d="M207.317 491.07L271.322 491.07" stroke="#000000" stroke-width="0.75" stroke-linecap="square" fill="none" /><path id="735" transform="matrix(1 0 0 -1 0 792)" d="M272.072 517.42L272.072 491.07" stroke="#000000" stroke-width="0.75" stroke-linecap="square" fill="none" /><path id="736" transform="matrix(1 0 0 -1 0 792)" d="M272.072 517.42L327.299 517.42L327.299 517.42L327.299 491.07" stroke="#000000" stroke-width="0.75" stroke-linecap="square" fill="none" /><path id="737" transform="matrix(1 0 0 -1 0 792)" d="M272.072 491.07L327.299 491.07" stroke="#000000" stroke-width="0.75" stroke-linecap="square" fill="none" /><path id="744" transform="matrix(1 0 0 -1 0 792)" d="M272.822 491.07L326.549 491.07" stroke="#000000" stroke-width="0.75" stroke-linecap="square" fill="none" /><path id="745" transform="matrix(1 0 0 -1 0 792)" d="M327.299 517.42L327.299 491.07" stroke="#000000" stroke-width="0.75" stroke-linecap="square" fill="none" /><path id="746" transform="matrix(1 0 0 -1 0 792)" d="M327.299 517.42L503.908 517.42L503.908 517.42L503.908 491.07" stroke="#000000" stroke-width="0.75" stroke-linecap="square" fill="none" /><path id="747" transform="matrix(1 0 0 -1 0 792)" d="M327.299 491.07L503.908 491.07" stroke="#000000" stroke-width="0.75" stroke-linecap="square" fill="none" /><path id="789" transform="matrix(1 0 0 -1 0 792)" d="M503.908 516.67L503.908 491.07" stroke="#000000" stroke-width="0.75" stroke-linecap="square" fill="none" /><path id="790" transform="matrix(1 0 0 -1 0 792)" d="M328.049 491.07L503.908 491.07" stroke="#000000" stroke-width="0.75" stroke-linecap="square" fill="none" /></g></g></svg>