<svg xmlns="http://www.w3.org/2000/svg" xmlns:xlink="http://www.w3.org/1999/xlink" id="body_94" preserveAspectRatio="xMinYMin meet" viewBox="0 0 816 1056"><defs><clipPath id="1"><path id="" clip-rule="evenodd" transform="matrix(1 0 0 1 0 0)" d="M0 792L0 0L0 0L612 0L612 0L612 792L612 792L0 792z" /></clipPath><clipPath id="2"><path id="" clip-rule="evenodd" transform="matrix(1 0 0 1 0 0)" d="M85.25839 236.1972L520.0393 236.1972L520.0393 236.1972L520.0393 114.1589L520.0393 114.1589L85.25839 114.1589z" /></clipPath><clipPath id="3"><path id="" clip-rule="evenodd" transform="matrix(1 0 0 1 0 0)" d="M94.03693 601.8559L518.4168 601.8559L518.4168 601.8559L518.4168 466.6976L518.4168 466.6976L94.03693 466.6976z" /></clipPath></defs><g transform="matrix(1.333333 0 0 1.333333 0 0)"><g clip-path="url(#1)"><g clip-path="url(#2)"><g transform="matrix(0.5477499 0 0 0.5477499 193.0921 114.1653)"><g transform="matrix(1 0 0 1 0 0)"><image x="0" y="0" xlink:href="img_153.png" width="400" height="219" /></g></g></g><g clip-path="url(#3)"><g transform="matrix(0.5346441 0 0 0.5346441 199.2905 466.7057)"><g transform="matrix(1 0 0 1 0 0)"><image x="0" y="0" xlink:href="img_154.png" width="400" height="250" /></g></g></g></g></g></svg>