<svg xmlns="http://www.w3.org/2000/svg" xmlns:xlink="http://www.w3.org/1999/xlink" id="body_48" preserveAspectRatio="xMinYMin meet" viewBox="0 0 816 1056"><defs><clipPath id="1"><path id="" clip-rule="evenodd" transform="matrix(1 0 0 1 0 0)" d="M0 792L0 0L0 0L612 0L612 0L612 792L612 792L0 792z" /></clipPath><clipPath id="2"><path id="" clip-rule="evenodd" transform="matrix(1 0 0 1 0 0)" d="M274.8086 172.7459L355.9808 172.7459L355.9808 172.7459L355.9808 140.7408L355.9808 140.7408L274.8086 140.7408z" /></clipPath><clipPath id="3"><path id="" clip-rule="evenodd" transform="matrix(1 0 0 1 0 0)" d="M-56.21946 -277.6715L581.4565 -277.6715L581.4565 -277.6715L581.4565 624.1132L581.4565 624.1132L-56.21946 624.1132z" /></clipPath><clipPath id="4"><path id="" clip-rule="evenodd" transform="matrix(1 0 0 1 0 0)" d="M237.4035 249.3761L405.488 249.3761L405.488 249.3761L405.488 212.936L405.488 212.936L237.4035 212.936z" /></clipPath><clipPath id="5"><path id="" clip-rule="evenodd" transform="matrix(1 0 0 1 0 0)" d="M-56.21946 -277.6715L581.4565 -277.6715L581.4565 -277.6715L581.4565 624.1132L581.4565 624.1132L-56.21946 624.1132z" /></clipPath><clipPath id="6"><path id="" clip-rule="evenodd" transform="matrix(1 0 0 1 0 0)" d="M237.3394 291.3433L410.373 291.3433L410.373 291.3433L410.373 276.5612L410.373 276.5612L237.3394 276.5612z" /></clipPath><clipPath id="7"><path id="" clip-rule="evenodd" transform="matrix(1 0 0 1 0 0)" d="M-56.21946 -277.6715L581.4565 -277.6715L581.4565 -277.6715L581.4565 624.1132L581.4565 624.1132L-56.21946 624.1132z" /></clipPath><clipPath id="8"><path id="" clip-rule="evenodd" transform="matrix(1 0 0 1 0 0)" d="M237.4035 330.1624L410.373 330.1624L410.373 330.1624L410.373 315.3803L410.373 315.3803L237.4035 315.3803z" /></clipPath><clipPath id="9"><path id="" clip-rule="evenodd" transform="matrix(1 0 0 1 0 0)" d="M-56.21946 -277.6715L581.4565 -277.6715L581.4565 -277.6715L581.4565 624.1132L581.4565 624.1132L-56.21946 624.1132z" /></clipPath><clipPath id="10"><path id="" clip-rule="evenodd" transform="matrix(1 0 0 1 0 0)" d="M268.1245 367.8235L373.2689 367.8235L373.2689 367.8235L373.2689 353.0414L373.2689 353.0414L268.1245 353.0414z" /></clipPath><clipPath id="11"><path id="" clip-rule="evenodd" transform="matrix(1 0 0 1 0 0)" d="M-56.21946 -277.6715L581.4565 -277.6715L581.4565 -277.6715L581.4565 624.1132L581.4565 624.1132L-56.21946 624.1132z" /></clipPath><clipPath id="12"><path id="" clip-rule="evenodd" transform="matrix(1 0 0 1 0 0)" d="M217.3514 453.6868L309.4487 453.6868L309.4487 453.6868L309.4487 413.8407L309.4487 413.8407L217.3514 413.8407z" /></clipPath><clipPath id="13"><path id="" clip-rule="evenodd" transform="matrix(1 0 0 1 0 0)" d="M-56.21946 -277.6715L581.4565 -277.6715L581.4565 -277.6715L581.4565 624.1132L581.4565 624.1132L-56.21946 624.1132z" /></clipPath><clipPath id="14"><path id="" clip-rule="evenodd" transform="matrix(1 0 0 1 0 0)" d="M364.1418 450.5388L456.2601 450.5388L456.2601 450.5388L456.2601 409.8566L456.2601 409.8566L364.1418 409.8566z" /></clipPath><clipPath id="15"><path id="" clip-rule="evenodd" transform="matrix(1 0 0 1 0 0)" d="M-56.21946 -277.6715L581.4565 -277.6715L581.4565 -277.6715L581.4565 624.1132L581.4565 624.1132L-56.21946 624.1132z" /></clipPath><clipPath id="16"><path id="" clip-rule="evenodd" transform="matrix(1 0 0 1 0 0)" d="M394.8199 511.422L459.6031 511.422L459.6031 511.422L459.6031 496.2549L459.6031 496.2549L394.8199 496.2549z" /></clipPath><clipPath id="17"><path id="" clip-rule="evenodd" transform="matrix(1 0 0 1 0 0)" d="M-56.21946 -277.6715L581.4565 -277.6715L581.4565 -277.6715L581.4565 624.1132L581.4565 624.1132L-56.21946 624.1132z" /></clipPath><clipPath id="18"><path id="" clip-rule="evenodd" transform="matrix(1 0 0 1 0 0)" d="M131.4031 492.8489L196.2513 492.8489L196.2513 492.8489L196.2513 477.6169L196.2513 477.6169L131.4031 477.6169z" /></clipPath><clipPath id="19"><path id="" clip-rule="evenodd" transform="matrix(1 0 0 1 0 0)" d="M-56.21946 -277.6715L581.4565 -277.6715L581.4565 -277.6715L581.4565 624.1132L581.4565 624.1132L-56.21946 624.1132z" /></clipPath><clipPath id="20"><path id="" clip-rule="evenodd" transform="matrix(1 0 0 1 0 0)" d="M291.7106 504.674L368.8969 504.674L368.8969 504.674L368.8969 489.4419L368.8969 489.4419L291.7106 489.4419z" /></clipPath><clipPath id="21"><path id="" clip-rule="evenodd" transform="matrix(1 0 0 1 0 0)" d="M-56.21946 -277.6715L581.4565 -277.6715L581.4565 -277.6715L581.4565 624.1132L581.4565 624.1132L-56.21946 624.1132z" /></clipPath><clipPath id="22"><path id="" clip-rule="evenodd" transform="matrix(1 0 0 1 0 0)" d="M205.5904 532.759L281.4926 532.759L281.4926 532.759L281.4926 501.5239L281.4926 501.5239L205.5904 501.5239z" /></clipPath><clipPath id="23"><path id="" clip-rule="evenodd" transform="matrix(1 0 0 1 0 0)" d="M-56.21946 -277.6715L581.4565 -277.6715L581.4565 -277.6715L581.4565 624.1132L581.4565 624.1132L-56.21946 624.1132z" /></clipPath></defs><g transform="matrix(1.333333 0 0 1.333333 0 0)"><g clip-path="url(#1)"><path id="448" transform="matrix(1 0 0 -1 0 792)" d="M256.45 635.301C 256.45 651.6465 282.8214 664.8971 315.3631 664.8971C 347.9049 664.8971 374.2762 651.6465 374.2762 635.301C 374.2762 618.9556 347.9049 605.7164 315.3631 605.7164C 282.8214 605.7164 256.45 618.9556 256.45 635.301" stroke="none" fill="#FFFFFF" fill-rule="evenodd" /><path id="449" transform="matrix(1 0 0 -1 0 792)" d="M256.4495 635.3011C 256.4495 651.6467 282.821 664.8973 315.3628 664.8973C 347.9047 664.8973 374.2762 651.6467 374.2762 635.3011C 374.2762 618.9556 347.9047 605.7164 315.3628 605.7164C 282.821 605.7164 256.4495 618.9556 256.4495 635.3011z" stroke="#4E81BE" stroke-width="2.141826" fill="none" /><g clip-path="url(#2)"><g clip-path="url(#3)"></g></g><path id="466" transform="matrix(1 0 0 -1 0 792)" d="M236.2589 537.7181L406.5187 537.7181L406.5187 583.9922L236.2589 583.9922z" stroke="none" fill="#FFFFFF" fill-rule="nonzero" /><path id="467" transform="matrix(1 0 0 -1 0 792)" d="M236.2589 537.7181L406.5187 537.7181L406.5187 537.7181L406.5187 583.9922L406.5187 583.9922L236.2589 583.9922z" stroke="#4E81BE" stroke-width="2.141826" fill="none" /><g clip-path="url(#4)"><g clip-path="url(#5)"></g></g><path id="508" transform="matrix(1 0 0 -1 0 792)" d="M236.2054 495.7504L411.3922 495.7504L411.3922 520.3865L236.2054 520.3865z" stroke="none" fill="#FFFFFF" fill-rule="nonzero" /><path id="509" transform="matrix(1 0 0 -1 0 792)" d="M236.2054 495.7504L411.3922 495.7504L411.3922 495.7504L411.3922 520.3865L411.3922 520.3865L236.2054 520.3865z" stroke="#4E81BE" stroke-width="2.141826" fill="none" /><g clip-path="url(#6)"><g clip-path="url(#7)"></g></g><path id="534" transform="matrix(1 0 0 -1 0 792)" d="M236.2589 456.9322L411.3922 456.9322L411.3922 481.5683L236.2589 481.5683z" stroke="none" fill="#FFFFFF" fill-rule="nonzero" /><path id="535" transform="matrix(1 0 0 -1 0 792)" d="M236.2589 456.9322L411.3922 456.9322L411.3922 456.9322L411.3922 481.5683L411.3922 481.5683L236.2589 481.5683z" stroke="#4E81BE" stroke-width="2.141826" fill="none" /><g clip-path="url(#8)"><g clip-path="url(#9)"></g></g><path id="560" transform="matrix(1 0 0 -1 0 792)" d="M267.0006 419.313L374.3299 419.313L374.3299 443.9492L267.0006 443.9492z" stroke="none" fill="#FFFFFF" fill-rule="nonzero" /><path id="561" transform="matrix(1 0 0 -1 0 792)" d="M267.0006 419.313L374.3299 419.313L374.3299 419.313L374.3299 443.9492L374.3299 443.9492L267.0006 443.9492z" stroke="#4E81BE" stroke-width="2.141826" fill="none" /><g clip-path="url(#10)"><g clip-path="url(#11)"></g></g><path id="576" transform="matrix(1 0 0 -1 0 792)" d="M196.7333 358.2683C 196.7333 377.6779 226.5652 393.4017 263.3588 393.4017C 300.1524 393.4017 329.9843 377.6779 329.9843 358.2683C 329.9843 338.87 300.1524 323.1348 263.3588 323.1348C 226.5652 323.1348 196.7333 338.87 196.7333 358.2683" stroke="none" fill="#FFFFFF" fill-rule="evenodd" /><path id="577" transform="matrix(1 0 0 -1 0 792)" d="M196.7333 358.2683C 196.7333 377.6779 226.5652 393.4017 263.3588 393.4017C 300.1524 393.4017 329.9843 377.6779 329.9843 358.2683C 329.9843 338.87 300.1524 323.1348 263.3588 323.1348C 226.5652 323.1348 196.7333 338.87 196.7333 358.2683z" stroke="#4E81BE" stroke-width="2.141826" fill="none" /><g clip-path="url(#12)"><g clip-path="url(#13)"></g></g><path id="594" transform="matrix(1 0 0 -1 0 792)" d="M343.5348 361.8573C 343.5348 381.6199 373.3666 397.6341 410.1603 397.6341C 446.9539 397.6341 476.7858 381.6199 476.7858 361.8573C 476.7858 342.1049 446.9539 326.0805 410.1603 326.0805C 373.3666 326.0805 343.5348 342.1049 343.5348 361.8573" stroke="none" fill="#FFFFFF" fill-rule="evenodd" /><path id="595" transform="matrix(1 0 0 -1 0 792)" d="M343.5348 361.8573C 343.5348 381.6199 373.3666 397.6341 410.1603 397.6341C 446.9539 397.6341 476.7858 381.6199 476.7858 361.8573C 476.7858 342.1049 446.9539 326.0805 410.1603 326.0805C 373.3666 326.0805 343.5348 342.1049 343.5348 361.8573z" stroke="#4E81BE" stroke-width="2.141826" fill="none" /><g clip-path="url(#14)"><g clip-path="url(#15)"></g></g><path id="612" transform="matrix(1 0 0 -1 0 792)" d="M392.3249 297.4591C 392.3249 300.0086 394.3927 302.0866 396.9525 302.0866L396.9525 302.0866L457.3221 302.0866C 459.883 302.0866 461.9496 300.0086 461.9496 297.4591L461.9496 297.4591L461.9496 278.9604C 461.9496 276.4109 459.883 274.3397 457.3221 274.3397L457.3221 274.3397L396.9525 274.3397C 394.3927 274.3397 392.3249 276.4109 392.3249 278.9604" stroke="none" fill="#FFFFFF" fill-rule="evenodd" /><path id="613" transform="matrix(1 0 0 -1 0 792)" d="M392.3249 297.4591C 392.3249 300.0086 394.3927 302.0866 396.9525 302.0866L396.9525 302.0866L457.3221 302.0866C 459.883 302.0866 461.9496 300.0086 461.9496 297.4591L461.9496 297.4591L461.9496 278.9604C 461.9496 276.4109 459.883 274.3397 457.3221 274.3397L457.3221 274.3397L396.9525 274.3397C 394.3927 274.3397 392.3249 276.4109 392.3249 278.9604L392.3249 278.9604L392.3249 297.4591z" stroke="#4E81BE" stroke-width="2.141826" fill="none" /><g clip-path="url(#16)"><g clip-path="url(#17)"></g></g><path id="619" transform="matrix(1 0 0 -1 0 792)" d="M128.9831 316.0972C 128.9831 318.6466 131.0509 320.7247 133.6107 320.7247L133.6107 320.7247L193.9803 320.7247C 196.5412 320.7247 198.6078 318.6466 198.6078 316.0972L198.6078 316.0972L198.6078 297.5984C 198.6078 295.049 196.5412 292.9823 193.9803 292.9823L193.9803 292.9823L133.6107 292.9823C 131.0509 292.9823 128.9831 295.049 128.9831 297.5984" stroke="none" fill="#FFFFFF" fill-rule="evenodd" /><path id="620" transform="matrix(1 0 0 -1 0 792)" d="M128.9831 316.0972C 128.9831 318.6466 131.0509 320.7247 133.6107 320.7247L133.6107 320.7247L193.9803 320.7247C 196.5412 320.7247 198.6078 318.6466 198.6078 316.0972L198.6078 316.0972L198.6078 297.5984C 198.6078 295.049 196.5412 292.9823 193.9803 292.9823L193.9803 292.9823L133.6107 292.9823C 131.0509 292.9823 128.9831 295.049 128.9831 297.5984L128.9831 297.5984L128.9831 316.0972z" stroke="#4E81BE" stroke-width="2.141826" fill="none" /><g clip-path="url(#18)"><g clip-path="url(#19)"></g></g><path id="629" transform="matrix(1 0 0 -1 0 792)" d="M289.2806 304.2621C 289.2806 306.8116 291.3484 308.8896 293.9081 308.8896L293.9081 308.8896L366.6494 308.8896C 369.2102 308.8896 371.2769 306.8116 371.2769 304.2621L371.2769 304.2621L371.2769 285.7634C 371.2769 283.2139 369.2102 281.1461 366.6494 281.1461L366.6494 281.1461L293.9081 281.1461C 291.3484 281.1461 289.2806 283.2139 289.2806 285.7634" stroke="none" fill="#FFFFFF" fill-rule="evenodd" /><path id="630" transform="matrix(1 0 0 -1 0 792)" d="M289.2806 304.2621C 289.2806 306.8116 291.3484 308.8896 293.9081 308.8896L293.9081 308.8896L366.6494 308.8896C 369.2102 308.8896 371.2769 306.8116 371.2769 304.2621L371.2769 304.2621L371.2769 285.7634C 371.2769 283.2139 369.2102 281.1461 366.6494 281.1461L366.6494 281.1461L293.9081 281.1461C 291.3484 281.1461 289.2806 283.2139 289.2806 285.7634L289.2806 285.7634L289.2806 304.2621z" stroke="#4E81BE" stroke-width="2.141826" fill="none" /><g clip-path="url(#20)"><g clip-path="url(#21)"></g></g><path id="641" transform="matrix(1 0 0 -1 0 792)" d="M202.2493 290.1431C 202.2493 294.3425 205.6551 297.7482 209.8545 297.7482L209.8545 297.7482L277.1768 297.7482C 281.3751 297.7482 284.782 294.3425 284.782 290.1431L284.782 290.1431L284.782 259.7191C 284.782 255.5186 281.3751 252.114 277.1768 252.114L277.1768 252.114L209.8545 252.114C 205.6551 252.114 202.2493 255.5186 202.2493 259.7191" stroke="none" fill="#FFFFFF" fill-rule="evenodd" /><path id="642" transform="matrix(1 0 0 -1 0 792)" d="M202.2493 290.1431C 202.2493 294.3425 205.6551 297.7482 209.8545 297.7482L209.8545 297.7482L277.1768 297.7482C 281.3751 297.7482 284.782 294.3425 284.782 290.1431L284.782 290.1431L284.782 259.7191C 284.782 255.5186 281.3751 252.114 277.1768 252.114L277.1768 252.114L209.8545 252.114C 205.6551 252.114 202.2493 255.5186 202.2493 259.7191L202.2493 259.7191L202.2493 290.1431z" stroke="#4E81BE" stroke-width="2.141826" fill="none" /><g clip-path="url(#22)"><g clip-path="url(#23)"></g></g><path id="656" transform="matrix(1 0 0 -1 0 792)" d="M307.1697 592.293L312.0967 592.293L312.0967 592.293L312.0967 600.6155L312.0967 600.6155L321.9518 600.6155L321.9518 600.6155L321.9518 592.293L321.9518 592.293L326.8788 592.293L326.8788 592.293L317.0248 583.9592" stroke="none" fill="#4E81BE" fill-rule="evenodd" /><path id="657" transform="matrix(1 0 0 -1 0 792)" d="M307.1697 592.293L312.0967 592.293L312.0967 592.293L312.0967 600.6155L312.0967 600.6155L321.9518 600.6155L321.9518 600.6155L321.9518 592.293L321.9518 592.293L326.8788 592.293L326.8788 592.293L317.0248 583.9592L317.0248 583.9592L307.1697 592.293z" stroke="#385E8A" stroke-width="2.141826" fill="none" /><path id="658" transform="matrix(1 0 0 -1 0 792)" d="M307.0617 528.9028L311.9887 528.9028L311.9887 528.9028L311.9887 537.2037L311.9887 537.2037L321.8438 537.2037L321.8438 537.2037L321.8438 528.9028L321.8438 528.9028L326.7708 528.9028L326.7708 528.9028L316.9168 520.602" stroke="none" fill="#4E81BD" fill-rule="evenodd" /><path id="659" transform="matrix(1 0 0 -1 0 792)" d="M307.0617 528.9028L311.9887 528.9028L311.9887 528.9028L311.9887 537.2037L311.9887 537.2037L321.8438 537.2037L321.8438 537.2037L321.8438 528.9028L321.8438 528.9028L326.7708 528.9028L326.7708 528.9028L316.9168 520.602L316.9168 520.602L307.0617 528.9028z" stroke="#385E89" stroke-width="2.141826" fill="none" /><path id="660" transform="matrix(1 0 0 -1 0 792)" d="M310.2757 488.7137L315.2027 488.7137L315.2027 488.7137L315.2027 495.7837L315.2027 495.7837L325.0578 495.7837L325.0578 495.7837L325.0578 488.7137L325.0578 488.7137L329.9848 488.7137L329.9848 488.7137L320.1308 481.6437" stroke="none" fill="#4E81BD" fill-rule="evenodd" /><path id="661" transform="matrix(1 0 0 -1 0 792)" d="M310.2757 488.7137L315.2027 488.7137L315.2027 488.7137L315.2027 495.7837L315.2027 495.7837L325.0578 495.7837L325.0578 495.7837L325.0578 488.7137L325.0578 488.7137L329.9848 488.7137L329.9848 488.7137L320.1308 481.6437L320.1308 481.6437L310.2757 488.7137z" stroke="#385E89" stroke-width="2.141826" fill="none" /><path id="662" transform="matrix(1 0 0 -1 0 792)" d="M307.2227 450.4526L312.1394 450.4526L312.1394 450.4526L312.1394 456.9122L312.1394 456.9122L321.9615 456.9122L321.9615 456.9122L321.9615 450.4526L321.9615 450.4526L326.8783 450.4526L326.8783 450.4526L317.0562 444.0043" stroke="none" fill="#4E81BD" fill-rule="evenodd" /><path id="663" transform="matrix(1 0 0 -1 0 792)" d="M307.2227 450.4526L312.1394 450.4526L312.1394 450.4526L312.1394 456.9122L312.1394 456.9122L321.9615 456.9122L321.9615 456.9122L321.9615 450.4526L321.9615 450.4526L326.8783 450.4526L326.8783 450.4526L317.0562 444.0043L317.0562 444.0043L307.2227 450.4526z" stroke="#385E89" stroke-width="2.141826" fill="none" /><path id="664" transform="matrix(1 0 0 -1 0 792)" d="M362.7078 405.1534L368.8669 405.1534L368.8669 405.1534L368.8669 419.2387L368.8669 419.2387L381.1849 419.2387L381.1849 419.2387L381.1849 405.1534L381.1849 405.1534L387.3439 405.1534L387.3439 405.1534L375.0259 392.8354" stroke="none" fill="#4E81BD" fill-rule="evenodd" /><path id="665" transform="matrix(1 0 0 -1 0 792)" d="M362.7078 405.1534L368.8669 405.1534L368.8669 405.1534L368.8669 419.2387L368.8669 419.2387L381.1849 419.2387L381.1849 419.2387L381.1849 405.1534L381.1849 405.1534L387.3439 405.1534L387.3439 405.1534L375.0259 392.8354L375.0259 392.8354L362.7078 405.1534z" stroke="#385E89" stroke-width="2.141826" fill="none" /><path id="666" transform="matrix(1 0 0 -1 0 792)" d="M254.5755 405.2064L260.7345 405.2064L260.7345 405.2064L260.7345 419.3452L260.7345 419.3452L273.0526 419.3452L273.0526 419.3452L273.0526 405.2064L273.0526 405.2064L279.2116 405.2064L279.2116 405.2064L266.8936 392.8884" stroke="none" fill="#4E81BD" fill-rule="evenodd" /><path id="667" transform="matrix(1 0 0 -1 0 792)" d="M254.5755 405.2064L260.7345 405.2064L260.7345 405.2064L260.7345 419.3452L260.7345 419.3452L273.0526 419.3452L273.0526 419.3452L273.0526 405.2064L273.0526 405.2064L279.2116 405.2064L279.2116 405.2064L266.8936 392.8884L266.8936 392.8884L254.5755 405.2064z" stroke="#385E89" stroke-width="2.141826" fill="none" /><path id="668" transform="matrix(1 0 0 -1 0 792)" d="M236.7404 307.6461L241.6572 307.6461L241.6572 307.6461L241.6572 323.6808L241.6572 323.6808L251.4793 323.6808L251.4793 323.6808L251.4793 307.6461L251.4793 307.6461L256.3961 307.6461L256.3961 307.6461L246.5626 297.8126" stroke="none" fill="#4E81BD" fill-rule="evenodd" /><path id="669" transform="matrix(1 0 0 -1 0 792)" d="M236.7404 307.6461L241.6572 307.6461L241.6572 307.6461L241.6572 323.6808L241.6572 323.6808L251.4793 323.6808L251.4793 323.6808L251.4793 307.6461L251.4793 307.6461L256.3961 307.6461L256.3961 307.6461L246.5626 297.8126L246.5626 297.8126L236.7404 307.6461z" stroke="#385E89" stroke-width="2.141826" fill="none" /><path id="670" transform="matrix(1 0 0 -1 0 792)" d="M309.0437 309.0171L312.5781 312.4445L312.5781 312.4445L301.4169 323.9598L301.4169 323.9598L308.4755 330.7941L308.4755 330.7941L319.6378 319.2787L319.6378 319.2787L323.162 322.6959L323.162 322.6959L322.9467 308.803" stroke="none" fill="#4E81BD" fill-rule="evenodd" /><path id="671" transform="matrix(1 0 0 -1 0 792)" d="M309.0437 309.0171L312.5781 312.4445L312.5781 312.4445L301.4169 323.9598L301.4169 323.9598L308.4755 330.7941L308.4755 330.7941L319.6378 319.2787L319.6378 319.2787L323.162 322.6959L323.162 322.6959L322.9467 308.803L322.9467 308.803L309.0437 309.0171z" stroke="#385E89" stroke-width="2.141826" fill="none" /><path id="672" transform="matrix(1 0 0 -1 0 792)" d="M181.7263 336.3962L184.9931 332.7115L184.9931 332.7115L200.6326 346.5724L200.6326 346.5724L207.1663 339.1916L207.1663 339.1916L191.5381 325.3421L191.5381 325.3421L194.805 321.646L194.805 321.646L180.8905 322.4931" stroke="none" fill="#4E81BD" fill-rule="evenodd" /><path id="673" transform="matrix(1 0 0 -1 0 792)" d="M181.7263 336.3962L184.9931 332.7115L184.9931 332.7115L200.6326 346.5724L200.6326 346.5724L207.1663 339.1916L207.1663 339.1916L191.5381 325.3421L191.5381 325.3421L194.805 321.646L194.805 321.646L180.8905 322.4931L180.8905 322.4931L181.7263 336.3962z" stroke="#385E89" stroke-width="2.141826" fill="none" /><path id="674" transform="matrix(1 0 0 -1 0 792)" d="M411.285 311.8771L416.2018 311.8771L416.2018 311.8771L416.2018 327.9118L416.2018 327.9118L426.0239 327.9118L426.0239 327.9118L426.0239 311.8771L426.0239 311.8771L430.9406 311.8771L430.9406 311.8771L421.1071 302.0436" stroke="none" fill="#4E81BD" fill-rule="evenodd" /><path id="675" transform="matrix(1 0 0 -1 0 792)" d="M411.285 311.8771L416.2018 311.8771L416.2018 311.8771L416.2018 327.9118L416.2018 327.9118L426.0239 327.9118L426.0239 327.9118L426.0239 311.8771L426.0239 311.8771L430.9406 311.8771L430.9406 311.8771L421.1071 302.0436L421.1071 302.0436L411.285 311.8771z" stroke="#385E89" stroke-width="2.141826" fill="none" /></g></g></svg>