<svg xmlns="http://www.w3.org/2000/svg" xmlns:xlink="http://www.w3.org/1999/xlink" id="body_33" preserveAspectRatio="xMinYMin meet" viewBox="0 0 816 1056"><defs><clipPath id="1"><path id="" clip-rule="evenodd" transform="matrix(1 0 0 1 0 0)" d="M0 792L0 0L0 0L612 0L612 0L612 792L612 792L0 792z" /></clipPath></defs><g transform="matrix(1.333333 0 0 1.333333 0 0)"><g clip-path="url(#1)"><path id="98" transform="matrix(1 0 0 -1 0 792)" d="M108.092 652.77L108.092 604.32" stroke="#000000" stroke-width="0.75" stroke-linecap="square" fill="none" /><path id="99" transform="matrix(1 0 0 -1 0 792)" d="M108.092 652.77L220.092 652.77L220.092 652.77L220.092 604.32" stroke="#000000" stroke-width="0.75" stroke-linecap="square" fill="none" /><path id="100" transform="matrix(1 0 0 -1 0 792)" d="M108.092 604.32L220.092 604.32" stroke="#000000" stroke-width="0.75" stroke-linecap="square" fill="none" /><path id="110" transform="matrix(1 0 0 -1 0 792)" d="M108.092 652.77L108.092 605.07" stroke="#000000" stroke-width="0.75" stroke-linecap="square" fill="none" /><path id="111" transform="matrix(1 0 0 -1 0 792)" d="M108.092 652.77L219.342 652.77" stroke="#000000" stroke-width="0.75" stroke-linecap="square" fill="none" /><path id="112" transform="matrix(1 0 0 -1 0 792)" d="M220.092 652.77L220.092 604.32" stroke="#000000" stroke-width="0.75" stroke-linecap="square" fill="none" /><path id="113" transform="matrix(1 0 0 -1 0 792)" d="M220.092 652.77L263.83 652.77L263.83 652.77L263.83 604.32" stroke="#000000" stroke-width="0.75" stroke-linecap="square" fill="none" /><path id="114" transform="matrix(1 0 0 -1 0 792)" d="M220.092 604.32L263.83 604.32" stroke="#000000" stroke-width="0.75" stroke-linecap="square" fill="none" /><path id="123" transform="matrix(1 0 0 -1 0 792)" d="M220.842 652.77L263.08 652.77" stroke="#000000" stroke-width="0.75" stroke-linecap="square" fill="none" /><path id="124" transform="matrix(1 0 0 -1 0 792)" d="M263.83 652.77L263.83 604.32" stroke="#000000" stroke-width="0.75" stroke-linecap="square" fill="none" /><path id="125" transform="matrix(1 0 0 -1 0 792)" d="M263.83 652.77L322.508 652.77L322.508 652.77L322.508 604.32" stroke="#000000" stroke-width="0.75" stroke-linecap="square" fill="none" /><path id="126" transform="matrix(1 0 0 -1 0 792)" d="M263.83 604.32L322.508 604.32" stroke="#000000" stroke-width="0.75" stroke-linecap="square" fill="none" /><path id="159" transform="matrix(1 0 0 -1 0 792)" d="M264.58 652.77L321.758 652.77" stroke="#000000" stroke-width="0.75" stroke-linecap="square" fill="none" /><path id="160" transform="matrix(1 0 0 -1 0 792)" d="M322.508 652.77L322.508 604.32" stroke="#000000" stroke-width="0.75" stroke-linecap="square" fill="none" /><path id="161" transform="matrix(1 0 0 -1 0 792)" d="M322.508 652.77L393.259 652.77L393.259 652.77L393.259 604.32" stroke="#000000" stroke-width="0.75" stroke-linecap="square" fill="none" /><path id="162" transform="matrix(1 0 0 -1 0 792)" d="M322.508 604.32L393.259 604.32" stroke="#000000" stroke-width="0.75" stroke-linecap="square" fill="none" /><path id="199" transform="matrix(1 0 0 -1 0 792)" d="M323.258 652.77L392.509 652.77" stroke="#000000" stroke-width="0.75" stroke-linecap="square" fill="none" /><path id="200" transform="matrix(1 0 0 -1 0 792)" d="M393.259 652.77L393.259 604.32" stroke="#000000" stroke-width="0.75" stroke-linecap="square" fill="none" /><path id="201" transform="matrix(1 0 0 -1 0 792)" d="M393.259 652.77L503.908 652.77L503.908 652.77L503.908 604.32" stroke="#000000" stroke-width="0.75" stroke-linecap="square" fill="none" /><path id="202" transform="matrix(1 0 0 -1 0 792)" d="M393.259 604.32L503.908 604.32" stroke="#000000" stroke-width="0.75" stroke-linecap="square" fill="none" /><path id="213" transform="matrix(1 0 0 -1 0 792)" d="M394.009 652.77L503.908 652.77L503.908 652.77L503.908 605.07" stroke="#000000" stroke-width="0.75" stroke-linecap="square" fill="none" /><path id="214" transform="matrix(1 0 0 -1 0 792)" d="M108.092 604.32L108.092 567.17" stroke="#000000" stroke-width="0.75" stroke-linecap="square" fill="none" /><path id="215" transform="matrix(1 0 0 -1 0 792)" d="M108.092 604.32L220.092 604.32L220.092 604.32L220.092 567.17" stroke="#000000" stroke-width="0.75" stroke-linecap="square" fill="none" /><path id="216" transform="matrix(1 0 0 -1 0 792)" d="M108.092 567.17L220.092 567.17" stroke="#000000" stroke-width="0.75" stroke-linecap="square" fill="none" /><path id="262" transform="matrix(1 0 0 -1 0 792)" d="M108.092 603.57L108.092 567.92" stroke="#000000" stroke-width="0.75" stroke-linecap="square" fill="none" /><path id="263" transform="matrix(1 0 0 -1 0 792)" d="M220.092 604.32L220.092 567.17" stroke="#000000" stroke-width="0.75" stroke-linecap="square" fill="none" /><path id="264" transform="matrix(1 0 0 -1 0 792)" d="M220.092 604.32L263.83 604.32L263.83 604.32L263.83 567.17" stroke="#000000" stroke-width="0.75" stroke-linecap="square" fill="none" /><path id="265" transform="matrix(1 0 0 -1 0 792)" d="M220.092 567.17L263.83 567.17" stroke="#000000" stroke-width="0.75" stroke-linecap="square" fill="none" /><path id="276" transform="matrix(1 0 0 -1 0 792)" d="M263.83 604.32L263.83 567.17" stroke="#000000" stroke-width="0.75" stroke-linecap="square" fill="none" /><path id="277" transform="matrix(1 0 0 -1 0 792)" d="M263.83 604.32L322.508 604.32L322.508 604.32L322.508 567.17" stroke="#000000" stroke-width="0.75" stroke-linecap="square" fill="none" /><path id="278" transform="matrix(1 0 0 -1 0 792)" d="M263.83 567.17L322.508 567.17" stroke="#000000" stroke-width="0.75" stroke-linecap="square" fill="none" /><path id="294" transform="matrix(1 0 0 -1 0 792)" d="M322.508 604.32L322.508 567.17" stroke="#000000" stroke-width="0.75" stroke-linecap="square" fill="none" /><path id="295" transform="matrix(1 0 0 -1 0 792)" d="M322.508 604.32L393.259 604.32L393.259 604.32L393.259 567.17" stroke="#000000" stroke-width="0.75" stroke-linecap="square" fill="none" /><path id="296" transform="matrix(1 0 0 -1 0 792)" d="M322.508 567.17L393.259 567.17" stroke="#000000" stroke-width="0.75" stroke-linecap="square" fill="none" /><path id="306" transform="matrix(1 0 0 -1 0 792)" d="M393.259 604.32L393.259 567.17" stroke="#000000" stroke-width="0.75" stroke-linecap="square" fill="none" /><path id="307" transform="matrix(1 0 0 -1 0 792)" d="M393.259 604.32L503.908 604.32L503.908 604.32L503.908 567.17" stroke="#000000" stroke-width="0.75" stroke-linecap="square" fill="none" /><path id="308" transform="matrix(1 0 0 -1 0 792)" d="M393.259 567.17L503.908 567.17" stroke="#000000" stroke-width="0.75" stroke-linecap="square" fill="none" /><path id="352" transform="matrix(1 0 0 -1 0 792)" d="M503.908 603.57L503.908 567.92" stroke="#000000" stroke-width="0.75" stroke-linecap="square" fill="none" /><path id="353" transform="matrix(1 0 0 -1 0 792)" d="M108.092 567.17L108.092 530.02" stroke="#000000" stroke-width="0.75" stroke-linecap="square" fill="none" /><path id="354" transform="matrix(1 0 0 -1 0 792)" d="M108.092 567.17L220.092 567.17L220.092 567.17L220.092 530.02" stroke="#000000" stroke-width="0.75" stroke-linecap="square" fill="none" /><path id="355" transform="matrix(1 0 0 -1 0 792)" d="M108.092 530.02L220.092 530.02" stroke="#000000" stroke-width="0.75" stroke-linecap="square" fill="none" /><path id="413" transform="matrix(1 0 0 -1 0 792)" d="M108.092 566.42L108.092 530.77" stroke="#000000" stroke-width="0.75" stroke-linecap="square" fill="none" /><path id="414" transform="matrix(1 0 0 -1 0 792)" d="M220.092 567.17L220.092 530.02" stroke="#000000" stroke-width="0.75" stroke-linecap="square" fill="none" /><path id="415" transform="matrix(1 0 0 -1 0 792)" d="M220.092 567.17L263.83 567.17L263.83 567.17L263.83 530.02" stroke="#000000" stroke-width="0.75" stroke-linecap="square" fill="none" /><path id="416" transform="matrix(1 0 0 -1 0 792)" d="M220.092 530.02L263.83 530.02" stroke="#000000" stroke-width="0.75" stroke-linecap="square" fill="none" /><path id="426" transform="matrix(1 0 0 -1 0 792)" d="M263.83 567.17L263.83 530.02" stroke="#000000" stroke-width="0.75" stroke-linecap="square" fill="none" /><path id="427" transform="matrix(1 0 0 -1 0 792)" d="M263.83 567.17L322.508 567.17L322.508 567.17L322.508 530.02" stroke="#000000" stroke-width="0.75" stroke-linecap="square" fill="none" /><path id="428" transform="matrix(1 0 0 -1 0 792)" d="M263.83 530.02L322.508 530.02" stroke="#000000" stroke-width="0.75" stroke-linecap="square" fill="none" /><path id="441" transform="matrix(1 0 0 -1 0 792)" d="M322.508 567.17L322.508 530.02" stroke="#000000" stroke-width="0.75" stroke-linecap="square" fill="none" /><path id="442" transform="matrix(1 0 0 -1 0 792)" d="M322.508 567.17L393.259 567.17L393.259 567.17L393.259 530.02" stroke="#000000" stroke-width="0.75" stroke-linecap="square" fill="none" /><path id="443" transform="matrix(1 0 0 -1 0 792)" d="M322.508 530.02L393.259 530.02" stroke="#000000" stroke-width="0.75" stroke-linecap="square" fill="none" /><path id="452" transform="matrix(1 0 0 -1 0 792)" d="M393.259 567.17L393.259 530.02" stroke="#000000" stroke-width="0.75" stroke-linecap="square" fill="none" /><path id="453" transform="matrix(1 0 0 -1 0 792)" d="M393.259 567.17L503.908 567.17L503.908 567.17L503.908 530.02" stroke="#000000" stroke-width="0.75" stroke-linecap="square" fill="none" /><path id="454" transform="matrix(1 0 0 -1 0 792)" d="M393.259 530.02L503.908 530.02" stroke="#000000" stroke-width="0.75" stroke-linecap="square" fill="none" /><path id="471" transform="matrix(1 0 0 -1 0 792)" d="M503.908 566.42L503.908 530.77" stroke="#000000" stroke-width="0.75" stroke-linecap="square" fill="none" /><path id="472" transform="matrix(1 0 0 -1 0 792)" d="M108.092 530.02L108.092 503.67" stroke="#000000" stroke-width="0.75" stroke-linecap="square" fill="none" /><path id="473" transform="matrix(1 0 0 -1 0 792)" d="M108.092 530.02L220.092 530.02L220.092 530.02L220.092 503.67" stroke="#000000" stroke-width="0.75" stroke-linecap="square" fill="none" /><path id="474" transform="matrix(1 0 0 -1 0 792)" d="M108.092 503.67L220.092 503.67" stroke="#000000" stroke-width="0.75" stroke-linecap="square" fill="none" /><path id="505" transform="matrix(1 0 0 -1 0 792)" d="M108.092 529.27L108.092 504.42" stroke="#000000" stroke-width="0.75" stroke-linecap="square" fill="none" /><path id="506" transform="matrix(1 0 0 -1 0 792)" d="M220.092 530.02L220.092 503.67" stroke="#000000" stroke-width="0.75" stroke-linecap="square" fill="none" /><path id="507" transform="matrix(1 0 0 -1 0 792)" d="M220.092 530.02L263.83 530.02L263.83 530.02L263.83 503.67" stroke="#000000" stroke-width="0.75" stroke-linecap="square" fill="none" /><path id="508" transform="matrix(1 0 0 -1 0 792)" d="M220.092 503.67L263.83 503.67" stroke="#000000" stroke-width="0.75" stroke-linecap="square" fill="none" /><path id="519" transform="matrix(1 0 0 -1 0 792)" d="M263.83 530.02L263.83 503.67" stroke="#000000" stroke-width="0.75" stroke-linecap="square" fill="none" /><path id="520" transform="matrix(1 0 0 -1 0 792)" d="M263.83 530.02L322.508 530.02L322.508 530.02L322.508 503.67" stroke="#000000" stroke-width="0.75" stroke-linecap="square" fill="none" /><path id="521" transform="matrix(1 0 0 -1 0 792)" d="M263.83 503.67L322.508 503.67" stroke="#000000" stroke-width="0.75" stroke-linecap="square" fill="none" /><path id="533" transform="matrix(1 0 0 -1 0 792)" d="M322.508 530.02L322.508 503.67" stroke="#000000" stroke-width="0.75" stroke-linecap="square" fill="none" /><path id="534" transform="matrix(1 0 0 -1 0 792)" d="M322.508 530.02L393.259 530.02L393.259 530.02L393.259 503.67" stroke="#000000" stroke-width="0.75" stroke-linecap="square" fill="none" /><path id="535" transform="matrix(1 0 0 -1 0 792)" d="M322.508 503.67L393.259 503.67" stroke="#000000" stroke-width="0.75" stroke-linecap="square" fill="none" /><path id="548" transform="matrix(1 0 0 -1 0 792)" d="M393.259 530.02L393.259 503.67" stroke="#000000" stroke-width="0.75" stroke-linecap="square" fill="none" /><path id="549" transform="matrix(1 0 0 -1 0 792)" d="M393.259 530.02L503.908 530.02L503.908 530.02L503.908 503.67" stroke="#000000" stroke-width="0.75" stroke-linecap="square" fill="none" /><path id="550" transform="matrix(1 0 0 -1 0 792)" d="M393.259 503.67L503.908 503.67" stroke="#000000" stroke-width="0.75" stroke-linecap="square" fill="none" /><path id="595" transform="matrix(1 0 0 -1 0 792)" d="M503.908 529.27L503.908 504.42" stroke="#000000" stroke-width="0.75" stroke-linecap="square" fill="none" /><path id="596" transform="matrix(1 0 0 -1 0 792)" d="M108.092 503.67L108.092 477.32" stroke="#000000" stroke-width="0.75" stroke-linecap="square" fill="none" /><path id="597" transform="matrix(1 0 0 -1 0 792)" d="M108.092 503.67L220.092 503.67L220.092 503.67L220.092 477.32" stroke="#000000" stroke-width="0.75" stroke-linecap="square" fill="none" /><path id="598" transform="matrix(1 0 0 -1 0 792)" d="M108.092 477.32L220.092 477.32" stroke="#000000" stroke-width="0.75" stroke-linecap="square" fill="none" /><path id="628" transform="matrix(1 0 0 -1 0 792)" d="M108.092 502.92L108.092 478.07" stroke="#000000" stroke-width="0.75" stroke-linecap="square" fill="none" /><path id="629" transform="matrix(1 0 0 -1 0 792)" d="M220.092 503.67L220.092 477.32" stroke="#000000" stroke-width="0.75" stroke-linecap="square" fill="none" /><path id="630" transform="matrix(1 0 0 -1 0 792)" d="M220.092 503.67L263.83 503.67L263.83 503.67L263.83 477.32" stroke="#000000" stroke-width="0.75" stroke-linecap="square" fill="none" /><path id="631" transform="matrix(1 0 0 -1 0 792)" d="M220.092 477.32L263.83 477.32" stroke="#000000" stroke-width="0.75" stroke-linecap="square" fill="none" /><path id="642" transform="matrix(1 0 0 -1 0 792)" d="M263.83 503.67L263.83 477.32" stroke="#000000" stroke-width="0.75" stroke-linecap="square" fill="none" /><path id="643" transform="matrix(1 0 0 -1 0 792)" d="M263.83 503.67L322.508 503.67L322.508 503.67L322.508 477.32" stroke="#000000" stroke-width="0.75" stroke-linecap="square" fill="none" /><path id="644" transform="matrix(1 0 0 -1 0 792)" d="M263.83 477.32L322.508 477.32" stroke="#000000" stroke-width="0.75" stroke-linecap="square" fill="none" /><path id="656" transform="matrix(1 0 0 -1 0 792)" d="M322.508 503.67L322.508 477.32" stroke="#000000" stroke-width="0.75" stroke-linecap="square" fill="none" /><path id="657" transform="matrix(1 0 0 -1 0 792)" d="M322.508 503.67L393.259 503.67L393.259 503.67L393.259 477.32" stroke="#000000" stroke-width="0.75" stroke-linecap="square" fill="none" /><path id="658" transform="matrix(1 0 0 -1 0 792)" d="M322.508 477.32L393.259 477.32" stroke="#000000" stroke-width="0.75" stroke-linecap="square" fill="none" /><path id="668" transform="matrix(1 0 0 -1 0 792)" d="M393.259 503.67L393.259 477.32" stroke="#000000" stroke-width="0.75" stroke-linecap="square" fill="none" /><path id="669" transform="matrix(1 0 0 -1 0 792)" d="M393.259 503.67L503.908 503.67L503.908 503.67L503.908 477.32" stroke="#000000" stroke-width="0.75" stroke-linecap="square" fill="none" /><path id="670" transform="matrix(1 0 0 -1 0 792)" d="M393.259 477.32L503.908 477.32" stroke="#000000" stroke-width="0.75" stroke-linecap="square" fill="none" /><path id="699" transform="matrix(1 0 0 -1 0 792)" d="M503.908 502.92L503.908 478.07" stroke="#000000" stroke-width="0.75" stroke-linecap="square" fill="none" /><path id="700" transform="matrix(1 0 0 -1 0 792)" d="M108.092 477.32L108.092 440.17" stroke="#000000" stroke-width="0.75" stroke-linecap="square" fill="none" /><path id="701" transform="matrix(1 0 0 -1 0 792)" d="M108.092 477.32L220.092 477.32L220.092 477.32L220.092 440.17" stroke="#000000" stroke-width="0.75" stroke-linecap="square" fill="none" /><path id="702" transform="matrix(1 0 0 -1 0 792)" d="M108.092 440.17L220.092 440.17" stroke="#000000" stroke-width="0.75" stroke-linecap="square" fill="none" /><path id="728" transform="matrix(1 0 0 -1 0 792)" d="M108.092 476.57L108.092 440.92" stroke="#000000" stroke-width="0.75" stroke-linecap="square" fill="none" /><path id="729" transform="matrix(1 0 0 -1 0 792)" d="M220.092 477.32L220.092 440.17" stroke="#000000" stroke-width="0.75" stroke-linecap="square" fill="none" /><path id="730" transform="matrix(1 0 0 -1 0 792)" d="M220.092 477.32L263.83 477.32L263.83 477.32L263.83 440.17" stroke="#000000" stroke-width="0.75" stroke-linecap="square" fill="none" /><path id="731" transform="matrix(1 0 0 -1 0 792)" d="M220.092 440.17L263.83 440.17" stroke="#000000" stroke-width="0.75" stroke-linecap="square" fill="none" /><path id="742" transform="matrix(1 0 0 -1 0 792)" d="M263.83 477.32L263.83 440.17" stroke="#000000" stroke-width="0.75" stroke-linecap="square" fill="none" /><path id="743" transform="matrix(1 0 0 -1 0 792)" d="M263.83 477.32L322.508 477.32L322.508 477.32L322.508 440.17" stroke="#000000" stroke-width="0.75" stroke-linecap="square" fill="none" /><path id="744" transform="matrix(1 0 0 -1 0 792)" d="M263.83 440.17L322.508 440.17" stroke="#000000" stroke-width="0.75" stroke-linecap="square" fill="none" /><path id="756" transform="matrix(1 0 0 -1 0 792)" d="M322.508 477.32L322.508 440.17" stroke="#000000" stroke-width="0.75" stroke-linecap="square" fill="none" /><path id="757" transform="matrix(1 0 0 -1 0 792)" d="M322.508 477.32L393.259 477.32L393.259 477.32L393.259 440.17" stroke="#000000" stroke-width="0.75" stroke-linecap="square" fill="none" /><path id="758" transform="matrix(1 0 0 -1 0 792)" d="M322.508 440.17L393.259 440.17" stroke="#000000" stroke-width="0.75" stroke-linecap="square" fill="none" /><path id="767" transform="matrix(1 0 0 -1 0 792)" d="M393.259 477.32L393.259 440.17" stroke="#000000" stroke-width="0.75" stroke-linecap="square" fill="none" /><path id="768" transform="matrix(1 0 0 -1 0 792)" d="M393.259 477.32L503.908 477.32L503.908 477.32L503.908 440.17" stroke="#000000" stroke-width="0.75" stroke-linecap="square" fill="none" /><path id="769" transform="matrix(1 0 0 -1 0 792)" d="M393.259 440.17L503.908 440.17" stroke="#000000" stroke-width="0.75" stroke-linecap="square" fill="none" /><path id="833" transform="matrix(1 0 0 -1 0 792)" d="M503.908 476.57L503.908 440.92" stroke="#000000" stroke-width="0.75" stroke-linecap="square" fill="none" /><path id="834" transform="matrix(1 0 0 -1 0 792)" d="M108.092 440.17L108.092 413.82" stroke="#000000" stroke-width="0.75" stroke-linecap="square" fill="none" /><path id="835" transform="matrix(1 0 0 -1 0 792)" d="M108.092 440.17L220.092 440.17L220.092 440.17L220.092 413.82" stroke="#000000" stroke-width="0.75" stroke-linecap="square" fill="none" /><path id="836" transform="matrix(1 0 0 -1 0 792)" d="M108.092 413.82L220.092 413.82" stroke="#000000" stroke-width="0.75" stroke-linecap="square" fill="none" /><path id="862" transform="matrix(1 0 0 -1 0 792)" d="M108.092 439.42L108.092 414.57" stroke="#000000" stroke-width="0.75" stroke-linecap="square" fill="none" /><path id="863" transform="matrix(1 0 0 -1 0 792)" d="M220.092 440.17L220.092 413.82" stroke="#000000" stroke-width="0.75" stroke-linecap="square" fill="none" /><path id="864" transform="matrix(1 0 0 -1 0 792)" d="M220.092 440.17L263.83 440.17L263.83 440.17L263.83 413.82" stroke="#000000" stroke-width="0.75" stroke-linecap="square" fill="none" /><path id="865" transform="matrix(1 0 0 -1 0 792)" d="M220.092 413.82L263.83 413.82" stroke="#000000" stroke-width="0.75" stroke-linecap="square" fill="none" /><path id="875" transform="matrix(1 0 0 -1 0 792)" d="M263.83 440.17L263.83 413.82" stroke="#000000" stroke-width="0.75" stroke-linecap="square" fill="none" /><path id="876" transform="matrix(1 0 0 -1 0 792)" d="M263.83 440.17L322.508 440.17L322.508 440.17L322.508 413.82" stroke="#000000" stroke-width="0.75" stroke-linecap="square" fill="none" /><path id="877" transform="matrix(1 0 0 -1 0 792)" d="M263.83 413.82L322.508 413.82" stroke="#000000" stroke-width="0.75" stroke-linecap="square" fill="none" /><path id="890" transform="matrix(1 0 0 -1 0 792)" d="M322.508 440.17L322.508 413.82" stroke="#000000" stroke-width="0.75" stroke-linecap="square" fill="none" /><path id="891" transform="matrix(1 0 0 -1 0 792)" d="M322.508 440.17L393.259 440.17L393.259 440.17L393.259 413.82" stroke="#000000" stroke-width="0.75" stroke-linecap="square" fill="none" /><path id="892" transform="matrix(1 0 0 -1 0 792)" d="M322.508 413.82L393.259 413.82" stroke="#000000" stroke-width="0.75" stroke-linecap="square" fill="none" /><path id="905" transform="matrix(1 0 0 -1 0 792)" d="M393.259 440.17L393.259 413.82" stroke="#000000" stroke-width="0.75" stroke-linecap="square" fill="none" /><path id="906" transform="matrix(1 0 0 -1 0 792)" d="M393.259 440.17L503.908 440.17L503.908 440.17L503.908 413.82" stroke="#000000" stroke-width="0.75" stroke-linecap="square" fill="none" /><path id="907" transform="matrix(1 0 0 -1 0 792)" d="M393.259 413.82L503.908 413.82" stroke="#000000" stroke-width="0.75" stroke-linecap="square" fill="none" /><path id="935" transform="matrix(1 0 0 -1 0 792)" d="M503.908 439.42L503.908 414.57" stroke="#000000" stroke-width="0.75" stroke-linecap="square" fill="none" /><path id="936" transform="matrix(1 0 0 -1 0 792)" d="M108.092 413.82L108.092 387.47" stroke="#000000" stroke-width="0.75" stroke-linecap="square" fill="none" /><path id="937" transform="matrix(1 0 0 -1 0 792)" d="M108.092 413.82L220.092 413.82L220.092 413.82L220.092 387.47" stroke="#000000" stroke-width="0.75" stroke-linecap="square" fill="none" /><path id="938" transform="matrix(1 0 0 -1 0 792)" d="M108.092 387.47L220.092 387.47" stroke="#000000" stroke-width="0.75" stroke-linecap="square" fill="none" /><path id="978" transform="matrix(1 0 0 -1 0 792)" d="M108.092 413.07L108.092 388.22" stroke="#000000" stroke-width="0.75" stroke-linecap="square" fill="none" /><path id="979" transform="matrix(1 0 0 -1 0 792)" d="M220.092 413.82L220.092 387.47" stroke="#000000" stroke-width="0.75" stroke-linecap="square" fill="none" /><path id="980" transform="matrix(1 0 0 -1 0 792)" d="M220.092 413.82L263.83 413.82L263.83 413.82L263.83 387.47" stroke="#000000" stroke-width="0.75" stroke-linecap="square" fill="none" /><path id="981" transform="matrix(1 0 0 -1 0 792)" d="M220.092 387.47L263.83 387.47" stroke="#000000" stroke-width="0.75" stroke-linecap="square" fill="none" /><path id="991" transform="matrix(1 0 0 -1 0 792)" d="M263.83 413.82L263.83 387.47" stroke="#000000" stroke-width="0.75" stroke-linecap="square" fill="none" /><path id="992" transform="matrix(1 0 0 -1 0 792)" d="M263.83 413.82L322.508 413.82L322.508 413.82L322.508 387.47" stroke="#000000" stroke-width="0.75" stroke-linecap="square" fill="none" /><path id="993" transform="matrix(1 0 0 -1 0 792)" d="M263.83 387.47L322.508 387.47" stroke="#000000" stroke-width="0.75" stroke-linecap="square" fill="none" /><path id="1006" transform="matrix(1 0 0 -1 0 792)" d="M322.508 413.82L322.508 387.47" stroke="#000000" stroke-width="0.75" stroke-linecap="square" fill="none" /><path id="1007" transform="matrix(1 0 0 -1 0 792)" d="M322.508 413.82L393.259 413.82L393.259 413.82L393.259 387.47" stroke="#000000" stroke-width="0.75" stroke-linecap="square" fill="none" /><path id="1008" transform="matrix(1 0 0 -1 0 792)" d="M322.508 387.47L393.259 387.47" stroke="#000000" stroke-width="0.75" stroke-linecap="square" fill="none" /><path id="1024" transform="matrix(1 0 0 -1 0 792)" d="M393.259 413.82L393.259 387.47" stroke="#000000" stroke-width="0.75" stroke-linecap="square" fill="none" /><path id="1025" transform="matrix(1 0 0 -1 0 792)" d="M393.259 413.82L503.908 413.82L503.908 413.82L503.908 387.47" stroke="#000000" stroke-width="0.75" stroke-linecap="square" fill="none" /><path id="1026" transform="matrix(1 0 0 -1 0 792)" d="M393.259 387.47L503.908 387.47" stroke="#000000" stroke-width="0.75" stroke-linecap="square" fill="none" /><path id="1043" transform="matrix(1 0 0 -1 0 792)" d="M503.908 413.07L503.908 388.22" stroke="#000000" stroke-width="0.75" stroke-linecap="square" fill="none" /><path id="1044" transform="matrix(1 0 0 -1 0 792)" d="M108.092 387.47L108.092 339.52" stroke="#000000" stroke-width="0.75" stroke-linecap="square" fill="none" /><path id="1045" transform="matrix(1 0 0 -1 0 792)" d="M108.092 387.47L220.092 387.47L220.092 387.47L220.092 339.52" stroke="#000000" stroke-width="0.75" stroke-linecap="square" fill="none" /><path id="1046" transform="matrix(1 0 0 -1 0 792)" d="M108.092 339.52L220.092 339.52" stroke="#000000" stroke-width="0.75" stroke-linecap="square" fill="none" /><path id="1092" transform="matrix(1 0 0 -1 0 792)" d="M108.092 386.72L108.092 340.27" stroke="#000000" stroke-width="0.75" stroke-linecap="square" fill="none" /><path id="1093" transform="matrix(1 0 0 -1 0 792)" d="M220.092 387.47L220.092 339.52" stroke="#000000" stroke-width="0.75" stroke-linecap="square" fill="none" /><path id="1094" transform="matrix(1 0 0 -1 0 792)" d="M220.092 387.47L263.83 387.47L263.83 387.47L263.83 339.52" stroke="#000000" stroke-width="0.75" stroke-linecap="square" fill="none" /><path id="1095" transform="matrix(1 0 0 -1 0 792)" d="M220.092 339.52L263.83 339.52" stroke="#000000" stroke-width="0.75" stroke-linecap="square" fill="none" /><path id="1105" transform="matrix(1 0 0 -1 0 792)" d="M263.83 387.47L263.83 339.52" stroke="#000000" stroke-width="0.75" stroke-linecap="square" fill="none" /><path id="1106" transform="matrix(1 0 0 -1 0 792)" d="M263.83 387.47L322.508 387.47L322.508 387.47L322.508 339.52" stroke="#000000" stroke-width="0.75" stroke-linecap="square" fill="none" /><path id="1107" transform="matrix(1 0 0 -1 0 792)" d="M263.83 339.52L322.508 339.52" stroke="#000000" stroke-width="0.75" stroke-linecap="square" fill="none" /><path id="1120" transform="matrix(1 0 0 -1 0 792)" d="M322.508 387.47L322.508 339.52" stroke="#000000" stroke-width="0.75" stroke-linecap="square" fill="none" /><path id="1121" transform="matrix(1 0 0 -1 0 792)" d="M322.508 387.47L393.259 387.47L393.259 387.47L393.259 339.52" stroke="#000000" stroke-width="0.75" stroke-linecap="square" fill="none" /><path id="1122" transform="matrix(1 0 0 -1 0 792)" d="M322.508 339.52L393.259 339.52" stroke="#000000" stroke-width="0.75" stroke-linecap="square" fill="none" /><path id="1137" transform="matrix(1 0 0 -1 0 792)" d="M393.259 387.47L393.259 339.52" stroke="#000000" stroke-width="0.75" stroke-linecap="square" fill="none" /><path id="1138" transform="matrix(1 0 0 -1 0 792)" d="M393.259 387.47L503.908 387.47L503.908 387.47L503.908 339.52" stroke="#000000" stroke-width="0.75" stroke-linecap="square" fill="none" /><path id="1139" transform="matrix(1 0 0 -1 0 792)" d="M393.259 339.52L503.908 339.52" stroke="#000000" stroke-width="0.75" stroke-linecap="square" fill="none" /><path id="1215" transform="matrix(1 0 0 -1 0 792)" d="M503.908 386.72L503.908 340.27" stroke="#000000" stroke-width="0.75" stroke-linecap="square" fill="none" /><path id="1216" transform="matrix(1 0 0 -1 0 792)" d="M108.092 339.52L108.092 302.37" stroke="#000000" stroke-width="0.75" stroke-linecap="square" fill="none" /><path id="1217" transform="matrix(1 0 0 -1 0 792)" d="M108.092 339.52L220.092 339.52L220.092 339.52L220.092 302.37" stroke="#000000" stroke-width="0.75" stroke-linecap="square" fill="none" /><path id="1218" transform="matrix(1 0 0 -1 0 792)" d="M108.092 302.37L220.092 302.37" stroke="#000000" stroke-width="0.75" stroke-linecap="square" fill="none" /><path id="1253" transform="matrix(1 0 0 -1 0 792)" d="M108.092 338.77L108.092 303.12" stroke="#000000" stroke-width="0.75" stroke-linecap="square" fill="none" /><path id="1254" transform="matrix(1 0 0 -1 0 792)" d="M220.092 339.52L220.092 302.37" stroke="#000000" stroke-width="0.75" stroke-linecap="square" fill="none" /><path id="1255" transform="matrix(1 0 0 -1 0 792)" d="M220.092 339.52L263.83 339.52L263.83 339.52L263.83 302.37" stroke="#000000" stroke-width="0.75" stroke-linecap="square" fill="none" /><path id="1256" transform="matrix(1 0 0 -1 0 792)" d="M220.092 302.37L263.83 302.37" stroke="#000000" stroke-width="0.75" stroke-linecap="square" fill="none" /><path id="1267" transform="matrix(1 0 0 -1 0 792)" d="M263.83 339.52L263.83 302.37" stroke="#000000" stroke-width="0.75" stroke-linecap="square" fill="none" /><path id="1268" transform="matrix(1 0 0 -1 0 792)" d="M263.83 339.52L322.508 339.52L322.508 339.52L322.508 302.37" stroke="#000000" stroke-width="0.75" stroke-linecap="square" fill="none" /><path id="1269" transform="matrix(1 0 0 -1 0 792)" d="M263.83 302.37L322.508 302.37" stroke="#000000" stroke-width="0.75" stroke-linecap="square" fill="none" /><path id="1282" transform="matrix(1 0 0 -1 0 792)" d="M322.508 339.52L322.508 302.37" stroke="#000000" stroke-width="0.75" stroke-linecap="square" fill="none" /><path id="1283" transform="matrix(1 0 0 -1 0 792)" d="M322.508 339.52L393.259 339.52L393.259 339.52L393.259 302.37" stroke="#000000" stroke-width="0.75" stroke-linecap="square" fill="none" /><path id="1284" transform="matrix(1 0 0 -1 0 792)" d="M322.508 302.37L393.259 302.37" stroke="#000000" stroke-width="0.75" stroke-linecap="square" fill="none" /><path id="1293" transform="matrix(1 0 0 -1 0 792)" d="M393.259 339.52L393.259 302.37" stroke="#000000" stroke-width="0.75" stroke-linecap="square" fill="none" /><path id="1294" transform="matrix(1 0 0 -1 0 792)" d="M393.259 339.52L503.908 339.52L503.908 339.52L503.908 302.37" stroke="#000000" stroke-width="0.75" stroke-linecap="square" fill="none" /><path id="1295" transform="matrix(1 0 0 -1 0 792)" d="M393.259 302.37L503.908 302.37" stroke="#000000" stroke-width="0.75" stroke-linecap="square" fill="none" /><path id="1356" transform="matrix(1 0 0 -1 0 792)" d="M503.908 338.77L503.908 303.12" stroke="#000000" stroke-width="0.75" stroke-linecap="square" fill="none" /><path id="1357" transform="matrix(1 0 0 -1 0 792)" d="M108.092 302.37L108.092 254.42" stroke="#000000" stroke-width="0.75" stroke-linecap="square" fill="none" /><path id="1358" transform="matrix(1 0 0 -1 0 792)" d="M108.092 302.37L220.092 302.37L220.092 302.37L220.092 254.42" stroke="#000000" stroke-width="0.75" stroke-linecap="square" fill="none" /><path id="1359" transform="matrix(1 0 0 -1 0 792)" d="M108.092 254.42L220.092 254.42" stroke="#000000" stroke-width="0.75" stroke-linecap="square" fill="none" /><path id="1403" transform="matrix(1 0 0 -1 0 792)" d="M108.092 301.62L108.092 255.17" stroke="#000000" stroke-width="0.75" stroke-linecap="square" fill="none" /><path id="1404" transform="matrix(1 0 0 -1 0 792)" d="M220.092 302.37L220.092 254.42" stroke="#000000" stroke-width="0.75" stroke-linecap="square" fill="none" /><path id="1405" transform="matrix(1 0 0 -1 0 792)" d="M220.092 302.37L263.83 302.37L263.83 302.37L263.83 254.42" stroke="#000000" stroke-width="0.75" stroke-linecap="square" fill="none" /><path id="1406" transform="matrix(1 0 0 -1 0 792)" d="M220.092 254.42L263.83 254.42" stroke="#000000" stroke-width="0.75" stroke-linecap="square" fill="none" /><path id="1416" transform="matrix(1 0 0 -1 0 792)" d="M263.83 302.37L263.83 254.42" stroke="#000000" stroke-width="0.75" stroke-linecap="square" fill="none" /><path id="1417" transform="matrix(1 0 0 -1 0 792)" d="M263.83 302.37L322.508 302.37L322.508 302.37L322.508 254.42" stroke="#000000" stroke-width="0.75" stroke-linecap="square" fill="none" /><path id="1418" transform="matrix(1 0 0 -1 0 792)" d="M263.83 254.42L322.508 254.42" stroke="#000000" stroke-width="0.75" stroke-linecap="square" fill="none" /><path id="1430" transform="matrix(1 0 0 -1 0 792)" d="M322.508 302.37L322.508 254.42" stroke="#000000" stroke-width="0.75" stroke-linecap="square" fill="none" /><path id="1431" transform="matrix(1 0 0 -1 0 792)" d="M322.508 302.37L393.259 302.37L393.259 302.37L393.259 254.42" stroke="#000000" stroke-width="0.75" stroke-linecap="square" fill="none" /><path id="1432" transform="matrix(1 0 0 -1 0 792)" d="M322.508 254.42L393.259 254.42" stroke="#000000" stroke-width="0.75" stroke-linecap="square" fill="none" /><path id="1445" transform="matrix(1 0 0 -1 0 792)" d="M393.259 302.37L393.259 254.42" stroke="#000000" stroke-width="0.75" stroke-linecap="square" fill="none" /><path id="1446" transform="matrix(1 0 0 -1 0 792)" d="M393.259 302.37L503.908 302.37L503.908 302.37L503.908 254.42" stroke="#000000" stroke-width="0.75" stroke-linecap="square" fill="none" /><path id="1447" transform="matrix(1 0 0 -1 0 792)" d="M393.259 254.42L503.908 254.42" stroke="#000000" stroke-width="0.75" stroke-linecap="square" fill="none" /><path id="1519" transform="matrix(1 0 0 -1 0 792)" d="M503.908 301.62L503.908 255.17" stroke="#000000" stroke-width="0.75" stroke-linecap="square" fill="none" /><path id="1520" transform="matrix(1 0 0 -1 0 792)" d="M108.092 254.42L108.092 195.67" stroke="#000000" stroke-width="0.75" stroke-linecap="square" fill="none" /><path id="1521" transform="matrix(1 0 0 -1 0 792)" d="M108.092 254.42L220.092 254.42L220.092 254.42L220.092 195.67" stroke="#000000" stroke-width="0.75" stroke-linecap="square" fill="none" /><path id="1522" transform="matrix(1 0 0 -1 0 792)" d="M108.092 195.67L220.092 195.67" stroke="#000000" stroke-width="0.75" stroke-linecap="square" fill="none" /><path id="1573" transform="matrix(1 0 0 -1 0 792)" d="M108.092 253.67L108.092 196.42" stroke="#000000" stroke-width="0.75" stroke-linecap="square" fill="none" /><path id="1574" transform="matrix(1 0 0 -1 0 792)" d="M220.092 254.42L220.092 195.67" stroke="#000000" stroke-width="0.75" stroke-linecap="square" fill="none" /><path id="1575" transform="matrix(1 0 0 -1 0 792)" d="M220.092 254.42L263.83 254.42L263.83 254.42L263.83 195.67" stroke="#000000" stroke-width="0.75" stroke-linecap="square" fill="none" /><path id="1576" transform="matrix(1 0 0 -1 0 792)" d="M220.092 195.67L263.83 195.67" stroke="#000000" stroke-width="0.75" stroke-linecap="square" fill="none" /><path id="1586" transform="matrix(1 0 0 -1 0 792)" d="M263.83 254.42L263.83 195.67" stroke="#000000" stroke-width="0.75" stroke-linecap="square" fill="none" /><path id="1587" transform="matrix(1 0 0 -1 0 792)" d="M263.83 254.42L322.508 254.42L322.508 254.42L322.508 195.67" stroke="#000000" stroke-width="0.75" stroke-linecap="square" fill="none" /><path id="1588" transform="matrix(1 0 0 -1 0 792)" d="M263.83 195.67L322.508 195.67" stroke="#000000" stroke-width="0.75" stroke-linecap="square" fill="none" /><path id="1600" transform="matrix(1 0 0 -1 0 792)" d="M322.508 254.42L322.508 195.67" stroke="#000000" stroke-width="0.75" stroke-linecap="square" fill="none" /><path id="1601" transform="matrix(1 0 0 -1 0 792)" d="M322.508 254.42L393.259 254.42L393.259 254.42L393.259 195.67" stroke="#000000" stroke-width="0.75" stroke-linecap="square" fill="none" /><path id="1602" transform="matrix(1 0 0 -1 0 792)" d="M322.508 195.67L393.259 195.67" stroke="#000000" stroke-width="0.75" stroke-linecap="square" fill="none" /><path id="1614" transform="matrix(1 0 0 -1 0 792)" d="M393.259 254.42L393.259 195.67" stroke="#000000" stroke-width="0.75" stroke-linecap="square" fill="none" /><path id="1615" transform="matrix(1 0 0 -1 0 792)" d="M393.259 254.42L503.908 254.42L503.908 254.42L503.908 195.67" stroke="#000000" stroke-width="0.75" stroke-linecap="square" fill="none" /><path id="1616" transform="matrix(1 0 0 -1 0 792)" d="M393.259 195.67L503.908 195.67" stroke="#000000" stroke-width="0.75" stroke-linecap="square" fill="none" /><path id="1708" transform="matrix(1 0 0 -1 0 792)" d="M503.908 253.67L503.908 196.42" stroke="#000000" stroke-width="0.75" stroke-linecap="square" fill="none" /><path id="1709" transform="matrix(1 0 0 -1 0 792)" d="M108.092 195.67L108.092 147.72" stroke="#000000" stroke-width="0.75" stroke-linecap="square" fill="none" /><path id="1710" transform="matrix(1 0 0 -1 0 792)" d="M108.092 195.67L220.092 195.67L220.092 195.67L220.092 147.72" stroke="#000000" stroke-width="0.75" stroke-linecap="square" fill="none" /><path id="1711" transform="matrix(1 0 0 -1 0 792)" d="M108.092 147.72L220.092 147.72" stroke="#000000" stroke-width="0.75" stroke-linecap="square" fill="none" /><path id="1735" transform="matrix(1 0 0 -1 0 792)" d="M108.092 194.92L108.092 147.72L108.092 147.72L219.342 147.72" stroke="#000000" stroke-width="0.75" stroke-linecap="square" fill="none" /><path id="1736" transform="matrix(1 0 0 -1 0 792)" d="M220.092 195.67L220.092 147.72" stroke="#000000" stroke-width="0.75" stroke-linecap="square" fill="none" /><path id="1737" transform="matrix(1 0 0 -1 0 792)" d="M220.092 195.67L263.83 195.67L263.83 195.67L263.83 147.72" stroke="#000000" stroke-width="0.75" stroke-linecap="square" fill="none" /><path id="1738" transform="matrix(1 0 0 -1 0 792)" d="M220.092 147.72L263.83 147.72" stroke="#000000" stroke-width="0.75" stroke-linecap="square" fill="none" /><path id="1748" transform="matrix(1 0 0 -1 0 792)" d="M220.842 147.72L263.08 147.72" stroke="#000000" stroke-width="0.75" stroke-linecap="square" fill="none" /><path id="1749" transform="matrix(1 0 0 -1 0 792)" d="M263.83 195.67L263.83 147.72" stroke="#000000" stroke-width="0.75" stroke-linecap="square" fill="none" /><path id="1750" transform="matrix(1 0 0 -1 0 792)" d="M263.83 195.67L322.508 195.67L322.508 195.67L322.508 147.72" stroke="#000000" stroke-width="0.75" stroke-linecap="square" fill="none" /><path id="1751" transform="matrix(1 0 0 -1 0 792)" d="M263.83 147.72L322.508 147.72" stroke="#000000" stroke-width="0.75" stroke-linecap="square" fill="none" /><path id="1764" transform="matrix(1 0 0 -1 0 792)" d="M264.58 147.72L321.758 147.72" stroke="#000000" stroke-width="0.75" stroke-linecap="square" fill="none" /><path id="1765" transform="matrix(1 0 0 -1 0 792)" d="M322.508 195.67L322.508 147.72" stroke="#000000" stroke-width="0.75" stroke-linecap="square" fill="none" /><path id="1766" transform="matrix(1 0 0 -1 0 792)" d="M322.508 195.67L393.259 195.67L393.259 195.67L393.259 147.72" stroke="#000000" stroke-width="0.75" stroke-linecap="square" fill="none" /><path id="1767" transform="matrix(1 0 0 -1 0 792)" d="M322.508 147.72L393.259 147.72" stroke="#000000" stroke-width="0.75" stroke-linecap="square" fill="none" /><path id="1780" transform="matrix(1 0 0 -1 0 792)" d="M323.258 147.72L392.509 147.72" stroke="#000000" stroke-width="0.75" stroke-linecap="square" fill="none" /><path id="1781" transform="matrix(1 0 0 -1 0 792)" d="M393.259 195.67L393.259 147.72" stroke="#000000" stroke-width="0.75" stroke-linecap="square" fill="none" /><path id="1782" transform="matrix(1 0 0 -1 0 792)" d="M393.259 195.67L503.908 195.67L503.908 195.67L503.908 147.72" stroke="#000000" stroke-width="0.75" stroke-linecap="square" fill="none" /><path id="1783" transform="matrix(1 0 0 -1 0 792)" d="M393.259 147.72L503.908 147.72" stroke="#000000" stroke-width="0.75" stroke-linecap="square" fill="none" /><path id="1857" transform="matrix(1 0 0 -1 0 792)" d="M503.908 194.92L503.908 147.72" stroke="#000000" stroke-width="0.75" stroke-linecap="square" fill="none" /><path id="1858" transform="matrix(1 0 0 -1 0 792)" d="M394.009 147.72L503.908 147.72" stroke="#000000" stroke-width="0.75" stroke-linecap="square" fill="none" /></g></g></svg>