<svg xmlns="http://www.w3.org/2000/svg" xmlns:xlink="http://www.w3.org/1999/xlink" id="body_39" preserveAspectRatio="xMinYMin meet" viewBox="0 0 816 1056"><defs><clipPath id="1"><path id="" clip-rule="evenodd" transform="matrix(1 0 0 1 0 0)" d="M0 792L0 0L0 0L612 0L612 0L612 792L612 792L0 792z" /></clipPath></defs><g transform="matrix(1.333333 0 0 1.333333 0 0)"><g clip-path="url(#1)"><path id="100" transform="matrix(1 0 0 -1 0 792)" d="M108.092 649.02L108.092 622.17" stroke="#000000" stroke-width="0.75" stroke-linecap="square" fill="none" /><path id="101" transform="matrix(1 0 0 -1 0 792)" d="M108.092 649.02L172.873 649.02L172.873 649.02L172.873 622.17" stroke="#000000" stroke-width="0.75" stroke-linecap="square" fill="none" /><path id="102" transform="matrix(1 0 0 -1 0 792)" d="M108.092 622.17L172.873 622.17" stroke="#000000" stroke-width="0.75" stroke-linecap="square" fill="none" /><path id="121" transform="matrix(1 0 0 -1 0 792)" d="M108.092 649.02L108.092 622.92" stroke="#000000" stroke-width="0.75" stroke-linecap="square" fill="none" /><path id="122" transform="matrix(1 0 0 -1 0 792)" d="M108.092 649.02L172.123 649.02" stroke="#000000" stroke-width="0.75" stroke-linecap="square" fill="none" /><path id="123" transform="matrix(1 0 0 -1 0 792)" d="M172.873 649.02L172.873 622.17" stroke="#000000" stroke-width="0.75" stroke-linecap="square" fill="none" /><path id="124" transform="matrix(1 0 0 -1 0 792)" d="M172.873 649.02L296.552 649.02L296.552 649.02L296.552 622.17" stroke="#000000" stroke-width="0.75" stroke-linecap="square" fill="none" /><path id="125" transform="matrix(1 0 0 -1 0 792)" d="M172.873 622.17L296.552 622.17" stroke="#000000" stroke-width="0.75" stroke-linecap="square" fill="none" /><path id="142" transform="matrix(1 0 0 -1 0 792)" d="M173.623 649.02L295.802 649.02" stroke="#000000" stroke-width="0.75" stroke-linecap="square" fill="none" /><path id="143" transform="matrix(1 0 0 -1 0 792)" d="M296.552 649.02L296.552 622.17" stroke="#000000" stroke-width="0.75" stroke-linecap="square" fill="none" /><path id="144" transform="matrix(1 0 0 -1 0 792)" d="M296.552 649.02L366.968 649.02L366.968 649.02L366.968 622.17" stroke="#000000" stroke-width="0.75" stroke-linecap="square" fill="none" /><path id="145" transform="matrix(1 0 0 -1 0 792)" d="M296.552 622.17L366.968 622.17" stroke="#000000" stroke-width="0.75" stroke-linecap="square" fill="none" /><path id="151" transform="matrix(1 0 0 -1 0 792)" d="M297.302 649.02L366.218 649.02" stroke="#000000" stroke-width="0.75" stroke-linecap="square" fill="none" /><path id="152" transform="matrix(1 0 0 -1 0 792)" d="M366.968 649.02L366.968 622.17" stroke="#000000" stroke-width="0.75" stroke-linecap="square" fill="none" /><path id="153" transform="matrix(1 0 0 -1 0 792)" d="M366.968 649.02L454.167 649.02L454.167 649.02L454.167 622.17" stroke="#000000" stroke-width="0.75" stroke-linecap="square" fill="none" /><path id="154" transform="matrix(1 0 0 -1 0 792)" d="M366.968 622.17L454.167 622.17" stroke="#000000" stroke-width="0.75" stroke-linecap="square" fill="none" /><path id="159" transform="matrix(1 0 0 -1 0 792)" d="M367.718 649.02L453.417 649.02" stroke="#000000" stroke-width="0.75" stroke-linecap="square" fill="none" /><path id="160" transform="matrix(1 0 0 -1 0 792)" d="M454.167 649.02L454.167 622.17" stroke="#000000" stroke-width="0.75" stroke-linecap="square" fill="none" /><path id="161" transform="matrix(1 0 0 -1 0 792)" d="M454.167 649.02L503.908 649.02L503.908 649.02L503.908 622.17" stroke="#000000" stroke-width="0.75" stroke-linecap="square" fill="none" /><path id="162" transform="matrix(1 0 0 -1 0 792)" d="M454.167 622.17L503.908 622.17" stroke="#000000" stroke-width="0.75" stroke-linecap="square" fill="none" /><path id="173" transform="matrix(1 0 0 -1 0 792)" d="M454.917 649.02L503.908 649.02L503.908 649.02L503.908 622.92" stroke="#000000" stroke-width="0.75" stroke-linecap="square" fill="none" /><path id="174" transform="matrix(1 0 0 -1 0 792)" d="M108.092 622.17L108.092 520.22" stroke="#000000" stroke-width="0.75" stroke-linecap="square" fill="none" /><path id="175" transform="matrix(1 0 0 -1 0 792)" d="M108.092 622.17L172.873 622.17L172.873 622.17L172.873 520.22" stroke="#000000" stroke-width="0.75" stroke-linecap="square" fill="none" /><path id="176" transform="matrix(1 0 0 -1 0 792)" d="M108.092 520.22L172.873 520.22" stroke="#000000" stroke-width="0.75" stroke-linecap="square" fill="none" /><path id="186" transform="matrix(1 0 0 -1 0 792)" d="M108.092 621.42L108.092 520.97" stroke="#000000" stroke-width="0.75" stroke-linecap="square" fill="none" /><path id="187" transform="matrix(1 0 0 -1 0 792)" d="M172.873 622.17L172.873 520.22" stroke="#000000" stroke-width="0.75" stroke-linecap="square" fill="none" /><path id="188" transform="matrix(1 0 0 -1 0 792)" d="M172.873 622.17L296.552 622.17L296.552 622.17L296.552 520.22" stroke="#000000" stroke-width="0.75" stroke-linecap="square" fill="none" /><path id="189" transform="matrix(1 0 0 -1 0 792)" d="M172.873 520.22L296.552 520.22" stroke="#000000" stroke-width="0.75" stroke-linecap="square" fill="none" /><path id="270" transform="matrix(1 0 0 -1 0 792)" d="M296.552 622.17L296.552 520.22" stroke="#000000" stroke-width="0.75" stroke-linecap="square" fill="none" /><path id="271" transform="matrix(1 0 0 -1 0 792)" d="M296.552 622.17L366.968 622.17L366.968 622.17L366.968 520.22" stroke="#000000" stroke-width="0.75" stroke-linecap="square" fill="none" /><path id="272" transform="matrix(1 0 0 -1 0 792)" d="M296.552 520.22L366.968 520.22" stroke="#000000" stroke-width="0.75" stroke-linecap="square" fill="none" /><path id="303" transform="matrix(1 0 0 -1 0 792)" d="M366.968 622.17L366.968 520.22" stroke="#000000" stroke-width="0.75" stroke-linecap="square" fill="none" /><path id="304" transform="matrix(1 0 0 -1 0 792)" d="M366.968 622.17L454.167 622.17L454.167 622.17L454.167 520.22" stroke="#000000" stroke-width="0.75" stroke-linecap="square" fill="none" /><path id="305" transform="matrix(1 0 0 -1 0 792)" d="M366.968 520.22L454.167 520.22" stroke="#000000" stroke-width="0.75" stroke-linecap="square" fill="none" /><path id="451" transform="matrix(1 0 0 -1 0 792)" d="M454.167 622.17L454.167 520.22" stroke="#000000" stroke-width="0.75" stroke-linecap="square" fill="none" /><path id="452" transform="matrix(1 0 0 -1 0 792)" d="M454.167 622.17L503.908 622.17L503.908 622.17L503.908 520.22" stroke="#000000" stroke-width="0.75" stroke-linecap="square" fill="none" /><path id="453" transform="matrix(1 0 0 -1 0 792)" d="M454.167 520.22L503.908 520.22" stroke="#000000" stroke-width="0.75" stroke-linecap="square" fill="none" /><path id="464" transform="matrix(1 0 0 -1 0 792)" d="M503.908 621.42L503.908 520.97" stroke="#000000" stroke-width="0.75" stroke-linecap="square" fill="none" /><path id="465" transform="matrix(1 0 0 -1 0 792)" d="M108.092 520.22L108.092 429.07" stroke="#000000" stroke-width="0.75" stroke-linecap="square" fill="none" /><path id="466" transform="matrix(1 0 0 -1 0 792)" d="M108.092 520.22L172.873 520.22L172.873 520.22L172.873 429.07" stroke="#000000" stroke-width="0.75" stroke-linecap="square" fill="none" /><path id="467" transform="matrix(1 0 0 -1 0 792)" d="M108.092 429.07L172.873 429.07" stroke="#000000" stroke-width="0.75" stroke-linecap="square" fill="none" /><path id="474" transform="matrix(1 0 0 -1 0 792)" d="M108.092 519.47L108.092 429.82" stroke="#000000" stroke-width="0.75" stroke-linecap="square" fill="none" /><path id="475" transform="matrix(1 0 0 -1 0 792)" d="M172.873 520.22L172.873 429.07" stroke="#000000" stroke-width="0.75" stroke-linecap="square" fill="none" /><path id="476" transform="matrix(1 0 0 -1 0 792)" d="M172.873 520.22L296.552 520.22L296.552 520.22L296.552 429.07" stroke="#000000" stroke-width="0.75" stroke-linecap="square" fill="none" /><path id="477" transform="matrix(1 0 0 -1 0 792)" d="M172.873 429.07L296.552 429.07" stroke="#000000" stroke-width="0.75" stroke-linecap="square" fill="none" /><path id="555" transform="matrix(1 0 0 -1 0 792)" d="M296.552 520.22L296.552 429.07" stroke="#000000" stroke-width="0.75" stroke-linecap="square" fill="none" /><path id="556" transform="matrix(1 0 0 -1 0 792)" d="M296.552 520.22L366.968 520.22L366.968 520.22L366.968 429.07" stroke="#000000" stroke-width="0.75" stroke-linecap="square" fill="none" /><path id="557" transform="matrix(1 0 0 -1 0 792)" d="M296.552 429.07L366.968 429.07" stroke="#000000" stroke-width="0.75" stroke-linecap="square" fill="none" /><path id="579" transform="matrix(1 0 0 -1 0 792)" d="M366.968 520.22L366.968 429.07" stroke="#000000" stroke-width="0.75" stroke-linecap="square" fill="none" /><path id="580" transform="matrix(1 0 0 -1 0 792)" d="M366.968 520.22L454.167 520.22L454.167 520.22L454.167 429.07" stroke="#000000" stroke-width="0.75" stroke-linecap="square" fill="none" /><path id="581" transform="matrix(1 0 0 -1 0 792)" d="M366.968 429.07L454.167 429.07" stroke="#000000" stroke-width="0.75" stroke-linecap="square" fill="none" /><path id="704" transform="matrix(1 0 0 -1 0 792)" d="M454.167 520.22L454.167 429.07" stroke="#000000" stroke-width="0.75" stroke-linecap="square" fill="none" /><path id="705" transform="matrix(1 0 0 -1 0 792)" d="M454.167 520.22L503.908 520.22L503.908 520.22L503.908 429.07" stroke="#000000" stroke-width="0.75" stroke-linecap="square" fill="none" /><path id="706" transform="matrix(1 0 0 -1 0 792)" d="M454.167 429.07L503.908 429.07" stroke="#000000" stroke-width="0.75" stroke-linecap="square" fill="none" /><path id="714" transform="matrix(1 0 0 -1 0 792)" d="M503.908 519.47L503.908 429.82" stroke="#000000" stroke-width="0.75" stroke-linecap="square" fill="none" /><path id="715" transform="matrix(1 0 0 -1 0 792)" d="M108.092 429.07L108.092 316.32" stroke="#000000" stroke-width="0.75" stroke-linecap="square" fill="none" /><path id="716" transform="matrix(1 0 0 -1 0 792)" d="M108.092 429.07L172.873 429.07L172.873 429.07L172.873 316.32" stroke="#000000" stroke-width="0.75" stroke-linecap="square" fill="none" /><path id="717" transform="matrix(1 0 0 -1 0 792)" d="M108.092 316.32L172.873 316.32" stroke="#000000" stroke-width="0.75" stroke-linecap="square" fill="none" /><path id="742" transform="matrix(1 0 0 -1 0 792)" d="M108.092 428.32L108.092 317.07" stroke="#000000" stroke-width="0.75" stroke-linecap="square" fill="none" /><path id="743" transform="matrix(1 0 0 -1 0 792)" d="M172.873 429.07L172.873 316.32" stroke="#000000" stroke-width="0.75" stroke-linecap="square" fill="none" /><path id="744" transform="matrix(1 0 0 -1 0 792)" d="M172.873 429.07L296.552 429.07L296.552 429.07L296.552 316.32" stroke="#000000" stroke-width="0.75" stroke-linecap="square" fill="none" /><path id="745" transform="matrix(1 0 0 -1 0 792)" d="M172.873 316.32L296.552 316.32" stroke="#000000" stroke-width="0.75" stroke-linecap="square" fill="none" /><path id="793" transform="matrix(1 0 0 -1 0 792)" d="M296.552 429.07L296.552 316.32" stroke="#000000" stroke-width="0.75" stroke-linecap="square" fill="none" /><path id="794" transform="matrix(1 0 0 -1 0 792)" d="M296.552 429.07L366.968 429.07L366.968 429.07L366.968 316.32" stroke="#000000" stroke-width="0.75" stroke-linecap="square" fill="none" /><path id="795" transform="matrix(1 0 0 -1 0 792)" d="M296.552 316.32L366.968 316.32" stroke="#000000" stroke-width="0.75" stroke-linecap="square" fill="none" /><path id="827" transform="matrix(1 0 0 -1 0 792)" d="M366.968 429.07L366.968 316.32" stroke="#000000" stroke-width="0.75" stroke-linecap="square" fill="none" /><path id="828" transform="matrix(1 0 0 -1 0 792)" d="M366.968 429.07L454.167 429.07L454.167 429.07L454.167 316.32" stroke="#000000" stroke-width="0.75" stroke-linecap="square" fill="none" /><path id="829" transform="matrix(1 0 0 -1 0 792)" d="M366.968 316.32L454.167 316.32" stroke="#000000" stroke-width="0.75" stroke-linecap="square" fill="none" /><path id="967" transform="matrix(1 0 0 -1 0 792)" d="M454.167 429.07L454.167 316.32" stroke="#000000" stroke-width="0.75" stroke-linecap="square" fill="none" /><path id="968" transform="matrix(1 0 0 -1 0 792)" d="M454.167 429.07L503.908 429.07L503.908 429.07L503.908 316.32" stroke="#000000" stroke-width="0.75" stroke-linecap="square" fill="none" /><path id="969" transform="matrix(1 0 0 -1 0 792)" d="M454.167 316.32L503.908 316.32" stroke="#000000" stroke-width="0.75" stroke-linecap="square" fill="none" /><path id="980" transform="matrix(1 0 0 -1 0 792)" d="M503.908 428.32L503.908 317.07" stroke="#000000" stroke-width="0.75" stroke-linecap="square" fill="none" /><path id="981" transform="matrix(1 0 0 -1 0 792)" d="M108.092 316.32L108.092 203.57" stroke="#000000" stroke-width="0.75" stroke-linecap="square" fill="none" /><path id="982" transform="matrix(1 0 0 -1 0 792)" d="M108.092 316.32L172.873 316.32L172.873 316.32L172.873 203.57" stroke="#000000" stroke-width="0.75" stroke-linecap="square" fill="none" /><path id="983" transform="matrix(1 0 0 -1 0 792)" d="M108.092 203.57L172.873 203.57" stroke="#000000" stroke-width="0.75" stroke-linecap="square" fill="none" /><path id="990" transform="matrix(1 0 0 -1 0 792)" d="M108.092 315.57L108.092 203.57L108.092 203.57L172.123 203.57" stroke="#000000" stroke-width="0.75" stroke-linecap="square" fill="none" /><path id="991" transform="matrix(1 0 0 -1 0 792)" d="M172.873 316.32L172.873 203.57" stroke="#000000" stroke-width="0.75" stroke-linecap="square" fill="none" /><path id="992" transform="matrix(1 0 0 -1 0 792)" d="M172.873 316.32L296.552 316.32L296.552 316.32L296.552 203.57" stroke="#000000" stroke-width="0.75" stroke-linecap="square" fill="none" /><path id="993" transform="matrix(1 0 0 -1 0 792)" d="M172.873 203.57L296.552 203.57" stroke="#000000" stroke-width="0.75" stroke-linecap="square" fill="none" /><path id="1111" transform="matrix(1 0 0 -1 0 792)" d="M173.623 203.57L295.802 203.57" stroke="#000000" stroke-width="0.75" stroke-linecap="square" fill="none" /><path id="1112" transform="matrix(1 0 0 -1 0 792)" d="M296.552 316.32L296.552 203.57" stroke="#000000" stroke-width="0.75" stroke-linecap="square" fill="none" /><path id="1113" transform="matrix(1 0 0 -1 0 792)" d="M296.552 316.32L366.968 316.32L366.968 316.32L366.968 203.57" stroke="#000000" stroke-width="0.75" stroke-linecap="square" fill="none" /><path id="1114" transform="matrix(1 0 0 -1 0 792)" d="M296.552 203.57L366.968 203.57" stroke="#000000" stroke-width="0.75" stroke-linecap="square" fill="none" /><path id="1163" transform="matrix(1 0 0 -1 0 792)" d="M297.302 203.57L366.218 203.57" stroke="#000000" stroke-width="0.75" stroke-linecap="square" fill="none" /><path id="1164" transform="matrix(1 0 0 -1 0 792)" d="M366.968 316.32L366.968 203.57" stroke="#000000" stroke-width="0.75" stroke-linecap="square" fill="none" /><path id="1165" transform="matrix(1 0 0 -1 0 792)" d="M366.968 316.32L454.167 316.32L454.167 316.32L454.167 203.57" stroke="#000000" stroke-width="0.75" stroke-linecap="square" fill="none" /><path id="1166" transform="matrix(1 0 0 -1 0 792)" d="M366.968 203.57L454.167 203.57" stroke="#000000" stroke-width="0.75" stroke-linecap="square" fill="none" /><path id="1314" transform="matrix(1 0 0 -1 0 792)" d="M367.718 203.57L453.417 203.57" stroke="#000000" stroke-width="0.75" stroke-linecap="square" fill="none" /><path id="1315" transform="matrix(1 0 0 -1 0 792)" d="M454.167 316.32L454.167 203.57" stroke="#000000" stroke-width="0.75" stroke-linecap="square" fill="none" /><path id="1316" transform="matrix(1 0 0 -1 0 792)" d="M454.167 316.32L503.908 316.32L503.908 316.32L503.908 203.57" stroke="#000000" stroke-width="0.75" stroke-linecap="square" fill="none" /><path id="1317" transform="matrix(1 0 0 -1 0 792)" d="M454.167 203.57L503.908 203.57" stroke="#000000" stroke-width="0.75" stroke-linecap="square" fill="none" /><path id="1325" transform="matrix(1 0 0 -1 0 792)" d="M503.908 315.57L503.908 203.57" stroke="#000000" stroke-width="0.75" stroke-linecap="square" fill="none" /><path id="1326" transform="matrix(1 0 0 -1 0 792)" d="M454.917 203.57L503.908 203.57" stroke="#000000" stroke-width="0.75" stroke-linecap="square" fill="none" /></g></g></svg>