<svg xmlns="http://www.w3.org/2000/svg" xmlns:xlink="http://www.w3.org/1999/xlink" id="body_89" preserveAspectRatio="xMinYMin meet" viewBox="0 0 816 1056"><defs><clipPath id="1"><path id="" clip-rule="evenodd" transform="matrix(1 0 0 1 0 0)" d="M0 792L0 0L0 0L612 0L612 0L612 792L612 792L0 792z" /></clipPath></defs><g transform="matrix(1.333333 0 0 1.333333 0 0)"><g clip-path="url(#1)"><path id="62" transform="matrix(1 0 0 -1 0 792)" d="M108.092 672.57L108.092 645.72" stroke="#000000" stroke-width="0.75" stroke-linecap="square" fill="none" /><path id="63" transform="matrix(1 0 0 -1 0 792)" d="M108.092 672.57L132.332 672.57L132.332 672.57L132.332 645.72" stroke="#000000" stroke-width="0.75" stroke-linecap="square" fill="none" /><path id="64" transform="matrix(1 0 0 -1 0 792)" d="M108.092 645.72L132.332 645.72" stroke="#000000" stroke-width="0.75" stroke-linecap="square" fill="none" /><path id="69" transform="matrix(1 0 0 -1 0 792)" d="M108.092 672.57L108.092 646.47" stroke="#000000" stroke-width="0.75" stroke-linecap="square" fill="none" /><path id="70" transform="matrix(1 0 0 -1 0 792)" d="M108.092 672.57L131.582 672.57" stroke="#000000" stroke-width="0.75" stroke-linecap="square" fill="none" /><path id="71" transform="matrix(1 0 0 -1 0 792)" d="M132.332 672.57L132.332 645.72" stroke="#000000" stroke-width="0.75" stroke-linecap="square" fill="none" /><path id="72" transform="matrix(1 0 0 -1 0 792)" d="M132.332 672.57L170.081 672.57L170.081 672.57L170.081 645.72" stroke="#000000" stroke-width="0.75" stroke-linecap="square" fill="none" /><path id="73" transform="matrix(1 0 0 -1 0 792)" d="M132.332 645.72L170.081 645.72" stroke="#000000" stroke-width="0.75" stroke-linecap="square" fill="none" /><path id="81" transform="matrix(1 0 0 -1 0 792)" d="M133.082 672.57L169.331 672.57" stroke="#000000" stroke-width="0.75" stroke-linecap="square" fill="none" /><path id="82" transform="matrix(1 0 0 -1 0 792)" d="M170.081 672.57L170.081 645.72" stroke="#000000" stroke-width="0.75" stroke-linecap="square" fill="none" /><path id="83" transform="matrix(1 0 0 -1 0 792)" d="M170.081 672.57L224.898 672.57L224.898 672.57L224.898 645.72" stroke="#000000" stroke-width="0.75" stroke-linecap="square" fill="none" /><path id="84" transform="matrix(1 0 0 -1 0 792)" d="M170.081 645.72L224.898 645.72" stroke="#000000" stroke-width="0.75" stroke-linecap="square" fill="none" /><path id="103" transform="matrix(1 0 0 -1 0 792)" d="M170.831 672.57L224.148 672.57" stroke="#000000" stroke-width="0.75" stroke-linecap="square" fill="none" /><path id="104" transform="matrix(1 0 0 -1 0 792)" d="M224.898 672.57L224.898 645.72" stroke="#000000" stroke-width="0.75" stroke-linecap="square" fill="none" /><path id="105" transform="matrix(1 0 0 -1 0 792)" d="M224.898 672.57L303.477 672.57L303.477 672.57L303.477 645.72" stroke="#000000" stroke-width="0.75" stroke-linecap="square" fill="none" /><path id="106" transform="matrix(1 0 0 -1 0 792)" d="M224.898 645.72L303.477 645.72" stroke="#000000" stroke-width="0.75" stroke-linecap="square" fill="none" /><path id="123" transform="matrix(1 0 0 -1 0 792)" d="M225.648 672.57L302.727 672.57" stroke="#000000" stroke-width="0.75" stroke-linecap="square" fill="none" /><path id="124" transform="matrix(1 0 0 -1 0 792)" d="M303.477 672.57L303.477 645.72" stroke="#000000" stroke-width="0.75" stroke-linecap="square" fill="none" /><path id="125" transform="matrix(1 0 0 -1 0 792)" d="M303.477 672.57L382.915 672.57L382.915 672.57L382.915 645.72" stroke="#000000" stroke-width="0.75" stroke-linecap="square" fill="none" /><path id="126" transform="matrix(1 0 0 -1 0 792)" d="M303.477 645.72L382.915 645.72" stroke="#000000" stroke-width="0.75" stroke-linecap="square" fill="none" /><path id="141" transform="matrix(1 0 0 -1 0 792)" d="M304.227 672.57L382.165 672.57" stroke="#000000" stroke-width="0.75" stroke-linecap="square" fill="none" /><path id="142" transform="matrix(1 0 0 -1 0 792)" d="M382.915 672.57L382.915 645.72" stroke="#000000" stroke-width="0.75" stroke-linecap="square" fill="none" /><path id="143" transform="matrix(1 0 0 -1 0 792)" d="M382.915 672.57L445.968 672.57L445.968 672.57L445.968 645.72" stroke="#000000" stroke-width="0.75" stroke-linecap="square" fill="none" /><path id="144" transform="matrix(1 0 0 -1 0 792)" d="M382.915 645.72L445.968 645.72" stroke="#000000" stroke-width="0.75" stroke-linecap="square" fill="none" /><path id="161" transform="matrix(1 0 0 -1 0 792)" d="M383.665 672.57L445.218 672.57" stroke="#000000" stroke-width="0.75" stroke-linecap="square" fill="none" /><path id="162" transform="matrix(1 0 0 -1 0 792)" d="M445.968 672.57L445.968 645.72" stroke="#000000" stroke-width="0.75" stroke-linecap="square" fill="none" /><path id="163" transform="matrix(1 0 0 -1 0 792)" d="M445.968 672.57L503.908 672.57L503.908 672.57L503.908 645.72" stroke="#000000" stroke-width="0.75" stroke-linecap="square" fill="none" /><path id="164" transform="matrix(1 0 0 -1 0 792)" d="M445.968 645.72L503.908 645.72" stroke="#000000" stroke-width="0.75" stroke-linecap="square" fill="none" /><path id="174" transform="matrix(1 0 0 -1 0 792)" d="M446.718 672.57L503.908 672.57L503.908 672.57L503.908 646.47" stroke="#000000" stroke-width="0.75" stroke-linecap="square" fill="none" /><path id="175" transform="matrix(1 0 0 -1 0 792)" d="M108.092 645.72L108.092 576.17" stroke="#000000" stroke-width="0.75" stroke-linecap="square" fill="none" /><path id="176" transform="matrix(1 0 0 -1 0 792)" d="M108.092 645.72L132.332 645.72L132.332 645.72L132.332 576.17" stroke="#000000" stroke-width="0.75" stroke-linecap="square" fill="none" /><path id="177" transform="matrix(1 0 0 -1 0 792)" d="M108.092 576.17L132.332 576.17" stroke="#000000" stroke-width="0.75" stroke-linecap="square" fill="none" /><path id="182" transform="matrix(1 0 0 -1 0 792)" d="M108.092 644.97L108.092 576.92" stroke="#000000" stroke-width="0.75" stroke-linecap="square" fill="none" /><path id="183" transform="matrix(1 0 0 -1 0 792)" d="M132.332 645.72L132.332 576.17" stroke="#000000" stroke-width="0.75" stroke-linecap="square" fill="none" /><path id="184" transform="matrix(1 0 0 -1 0 792)" d="M132.332 645.72L170.081 645.72L170.081 645.72L170.081 576.17" stroke="#000000" stroke-width="0.75" stroke-linecap="square" fill="none" /><path id="185" transform="matrix(1 0 0 -1 0 792)" d="M132.332 576.17L170.081 576.17" stroke="#000000" stroke-width="0.75" stroke-linecap="square" fill="none" /><path id="188" transform="matrix(1 0 0 -1 0 792)" d="M170.081 645.72L170.081 576.17" stroke="#000000" stroke-width="0.75" stroke-linecap="square" fill="none" /><path id="189" transform="matrix(1 0 0 -1 0 792)" d="M170.081 645.72L224.898 645.72L224.898 645.72L224.898 576.17" stroke="#000000" stroke-width="0.75" stroke-linecap="square" fill="none" /><path id="190" transform="matrix(1 0 0 -1 0 792)" d="M170.081 576.17L224.898 576.17" stroke="#000000" stroke-width="0.75" stroke-linecap="square" fill="none" /><path id="223" transform="matrix(1 0 0 -1 0 792)" d="M224.898 645.72L224.898 576.17" stroke="#000000" stroke-width="0.75" stroke-linecap="square" fill="none" /><path id="224" transform="matrix(1 0 0 -1 0 792)" d="M224.898 645.72L303.477 645.72L303.477 645.72L303.477 576.17" stroke="#000000" stroke-width="0.75" stroke-linecap="square" fill="none" /><path id="225" transform="matrix(1 0 0 -1 0 792)" d="M224.898 576.17L303.477 576.17" stroke="#000000" stroke-width="0.75" stroke-linecap="square" fill="none" /><path id="315" transform="matrix(1 0 0 -1 0 792)" d="M303.477 645.72L303.477 576.17" stroke="#000000" stroke-width="0.75" stroke-linecap="square" fill="none" /><path id="316" transform="matrix(1 0 0 -1 0 792)" d="M303.477 645.72L382.915 645.72L382.915 645.72L382.915 576.17" stroke="#000000" stroke-width="0.75" stroke-linecap="square" fill="none" /><path id="317" transform="matrix(1 0 0 -1 0 792)" d="M303.477 576.17L382.915 576.17" stroke="#000000" stroke-width="0.75" stroke-linecap="square" fill="none" /><path id="352" transform="matrix(1 0 0 -1 0 792)" d="M382.915 645.72L382.915 576.17" stroke="#000000" stroke-width="0.75" stroke-linecap="square" fill="none" /><path id="353" transform="matrix(1 0 0 -1 0 792)" d="M382.915 645.72L445.968 645.72L445.968 645.72L445.968 576.17" stroke="#000000" stroke-width="0.75" stroke-linecap="square" fill="none" /><path id="354" transform="matrix(1 0 0 -1 0 792)" d="M382.915 576.17L445.968 576.17" stroke="#000000" stroke-width="0.75" stroke-linecap="square" fill="none" /><path id="400" transform="matrix(1 0 0 -1 0 792)" d="M445.968 645.72L445.968 576.17" stroke="#000000" stroke-width="0.75" stroke-linecap="square" fill="none" /><path id="401" transform="matrix(1 0 0 -1 0 792)" d="M445.968 645.72L503.908 645.72L503.908 645.72L503.908 576.17" stroke="#000000" stroke-width="0.75" stroke-linecap="square" fill="none" /><path id="402" transform="matrix(1 0 0 -1 0 792)" d="M445.968 576.17L503.908 576.17" stroke="#000000" stroke-width="0.75" stroke-linecap="square" fill="none" /><path id="404" transform="matrix(1 0 0 -1 0 792)" d="M503.908 644.97L503.908 576.92" stroke="#000000" stroke-width="0.75" stroke-linecap="square" fill="none" /><path id="405" transform="matrix(1 0 0 -1 0 792)" d="M108.092 576.17L108.092 528.22" stroke="#000000" stroke-width="0.75" stroke-linecap="square" fill="none" /><path id="406" transform="matrix(1 0 0 -1 0 792)" d="M108.092 576.17L132.332 576.17L132.332 576.17L132.332 528.22" stroke="#000000" stroke-width="0.75" stroke-linecap="square" fill="none" /><path id="407" transform="matrix(1 0 0 -1 0 792)" d="M108.092 528.22L132.332 528.22" stroke="#000000" stroke-width="0.75" stroke-linecap="square" fill="none" /><path id="412" transform="matrix(1 0 0 -1 0 792)" d="M108.092 575.42L108.092 528.22L108.092 528.22L131.582 528.22" stroke="#000000" stroke-width="0.75" stroke-linecap="square" fill="none" /><path id="413" transform="matrix(1 0 0 -1 0 792)" d="M132.332 576.17L132.332 528.22" stroke="#000000" stroke-width="0.75" stroke-linecap="square" fill="none" /><path id="414" transform="matrix(1 0 0 -1 0 792)" d="M132.332 576.17L170.081 576.17L170.081 576.17L170.081 528.22" stroke="#000000" stroke-width="0.75" stroke-linecap="square" fill="none" /><path id="415" transform="matrix(1 0 0 -1 0 792)" d="M132.332 528.22L170.081 528.22" stroke="#000000" stroke-width="0.75" stroke-linecap="square" fill="none" /><path id="418" transform="matrix(1 0 0 -1 0 792)" d="M133.082 528.22L169.331 528.22" stroke="#000000" stroke-width="0.75" stroke-linecap="square" fill="none" /><path id="419" transform="matrix(1 0 0 -1 0 792)" d="M170.081 576.17L170.081 528.22" stroke="#000000" stroke-width="0.75" stroke-linecap="square" fill="none" /><path id="420" transform="matrix(1 0 0 -1 0 792)" d="M170.081 576.17L224.898 576.17L224.898 576.17L224.898 528.22" stroke="#000000" stroke-width="0.75" stroke-linecap="square" fill="none" /><path id="421" transform="matrix(1 0 0 -1 0 792)" d="M170.081 528.22L224.898 528.22" stroke="#000000" stroke-width="0.75" stroke-linecap="square" fill="none" /><path id="437" transform="matrix(1 0 0 -1 0 792)" d="M170.831 528.22L224.148 528.22" stroke="#000000" stroke-width="0.75" stroke-linecap="square" fill="none" /><path id="438" transform="matrix(1 0 0 -1 0 792)" d="M224.898 576.17L224.898 528.22" stroke="#000000" stroke-width="0.75" stroke-linecap="square" fill="none" /><path id="439" transform="matrix(1 0 0 -1 0 792)" d="M224.898 576.17L303.477 576.17L303.477 576.17L303.477 528.22" stroke="#000000" stroke-width="0.75" stroke-linecap="square" fill="none" /><path id="440" transform="matrix(1 0 0 -1 0 792)" d="M224.898 528.22L303.477 528.22" stroke="#000000" stroke-width="0.75" stroke-linecap="square" fill="none" /><path id="477" transform="matrix(1 0 0 -1 0 792)" d="M225.648 528.22L302.727 528.22" stroke="#000000" stroke-width="0.75" stroke-linecap="square" fill="none" /><path id="478" transform="matrix(1 0 0 -1 0 792)" d="M303.477 576.17L303.477 528.22" stroke="#000000" stroke-width="0.75" stroke-linecap="square" fill="none" /><path id="479" transform="matrix(1 0 0 -1 0 792)" d="M303.477 576.17L382.915 576.17L382.915 576.17L382.915 528.22" stroke="#000000" stroke-width="0.75" stroke-linecap="square" fill="none" /><path id="480" transform="matrix(1 0 0 -1 0 792)" d="M303.477 528.22L382.915 528.22" stroke="#000000" stroke-width="0.75" stroke-linecap="square" fill="none" /><path id="523" transform="matrix(1 0 0 -1 0 792)" d="M304.227 528.22L382.165 528.22" stroke="#000000" stroke-width="0.75" stroke-linecap="square" fill="none" /><path id="524" transform="matrix(1 0 0 -1 0 792)" d="M382.915 576.17L382.915 528.22" stroke="#000000" stroke-width="0.75" stroke-linecap="square" fill="none" /><path id="525" transform="matrix(1 0 0 -1 0 792)" d="M382.915 576.17L445.968 576.17L445.968 576.17L445.968 528.22" stroke="#000000" stroke-width="0.75" stroke-linecap="square" fill="none" /><path id="526" transform="matrix(1 0 0 -1 0 792)" d="M382.915 528.22L445.968 528.22" stroke="#000000" stroke-width="0.75" stroke-linecap="square" fill="none" /><path id="560" transform="matrix(1 0 0 -1 0 792)" d="M383.665 528.22L445.218 528.22" stroke="#000000" stroke-width="0.75" stroke-linecap="square" fill="none" /><path id="561" transform="matrix(1 0 0 -1 0 792)" d="M445.968 576.17L445.968 528.22" stroke="#000000" stroke-width="0.75" stroke-linecap="square" fill="none" /><path id="562" transform="matrix(1 0 0 -1 0 792)" d="M445.968 576.17L503.908 576.17L503.908 576.17L503.908 528.22" stroke="#000000" stroke-width="0.75" stroke-linecap="square" fill="none" /><path id="563" transform="matrix(1 0 0 -1 0 792)" d="M445.968 528.22L503.908 528.22" stroke="#000000" stroke-width="0.75" stroke-linecap="square" fill="none" /><path id="608" transform="matrix(1 0 0 -1 0 792)" d="M503.908 575.42L503.908 528.22" stroke="#000000" stroke-width="0.75" stroke-linecap="square" fill="none" /><path id="609" transform="matrix(1 0 0 -1 0 792)" d="M446.718 528.22L503.908 528.22" stroke="#000000" stroke-width="0.75" stroke-linecap="square" fill="none" /></g></g></svg>