<svg xmlns="http://www.w3.org/2000/svg" xmlns:xlink="http://www.w3.org/1999/xlink" id="body_47" preserveAspectRatio="xMinYMin meet" viewBox="0 0 700 1037"><defs><clipPath id="1"><path id="" clip-rule="evenodd" transform="matrix(1 0 0 1 0 0)" d="M0 778L0 -0.07501221L0 -0.07501221L525.627 -0.07501221L525.627 -0.07501221L525.627 778L525.627 778L0 778z" /></clipPath><clipPath id="2"><path id="" clip-rule="evenodd" transform="matrix(1 0 0 1 0 0)" d="M0 778L525.627 778L525.627 778L525.627 -0.07397461L525.627 -0.07397461L0 -0.07397461z" /></clipPath><clipPath id="3"><path id="" clip-rule="evenodd" transform="matrix(1 0 0 1 0 0)" d="M0 778L525.627 778L525.627 778L525.627 -0.07397461L525.627 -0.07397461L0 -0.07397461z" /></clipPath><clipPath id="4"><path id="" clip-rule="evenodd" transform="matrix(1 0 0 1 0 0)" d="M-11.098 786.605L353.459 786.605L353.459 786.605L353.459 224.496L353.459 224.496L-11.098 224.496z" /></clipPath><clipPath id="5"><path id="" clip-rule="evenodd" transform="matrix(1 0 0 1 0 0)" d="M-11.098 786.605L353.459 786.605L353.459 786.605L353.459 224.496L353.459 224.496L-11.098 224.496z" /></clipPath><clipPath id="6"><path id="" clip-rule="evenodd" transform="matrix(1 0 0 1 0 0)" d="M-11.098 786.605L353.459 786.605L353.459 786.605L353.459 224.496L353.459 224.496L-11.098 224.496z" /></clipPath><clipPath id="7"><path id="" clip-rule="evenodd" transform="matrix(1 0 0 1 0 0)" d="M-14.5887 -12.20453L537.1627 -12.20453L537.1627 -12.20453L537.1627 788.2399L537.1627 788.2399L-14.5887 788.2399z" /></clipPath><clipPath id="8"><path id="" clip-rule="evenodd" transform="matrix(1 0 0 1 0 0)" d="M-14.589 788.24L537.164 788.24L537.164 788.24L537.164 -12.20203L537.164 -12.20203L-14.589 -12.20203z" /></clipPath><clipPath id="9"><path id="" clip-rule="evenodd" transform="matrix(1 0 0 1 0 0)" d="M-14.589 788.24L537.164 788.24L537.164 788.24L537.164 -12.20203L537.164 -12.20203L-14.589 -12.20203z" /></clipPath><clipPath id="10"><path id="" clip-rule="evenodd" transform="matrix(1 0 0 1 0 0)" d="M-11.098 786.605L353.459 786.605L353.459 786.605L353.459 224.496L353.459 224.496L-11.098 224.496z" /></clipPath><clipPath id="11"><path id="" clip-rule="evenodd" transform="matrix(1 0 0 1 0 0)" d="M-11.098 786.605L353.459 786.605L353.459 786.605L353.459 224.496L353.459 224.496L-11.098 224.496z" /></clipPath><clipPath id="12"><path id="" clip-rule="evenodd" transform="matrix(1 0 0 1 0 0)" d="M-11.098 786.605L353.459 786.605L353.459 786.605L353.459 224.496L353.459 224.496L-11.098 224.496z" /></clipPath><clipPath id="13"><path id="" clip-rule="evenodd" transform="matrix(1 0 0 1 0 0)" d="M-11.098 786.605L353.459 786.605L353.459 786.605L353.459 224.496L353.459 224.496L-11.098 224.496z" /></clipPath><clipPath id="14"><path id="" clip-rule="evenodd" transform="matrix(1 0 0 1 0 0)" d="M-11.098 786.605L353.459 786.605L353.459 786.605L353.459 224.496L353.459 224.496L-11.098 224.496z" /></clipPath><clipPath id="15"><path id="" clip-rule="evenodd" transform="matrix(1 0 0 1 0 0)" d="M-11.098 786.605L353.459 786.605L353.459 786.605L353.459 224.496L353.459 224.496L-11.098 224.496z" /></clipPath><clipPath id="16"><path id="" clip-rule="evenodd" transform="matrix(1 0 0 1 0 0)" d="M-11.098 786.605L353.459 786.605L353.459 786.605L353.459 224.496L353.459 224.496L-11.098 224.496z" /></clipPath><clipPath id="17"><path id="" clip-rule="evenodd" transform="matrix(1 0 0 1 0 0)" d="M-11.098 786.605L353.459 786.605L353.459 786.605L353.459 224.496L353.459 224.496L-11.098 224.496z" /></clipPath><clipPath id="18"><path id="" clip-rule="evenodd" transform="matrix(1 0 0 1 0 0)" d="M-11.098 786.605L353.459 786.605L353.459 786.605L353.459 224.496L353.459 224.496L-11.098 224.496z" /></clipPath><clipPath id="19"><path id="" clip-rule="evenodd" transform="matrix(1 0 0 1 0 0)" d="M-11.098 786.605L353.459 786.605L353.459 786.605L353.459 224.496L353.459 224.496L-11.098 224.496z" /></clipPath><clipPath id="20"><path id="" clip-rule="evenodd" transform="matrix(1 0 0 1 0 0)" d="M-11.098 786.605L353.459 786.605L353.459 786.605L353.459 224.496L353.459 224.496L-11.098 224.496z" /></clipPath><clipPath id="21"><path id="" clip-rule="evenodd" transform="matrix(1 0 0 1 0 0)" d="M-11.098 786.605L353.459 786.605L353.459 786.605L353.459 224.496L353.459 224.496L-11.098 224.496z" /></clipPath><clipPath id="22"><path id="" clip-rule="evenodd" transform="matrix(1 0 0 1 0 0)" d="M-11.098 786.605L353.459 786.605L353.459 786.605L353.459 224.496L353.459 224.496L-11.098 224.496z" /></clipPath><clipPath id="23"><path id="" clip-rule="evenodd" transform="matrix(1 0 0 1 0 0)" d="M-11.098 786.605L353.459 786.605L353.459 786.605L353.459 224.496L353.459 224.496L-11.098 224.496z" /></clipPath><clipPath id="24"><path id="" clip-rule="evenodd" transform="matrix(1 0 0 1 0 0)" d="M-11.098 786.605L353.459 786.605L353.459 786.605L353.459 224.496L353.459 224.496L-11.098 224.496z" /></clipPath><clipPath id="25"><path id="" clip-rule="evenodd" transform="matrix(1 0 0 1 0 0)" d="M-11.098 786.605L353.459 786.605L353.459 786.605L353.459 224.496L353.459 224.496L-11.098 224.496z" /></clipPath><clipPath id="26"><path id="" clip-rule="evenodd" transform="matrix(1 0 0 1 0 0)" d="M82.38699 457.964L440.19 457.964L440.19 457.964L440.19 287.174L440.19 287.174L82.38699 287.174z" /></clipPath><clipPath id="27"><path id="" clip-rule="evenodd" transform="matrix(1 0 0 1 0 0)" d="M-11.098 786.605L353.459 786.605L353.459 786.605L353.459 224.496L353.459 224.496L-11.098 224.496z" /></clipPath><clipPath id="28"><path id="" clip-rule="evenodd" transform="matrix(1 0 0 1 0 0)" d="M-11.098 786.605L353.459 786.605L353.459 786.605L353.459 224.496L353.459 224.496L-11.098 224.496z" /></clipPath><clipPath id="29"><path id="" clip-rule="evenodd" transform="matrix(1 0 0 1 0 0)" d="M-11.098 786.605L353.459 786.605L353.459 786.605L353.459 224.496L353.459 224.496L-11.098 224.496z" /></clipPath><clipPath id="30"><path id="" clip-rule="evenodd" transform="matrix(1 0 0 1 0 0)" d="M-11.098 786.605L353.459 786.605L353.459 786.605L353.459 224.496L353.459 224.496L-11.098 224.496z" /></clipPath><clipPath id="31"><path id="" clip-rule="evenodd" transform="matrix(1 0 0 1 0 0)" d="M92.452 181.515L159.757 181.515L159.757 181.515L159.757 166.233L159.757 166.233L92.452 166.233z" /></clipPath><clipPath id="32"><path id="" clip-rule="evenodd" transform="matrix(1 0 0 1 0 0)" d="M73.07401 492.795L178.097 492.795L178.097 492.795L178.097 479.507L178.097 479.507L73.07401 479.507z" /></clipPath><clipPath id="33"><path id="" clip-rule="evenodd" transform="matrix(1 0 0 1 0 0)" d="M45.737 479.174L105.775 479.174L105.775 479.174L105.775 465.554L105.775 465.554L45.737 465.554z" /></clipPath></defs><g transform="matrix(1.333333 0 0 1.333333 0 0)"><g clip-path="url(#1)"><g clip-path="url(#2)"></g><g clip-path="url(#3)"></g><g clip-path="url(#4)"></g><g clip-path="url(#5)"></g><g clip-path="url(#6)"></g><g clip-path="url(#7)"><path id="15" transform="matrix(1 0 0 -1 0 778)" d="M481.9871 707.8052L537.1627 707.8052L537.1627 724.4808L481.9871 724.4808z" stroke="none" fill="#4683A9" fill-rule="nonzero" /></g><g clip-path="url(#8)"><path id="16" transform="matrix(1 0 0 -1 0 778)" d="M-2.327 678.616L537.1588 678.616" stroke="#4683A9" stroke-width="40.37096" fill="none" /></g><g clip-path="url(#9)"><path id="17" transform="matrix(1 0 0 -1 0 778)" d="M-2.327 678.397L537.1588 678.397" stroke="#4683A9" stroke-width="40.37096" fill="none" /></g><g clip-path="url(#10)"></g><g clip-path="url(#11)"></g><g clip-path="url(#12)"></g><g clip-path="url(#13)"></g><g clip-path="url(#14)"></g><g clip-path="url(#15)"></g><g clip-path="url(#16)"></g><g clip-path="url(#17)"></g><g clip-path="url(#18)"></g><g clip-path="url(#19)"></g><g clip-path="url(#20)"></g><g clip-path="url(#21)"></g><g clip-path="url(#22)"></g><g clip-path="url(#23)"></g><g clip-path="url(#24)"></g><g clip-path="url(#25)"></g><path id="606" transform="matrix(1 0 0 -1 0 778)" d="M144.7924 383.0172C 144.7924 378.2002 136.9922 374.2967 127.3608 374.2967C 117.7294 374.2967 109.9148 378.2002 109.9148 383.0172C 109.9148 387.8343 117.7294 391.7377 127.3608 391.7377C 136.9922 391.7377 144.7924 387.8343 144.7924 383.0172zM107.1032 393.468L127.7789 428.2809L127.7789 428.2809L148.4402 393.468L148.4402 393.468L107.1032 393.468zM201.4271 393.468L222.0884 428.2809L222.0884 428.2809L242.7641 393.468L242.7641 393.468L201.4271 393.468zM295.131 393.468L315.8067 428.2809L315.8067 428.2809L336.4824 393.468L336.4824 393.468L295.131 393.468z" stroke="#7752A2" stroke-width="1.44182" fill="none" /><path id="607" transform="matrix(1 0 0 -1 0 778)" d="M169.214 320.036L84.65125 320.036L84.65125 370.2274L169.214 370.2274z" stroke="none" fill="#E8E9EA" fill-rule="nonzero" /><path id="608" transform="matrix(1 0 0 -1 0 778)" d="M145.2128 345.472C 145.2128 340.6688 137.3981 336.7654 127.7668 336.7654C 118.1498 336.7654 110.3352 340.6688 110.3352 345.472C 110.3352 350.2752 118.1498 354.1926 127.7668 354.1926C 137.3981 354.1926 145.2128 350.2752 145.2128 345.472zM122.706 333.817L139.0995 361.4181L139.0995 361.4181L155.493 333.817L155.493 333.817L122.706 333.817z" stroke="#7752A2" stroke-width="1.44182" fill="none" /><path id="609" transform="matrix(1 0 0 -1 0 778)" d="M264.368 320.036L179.8053 320.036L179.8053 370.2274L264.368 370.2274z" stroke="none" fill="#E8E9EA" fill-rule="nonzero" /><path id="610" transform="matrix(1 0 0 -1 0 778)" d="M239.5241 345.472C 239.5241 340.6688 231.7238 336.7654 222.0925 336.7654C 212.4611 336.7654 204.6465 340.6688 204.6465 345.472C 204.6465 350.2752 212.4611 354.1926 222.0925 354.1926C 231.7238 354.1926 239.5241 350.2752 239.5241 345.472zM205.699 333.817L222.0925 361.4181L222.0925 361.4181L238.486 333.817L238.486 333.817L205.699 333.817z" stroke="#7752A2" stroke-width="1.44182" fill="none" /><path id="611" transform="matrix(1 0 0 -1 0 778)" d="M358.084 320.036L273.5212 320.036L273.5212 370.2274L358.084 370.2274z" stroke="none" fill="#E8E9EA" fill-rule="nonzero" /><path id="612" transform="matrix(1 0 0 -1 0 778)" d="M333.2428 383.0118C 333.2428 378.2086 325.4282 374.2913 315.7968 374.2913C 306.1654 374.2913 298.3652 378.2086 298.3652 383.0118C 298.3652 387.8289 306.1654 391.7324 315.7968 391.7324C 325.4282 391.7324 333.2428 387.8289 333.2428 383.0118zM239.5245 383.0118C 239.5245 378.2086 231.7387 374.2913 222.0929 374.2913C 212.4616 374.2913 204.6613 378.2086 204.6613 383.0118C 204.6613 387.8289 212.4616 391.7324 222.0929 391.7324C 231.7387 391.7324 239.5245 387.8289 239.5245 383.0118zM333.2428 345.126C 333.2428 340.3228 325.4282 336.4193 315.8112 336.4193C 306.1799 336.4193 298.3652 340.3228 298.3652 345.126C 298.3652 349.9292 306.1799 353.8466 315.8112 353.8466C 325.4282 353.8466 333.2428 349.9292 333.2428 345.126zM288.532 333.471L304.9255 361.0721L304.9255 361.0721L321.319 333.471L321.319 333.471L288.532 333.471z" stroke="#7752A2" stroke-width="1.44182" fill="none" /><g clip-path="url(#26)"><path id="613" transform="matrix(1 0 0 -1 0 778)" d="M82.727 460.693L94.65085 428.3717" stroke="#221E1F" stroke-width="0.72091" fill="none" /></g><path id="614" transform="matrix(1 0 0 -1 0 778)" d="M96.353 423.765L91.19128 429.3157L94.52189 428.7205L96.71346 431.1982L96.353 423.765z" stroke="none" fill="#221E1F" fill-rule="nonzero" /><path id="615" transform="matrix(1 0 0 -1 0 778)" d="M90.186 463.7L102.1098 431.3787" stroke="#221E1F" stroke-width="0.72091" fill="none" /><path id="616" transform="matrix(1 0 0 -1 0 778)" d="M103.811 426.772L98.64928 432.3227L101.9799 431.7274L104.1714 434.2052L103.811 426.772z" stroke="none" fill="#221E1F" fill-rule="nonzero" /><path id="617" transform="matrix(1 0 0 -1 0 778)" d="M98.28799 465.907L110.2118 433.5857" stroke="#221E1F" stroke-width="0.72091" fill="none" /><path id="618" transform="matrix(1 0 0 -1 0 778)" d="M111.913 428.981L106.7513 434.5317L110.0819 433.9365L112.2879 436.4142L111.913 428.981z" stroke="none" fill="#221E1F" fill-rule="nonzero" /><path id="619" transform="matrix(1 0 0 -1 0 778)" d="M106.479 468.568L118.4029 436.2467" stroke="#221E1F" stroke-width="0.72091" fill="none" /><path id="620" transform="matrix(1 0 0 -1 0 778)" d="M120.105 431.64L114.9433 437.1907L118.2739 436.5955L120.4655 439.0732L120.105 431.64z" stroke="none" fill="#221E1F" fill-rule="nonzero" /><path id="621" transform="matrix(1 0 0 -1 0 778)" d="M114.148 471.343L126.0718 439.0217" stroke="#221E1F" stroke-width="0.72091" fill="none" /><path id="622" transform="matrix(1 0 0 -1 0 778)" d="M127.773 434.415L122.6113 439.9657L125.9419 439.3705L128.1335 441.8482L127.773 434.415z" stroke="none" fill="#221E1F" fill-rule="nonzero" /><path id="623" transform="matrix(1 0 0 -1 0 778)" d="M121.962 473.807L133.8858 441.4857" stroke="#221E1F" stroke-width="0.72091" fill="none" /><path id="624" transform="matrix(1 0 0 -1 0 778)" d="M135.588 436.879L130.4263 442.4297L133.7569 441.8344L135.9629 444.3122L135.588 436.879z" stroke="none" fill="#221E1F" fill-rule="nonzero" /><path id="625" transform="matrix(1 0 0 -1 0 778)" d="M129.791 476.582L141.7149 444.2607" stroke="#221E1F" stroke-width="0.72091" fill="none" /><path id="626" transform="matrix(1 0 0 -1 0 778)" d="M143.417 439.656L138.2553 445.2067L141.5859 444.6115L143.7775 447.0892L143.417 439.656z" stroke="none" fill="#221E1F" fill-rule="nonzero" /><path id="627" transform="matrix(1 0 0 -1 0 778)" d="M137.861 479.156L149.7849 446.8347" stroke="#221E1F" stroke-width="0.72091" fill="none" /><path id="628" transform="matrix(1 0 0 -1 0 778)" d="M151.487 442.229L146.3253 447.7797L149.6559 447.1844L151.8475 449.6622L151.487 442.229z" stroke="none" fill="#221E1F" fill-rule="nonzero" /><path id="629" transform="matrix(1 0 0 -1 0 778)" d="M193.138 470.91L193.138 436.6231" stroke="#221E1F" stroke-width="0.72091" fill="none" /><path id="630" transform="matrix(1 0 0 -1 0 778)" d="M193.138 431.734L190.2111 438.6273L193.138 436.9801L196.0649 438.6273L193.138 431.734z" stroke="none" fill="#221E1F" fill-rule="nonzero" /><path id="631" transform="matrix(1 0 0 -1 0 778)" d="M201.417 470.91L201.417 436.6231" stroke="#221E1F" stroke-width="0.72091" fill="none" /><path id="632" transform="matrix(1 0 0 -1 0 778)" d="M201.417 431.734L198.4901 438.6273L201.417 436.9801L204.3439 438.6273L201.417 431.734z" stroke="none" fill="#221E1F" fill-rule="nonzero" /><path id="633" transform="matrix(1 0 0 -1 0 778)" d="M209.657 470.91L209.657 436.6231" stroke="#221E1F" stroke-width="0.72091" fill="none" /><path id="634" transform="matrix(1 0 0 -1 0 778)" d="M209.657 431.734L206.7301 438.6273L209.657 436.9801L212.5839 438.6273L209.657 431.734z" stroke="none" fill="#221E1F" fill-rule="nonzero" /><path id="635" transform="matrix(1 0 0 -1 0 778)" d="M218.057 470.91L218.057 436.6231" stroke="#221E1F" stroke-width="0.72091" fill="none" /><path id="636" transform="matrix(1 0 0 -1 0 778)" d="M218.057 431.734L215.1301 438.6273L218.057 436.9801L220.9839 438.6273L218.057 431.734z" stroke="none" fill="#221E1F" fill-rule="nonzero" /><path id="637" transform="matrix(1 0 0 -1 0 778)" d="M226.46 470.91L226.46 436.6231" stroke="#221E1F" stroke-width="0.72091" fill="none" /><path id="638" transform="matrix(1 0 0 -1 0 778)" d="M226.46 431.734L223.5331 438.6273L226.46 436.9801L229.3869 438.6273L226.46 431.734z" stroke="none" fill="#221E1F" fill-rule="nonzero" /><path id="639" transform="matrix(1 0 0 -1 0 778)" d="M234.681 470.91L234.681 436.6231" stroke="#221E1F" stroke-width="0.72091" fill="none" /><path id="640" transform="matrix(1 0 0 -1 0 778)" d="M234.681 431.734L231.7541 438.6273L234.681 436.9801L237.6079 438.6273L234.681 431.734z" stroke="none" fill="#221E1F" fill-rule="nonzero" /><path id="641" transform="matrix(1 0 0 -1 0 778)" d="M242.761 470.91L242.761 436.6231" stroke="#221E1F" stroke-width="0.72091" fill="none" /><path id="642" transform="matrix(1 0 0 -1 0 778)" d="M242.761 431.734L239.8341 438.6273L242.761 436.9801L245.6879 438.6273L242.761 431.734z" stroke="none" fill="#221E1F" fill-rule="nonzero" /><path id="643" transform="matrix(1 0 0 -1 0 778)" d="M251.304 470.91L251.304 436.6231" stroke="#221E1F" stroke-width="0.72091" fill="none" /><path id="644" transform="matrix(1 0 0 -1 0 778)" d="M251.304 431.734L248.3771 438.6273L251.304 436.9801L254.2309 438.6273L251.304 431.734z" stroke="none" fill="#221E1F" fill-rule="nonzero" /><path id="645" transform="matrix(1 0 0 -1 0 778)" d="M305.856 478.865L294.0763 446.5022" stroke="#221E1F" stroke-width="0.72091" fill="none" /><path id="646" transform="matrix(1 0 0 -1 0 778)" d="M292.396 441.883L291.9923 449.3162L294.1983 446.8384L297.5289 447.4613L292.396 441.883z" stroke="none" fill="#221E1F" fill-rule="nonzero" /><path id="647" transform="matrix(1 0 0 -1 0 778)" d="M313.91 476.895L302.1303 444.5322" stroke="#221E1F" stroke-width="0.72091" fill="none" /><path id="648" transform="matrix(1 0 0 -1 0 778)" d="M300.447 439.915L300.0433 447.3482L302.2493 444.8705L305.5799 445.4933L300.447 439.915z" stroke="none" fill="#221E1F" fill-rule="nonzero" /><path id="649" transform="matrix(1 0 0 -1 0 778)" d="M321.587 474.12L309.8073 441.7571" stroke="#221E1F" stroke-width="0.72091" fill="none" /><path id="650" transform="matrix(1 0 0 -1 0 778)" d="M308.126 437.138L307.7223 444.5712L309.9283 442.0934L313.2589 442.7163L308.126 437.138z" stroke="none" fill="#221E1F" fill-rule="nonzero" /><path id="651" transform="matrix(1 0 0 -1 0 778)" d="M329.265 471.259L317.4853 438.8961" stroke="#221E1F" stroke-width="0.72091" fill="none" /><path id="652" transform="matrix(1 0 0 -1 0 778)" d="M315.804 434.277L315.4003 441.7102L317.6063 439.2325L320.9369 439.8553L315.804 434.277z" stroke="none" fill="#221E1F" fill-rule="nonzero" /><path id="653" transform="matrix(1 0 0 -1 0 778)" d="M337.305 468.571L325.5253 436.2082" stroke="#221E1F" stroke-width="0.72091" fill="none" /><path id="654" transform="matrix(1 0 0 -1 0 778)" d="M323.844 431.588L323.4403 439.0212L325.6463 436.5435L328.9769 437.1664L323.844 431.588z" stroke="none" fill="#221E1F" fill-rule="nonzero" /><path id="655" transform="matrix(1 0 0 -1 0 778)" d="M345.256 465.84L333.4763 433.4771" stroke="#221E1F" stroke-width="0.72091" fill="none" /><path id="656" transform="matrix(1 0 0 -1 0 778)" d="M331.794 428.858L331.3903 436.2912L333.5963 433.8134L336.9269 434.4363L331.794 428.858z" stroke="none" fill="#221E1F" fill-rule="nonzero" /><path id="657" transform="matrix(1 0 0 -1 0 778)" d="M353.114 463.585L341.3343 431.2222" stroke="#221E1F" stroke-width="0.72091" fill="none" /><path id="658" transform="matrix(1 0 0 -1 0 778)" d="M339.655 426.603L339.2513 434.0362L341.4573 431.5584L344.7879 432.1813L339.655 426.603z" stroke="none" fill="#221E1F" fill-rule="nonzero" /><path id="659" transform="matrix(1 0 0 -1 0 778)" d="M361.155 460.373L349.3753 428.0102" stroke="#221E1F" stroke-width="0.72091" fill="none" /><path id="660" transform="matrix(1 0 0 -1 0 778)" d="M347.694 423.392L347.2903 430.8252L349.4963 428.3474L352.8269 428.9703L347.694 423.392z" stroke="none" fill="#221E1F" fill-rule="nonzero" /><g clip-path="url(#27)"></g><g clip-path="url(#28)"></g><g clip-path="url(#29)"></g><g clip-path="url(#30)"></g><g clip-path="url(#31)"></g><g clip-path="url(#32)"></g><g clip-path="url(#33)"></g></g></g></svg>