<svg xmlns="http://www.w3.org/2000/svg" xmlns:xlink="http://www.w3.org/1999/xlink" id="body_57" preserveAspectRatio="xMinYMin meet" viewBox="0 0 700 1037"><defs><clipPath id="1"><path id="" clip-rule="evenodd" transform="matrix(1 0 0 1 0 0)" d="M0 778L0 -0.07501221L0 -0.07501221L525.627 -0.07501221L525.627 -0.07501221L525.627 778L525.627 778L0 778z" /></clipPath><clipPath id="2"><path id="" clip-rule="evenodd" transform="matrix(1 0 0 1 0 0)" d="M0 778L525.627 778L525.627 778L525.627 -0.07397461L525.627 -0.07397461L0 -0.07397461z" /></clipPath><clipPath id="3"><path id="" clip-rule="evenodd" transform="matrix(1 0 0 1 0 0)" d="M0 778L525.627 778L525.627 778L525.627 -0.07397461L525.627 -0.07397461L0 -0.07397461z" /></clipPath><clipPath id="4"><path id="" clip-rule="evenodd" transform="matrix(1 0 0 1 0 0)" d="M-14.5887 -12.20453L537.1627 -12.20453L537.1627 -12.20453L537.1627 788.2399L537.1627 788.2399L-14.5887 788.2399z" /></clipPath><clipPath id="5"><path id="" clip-rule="evenodd" transform="matrix(1 0 0 1 0 0)" d="M-14.5887 -12.20453L537.1627 -12.20453L537.1627 -12.20453L537.1627 788.2399L537.1627 788.2399L-14.5887 788.2399z" /></clipPath><clipPath id="6"><path id="" clip-rule="evenodd" transform="matrix(1 0 0 1 0 0)" d="M-14.589 788.24L537.164 788.24L537.164 788.24L537.164 -12.20203L537.164 -12.20203L-14.589 -12.20203z" /></clipPath><clipPath id="7"><path id="" clip-rule="evenodd" transform="matrix(1 0 0 1 0 0)" d="M-14.589 788.24L537.164 788.24L537.164 788.24L537.164 -12.20203L537.164 -12.20203L-14.589 -12.20203z" /></clipPath><clipPath id="8"><path id="" clip-rule="evenodd" transform="matrix(1 0 0 1 0 0)" d="M-11.098 786.605L353.459 786.605L353.459 786.605L353.459 224.496L353.459 224.496L-11.098 224.496z" /></clipPath><clipPath id="9"><path id="" clip-rule="evenodd" transform="matrix(1 0 0 1 0 0)" d="M-11.098 786.605L353.459 786.605L353.459 786.605L353.459 224.496L353.459 224.496L-11.098 224.496z" /></clipPath><clipPath id="10"><path id="" clip-rule="evenodd" transform="matrix(1 0 0 1 0 0)" d="M-11.098 786.605L353.459 786.605L353.459 786.605L353.459 224.496L353.459 224.496L-11.098 224.496z" /></clipPath><clipPath id="11"><path id="" clip-rule="evenodd" transform="matrix(1 0 0 1 0 0)" d="M-11.098 786.605L353.459 786.605L353.459 786.605L353.459 224.496L353.459 224.496L-11.098 224.496z" /></clipPath><clipPath id="12"><path id="" clip-rule="evenodd" transform="matrix(1 0 0 1 0 0)" d="M-11.098 786.605L353.459 786.605L353.459 786.605L353.459 224.496L353.459 224.496L-11.098 224.496z" /></clipPath><clipPath id="13"><path id="" clip-rule="evenodd" transform="matrix(1 0 0 1 0 0)" d="M-11.098 786.605L353.459 786.605L353.459 786.605L353.459 224.496L353.459 224.496L-11.098 224.496z" /></clipPath><clipPath id="14"><path id="" clip-rule="evenodd" transform="matrix(1 0 0 1 0 0)" d="M-11.098 786.605L353.459 786.605L353.459 786.605L353.459 224.496L353.459 224.496L-11.098 224.496z" /></clipPath><clipPath id="15"><path id="" clip-rule="evenodd" transform="matrix(1 0 0 1 0 0)" d="M-11.098 786.605L353.459 786.605L353.459 786.605L353.459 224.496L353.459 224.496L-11.098 224.496z" /></clipPath><clipPath id="16"><path id="" clip-rule="evenodd" transform="matrix(1 0 0 1 0 0)" d="M-11.098 786.605L353.459 786.605L353.459 786.605L353.459 224.496L353.459 224.496L-11.098 224.496z" /></clipPath><clipPath id="17"><path id="" clip-rule="evenodd" transform="matrix(1 0 0 1 0 0)" d="M-11.098 786.605L353.459 786.605L353.459 786.605L353.459 224.496L353.459 224.496L-11.098 224.496z" /></clipPath><clipPath id="18"><path id="" clip-rule="evenodd" transform="matrix(1 0 0 1 0 0)" d="M-11.098 786.605L353.459 786.605L353.459 786.605L353.459 224.496L353.459 224.496L-11.098 224.496z" /></clipPath><clipPath id="19"><path id="" clip-rule="evenodd" transform="matrix(1 0 0 1 0 0)" d="M40.874 287.319L484.668 287.319L484.668 287.319L484.668 271.484L484.668 271.484L40.874 271.484z" /></clipPath><clipPath id="20"><path id="" clip-rule="evenodd" transform="matrix(1 0 0 1 0 0)" d="M40.874 301.272L484.668 301.272L484.668 301.272L484.668 289.423L484.668 289.423L40.874 289.423z" /></clipPath><clipPath id="21"><path id="" clip-rule="evenodd" transform="matrix(1 0 0 1 0 0)" d="M40.874 316.886L484.668 316.886L484.668 316.886L484.668 303.376L484.668 303.376L40.874 303.376z" /></clipPath><clipPath id="22"><path id="" clip-rule="evenodd" transform="matrix(1 0 0 1 0 0)" d="M40.874 333.164L484.668 333.164L484.668 333.164L484.668 318.99L484.668 318.99L40.874 318.99z" /></clipPath><clipPath id="23"><path id="" clip-rule="evenodd" transform="matrix(1 0 0 1 0 0)" d="M40.874 347.117L484.668 347.117L484.668 347.117L484.668 335.268L484.668 335.268L40.874 335.268z" /></clipPath><clipPath id="24"><path id="" clip-rule="evenodd" transform="matrix(1 0 0 1 0 0)" d="M40.874 363.395L484.668 363.395L484.668 363.395L484.668 349.221L484.668 349.221L40.874 349.221z" /></clipPath><clipPath id="25"><path id="" clip-rule="evenodd" transform="matrix(1 0 0 1 0 0)" d="M40.874 378.345L484.668 378.345L484.668 378.345L484.668 365.499L484.668 365.499L40.874 365.499z" /></clipPath><clipPath id="26"><path id="" clip-rule="evenodd" transform="matrix(1 0 0 1 0 0)" d="M40.874 394.623L484.668 394.623L484.668 394.623L484.668 380.449L484.668 380.449L40.874 380.449z" /></clipPath><clipPath id="27"><path id="" clip-rule="evenodd" transform="matrix(1 0 0 1 0 0)" d="M40.874 410.901L484.668 410.901L484.668 410.901L484.668 396.727L484.668 396.727L40.874 396.727z" /></clipPath><clipPath id="28"><path id="" clip-rule="evenodd" transform="matrix(1 0 0 1 0 0)" d="M40.874 424.854L484.668 424.854L484.668 424.854L484.668 413.005L484.668 413.005L40.874 413.005z" /></clipPath><clipPath id="29"><path id="" clip-rule="evenodd" transform="matrix(1 0 0 1 0 0)" d="M40.874 439.139L484.668 439.139L484.668 439.139L484.668 426.958L484.668 426.958L40.874 426.958z" /></clipPath></defs><g transform="matrix(1.333333 0 0 1.333333 0 0)"><g clip-path="url(#1)"><g clip-path="url(#2)"></g><g clip-path="url(#3)"></g><g clip-path="url(#4)"><path id="1" transform="matrix(1 0 0 -1 0 778)" d="M-2.327461 -10.23985L537.1627 -10.23985L537.1627 62.34951L-2.327461 62.34951z" stroke="none" fill="#4683A9" fill-rule="nonzero" /><path id="2" transform="matrix(1 0 0 -1 0 778)" d="M-2.327461 635.2159L537.1627 635.2159L537.1627 790.2032L-2.327461 790.2032z" stroke="none" fill="#4683A9" fill-rule="nonzero" /></g><g clip-path="url(#5)"></g><g clip-path="url(#6)"><path id="3" transform="matrix(1 0 0 -1 0 778)" d="M-2.327 601.113L537.1588 601.113" stroke="#4683A9" stroke-width="74.97464" fill="none" /></g><g clip-path="url(#7)"><path id="4" transform="matrix(1 0 0 -1 0 778)" d="M-2.327 569.749L537.1588 569.749" stroke="#4683A9" stroke-width="74.97464" fill="none" /></g><g clip-path="url(#8)"></g><g clip-path="url(#9)"></g><g clip-path="url(#10)"></g><g clip-path="url(#11)"></g><g clip-path="url(#12)"></g><g clip-path="url(#13)"></g><g clip-path="url(#14)"></g><g clip-path="url(#15)"></g><g clip-path="url(#16)"></g><g clip-path="url(#17)"></g><g clip-path="url(#18)"></g><g clip-path="url(#19)"></g><g clip-path="url(#20)"></g><g clip-path="url(#21)"></g><g clip-path="url(#22)"></g><g clip-path="url(#23)"></g><g clip-path="url(#24)"></g><g clip-path="url(#25)"></g><g clip-path="url(#26)"></g><g clip-path="url(#27)"></g><g clip-path="url(#28)"></g><g clip-path="url(#29)"></g></g></g></svg>