<svg xmlns="http://www.w3.org/2000/svg" xmlns:xlink="http://www.w3.org/1999/xlink" id="body_54" preserveAspectRatio="xMinYMin meet" viewBox="0 0 700 1037"><defs><clipPath id="1"><path id="" clip-rule="evenodd" transform="matrix(1 0 0 1 0 0)" d="M0 778L0 -0.07501221L0 -0.07501221L525.627 -0.07501221L525.627 -0.07501221L525.627 778L525.627 778L0 778z" /></clipPath><clipPath id="2"><path id="" clip-rule="evenodd" transform="matrix(1 0 0 1 0 0)" d="M-36.216 809.003L558.792 809.003L558.792 809.003L558.792 -32.96503L558.792 -32.96503L-36.216 -32.96503z" /></clipPath><clipPath id="3"><path id="" clip-rule="evenodd" transform="matrix(1 0 0 1 0 0)" d="M0 778L525.627 778L525.627 778L525.627 -0.07397461L525.627 -0.07397461L0 -0.07397461z" /></clipPath><clipPath id="4"><path id="" clip-rule="evenodd" transform="matrix(1 0 0 1 0 0)" d="M-36.216 809.003L558.792 809.003L558.792 809.003L558.792 -32.96503L558.792 -32.96503L-36.216 -32.96503z" /></clipPath><clipPath id="5"><path id="" clip-rule="evenodd" transform="matrix(1 0 0 1 0 0)" d="M0 778L525.627 778L525.627 778L525.627 -0.07397461L525.627 -0.07397461L0 -0.07397461z" /></clipPath><clipPath id="6"><path id="" clip-rule="evenodd" transform="matrix(1 0 0 1 0 0)" d="M-11.098 786.605L353.459 786.605L353.459 786.605L353.459 224.496L353.459 224.496L-11.098 224.496z" /></clipPath><clipPath id="7"><path id="" clip-rule="evenodd" transform="matrix(1 0 0 1 0 0)" d="M-11.098 786.605L353.459 786.605L353.459 786.605L353.459 224.496L353.459 224.496L-11.098 224.496z" /></clipPath><clipPath id="8"><path id="" clip-rule="evenodd" transform="matrix(1 0 0 1 0 0)" d="M-11.098 786.605L353.459 786.605L353.459 786.605L353.459 224.496L353.459 224.496L-11.098 224.496z" /></clipPath><clipPath id="9"><path id="" clip-rule="evenodd" transform="matrix(1 0 0 1 0 0)" d="M-11.098 786.605L353.459 786.605L353.459 786.605L353.459 224.496L353.459 224.496L-11.098 224.496z" /></clipPath><clipPath id="10"><path id="" clip-rule="evenodd" transform="matrix(1 0 0 1 0 0)" d="M-11.098 786.605L353.459 786.605L353.459 786.605L353.459 224.496L353.459 224.496L-11.098 224.496z" /></clipPath><clipPath id="11"><path id="" clip-rule="evenodd" transform="matrix(1 0 0 1 0 0)" d="M-11.098 786.605L353.459 786.605L353.459 786.605L353.459 224.496L353.459 224.496L-11.098 224.496z" /></clipPath><clipPath id="12"><path id="" clip-rule="evenodd" transform="matrix(1 0 0 1 0 0)" d="M-11.098 786.605L353.459 786.605L353.459 786.605L353.459 224.496L353.459 224.496L-11.098 224.496z" /></clipPath><clipPath id="13"><path id="" clip-rule="evenodd" transform="matrix(1 0 0 1 0 0)" d="M-11.098 786.605L353.459 786.605L353.459 786.605L353.459 224.496L353.459 224.496L-11.098 224.496z" /></clipPath><clipPath id="14"><path id="" clip-rule="evenodd" transform="matrix(1 0 0 1 0 0)" d="M-14.5887 -12.20453L537.1627 -12.20453L537.1627 -12.20453L537.1627 788.2399L537.1627 788.2399L-14.5887 788.2399z" /></clipPath><clipPath id="15"><path id="" clip-rule="evenodd" transform="matrix(1 0 0 1 0 0)" d="M-14.589 788.24L537.164 788.24L537.164 788.24L537.164 -12.20203L537.164 -12.20203L-14.589 -12.20203z" /></clipPath><clipPath id="16"><path id="" clip-rule="evenodd" transform="matrix(1 0 0 1 0 0)" d="M-14.589 788.24L537.164 788.24L537.164 788.24L537.164 -12.20203L537.164 -12.20203L-14.589 -12.20203z" /></clipPath><clipPath id="17"><path id="" clip-rule="evenodd" transform="matrix(1 0 0 1 0 0)" d="M-11.098 786.605L353.459 786.605L353.459 786.605L353.459 224.496L353.459 224.496L-11.098 224.496z" /></clipPath><clipPath id="18"><path id="" clip-rule="evenodd" transform="matrix(1 0 0 1 0 0)" d="M-11.098 786.605L353.459 786.605L353.459 786.605L353.459 224.496L353.459 224.496L-11.098 224.496z" /></clipPath><clipPath id="19"><path id="" clip-rule="evenodd" transform="matrix(1 0 0 1 0 0)" d="M-11.098 786.605L353.459 786.605L353.459 786.605L353.459 224.496L353.459 224.496L-11.098 224.496z" /></clipPath><clipPath id="20"><path id="" clip-rule="evenodd" transform="matrix(1 0 0 1 0 0)" d="M-11.098 786.605L353.459 786.605L353.459 786.605L353.459 224.496L353.459 224.496L-11.098 224.496z" /></clipPath><clipPath id="21"><path id="" clip-rule="evenodd" transform="matrix(1 0 0 1 0 0)" d="M-11.098 786.605L353.459 786.605L353.459 786.605L353.459 224.496L353.459 224.496L-11.098 224.496z" /></clipPath><clipPath id="22"><path id="" clip-rule="evenodd" transform="matrix(1 0 0 1 0 0)" d="M-11.098 786.605L353.459 786.605L353.459 786.605L353.459 224.496L353.459 224.496L-11.098 224.496z" /></clipPath><clipPath id="23"><path id="" clip-rule="evenodd" transform="matrix(1 0 0 1 0 0)" d="M-11.098 786.605L353.459 786.605L353.459 786.605L353.459 224.496L353.459 224.496L-11.098 224.496z" /></clipPath><clipPath id="24"><path id="" clip-rule="evenodd" transform="matrix(1 0 0 1 0 0)" d="M-11.098 786.605L353.459 786.605L353.459 786.605L353.459 224.496L353.459 224.496L-11.098 224.496z" /></clipPath><clipPath id="25"><path id="" clip-rule="evenodd" transform="matrix(1 0 0 1 0 0)" d="M-11.098 786.605L353.459 786.605L353.459 786.605L353.459 224.496L353.459 224.496L-11.098 224.496z" /></clipPath><clipPath id="26"><path id="" clip-rule="evenodd" transform="matrix(1 0 0 1 0 0)" d="M-11.098 786.605L353.459 786.605L353.459 786.605L353.459 224.496L353.459 224.496L-11.098 224.496z" /></clipPath><clipPath id="27"><path id="" clip-rule="evenodd" transform="matrix(1 0 0 1 0 0)" d="M-11.098 786.605L353.459 786.605L353.459 786.605L353.459 224.496L353.459 224.496L-11.098 224.496z" /></clipPath><clipPath id="28"><path id="" clip-rule="evenodd" transform="matrix(1 0 0 1 0 0)" d="M-11.098 786.605L353.459 786.605L353.459 786.605L353.459 224.496L353.459 224.496L-11.098 224.496z" /></clipPath><clipPath id="29"><path id="" clip-rule="evenodd" transform="matrix(1 0 0 1 0 0)" d="M-11.098 786.605L353.459 786.605L353.459 786.605L353.459 224.496L353.459 224.496L-11.098 224.496z" /></clipPath><clipPath id="30"><path id="" clip-rule="evenodd" transform="matrix(1 0 0 1 0 0)" d="M-11.098 786.605L353.459 786.605L353.459 786.605L353.459 224.496L353.459 224.496L-11.098 224.496z" /></clipPath><clipPath id="31"><path id="" clip-rule="evenodd" transform="matrix(1 0 0 1 0 0)" d="M-11.098 786.605L353.459 786.605L353.459 786.605L353.459 224.496L353.459 224.496L-11.098 224.496z" /></clipPath><clipPath id="32"><path id="" clip-rule="evenodd" transform="matrix(1 0 0 1 0 0)" d="M-11.098 786.605L353.459 786.605L353.459 786.605L353.459 224.496L353.459 224.496L-11.098 224.496z" /></clipPath><clipPath id="33"><path id="" clip-rule="evenodd" transform="matrix(1 0 0 1 0 0)" d="M-11.098 786.605L353.459 786.605L353.459 786.605L353.459 224.496L353.459 224.496L-11.098 224.496z" /></clipPath><clipPath id="34"><path id="" clip-rule="evenodd" transform="matrix(1 0 0 1 0 0)" d="M-11.098 786.605L353.459 786.605L353.459 786.605L353.459 224.496L353.459 224.496L-11.098 224.496z" /></clipPath><clipPath id="35"><path id="" clip-rule="evenodd" transform="matrix(1 0 0 1 0 0)" d="M-11.098 786.605L353.459 786.605L353.459 786.605L353.459 224.496L353.459 224.496L-11.098 224.496z" /></clipPath><clipPath id="36"><path id="" clip-rule="evenodd" transform="matrix(1 0 0 1 0 0)" d="M-11.098 786.605L353.459 786.605L353.459 786.605L353.459 224.496L353.459 224.496L-11.098 224.496z" /></clipPath><clipPath id="37"><path id="" clip-rule="evenodd" transform="matrix(1 0 0 1 0 0)" d="M-11.098 786.605L353.459 786.605L353.459 786.605L353.459 224.496L353.459 224.496L-11.098 224.496z" /></clipPath><clipPath id="38"><path id="" clip-rule="evenodd" transform="matrix(1 0 0 1 0 0)" d="M-11.098 786.605L353.459 786.605L353.459 786.605L353.459 224.496L353.459 224.496L-11.098 224.496z" /></clipPath><clipPath id="39"><path id="" clip-rule="evenodd" transform="matrix(1 0 0 1 0 0)" d="M-11.098 786.605L353.459 786.605L353.459 786.605L353.459 224.496L353.459 224.496L-11.098 224.496z" /></clipPath><clipPath id="40"><path id="" clip-rule="evenodd" transform="matrix(1 0 0 1 0 0)" d="M-11.098 786.605L353.459 786.605L353.459 786.605L353.459 224.496L353.459 224.496L-11.098 224.496z" /></clipPath><clipPath id="41"><path id="" clip-rule="evenodd" transform="matrix(1 0 0 1 0 0)" d="M45.737 147.685L59.002 147.685L59.002 147.685L59.002 132.735L59.002 132.735L45.737 132.735z" /></clipPath><clipPath id="42"><path id="" clip-rule="evenodd" transform="matrix(1 0 0 1 0 0)" d="M45.737 425.744L59.694 425.744L59.694 425.744L59.694 410.795L59.694 410.795L45.737 410.795z" /></clipPath><clipPath id="43"><path id="" clip-rule="evenodd" transform="matrix(1 0 0 1 0 0)" d="M45.737 191.537L59.694 191.537L59.694 191.537L59.694 176.587L59.694 176.587L45.737 176.587z" /></clipPath><clipPath id="44"><path id="" clip-rule="evenodd" transform="matrix(1 0 0 1 0 0)" d="M45.737 250.005L59.002 250.005L59.002 250.005L59.002 235.388L59.002 235.388L45.737 235.388z" /></clipPath><clipPath id="45"><path id="" clip-rule="evenodd" transform="matrix(1 0 0 1 0 0)" d="M45.737 308.806L59.002 308.806L59.002 308.806L59.002 293.857L59.002 293.857L45.737 293.857z" /></clipPath><clipPath id="46"><path id="" clip-rule="evenodd" transform="matrix(1 0 0 1 0 0)" d="M45.737 484.213L58.31 484.213L58.31 484.213L58.31 469.596L58.31 469.596L45.737 469.596z" /></clipPath><clipPath id="47"><path id="" clip-rule="evenodd" transform="matrix(1 0 0 1 0 0)" d="M45.737 528.065L59.694 528.065L59.694 528.065L59.694 513.447L59.694 513.447L45.737 513.447z" /></clipPath><clipPath id="48"><path id="" clip-rule="evenodd" transform="matrix(1 0 0 1 0 0)" d="M45.737 367.275L59.002 367.275L59.002 367.275L59.002 352.326L59.002 352.326L45.737 352.326z" /></clipPath><clipPath id="49"><path id="" clip-rule="evenodd" transform="matrix(1 0 0 1 0 0)" d="M45.737 572.248L59.002 572.248L59.002 572.248L59.002 557.299L59.002 557.299L45.737 557.299z" /></clipPath><clipPath id="50"><path id="" clip-rule="evenodd" transform="matrix(1 0 0 1 0 0)" d="M429.897 220.771L476.439 220.771L476.439 220.771L476.439 207.206L476.439 207.206L429.897 207.206z" /></clipPath><clipPath id="51"><path id="" clip-rule="evenodd" transform="matrix(1 0 0 1 0 0)" d="M78.304 234.996L284.369 234.996L284.369 234.996L284.369 221.763L284.369 221.763L78.304 221.763z" /></clipPath><clipPath id="52"><path id="" clip-rule="evenodd" transform="matrix(1 0 0 1 0 0)" d="M78.304 293.465L424.861 293.465L424.861 293.465L424.861 280.232L424.861 280.232L78.304 280.232z" /></clipPath><clipPath id="53"><path id="" clip-rule="evenodd" transform="matrix(1 0 0 1 0 0)" d="M188.492 338.041L476.439 338.041L476.439 338.041L476.439 324.476L476.439 324.476L188.492 324.476z" /></clipPath><clipPath id="54"><path id="" clip-rule="evenodd" transform="matrix(1 0 0 1 0 0)" d="M78.304 352.266L281.255 352.266L281.255 352.266L281.255 338.701L281.255 338.701L78.304 338.701z" /></clipPath><clipPath id="55"><path id="" clip-rule="evenodd" transform="matrix(1 0 0 1 0 0)" d="M348.924 381.892L476.439 381.892L476.439 381.892L476.439 368.327L476.439 368.327L348.924 368.327z" /></clipPath><clipPath id="56"><path id="" clip-rule="evenodd" transform="matrix(1 0 0 1 0 0)" d="M78.304 411.344L476.074 411.344L476.074 411.344L476.074 382.553L476.074 382.553L78.304 382.553z" /></clipPath><clipPath id="57"><path id="" clip-rule="evenodd" transform="matrix(1 0 0 1 0 0)" d="M429.205 454.979L476.439 454.979L476.439 454.979L476.439 441.413L476.439 441.413L429.205 441.413z" /></clipPath><clipPath id="58"><path id="" clip-rule="evenodd" transform="matrix(1 0 0 1 0 0)" d="M78.304 469.204L316.205 469.204L316.205 469.204L316.205 455.971L316.205 455.971L78.304 455.971z" /></clipPath></defs><g transform="matrix(1.333333 0 0 1.333333 0 0)"><g clip-path="url(#1)"><g clip-path="url(#2)"></g><g clip-path="url(#3)"></g><g clip-path="url(#4)"></g><g clip-path="url(#5)"></g><g clip-path="url(#6)"></g><g clip-path="url(#7)"></g><g clip-path="url(#8)"></g><g clip-path="url(#9)"></g><g clip-path="url(#10)"></g><g clip-path="url(#11)"></g><g clip-path="url(#12)"></g><g clip-path="url(#13)"></g><g clip-path="url(#14)"><path id="34" transform="matrix(1 0 0 -1 0 778)" d="M-14.5887 707.8052L40.58687 707.8052L40.58687 724.4808L-14.5887 724.4808z" stroke="none" fill="#4683A9" fill-rule="nonzero" /></g><g clip-path="url(#15)"><path id="35" transform="matrix(1 0 0 -1 0 778)" d="M-14.589 678.616L524.8969 678.616" stroke="#4683A9" stroke-width="40.37096" fill="none" /></g><g clip-path="url(#16)"><path id="36" transform="matrix(1 0 0 -1 0 778)" d="M-14.589 678.397L524.8969 678.397" stroke="#4683A9" stroke-width="40.37096" fill="none" /></g><g clip-path="url(#17)"></g><g clip-path="url(#18)"></g><g clip-path="url(#19)"></g><g clip-path="url(#20)"></g><g clip-path="url(#21)"></g><g clip-path="url(#22)"></g><g clip-path="url(#23)"></g><g clip-path="url(#24)"></g><g clip-path="url(#25)"></g><g clip-path="url(#26)"></g><g clip-path="url(#27)"></g><g clip-path="url(#28)"></g><g clip-path="url(#29)"></g><g clip-path="url(#30)"></g><g clip-path="url(#31)"></g><g clip-path="url(#32)"></g><g clip-path="url(#33)"></g><g clip-path="url(#34)"></g><g clip-path="url(#35)"></g><g clip-path="url(#36)"></g><g clip-path="url(#37)"></g><g clip-path="url(#38)"></g><g clip-path="url(#39)"></g><g clip-path="url(#40)"></g><g clip-path="url(#41)"></g><g clip-path="url(#42)"></g><g clip-path="url(#43)"></g><g clip-path="url(#44)"></g><g clip-path="url(#45)"></g><g clip-path="url(#46)"></g><g clip-path="url(#47)"></g><g clip-path="url(#48)"></g><g clip-path="url(#49)"></g><g clip-path="url(#50)"></g><g clip-path="url(#51)"></g><g clip-path="url(#52)"></g><g clip-path="url(#53)"></g><g clip-path="url(#54)"></g><g clip-path="url(#55)"></g><g clip-path="url(#56)"></g><g clip-path="url(#57)"></g><g clip-path="url(#58)"></g></g></g></svg>