<svg xmlns="http://www.w3.org/2000/svg" xmlns:xlink="http://www.w3.org/1999/xlink" id="body_40" preserveAspectRatio="xMinYMin meet" viewBox="0 0 700 1037"><defs><clipPath id="1"><path id="" clip-rule="evenodd" transform="matrix(1 0 0 1 0 0)" d="M0 778L0 -0.07501221L0 -0.07501221L525.627 -0.07501221L525.627 -0.07501221L525.627 778L525.627 778L0 778z" /></clipPath><clipPath id="2"><path id="" clip-rule="evenodd" transform="matrix(1 0 0 1 0 0)" d="M-11.098 786.605L353.459 786.605L353.459 786.605L353.459 224.496L353.459 224.496L-11.098 224.496z" /></clipPath><clipPath id="3"><path id="" clip-rule="evenodd" transform="matrix(1 0 0 1 0 0)" d="M-14.5887 -12.20453L537.1627 -12.20453L537.1627 -12.20453L537.1627 788.2399L537.1627 788.2399L-14.5887 788.2399z" /></clipPath><clipPath id="4"><path id="" clip-rule="evenodd" transform="matrix(1 0 0 1 0 0)" d="M-14.5887 -12.20453L537.1627 -12.20453L537.1627 -12.20453L537.1627 788.2399L537.1627 788.2399L-14.5887 788.2399z" /></clipPath><clipPath id="5"><path id="" clip-rule="evenodd" transform="matrix(1 0 0 1 0 0)" d="M-36.216 809.003L558.792 809.003L558.792 809.003L558.792 -32.96503L558.792 -32.96503L-36.216 -32.96503z" /></clipPath><clipPath id="6"><path id="" clip-rule="evenodd" transform="matrix(1 0 0 1 0 0)" d="M0 778L525.627 778L525.627 778L525.627 -0.07397461L525.627 -0.07397461L0 -0.07397461z" /></clipPath><clipPath id="7"><path id="" clip-rule="evenodd" transform="matrix(1 0 0 1 0 0)" d="M-36.216 809.003L558.792 809.003L558.792 809.003L558.792 -32.96503L558.792 -32.96503L-36.216 -32.96503z" /></clipPath><clipPath id="8"><path id="" clip-rule="evenodd" transform="matrix(1 0 0 1 0 0)" d="M0 778L525.627 778L525.627 778L525.627 -0.07397461L525.627 -0.07397461L0 -0.07397461z" /></clipPath><clipPath id="9"><path id="" clip-rule="evenodd" transform="matrix(1 0 0 1 0 0)" d="M48.761 249.813L185.569 249.813L185.569 249.813L185.569 80.00598L185.569 80.00598L48.761 80.00598z" /></clipPath><clipPath id="10"><path id="" clip-rule="evenodd" transform="matrix(1 0 0 1 0 0)" d="M192.958 249.813L329.618 249.813L329.618 249.813L329.618 80.00598L329.618 80.00598L192.958 80.00598z" /></clipPath><clipPath id="11"><path id="" clip-rule="evenodd" transform="matrix(1 0 0 1 0 0)" d="M337.006 249.813L473.815 249.813L473.815 249.813L473.815 80.00598L473.815 80.00598L337.006 80.00598z" /></clipPath><clipPath id="12"><path id="" clip-rule="evenodd" transform="matrix(1 0 0 1 0 0)" d="M-11.098 786.605L353.459 786.605L353.459 786.605L353.459 224.496L353.459 224.496L-11.098 224.496z" /></clipPath><clipPath id="13"><path id="" clip-rule="evenodd" transform="matrix(1 0 0 1 0 0)" d="M-11.098 786.605L353.459 786.605L353.459 786.605L353.459 224.496L353.459 224.496L-11.098 224.496z" /></clipPath><clipPath id="14"><path id="" clip-rule="evenodd" transform="matrix(1 0 0 1 0 0)" d="M-11.098 786.605L353.459 786.605L353.459 786.605L353.459 224.496L353.459 224.496L-11.098 224.496z" /></clipPath><clipPath id="15"><path id="" clip-rule="evenodd" transform="matrix(1 0 0 1 0 0)" d="M-11.098 786.605L353.459 786.605L353.459 786.605L353.459 224.496L353.459 224.496L-11.098 224.496z" /></clipPath><clipPath id="16"><path id="" clip-rule="evenodd" transform="matrix(1 0 0 1 0 0)" d="M-11.098 786.605L353.459 786.605L353.459 786.605L353.459 224.496L353.459 224.496L-11.098 224.496z" /></clipPath></defs><g transform="matrix(1.333333 0 0 1.333333 0 0)"><g clip-path="url(#1)"><g clip-path="url(#2)"></g><g clip-path="url(#3)"><path id="37" transform="matrix(1 0 0 -1 0 778)" d="M-14.5887 707.8052L40.58687 707.8052L40.58687 724.4808L-14.5887 724.4808z" stroke="none" fill="#4683A9" fill-rule="nonzero" /></g><g clip-path="url(#4)"></g><g clip-path="url(#5)"></g><g clip-path="url(#6)"></g><g clip-path="url(#7)"></g><g clip-path="url(#8)"></g><g clip-path="url(#9)"><g transform="matrix(0.6909546 0 0 0.6637015 48.761 80.00507)"><g transform="matrix(1 0 0 1 0 0)"><image x="0" y="0" xlink:href="img_58.png" width="198" height="258" /></g></g></g><g clip-path="url(#10)"><g transform="matrix(0.6937056 0 0 0.6637015 192.958 80.00507)"><g transform="matrix(1 0 0 1 0 0)"><image x="0" y="0" xlink:href="img_59.png" width="197" height="258" /></g></g></g><g clip-path="url(#11)"><g transform="matrix(0.6909546 0 0 0.6637015 337.008 80.00507)"><g transform="matrix(1 0 0 1 0 0)"><image x="0" y="0" xlink:href="img_60.png" width="198" height="258" /></g></g></g><g clip-path="url(#12)"></g><g clip-path="url(#13)"></g><g clip-path="url(#14)"></g><g clip-path="url(#15)"></g><g clip-path="url(#16)"></g></g></g></svg>