<svg xmlns="http://www.w3.org/2000/svg" xmlns:xlink="http://www.w3.org/1999/xlink" id="body_38" preserveAspectRatio="xMinYMin meet" viewBox="0 0 700 1037"><defs><clipPath id="1"><path id="" clip-rule="evenodd" transform="matrix(1 0 0 1 0 0)" d="M0 778L0 -0.07501221L0 -0.07501221L525.627 -0.07501221L525.627 -0.07501221L525.627 778L525.627 778L0 778z" /></clipPath><clipPath id="2"><path id="" clip-rule="evenodd" transform="matrix(1 0 0 1 0 0)" d="M-36.216 809.003L558.792 809.003L558.792 809.003L558.792 -32.96503L558.792 -32.96503L-36.216 -32.96503z" /></clipPath><clipPath id="3"><path id="" clip-rule="evenodd" transform="matrix(1 0 0 1 0 0)" d="M0 778L525.627 778L525.627 778L525.627 -0.07397461L525.627 -0.07397461L0 -0.07397461z" /></clipPath><clipPath id="4"><path id="" clip-rule="evenodd" transform="matrix(1 0 0 1 0 0)" d="M-36.216 809.003L558.792 809.003L558.792 809.003L558.792 -32.96503L558.792 -32.96503L-36.216 -32.96503z" /></clipPath><clipPath id="5"><path id="" clip-rule="evenodd" transform="matrix(1 0 0 1 0 0)" d="M0 778L525.627 778L525.627 778L525.627 -0.07397461L525.627 -0.07397461L0 -0.07397461z" /></clipPath><clipPath id="6"><path id="" clip-rule="evenodd" transform="matrix(1 0 0 1 0 0)" d="M-14.5887 -12.20453L537.1627 -12.20453L537.1627 -12.20453L537.1627 788.2399L537.1627 788.2399L-14.5887 788.2399z" /></clipPath><clipPath id="7"><path id="" clip-rule="evenodd" transform="matrix(1 0 0 1 0 0)" d="M-14.5887 -12.20453L537.1627 -12.20453L537.1627 -12.20453L537.1627 788.2399L537.1627 788.2399L-14.5887 788.2399z" /></clipPath><clipPath id="8"><path id="" clip-rule="evenodd" transform="matrix(1 0 0 1 0 0)" d="M-11.098 786.605L353.459 786.605L353.459 786.605L353.459 224.496L353.459 224.496L-11.098 224.496z" /></clipPath><clipPath id="9"><path id="" clip-rule="evenodd" transform="matrix(1 0 0 1 0 0)" d="M-11.098 786.605L353.459 786.605L353.459 786.605L353.459 224.496L353.459 224.496L-11.098 224.496z" /></clipPath><clipPath id="10"><path id="" clip-rule="evenodd" transform="matrix(1 0 0 1 0 0)" d="M-11.098 786.605L353.459 786.605L353.459 786.605L353.459 224.496L353.459 224.496L-11.098 224.496z" /></clipPath><clipPath id="11"><path id="" clip-rule="evenodd" transform="matrix(1 0 0 1 0 0)" d="M-11.098 786.605L353.459 786.605L353.459 786.605L353.459 224.496L353.459 224.496L-11.098 224.496z" /></clipPath><clipPath id="12"><path id="" clip-rule="evenodd" transform="matrix(1 0 0 1 0 0)" d="M-14.589 788.24L537.164 788.24L537.164 788.24L537.164 -12.20203L537.164 -12.20203L-14.589 -12.20203z" /></clipPath><clipPath id="13"><path id="" clip-rule="evenodd" transform="matrix(1 0 0 1 0 0)" d="M-14.589 788.24L537.164 788.24L537.164 788.24L537.164 -12.20203L537.164 -12.20203L-14.589 -12.20203z" /></clipPath><clipPath id="14"><path id="" clip-rule="evenodd" transform="matrix(1 0 0 1 0 0)" d="M-11.098 786.605L353.459 786.605L353.459 786.605L353.459 224.496L353.459 224.496L-11.098 224.496z" /></clipPath><clipPath id="15"><path id="" clip-rule="evenodd" transform="matrix(1 0 0 1 0 0)" d="M-11.098 786.605L353.459 786.605L353.459 786.605L353.459 224.496L353.459 224.496L-11.098 224.496z" /></clipPath><clipPath id="16"><path id="" clip-rule="evenodd" transform="matrix(1 0 0 1 0 0)" d="M-11.098 786.605L353.459 786.605L353.459 786.605L353.459 224.496L353.459 224.496L-11.098 224.496z" /></clipPath><clipPath id="17"><path id="" clip-rule="evenodd" transform="matrix(1 0 0 1 0 0)" d="M-11.098 786.605L353.459 786.605L353.459 786.605L353.459 224.496L353.459 224.496L-11.098 224.496z" /></clipPath><clipPath id="18"><path id="" clip-rule="evenodd" transform="matrix(1 0 0 1 0 0)" d="M-11.098 786.605L353.459 786.605L353.459 786.605L353.459 224.496L353.459 224.496L-11.098 224.496z" /></clipPath><clipPath id="19"><path id="" clip-rule="evenodd" transform="matrix(1 0 0 1 0 0)" d="M-11.098 786.605L353.459 786.605L353.459 786.605L353.459 224.496L353.459 224.496L-11.098 224.496z" /></clipPath><clipPath id="20"><path id="" clip-rule="evenodd" transform="matrix(1 0 0 1 0 0)" d="M-11.098 786.605L353.459 786.605L353.459 786.605L353.459 224.496L353.459 224.496L-11.098 224.496z" /></clipPath><clipPath id="21"><path id="" clip-rule="evenodd" transform="matrix(1 0 0 1 0 0)" d="M-11.098 786.605L353.459 786.605L353.459 786.605L353.459 224.496L353.459 224.496L-11.098 224.496z" /></clipPath><clipPath id="22"><path id="" clip-rule="evenodd" transform="matrix(1 0 0 1 0 0)" d="M-11.098 786.605L353.459 786.605L353.459 786.605L353.459 224.496L353.459 224.496L-11.098 224.496z" /></clipPath><clipPath id="23"><path id="" clip-rule="evenodd" transform="matrix(1 0 0 1 0 0)" d="M48.761 673.367L185.371 673.367L185.371 673.367L185.371 466.27L185.371 466.27L48.761 466.27z" /></clipPath><clipPath id="24"><path id="" clip-rule="evenodd" transform="matrix(1 0 0 1 0 0)" d="M192.581 673.367L328.894 673.367L328.894 673.367L328.894 466.27L328.894 466.27L192.581 466.27z" /></clipPath><clipPath id="25"><path id="" clip-rule="evenodd" transform="matrix(1 0 0 1 0 0)" d="M336.104 673.367L472.567 673.367L472.567 673.367L472.567 466.27L472.567 466.27L336.104 466.27z" /></clipPath><clipPath id="26"><path id="" clip-rule="evenodd" transform="matrix(1 0 0 1 0 0)" d="M465.827 210.805L474.997 210.805L474.997 210.805L474.997 194.859L474.997 194.859L465.827 194.859z" /></clipPath><clipPath id="27"><path id="" clip-rule="evenodd" transform="matrix(1 0 0 1 0 0)" d="M317.377 335.383L383.643 335.383L383.643 335.383L383.643 319.769L383.643 319.769L317.377 319.769z" /></clipPath><clipPath id="28"><path id="" clip-rule="evenodd" transform="matrix(1 0 0 1 0 0)" d="M199.724 418.436L208.548 418.436L208.548 418.436L208.548 402.489L208.548 402.489L199.724 402.489z" /></clipPath><clipPath id="29"><path id="" clip-rule="evenodd" transform="matrix(1 0 0 1 0 0)" d="M127.402 710.115L229.657 710.115L229.657 710.115L229.657 696.827L229.657 696.827L127.402 696.827z" /></clipPath><clipPath id="30"><path id="" clip-rule="evenodd" transform="matrix(1 0 0 1 0 0)" d="M45.737 695.83L105.429 695.83L105.429 695.83L105.429 682.542L105.429 682.542L45.737 682.542z" /></clipPath></defs><g transform="matrix(1.333333 0 0 1.333333 0 0)"><g clip-path="url(#1)"><g clip-path="url(#2)"></g><g clip-path="url(#3)"></g><g clip-path="url(#4)"></g><g clip-path="url(#5)"></g><g clip-path="url(#6)"><path id="1" transform="matrix(1 0 0 -1 0 778)" d="M-14.5887 707.8052L40.58687 707.8052L40.58687 724.4808L-14.5887 724.4808z" stroke="none" fill="#4683A9" fill-rule="nonzero" /></g><g clip-path="url(#7)"></g><g clip-path="url(#8)"></g><g clip-path="url(#9)"></g><g clip-path="url(#10)"></g><g clip-path="url(#11)"></g><g clip-path="url(#12)"><path id="35" transform="matrix(1 0 0 -1 0 778)" d="M-14.589 678.616L524.8969 678.616" stroke="#4683A9" stroke-width="40.37096" fill="none" /></g><g clip-path="url(#13)"><path id="36" transform="matrix(1 0 0 -1 0 778)" d="M-14.589 650.713L524.8969 650.713" stroke="#4683A9" stroke-width="40.37096" fill="none" /></g><g clip-path="url(#14)"></g><g clip-path="url(#15)"></g><g clip-path="url(#16)"></g><g clip-path="url(#17)"></g><g clip-path="url(#18)"></g><g clip-path="url(#19)"></g><g clip-path="url(#20)"></g><g clip-path="url(#21)"></g><g clip-path="url(#22)"></g><g clip-path="url(#23)"><g transform="matrix(0.6934568 0 0 0.6637757 48.761 466.271)"><g transform="matrix(1 0 0 1 0 0)"><image x="0" y="0" xlink:href="img_50.png" width="197" height="312" /></g></g></g><g clip-path="url(#24)"><g transform="matrix(0.6919442 0 0 0.6637757 192.581 466.271)"><g transform="matrix(1 0 0 1 0 0)"><image x="0" y="0" xlink:href="img_51.png" width="197" height="312" /></g></g></g><g clip-path="url(#25)"><g transform="matrix(0.6927056 0 0 0.6637757 336.104 466.271)"><g transform="matrix(1 0 0 1 0 0)"><image x="0" y="0" xlink:href="img_52.png" width="197" height="312" /></g></g></g><g clip-path="url(#26)"></g><g clip-path="url(#27)"></g><g clip-path="url(#28)"></g><g clip-path="url(#29)"></g><g clip-path="url(#30)"></g></g></g></svg>