<svg xmlns="http://www.w3.org/2000/svg" xmlns:xlink="http://www.w3.org/1999/xlink" id="body_2" preserveAspectRatio="xMinYMin meet" viewBox="0 0 700 1037"><defs><clipPath id="1"><path id="" clip-rule="evenodd" transform="matrix(1 0 0 1 0 0)" d="M0 778L0 -0.07501221L0 -0.07501221L525.627 -0.07501221L525.627 -0.07501221L525.627 778L525.627 778L0 778z" /></clipPath><clipPath id="2"><path id="" clip-rule="evenodd" transform="matrix(1 0 0 1 0 0)" d="M-36.216 809.003L558.792 809.003L558.792 809.003L558.792 -32.96503L558.792 -32.96503L-36.216 -32.96503z" /></clipPath><clipPath id="3"><path id="" clip-rule="evenodd" transform="matrix(1 0 0 1 0 0)" d="M0 778L525.627 778L525.627 778L525.627 -0.07397461L525.627 -0.07397461L0 -0.07397461z" /></clipPath><clipPath id="4"><path id="" clip-rule="evenodd" transform="matrix(1 0 0 1 0 0)" d="M-36.216 809.003L558.792 809.003L558.792 809.003L558.792 -32.96503L558.792 -32.96503L-36.216 -32.96503z" /></clipPath><clipPath id="5"><path id="" clip-rule="evenodd" transform="matrix(1 0 0 1 0 0)" d="M0 778L525.627 778L525.627 778L525.627 -0.07397461L525.627 -0.07397461L0 -0.07397461z" /></clipPath><clipPath id="6"><path id="" clip-rule="evenodd" transform="matrix(1 0 0 1 0 0)" d="M-11.098 786.605L353.459 786.605L353.459 786.605L353.459 224.496L353.459 224.496L-11.098 224.496z" /></clipPath><clipPath id="7"><path id="" clip-rule="evenodd" transform="matrix(1 0 0 1 0 0)" d="M-11.098 786.605L353.459 786.605L353.459 786.605L353.459 224.496L353.459 224.496L-11.098 224.496z" /></clipPath><clipPath id="8"><path id="" clip-rule="evenodd" transform="matrix(1 0 0 1 0 0)" d="M-11.098 786.605L353.459 786.605L353.459 786.605L353.459 224.496L353.459 224.496L-11.098 224.496z" /></clipPath></defs><g transform="matrix(1.333333 0 0 1.333333 0 0)"><g clip-path="url(#1)"><g clip-path="url(#2)"></g><g clip-path="url(#3)"></g><g clip-path="url(#4)"></g><g clip-path="url(#5)"></g><path id="1" transform="matrix(1 0 0 -1 0 778)" d="M-14.589 485.131L40.58945 485.131L40.58945 651.8867L-14.589 651.8867z" stroke="none" fill="#4683A9" fill-rule="nonzero" /><g clip-path="url(#6)"></g><path id="2" transform="matrix(1 0 0 -1 0 778)" d="M50.804 502.788L137.6592 502.788L137.6592 634.2325L50.804 634.2325z" stroke="none" fill="#221E1F" fill-rule="nonzero" /><path id="3" transform="matrix(1 0 0 -1 0 778)" d="M147.873 485.131L537.1644 485.131L537.1644 651.8867L147.873 651.8867z" stroke="none" fill="#4683A9" fill-rule="nonzero" /><g clip-path="url(#7)"></g><g clip-path="url(#8)"></g></g></g></svg>